%TF.GenerationSoftware,KiCad,Pcbnew,6.0.4-6f826c9f35~116~ubuntu20.04.1*%
%TF.CreationDate,2022-07-12T09:53:23+00:00*%
%TF.ProjectId,VCAI2C01A,56434149-3243-4303-9141-2e6b69636164,rev?*%
%TF.SameCoordinates,Original*%
%TF.FileFunction,Paste,Bot*%
%TF.FilePolarity,Positive*%
%FSLAX46Y46*%
G04 Gerber Fmt 4.6, Leading zero omitted, Abs format (unit mm)*
G04 Created by KiCad (PCBNEW 6.0.4-6f826c9f35~116~ubuntu20.04.1) date 2022-07-12 09:53:23*
%MOMM*%
%LPD*%
G01*
G04 APERTURE LIST*
%ADD10R,0.889000X1.397000*%
%ADD11R,1.397000X0.889000*%
%ADD12R,1.699260X1.300480*%
%ADD13R,1.550000X0.600000*%
%ADD14R,1.143000X0.600000*%
%ADD15R,1.524000X2.032000*%
G04 APERTURE END LIST*
D10*
%TO.C,C1*%
X12827000Y32004000D03*
X10922000Y32004000D03*
%TD*%
D11*
%TO.C,C2*%
X30226000Y34798000D03*
X30226000Y32893000D03*
%TD*%
%TO.C,C3*%
X30226000Y36576000D03*
X30226000Y38481000D03*
%TD*%
D10*
%TO.C,C4*%
X24447500Y33020000D03*
X26352500Y33020000D03*
%TD*%
D11*
%TO.C,C5*%
X18897600Y31788100D03*
X18897600Y29883100D03*
%TD*%
D10*
%TO.C,C6*%
X16916400Y29210000D03*
X15011400Y29210000D03*
%TD*%
%TO.C,C7*%
X20891500Y29210000D03*
X22796500Y29210000D03*
%TD*%
%TO.C,C8*%
X44640500Y29210000D03*
X42735500Y29210000D03*
%TD*%
%TO.C,C9*%
X57467500Y30734000D03*
X59372500Y30734000D03*
%TD*%
%TO.C,C10*%
X48196500Y28956000D03*
X46291500Y28956000D03*
%TD*%
%TO.C,C11*%
X53403500Y31140400D03*
X55308500Y31140400D03*
%TD*%
D12*
%TO.C,D1*%
X26924000Y44422060D03*
X26924000Y40921940D03*
%TD*%
%TO.C,D2*%
X17678400Y23830280D03*
X17678400Y27330400D03*
%TD*%
%TO.C,D3*%
X20320000Y23903940D03*
X20320000Y27404060D03*
%TD*%
%TO.C,D4*%
X10210800Y23751540D03*
X10210800Y27251660D03*
%TD*%
%TO.C,D5*%
X29565600Y23881080D03*
X29565600Y27381200D03*
%TD*%
%TO.C,D6*%
X50393600Y23779480D03*
X50393600Y27279600D03*
%TD*%
%TO.C,D7*%
X52832000Y23853140D03*
X52832000Y27353260D03*
%TD*%
%TO.C,D8*%
X41148000Y22887940D03*
X41148000Y26388060D03*
%TD*%
%TO.C,D9*%
X60198000Y23903940D03*
X60198000Y27404060D03*
%TD*%
D11*
%TO.C,R3*%
X15544800Y27368500D03*
X15544800Y25463500D03*
%TD*%
%TO.C,R4*%
X13004800Y27368500D03*
X13004800Y25463500D03*
%TD*%
%TO.C,R5*%
X22860000Y27368500D03*
X22860000Y25463500D03*
%TD*%
%TO.C,R6*%
X25400000Y27368500D03*
X25400000Y25463500D03*
%TD*%
D10*
%TO.C,R7*%
X10922000Y29464000D03*
X12827000Y29464000D03*
%TD*%
%TO.C,R8*%
X26352500Y30480000D03*
X24447500Y30480000D03*
%TD*%
%TO.C,R9*%
X15011400Y31242000D03*
X16916400Y31242000D03*
%TD*%
%TO.C,R10*%
X22796500Y31496000D03*
X20891500Y31496000D03*
%TD*%
D11*
%TO.C,R13*%
X48260000Y26860500D03*
X48260000Y24955500D03*
%TD*%
%TO.C,R14*%
X45720000Y26860500D03*
X45720000Y24955500D03*
%TD*%
%TO.C,R15*%
X55118000Y26606500D03*
X55118000Y24701500D03*
%TD*%
%TO.C,R16*%
X57404000Y26606500D03*
X57404000Y24701500D03*
%TD*%
D10*
%TO.C,R17*%
X42735500Y31750000D03*
X44640500Y31750000D03*
%TD*%
%TO.C,R18*%
X59372500Y33020000D03*
X57467500Y33020000D03*
%TD*%
%TO.C,R19*%
X46253400Y31191200D03*
X48158400Y31191200D03*
%TD*%
%TO.C,R20*%
X55308500Y29210000D03*
X53403500Y29210000D03*
%TD*%
D11*
%TO.C,R21*%
X53848000Y41211500D03*
X53848000Y43116500D03*
%TD*%
%TO.C,R22*%
X45872400Y41325800D03*
X45872400Y43230800D03*
%TD*%
D10*
%TO.C,R23*%
X34988500Y38354000D03*
X33083500Y38354000D03*
%TD*%
%TO.C,R24*%
X36639500Y38354000D03*
X38544500Y38354000D03*
%TD*%
D13*
%TO.C,U1*%
X15842000Y33655000D03*
X15842000Y34925000D03*
X15842000Y36195000D03*
X15842000Y37465000D03*
X21242000Y37465000D03*
X21242000Y36195000D03*
X21242000Y34925000D03*
X21242000Y33655000D03*
%TD*%
%TO.C,U2*%
X48100000Y33147000D03*
X48100000Y34417000D03*
X48100000Y35687000D03*
X48100000Y36957000D03*
X53500000Y36957000D03*
X53500000Y35687000D03*
X53500000Y34417000D03*
X53500000Y33147000D03*
%TD*%
D14*
%TO.C,U3*%
X33274000Y28194000D03*
X33274000Y29464000D03*
X33274000Y30734000D03*
X33274000Y32004000D03*
X33274000Y33274000D03*
X33274000Y34544000D03*
X33274000Y35814000D03*
X39624000Y35814000D03*
X39624000Y34544000D03*
X39624000Y33274000D03*
X39624000Y32004000D03*
X39624000Y30734000D03*
X39624000Y29464000D03*
X39624000Y28194000D03*
%TD*%
D11*
%TO.C,C12*%
X50800000Y31432500D03*
X50800000Y29527500D03*
%TD*%
%TO.C,L1*%
X27940000Y39243000D03*
X27940000Y37338000D03*
%TD*%
D15*
%TO.C,R1*%
X15621000Y18034000D03*
X18923000Y18034000D03*
%TD*%
%TO.C,R2*%
X30353000Y18034000D03*
X27051000Y18034000D03*
%TD*%
%TO.C,R11*%
X41529000Y18288000D03*
X44831000Y18288000D03*
%TD*%
%TO.C,R12*%
X56769000Y18034000D03*
X53467000Y18034000D03*
%TD*%
M02*
