M48
; DRILL file {KiCad 6.0.4-6f826c9f35~116~ubuntu20.04.1} date Wed Oct 12 21:55:34 2022
; FORMAT={-:-/ absolute / metric / decimal}
; #@! TF.CreationDate,2022-10-12T21:55:34+00:00
; #@! TF.GenerationSoftware,Kicad,Pcbnew,6.0.4-6f826c9f35~116~ubuntu20.04.1
; #@! TF.FileFunction,Plated,1,2,PTH
FMAT,2
METRIC
; #@! TA.AperFunction,Plated,PTH,ViaDrill
T1C0.400
; #@! TA.AperFunction,Plated,PTH,ComponentDrill
T2C0.889
; #@! TA.AperFunction,Plated,PTH,ComponentDrill
T3C3.000
%
G90
G05
T1
X-1.778Y17.018
X-1.778Y15.748
X-1.778Y14.224
X-1.016Y21.336
X-1.016Y20.066
X-1.016Y18.796
X-1.016Y17.78
X0.0Y22.098
X1.524Y12.192
X1.524Y22.098
X2.54Y10.414
X3.302Y6.604
X3.454Y26.01
X3.556Y4.572
X4.064Y27.178
X5.08Y27.432
X5.334Y3.302
X5.588Y1.27
X5.588Y-0.254
X5.588Y-1.778
X6.35Y27.432
X6.604Y14.224
X7.112Y24.638
X7.112Y25.908
X7.366Y27.432
X7.62Y14.224
X8.128Y28.194
X8.128Y17.272
X8.433Y19.264
X8.636Y12.192
X9.398Y28.956
X9.652Y21.539
X9.906Y14.224
X10.668Y28.956
X10.922Y14.224
X11.684Y10.414
X11.938Y28.956
X12.446Y8.89
X12.446Y6.858
X13.462Y28.956
X13.97Y4.064
X14.224Y2.794
X14.478Y29.718
X14.478Y28.194
X14.732Y32.766
X14.732Y31.242
X14.986Y34.29
X15.24Y27.432
X15.748Y17.526
X16.002Y26.67
X16.51Y31.242
X16.51Y17.018
X17.018Y21.082
X17.272Y19.812
X17.272Y18.034
X17.704Y23.14
X17.78Y17.018
X18.288Y29.21
X18.593Y18.186
X18.796Y32.512
X18.796Y30.988
X19.304Y34.036
X19.812Y10.922
X20.828Y34.036
X20.828Y12.192
X21.082Y9.144
X21.336Y21.844
X21.336Y20.828
X21.336Y18.034
X21.844Y25.4
X22.352Y9.144
X23.622Y14.732
X23.876Y17.78
X23.876Y15.748
X23.876Y13.716
X24.384Y9.144
X24.892Y1.27
X24.892Y0.0
X24.892Y-1.27
X25.908Y8.636
X25.908Y7.62
X25.908Y6.35
X25.908Y5.08
X25.908Y3.556
X25.908Y2.032
X26.924Y20.066
X26.924Y1.27
X26.924Y0.0
X26.924Y-1.27
X27.686Y23.368
X27.686Y21.844
X27.94Y9.144
X29.21Y11.43
X30.226Y9.398
X30.734Y18.034
X30.988Y22.606
X30.988Y34.036
X30.988Y16.764
X31.75Y19.05
X32.004Y10.16
X32.512Y16.256
X32.766Y34.036
X32.766Y32.258
X32.766Y30.48
X33.02Y11.43
X33.049Y22.069
X33.528Y16.256
X34.036Y23.056
X34.036Y22.098
X36.097Y25.117
X36.576Y33.782
X37.084Y3.302
X37.338Y4.318
X39.116Y20.828
X39.116Y17.272
X39.116Y14.478
X39.319Y18.948
X39.878Y14.224
X39.878Y7.62
X39.878Y5.588
X40.386Y9.144
X40.64Y22.606
X41.148Y21.336
X41.148Y12.349
X41.91Y8.89
X42.164Y26.924
X42.164Y14.224
X42.672Y28.194
X43.18Y33.528
X43.18Y14.224
X43.434Y26.924
X44.196Y28.448
X44.45Y33.528
X44.704Y26.924
X45.212Y32.512
X45.72Y25.908
X45.72Y3.81
X45.72Y2.54
X45.72Y1.27
X45.72Y0.0
X45.72Y-1.27
X46.736Y24.892
X46.99Y11.176
X46.99Y3.81
X47.244Y17.526
X47.244Y10.16
X47.498Y8.89
X48.006Y23.876
X48.006Y16.256
X48.006Y7.874
X48.006Y6.604
X48.006Y5.08
X48.26Y14.224
X48.768Y11.684
X49.276Y13.97
X49.53Y23.368
X50.292Y14.478
X50.546Y22.606
X50.546Y21.336
X50.546Y19.812
X50.546Y18.288
X51.054Y13.716
T2
X7.112Y10.16
X7.62Y1.27
X7.62Y-1.27
X9.652Y10.16
X10.16Y1.27
X10.16Y-1.27
X12.7Y1.27
X12.7Y-1.27
X13.716Y10.16
X15.24Y1.27
X15.24Y-1.27
X16.256Y10.16
X17.78Y1.27
X17.78Y-1.27
X20.32Y1.27
X20.32Y-1.27
X20.828Y32.004
X20.828Y29.464
X22.86Y1.27
X22.86Y-1.27
X23.368Y32.004
X23.368Y29.464
X25.908Y32.004
X25.908Y29.464
X28.448Y32.004
X28.448Y29.464
X28.448Y1.27
X28.448Y-1.27
X30.988Y32.004
X30.988Y29.464
X30.988Y1.27
X30.988Y-1.27
X33.528Y1.27
X33.528Y-1.27
X36.068Y10.414
X36.068Y1.27
X36.068Y-1.27
X38.1Y32.004
X38.1Y29.464
X38.608Y10.414
X38.608Y1.27
X38.608Y-1.27
X40.64Y32.004
X40.64Y29.464
X41.148Y1.27
X41.148Y-1.27
X42.164Y10.414
X43.688Y1.27
X43.688Y-1.27
X44.704Y10.414
T3
X0.0Y30.48
X0.0Y0.0
X50.8Y30.48
X50.8Y0.0
T0
M30
