%TF.GenerationSoftware,KiCad,Pcbnew,6.0.4-6f826c9f35~116~ubuntu20.04.1*%
%TF.CreationDate,2023-03-02T11:35:26+00:00*%
%TF.ProjectId,VCAI2C01,56434149-3243-4303-912e-6b696361645f,rev?*%
%TF.SameCoordinates,Original*%
%TF.FileFunction,Legend,Top*%
%TF.FilePolarity,Positive*%
%FSLAX46Y46*%
G04 Gerber Fmt 4.6, Leading zero omitted, Abs format (unit mm)*
G04 Created by KiCad (PCBNEW 6.0.4-6f826c9f35~116~ubuntu20.04.1) date 2023-03-02 11:35:26*
%MOMM*%
%LPD*%
G01*
G04 APERTURE LIST*
%ADD10C,0.300000*%
%ADD11C,0.150000*%
%ADD12R,1.524000X1.524000*%
G04 APERTURE END LIST*
D10*
X35786142Y25325143D02*
X35857571Y25539429D01*
X35857571Y25896572D01*
X35786142Y26039429D01*
X35714714Y26110858D01*
X35571857Y26182286D01*
X35429000Y26182286D01*
X35286142Y26110858D01*
X35214714Y26039429D01*
X35143285Y25896572D01*
X35071857Y25610858D01*
X35000428Y25468000D01*
X34929000Y25396572D01*
X34786142Y25325143D01*
X34643285Y25325143D01*
X34500428Y25396572D01*
X34429000Y25468000D01*
X34357571Y25610858D01*
X34357571Y25968000D01*
X34429000Y26182286D01*
X35071857Y26825143D02*
X35071857Y27325143D01*
X35857571Y27539429D02*
X35857571Y26825143D01*
X34357571Y26825143D01*
X34357571Y27539429D01*
X34357571Y27968000D02*
X34357571Y28825143D01*
X35857571Y28396572D02*
X34357571Y28396572D01*
X35429000Y30396572D02*
X35429000Y31110858D01*
X35857571Y30253715D02*
X34357571Y30753715D01*
X35857571Y31253715D01*
X35857571Y31753715D02*
X34357571Y31753715D01*
X34357571Y32110858D01*
X34429000Y32325143D01*
X34571857Y32468000D01*
X34714714Y32539429D01*
X35000428Y32610858D01*
X35214714Y32610858D01*
X35500428Y32539429D01*
X35643285Y32468000D01*
X35786142Y32325143D01*
X35857571Y32110858D01*
X35857571Y31753715D01*
X35857571Y34110858D02*
X35143285Y33610858D01*
X35857571Y33253715D02*
X34357571Y33253715D01*
X34357571Y33825143D01*
X34429000Y33968000D01*
X34500428Y34039429D01*
X34643285Y34110858D01*
X34857571Y34110858D01*
X35000428Y34039429D01*
X35071857Y33968000D01*
X35143285Y33825143D01*
X35143285Y33253715D01*
X37405571Y26317286D02*
X38905571Y27317286D01*
X37405571Y27317286D02*
X38905571Y26317286D01*
X6997000Y4131858D02*
X6925571Y3989000D01*
X6925571Y3774715D01*
X6997000Y3560429D01*
X7139857Y3417572D01*
X7282714Y3346143D01*
X7568428Y3274715D01*
X7782714Y3274715D01*
X8068428Y3346143D01*
X8211285Y3417572D01*
X8354142Y3560429D01*
X8425571Y3774715D01*
X8425571Y3917572D01*
X8354142Y4131858D01*
X8282714Y4203286D01*
X7782714Y4203286D01*
X7782714Y3917572D01*
X8425571Y4846143D02*
X6925571Y4846143D01*
X8425571Y5703286D01*
X6925571Y5703286D01*
X8425571Y6417572D02*
X6925571Y6417572D01*
X6925571Y6774715D01*
X6997000Y6989000D01*
X7139857Y7131858D01*
X7282714Y7203286D01*
X7568428Y7274715D01*
X7782714Y7274715D01*
X8068428Y7203286D01*
X8211285Y7131858D01*
X8354142Y6989000D01*
X8425571Y6774715D01*
X8425571Y6417572D01*
X13505571Y3346143D02*
X12005571Y3346143D01*
X13505571Y4060429D02*
X12005571Y4060429D01*
X13505571Y4917572D01*
X12005571Y4917572D01*
X13505571Y6417572D02*
X13505571Y5560429D01*
X13505571Y5989000D02*
X12005571Y5989000D01*
X12219857Y5846143D01*
X12362714Y5703286D01*
X12434142Y5560429D01*
X12934142Y7060429D02*
X12934142Y8203286D01*
X43065000Y4131858D02*
X42993571Y3989000D01*
X42993571Y3774715D01*
X43065000Y3560429D01*
X43207857Y3417572D01*
X43350714Y3346143D01*
X43636428Y3274715D01*
X43850714Y3274715D01*
X44136428Y3346143D01*
X44279285Y3417572D01*
X44422142Y3560429D01*
X44493571Y3774715D01*
X44493571Y3917572D01*
X44422142Y4131858D01*
X44350714Y4203286D01*
X43850714Y4203286D01*
X43850714Y3917572D01*
X44493571Y4846143D02*
X42993571Y4846143D01*
X44493571Y5703286D01*
X42993571Y5703286D01*
X44493571Y6417572D02*
X42993571Y6417572D01*
X42993571Y6774715D01*
X43065000Y6989000D01*
X43207857Y7131858D01*
X43350714Y7203286D01*
X43636428Y7274715D01*
X43850714Y7274715D01*
X44136428Y7203286D01*
X44279285Y7131858D01*
X44422142Y6989000D01*
X44493571Y6774715D01*
X44493571Y6417572D01*
X21125571Y3346143D02*
X19625571Y3346143D01*
X21125571Y4060429D02*
X19625571Y4060429D01*
X21125571Y4917572D01*
X19625571Y4917572D01*
X19768428Y5560429D02*
X19697000Y5631858D01*
X19625571Y5774715D01*
X19625571Y6131858D01*
X19697000Y6274715D01*
X19768428Y6346143D01*
X19911285Y6417572D01*
X20054142Y6417572D01*
X20268428Y6346143D01*
X21125571Y5489000D01*
X21125571Y6417572D01*
X20554142Y7060429D02*
X20554142Y8203286D01*
X21125571Y7631858D02*
X19982714Y7631858D01*
X31793571Y3346143D02*
X30293571Y3346143D01*
X31793571Y4060429D02*
X30293571Y4060429D01*
X31793571Y4917572D01*
X30293571Y4917572D01*
X30293571Y5489000D02*
X30293571Y6417572D01*
X30865000Y5917572D01*
X30865000Y6131858D01*
X30936428Y6274715D01*
X31007857Y6346143D01*
X31150714Y6417572D01*
X31507857Y6417572D01*
X31650714Y6346143D01*
X31722142Y6274715D01*
X31793571Y6131858D01*
X31793571Y5703286D01*
X31722142Y5560429D01*
X31650714Y5489000D01*
X31222142Y7060429D02*
X31222142Y8203286D01*
X31793571Y7631858D02*
X30650714Y7631858D01*
X30365000Y24316429D02*
X30293571Y24173572D01*
X30293571Y23959286D01*
X30365000Y23745000D01*
X30507857Y23602143D01*
X30650714Y23530715D01*
X30936428Y23459286D01*
X31150714Y23459286D01*
X31436428Y23530715D01*
X31579285Y23602143D01*
X31722142Y23745000D01*
X31793571Y23959286D01*
X31793571Y24102143D01*
X31722142Y24316429D01*
X31650714Y24387858D01*
X31150714Y24387858D01*
X31150714Y24102143D01*
X31793571Y25030715D02*
X30293571Y25030715D01*
X31793571Y25887858D01*
X30293571Y25887858D01*
X31793571Y26602143D02*
X30293571Y26602143D01*
X30293571Y26959286D01*
X30365000Y27173572D01*
X30507857Y27316429D01*
X30650714Y27387858D01*
X30936428Y27459286D01*
X31150714Y27459286D01*
X31436428Y27387858D01*
X31579285Y27316429D01*
X31722142Y27173572D01*
X31793571Y26959286D01*
X31793571Y26602143D01*
X42846714Y12021429D02*
X42846714Y13521429D01*
X44203857Y13021429D02*
X44203857Y12021429D01*
X43846714Y13592858D02*
X43489571Y12521429D01*
X44418142Y12521429D01*
X24102142Y23816429D02*
X24173571Y24030715D01*
X24173571Y24387858D01*
X24102142Y24530715D01*
X24030714Y24602143D01*
X23887857Y24673572D01*
X23745000Y24673572D01*
X23602142Y24602143D01*
X23530714Y24530715D01*
X23459285Y24387858D01*
X23387857Y24102143D01*
X23316428Y23959286D01*
X23245000Y23887858D01*
X23102142Y23816429D01*
X22959285Y23816429D01*
X22816428Y23887858D01*
X22745000Y23959286D01*
X22673571Y24102143D01*
X22673571Y24459286D01*
X22745000Y24673572D01*
X24173571Y25316429D02*
X22673571Y25316429D01*
X22673571Y25673572D01*
X22745000Y25887858D01*
X22887857Y26030715D01*
X23030714Y26102143D01*
X23316428Y26173572D01*
X23530714Y26173572D01*
X23816428Y26102143D01*
X23959285Y26030715D01*
X24102142Y25887858D01*
X24173571Y25673572D01*
X24173571Y25316429D01*
X23745000Y26745000D02*
X23745000Y27459286D01*
X24173571Y26602143D02*
X22673571Y27102143D01*
X24173571Y27602143D01*
X35445000Y4131858D02*
X35373571Y3989000D01*
X35373571Y3774715D01*
X35445000Y3560429D01*
X35587857Y3417572D01*
X35730714Y3346143D01*
X36016428Y3274715D01*
X36230714Y3274715D01*
X36516428Y3346143D01*
X36659285Y3417572D01*
X36802142Y3560429D01*
X36873571Y3774715D01*
X36873571Y3917572D01*
X36802142Y4131858D01*
X36730714Y4203286D01*
X36230714Y4203286D01*
X36230714Y3917572D01*
X36873571Y4846143D02*
X35373571Y4846143D01*
X36873571Y5703286D01*
X35373571Y5703286D01*
X36873571Y6417572D02*
X35373571Y6417572D01*
X35373571Y6774715D01*
X35445000Y6989000D01*
X35587857Y7131858D01*
X35730714Y7203286D01*
X36016428Y7274715D01*
X36230714Y7274715D01*
X36516428Y7203286D01*
X36659285Y7131858D01*
X36802142Y6989000D01*
X36873571Y6774715D01*
X36873571Y6417572D01*
X27825000Y4131858D02*
X27753571Y3989000D01*
X27753571Y3774715D01*
X27825000Y3560429D01*
X27967857Y3417572D01*
X28110714Y3346143D01*
X28396428Y3274715D01*
X28610714Y3274715D01*
X28896428Y3346143D01*
X29039285Y3417572D01*
X29182142Y3560429D01*
X29253571Y3774715D01*
X29253571Y3917572D01*
X29182142Y4131858D01*
X29110714Y4203286D01*
X28610714Y4203286D01*
X28610714Y3917572D01*
X29253571Y4846143D02*
X27753571Y4846143D01*
X29253571Y5703286D01*
X27753571Y5703286D01*
X29253571Y6417572D02*
X27753571Y6417572D01*
X27753571Y6774715D01*
X27825000Y6989000D01*
X27967857Y7131858D01*
X28110714Y7203286D01*
X28396428Y7274715D01*
X28610714Y7274715D01*
X28896428Y7203286D01*
X29039285Y7131858D01*
X29182142Y6989000D01*
X29253571Y6774715D01*
X29253571Y6417572D01*
X40731285Y26745858D02*
X41445571Y26745858D01*
X39945571Y26245858D02*
X40731285Y26745858D01*
X39945571Y27245858D01*
X29182142Y23887858D02*
X29253571Y24102143D01*
X29253571Y24459286D01*
X29182142Y24602143D01*
X29110714Y24673572D01*
X28967857Y24745000D01*
X28825000Y24745000D01*
X28682142Y24673572D01*
X28610714Y24602143D01*
X28539285Y24459286D01*
X28467857Y24173572D01*
X28396428Y24030715D01*
X28325000Y23959286D01*
X28182142Y23887858D01*
X28039285Y23887858D01*
X27896428Y23959286D01*
X27825000Y24030715D01*
X27753571Y24173572D01*
X27753571Y24530715D01*
X27825000Y24745000D01*
X29110714Y26245000D02*
X29182142Y26173572D01*
X29253571Y25959286D01*
X29253571Y25816429D01*
X29182142Y25602143D01*
X29039285Y25459286D01*
X28896428Y25387858D01*
X28610714Y25316429D01*
X28396428Y25316429D01*
X28110714Y25387858D01*
X27967857Y25459286D01*
X27825000Y25602143D01*
X27753571Y25816429D01*
X27753571Y25959286D01*
X27825000Y26173572D01*
X27896428Y26245000D01*
X29253571Y27602143D02*
X29253571Y26887858D01*
X27753571Y26887858D01*
X36750714Y12275429D02*
X36750714Y13775429D01*
X37322142Y13775429D02*
X38250714Y13775429D01*
X37750714Y13204000D01*
X37965000Y13204000D01*
X38107857Y13132572D01*
X38179285Y13061143D01*
X38250714Y12918286D01*
X38250714Y12561143D01*
X38179285Y12418286D01*
X38107857Y12346858D01*
X37965000Y12275429D01*
X37536428Y12275429D01*
X37393571Y12346858D01*
X37322142Y12418286D01*
X-1848715Y24189429D02*
X-1348715Y22689429D01*
X-848715Y24189429D01*
X508428Y22832286D02*
X437000Y22760858D01*
X222714Y22689429D01*
X79857Y22689429D01*
X-134429Y22760858D01*
X-277286Y22903715D01*
X-348715Y23046572D01*
X-420143Y23332286D01*
X-420143Y23546572D01*
X-348715Y23832286D01*
X-277286Y23975143D01*
X-134429Y24118000D01*
X79857Y24189429D01*
X222714Y24189429D01*
X437000Y24118000D01*
X508428Y24046572D01*
X1079857Y23118000D02*
X1794142Y23118000D01*
X937000Y22689429D02*
X1437000Y24189429D01*
X1937000Y22689429D01*
X2437000Y22689429D02*
X2437000Y24189429D01*
X3079857Y24046572D02*
X3151285Y24118000D01*
X3294142Y24189429D01*
X3651285Y24189429D01*
X3794142Y24118000D01*
X3865571Y24046572D01*
X3937000Y23903715D01*
X3937000Y23760858D01*
X3865571Y23546572D01*
X3008428Y22689429D01*
X3937000Y22689429D01*
X5437000Y22832286D02*
X5365571Y22760858D01*
X5151285Y22689429D01*
X5008428Y22689429D01*
X4794142Y22760858D01*
X4651285Y22903715D01*
X4579857Y23046572D01*
X4508428Y23332286D01*
X4508428Y23546572D01*
X4579857Y23832286D01*
X4651285Y23975143D01*
X4794142Y24118000D01*
X5008428Y24189429D01*
X5151285Y24189429D01*
X5365571Y24118000D01*
X5437000Y24046572D01*
X6365571Y24189429D02*
X6508428Y24189429D01*
X6651285Y24118000D01*
X6722714Y24046572D01*
X6794142Y23903715D01*
X6865571Y23618000D01*
X6865571Y23260858D01*
X6794142Y22975143D01*
X6722714Y22832286D01*
X6651285Y22760858D01*
X6508428Y22689429D01*
X6365571Y22689429D01*
X6222714Y22760858D01*
X6151285Y22832286D01*
X6079857Y22975143D01*
X6008428Y23260858D01*
X6008428Y23618000D01*
X6079857Y23903715D01*
X6151285Y24046572D01*
X6222714Y24118000D01*
X6365571Y24189429D01*
X8294142Y22689429D02*
X7437000Y22689429D01*
X7865571Y22689429D02*
X7865571Y24189429D01*
X7722714Y23975143D01*
X7579857Y23832286D01*
X7437000Y23760858D01*
X8865571Y23118000D02*
X9579857Y23118000D01*
X8722714Y22689429D02*
X9222714Y24189429D01*
X9722714Y22689429D01*
X22237000Y4131858D02*
X22165571Y3989000D01*
X22165571Y3774715D01*
X22237000Y3560429D01*
X22379857Y3417572D01*
X22522714Y3346143D01*
X22808428Y3274715D01*
X23022714Y3274715D01*
X23308428Y3346143D01*
X23451285Y3417572D01*
X23594142Y3560429D01*
X23665571Y3774715D01*
X23665571Y3917572D01*
X23594142Y4131858D01*
X23522714Y4203286D01*
X23022714Y4203286D01*
X23022714Y3917572D01*
X23665571Y4846143D02*
X22165571Y4846143D01*
X23665571Y5703286D01*
X22165571Y5703286D01*
X23665571Y6417572D02*
X22165571Y6417572D01*
X22165571Y6774715D01*
X22237000Y6989000D01*
X22379857Y7131858D01*
X22522714Y7203286D01*
X22808428Y7274715D01*
X23022714Y7274715D01*
X23308428Y7203286D01*
X23451285Y7131858D01*
X23594142Y6989000D01*
X23665571Y6774715D01*
X23665571Y6417572D01*
X10965571Y3346143D02*
X9465571Y3346143D01*
X10965571Y4060429D02*
X9465571Y4060429D01*
X10965571Y4917572D01*
X9465571Y4917572D01*
X10965571Y6417572D02*
X10965571Y5560429D01*
X10965571Y5989000D02*
X9465571Y5989000D01*
X9679857Y5846143D01*
X9822714Y5703286D01*
X9894142Y5560429D01*
X10394142Y7060429D02*
X10394142Y8203286D01*
X10965571Y7631858D02*
X9822714Y7631858D01*
X7794714Y12021429D02*
X7794714Y13521429D01*
X9294714Y12021429D02*
X8437571Y12021429D01*
X8866142Y12021429D02*
X8866142Y13521429D01*
X8723285Y13307143D01*
X8580428Y13164286D01*
X8437571Y13092858D01*
X21761142Y15720286D02*
X21832571Y15648858D01*
X21761142Y15577429D01*
X21689714Y15648858D01*
X21761142Y15720286D01*
X21761142Y15577429D01*
X21761142Y16506000D02*
X21832571Y16434572D01*
X21761142Y16363143D01*
X21689714Y16434572D01*
X21761142Y16506000D01*
X21761142Y16363143D01*
X22761142Y16291715D02*
X22761142Y15577429D01*
X22261142Y17077429D02*
X22761142Y16291715D01*
X23261142Y17077429D01*
X25189714Y17077429D02*
X25332571Y17077429D01*
X25475428Y17006000D01*
X25546857Y16934572D01*
X25618285Y16791715D01*
X25689714Y16506000D01*
X25689714Y16148858D01*
X25618285Y15863143D01*
X25546857Y15720286D01*
X25475428Y15648858D01*
X25332571Y15577429D01*
X25189714Y15577429D01*
X25046857Y15648858D01*
X24975428Y15720286D01*
X24904000Y15863143D01*
X24832571Y16148858D01*
X24832571Y16506000D01*
X24904000Y16791715D01*
X24975428Y16934572D01*
X25046857Y17006000D01*
X25189714Y17077429D01*
X26189714Y15577429D02*
X26975428Y16577429D01*
X26189714Y16577429D02*
X26975428Y15577429D01*
X28189714Y17077429D02*
X27904000Y17077429D01*
X27761142Y17006000D01*
X27689714Y16934572D01*
X27546857Y16720286D01*
X27475428Y16434572D01*
X27475428Y15863143D01*
X27546857Y15720286D01*
X27618285Y15648858D01*
X27761142Y15577429D01*
X28046857Y15577429D01*
X28189714Y15648858D01*
X28261142Y15720286D01*
X28332571Y15863143D01*
X28332571Y16220286D01*
X28261142Y16363143D01*
X28189714Y16434572D01*
X28046857Y16506000D01*
X27761142Y16506000D01*
X27618285Y16434572D01*
X27546857Y16363143D01*
X27475428Y16220286D01*
X28904000Y16006000D02*
X29618285Y16006000D01*
X28761142Y15577429D02*
X29261142Y17077429D01*
X29761142Y15577429D01*
X34333571Y3346143D02*
X32833571Y3346143D01*
X34333571Y4060429D02*
X32833571Y4060429D01*
X34333571Y4917572D01*
X32833571Y4917572D01*
X32833571Y5489000D02*
X32833571Y6417572D01*
X33405000Y5917572D01*
X33405000Y6131858D01*
X33476428Y6274715D01*
X33547857Y6346143D01*
X33690714Y6417572D01*
X34047857Y6417572D01*
X34190714Y6346143D01*
X34262142Y6274715D01*
X34333571Y6131858D01*
X34333571Y5703286D01*
X34262142Y5560429D01*
X34190714Y5489000D01*
X33762142Y7060429D02*
X33762142Y8203286D01*
X-384429Y24975429D02*
X-384429Y26475429D01*
X115571Y25404000D01*
X615571Y26475429D01*
X615571Y24975429D01*
X2044142Y24975429D02*
X1329857Y24975429D01*
X1329857Y26475429D01*
X2472714Y25404000D02*
X3187000Y25404000D01*
X2329857Y24975429D02*
X2829857Y26475429D01*
X3329857Y24975429D01*
X4329857Y25761143D02*
X4544142Y25689715D01*
X4615571Y25618286D01*
X4687000Y25475429D01*
X4687000Y25261143D01*
X4615571Y25118286D01*
X4544142Y25046858D01*
X4401285Y24975429D01*
X3829857Y24975429D01*
X3829857Y26475429D01*
X4329857Y26475429D01*
X4472714Y26404000D01*
X4544142Y26332572D01*
X4615571Y26189715D01*
X4615571Y26046858D01*
X4544142Y25904000D01*
X4472714Y25832572D01*
X4329857Y25761143D01*
X3829857Y25761143D01*
X5329857Y25118286D02*
X5401285Y25046858D01*
X5329857Y24975429D01*
X5258428Y25046858D01*
X5329857Y25118286D01*
X5329857Y24975429D01*
X6901285Y25118286D02*
X6829857Y25046858D01*
X6615571Y24975429D01*
X6472714Y24975429D01*
X6258428Y25046858D01*
X6115571Y25189715D01*
X6044142Y25332572D01*
X5972714Y25618286D01*
X5972714Y25832572D01*
X6044142Y26118286D01*
X6115571Y26261143D01*
X6258428Y26404000D01*
X6472714Y26475429D01*
X6615571Y26475429D01*
X6829857Y26404000D01*
X6901285Y26332572D01*
X7401285Y26475429D02*
X8401285Y26475429D01*
X7401285Y24975429D01*
X8401285Y24975429D01*
X49851571Y5759000D02*
X50923000Y5759000D01*
X51137285Y5687572D01*
X51280142Y5544715D01*
X51351571Y5330429D01*
X51351571Y5187572D01*
X50923000Y6401858D02*
X50923000Y7116143D01*
X51351571Y6259000D02*
X49851571Y6759000D01*
X51351571Y7259000D01*
X51208714Y8616143D02*
X51280142Y8544715D01*
X51351571Y8330429D01*
X51351571Y8187572D01*
X51280142Y7973286D01*
X51137285Y7830429D01*
X50994428Y7759000D01*
X50708714Y7687572D01*
X50494428Y7687572D01*
X50208714Y7759000D01*
X50065857Y7830429D01*
X49923000Y7973286D01*
X49851571Y8187572D01*
X49851571Y8330429D01*
X49923000Y8544715D01*
X49994428Y8616143D01*
X51351571Y9259000D02*
X49851571Y9259000D01*
X50565857Y9259000D02*
X50565857Y10116143D01*
X51351571Y10116143D02*
X49851571Y10116143D01*
X49851571Y11116143D02*
X49851571Y11401858D01*
X49923000Y11544715D01*
X50065857Y11687572D01*
X50351571Y11759000D01*
X50851571Y11759000D01*
X51137285Y11687572D01*
X51280142Y11544715D01*
X51351571Y11401858D01*
X51351571Y11116143D01*
X51280142Y10973286D01*
X51137285Y10830429D01*
X50851571Y10759000D01*
X50351571Y10759000D01*
X50065857Y10830429D01*
X49923000Y10973286D01*
X49851571Y11116143D01*
X14398714Y12021429D02*
X14398714Y13521429D01*
X15041571Y13378572D02*
X15113000Y13450000D01*
X15255857Y13521429D01*
X15613000Y13521429D01*
X15755857Y13450000D01*
X15827285Y13378572D01*
X15898714Y13235715D01*
X15898714Y13092858D01*
X15827285Y12878572D01*
X14970142Y12021429D01*
X15898714Y12021429D01*
X22189714Y18006286D02*
X22261142Y17934858D01*
X22189714Y17863429D01*
X22118285Y17934858D01*
X22189714Y18006286D01*
X22189714Y17863429D01*
X22189714Y18792000D02*
X22261142Y18720572D01*
X22189714Y18649143D01*
X22118285Y18720572D01*
X22189714Y18792000D01*
X22189714Y18649143D01*
X22904000Y18006286D02*
X22975428Y17934858D01*
X22904000Y17863429D01*
X22832571Y17934858D01*
X22904000Y18006286D01*
X22904000Y17863429D01*
X22904000Y18792000D02*
X22975428Y18720572D01*
X22904000Y18649143D01*
X22832571Y18720572D01*
X22904000Y18792000D01*
X22904000Y18649143D01*
X25046857Y19363429D02*
X25189714Y19363429D01*
X25332571Y19292000D01*
X25404000Y19220572D01*
X25475428Y19077715D01*
X25546857Y18792000D01*
X25546857Y18434858D01*
X25475428Y18149143D01*
X25404000Y18006286D01*
X25332571Y17934858D01*
X25189714Y17863429D01*
X25046857Y17863429D01*
X24904000Y17934858D01*
X24832571Y18006286D01*
X24761142Y18149143D01*
X24689714Y18434858D01*
X24689714Y18792000D01*
X24761142Y19077715D01*
X24832571Y19220572D01*
X24904000Y19292000D01*
X25046857Y19363429D01*
X26046857Y17863429D02*
X26832571Y18863429D01*
X26046857Y18863429D02*
X26832571Y17863429D01*
X28046857Y19363429D02*
X27761142Y19363429D01*
X27618285Y19292000D01*
X27546857Y19220572D01*
X27404000Y19006286D01*
X27332571Y18720572D01*
X27332571Y18149143D01*
X27404000Y18006286D01*
X27475428Y17934858D01*
X27618285Y17863429D01*
X27904000Y17863429D01*
X28046857Y17934858D01*
X28118285Y18006286D01*
X28189714Y18149143D01*
X28189714Y18506286D01*
X28118285Y18649143D01*
X28046857Y18720572D01*
X27904000Y18792000D01*
X27618285Y18792000D01*
X27475428Y18720572D01*
X27404000Y18649143D01*
X27332571Y18506286D01*
X29046857Y18720572D02*
X28904000Y18792000D01*
X28832571Y18863429D01*
X28761142Y19006286D01*
X28761142Y19077715D01*
X28832571Y19220572D01*
X28904000Y19292000D01*
X29046857Y19363429D01*
X29332571Y19363429D01*
X29475428Y19292000D01*
X29546857Y19220572D01*
X29618285Y19077715D01*
X29618285Y19006286D01*
X29546857Y18863429D01*
X29475428Y18792000D01*
X29332571Y18720572D01*
X29046857Y18720572D01*
X28904000Y18649143D01*
X28832571Y18577715D01*
X28761142Y18434858D01*
X28761142Y18149143D01*
X28832571Y18006286D01*
X28904000Y17934858D01*
X29046857Y17863429D01*
X29332571Y17863429D01*
X29475428Y17934858D01*
X29546857Y18006286D01*
X29618285Y18149143D01*
X29618285Y18434858D01*
X29546857Y18577715D01*
X29475428Y18649143D01*
X29332571Y18720572D01*
X41953571Y3346143D02*
X40453571Y3346143D01*
X41953571Y4060429D02*
X40453571Y4060429D01*
X41953571Y4917572D01*
X40453571Y4917572D01*
X40953571Y6274715D02*
X41953571Y6274715D01*
X40382142Y5917572D02*
X41453571Y5560429D01*
X41453571Y6489000D01*
X41382142Y7060429D02*
X41382142Y8203286D01*
X41953571Y7631858D02*
X40810714Y7631858D01*
X52534428Y5810572D02*
X52463000Y5882000D01*
X52391571Y6024858D01*
X52391571Y6382000D01*
X52463000Y6524858D01*
X52534428Y6596286D01*
X52677285Y6667715D01*
X52820142Y6667715D01*
X53034428Y6596286D01*
X53891571Y5739143D01*
X53891571Y6667715D01*
X52391571Y7596286D02*
X52391571Y7739143D01*
X52463000Y7882000D01*
X52534428Y7953429D01*
X52677285Y8024858D01*
X52963000Y8096286D01*
X53320142Y8096286D01*
X53605857Y8024858D01*
X53748714Y7953429D01*
X53820142Y7882000D01*
X53891571Y7739143D01*
X53891571Y7596286D01*
X53820142Y7453429D01*
X53748714Y7382000D01*
X53605857Y7310572D01*
X53320142Y7239143D01*
X52963000Y7239143D01*
X52677285Y7310572D01*
X52534428Y7382000D01*
X52463000Y7453429D01*
X52391571Y7596286D01*
X53891571Y9524858D02*
X53891571Y8667715D01*
X53891571Y9096286D02*
X52391571Y9096286D01*
X52605857Y8953429D01*
X52748714Y8810572D01*
X52820142Y8667715D01*
X52391571Y10810572D02*
X52391571Y10524858D01*
X52463000Y10382000D01*
X52534428Y10310572D01*
X52748714Y10167715D01*
X53034428Y10096286D01*
X53605857Y10096286D01*
X53748714Y10167715D01*
X53820142Y10239143D01*
X53891571Y10382000D01*
X53891571Y10667715D01*
X53820142Y10810572D01*
X53748714Y10882000D01*
X53605857Y10953429D01*
X53248714Y10953429D01*
X53105857Y10882000D01*
X53034428Y10810572D01*
X52963000Y10667715D01*
X52963000Y10382000D01*
X53034428Y10239143D01*
X53105857Y10167715D01*
X53248714Y10096286D01*
X20205000Y24316429D02*
X20133571Y24173572D01*
X20133571Y23959286D01*
X20205000Y23745000D01*
X20347857Y23602143D01*
X20490714Y23530715D01*
X20776428Y23459286D01*
X20990714Y23459286D01*
X21276428Y23530715D01*
X21419285Y23602143D01*
X21562142Y23745000D01*
X21633571Y23959286D01*
X21633571Y24102143D01*
X21562142Y24316429D01*
X21490714Y24387858D01*
X20990714Y24387858D01*
X20990714Y24102143D01*
X21633571Y25030715D02*
X20133571Y25030715D01*
X21633571Y25887858D01*
X20133571Y25887858D01*
X21633571Y26602143D02*
X20133571Y26602143D01*
X20133571Y26959286D01*
X20205000Y27173572D01*
X20347857Y27316429D01*
X20490714Y27387858D01*
X20776428Y27459286D01*
X20990714Y27459286D01*
X21276428Y27387858D01*
X21419285Y27316429D01*
X21562142Y27173572D01*
X21633571Y26959286D01*
X21633571Y26602143D01*
X20832571Y12505429D02*
X21832571Y11005429D01*
X21832571Y12505429D02*
X20832571Y11005429D01*
X22689714Y11719715D02*
X22689714Y11005429D01*
X22189714Y12505429D02*
X22689714Y11719715D01*
X23189714Y12505429D01*
X25118285Y12505429D02*
X25261142Y12505429D01*
X25404000Y12434000D01*
X25475428Y12362572D01*
X25546857Y12219715D01*
X25618285Y11934000D01*
X25618285Y11576858D01*
X25546857Y11291143D01*
X25475428Y11148286D01*
X25404000Y11076858D01*
X25261142Y11005429D01*
X25118285Y11005429D01*
X24975428Y11076858D01*
X24904000Y11148286D01*
X24832571Y11291143D01*
X24761142Y11576858D01*
X24761142Y11934000D01*
X24832571Y12219715D01*
X24904000Y12362572D01*
X24975428Y12434000D01*
X25118285Y12505429D01*
X26118285Y11005429D02*
X26904000Y12005429D01*
X26118285Y12005429D02*
X26904000Y11005429D01*
X28118285Y12505429D02*
X27832571Y12505429D01*
X27689714Y12434000D01*
X27618285Y12362572D01*
X27475428Y12148286D01*
X27404000Y11862572D01*
X27404000Y11291143D01*
X27475428Y11148286D01*
X27546857Y11076858D01*
X27689714Y11005429D01*
X27975428Y11005429D01*
X28118285Y11076858D01*
X28189714Y11148286D01*
X28261142Y11291143D01*
X28261142Y11648286D01*
X28189714Y11791143D01*
X28118285Y11862572D01*
X27975428Y11934000D01*
X27689714Y11934000D01*
X27546857Y11862572D01*
X27475428Y11791143D01*
X27404000Y11648286D01*
X28904000Y11791143D02*
X29404000Y11791143D01*
X29618285Y11005429D02*
X28904000Y11005429D01*
X28904000Y12505429D01*
X29618285Y12505429D01*
X21261142Y14791429D02*
X22261142Y13291429D01*
X22261142Y14791429D02*
X21261142Y13291429D01*
X22832571Y13434286D02*
X22904000Y13362858D01*
X22832571Y13291429D01*
X22761142Y13362858D01*
X22832571Y13434286D01*
X22832571Y13291429D01*
X22832571Y14220000D02*
X22904000Y14148572D01*
X22832571Y14077143D01*
X22761142Y14148572D01*
X22832571Y14220000D01*
X22832571Y14077143D01*
X24975428Y14791429D02*
X25118285Y14791429D01*
X25261142Y14720000D01*
X25332571Y14648572D01*
X25404000Y14505715D01*
X25475428Y14220000D01*
X25475428Y13862858D01*
X25404000Y13577143D01*
X25332571Y13434286D01*
X25261142Y13362858D01*
X25118285Y13291429D01*
X24975428Y13291429D01*
X24832571Y13362858D01*
X24761142Y13434286D01*
X24689714Y13577143D01*
X24618285Y13862858D01*
X24618285Y14220000D01*
X24689714Y14505715D01*
X24761142Y14648572D01*
X24832571Y14720000D01*
X24975428Y14791429D01*
X25975428Y13291429D02*
X26761142Y14291429D01*
X25975428Y14291429D02*
X26761142Y13291429D01*
X27546857Y14148572D02*
X27404000Y14220000D01*
X27332571Y14291429D01*
X27261142Y14434286D01*
X27261142Y14505715D01*
X27332571Y14648572D01*
X27404000Y14720000D01*
X27546857Y14791429D01*
X27832571Y14791429D01*
X27975428Y14720000D01*
X28046857Y14648572D01*
X28118285Y14505715D01*
X28118285Y14434286D01*
X28046857Y14291429D01*
X27975428Y14220000D01*
X27832571Y14148572D01*
X27546857Y14148572D01*
X27404000Y14077143D01*
X27332571Y14005715D01*
X27261142Y13862858D01*
X27261142Y13577143D01*
X27332571Y13434286D01*
X27404000Y13362858D01*
X27546857Y13291429D01*
X27832571Y13291429D01*
X27975428Y13362858D01*
X28046857Y13434286D01*
X28118285Y13577143D01*
X28118285Y13862858D01*
X28046857Y14005715D01*
X27975428Y14077143D01*
X27832571Y14148572D01*
X29618285Y13434286D02*
X29546857Y13362858D01*
X29332571Y13291429D01*
X29189714Y13291429D01*
X28975428Y13362858D01*
X28832571Y13505715D01*
X28761142Y13648572D01*
X28689714Y13934286D01*
X28689714Y14148572D01*
X28761142Y14434286D01*
X28832571Y14577143D01*
X28975428Y14720000D01*
X29189714Y14791429D01*
X29332571Y14791429D01*
X29546857Y14720000D01*
X29618285Y14648572D01*
X14617000Y4131858D02*
X14545571Y3989000D01*
X14545571Y3774715D01*
X14617000Y3560429D01*
X14759857Y3417572D01*
X14902714Y3346143D01*
X15188428Y3274715D01*
X15402714Y3274715D01*
X15688428Y3346143D01*
X15831285Y3417572D01*
X15974142Y3560429D01*
X16045571Y3774715D01*
X16045571Y3917572D01*
X15974142Y4131858D01*
X15902714Y4203286D01*
X15402714Y4203286D01*
X15402714Y3917572D01*
X16045571Y4846143D02*
X14545571Y4846143D01*
X16045571Y5703286D01*
X14545571Y5703286D01*
X16045571Y6417572D02*
X14545571Y6417572D01*
X14545571Y6774715D01*
X14617000Y6989000D01*
X14759857Y7131858D01*
X14902714Y7203286D01*
X15188428Y7274715D01*
X15402714Y7274715D01*
X15688428Y7203286D01*
X15831285Y7131858D01*
X15974142Y6989000D01*
X16045571Y6774715D01*
X16045571Y6417572D01*
X22451714Y20832000D02*
X23166000Y20832000D01*
X22308857Y20403429D02*
X22808857Y21903429D01*
X23308857Y20403429D01*
X23808857Y20403429D02*
X23808857Y21903429D01*
X24166000Y21903429D01*
X24380285Y21832000D01*
X24523142Y21689143D01*
X24594571Y21546286D01*
X24666000Y21260572D01*
X24666000Y21046286D01*
X24594571Y20760572D01*
X24523142Y20617715D01*
X24380285Y20474858D01*
X24166000Y20403429D01*
X23808857Y20403429D01*
X25308857Y20403429D02*
X25308857Y21903429D01*
X25666000Y21903429D01*
X25880285Y21832000D01*
X26023142Y21689143D01*
X26094571Y21546286D01*
X26166000Y21260572D01*
X26166000Y21046286D01*
X26094571Y20760572D01*
X26023142Y20617715D01*
X25880285Y20474858D01*
X25666000Y20403429D01*
X25308857Y20403429D01*
X27666000Y20403429D02*
X27166000Y21117715D01*
X26808857Y20403429D02*
X26808857Y21903429D01*
X27380285Y21903429D01*
X27523142Y21832000D01*
X27594571Y21760572D01*
X27666000Y21617715D01*
X27666000Y21403429D01*
X27594571Y21260572D01*
X27523142Y21189143D01*
X27380285Y21117715D01*
X26808857Y21117715D01*
X28308857Y21189143D02*
X28808857Y21189143D01*
X29023142Y20403429D02*
X28308857Y20403429D01*
X28308857Y21903429D01*
X29023142Y21903429D01*
X29594571Y20474858D02*
X29808857Y20403429D01*
X30166000Y20403429D01*
X30308857Y20474858D01*
X30380285Y20546286D01*
X30451714Y20689143D01*
X30451714Y20832000D01*
X30380285Y20974858D01*
X30308857Y21046286D01*
X30166000Y21117715D01*
X29880285Y21189143D01*
X29737428Y21260572D01*
X29666000Y21332000D01*
X29594571Y21474858D01*
X29594571Y21617715D01*
X29666000Y21760572D01*
X29737428Y21832000D01*
X29880285Y21903429D01*
X30237428Y21903429D01*
X30451714Y21832000D01*
X31023142Y20474858D02*
X31237428Y20403429D01*
X31594571Y20403429D01*
X31737428Y20474858D01*
X31808857Y20546286D01*
X31880285Y20689143D01*
X31880285Y20832000D01*
X31808857Y20974858D01*
X31737428Y21046286D01*
X31594571Y21117715D01*
X31308857Y21189143D01*
X31166000Y21260572D01*
X31094571Y21332000D01*
X31023142Y21474858D01*
X31023142Y21617715D01*
X31094571Y21760572D01*
X31166000Y21832000D01*
X31308857Y21903429D01*
X31666000Y21903429D01*
X31880285Y21832000D01*
X25213571Y23602143D02*
X26713571Y24102143D01*
X25213571Y24602143D01*
X26570714Y25959286D02*
X26642142Y25887858D01*
X26713571Y25673572D01*
X26713571Y25530715D01*
X26642142Y25316429D01*
X26499285Y25173572D01*
X26356428Y25102143D01*
X26070714Y25030715D01*
X25856428Y25030715D01*
X25570714Y25102143D01*
X25427857Y25173572D01*
X25285000Y25316429D01*
X25213571Y25530715D01*
X25213571Y25673572D01*
X25285000Y25887858D01*
X25356428Y25959286D01*
X26570714Y27459286D02*
X26642142Y27387858D01*
X26713571Y27173572D01*
X26713571Y27030715D01*
X26642142Y26816429D01*
X26499285Y26673572D01*
X26356428Y26602143D01*
X26070714Y26530715D01*
X25856428Y26530715D01*
X25570714Y26602143D01*
X25427857Y26673572D01*
X25285000Y26816429D01*
X25213571Y27030715D01*
X25213571Y27173572D01*
X25285000Y27387858D01*
X25356428Y27459286D01*
X18585571Y3346143D02*
X17085571Y3346143D01*
X18585571Y4060429D02*
X17085571Y4060429D01*
X18585571Y4917572D01*
X17085571Y4917572D01*
X17228428Y5560429D02*
X17157000Y5631858D01*
X17085571Y5774715D01*
X17085571Y6131858D01*
X17157000Y6274715D01*
X17228428Y6346143D01*
X17371285Y6417572D01*
X17514142Y6417572D01*
X17728428Y6346143D01*
X18585571Y5489000D01*
X18585571Y6417572D01*
X18014142Y7060429D02*
X18014142Y8203286D01*
X39413571Y3346143D02*
X37913571Y3346143D01*
X39413571Y4060429D02*
X37913571Y4060429D01*
X39413571Y4917572D01*
X37913571Y4917572D01*
X38413571Y6274715D02*
X39413571Y6274715D01*
X37842142Y5917572D02*
X38913571Y5560429D01*
X38913571Y6489000D01*
X38842142Y7060429D02*
X38842142Y8203286D01*
X-3900715Y10506358D02*
X-3686429Y10434929D01*
X-3329286Y10434929D01*
X-3186429Y10506358D01*
X-3115000Y10577786D01*
X-3043572Y10720643D01*
X-3043572Y10863500D01*
X-3115000Y11006358D01*
X-3186429Y11077786D01*
X-3329286Y11149215D01*
X-3615000Y11220643D01*
X-3757858Y11292072D01*
X-3829286Y11363500D01*
X-3900715Y11506358D01*
X-3900715Y11649215D01*
X-3829286Y11792072D01*
X-3757858Y11863500D01*
X-3615000Y11934929D01*
X-3257858Y11934929D01*
X-3043572Y11863500D01*
X-2400715Y11220643D02*
X-1900715Y11220643D01*
X-1686429Y10434929D02*
X-2400715Y10434929D01*
X-2400715Y11934929D01*
X-1686429Y11934929D01*
X-1257858Y11934929D02*
X-400715Y11934929D01*
X-829286Y10434929D02*
X-829286Y11934929D01*
X2099285Y10577786D02*
X2027857Y10506358D01*
X1813571Y10434929D01*
X1670714Y10434929D01*
X1456428Y10506358D01*
X1313571Y10649215D01*
X1242142Y10792072D01*
X1170714Y11077786D01*
X1170714Y11292072D01*
X1242142Y11577786D01*
X1313571Y11720643D01*
X1456428Y11863500D01*
X1670714Y11934929D01*
X1813571Y11934929D01*
X2027857Y11863500D01*
X2099285Y11792072D01*
X2742142Y11934929D02*
X2742142Y10720643D01*
X2813571Y10577786D01*
X2885000Y10506358D01*
X3027857Y10434929D01*
X3313571Y10434929D01*
X3456428Y10506358D01*
X3527857Y10577786D01*
X3599285Y10720643D01*
X3599285Y11934929D01*
X5170714Y10434929D02*
X4670714Y11149215D01*
X4313571Y10434929D02*
X4313571Y11934929D01*
X4885000Y11934929D01*
X5027857Y11863500D01*
X5099285Y11792072D01*
X5170714Y11649215D01*
X5170714Y11434929D01*
X5099285Y11292072D01*
X5027857Y11220643D01*
X4885000Y11149215D01*
X4313571Y11149215D01*
X-3436429Y8019929D02*
X-3436429Y9519929D01*
X-2936429Y8448500D01*
X-2436429Y9519929D01*
X-2436429Y8019929D01*
X-1722143Y8805643D02*
X-1222143Y8805643D01*
X-1007858Y8019929D02*
X-1722143Y8019929D01*
X-1722143Y9519929D01*
X-1007858Y9519929D01*
X-436429Y8448500D02*
X277857Y8448500D01*
X-579286Y8019929D02*
X-79286Y9519929D01*
X420714Y8019929D01*
X849285Y8091358D02*
X1063571Y8019929D01*
X1420714Y8019929D01*
X1563571Y8091358D01*
X1635000Y8162786D01*
X1706428Y8305643D01*
X1706428Y8448500D01*
X1635000Y8591358D01*
X1563571Y8662786D01*
X1420714Y8734215D01*
X1135000Y8805643D01*
X992142Y8877072D01*
X920714Y8948500D01*
X849285Y9091358D01*
X849285Y9234215D01*
X920714Y9377072D01*
X992142Y9448500D01*
X1135000Y9519929D01*
X1492142Y9519929D01*
X1706428Y9448500D01*
X2349285Y9519929D02*
X2349285Y8305643D01*
X2420714Y8162786D01*
X2492142Y8091358D01*
X2635000Y8019929D01*
X2920714Y8019929D01*
X3063571Y8091358D01*
X3135000Y8162786D01*
X3206428Y8305643D01*
X3206428Y9519929D01*
X4777857Y8019929D02*
X4277857Y8734215D01*
X3920714Y8019929D02*
X3920714Y9519929D01*
X4492142Y9519929D01*
X4635000Y9448500D01*
X4706428Y9377072D01*
X4777857Y9234215D01*
X4777857Y9019929D01*
X4706428Y8877072D01*
X4635000Y8805643D01*
X4492142Y8734215D01*
X3920714Y8734215D01*
D11*
%TO.C,J2*%
X10922000Y11430000D02*
X10922000Y8890000D01*
X5842000Y11430000D02*
X10922000Y11430000D01*
X5842000Y8890000D02*
X5842000Y11430000D01*
X10922000Y8890000D02*
X5842000Y8890000D01*
%TO.C,J4*%
X12446000Y11430000D02*
X17526000Y11430000D01*
X12446000Y8890000D02*
X12446000Y11430000D01*
X17526000Y8890000D02*
X12446000Y8890000D01*
X17526000Y11430000D02*
X17526000Y8890000D01*
%TO.C,J6*%
X34798000Y9144000D02*
X34798000Y11684000D01*
X39878000Y9144000D02*
X34798000Y9144000D01*
X34798000Y11684000D02*
X39878000Y11684000D01*
X39878000Y11684000D02*
X39878000Y9144000D01*
%TO.C,J8*%
X40894000Y9144000D02*
X40894000Y11684000D01*
X45974000Y9144000D02*
X40894000Y9144000D01*
X40894000Y11684000D02*
X45974000Y11684000D01*
X45974000Y11684000D02*
X45974000Y9144000D01*
%TO.C,J10*%
X36830000Y33274000D02*
X39370000Y33274000D01*
X39370000Y28194000D02*
X36830000Y28194000D01*
X39370000Y33274000D02*
X39370000Y28194000D01*
X36830000Y28194000D02*
X36830000Y33274000D01*
%TO.C,J11*%
X39370000Y28194000D02*
X39370000Y33274000D01*
X39370000Y33274000D02*
X41910000Y33274000D01*
X41910000Y33274000D02*
X41910000Y28194000D01*
X41910000Y28194000D02*
X39370000Y28194000D01*
%TO.C,J13*%
X19558000Y28194000D02*
X19558000Y33274000D01*
X32258000Y28194000D02*
X19558000Y28194000D01*
X19558000Y33274000D02*
X32258000Y33274000D01*
X32258000Y33274000D02*
X32258000Y28194000D01*
%TO.C,J14*%
X24130000Y2540000D02*
X24130000Y-2540000D01*
X21590000Y-2540000D02*
X21590000Y2540000D01*
X21590000Y2540000D02*
X24130000Y2540000D01*
X24130000Y-2540000D02*
X21590000Y-2540000D01*
%TO.C,J15*%
X16510000Y2540000D02*
X19050000Y2540000D01*
X19050000Y-2540000D02*
X16510000Y-2540000D01*
X19050000Y2540000D02*
X19050000Y-2540000D01*
X16510000Y-2540000D02*
X16510000Y2540000D01*
%TO.C,J16*%
X19050000Y2540000D02*
X21590000Y2540000D01*
X19050000Y-2540000D02*
X19050000Y2540000D01*
X21590000Y2540000D02*
X21590000Y-2540000D01*
X21590000Y-2540000D02*
X19050000Y-2540000D01*
%TO.C,J17*%
X13970000Y2540000D02*
X16510000Y2540000D01*
X16510000Y2540000D02*
X16510000Y-2540000D01*
X16510000Y-2540000D02*
X13970000Y-2540000D01*
X13970000Y-2540000D02*
X13970000Y2540000D01*
%TO.C,J18*%
X34798000Y2540000D02*
X34798000Y-2540000D01*
X32258000Y2540000D02*
X34798000Y2540000D01*
X34798000Y-2540000D02*
X32258000Y-2540000D01*
X32258000Y-2540000D02*
X32258000Y2540000D01*
%TO.C,J19*%
X29718000Y2540000D02*
X32258000Y2540000D01*
X32258000Y2540000D02*
X32258000Y-2540000D01*
X29718000Y-2540000D02*
X29718000Y2540000D01*
X32258000Y-2540000D02*
X29718000Y-2540000D01*
%TO.C,J20*%
X44958000Y-2540000D02*
X42418000Y-2540000D01*
X42418000Y-2540000D02*
X42418000Y2540000D01*
X44958000Y2540000D02*
X44958000Y-2540000D01*
X42418000Y2540000D02*
X44958000Y2540000D01*
%TO.C,J21*%
X37338000Y-2540000D02*
X37338000Y2540000D01*
X39878000Y2540000D02*
X39878000Y-2540000D01*
X37338000Y2540000D02*
X39878000Y2540000D01*
X39878000Y-2540000D02*
X37338000Y-2540000D01*
%TO.C,J22*%
X39878000Y2540000D02*
X42418000Y2540000D01*
X42418000Y-2540000D02*
X39878000Y-2540000D01*
X39878000Y-2540000D02*
X39878000Y2540000D01*
X42418000Y2540000D02*
X42418000Y-2540000D01*
%TO.C,J23*%
X29718000Y2540000D02*
X29718000Y-2540000D01*
X27178000Y2540000D02*
X29718000Y2540000D01*
X27178000Y-2540000D02*
X27178000Y2540000D01*
X29718000Y-2540000D02*
X27178000Y-2540000D01*
%TO.C,J3*%
X34798000Y-2540000D02*
X34798000Y2540000D01*
X37338000Y-2540000D02*
X34798000Y-2540000D01*
X37338000Y2540000D02*
X37338000Y-2540000D01*
X34798000Y2540000D02*
X37338000Y2540000D01*
%TO.C,J5*%
X8890000Y-2540000D02*
X6350000Y-2540000D01*
X6350000Y-2540000D02*
X6350000Y2540000D01*
X8890000Y2540000D02*
X8890000Y-2540000D01*
X6350000Y2540000D02*
X8890000Y2540000D01*
%TO.C,J7*%
X11430000Y-2540000D02*
X11430000Y2540000D01*
X11430000Y2540000D02*
X13970000Y2540000D01*
X13970000Y2540000D02*
X13970000Y-2540000D01*
X13970000Y-2540000D02*
X11430000Y-2540000D01*
%TO.C,J9*%
X8890000Y2540000D02*
X11430000Y2540000D01*
X11430000Y-2540000D02*
X8890000Y-2540000D01*
X8890000Y-2540000D02*
X8890000Y2540000D01*
X11430000Y2540000D02*
X11430000Y-2540000D01*
%TD*%
D12*
%TO.C,J2*%
X7112000Y10160000D03*
X9652000Y10160000D03*
%TD*%
%TO.C,J4*%
X16256000Y10160000D03*
X13716000Y10160000D03*
%TD*%
%TO.C,J6*%
X36068000Y10414000D03*
X38608000Y10414000D03*
%TD*%
%TO.C,J8*%
X44704000Y10414000D03*
X42164000Y10414000D03*
%TD*%
%TO.C,J10*%
X38100000Y29464000D03*
X38100000Y32004000D03*
%TD*%
%TO.C,J11*%
X40640000Y29464000D03*
X40640000Y32004000D03*
%TD*%
%TO.C,J13*%
X20828000Y29464000D03*
X20828000Y32004000D03*
X23368000Y29464000D03*
X23368000Y32004000D03*
X25908000Y29464000D03*
X25908000Y32004000D03*
X28448000Y29464000D03*
X28448000Y32004000D03*
X30988000Y29464000D03*
X30988000Y32004000D03*
%TD*%
%TO.C,J14*%
X22860000Y1270000D03*
X22860000Y-1270000D03*
%TD*%
%TO.C,J15*%
X17780000Y1270000D03*
X17780000Y-1270000D03*
%TD*%
%TO.C,J16*%
X20320000Y1270000D03*
X20320000Y-1270000D03*
%TD*%
%TO.C,J17*%
X15240000Y1270000D03*
X15240000Y-1270000D03*
%TD*%
%TO.C,J18*%
X33528000Y1270000D03*
X33528000Y-1270000D03*
%TD*%
%TO.C,J19*%
X30988000Y1270000D03*
X30988000Y-1270000D03*
%TD*%
%TO.C,J20*%
X43688000Y1270000D03*
X43688000Y-1270000D03*
%TD*%
%TO.C,J21*%
X38608000Y1270000D03*
X38608000Y-1270000D03*
%TD*%
%TO.C,J22*%
X41148000Y1270000D03*
X41148000Y-1270000D03*
%TD*%
%TO.C,J23*%
X28448000Y1270000D03*
X28448000Y-1270000D03*
%TD*%
%TO.C,J3*%
X36068000Y-1270000D03*
X36068000Y1270000D03*
%TD*%
%TO.C,J5*%
X7620000Y1270000D03*
X7620000Y-1270000D03*
%TD*%
%TO.C,J7*%
X12700000Y1270000D03*
X12700000Y-1270000D03*
%TD*%
%TO.C,J9*%
X10160000Y1270000D03*
X10160000Y-1270000D03*
%TD*%
M02*
