%TF.GenerationSoftware,KiCad,Pcbnew,6.0.11+dfsg-1~bpo11+1*%
%TF.CreationDate,2023-04-13T01:06:47+00:00*%
%TF.ProjectId,VCAI2C01,56434149-3243-4303-912e-6b696361645f,rev?*%
%TF.SameCoordinates,Original*%
%TF.FileFunction,Soldermask,Top*%
%TF.FilePolarity,Negative*%
%FSLAX46Y46*%
G04 Gerber Fmt 4.6, Leading zero omitted, Abs format (unit mm)*
G04 Created by KiCad (PCBNEW 6.0.11+dfsg-1~bpo11+1) date 2023-04-13 01:06:47*
%MOMM*%
%LPD*%
G01*
G04 APERTURE LIST*
G04 Aperture macros list*
%AMRoundRect*
0 Rectangle with rounded corners*
0 $1 Rounding radius*
0 $2 $3 $4 $5 $6 $7 $8 $9 X,Y pos of 4 corners*
0 Add a 4 corners polygon primitive as box body*
4,1,4,$2,$3,$4,$5,$6,$7,$8,$9,$2,$3,0*
0 Add four circle primitives for the rounded corners*
1,1,$1+$1,$2,$3*
1,1,$1+$1,$4,$5*
1,1,$1+$1,$6,$7*
1,1,$1+$1,$8,$9*
0 Add four rect primitives between the rounded corners*
20,1,$1+$1,$2,$3,$4,$5,0*
20,1,$1+$1,$4,$5,$6,$7,0*
20,1,$1+$1,$6,$7,$8,$9,0*
20,1,$1+$1,$8,$9,$2,$3,0*%
G04 Aperture macros list end*
%ADD10RoundRect,0.200000X0.762000X-0.762000X0.762000X0.762000X-0.762000X0.762000X-0.762000X-0.762000X0*%
%ADD11RoundRect,0.200000X-0.762000X0.762000X-0.762000X-0.762000X0.762000X-0.762000X0.762000X0.762000X0*%
%ADD12C,6.400000*%
%ADD13RoundRect,0.200000X-0.762000X-0.762000X0.762000X-0.762000X0.762000X0.762000X-0.762000X0.762000X0*%
G04 APERTURE END LIST*
D10*
%TO.C,J2*%
X7112000Y10160000D03*
X9652000Y10160000D03*
%TD*%
D11*
%TO.C,J4*%
X16256000Y10160000D03*
X13716000Y10160000D03*
%TD*%
D10*
%TO.C,J6*%
X36068000Y10414000D03*
X38608000Y10414000D03*
%TD*%
D11*
%TO.C,J8*%
X44704000Y10414000D03*
X42164000Y10414000D03*
%TD*%
D10*
%TO.C,J10*%
X38100000Y29464000D03*
X38100000Y32004000D03*
%TD*%
%TO.C,J11*%
X40640000Y29464000D03*
X40640000Y32004000D03*
%TD*%
%TO.C,J13*%
X20828000Y29464000D03*
X20828000Y32004000D03*
X23368000Y29464000D03*
X23368000Y32004000D03*
X25908000Y29464000D03*
X25908000Y32004000D03*
X28448000Y29464000D03*
X28448000Y32004000D03*
X30988000Y29464000D03*
X30988000Y32004000D03*
%TD*%
D12*
%TO.C,M1*%
X50800000Y30480000D03*
%TD*%
%TO.C,M2*%
X0Y0D03*
%TD*%
%TO.C,M3*%
X50800000Y0D03*
%TD*%
%TO.C,M4*%
X0Y30480000D03*
%TD*%
D13*
%TO.C,J14*%
X22860000Y1270000D03*
X22860000Y-1270000D03*
%TD*%
%TO.C,J15*%
X17780000Y1270000D03*
X17780000Y-1270000D03*
%TD*%
%TO.C,J16*%
X20320000Y1270000D03*
X20320000Y-1270000D03*
%TD*%
%TO.C,J17*%
X15240000Y1270000D03*
X15240000Y-1270000D03*
%TD*%
%TO.C,J18*%
X33528000Y1270000D03*
X33528000Y-1270000D03*
%TD*%
%TO.C,J19*%
X30988000Y1270000D03*
X30988000Y-1270000D03*
%TD*%
%TO.C,J20*%
X43688000Y1270000D03*
X43688000Y-1270000D03*
%TD*%
%TO.C,J21*%
X38608000Y1270000D03*
X38608000Y-1270000D03*
%TD*%
%TO.C,J22*%
X41148000Y1270000D03*
X41148000Y-1270000D03*
%TD*%
%TO.C,J23*%
X28448000Y1270000D03*
X28448000Y-1270000D03*
%TD*%
D10*
%TO.C,J3*%
X36068000Y-1270000D03*
X36068000Y1270000D03*
%TD*%
D13*
%TO.C,J5*%
X7620000Y1270000D03*
X7620000Y-1270000D03*
%TD*%
%TO.C,J7*%
X12700000Y1270000D03*
X12700000Y-1270000D03*
%TD*%
%TO.C,J9*%
X10160000Y1270000D03*
X10160000Y-1270000D03*
%TD*%
M02*
