  0
SECTION
  2
HEADER
  9
$ANGBASE
  50
0.0
  9
$ANGDIR
  70
1
  9
$MEASUREMENT
  70
0
  0
ENDSEC
  0
SECTION
  2
TABLES
  0
TABLE
  2
LTYPE
  70
4
  0
LTYPE
  5
40F
  2
CONTINUOUS
  70
0
  3
Solid line
  72
65
  73
0
  40
0.0
  0
LTYPE
  5
410
  2
DASHDOT
 70
0
  3
Dash Dot ____ _ ____ _
 72
65
 73
4
 40
2.0
 49
1.25
 49
-0.25
 49
0.25
 49
-0.25
  0
LTYPE
  5
411
  2
DASHED
 70
0
  3
Dashed __ __ __ __ __
 72
65
 73
2
 40
0.75
 49
0.5
 49
-0.25
  0
LTYPE
  5
43B
  2
DOTTED
 70
0
  3
Dotted .  .  .  .
 72
65
 73
2
 40
0.2
 49
0.0
 49
-0.2
  0
ENDTAB
  0
TABLE
  2
STYLE
  70
4
  0
STYLE
  2
KICAD
  70
0
  40
0
  41
1
  42
1
  50
0
  71
0
  3
isocp.shx
  0
STYLE
  2
KICADB
  70
0
  40
0
  41
1
  42
1
  50
0
  71
0
  3
isocp.shx
  0
STYLE
  2
KICADI
  70
0
  40
0
  41
1
  42
1
  50
15
  71
0
  3
isocp.shx
  0
STYLE
  2
KICADBI
  70
0
  40
0
  41
1
  42
1
  50
15
  71
0
  3
isocp.shx
  0
ENDTAB
  0
TABLE
  2
LAYER
  70
1
  0
LAYER
  2
BLACK
  70
0
  62
7
  6
CONTINUOUS
  0
ENDTAB
  0
ENDSEC
  0
SECTION
  2
ENTITIES
0
LINE
8
BLACK
6
CONTINUOUS
10
2.135
20
0.67
11
2.075
21
0.67
0
LINE
8
BLACK
6
CONTINUOUS
10
2.075
20
0.67
11
2.075
21
0.75
0
LINE
8
BLACK
6
CONTINUOUS
10
2.075
20
0.75
11
2.135
21
0.75
0
LINE
8
BLACK
6
CONTINUOUS
10
2.135
20
0.75
11
2.135
21
0.67
0
LINE
8
BLACK
6
CONTINUOUS
10
2.265
20
0.67
11
2.205
21
0.67
0
LINE
8
BLACK
6
CONTINUOUS
10
2.205
20
0.67
11
2.205
21
0.75
0
LINE
8
BLACK
6
CONTINUOUS
10
2.205
20
0.75
11
2.265
21
0.75
0
LINE
8
BLACK
6
CONTINUOUS
10
2.265
20
0.75
11
2.265
21
0.67
0
LINE
8
BLACK
6
CONTINUOUS
10
1.095
20
0.67
11
1.035
21
0.67
0
LINE
8
BLACK
6
CONTINUOUS
10
1.035
20
0.67
11
1.035
21
0.75
0
LINE
8
BLACK
6
CONTINUOUS
10
1.035
20
0.75
11
1.095
21
0.75
0
LINE
8
BLACK
6
CONTINUOUS
10
1.095
20
0.75
11
1.095
21
0.67
0
LINE
8
BLACK
6
CONTINUOUS
10
1.225
20
0.67
11
1.165
21
0.67
0
LINE
8
BLACK
6
CONTINUOUS
10
1.165
20
0.67
11
1.165
21
0.75
0
LINE
8
BLACK
6
CONTINUOUS
10
1.165
20
0.75
11
1.225
21
0.75
0
LINE
8
BLACK
6
CONTINUOUS
10
1.225
20
0.75
11
1.225
21
0.67
0
LINE
8
BLACK
6
CONTINUOUS
10
0.775
20
0.67
11
0.715
21
0.67
0
LINE
8
BLACK
6
CONTINUOUS
10
0.715
20
0.67
11
0.715
21
0.75
0
LINE
8
BLACK
6
CONTINUOUS
10
0.715
20
0.75
11
0.775
21
0.75
0
LINE
8
BLACK
6
CONTINUOUS
10
0.775
20
0.75
11
0.775
21
0.67
0
LINE
8
BLACK
6
CONTINUOUS
10
0.645
20
0.67
11
0.585
21
0.67
0
LINE
8
BLACK
6
CONTINUOUS
10
0.585
20
0.67
11
0.585
21
0.75
0
LINE
8
BLACK
6
CONTINUOUS
10
0.585
20
0.75
11
0.645
21
0.75
0
LINE
8
BLACK
6
CONTINUOUS
10
0.645
20
0.75
11
0.645
21
0.67
0
LINE
8
BLACK
6
CONTINUOUS
10
1.795
20
0.68
11
1.735
21
0.68
0
LINE
8
BLACK
6
CONTINUOUS
10
1.735
20
0.68
11
1.735
21
0.76
0
LINE
8
BLACK
6
CONTINUOUS
10
1.735
20
0.76
11
1.795
21
0.76
0
LINE
8
BLACK
6
CONTINUOUS
10
1.795
20
0.76
11
1.795
21
0.68
0
LINE
8
BLACK
6
CONTINUOUS
10
1.665
20
0.68
11
1.605
21
0.68
0
LINE
8
BLACK
6
CONTINUOUS
10
1.605
20
0.68
11
1.605
21
0.76
0
LINE
8
BLACK
6
CONTINUOUS
10
1.605
20
0.76
11
1.665
21
0.76
0
LINE
8
BLACK
6
CONTINUOUS
10
1.665
20
0.76
11
1.665
21
0.68
0
LINE
8
BLACK
6
CONTINUOUS
10
1.65345
20
0.8755
11
1.58655
21
0.8755
0
LINE
8
BLACK
6
CONTINUOUS
10
1.58655
20
0.8755
11
1.58655
21
0.9267
0
LINE
8
BLACK
6
CONTINUOUS
10
1.58655
20
0.9267
11
1.65345
21
0.9267
0
LINE
8
BLACK
6
CONTINUOUS
10
1.65345
20
0.9267
11
1.65345
21
0.8755
0
LINE
8
BLACK
6
CONTINUOUS
10
0.43545
20
0.9095
11
0.36855
21
0.9095
0
LINE
8
BLACK
6
CONTINUOUS
10
0.36855
20
0.9095
11
0.36855
21
0.9607
0
LINE
8
BLACK
6
CONTINUOUS
10
0.36855
20
0.9607
11
0.43545
21
0.9607
0
LINE
8
BLACK
6
CONTINUOUS
10
0.43545
20
0.9607
11
0.43545
21
0.9095
0
LINE
8
BLACK
6
CONTINUOUS
10
2.01745
20
0.9106
11
1.95055
21
0.9106
0
LINE
8
BLACK
6
CONTINUOUS
10
1.95055
20
0.9106
11
1.95055
21
0.9618
0
LINE
8
BLACK
6
CONTINUOUS
10
1.95055
20
0.9618
11
2.01745
21
0.9618
0
LINE
8
BLACK
6
CONTINUOUS
10
2.01745
20
0.9618
11
2.01745
21
0.9106
0
LINE
8
BLACK
6
CONTINUOUS
10
0.72945
20
0.9126
11
0.66255
21
0.9126
0
LINE
8
BLACK
6
CONTINUOUS
10
0.66255
20
0.9126
11
0.66255
21
0.9638
0
LINE
8
BLACK
6
CONTINUOUS
10
0.66255
20
0.9638
11
0.72945
21
0.9638
0
LINE
8
BLACK
6
CONTINUOUS
10
0.72945
20
0.9638
11
0.72945
21
0.9126
0
LINE
8
BLACK
6
CONTINUOUS
10
2.11345
20
0.9135
11
2.04655
21
0.9135
0
LINE
8
BLACK
6
CONTINUOUS
10
2.04655
20
0.9135
11
2.04655
21
0.9647
0
LINE
8
BLACK
6
CONTINUOUS
10
2.04655
20
0.9647
11
2.11345
21
0.9647
0
LINE
8
BLACK
6
CONTINUOUS
10
2.11345
20
0.9647
11
2.11345
21
0.9135
0
LINE
8
BLACK
6
CONTINUOUS
10
1.19745
20
0.9146
11
1.13055
21
0.9146
0
LINE
8
BLACK
6
CONTINUOUS
10
1.13055
20
0.9146
11
1.13055
21
0.9658
0
LINE
8
BLACK
6
CONTINUOUS
10
1.13055
20
0.9658
11
1.19745
21
0.9658
0
LINE
8
BLACK
6
CONTINUOUS
10
1.19745
20
0.9658
11
1.19745
21
0.9146
0
LINE
8
BLACK
6
CONTINUOUS
10
2.40345
20
0.9155
11
2.33655
21
0.9155
0
LINE
8
BLACK
6
CONTINUOUS
10
2.33655
20
0.9155
11
2.33655
21
0.9667
0
LINE
8
BLACK
6
CONTINUOUS
10
2.33655
20
0.9667
11
2.40345
21
0.9667
0
LINE
8
BLACK
6
CONTINUOUS
10
2.40345
20
0.9667
11
2.40345
21
0.9155
0
LINE
8
BLACK
6
CONTINUOUS
10
0.83345
20
0.9155
11
0.76655
21
0.9155
0
LINE
8
BLACK
6
CONTINUOUS
10
0.76655
20
0.9155
11
0.76655
21
0.9667
0
LINE
8
BLACK
6
CONTINUOUS
10
0.76655
20
0.9667
11
0.83345
21
0.9667
0
LINE
8
BLACK
6
CONTINUOUS
10
0.83345
20
0.9667
11
0.83345
21
0.9155
0
LINE
8
BLACK
6
CONTINUOUS
10
2.2875
20
0.955
11
2.2325
21
0.955
0
LINE
8
BLACK
6
CONTINUOUS
10
2.2325
20
0.955
11
2.2325
21
0.99
0
LINE
8
BLACK
6
CONTINUOUS
10
2.2325
20
0.99
11
2.2875
21
0.99
0
LINE
8
BLACK
6
CONTINUOUS
10
2.2875
20
0.99
11
2.2875
21
0.955
0
LINE
8
BLACK
6
CONTINUOUS
10
2.1975
20
0.955
11
2.1425
21
0.955
0
LINE
8
BLACK
6
CONTINUOUS
10
2.1425
20
0.955
11
2.1425
21
0.99
0
LINE
8
BLACK
6
CONTINUOUS
10
2.1425
20
0.99
11
2.1975
21
0.99
0
LINE
8
BLACK
6
CONTINUOUS
10
2.1975
20
0.99
11
2.1975
21
0.955
0
LINE
8
BLACK
6
CONTINUOUS
10
1.9275
20
0.965
11
1.8725
21
0.965
0
LINE
8
BLACK
6
CONTINUOUS
10
1.8725
20
0.965
11
1.8725
21
1
0
LINE
8
BLACK
6
CONTINUOUS
10
1.8725
20
1
11
1.9275
21
1
0
LINE
8
BLACK
6
CONTINUOUS
10
1.9275
20
1
11
1.9275
21
0.965
0
LINE
8
BLACK
6
CONTINUOUS
10
1.8275
20
0.965
11
1.7725
21
0.965
0
LINE
8
BLACK
6
CONTINUOUS
10
1.7725
20
0.965
11
1.7725
21
1
0
LINE
8
BLACK
6
CONTINUOUS
10
1.7725
20
1
11
1.8275
21
1
0
LINE
8
BLACK
6
CONTINUOUS
10
1.8275
20
1
11
1.8275
21
0.965
0
LINE
8
BLACK
6
CONTINUOUS
10
0.9275
20
0.985
11
0.8725
21
0.985
0
LINE
8
BLACK
6
CONTINUOUS
10
0.8725
20
0.985
11
0.8725
21
1.02
0
LINE
8
BLACK
6
CONTINUOUS
10
0.8725
20
1.02
11
0.9275
21
1.02
0
LINE
8
BLACK
6
CONTINUOUS
10
0.9275
20
1.02
11
0.9275
21
0.985
0
LINE
8
BLACK
6
CONTINUOUS
10
0.5395
20
0.985
11
0.4845
21
0.985
0
LINE
8
BLACK
6
CONTINUOUS
10
0.4845
20
0.985
11
0.4845
21
1.02
0
LINE
8
BLACK
6
CONTINUOUS
10
0.4845
20
1.02
11
0.5395
21
1.02
0
LINE
8
BLACK
6
CONTINUOUS
10
0.5395
20
1.02
11
0.5395
21
0.985
0
LINE
8
BLACK
6
CONTINUOUS
10
0.6395
20
0.985
11
0.5845
21
0.985
0
LINE
8
BLACK
6
CONTINUOUS
10
0.5845
20
0.985
11
0.5845
21
1.02
0
LINE
8
BLACK
6
CONTINUOUS
10
0.5845
20
1.02
11
0.6395
21
1.02
0
LINE
8
BLACK
6
CONTINUOUS
10
0.6395
20
1.02
11
0.6395
21
0.985
0
LINE
8
BLACK
6
CONTINUOUS
10
1.0275
20
0.985
11
0.9725
21
0.985
0
LINE
8
BLACK
6
CONTINUOUS
10
0.9725
20
0.985
11
0.9725
21
1.02
0
LINE
8
BLACK
6
CONTINUOUS
10
0.9725
20
1.02
11
1.0275
21
1.02
0
LINE
8
BLACK
6
CONTINUOUS
10
1.0275
20
1.02
11
1.0275
21
0.985
0
LINE
8
BLACK
6
CONTINUOUS
10
1.65345
20
1.0133
11
1.58655
21
1.0133
0
LINE
8
BLACK
6
CONTINUOUS
10
1.58655
20
1.0133
11
1.58655
21
1.0645
0
LINE
8
BLACK
6
CONTINUOUS
10
1.58655
20
1.0645
11
1.65345
21
1.0645
0
LINE
8
BLACK
6
CONTINUOUS
10
1.65345
20
1.0645
11
1.65345
21
1.0133
0
LINE
8
BLACK
6
CONTINUOUS
10
2.1975
20
1.03
11
2.1425
21
1.03
0
LINE
8
BLACK
6
CONTINUOUS
10
2.1425
20
1.03
11
2.1425
21
1.065
0
LINE
8
BLACK
6
CONTINUOUS
10
2.1425
20
1.065
11
2.1975
21
1.065
0
LINE
8
BLACK
6
CONTINUOUS
10
2.1975
20
1.065
11
2.1975
21
1.03
0
LINE
8
BLACK
6
CONTINUOUS
10
2.2875
20
1.03
11
2.2325
21
1.03
0
LINE
8
BLACK
6
CONTINUOUS
10
2.2325
20
1.03
11
2.2325
21
1.065
0
LINE
8
BLACK
6
CONTINUOUS
10
2.2325
20
1.065
11
2.2875
21
1.065
0
LINE
8
BLACK
6
CONTINUOUS
10
2.2875
20
1.065
11
2.2875
21
1.03
0
LINE
8
BLACK
6
CONTINUOUS
10
1.8275
20
1.04
11
1.7725
21
1.04
0
LINE
8
BLACK
6
CONTINUOUS
10
1.7725
20
1.04
11
1.7725
21
1.075
0
LINE
8
BLACK
6
CONTINUOUS
10
1.7725
20
1.075
11
1.8275
21
1.075
0
LINE
8
BLACK
6
CONTINUOUS
10
1.8275
20
1.075
11
1.8275
21
1.04
0
LINE
8
BLACK
6
CONTINUOUS
10
1.9275
20
1.04
11
1.8725
21
1.04
0
LINE
8
BLACK
6
CONTINUOUS
10
1.8725
20
1.04
11
1.8725
21
1.075
0
LINE
8
BLACK
6
CONTINUOUS
10
1.8725
20
1.075
11
1.9275
21
1.075
0
LINE
8
BLACK
6
CONTINUOUS
10
1.9275
20
1.075
11
1.9275
21
1.04
0
LINE
8
BLACK
6
CONTINUOUS
10
0.43545
20
1.0473
11
0.36855
21
1.0473
0
LINE
8
BLACK
6
CONTINUOUS
10
0.36855
20
1.0473
11
0.36855
21
1.0985
0
LINE
8
BLACK
6
CONTINUOUS
10
0.36855
20
1.0985
11
0.43545
21
1.0985
0
LINE
8
BLACK
6
CONTINUOUS
10
0.43545
20
1.0985
11
0.43545
21
1.0473
0
LINE
8
BLACK
6
CONTINUOUS
10
2.01745
20
1.0484
11
1.95055
21
1.0484
0
LINE
8
BLACK
6
CONTINUOUS
10
1.95055
20
1.0484
11
1.95055
21
1.0996
0
LINE
8
BLACK
6
CONTINUOUS
10
1.95055
20
1.0996
11
2.01745
21
1.0996
0
LINE
8
BLACK
6
CONTINUOUS
10
2.01745
20
1.0996
11
2.01745
21
1.0484
0
LINE
8
BLACK
6
CONTINUOUS
10
0.72945
20
1.0504
11
0.66255
21
1.0504
0
LINE
8
BLACK
6
CONTINUOUS
10
0.66255
20
1.0504
11
0.66255
21
1.1016
0
LINE
8
BLACK
6
CONTINUOUS
10
0.66255
20
1.1016
11
0.72945
21
1.1016
0
LINE
8
BLACK
6
CONTINUOUS
10
0.72945
20
1.1016
11
0.72945
21
1.0504
0
LINE
8
BLACK
6
CONTINUOUS
10
2.11345
20
1.0513
11
2.04655
21
1.0513
0
LINE
8
BLACK
6
CONTINUOUS
10
2.04655
20
1.0513
11
2.04655
21
1.1025
0
LINE
8
BLACK
6
CONTINUOUS
10
2.04655
20
1.1025
11
2.11345
21
1.1025
0
LINE
8
BLACK
6
CONTINUOUS
10
2.11345
20
1.1025
11
2.11345
21
1.0513
0
LINE
8
BLACK
6
CONTINUOUS
10
1.19745
20
1.0524
11
1.13055
21
1.0524
0
LINE
8
BLACK
6
CONTINUOUS
10
1.13055
20
1.0524
11
1.13055
21
1.1036
0
LINE
8
BLACK
6
CONTINUOUS
10
1.13055
20
1.1036
11
1.19745
21
1.1036
0
LINE
8
BLACK
6
CONTINUOUS
10
1.19745
20
1.1036
11
1.19745
21
1.0524
0
LINE
8
BLACK
6
CONTINUOUS
10
0.83345
20
1.0533
11
0.76655
21
1.0533
0
LINE
8
BLACK
6
CONTINUOUS
10
0.76655
20
1.0533
11
0.76655
21
1.1045
0
LINE
8
BLACK
6
CONTINUOUS
10
0.76655
20
1.1045
11
0.83345
21
1.1045
0
LINE
8
BLACK
6
CONTINUOUS
10
0.83345
20
1.1045
11
0.83345
21
1.0533
0
LINE
8
BLACK
6
CONTINUOUS
10
2.40345
20
1.0533
11
2.33655
21
1.0533
0
LINE
8
BLACK
6
CONTINUOUS
10
2.33655
20
1.0533
11
2.33655
21
1.1045
0
LINE
8
BLACK
6
CONTINUOUS
10
2.33655
20
1.1045
11
2.40345
21
1.1045
0
LINE
8
BLACK
6
CONTINUOUS
10
2.40345
20
1.1045
11
2.40345
21
1.0533
0
LINE
8
BLACK
6
CONTINUOUS
10
1.0275
20
1.06
11
0.9725
21
1.06
0
LINE
8
BLACK
6
CONTINUOUS
10
0.9725
20
1.06
11
0.9725
21
1.095
0
LINE
8
BLACK
6
CONTINUOUS
10
0.9725
20
1.095
11
1.0275
21
1.095
0
LINE
8
BLACK
6
CONTINUOUS
10
1.0275
20
1.095
11
1.0275
21
1.06
0
LINE
8
BLACK
6
CONTINUOUS
10
0.6395
20
1.06
11
0.5845
21
1.06
0
LINE
8
BLACK
6
CONTINUOUS
10
0.5845
20
1.06
11
0.5845
21
1.095
0
LINE
8
BLACK
6
CONTINUOUS
10
0.5845
20
1.095
11
0.6395
21
1.095
0
LINE
8
BLACK
6
CONTINUOUS
10
0.6395
20
1.095
11
0.6395
21
1.06
0
LINE
8
BLACK
6
CONTINUOUS
10
0.5395
20
1.06
11
0.4845
21
1.06
0
LINE
8
BLACK
6
CONTINUOUS
10
0.4845
20
1.06
11
0.4845
21
1.095
0
LINE
8
BLACK
6
CONTINUOUS
10
0.4845
20
1.095
11
0.5395
21
1.095
0
LINE
8
BLACK
6
CONTINUOUS
10
0.5395
20
1.095
11
0.5395
21
1.06
0
LINE
8
BLACK
6
CONTINUOUS
10
0.9275
20
1.06
11
0.8725
21
1.06
0
LINE
8
BLACK
6
CONTINUOUS
10
0.8725
20
1.06
11
0.8725
21
1.095
0
LINE
8
BLACK
6
CONTINUOUS
10
0.8725
20
1.095
11
0.9275
21
1.095
0
LINE
8
BLACK
6
CONTINUOUS
10
0.9275
20
1.095
11
0.9275
21
1.06
0
LINE
8
BLACK
6
CONTINUOUS
10
1.3325
20
1.09819
11
1.2875
21
1.09819
0
LINE
8
BLACK
6
CONTINUOUS
10
1.2875
20
1.09819
11
1.2875
21
1.12181
0
LINE
8
BLACK
6
CONTINUOUS
10
1.2875
20
1.12181
11
1.3325
21
1.12181
0
LINE
8
BLACK
6
CONTINUOUS
10
1.3325
20
1.12181
11
1.3325
21
1.09819
0
LINE
8
BLACK
6
CONTINUOUS
10
1.5825
20
1.09819
11
1.5375
21
1.09819
0
LINE
8
BLACK
6
CONTINUOUS
10
1.5375
20
1.09819
11
1.5375
21
1.12181
0
LINE
8
BLACK
6
CONTINUOUS
10
1.5375
20
1.12181
11
1.5825
21
1.12181
0
LINE
8
BLACK
6
CONTINUOUS
10
1.5825
20
1.12181
11
1.5825
21
1.09819
0
LINE
8
BLACK
6
CONTINUOUS
10
1.915
20
1.1125
11
1.88
21
1.1125
0
LINE
8
BLACK
6
CONTINUOUS
10
1.88
20
1.1125
11
1.88
21
1.1675
0
LINE
8
BLACK
6
CONTINUOUS
10
1.88
20
1.1675
11
1.915
21
1.1675
0
LINE
8
BLACK
6
CONTINUOUS
10
1.915
20
1.1675
11
1.915
21
1.1125
0
LINE
8
BLACK
6
CONTINUOUS
10
1.84
20
1.1125
11
1.805
21
1.1125
0
LINE
8
BLACK
6
CONTINUOUS
10
1.805
20
1.1125
11
1.805
21
1.1675
0
LINE
8
BLACK
6
CONTINUOUS
10
1.805
20
1.1675
11
1.84
21
1.1675
0
LINE
8
BLACK
6
CONTINUOUS
10
1.84
20
1.1675
11
1.84
21
1.1125
0
LINE
8
BLACK
6
CONTINUOUS
10
2.12
20
1.1225
11
2.085
21
1.1225
0
LINE
8
BLACK
6
CONTINUOUS
10
2.085
20
1.1225
11
2.085
21
1.1775
0
LINE
8
BLACK
6
CONTINUOUS
10
2.085
20
1.1775
11
2.12
21
1.1775
0
LINE
8
BLACK
6
CONTINUOUS
10
2.12
20
1.1775
11
2.12
21
1.1225
0
LINE
8
BLACK
6
CONTINUOUS
10
2.195
20
1.1225
11
2.16
21
1.1225
0
LINE
8
BLACK
6
CONTINUOUS
10
2.16
20
1.1225
11
2.16
21
1.1775
0
LINE
8
BLACK
6
CONTINUOUS
10
2.16
20
1.1775
11
2.195
21
1.1775
0
LINE
8
BLACK
6
CONTINUOUS
10
2.195
20
1.1775
11
2.195
21
1.1225
0
LINE
8
BLACK
6
CONTINUOUS
10
0.6085
20
1.1225
11
0.5735
21
1.1225
0
LINE
8
BLACK
6
CONTINUOUS
10
0.5735
20
1.1225
11
0.5735
21
1.1775
0
LINE
8
BLACK
6
CONTINUOUS
10
0.5735
20
1.1775
11
0.6085
21
1.1775
0
LINE
8
BLACK
6
CONTINUOUS
10
0.6085
20
1.1775
11
0.6085
21
1.1225
0
LINE
8
BLACK
6
CONTINUOUS
10
0.6835
20
1.1225
11
0.6485
21
1.1225
0
LINE
8
BLACK
6
CONTINUOUS
10
0.6485
20
1.1225
11
0.6485
21
1.1775
0
LINE
8
BLACK
6
CONTINUOUS
10
0.6485
20
1.1775
11
0.6835
21
1.1775
0
LINE
8
BLACK
6
CONTINUOUS
10
0.6835
20
1.1775
11
0.6835
21
1.1225
0
LINE
8
BLACK
6
CONTINUOUS
10
1.7
20
1.1225
11
1.665
21
1.1225
0
LINE
8
BLACK
6
CONTINUOUS
10
1.665
20
1.1225
11
1.665
21
1.1775
0
LINE
8
BLACK
6
CONTINUOUS
10
1.665
20
1.1775
11
1.7
21
1.1775
0
LINE
8
BLACK
6
CONTINUOUS
10
1.7
20
1.1775
11
1.7
21
1.1225
0
LINE
8
BLACK
6
CONTINUOUS
10
1.775
20
1.1225
11
1.74
21
1.1225
0
LINE
8
BLACK
6
CONTINUOUS
10
1.74
20
1.1225
11
1.74
21
1.1775
0
LINE
8
BLACK
6
CONTINUOUS
10
1.74
20
1.1775
11
1.775
21
1.1775
0
LINE
8
BLACK
6
CONTINUOUS
10
1.775
20
1.1775
11
1.775
21
1.1225
0
LINE
8
BLACK
6
CONTINUOUS
10
0.915
20
1.1225
11
0.88
21
1.1225
0
LINE
8
BLACK
6
CONTINUOUS
10
0.88
20
1.1225
11
0.88
21
1.1775
0
LINE
8
BLACK
6
CONTINUOUS
10
0.88
20
1.1775
11
0.915
21
1.1775
0
LINE
8
BLACK
6
CONTINUOUS
10
0.915
20
1.1775
11
0.915
21
1.1225
0
LINE
8
BLACK
6
CONTINUOUS
10
0.84
20
1.1225
11
0.805
21
1.1225
0
LINE
8
BLACK
6
CONTINUOUS
10
0.805
20
1.1225
11
0.805
21
1.1775
0
LINE
8
BLACK
6
CONTINUOUS
10
0.805
20
1.1775
11
0.84
21
1.1775
0
LINE
8
BLACK
6
CONTINUOUS
10
0.84
20
1.1775
11
0.84
21
1.1225
0
LINE
8
BLACK
6
CONTINUOUS
10
0.5225
20
1.1325
11
0.4875
21
1.1325
0
LINE
8
BLACK
6
CONTINUOUS
10
0.4875
20
1.1325
11
0.4875
21
1.1875
0
LINE
8
BLACK
6
CONTINUOUS
10
0.4875
20
1.1875
11
0.5225
21
1.1875
0
LINE
8
BLACK
6
CONTINUOUS
10
0.5225
20
1.1875
11
0.5225
21
1.1325
0
LINE
8
BLACK
6
CONTINUOUS
10
0.4475
20
1.1325
11
0.4125
21
1.1325
0
LINE
8
BLACK
6
CONTINUOUS
10
0.4125
20
1.1325
11
0.4125
21
1.1875
0
LINE
8
BLACK
6
CONTINUOUS
10
0.4125
20
1.1875
11
0.4475
21
1.1875
0
LINE
8
BLACK
6
CONTINUOUS
10
0.4475
20
1.1875
11
0.4475
21
1.1325
0
LINE
8
BLACK
6
CONTINUOUS
10
2.0275
20
1.145
11
1.9725
21
1.145
0
LINE
8
BLACK
6
CONTINUOUS
10
1.9725
20
1.145
11
1.9725
21
1.18
0
LINE
8
BLACK
6
CONTINUOUS
10
1.9725
20
1.18
11
2.0275
21
1.18
0
LINE
8
BLACK
6
CONTINUOUS
10
2.0275
20
1.18
11
2.0275
21
1.145
0
LINE
8
BLACK
6
CONTINUOUS
10
1.3325
20
1.14819
11
1.2875
21
1.14819
0
LINE
8
BLACK
6
CONTINUOUS
10
1.2875
20
1.14819
11
1.2875
21
1.17181
0
LINE
8
BLACK
6
CONTINUOUS
10
1.2875
20
1.17181
11
1.3325
21
1.17181
0
LINE
8
BLACK
6
CONTINUOUS
10
1.3325
20
1.17181
11
1.3325
21
1.14819
0
LINE
8
BLACK
6
CONTINUOUS
10
1.5825
20
1.14819
11
1.5375
21
1.14819
0
LINE
8
BLACK
6
CONTINUOUS
10
1.5375
20
1.14819
11
1.5375
21
1.17181
0
LINE
8
BLACK
6
CONTINUOUS
10
1.5375
20
1.17181
11
1.5825
21
1.17181
0
LINE
8
BLACK
6
CONTINUOUS
10
1.5825
20
1.17181
11
1.5825
21
1.14819
0
LINE
8
BLACK
6
CONTINUOUS
10
0.7715
20
1.159
11
0.7165
21
1.159
0
LINE
8
BLACK
6
CONTINUOUS
10
0.7165
20
1.159
11
0.7165
21
1.194
0
LINE
8
BLACK
6
CONTINUOUS
10
0.7165
20
1.194
11
0.7715
21
1.194
0
LINE
8
BLACK
6
CONTINUOUS
10
0.7715
20
1.194
11
0.7715
21
1.159
0
LINE
8
BLACK
6
CONTINUOUS
10
0.98
20
1.1725
11
0.945
21
1.1725
0
LINE
8
BLACK
6
CONTINUOUS
10
0.945
20
1.1725
11
0.945
21
1.2275
0
LINE
8
BLACK
6
CONTINUOUS
10
0.945
20
1.2275
11
0.98
21
1.2275
0
LINE
8
BLACK
6
CONTINUOUS
10
0.98
20
1.2275
11
0.98
21
1.1725
0
LINE
8
BLACK
6
CONTINUOUS
10
1.055
20
1.1725
11
1.02
21
1.1725
0
LINE
8
BLACK
6
CONTINUOUS
10
1.02
20
1.1725
11
1.02
21
1.2275
0
LINE
8
BLACK
6
CONTINUOUS
10
1.02
20
1.2275
11
1.055
21
1.2275
0
LINE
8
BLACK
6
CONTINUOUS
10
1.055
20
1.2275
11
1.055
21
1.1725
0
LINE
8
BLACK
6
CONTINUOUS
10
2.28
20
1.1825
11
2.245
21
1.1825
0
LINE
8
BLACK
6
CONTINUOUS
10
2.245
20
1.1825
11
2.245
21
1.2375
0
LINE
8
BLACK
6
CONTINUOUS
10
2.245
20
1.2375
11
2.28
21
1.2375
0
LINE
8
BLACK
6
CONTINUOUS
10
2.28
20
1.2375
11
2.28
21
1.1825
0
LINE
8
BLACK
6
CONTINUOUS
10
2.355
20
1.1825
11
2.32
21
1.1825
0
LINE
8
BLACK
6
CONTINUOUS
10
2.32
20
1.1825
11
2.32
21
1.2375
0
LINE
8
BLACK
6
CONTINUOUS
10
2.32
20
1.2375
11
2.355
21
1.2375
0
LINE
8
BLACK
6
CONTINUOUS
10
2.355
20
1.2375
11
2.355
21
1.1825
0
LINE
8
BLACK
6
CONTINUOUS
10
1.3325
20
1.19819
11
1.2875
21
1.19819
0
LINE
8
BLACK
6
CONTINUOUS
10
1.2875
20
1.19819
11
1.2875
21
1.22181
0
LINE
8
BLACK
6
CONTINUOUS
10
1.2875
20
1.22181
11
1.3325
21
1.22181
0
LINE
8
BLACK
6
CONTINUOUS
10
1.3325
20
1.22181
11
1.3325
21
1.19819
0
LINE
8
BLACK
6
CONTINUOUS
10
1.5825
20
1.19819
11
1.5375
21
1.19819
0
LINE
8
BLACK
6
CONTINUOUS
10
1.5375
20
1.19819
11
1.5375
21
1.22181
0
LINE
8
BLACK
6
CONTINUOUS
10
1.5375
20
1.22181
11
1.5825
21
1.22181
0
LINE
8
BLACK
6
CONTINUOUS
10
1.5825
20
1.22181
11
1.5825
21
1.19819
0
LINE
8
BLACK
6
CONTINUOUS
10
2.195
20
1.1985
11
2.16
21
1.1985
0
LINE
8
BLACK
6
CONTINUOUS
10
2.16
20
1.1985
11
2.16
21
1.2535
0
LINE
8
BLACK
6
CONTINUOUS
10
2.16
20
1.2535
11
2.195
21
1.2535
0
LINE
8
BLACK
6
CONTINUOUS
10
2.195
20
1.2535
11
2.195
21
1.1985
0
LINE
8
BLACK
6
CONTINUOUS
10
2.12
20
1.1985
11
2.085
21
1.1985
0
LINE
8
BLACK
6
CONTINUOUS
10
2.085
20
1.1985
11
2.085
21
1.2535
0
LINE
8
BLACK
6
CONTINUOUS
10
2.085
20
1.2535
11
2.12
21
1.2535
0
LINE
8
BLACK
6
CONTINUOUS
10
2.12
20
1.2535
11
2.12
21
1.1985
0
LINE
8
BLACK
6
CONTINUOUS
10
1.9135
20
1.2005
11
1.8785
21
1.2005
0
LINE
8
BLACK
6
CONTINUOUS
10
1.8785
20
1.2005
11
1.8785
21
1.2555
0
LINE
8
BLACK
6
CONTINUOUS
10
1.8785
20
1.2555
11
1.9135
21
1.2555
0
LINE
8
BLACK
6
CONTINUOUS
10
1.9135
20
1.2555
11
1.9135
21
1.2005
0
LINE
8
BLACK
6
CONTINUOUS
10
1.8385
20
1.2005
11
1.8035
21
1.2005
0
LINE
8
BLACK
6
CONTINUOUS
10
1.8035
20
1.2005
11
1.8035
21
1.2555
0
LINE
8
BLACK
6
CONTINUOUS
10
1.8035
20
1.2555
11
1.8385
21
1.2555
0
LINE
8
BLACK
6
CONTINUOUS
10
1.8385
20
1.2555
11
1.8385
21
1.2005
0
LINE
8
BLACK
6
CONTINUOUS
10
0.6835
20
1.2025
11
0.6485
21
1.2025
0
LINE
8
BLACK
6
CONTINUOUS
10
0.6485
20
1.2025
11
0.6485
21
1.2575
0
LINE
8
BLACK
6
CONTINUOUS
10
0.6485
20
1.2575
11
0.6835
21
1.2575
0
LINE
8
BLACK
6
CONTINUOUS
10
0.6835
20
1.2575
11
0.6835
21
1.2025
0
LINE
8
BLACK
6
CONTINUOUS
10
0.6085
20
1.2025
11
0.5735
21
1.2025
0
LINE
8
BLACK
6
CONTINUOUS
10
0.5735
20
1.2025
11
0.5735
21
1.2575
0
LINE
8
BLACK
6
CONTINUOUS
10
0.5735
20
1.2575
11
0.6085
21
1.2575
0
LINE
8
BLACK
6
CONTINUOUS
10
0.6085
20
1.2575
11
0.6085
21
1.2025
0
LINE
8
BLACK
6
CONTINUOUS
10
0.84
20
1.2125
11
0.805
21
1.2125
0
LINE
8
BLACK
6
CONTINUOUS
10
0.805
20
1.2125
11
0.805
21
1.2675
0
LINE
8
BLACK
6
CONTINUOUS
10
0.805
20
1.2675
11
0.84
21
1.2675
0
LINE
8
BLACK
6
CONTINUOUS
10
0.84
20
1.2675
11
0.84
21
1.2125
0
LINE
8
BLACK
6
CONTINUOUS
10
0.915
20
1.2125
11
0.88
21
1.2125
0
LINE
8
BLACK
6
CONTINUOUS
10
0.88
20
1.2125
11
0.88
21
1.2675
0
LINE
8
BLACK
6
CONTINUOUS
10
0.88
20
1.2675
11
0.915
21
1.2675
0
LINE
8
BLACK
6
CONTINUOUS
10
0.915
20
1.2675
11
0.915
21
1.2125
0
LINE
8
BLACK
6
CONTINUOUS
10
2.0275
20
1.22
11
1.9725
21
1.22
0
LINE
8
BLACK
6
CONTINUOUS
10
1.9725
20
1.22
11
1.9725
21
1.255
0
LINE
8
BLACK
6
CONTINUOUS
10
1.9725
20
1.255
11
2.0275
21
1.255
0
LINE
8
BLACK
6
CONTINUOUS
10
2.0275
20
1.255
11
2.0275
21
1.22
0
LINE
8
BLACK
6
CONTINUOUS
10
1.775
20
1.2225
11
1.74
21
1.2225
0
LINE
8
BLACK
6
CONTINUOUS
10
1.74
20
1.2225
11
1.74
21
1.2775
0
LINE
8
BLACK
6
CONTINUOUS
10
1.74
20
1.2775
11
1.775
21
1.2775
0
LINE
8
BLACK
6
CONTINUOUS
10
1.775
20
1.2775
11
1.775
21
1.2225
0
LINE
8
BLACK
6
CONTINUOUS
10
1.7
20
1.2225
11
1.665
21
1.2225
0
LINE
8
BLACK
6
CONTINUOUS
10
1.665
20
1.2225
11
1.665
21
1.2775
0
LINE
8
BLACK
6
CONTINUOUS
10
1.665
20
1.2775
11
1.7
21
1.2775
0
LINE
8
BLACK
6
CONTINUOUS
10
1.7
20
1.2775
11
1.7
21
1.2225
0
LINE
8
BLACK
6
CONTINUOUS
10
0.4475
20
1.2325
11
0.4125
21
1.2325
0
LINE
8
BLACK
6
CONTINUOUS
10
0.4125
20
1.2325
11
0.4125
21
1.2875
0
LINE
8
BLACK
6
CONTINUOUS
10
0.4125
20
1.2875
11
0.4475
21
1.2875
0
LINE
8
BLACK
6
CONTINUOUS
10
0.4475
20
1.2875
11
0.4475
21
1.2325
0
LINE
8
BLACK
6
CONTINUOUS
10
0.5225
20
1.2325
11
0.4875
21
1.2325
0
LINE
8
BLACK
6
CONTINUOUS
10
0.4875
20
1.2325
11
0.4875
21
1.2875
0
LINE
8
BLACK
6
CONTINUOUS
10
0.4875
20
1.2875
11
0.5225
21
1.2875
0
LINE
8
BLACK
6
CONTINUOUS
10
0.5225
20
1.2875
11
0.5225
21
1.2325
0
LINE
8
BLACK
6
CONTINUOUS
10
0.7715
20
1.234
11
0.7165
21
1.234
0
LINE
8
BLACK
6
CONTINUOUS
10
0.7165
20
1.234
11
0.7165
21
1.269
0
LINE
8
BLACK
6
CONTINUOUS
10
0.7165
20
1.269
11
0.7715
21
1.269
0
LINE
8
BLACK
6
CONTINUOUS
10
0.7715
20
1.269
11
0.7715
21
1.234
0
LINE
8
BLACK
6
CONTINUOUS
10
1.3325
20
1.24819
11
1.2875
21
1.24819
0
LINE
8
BLACK
6
CONTINUOUS
10
1.2875
20
1.24819
11
1.2875
21
1.27181
0
LINE
8
BLACK
6
CONTINUOUS
10
1.2875
20
1.27181
11
1.3325
21
1.27181
0
LINE
8
BLACK
6
CONTINUOUS
10
1.3325
20
1.27181
11
1.3325
21
1.24819
0
LINE
8
BLACK
6
CONTINUOUS
10
1.5825
20
1.24819
11
1.5375
21
1.24819
0
LINE
8
BLACK
6
CONTINUOUS
10
1.5375
20
1.24819
11
1.5375
21
1.27181
0
LINE
8
BLACK
6
CONTINUOUS
10
1.5375
20
1.27181
11
1.5825
21
1.27181
0
LINE
8
BLACK
6
CONTINUOUS
10
1.5825
20
1.27181
11
1.5825
21
1.24819
0
LINE
8
BLACK
6
CONTINUOUS
10
0.98
20
1.2725
11
0.945
21
1.2725
0
LINE
8
BLACK
6
CONTINUOUS
10
0.945
20
1.2725
11
0.945
21
1.3275
0
LINE
8
BLACK
6
CONTINUOUS
10
0.945
20
1.3275
11
0.98
21
1.3275
0
LINE
8
BLACK
6
CONTINUOUS
10
0.98
20
1.3275
11
0.98
21
1.2725
0
LINE
8
BLACK
6
CONTINUOUS
10
1.055
20
1.2725
11
1.02
21
1.2725
0
LINE
8
BLACK
6
CONTINUOUS
10
1.02
20
1.2725
11
1.02
21
1.3275
0
LINE
8
BLACK
6
CONTINUOUS
10
1.02
20
1.3275
11
1.055
21
1.3275
0
LINE
8
BLACK
6
CONTINUOUS
10
1.055
20
1.3275
11
1.055
21
1.2725
0
LINE
8
BLACK
6
CONTINUOUS
10
2.355
20
1.2725
11
2.32
21
1.2725
0
LINE
8
BLACK
6
CONTINUOUS
10
2.32
20
1.2725
11
2.32
21
1.3275
0
LINE
8
BLACK
6
CONTINUOUS
10
2.32
20
1.3275
11
2.355
21
1.3275
0
LINE
8
BLACK
6
CONTINUOUS
10
2.355
20
1.3275
11
2.355
21
1.2725
0
LINE
8
BLACK
6
CONTINUOUS
10
2.28
20
1.2725
11
2.245
21
1.2725
0
LINE
8
BLACK
6
CONTINUOUS
10
2.245
20
1.2725
11
2.245
21
1.3275
0
LINE
8
BLACK
6
CONTINUOUS
10
2.245
20
1.3275
11
2.28
21
1.3275
0
LINE
8
BLACK
6
CONTINUOUS
10
2.28
20
1.3275
11
2.28
21
1.2725
0
LINE
8
BLACK
6
CONTINUOUS
10
1.2175
20
1.2775
11
1.1625
21
1.2775
0
LINE
8
BLACK
6
CONTINUOUS
10
1.1625
20
1.2775
11
1.1625
21
1.3125
0
LINE
8
BLACK
6
CONTINUOUS
10
1.1625
20
1.3125
11
1.2175
21
1.3125
0
LINE
8
BLACK
6
CONTINUOUS
10
1.2175
20
1.3125
11
1.2175
21
1.2775
0
LINE
8
BLACK
6
CONTINUOUS
10
2.13681
20
1.29319
11
2.07579
21
1.29319
0
LINE
8
BLACK
6
CONTINUOUS
10
2.07579
20
1.29319
11
2.07579
21
1.31681
0
LINE
8
BLACK
6
CONTINUOUS
10
2.07579
20
1.31681
11
2.13681
21
1.31681
0
LINE
8
BLACK
6
CONTINUOUS
10
2.13681
20
1.31681
11
2.13681
21
1.29319
0
LINE
8
BLACK
6
CONTINUOUS
10
1.92421
20
1.29319
11
1.86319
21
1.29319
0
LINE
8
BLACK
6
CONTINUOUS
10
1.86319
20
1.29319
11
1.86319
21
1.31681
0
LINE
8
BLACK
6
CONTINUOUS
10
1.86319
20
1.31681
11
1.92421
21
1.31681
0
LINE
8
BLACK
6
CONTINUOUS
10
1.92421
20
1.31681
11
1.92421
21
1.29319
0
LINE
8
BLACK
6
CONTINUOUS
10
1.3325
20
1.29819
11
1.2875
21
1.29819
0
LINE
8
BLACK
6
CONTINUOUS
10
1.2875
20
1.29819
11
1.2875
21
1.32181
0
LINE
8
BLACK
6
CONTINUOUS
10
1.2875
20
1.32181
11
1.3325
21
1.32181
0
LINE
8
BLACK
6
CONTINUOUS
10
1.3325
20
1.32181
11
1.3325
21
1.29819
0
LINE
8
BLACK
6
CONTINUOUS
10
1.5825
20
1.29819
11
1.5375
21
1.29819
0
LINE
8
BLACK
6
CONTINUOUS
10
1.5375
20
1.29819
11
1.5375
21
1.32181
0
LINE
8
BLACK
6
CONTINUOUS
10
1.5375
20
1.32181
11
1.5825
21
1.32181
0
LINE
8
BLACK
6
CONTINUOUS
10
1.5825
20
1.32181
11
1.5825
21
1.29819
0
LINE
8
BLACK
6
CONTINUOUS
10
0.866811
20
1.31319
11
0.805787
21
1.31319
0
LINE
8
BLACK
6
CONTINUOUS
10
0.805787
20
1.31319
11
0.805787
21
1.33681
0
LINE
8
BLACK
6
CONTINUOUS
10
0.805787
20
1.33681
11
0.866811
21
1.33681
0
LINE
8
BLACK
6
CONTINUOUS
10
0.866811
20
1.33681
11
0.866811
21
1.31319
0
LINE
8
BLACK
6
CONTINUOUS
10
0.654213
20
1.31319
11
0.593189
21
1.31319
0
LINE
8
BLACK
6
CONTINUOUS
10
0.593189
20
1.31319
11
0.593189
21
1.33681
0
LINE
8
BLACK
6
CONTINUOUS
10
0.593189
20
1.33681
11
0.654213
21
1.33681
0
LINE
8
BLACK
6
CONTINUOUS
10
0.654213
20
1.33681
11
0.654213
21
1.31319
0
LINE
8
BLACK
6
CONTINUOUS
10
1.92421
20
1.34319
11
1.86319
21
1.34319
0
LINE
8
BLACK
6
CONTINUOUS
10
1.86319
20
1.34319
11
1.86319
21
1.36681
0
LINE
8
BLACK
6
CONTINUOUS
10
1.86319
20
1.36681
11
1.92421
21
1.36681
0
LINE
8
BLACK
6
CONTINUOUS
10
1.92421
20
1.36681
11
1.92421
21
1.34319
0
LINE
8
BLACK
6
CONTINUOUS
10
2.13681
20
1.34319
11
2.07579
21
1.34319
0
LINE
8
BLACK
6
CONTINUOUS
10
2.07579
20
1.34319
11
2.07579
21
1.36681
0
LINE
8
BLACK
6
CONTINUOUS
10
2.07579
20
1.36681
11
2.13681
21
1.36681
0
LINE
8
BLACK
6
CONTINUOUS
10
2.13681
20
1.36681
11
2.13681
21
1.34319
0
LINE
8
BLACK
6
CONTINUOUS
10
1.5825
20
1.34819
11
1.5375
21
1.34819
0
LINE
8
BLACK
6
CONTINUOUS
10
1.5375
20
1.34819
11
1.5375
21
1.37181
0
LINE
8
BLACK
6
CONTINUOUS
10
1.5375
20
1.37181
11
1.5825
21
1.37181
0
LINE
8
BLACK
6
CONTINUOUS
10
1.5825
20
1.37181
11
1.5825
21
1.34819
0
LINE
8
BLACK
6
CONTINUOUS
10
1.3325
20
1.34819
11
1.2875
21
1.34819
0
LINE
8
BLACK
6
CONTINUOUS
10
1.2875
20
1.34819
11
1.2875
21
1.37181
0
LINE
8
BLACK
6
CONTINUOUS
10
1.2875
20
1.37181
11
1.3325
21
1.37181
0
LINE
8
BLACK
6
CONTINUOUS
10
1.3325
20
1.37181
11
1.3325
21
1.34819
0
LINE
8
BLACK
6
CONTINUOUS
10
1.2175
20
1.3525
11
1.1625
21
1.3525
0
LINE
8
BLACK
6
CONTINUOUS
10
1.1625
20
1.3525
11
1.1625
21
1.3875
0
LINE
8
BLACK
6
CONTINUOUS
10
1.1625
20
1.3875
11
1.2175
21
1.3875
0
LINE
8
BLACK
6
CONTINUOUS
10
1.2175
20
1.3875
11
1.2175
21
1.3525
0
LINE
8
BLACK
6
CONTINUOUS
10
0.654213
20
1.36319
11
0.593189
21
1.36319
0
LINE
8
BLACK
6
CONTINUOUS
10
0.593189
20
1.36319
11
0.593189
21
1.38681
0
LINE
8
BLACK
6
CONTINUOUS
10
0.593189
20
1.38681
11
0.654213
21
1.38681
0
LINE
8
BLACK
6
CONTINUOUS
10
0.654213
20
1.38681
11
0.654213
21
1.36319
0
LINE
8
BLACK
6
CONTINUOUS
10
0.866811
20
1.36319
11
0.805787
21
1.36319
0
LINE
8
BLACK
6
CONTINUOUS
10
0.805787
20
1.36319
11
0.805787
21
1.38681
0
LINE
8
BLACK
6
CONTINUOUS
10
0.805787
20
1.38681
11
0.866811
21
1.38681
0
LINE
8
BLACK
6
CONTINUOUS
10
0.866811
20
1.38681
11
0.866811
21
1.36319
0
LINE
8
BLACK
6
CONTINUOUS
10
2.13681
20
1.39319
11
2.07579
21
1.39319
0
LINE
8
BLACK
6
CONTINUOUS
10
2.07579
20
1.39319
11
2.07579
21
1.41681
0
LINE
8
BLACK
6
CONTINUOUS
10
2.07579
20
1.41681
11
2.13681
21
1.41681
0
LINE
8
BLACK
6
CONTINUOUS
10
2.13681
20
1.41681
11
2.13681
21
1.39319
0
LINE
8
BLACK
6
CONTINUOUS
10
1.92421
20
1.39319
11
1.86319
21
1.39319
0
LINE
8
BLACK
6
CONTINUOUS
10
1.86319
20
1.39319
11
1.86319
21
1.41681
0
LINE
8
BLACK
6
CONTINUOUS
10
1.86319
20
1.41681
11
1.92421
21
1.41681
0
LINE
8
BLACK
6
CONTINUOUS
10
1.92421
20
1.41681
11
1.92421
21
1.39319
0
LINE
8
BLACK
6
CONTINUOUS
10
1.3325
20
1.39819
11
1.2875
21
1.39819
0
LINE
8
BLACK
6
CONTINUOUS
10
1.2875
20
1.39819
11
1.2875
21
1.42181
0
LINE
8
BLACK
6
CONTINUOUS
10
1.2875
20
1.42181
11
1.3325
21
1.42181
0
LINE
8
BLACK
6
CONTINUOUS
10
1.3325
20
1.42181
11
1.3325
21
1.39819
0
LINE
8
BLACK
6
CONTINUOUS
10
1.5825
20
1.39819
11
1.5375
21
1.39819
0
LINE
8
BLACK
6
CONTINUOUS
10
1.5375
20
1.39819
11
1.5375
21
1.42181
0
LINE
8
BLACK
6
CONTINUOUS
10
1.5375
20
1.42181
11
1.5825
21
1.42181
0
LINE
8
BLACK
6
CONTINUOUS
10
1.5825
20
1.42181
11
1.5825
21
1.39819
0
LINE
8
BLACK
6
CONTINUOUS
10
0.866811
20
1.41319
11
0.805787
21
1.41319
0
LINE
8
BLACK
6
CONTINUOUS
10
0.805787
20
1.41319
11
0.805787
21
1.43681
0
LINE
8
BLACK
6
CONTINUOUS
10
0.805787
20
1.43681
11
0.866811
21
1.43681
0
LINE
8
BLACK
6
CONTINUOUS
10
0.866811
20
1.43681
11
0.866811
21
1.41319
0
LINE
8
BLACK
6
CONTINUOUS
10
0.654213
20
1.41319
11
0.593189
21
1.41319
0
LINE
8
BLACK
6
CONTINUOUS
10
0.593189
20
1.41319
11
0.593189
21
1.43681
0
LINE
8
BLACK
6
CONTINUOUS
10
0.593189
20
1.43681
11
0.654213
21
1.43681
0
LINE
8
BLACK
6
CONTINUOUS
10
0.654213
20
1.43681
11
0.654213
21
1.41319
0
LINE
8
BLACK
6
CONTINUOUS
10
1.2175
20
1.4225
11
1.1625
21
1.4225
0
LINE
8
BLACK
6
CONTINUOUS
10
1.1625
20
1.4225
11
1.1625
21
1.4575
0
LINE
8
BLACK
6
CONTINUOUS
10
1.1625
20
1.4575
11
1.2175
21
1.4575
0
LINE
8
BLACK
6
CONTINUOUS
10
1.2175
20
1.4575
11
1.2175
21
1.4225
0
LINE
8
BLACK
6
CONTINUOUS
10
2.13681
20
1.44319
11
2.07579
21
1.44319
0
LINE
8
BLACK
6
CONTINUOUS
10
2.07579
20
1.44319
11
2.07579
21
1.46681
0
LINE
8
BLACK
6
CONTINUOUS
10
2.07579
20
1.46681
11
2.13681
21
1.46681
0
LINE
8
BLACK
6
CONTINUOUS
10
2.13681
20
1.46681
11
2.13681
21
1.44319
0
LINE
8
BLACK
6
CONTINUOUS
10
1.92421
20
1.44319
11
1.86319
21
1.44319
0
LINE
8
BLACK
6
CONTINUOUS
10
1.86319
20
1.44319
11
1.86319
21
1.46681
0
LINE
8
BLACK
6
CONTINUOUS
10
1.86319
20
1.46681
11
1.92421
21
1.46681
0
LINE
8
BLACK
6
CONTINUOUS
10
1.92421
20
1.46681
11
1.92421
21
1.44319
0
LINE
8
BLACK
6
CONTINUOUS
10
1.1275
20
1.4525
11
1.0725
21
1.4525
0
LINE
8
BLACK
6
CONTINUOUS
10
1.0725
20
1.4525
11
1.0725
21
1.4875
0
LINE
8
BLACK
6
CONTINUOUS
10
1.0725
20
1.4875
11
1.1275
21
1.4875
0
LINE
8
BLACK
6
CONTINUOUS
10
1.1275
20
1.4875
11
1.1275
21
1.4525
0
LINE
8
BLACK
6
CONTINUOUS
10
0.654213
20
1.46319
11
0.593189
21
1.46319
0
LINE
8
BLACK
6
CONTINUOUS
10
0.593189
20
1.46319
11
0.593189
21
1.48681
0
LINE
8
BLACK
6
CONTINUOUS
10
0.593189
20
1.48681
11
0.654213
21
1.48681
0
LINE
8
BLACK
6
CONTINUOUS
10
0.654213
20
1.48681
11
0.654213
21
1.46319
0
LINE
8
BLACK
6
CONTINUOUS
10
0.866811
20
1.46319
11
0.805787
21
1.46319
0
LINE
8
BLACK
6
CONTINUOUS
10
0.805787
20
1.46319
11
0.805787
21
1.48681
0
LINE
8
BLACK
6
CONTINUOUS
10
0.805787
20
1.48681
11
0.866811
21
1.48681
0
LINE
8
BLACK
6
CONTINUOUS
10
0.866811
20
1.48681
11
0.866811
21
1.46319
0
LINE
8
BLACK
6
CONTINUOUS
10
1.535
20
1.4825
11
1.5
21
1.4825
0
LINE
8
BLACK
6
CONTINUOUS
10
1.5
20
1.4825
11
1.5
21
1.5375
0
LINE
8
BLACK
6
CONTINUOUS
10
1.5
20
1.5375
11
1.535
21
1.5375
0
LINE
8
BLACK
6
CONTINUOUS
10
1.535
20
1.5375
11
1.535
21
1.4825
0
LINE
8
BLACK
6
CONTINUOUS
10
1.46
20
1.4825
11
1.425
21
1.4825
0
LINE
8
BLACK
6
CONTINUOUS
10
1.425
20
1.4825
11
1.425
21
1.5375
0
LINE
8
BLACK
6
CONTINUOUS
10
1.425
20
1.5375
11
1.46
21
1.5375
0
LINE
8
BLACK
6
CONTINUOUS
10
1.46
20
1.5375
11
1.46
21
1.4825
0
LINE
8
BLACK
6
CONTINUOUS
10
1.395
20
1.4825
11
1.36
21
1.4825
0
LINE
8
BLACK
6
CONTINUOUS
10
1.36
20
1.4825
11
1.36
21
1.5375
0
LINE
8
BLACK
6
CONTINUOUS
10
1.36
20
1.5375
11
1.395
21
1.5375
0
LINE
8
BLACK
6
CONTINUOUS
10
1.395
20
1.5375
11
1.395
21
1.4825
0
LINE
8
BLACK
6
CONTINUOUS
10
1.32
20
1.4825
11
1.285
21
1.4825
0
LINE
8
BLACK
6
CONTINUOUS
10
1.285
20
1.4825
11
1.285
21
1.5375
0
LINE
8
BLACK
6
CONTINUOUS
10
1.285
20
1.5375
11
1.32
21
1.5375
0
LINE
8
BLACK
6
CONTINUOUS
10
1.32
20
1.5375
11
1.32
21
1.4825
0
LINE
8
BLACK
6
CONTINUOUS
10
1.2175
20
1.4975
11
1.1625
21
1.4975
0
LINE
8
BLACK
6
CONTINUOUS
10
1.1625
20
1.4975
11
1.1625
21
1.5325
0
LINE
8
BLACK
6
CONTINUOUS
10
1.1625
20
1.5325
11
1.2175
21
1.5325
0
LINE
8
BLACK
6
CONTINUOUS
10
1.2175
20
1.5325
11
1.2175
21
1.4975
0
LINE
8
BLACK
6
CONTINUOUS
10
1.1275
20
1.5275
11
1.0725
21
1.5275
0
LINE
8
BLACK
6
CONTINUOUS
10
1.0725
20
1.5275
11
1.0725
21
1.5625
0
LINE
8
BLACK
6
CONTINUOUS
10
1.0725
20
1.5625
11
1.1275
21
1.5625
0
LINE
8
BLACK
6
CONTINUOUS
10
1.1275
20
1.5625
11
1.1275
21
1.5275
0
LINE
8
BLACK
6
CONTINUOUS
10
1.09345
20
1.5855
11
1.02655
21
1.5855
0
LINE
8
BLACK
6
CONTINUOUS
10
1.02655
20
1.5855
11
1.02655
21
1.6367
0
LINE
8
BLACK
6
CONTINUOUS
10
1.02655
20
1.6367
11
1.09345
21
1.6367
0
LINE
8
BLACK
6
CONTINUOUS
10
1.09345
20
1.6367
11
1.09345
21
1.5855
0
LINE
8
BLACK
6
CONTINUOUS
10
2.1475
20
1.605
11
2.0925
21
1.605
0
LINE
8
BLACK
6
CONTINUOUS
10
2.0925
20
1.605
11
2.0925
21
1.64
0
LINE
8
BLACK
6
CONTINUOUS
10
2.0925
20
1.64
11
2.1475
21
1.64
0
LINE
8
BLACK
6
CONTINUOUS
10
2.1475
20
1.64
11
2.1475
21
1.605
0
LINE
8
BLACK
6
CONTINUOUS
10
1.8335
20
1.6095
11
1.7785
21
1.6095
0
LINE
8
BLACK
6
CONTINUOUS
10
1.7785
20
1.6095
11
1.7785
21
1.6445
0
LINE
8
BLACK
6
CONTINUOUS
10
1.7785
20
1.6445
11
1.8335
21
1.6445
0
LINE
8
BLACK
6
CONTINUOUS
10
1.8335
20
1.6445
11
1.8335
21
1.6095
0
LINE
8
BLACK
6
CONTINUOUS
10
2.1475
20
1.68
11
2.0925
21
1.68
0
LINE
8
BLACK
6
CONTINUOUS
10
2.0925
20
1.68
11
2.0925
21
1.715
0
LINE
8
BLACK
6
CONTINUOUS
10
2.0925
20
1.715
11
2.1475
21
1.715
0
LINE
8
BLACK
6
CONTINUOUS
10
2.1475
20
1.715
11
2.1475
21
1.68
0
LINE
8
BLACK
6
CONTINUOUS
10
1.8335
20
1.6845
11
1.7785
21
1.6845
0
LINE
8
BLACK
6
CONTINUOUS
10
1.7785
20
1.6845
11
1.7785
21
1.7195
0
LINE
8
BLACK
6
CONTINUOUS
10
1.7785
20
1.7195
11
1.8335
21
1.7195
0
LINE
8
BLACK
6
CONTINUOUS
10
1.8335
20
1.7195
11
1.8335
21
1.6845
0
LINE
8
BLACK
6
CONTINUOUS
10
1.09345
20
1.7233
11
1.02655
21
1.7233
0
LINE
8
BLACK
6
CONTINUOUS
10
1.02655
20
1.7233
11
1.02655
21
1.7745
0
LINE
8
BLACK
6
CONTINUOUS
10
1.02655
20
1.7745
11
1.09345
21
1.7745
0
LINE
8
BLACK
6
CONTINUOUS
10
1.09345
20
1.7745
11
1.09345
21
1.7233
  0
ENDSEC
  0
EOF
