  0
SECTION
  2
HEADER
  9
$ANGBASE
  50
0.0
  9
$ANGDIR
  70
1
  9
$MEASUREMENT
  70
0
  0
ENDSEC
  0
SECTION
  2
TABLES
  0
TABLE
  2
LTYPE
  70
4
  0
LTYPE
  5
40F
  2
CONTINUOUS
  70
0
  3
Solid line
  72
65
  73
0
  40
0.0
  0
LTYPE
  5
410
  2
DASHDOT
 70
0
  3
Dash Dot ____ _ ____ _
 72
65
 73
4
 40
2.0
 49
1.25
 49
-0.25
 49
0.25
 49
-0.25
  0
LTYPE
  5
411
  2
DASHED
 70
0
  3
Dashed __ __ __ __ __
 72
65
 73
2
 40
0.75
 49
0.5
 49
-0.25
  0
LTYPE
  5
43B
  2
DOTTED
 70
0
  3
Dotted .  .  .  .
 72
65
 73
2
 40
0.2
 49
0.0
 49
-0.2
  0
ENDTAB
  0
TABLE
  2
STYLE
  70
4
  0
STYLE
  2
KICAD
  70
0
  40
0
  41
1
  42
1
  50
0
  71
0
  3
isocp.shx
  0
STYLE
  2
KICADB
  70
0
  40
0
  41
1
  42
1
  50
0
  71
0
  3
isocp.shx
  0
STYLE
  2
KICADI
  70
0
  40
0
  41
1
  42
1
  50
15
  71
0
  3
isocp.shx
  0
STYLE
  2
KICADBI
  70
0
  40
0
  41
1
  42
1
  50
15
  71
0
  3
isocp.shx
  0
ENDTAB
  0
TABLE
  2
LAYER
  70
1
  0
LAYER
  2
BLACK
  70
0
  62
7
  6
CONTINUOUS
  0
ENDTAB
  0
ENDSEC
  0
SECTION
  2
ENTITIES
0
LINE
8
BLACK
6
CONTINUOUS
10
0.0205096
20
0.116316
11
0.0338744
21
0.113148
0
LINE
8
BLACK
6
CONTINUOUS
10
0.0338744
20
0.113148
11
0.0467811
21
0.108451
0
LINE
8
BLACK
6
CONTINUOUS
10
0.0467811
20
0.108451
11
0.0590551
21
0.102286
0
LINE
8
BLACK
6
CONTINUOUS
10
0.0590551
20
0.102286
11
0.0705306
21
0.094739
0
LINE
8
BLACK
6
CONTINUOUS
10
0.0705306
20
0.094739
11
0.0810522
21
0.0859103
0
LINE
8
BLACK
6
CONTINUOUS
10
0.0810522
20
0.0859103
11
0.0904777
21
0.0759198
0
LINE
8
BLACK
6
CONTINUOUS
10
0.0904777
20
0.0759198
11
0.0986796
21
0.0649026
0
LINE
8
BLACK
6
CONTINUOUS
10
0.0986796
20
0.0649026
11
0.105547
21
0.0530078
0
LINE
8
BLACK
6
CONTINUOUS
10
0.105547
20
0.0530078
11
0.110987
21
0.0403961
0
LINE
8
BLACK
6
CONTINUOUS
10
0.110987
20
0.0403961
11
0.114927
21
0.0272381
0
LINE
8
BLACK
6
CONTINUOUS
10
0.114927
20
0.0272381
11
0.117312
21
0.0137118
0
LINE
8
BLACK
6
CONTINUOUS
10
0.117312
20
0.0137118
11
0.11811
21
0
0
LINE
8
BLACK
6
CONTINUOUS
10
0.11811
20
0
11
0.117312
21
-0.0137118
0
LINE
8
BLACK
6
CONTINUOUS
10
0.117312
20
-0.0137118
11
0.114927
21
-0.0272381
0
LINE
8
BLACK
6
CONTINUOUS
10
0.114927
20
-0.0272381
11
0.110987
21
-0.0403961
0
LINE
8
BLACK
6
CONTINUOUS
10
0.110987
20
-0.0403961
11
0.105547
21
-0.0530078
0
LINE
8
BLACK
6
CONTINUOUS
10
0.105547
20
-0.0530078
11
0.0986796
21
-0.0649026
0
LINE
8
BLACK
6
CONTINUOUS
10
0.0986796
20
-0.0649026
11
0.0904777
21
-0.0759198
0
LINE
8
BLACK
6
CONTINUOUS
10
0.0904777
20
-0.0759198
11
0.0810522
21
-0.0859103
0
LINE
8
BLACK
6
CONTINUOUS
10
0.0810522
20
-0.0859103
11
0.0705306
21
-0.094739
0
LINE
8
BLACK
6
CONTINUOUS
10
0.0705306
20
-0.094739
11
0.0590551
21
-0.102286
0
LINE
8
BLACK
6
CONTINUOUS
10
0.0590551
20
-0.102286
11
0.0467811
21
-0.108451
0
LINE
8
BLACK
6
CONTINUOUS
10
0.0467811
20
-0.108451
11
0.0338744
21
-0.113148
0
LINE
8
BLACK
6
CONTINUOUS
10
0.0338744
20
-0.113148
11
0.0205096
21
-0.116316
0
LINE
8
BLACK
6
CONTINUOUS
10
0.0205096
20
-0.116316
11
0.00686748
21
-0.11791
0
LINE
8
BLACK
6
CONTINUOUS
10
0.00686748
20
-0.11791
11
-0.00686748
21
-0.11791
0
LINE
8
BLACK
6
CONTINUOUS
10
-0.00686748
20
-0.11791
11
-0.0205096
21
-0.116316
0
LINE
8
BLACK
6
CONTINUOUS
10
-0.0205096
20
-0.116316
11
-0.0338744
21
-0.113148
0
LINE
8
BLACK
6
CONTINUOUS
10
-0.0338744
20
-0.113148
11
-0.0467811
21
-0.108451
0
LINE
8
BLACK
6
CONTINUOUS
10
-0.0467811
20
-0.108451
11
-0.0590551
21
-0.102286
0
LINE
8
BLACK
6
CONTINUOUS
10
-0.0590551
20
-0.102286
11
-0.0705306
21
-0.094739
0
LINE
8
BLACK
6
CONTINUOUS
10
-0.0705306
20
-0.094739
11
-0.0810522
21
-0.0859103
0
LINE
8
BLACK
6
CONTINUOUS
10
-0.0810522
20
-0.0859103
11
-0.0904777
21
-0.0759198
0
LINE
8
BLACK
6
CONTINUOUS
10
-0.0904777
20
-0.0759198
11
-0.0986796
21
-0.0649026
0
LINE
8
BLACK
6
CONTINUOUS
10
-0.0986796
20
-0.0649026
11
-0.105547
21
-0.0530078
0
LINE
8
BLACK
6
CONTINUOUS
10
-0.105547
20
-0.0530078
11
-0.110987
21
-0.0403961
0
LINE
8
BLACK
6
CONTINUOUS
10
-0.110987
20
-0.0403961
11
-0.114927
21
-0.0272381
0
LINE
8
BLACK
6
CONTINUOUS
10
-0.114927
20
-0.0272381
11
-0.117312
21
-0.0137118
0
LINE
8
BLACK
6
CONTINUOUS
10
-0.117312
20
-0.0137118
11
-0.11811
21
0
0
LINE
8
BLACK
6
CONTINUOUS
10
-0.11811
20
0
11
-0.117312
21
0.0137118
0
LINE
8
BLACK
6
CONTINUOUS
10
-0.117312
20
0.0137118
11
-0.114927
21
0.0272381
0
LINE
8
BLACK
6
CONTINUOUS
10
-0.114927
20
0.0272381
11
-0.110987
21
0.0403961
0
LINE
8
BLACK
6
CONTINUOUS
10
-0.110987
20
0.0403961
11
-0.105547
21
0.0530078
0
LINE
8
BLACK
6
CONTINUOUS
10
-0.105547
20
0.0530078
11
-0.0986796
21
0.0649026
0
LINE
8
BLACK
6
CONTINUOUS
10
-0.0986796
20
0.0649026
11
-0.0904777
21
0.0759198
0
LINE
8
BLACK
6
CONTINUOUS
10
-0.0904777
20
0.0759198
11
-0.0810522
21
0.0859103
0
LINE
8
BLACK
6
CONTINUOUS
10
-0.0810522
20
0.0859103
11
-0.0705306
21
0.094739
0
LINE
8
BLACK
6
CONTINUOUS
10
-0.0705306
20
0.094739
11
-0.0590551
21
0.102286
0
LINE
8
BLACK
6
CONTINUOUS
10
-0.0590551
20
0.102286
11
-0.0467811
21
0.108451
0
LINE
8
BLACK
6
CONTINUOUS
10
-0.0467811
20
0.108451
11
-0.0338744
21
0.113148
0
LINE
8
BLACK
6
CONTINUOUS
10
-0.0338744
20
0.113148
11
-0.0205096
21
0.116316
0
LINE
8
BLACK
6
CONTINUOUS
10
-0.0205096
20
0.116316
11
-0.00686748
21
0.11791
0
LINE
8
BLACK
6
CONTINUOUS
10
-0.00686748
20
0.11791
11
0.00686748
21
0.11791
0
LINE
8
BLACK
6
CONTINUOUS
10
0.00686748
20
0.11791
11
0.0205096
21
0.116316
0
LINE
8
BLACK
6
CONTINUOUS
10
2.02051
20
0.116316
11
2.03387
21
0.113148
0
LINE
8
BLACK
6
CONTINUOUS
10
2.03387
20
0.113148
11
2.04678
21
0.108451
0
LINE
8
BLACK
6
CONTINUOUS
10
2.04678
20
0.108451
11
2.05906
21
0.102286
0
LINE
8
BLACK
6
CONTINUOUS
10
2.05906
20
0.102286
11
2.07053
21
0.094739
0
LINE
8
BLACK
6
CONTINUOUS
10
2.07053
20
0.094739
11
2.08105
21
0.0859103
0
LINE
8
BLACK
6
CONTINUOUS
10
2.08105
20
0.0859103
11
2.09048
21
0.0759198
0
LINE
8
BLACK
6
CONTINUOUS
10
2.09048
20
0.0759198
11
2.09868
21
0.0649026
0
LINE
8
BLACK
6
CONTINUOUS
10
2.09868
20
0.0649026
11
2.10555
21
0.0530078
0
LINE
8
BLACK
6
CONTINUOUS
10
2.10555
20
0.0530078
11
2.11099
21
0.0403961
0
LINE
8
BLACK
6
CONTINUOUS
10
2.11099
20
0.0403961
11
2.11493
21
0.0272381
0
LINE
8
BLACK
6
CONTINUOUS
10
2.11493
20
0.0272381
11
2.11731
21
0.0137118
0
LINE
8
BLACK
6
CONTINUOUS
10
2.11731
20
0.0137118
11
2.11811
21
0
0
LINE
8
BLACK
6
CONTINUOUS
10
2.11811
20
0
11
2.11731
21
-0.0137118
0
LINE
8
BLACK
6
CONTINUOUS
10
2.11731
20
-0.0137118
11
2.11493
21
-0.0272381
0
LINE
8
BLACK
6
CONTINUOUS
10
2.11493
20
-0.0272381
11
2.11099
21
-0.0403961
0
LINE
8
BLACK
6
CONTINUOUS
10
2.11099
20
-0.0403961
11
2.10555
21
-0.0530078
0
LINE
8
BLACK
6
CONTINUOUS
10
2.10555
20
-0.0530078
11
2.09868
21
-0.0649026
0
LINE
8
BLACK
6
CONTINUOUS
10
2.09868
20
-0.0649026
11
2.09048
21
-0.0759198
0
LINE
8
BLACK
6
CONTINUOUS
10
2.09048
20
-0.0759198
11
2.08105
21
-0.0859103
0
LINE
8
BLACK
6
CONTINUOUS
10
2.08105
20
-0.0859103
11
2.07053
21
-0.094739
0
LINE
8
BLACK
6
CONTINUOUS
10
2.07053
20
-0.094739
11
2.05906
21
-0.102286
0
LINE
8
BLACK
6
CONTINUOUS
10
2.05906
20
-0.102286
11
2.04678
21
-0.108451
0
LINE
8
BLACK
6
CONTINUOUS
10
2.04678
20
-0.108451
11
2.03387
21
-0.113148
0
LINE
8
BLACK
6
CONTINUOUS
10
2.03387
20
-0.113148
11
2.02051
21
-0.116316
0
LINE
8
BLACK
6
CONTINUOUS
10
2.02051
20
-0.116316
11
2.00687
21
-0.11791
0
LINE
8
BLACK
6
CONTINUOUS
10
2.00687
20
-0.11791
11
1.99313
21
-0.11791
0
LINE
8
BLACK
6
CONTINUOUS
10
1.99313
20
-0.11791
11
1.97949
21
-0.116316
0
LINE
8
BLACK
6
CONTINUOUS
10
1.97949
20
-0.116316
11
1.96613
21
-0.113148
0
LINE
8
BLACK
6
CONTINUOUS
10
1.96613
20
-0.113148
11
1.95322
21
-0.108451
0
LINE
8
BLACK
6
CONTINUOUS
10
1.95322
20
-0.108451
11
1.94094
21
-0.102286
0
LINE
8
BLACK
6
CONTINUOUS
10
1.94094
20
-0.102286
11
1.92947
21
-0.094739
0
LINE
8
BLACK
6
CONTINUOUS
10
1.92947
20
-0.094739
11
1.91895
21
-0.0859103
0
LINE
8
BLACK
6
CONTINUOUS
10
1.91895
20
-0.0859103
11
1.90952
21
-0.0759198
0
LINE
8
BLACK
6
CONTINUOUS
10
1.90952
20
-0.0759198
11
1.90132
21
-0.0649026
0
LINE
8
BLACK
6
CONTINUOUS
10
1.90132
20
-0.0649026
11
1.89445
21
-0.0530078
0
LINE
8
BLACK
6
CONTINUOUS
10
1.89445
20
-0.0530078
11
1.88901
21
-0.0403961
0
LINE
8
BLACK
6
CONTINUOUS
10
1.88901
20
-0.0403961
11
1.88507
21
-0.0272381
0
LINE
8
BLACK
6
CONTINUOUS
10
1.88507
20
-0.0272381
11
1.88269
21
-0.0137118
0
LINE
8
BLACK
6
CONTINUOUS
10
1.88269
20
-0.0137118
11
1.88189
21
0
0
LINE
8
BLACK
6
CONTINUOUS
10
1.88189
20
0
11
1.88269
21
0.0137118
0
LINE
8
BLACK
6
CONTINUOUS
10
1.88269
20
0.0137118
11
1.88507
21
0.0272381
0
LINE
8
BLACK
6
CONTINUOUS
10
1.88507
20
0.0272381
11
1.88901
21
0.0403961
0
LINE
8
BLACK
6
CONTINUOUS
10
1.88901
20
0.0403961
11
1.89445
21
0.0530078
0
LINE
8
BLACK
6
CONTINUOUS
10
1.89445
20
0.0530078
11
1.90132
21
0.0649026
0
LINE
8
BLACK
6
CONTINUOUS
10
1.90132
20
0.0649026
11
1.90952
21
0.0759198
0
LINE
8
BLACK
6
CONTINUOUS
10
1.90952
20
0.0759198
11
1.91895
21
0.0859103
0
LINE
8
BLACK
6
CONTINUOUS
10
1.91895
20
0.0859103
11
1.92947
21
0.094739
0
LINE
8
BLACK
6
CONTINUOUS
10
1.92947
20
0.094739
11
1.94094
21
0.102286
0
LINE
8
BLACK
6
CONTINUOUS
10
1.94094
20
0.102286
11
1.95322
21
0.108451
0
LINE
8
BLACK
6
CONTINUOUS
10
1.95322
20
0.108451
11
1.96613
21
0.113148
0
LINE
8
BLACK
6
CONTINUOUS
10
1.96613
20
0.113148
11
1.97949
21
0.116316
0
LINE
8
BLACK
6
CONTINUOUS
10
1.97949
20
0.116316
11
1.99313
21
0.11791
0
LINE
8
BLACK
6
CONTINUOUS
10
1.99313
20
0.11791
11
2.00687
21
0.11791
0
LINE
8
BLACK
6
CONTINUOUS
10
2.00687
20
0.11791
11
2.02051
21
0.116316
0
LINE
8
BLACK
6
CONTINUOUS
10
0.0205096
20
1.31632
11
0.0338744
21
1.31315
0
LINE
8
BLACK
6
CONTINUOUS
10
0.0338744
20
1.31315
11
0.0467811
21
1.30845
0
LINE
8
BLACK
6
CONTINUOUS
10
0.0467811
20
1.30845
11
0.0590551
21
1.30229
0
LINE
8
BLACK
6
CONTINUOUS
10
0.0590551
20
1.30229
11
0.0705306
21
1.29474
0
LINE
8
BLACK
6
CONTINUOUS
10
0.0705306
20
1.29474
11
0.0810522
21
1.28591
0
LINE
8
BLACK
6
CONTINUOUS
10
0.0810522
20
1.28591
11
0.0904777
21
1.27592
0
LINE
8
BLACK
6
CONTINUOUS
10
0.0904777
20
1.27592
11
0.0986796
21
1.2649
0
LINE
8
BLACK
6
CONTINUOUS
10
0.0986796
20
1.2649
11
0.105547
21
1.25301
0
LINE
8
BLACK
6
CONTINUOUS
10
0.105547
20
1.25301
11
0.110987
21
1.2404
0
LINE
8
BLACK
6
CONTINUOUS
10
0.110987
20
1.2404
11
0.114927
21
1.22724
0
LINE
8
BLACK
6
CONTINUOUS
10
0.114927
20
1.22724
11
0.117312
21
1.21371
0
LINE
8
BLACK
6
CONTINUOUS
10
0.117312
20
1.21371
11
0.11811
21
1.2
0
LINE
8
BLACK
6
CONTINUOUS
10
0.11811
20
1.2
11
0.117312
21
1.18629
0
LINE
8
BLACK
6
CONTINUOUS
10
0.117312
20
1.18629
11
0.114927
21
1.17276
0
LINE
8
BLACK
6
CONTINUOUS
10
0.114927
20
1.17276
11
0.110987
21
1.1596
0
LINE
8
BLACK
6
CONTINUOUS
10
0.110987
20
1.1596
11
0.105547
21
1.14699
0
LINE
8
BLACK
6
CONTINUOUS
10
0.105547
20
1.14699
11
0.0986796
21
1.1351
0
LINE
8
BLACK
6
CONTINUOUS
10
0.0986796
20
1.1351
11
0.0904777
21
1.12408
0
LINE
8
BLACK
6
CONTINUOUS
10
0.0904777
20
1.12408
11
0.0810522
21
1.11409
0
LINE
8
BLACK
6
CONTINUOUS
10
0.0810522
20
1.11409
11
0.0705306
21
1.10526
0
LINE
8
BLACK
6
CONTINUOUS
10
0.0705306
20
1.10526
11
0.0590551
21
1.09771
0
LINE
8
BLACK
6
CONTINUOUS
10
0.0590551
20
1.09771
11
0.0467811
21
1.09155
0
LINE
8
BLACK
6
CONTINUOUS
10
0.0467811
20
1.09155
11
0.0338744
21
1.08685
0
LINE
8
BLACK
6
CONTINUOUS
10
0.0338744
20
1.08685
11
0.0205096
21
1.08368
0
LINE
8
BLACK
6
CONTINUOUS
10
0.0205096
20
1.08368
11
0.00686748
21
1.08209
0
LINE
8
BLACK
6
CONTINUOUS
10
0.00686748
20
1.08209
11
-0.00686748
21
1.08209
0
LINE
8
BLACK
6
CONTINUOUS
10
-0.00686748
20
1.08209
11
-0.0205096
21
1.08368
0
LINE
8
BLACK
6
CONTINUOUS
10
-0.0205096
20
1.08368
11
-0.0338744
21
1.08685
0
LINE
8
BLACK
6
CONTINUOUS
10
-0.0338744
20
1.08685
11
-0.0467811
21
1.09155
0
LINE
8
BLACK
6
CONTINUOUS
10
-0.0467811
20
1.09155
11
-0.0590551
21
1.09771
0
LINE
8
BLACK
6
CONTINUOUS
10
-0.0590551
20
1.09771
11
-0.0705306
21
1.10526
0
LINE
8
BLACK
6
CONTINUOUS
10
-0.0705306
20
1.10526
11
-0.0810522
21
1.11409
0
LINE
8
BLACK
6
CONTINUOUS
10
-0.0810522
20
1.11409
11
-0.0904777
21
1.12408
0
LINE
8
BLACK
6
CONTINUOUS
10
-0.0904777
20
1.12408
11
-0.0986796
21
1.1351
0
LINE
8
BLACK
6
CONTINUOUS
10
-0.0986796
20
1.1351
11
-0.105547
21
1.14699
0
LINE
8
BLACK
6
CONTINUOUS
10
-0.105547
20
1.14699
11
-0.110987
21
1.1596
0
LINE
8
BLACK
6
CONTINUOUS
10
-0.110987
20
1.1596
11
-0.114927
21
1.17276
0
LINE
8
BLACK
6
CONTINUOUS
10
-0.114927
20
1.17276
11
-0.117312
21
1.18629
0
LINE
8
BLACK
6
CONTINUOUS
10
-0.117312
20
1.18629
11
-0.11811
21
1.2
0
LINE
8
BLACK
6
CONTINUOUS
10
-0.11811
20
1.2
11
-0.117312
21
1.21371
0
LINE
8
BLACK
6
CONTINUOUS
10
-0.117312
20
1.21371
11
-0.114927
21
1.22724
0
LINE
8
BLACK
6
CONTINUOUS
10
-0.114927
20
1.22724
11
-0.110987
21
1.2404
0
LINE
8
BLACK
6
CONTINUOUS
10
-0.110987
20
1.2404
11
-0.105547
21
1.25301
0
LINE
8
BLACK
6
CONTINUOUS
10
-0.105547
20
1.25301
11
-0.0986796
21
1.2649
0
LINE
8
BLACK
6
CONTINUOUS
10
-0.0986796
20
1.2649
11
-0.0904777
21
1.27592
0
LINE
8
BLACK
6
CONTINUOUS
10
-0.0904777
20
1.27592
11
-0.0810522
21
1.28591
0
LINE
8
BLACK
6
CONTINUOUS
10
-0.0810522
20
1.28591
11
-0.0705306
21
1.29474
0
LINE
8
BLACK
6
CONTINUOUS
10
-0.0705306
20
1.29474
11
-0.0590551
21
1.30229
0
LINE
8
BLACK
6
CONTINUOUS
10
-0.0590551
20
1.30229
11
-0.0467811
21
1.30845
0
LINE
8
BLACK
6
CONTINUOUS
10
-0.0467811
20
1.30845
11
-0.0338744
21
1.31315
0
LINE
8
BLACK
6
CONTINUOUS
10
-0.0338744
20
1.31315
11
-0.0205096
21
1.31632
0
LINE
8
BLACK
6
CONTINUOUS
10
-0.0205096
20
1.31632
11
-0.00686748
21
1.31791
0
LINE
8
BLACK
6
CONTINUOUS
10
-0.00686748
20
1.31791
11
0.00686748
21
1.31791
0
LINE
8
BLACK
6
CONTINUOUS
10
0.00686748
20
1.31791
11
0.0205096
21
1.31632
0
LINE
8
BLACK
6
CONTINUOUS
10
2.02051
20
1.31632
11
2.03387
21
1.31315
0
LINE
8
BLACK
6
CONTINUOUS
10
2.03387
20
1.31315
11
2.04678
21
1.30845
0
LINE
8
BLACK
6
CONTINUOUS
10
2.04678
20
1.30845
11
2.05906
21
1.30229
0
LINE
8
BLACK
6
CONTINUOUS
10
2.05906
20
1.30229
11
2.07053
21
1.29474
0
LINE
8
BLACK
6
CONTINUOUS
10
2.07053
20
1.29474
11
2.08105
21
1.28591
0
LINE
8
BLACK
6
CONTINUOUS
10
2.08105
20
1.28591
11
2.09048
21
1.27592
0
LINE
8
BLACK
6
CONTINUOUS
10
2.09048
20
1.27592
11
2.09868
21
1.2649
0
LINE
8
BLACK
6
CONTINUOUS
10
2.09868
20
1.2649
11
2.10555
21
1.25301
0
LINE
8
BLACK
6
CONTINUOUS
10
2.10555
20
1.25301
11
2.11099
21
1.2404
0
LINE
8
BLACK
6
CONTINUOUS
10
2.11099
20
1.2404
11
2.11493
21
1.22724
0
LINE
8
BLACK
6
CONTINUOUS
10
2.11493
20
1.22724
11
2.11731
21
1.21371
0
LINE
8
BLACK
6
CONTINUOUS
10
2.11731
20
1.21371
11
2.11811
21
1.2
0
LINE
8
BLACK
6
CONTINUOUS
10
2.11811
20
1.2
11
2.11731
21
1.18629
0
LINE
8
BLACK
6
CONTINUOUS
10
2.11731
20
1.18629
11
2.11493
21
1.17276
0
LINE
8
BLACK
6
CONTINUOUS
10
2.11493
20
1.17276
11
2.11099
21
1.1596
0
LINE
8
BLACK
6
CONTINUOUS
10
2.11099
20
1.1596
11
2.10555
21
1.14699
0
LINE
8
BLACK
6
CONTINUOUS
10
2.10555
20
1.14699
11
2.09868
21
1.1351
0
LINE
8
BLACK
6
CONTINUOUS
10
2.09868
20
1.1351
11
2.09048
21
1.12408
0
LINE
8
BLACK
6
CONTINUOUS
10
2.09048
20
1.12408
11
2.08105
21
1.11409
0
LINE
8
BLACK
6
CONTINUOUS
10
2.08105
20
1.11409
11
2.07053
21
1.10526
0
LINE
8
BLACK
6
CONTINUOUS
10
2.07053
20
1.10526
11
2.05906
21
1.09771
0
LINE
8
BLACK
6
CONTINUOUS
10
2.05906
20
1.09771
11
2.04678
21
1.09155
0
LINE
8
BLACK
6
CONTINUOUS
10
2.04678
20
1.09155
11
2.03387
21
1.08685
0
LINE
8
BLACK
6
CONTINUOUS
10
2.03387
20
1.08685
11
2.02051
21
1.08368
0
LINE
8
BLACK
6
CONTINUOUS
10
2.02051
20
1.08368
11
2.00687
21
1.08209
0
LINE
8
BLACK
6
CONTINUOUS
10
2.00687
20
1.08209
11
1.99313
21
1.08209
0
LINE
8
BLACK
6
CONTINUOUS
10
1.99313
20
1.08209
11
1.97949
21
1.08368
0
LINE
8
BLACK
6
CONTINUOUS
10
1.97949
20
1.08368
11
1.96613
21
1.08685
0
LINE
8
BLACK
6
CONTINUOUS
10
1.96613
20
1.08685
11
1.95322
21
1.09155
0
LINE
8
BLACK
6
CONTINUOUS
10
1.95322
20
1.09155
11
1.94094
21
1.09771
0
LINE
8
BLACK
6
CONTINUOUS
10
1.94094
20
1.09771
11
1.92947
21
1.10526
0
LINE
8
BLACK
6
CONTINUOUS
10
1.92947
20
1.10526
11
1.91895
21
1.11409
0
LINE
8
BLACK
6
CONTINUOUS
10
1.91895
20
1.11409
11
1.90952
21
1.12408
0
LINE
8
BLACK
6
CONTINUOUS
10
1.90952
20
1.12408
11
1.90132
21
1.1351
0
LINE
8
BLACK
6
CONTINUOUS
10
1.90132
20
1.1351
11
1.89445
21
1.14699
0
LINE
8
BLACK
6
CONTINUOUS
10
1.89445
20
1.14699
11
1.88901
21
1.1596
0
LINE
8
BLACK
6
CONTINUOUS
10
1.88901
20
1.1596
11
1.88507
21
1.17276
0
LINE
8
BLACK
6
CONTINUOUS
10
1.88507
20
1.17276
11
1.88269
21
1.18629
0
LINE
8
BLACK
6
CONTINUOUS
10
1.88269
20
1.18629
11
1.88189
21
1.2
0
LINE
8
BLACK
6
CONTINUOUS
10
1.88189
20
1.2
11
1.88269
21
1.21371
0
LINE
8
BLACK
6
CONTINUOUS
10
1.88269
20
1.21371
11
1.88507
21
1.22724
0
LINE
8
BLACK
6
CONTINUOUS
10
1.88507
20
1.22724
11
1.88901
21
1.2404
0
LINE
8
BLACK
6
CONTINUOUS
10
1.88901
20
1.2404
11
1.89445
21
1.25301
0
LINE
8
BLACK
6
CONTINUOUS
10
1.89445
20
1.25301
11
1.90132
21
1.2649
0
LINE
8
BLACK
6
CONTINUOUS
10
1.90132
20
1.2649
11
1.90952
21
1.27592
0
LINE
8
BLACK
6
CONTINUOUS
10
1.90952
20
1.27592
11
1.91895
21
1.28591
0
LINE
8
BLACK
6
CONTINUOUS
10
1.91895
20
1.28591
11
1.92947
21
1.29474
0
LINE
8
BLACK
6
CONTINUOUS
10
1.92947
20
1.29474
11
1.94094
21
1.30229
0
LINE
8
BLACK
6
CONTINUOUS
10
1.94094
20
1.30229
11
1.95322
21
1.30845
0
LINE
8
BLACK
6
CONTINUOUS
10
1.95322
20
1.30845
11
1.96613
21
1.31315
0
LINE
8
BLACK
6
CONTINUOUS
10
1.96613
20
1.31315
11
1.97949
21
1.31632
0
LINE
8
BLACK
6
CONTINUOUS
10
1.97949
20
1.31632
11
1.99313
21
1.31791
0
LINE
8
BLACK
6
CONTINUOUS
10
1.99313
20
1.31791
11
2.00687
21
1.31791
0
LINE
8
BLACK
6
CONTINUOUS
10
2.00687
20
1.31791
11
2.02051
21
1.31632
  0
ENDSEC
  0
EOF
