  0
SECTION
  2
HEADER
  9
$ANGBASE
  50
0.0
  9
$ANGDIR
  70
1
  9
$MEASUREMENT
  70
0
  0
ENDSEC
  0
SECTION
  2
TABLES
  0
TABLE
  2
LTYPE
  70
4
  0
LTYPE
  5
40F
  2
CONTINUOUS
  70
0
  3
Solid line
  72
65
  73
0
  40
0.0
  0
LTYPE
  5
410
  2
DASHDOT
 70
0
  3
Dash Dot ____ _ ____ _
 72
65
 73
4
 40
2.0
 49
1.25
 49
-0.25
 49
0.25
 49
-0.25
  0
LTYPE
  5
411
  2
DASHED
 70
0
  3
Dashed __ __ __ __ __
 72
65
 73
2
 40
0.75
 49
0.5
 49
-0.25
  0
LTYPE
  5
43B
  2
DOTTED
 70
0
  3
Dotted .  .  .  .
 72
65
 73
2
 40
0.2
 49
0.0
 49
-0.2
  0
ENDTAB
  0
TABLE
  2
STYLE
  70
4
  0
STYLE
  2
KICAD
  70
0
  40
0
  41
1
  42
1
  50
0
  71
0
  3
isocp.shx
  0
STYLE
  2
KICADB
  70
0
  40
0
  41
1
  42
1
  50
0
  71
0
  3
isocp.shx
  0
STYLE
  2
KICADI
  70
0
  40
0
  41
1
  42
1
  50
15
  71
0
  3
isocp.shx
  0
STYLE
  2
KICADBI
  70
0
  40
0
  41
1
  42
1
  50
15
  71
0
  3
isocp.shx
  0
ENDTAB
  0
TABLE
  2
LAYER
  70
1
  0
LAYER
  2
BLACK
  70
0
  62
7
  6
CONTINUOUS
  0
ENDTAB
  0
ENDSEC
  0
SECTION
  2
ENTITIES
0
LINE
8
BLACK
6
CONTINUOUS
10
1.44167
20
0.821036
11
1.44138
21
0.821732
0
LINE
8
BLACK
6
CONTINUOUS
10
1.44138
20
0.821732
11
1.44138
21
1.03827
0
LINE
8
BLACK
6
CONTINUOUS
10
1.44138
20
1.03827
11
1.44167
21
1.03896
0
LINE
8
BLACK
6
CONTINUOUS
10
1.44167
20
1.03896
11
1.44236
21
1.03925
0
LINE
8
BLACK
6
CONTINUOUS
10
1.44236
20
1.03925
11
1.73764
21
1.03925
0
LINE
8
BLACK
6
CONTINUOUS
10
1.73764
20
1.03925
11
1.73833
21
1.03896
0
LINE
8
BLACK
6
CONTINUOUS
10
1.73833
20
1.03896
11
1.73862
21
1.03827
0
LINE
8
BLACK
6
CONTINUOUS
10
1.73862
20
1.03827
11
1.73862
21
0.821732
0
LINE
8
BLACK
6
CONTINUOUS
10
1.73862
20
0.821732
11
1.73833
21
0.821036
0
LINE
8
BLACK
6
CONTINUOUS
10
1.73833
20
0.821036
11
1.73764
21
0.820748
0
LINE
8
BLACK
6
CONTINUOUS
10
1.73764
20
0.820748
11
1.44236
21
0.820748
0
LINE
8
BLACK
6
CONTINUOUS
10
1.44236
20
0.820748
11
1.44167
21
0.821036
0
LINE
8
BLACK
6
CONTINUOUS
10
1.44335
20
1.03728
11
1.44335
21
0.822717
0
LINE
8
BLACK
6
CONTINUOUS
10
1.44335
20
0.822717
11
1.73665
21
0.822717
0
LINE
8
BLACK
6
CONTINUOUS
10
1.73665
20
0.822717
11
1.73665
21
1.03728
0
LINE
8
BLACK
6
CONTINUOUS
10
1.73665
20
1.03728
11
1.44335
21
1.03728
0
LINE
8
BLACK
6
CONTINUOUS
10
0.171666
20
0.841036
11
0.171378
21
0.841732
0
LINE
8
BLACK
6
CONTINUOUS
10
0.171378
20
0.841732
11
0.171378
21
1.05827
0
LINE
8
BLACK
6
CONTINUOUS
10
0.171378
20
1.05827
11
0.171666
21
1.05896
0
LINE
8
BLACK
6
CONTINUOUS
10
0.171666
20
1.05896
11
0.172362
21
1.05925
0
LINE
8
BLACK
6
CONTINUOUS
10
0.172362
20
1.05925
11
0.467638
21
1.05925
0
LINE
8
BLACK
6
CONTINUOUS
10
0.467638
20
1.05925
11
0.468334
21
1.05896
0
LINE
8
BLACK
6
CONTINUOUS
10
0.468334
20
1.05896
11
0.468622
21
1.05827
0
LINE
8
BLACK
6
CONTINUOUS
10
0.468622
20
1.05827
11
0.468622
21
0.841732
0
LINE
8
BLACK
6
CONTINUOUS
10
0.468622
20
0.841732
11
0.468334
21
0.841036
0
LINE
8
BLACK
6
CONTINUOUS
10
0.468334
20
0.841036
11
0.467638
21
0.840748
0
LINE
8
BLACK
6
CONTINUOUS
10
0.467638
20
0.840748
11
0.172362
21
0.840748
0
LINE
8
BLACK
6
CONTINUOUS
10
0.172362
20
0.840748
11
0.171666
21
0.841036
0
LINE
8
BLACK
6
CONTINUOUS
10
0.173346
20
1.05728
11
0.173346
21
0.842717
0
LINE
8
BLACK
6
CONTINUOUS
10
0.173346
20
0.842717
11
0.466654
21
0.842717
0
LINE
8
BLACK
6
CONTINUOUS
10
0.466654
20
0.842717
11
0.466654
21
1.05728
0
LINE
8
BLACK
6
CONTINUOUS
10
0.466654
20
1.05728
11
0.173346
21
1.05728
  0
ENDSEC
  0
EOF
