  0
SECTION
  2
HEADER
  9
$ANGBASE
  50
0.0
  9
$ANGDIR
  70
1
  9
$MEASUREMENT
  70
0
  0
ENDSEC
  0
SECTION
  2
TABLES
  0
TABLE
  2
LTYPE
  70
4
  0
LTYPE
  5
40F
  2
CONTINUOUS
  70
0
  3
Solid line
  72
65
  73
0
  40
0.0
  0
LTYPE
  5
410
  2
DASHDOT
 70
0
  3
Dash Dot ____ _ ____ _
 72
65
 73
4
 40
2.0
 49
1.25
 49
-0.25
 49
0.25
 49
-0.25
  0
LTYPE
  5
411
  2
DASHED
 70
0
  3
Dashed __ __ __ __ __
 72
65
 73
2
 40
0.75
 49
0.5
 49
-0.25
  0
LTYPE
  5
43B
  2
DOTTED
 70
0
  3
Dotted .  .  .  .
 72
65
 73
2
 40
0.2
 49
0.0
 49
-0.2
  0
ENDTAB
  0
TABLE
  2
STYLE
  70
4
  0
STYLE
  2
KICAD
  70
0
  40
0
  41
1
  42
1
  50
0
  71
0
  3
isocp.shx
  0
STYLE
  2
KICADB
  70
0
  40
0
  41
1
  42
1
  50
0
  71
0
  3
isocp.shx
  0
STYLE
  2
KICADI
  70
0
  40
0
  41
1
  42
1
  50
15
  71
0
  3
isocp.shx
  0
STYLE
  2
KICADBI
  70
0
  40
0
  41
1
  42
1
  50
15
  71
0
  3
isocp.shx
  0
ENDTAB
  0
TABLE
  2
LAYER
  70
1
  0
LAYER
  2
BLACK
  70
0
  62
7
  6
CONTINUOUS
  0
ENDTAB
  0
ENDSEC
  0
SECTION
  2
ENTITIES
0
LINE
8
BLACK
6
CONTINUOUS
10
2.60038
20
1.84289
11
2.60051
21
1.84291
0
LINE
8
BLACK
6
CONTINUOUS
10
2.60051
20
1.84291
11
2.60063
21
1.84284
0
LINE
8
BLACK
6
CONTINUOUS
10
2.60063
20
1.84284
11
2.60101
21
1.84277
0
LINE
8
BLACK
6
CONTINUOUS
10
2.60101
20
1.84277
11
2.6016
21
1.84228
0
LINE
8
BLACK
6
CONTINUOUS
10
2.6016
20
1.84228
11
2.60226
21
1.8419
0
LINE
8
BLACK
6
CONTINUOUS
10
2.60226
20
1.8419
11
2.60235
21
1.84165
0
LINE
8
BLACK
6
CONTINUOUS
10
2.60235
20
1.84165
11
2.60256
21
1.84148
0
LINE
8
BLACK
6
CONTINUOUS
10
2.60256
20
1.84148
11
2.60269
21
1.84072
0
LINE
8
BLACK
6
CONTINUOUS
10
2.60269
20
1.84072
11
2.60295
21
1.84
0
LINE
8
BLACK
6
CONTINUOUS
10
2.60295
20
1.84
11
2.60295
21
0.26
0
LINE
8
BLACK
6
CONTINUOUS
10
2.60295
20
0.26
11
2.60289
21
0.259616
0
LINE
8
BLACK
6
CONTINUOUS
10
2.60289
20
0.259616
11
2.60291
21
0.259487
0
LINE
8
BLACK
6
CONTINUOUS
10
2.60291
20
0.259487
11
2.60284
21
0.259374
0
LINE
8
BLACK
6
CONTINUOUS
10
2.60284
20
0.259374
11
2.60277
21
0.25899
0
LINE
8
BLACK
6
CONTINUOUS
10
2.60277
20
0.25899
11
2.60228
21
0.258402
0
LINE
8
BLACK
6
CONTINUOUS
10
2.60228
20
0.258402
11
2.6019
21
0.257738
0
LINE
8
BLACK
6
CONTINUOUS
10
2.6019
20
0.257738
11
2.60165
21
0.257647
0
LINE
8
BLACK
6
CONTINUOUS
10
2.60165
20
0.257647
11
2.60148
21
0.257443
0
LINE
8
BLACK
6
CONTINUOUS
10
2.60148
20
0.257443
11
2.60072
21
0.25731
0
LINE
8
BLACK
6
CONTINUOUS
10
2.60072
20
0.25731
11
2.6
21
0.257047
0
LINE
8
BLACK
6
CONTINUOUS
10
2.6
20
0.257047
11
0.22
21
0.257047
0
LINE
8
BLACK
6
CONTINUOUS
10
0.22
20
0.257047
11
0.219616
21
0.257115
0
LINE
8
BLACK
6
CONTINUOUS
10
0.219616
20
0.257115
11
0.219487
21
0.257092
0
LINE
8
BLACK
6
CONTINUOUS
10
0.219487
20
0.257092
11
0.219374
21
0.257158
0
LINE
8
BLACK
6
CONTINUOUS
10
0.219374
20
0.257158
11
0.21899
21
0.257225
0
LINE
8
BLACK
6
CONTINUOUS
10
0.21899
20
0.257225
11
0.218402
21
0.257718
0
LINE
8
BLACK
6
CONTINUOUS
10
0.218402
20
0.257718
11
0.217738
21
0.258102
0
LINE
8
BLACK
6
CONTINUOUS
10
0.217738
20
0.258102
11
0.217647
21
0.258352
0
LINE
8
BLACK
6
CONTINUOUS
10
0.217647
20
0.258352
11
0.217443
21
0.258524
0
LINE
8
BLACK
6
CONTINUOUS
10
0.217443
20
0.258524
11
0.21731
21
0.259279
0
LINE
8
BLACK
6
CONTINUOUS
10
0.21731
20
0.259279
11
0.217047
21
0.26
0
LINE
8
BLACK
6
CONTINUOUS
10
0.217047
20
0.26
11
0.217047
21
1.84
0
LINE
8
BLACK
6
CONTINUOUS
10
0.217047
20
1.84
11
0.217115
21
1.84038
0
LINE
8
BLACK
6
CONTINUOUS
10
0.217115
20
1.84038
11
0.217092
21
1.84051
0
LINE
8
BLACK
6
CONTINUOUS
10
0.217092
20
1.84051
11
0.217158
21
1.84063
0
LINE
8
BLACK
6
CONTINUOUS
10
0.217158
20
1.84063
11
0.217225
21
1.84101
0
LINE
8
BLACK
6
CONTINUOUS
10
0.217225
20
1.84101
11
0.217718
21
1.8416
0
LINE
8
BLACK
6
CONTINUOUS
10
0.217718
20
1.8416
11
0.218102
21
1.84226
0
LINE
8
BLACK
6
CONTINUOUS
10
0.218102
20
1.84226
11
0.218352
21
1.84235
0
LINE
8
BLACK
6
CONTINUOUS
10
0.218352
20
1.84235
11
0.218524
21
1.84256
0
LINE
8
BLACK
6
CONTINUOUS
10
0.218524
20
1.84256
11
0.219279
21
1.84269
0
LINE
8
BLACK
6
CONTINUOUS
10
0.219279
20
1.84269
11
0.22
21
1.84295
0
LINE
8
BLACK
6
CONTINUOUS
10
0.22
20
1.84295
11
2.6
21
1.84295
0
LINE
8
BLACK
6
CONTINUOUS
10
2.6
20
1.84295
11
2.60038
21
1.84289
0
LINE
8
BLACK
6
CONTINUOUS
10
0.222953
20
1.83705
11
0.222953
21
0.262953
0
LINE
8
BLACK
6
CONTINUOUS
10
0.222953
20
0.262953
11
2.59705
21
0.262953
0
LINE
8
BLACK
6
CONTINUOUS
10
2.59705
20
0.262953
11
2.59705
21
1.83705
0
LINE
8
BLACK
6
CONTINUOUS
10
2.59705
20
1.83705
11
0.222953
21
1.83705
  0
ENDSEC
  0
EOF
