  0
SECTION
  2
HEADER
  9
$ANGBASE
  50
0.0
  9
$ANGDIR
  70
1
  9
$MEASUREMENT
  70
0
  0
ENDSEC
  0
SECTION
  2
TABLES
  0
TABLE
  2
LTYPE
  70
4
  0
LTYPE
  5
40F
  2
CONTINUOUS
  70
0
  3
Solid line
  72
65
  73
0
  40
0.0
  0
LTYPE
  5
410
  2
DASHDOT
 70
0
  3
Dash Dot ____ _ ____ _
 72
65
 73
4
 40
2.0
 49
1.25
 49
-0.25
 49
0.25
 49
-0.25
  0
LTYPE
  5
411
  2
DASHED
 70
0
  3
Dashed __ __ __ __ __
 72
65
 73
2
 40
0.75
 49
0.5
 49
-0.25
  0
LTYPE
  5
43B
  2
DOTTED
 70
0
  3
Dotted .  .  .  .
 72
65
 73
2
 40
0.2
 49
0.0
 49
-0.2
  0
ENDTAB
  0
TABLE
  2
STYLE
  70
4
  0
STYLE
  2
KICAD
  70
0
  40
0
  41
1
  42
1
  50
0
  71
0
  3
isocp.shx
  0
STYLE
  2
KICADB
  70
0
  40
0
  41
1
  42
1
  50
0
  71
0
  3
isocp.shx
  0
STYLE
  2
KICADI
  70
0
  40
0
  41
1
  42
1
  50
15
  71
0
  3
isocp.shx
  0
STYLE
  2
KICADBI
  70
0
  40
0
  41
1
  42
1
  50
15
  71
0
  3
isocp.shx
  0
ENDTAB
  0
TABLE
  2
LAYER
  70
1
  0
LAYER
  2
BLACK
  70
0
  62
7
  6
CONTINUOUS
  0
ENDTAB
  0
ENDSEC
  0
SECTION
  2
ENTITIES
0
LINE
8
BLACK
6
CONTINUOUS
10
-0.122078
20
0.0295339
11
-0.118025
21
0.0429577
0
LINE
8
BLACK
6
CONTINUOUS
10
-0.118025
20
0.0429577
11
-0.112501
21
0.0558462
0
LINE
8
BLACK
6
CONTINUOUS
10
-0.112501
20
0.0558462
11
-0.105575
21
0.0680385
0
LINE
8
BLACK
6
CONTINUOUS
10
-0.105575
20
0.0680385
11
-0.097333
21
0.0793829
0
LINE
8
BLACK
6
CONTINUOUS
10
-0.097333
20
0.0793829
11
-0.0878777
21
0.0897378
0
LINE
8
BLACK
6
CONTINUOUS
10
-0.0878777
20
0.0897378
11
-0.0773271
21
0.0989741
0
LINE
8
BLACK
6
CONTINUOUS
10
-0.0773271
20
0.0989741
11
-0.0658126
21
0.106977
0
LINE
8
BLACK
6
CONTINUOUS
10
-0.0658126
20
0.106977
11
-0.0534779
21
0.113646
0
LINE
8
BLACK
6
CONTINUOUS
10
-0.0534779
20
0.113646
11
-0.0404766
21
0.118899
0
LINE
8
BLACK
6
CONTINUOUS
10
-0.0404766
20
0.118899
11
-0.0269707
21
0.12267
0
LINE
8
BLACK
6
CONTINUOUS
10
-0.0269707
20
0.12267
11
-0.0131288
21
0.124912
0
LINE
8
BLACK
6
CONTINUOUS
10
-0.0131288
20
0.124912
11
0.00087685
21
0.125597
0
LINE
8
BLACK
6
CONTINUOUS
10
0.00087685
20
0.125597
11
0.0148715
21
0.124716
0
LINE
8
BLACK
6
CONTINUOUS
10
0.0148715
20
0.124716
11
0.0286809
21
0.122281
0
LINE
8
BLACK
6
CONTINUOUS
10
0.0286809
20
0.122281
11
0.0421327
21
0.118322
0
LINE
8
BLACK
6
CONTINUOUS
10
0.0421327
20
0.118322
11
0.0550594
21
0.112889
0
LINE
8
BLACK
6
CONTINUOUS
10
0.0550594
20
0.112889
11
0.0672998
21
0.106048
0
LINE
8
BLACK
6
CONTINUOUS
10
0.0672998
20
0.106048
11
0.0787015
21
0.0978848
0
LINE
8
BLACK
6
CONTINUOUS
10
0.0787015
20
0.0978848
11
0.0891221
21
0.088502
0
LINE
8
BLACK
6
CONTINUOUS
10
0.0891221
20
0.088502
11
0.0984319
21
0.0780161
0
LINE
8
BLACK
6
CONTINUOUS
10
0.0984319
20
0.0780161
11
0.106515
21
0.0665579
0
LINE
8
BLACK
6
CONTINUOUS
10
0.106515
20
0.0665579
11
0.11327
21
0.05427
0
LINE
8
BLACK
6
CONTINUOUS
10
0.11327
20
0.05427
11
0.118614
21
0.0413057
0
LINE
8
BLACK
6
CONTINUOUS
10
0.118614
20
0.0413057
11
0.122479
21
0.0278265
0
LINE
8
BLACK
6
CONTINUOUS
10
0.122479
20
0.0278265
11
0.124817
21
0.0140005
0
LINE
8
BLACK
6
CONTINUOUS
10
0.124817
20
0.0140005
11
0.1256
21
0
0
LINE
8
BLACK
6
CONTINUOUS
10
0.1256
20
0
11
0.125551
21
-0.00350697
0
LINE
8
BLACK
6
CONTINUOUS
10
0.125551
20
-0.00350697
11
0.124378
21
-0.0174802
0
LINE
8
BLACK
6
CONTINUOUS
10
0.124378
20
-0.0174802
11
0.121654
21
-0.0312354
0
LINE
8
BLACK
6
CONTINUOUS
10
0.121654
20
-0.0312354
11
0.117414
21
-0.0446014
0
LINE
8
BLACK
6
CONTINUOUS
10
0.117414
20
-0.0446014
11
0.111711
21
-0.0574115
0
LINE
8
BLACK
6
CONTINUOUS
10
0.111711
20
-0.0574115
11
0.104615
21
-0.069506
0
LINE
8
BLACK
6
CONTINUOUS
10
0.104615
20
-0.069506
11
0.0962152
21
-0.0807341
0
LINE
8
BLACK
6
CONTINUOUS
10
0.0962152
20
-0.0807341
11
0.0866162
21
-0.090956
0
LINE
8
BLACK
6
CONTINUOUS
10
0.0866162
20
-0.090956
11
0.0759376
21
-0.100044
0
LINE
8
BLACK
6
CONTINUOUS
10
0.0759376
20
-0.100044
11
0.0643126
21
-0.107885
0
LINE
8
BLACK
6
CONTINUOUS
10
0.0643126
20
-0.107885
11
0.0518859
21
-0.114382
0
LINE
8
BLACK
6
CONTINUOUS
10
0.0518859
20
-0.114382
11
0.0388125
21
-0.119453
0
LINE
8
BLACK
6
CONTINUOUS
10
0.0388125
20
-0.119453
11
0.0252554
21
-0.123035
0
LINE
8
BLACK
6
CONTINUOUS
10
0.0252554
20
-0.123035
11
0.0113835
21
-0.125083
0
LINE
8
BLACK
6
CONTINUOUS
10
0.0113835
20
-0.125083
11
-0.00263035
21
-0.125572
0
LINE
8
BLACK
6
CONTINUOUS
10
-0.00263035
20
-0.125572
11
-0.0166114
21
-0.124497
0
LINE
8
BLACK
6
CONTINUOUS
10
-0.0166114
20
-0.124497
11
-0.0303854
21
-0.121869
0
LINE
8
BLACK
6
CONTINUOUS
10
-0.0303854
20
-0.121869
11
-0.0437806
21
-0.117723
0
LINE
8
BLACK
6
CONTINUOUS
10
-0.0437806
20
-0.117723
11
-0.0566302
21
-0.112109
0
LINE
8
BLACK
6
CONTINUOUS
10
-0.0566302
20
-0.112109
11
-0.0687739
21
-0.105098
0
LINE
8
BLACK
6
CONTINUOUS
10
-0.0687739
20
-0.105098
11
-0.0800605
21
-0.0967765
0
LINE
8
BLACK
6
CONTINUOUS
10
-0.0800605
20
-0.0967765
11
-0.0903491
21
-0.0872491
0
LINE
8
BLACK
6
CONTINUOUS
10
-0.0903491
20
-0.0872491
11
-0.0995116
21
-0.0766343
0
LINE
8
BLACK
6
CONTINUOUS
10
-0.0995116
20
-0.0766343
11
-0.107434
21
-0.0650642
0
LINE
8
BLACK
6
CONTINUOUS
10
-0.107434
20
-0.0650642
11
-0.114017
21
-0.0526832
0
LINE
8
BLACK
6
CONTINUOUS
10
-0.114017
20
-0.0526832
11
-0.119179
21
-0.0396455
0
LINE
8
BLACK
6
CONTINUOUS
10
-0.119179
20
-0.0396455
11
-0.122855
21
-0.0261137
0
LINE
8
BLACK
6
CONTINUOUS
10
-0.122855
20
-0.0261137
11
-0.125001
21
-0.0122564
0
LINE
8
BLACK
6
CONTINUOUS
10
-0.125001
20
-0.0122564
11
-0.125588
21
0.00175366
0
LINE
8
BLACK
6
CONTINUOUS
10
-0.125588
20
0.00175366
11
-0.125467
21
0.00347992
0
LINE
8
BLACK
6
CONTINUOUS
10
-0.125467
20
0.00347992
11
-0.12461
21
0.0157419
0
LINE
8
BLACK
6
CONTINUOUS
10
-0.12461
20
0.0157419
11
-0.122078
21
0.0295339
0
LINE
8
BLACK
6
CONTINUOUS
10
-0.108602
20
-0.021898
11
-0.105365
21
-0.0342352
0
LINE
8
BLACK
6
CONTINUOUS
10
-0.105365
20
-0.0342352
11
-0.100732
21
-0.0461187
0
LINE
8
BLACK
6
CONTINUOUS
10
-0.100732
20
-0.0461187
11
-0.0947636
21
-0.0573909
0
LINE
8
BLACK
6
CONTINUOUS
10
-0.0947636
20
-0.0573909
11
-0.0875393
21
-0.0679024
0
LINE
8
BLACK
6
CONTINUOUS
10
-0.0875393
20
-0.0679024
11
-0.0791546
21
-0.0775139
0
LINE
8
BLACK
6
CONTINUOUS
10
-0.0791546
20
-0.0775139
11
-0.0697208
21
-0.086098
0
LINE
8
BLACK
6
CONTINUOUS
10
-0.0697208
20
-0.086098
11
-0.0593629
21
-0.0935409
0
LINE
8
BLACK
6
CONTINUOUS
10
-0.0593629
20
-0.0935409
11
-0.0482181
21
-0.099744
0
LINE
8
BLACK
6
CONTINUOUS
10
-0.0482181
20
-0.099744
11
-0.0364343
21
-0.104625
0
LINE
8
BLACK
6
CONTINUOUS
10
-0.0364343
20
-0.104625
11
-0.0241675
21
-0.108119
0
LINE
8
BLACK
6
CONTINUOUS
10
-0.0241675
20
-0.108119
11
-0.0115804
21
-0.110181
0
LINE
8
BLACK
6
CONTINUOUS
10
-0.0115804
20
-0.110181
11
0.00116016
21
-0.110781
0
LINE
8
BLACK
6
CONTINUOUS
10
0.00116016
20
-0.110781
11
0.0138854
21
-0.109914
0
LINE
8
BLACK
6
CONTINUOUS
10
0.0138854
20
-0.109914
11
0.0264265
21
-0.107589
0
LINE
8
BLACK
6
CONTINUOUS
10
0.0264265
20
-0.107589
11
0.0386174
21
-0.103839
0
LINE
8
BLACK
6
CONTINUOUS
10
0.0386174
20
-0.103839
11
0.0502965
21
-0.0987123
0
LINE
8
BLACK
6
CONTINUOUS
10
0.0502965
20
-0.0987123
11
0.0613088
21
-0.0922772
0
LINE
8
BLACK
6
CONTINUOUS
10
0.0613088
20
-0.0922772
11
0.0715086
21
-0.084619
0
LINE
8
BLACK
6
CONTINUOUS
10
0.0715086
20
-0.084619
11
0.0807606
21
-0.0758392
0
LINE
8
BLACK
6
CONTINUOUS
10
0.0807606
20
-0.0758392
11
0.0889421
21
-0.0660542
0
LINE
8
BLACK
6
CONTINUOUS
10
0.0889421
20
-0.0660542
11
0.0959447
21
-0.0553937
0
LINE
8
BLACK
6
CONTINUOUS
10
0.0959447
20
-0.0553937
11
0.101676
21
-0.043999
0
LINE
8
BLACK
6
CONTINUOUS
10
0.101676
20
-0.043999
11
0.106059
21
-0.0320211
0
LINE
8
BLACK
6
CONTINUOUS
10
0.106059
20
-0.0320211
11
0.109036
21
-0.0196188
0
LINE
8
BLACK
6
CONTINUOUS
10
0.109036
20
-0.0196188
11
0.110569
21
-0.00695642
0
LINE
8
BLACK
6
CONTINUOUS
10
0.110569
20
-0.00695642
11
0.110787
21
0
0
LINE
8
BLACK
6
CONTINUOUS
10
0.110787
20
0
11
0.110053
21
0.0127336
0
LINE
8
BLACK
6
CONTINUOUS
10
0.110053
20
0.0127336
11
0.10786
21
0.0252984
0
LINE
8
BLACK
6
CONTINUOUS
10
0.10786
20
0.0252984
11
0.104238
21
0.0375279
0
LINE
8
BLACK
6
CONTINUOUS
10
0.104238
20
0.0375279
11
0.0992336
21
0.04926
0
LINE
8
BLACK
6
CONTINUOUS
10
0.0992336
20
0.04926
11
0.0929142
21
0.0603392
0
LINE
8
BLACK
6
CONTINUOUS
10
0.0929142
20
0.0603392
11
0.0853632
21
0.0706186
0
LINE
8
BLACK
6
CONTINUOUS
10
0.0853632
20
0.0706186
11
0.0766808
21
0.079962
0
LINE
8
BLACK
6
CONTINUOUS
10
0.0766808
20
0.079962
11
0.066982
21
0.0882455
0
LINE
8
BLACK
6
CONTINUOUS
10
0.066982
20
0.0882455
11
0.0563954
21
0.0953594
0
LINE
8
BLACK
6
CONTINUOUS
10
0.0563954
20
0.0953594
11
0.0450613
21
0.101209
0
LINE
8
BLACK
6
CONTINUOUS
10
0.0450613
20
0.101209
11
0.03313
21
0.105718
0
LINE
8
BLACK
6
CONTINUOUS
10
0.03313
20
0.105718
11
0.0207595
21
0.108825
0
LINE
8
BLACK
6
CONTINUOUS
10
0.0207595
20
0.108825
11
0.00811386
21
0.11049
0
LINE
8
BLACK
6
CONTINUOUS
10
0.00811386
20
0.11049
11
-0.00463929
21
0.11069
0
LINE
8
BLACK
6
CONTINUOUS
10
-0.00463929
20
0.11069
11
-0.017331
21
0.109423
0
LINE
8
BLACK
6
CONTINUOUS
10
-0.017331
20
0.109423
11
-0.029793
21
0.106706
0
LINE
8
BLACK
6
CONTINUOUS
10
-0.029793
20
0.106706
11
-0.04186
21
0.102575
0
LINE
8
BLACK
6
CONTINUOUS
10
-0.04186
20
0.102575
11
-0.0533722
21
0.0970838
0
LINE
8
BLACK
6
CONTINUOUS
10
-0.0533722
20
0.0970838
11
-0.0641771
21
0.0903059
0
LINE
8
BLACK
6
CONTINUOUS
10
-0.0641771
20
0.0903059
11
-0.0741313
21
0.0823311
0
LINE
8
BLACK
6
CONTINUOUS
10
-0.0741313
20
0.0823311
11
-0.0831029
21
0.073265
0
LINE
8
BLACK
6
CONTINUOUS
10
-0.0831029
20
0.073265
11
-0.090973
21
0.0632279
0
LINE
8
BLACK
6
CONTINUOUS
10
-0.090973
20
0.0632279
11
-0.0976374
21
0.0523527
0
LINE
8
BLACK
6
CONTINUOUS
10
-0.0976374
20
0.0523527
11
-0.103008
21
0.0407836
0
LINE
8
BLACK
6
CONTINUOUS
10
-0.103008
20
0.0407836
11
-0.107012
21
0.0286739
0
LINE
8
BLACK
6
CONTINUOUS
10
-0.107012
20
0.0286739
11
-0.109599
21
0.0161842
0
LINE
8
BLACK
6
CONTINUOUS
10
-0.109599
20
0.0161842
11
-0.110733
21
0.00347992
0
LINE
8
BLACK
6
CONTINUOUS
10
-0.110733
20
0.00347992
11
-0.110399
21
-0.00927047
0
LINE
8
BLACK
6
CONTINUOUS
10
-0.110399
20
-0.00927047
11
-0.108602
21
-0.021898
0
LINE
8
BLACK
6
CONTINUOUS
10
1.87792
20
0.0295339
11
1.88197
21
0.0429577
0
LINE
8
BLACK
6
CONTINUOUS
10
1.88197
20
0.0429577
11
1.8875
21
0.0558462
0
LINE
8
BLACK
6
CONTINUOUS
10
1.8875
20
0.0558462
11
1.89442
21
0.0680385
0
LINE
8
BLACK
6
CONTINUOUS
10
1.89442
20
0.0680385
11
1.90267
21
0.0793829
0
LINE
8
BLACK
6
CONTINUOUS
10
1.90267
20
0.0793829
11
1.91212
21
0.0897378
0
LINE
8
BLACK
6
CONTINUOUS
10
1.91212
20
0.0897378
11
1.92267
21
0.0989741
0
LINE
8
BLACK
6
CONTINUOUS
10
1.92267
20
0.0989741
11
1.93419
21
0.106977
0
LINE
8
BLACK
6
CONTINUOUS
10
1.93419
20
0.106977
11
1.94652
21
0.113646
0
LINE
8
BLACK
6
CONTINUOUS
10
1.94652
20
0.113646
11
1.95952
21
0.118899
0
LINE
8
BLACK
6
CONTINUOUS
10
1.95952
20
0.118899
11
1.97303
21
0.12267
0
LINE
8
BLACK
6
CONTINUOUS
10
1.97303
20
0.12267
11
1.98687
21
0.124912
0
LINE
8
BLACK
6
CONTINUOUS
10
1.98687
20
0.124912
11
2.00088
21
0.125597
0
LINE
8
BLACK
6
CONTINUOUS
10
2.00088
20
0.125597
11
2.01487
21
0.124716
0
LINE
8
BLACK
6
CONTINUOUS
10
2.01487
20
0.124716
11
2.02868
21
0.122281
0
LINE
8
BLACK
6
CONTINUOUS
10
2.02868
20
0.122281
11
2.04213
21
0.118322
0
LINE
8
BLACK
6
CONTINUOUS
10
2.04213
20
0.118322
11
2.05506
21
0.112889
0
LINE
8
BLACK
6
CONTINUOUS
10
2.05506
20
0.112889
11
2.0673
21
0.106048
0
LINE
8
BLACK
6
CONTINUOUS
10
2.0673
20
0.106048
11
2.0787
21
0.0978848
0
LINE
8
BLACK
6
CONTINUOUS
10
2.0787
20
0.0978848
11
2.08912
21
0.088502
0
LINE
8
BLACK
6
CONTINUOUS
10
2.08912
20
0.088502
11
2.09843
21
0.0780161
0
LINE
8
BLACK
6
CONTINUOUS
10
2.09843
20
0.0780161
11
2.10651
21
0.0665579
0
LINE
8
BLACK
6
CONTINUOUS
10
2.10651
20
0.0665579
11
2.11327
21
0.05427
0
LINE
8
BLACK
6
CONTINUOUS
10
2.11327
20
0.05427
11
2.11861
21
0.0413057
0
LINE
8
BLACK
6
CONTINUOUS
10
2.11861
20
0.0413057
11
2.12248
21
0.0278265
0
LINE
8
BLACK
6
CONTINUOUS
10
2.12248
20
0.0278265
11
2.12482
21
0.0140005
0
LINE
8
BLACK
6
CONTINUOUS
10
2.12482
20
0.0140005
11
2.1256
21
0
0
LINE
8
BLACK
6
CONTINUOUS
10
2.1256
20
0
11
2.12555
21
-0.00350697
0
LINE
8
BLACK
6
CONTINUOUS
10
2.12555
20
-0.00350697
11
2.12438
21
-0.0174802
0
LINE
8
BLACK
6
CONTINUOUS
10
2.12438
20
-0.0174802
11
2.12165
21
-0.0312354
0
LINE
8
BLACK
6
CONTINUOUS
10
2.12165
20
-0.0312354
11
2.11741
21
-0.0446014
0
LINE
8
BLACK
6
CONTINUOUS
10
2.11741
20
-0.0446014
11
2.11171
21
-0.0574115
0
LINE
8
BLACK
6
CONTINUOUS
10
2.11171
20
-0.0574115
11
2.10461
21
-0.069506
0
LINE
8
BLACK
6
CONTINUOUS
10
2.10461
20
-0.069506
11
2.09622
21
-0.0807341
0
LINE
8
BLACK
6
CONTINUOUS
10
2.09622
20
-0.0807341
11
2.08662
21
-0.090956
0
LINE
8
BLACK
6
CONTINUOUS
10
2.08662
20
-0.090956
11
2.07594
21
-0.100044
0
LINE
8
BLACK
6
CONTINUOUS
10
2.07594
20
-0.100044
11
2.06431
21
-0.107885
0
LINE
8
BLACK
6
CONTINUOUS
10
2.06431
20
-0.107885
11
2.05189
21
-0.114382
0
LINE
8
BLACK
6
CONTINUOUS
10
2.05189
20
-0.114382
11
2.03881
21
-0.119453
0
LINE
8
BLACK
6
CONTINUOUS
10
2.03881
20
-0.119453
11
2.02526
21
-0.123035
0
LINE
8
BLACK
6
CONTINUOUS
10
2.02526
20
-0.123035
11
2.01138
21
-0.125083
0
LINE
8
BLACK
6
CONTINUOUS
10
2.01138
20
-0.125083
11
1.99737
21
-0.125572
0
LINE
8
BLACK
6
CONTINUOUS
10
1.99737
20
-0.125572
11
1.98339
21
-0.124497
0
LINE
8
BLACK
6
CONTINUOUS
10
1.98339
20
-0.124497
11
1.96961
21
-0.121869
0
LINE
8
BLACK
6
CONTINUOUS
10
1.96961
20
-0.121869
11
1.95622
21
-0.117723
0
LINE
8
BLACK
6
CONTINUOUS
10
1.95622
20
-0.117723
11
1.94337
21
-0.112109
0
LINE
8
BLACK
6
CONTINUOUS
10
1.94337
20
-0.112109
11
1.93123
21
-0.105098
0
LINE
8
BLACK
6
CONTINUOUS
10
1.93123
20
-0.105098
11
1.91994
21
-0.0967765
0
LINE
8
BLACK
6
CONTINUOUS
10
1.91994
20
-0.0967765
11
1.90965
21
-0.0872491
0
LINE
8
BLACK
6
CONTINUOUS
10
1.90965
20
-0.0872491
11
1.90049
21
-0.0766343
0
LINE
8
BLACK
6
CONTINUOUS
10
1.90049
20
-0.0766343
11
1.89257
21
-0.0650642
0
LINE
8
BLACK
6
CONTINUOUS
10
1.89257
20
-0.0650642
11
1.88598
21
-0.0526832
0
LINE
8
BLACK
6
CONTINUOUS
10
1.88598
20
-0.0526832
11
1.88082
21
-0.0396455
0
LINE
8
BLACK
6
CONTINUOUS
10
1.88082
20
-0.0396455
11
1.87714
21
-0.0261137
0
LINE
8
BLACK
6
CONTINUOUS
10
1.87714
20
-0.0261137
11
1.875
21
-0.0122564
0
LINE
8
BLACK
6
CONTINUOUS
10
1.875
20
-0.0122564
11
1.87441
21
0.00175366
0
LINE
8
BLACK
6
CONTINUOUS
10
1.87441
20
0.00175366
11
1.87453
21
0.00347992
0
LINE
8
BLACK
6
CONTINUOUS
10
1.87453
20
0.00347992
11
1.87539
21
0.0157419
0
LINE
8
BLACK
6
CONTINUOUS
10
1.87539
20
0.0157419
11
1.87792
21
0.0295339
0
LINE
8
BLACK
6
CONTINUOUS
10
1.8914
20
-0.021898
11
1.89463
21
-0.0342352
0
LINE
8
BLACK
6
CONTINUOUS
10
1.89463
20
-0.0342352
11
1.89927
21
-0.0461187
0
LINE
8
BLACK
6
CONTINUOUS
10
1.89927
20
-0.0461187
11
1.90524
21
-0.0573909
0
LINE
8
BLACK
6
CONTINUOUS
10
1.90524
20
-0.0573909
11
1.91246
21
-0.0679024
0
LINE
8
BLACK
6
CONTINUOUS
10
1.91246
20
-0.0679024
11
1.92085
21
-0.0775139
0
LINE
8
BLACK
6
CONTINUOUS
10
1.92085
20
-0.0775139
11
1.93028
21
-0.086098
0
LINE
8
BLACK
6
CONTINUOUS
10
1.93028
20
-0.086098
11
1.94064
21
-0.0935409
0
LINE
8
BLACK
6
CONTINUOUS
10
1.94064
20
-0.0935409
11
1.95178
21
-0.099744
0
LINE
8
BLACK
6
CONTINUOUS
10
1.95178
20
-0.099744
11
1.96357
21
-0.104625
0
LINE
8
BLACK
6
CONTINUOUS
10
1.96357
20
-0.104625
11
1.97583
21
-0.108119
0
LINE
8
BLACK
6
CONTINUOUS
10
1.97583
20
-0.108119
11
1.98842
21
-0.110181
0
LINE
8
BLACK
6
CONTINUOUS
10
1.98842
20
-0.110181
11
2.00116
21
-0.110781
0
LINE
8
BLACK
6
CONTINUOUS
10
2.00116
20
-0.110781
11
2.01389
21
-0.109914
0
LINE
8
BLACK
6
CONTINUOUS
10
2.01389
20
-0.109914
11
2.02643
21
-0.107589
0
LINE
8
BLACK
6
CONTINUOUS
10
2.02643
20
-0.107589
11
2.03862
21
-0.103839
0
LINE
8
BLACK
6
CONTINUOUS
10
2.03862
20
-0.103839
11
2.0503
21
-0.0987123
0
LINE
8
BLACK
6
CONTINUOUS
10
2.0503
20
-0.0987123
11
2.06131
21
-0.0922772
0
LINE
8
BLACK
6
CONTINUOUS
10
2.06131
20
-0.0922772
11
2.07151
21
-0.084619
0
LINE
8
BLACK
6
CONTINUOUS
10
2.07151
20
-0.084619
11
2.08076
21
-0.0758392
0
LINE
8
BLACK
6
CONTINUOUS
10
2.08076
20
-0.0758392
11
2.08894
21
-0.0660542
0
LINE
8
BLACK
6
CONTINUOUS
10
2.08894
20
-0.0660542
11
2.09594
21
-0.0553937
0
LINE
8
BLACK
6
CONTINUOUS
10
2.09594
20
-0.0553937
11
2.10168
21
-0.043999
0
LINE
8
BLACK
6
CONTINUOUS
10
2.10168
20
-0.043999
11
2.10606
21
-0.0320211
0
LINE
8
BLACK
6
CONTINUOUS
10
2.10606
20
-0.0320211
11
2.10904
21
-0.0196188
0
LINE
8
BLACK
6
CONTINUOUS
10
2.10904
20
-0.0196188
11
2.11057
21
-0.00695642
0
LINE
8
BLACK
6
CONTINUOUS
10
2.11057
20
-0.00695642
11
2.11079
21
0
0
LINE
8
BLACK
6
CONTINUOUS
10
2.11079
20
0
11
2.11005
21
0.0127336
0
LINE
8
BLACK
6
CONTINUOUS
10
2.11005
20
0.0127336
11
2.10786
21
0.0252984
0
LINE
8
BLACK
6
CONTINUOUS
10
2.10786
20
0.0252984
11
2.10424
21
0.0375279
0
LINE
8
BLACK
6
CONTINUOUS
10
2.10424
20
0.0375279
11
2.09923
21
0.04926
0
LINE
8
BLACK
6
CONTINUOUS
10
2.09923
20
0.04926
11
2.09291
21
0.0603392
0
LINE
8
BLACK
6
CONTINUOUS
10
2.09291
20
0.0603392
11
2.08536
21
0.0706186
0
LINE
8
BLACK
6
CONTINUOUS
10
2.08536
20
0.0706186
11
2.07668
21
0.079962
0
LINE
8
BLACK
6
CONTINUOUS
10
2.07668
20
0.079962
11
2.06698
21
0.0882455
0
LINE
8
BLACK
6
CONTINUOUS
10
2.06698
20
0.0882455
11
2.0564
21
0.0953594
0
LINE
8
BLACK
6
CONTINUOUS
10
2.0564
20
0.0953594
11
2.04506
21
0.101209
0
LINE
8
BLACK
6
CONTINUOUS
10
2.04506
20
0.101209
11
2.03313
21
0.105718
0
LINE
8
BLACK
6
CONTINUOUS
10
2.03313
20
0.105718
11
2.02076
21
0.108825
0
LINE
8
BLACK
6
CONTINUOUS
10
2.02076
20
0.108825
11
2.00811
21
0.11049
0
LINE
8
BLACK
6
CONTINUOUS
10
2.00811
20
0.11049
11
1.99536
21
0.11069
0
LINE
8
BLACK
6
CONTINUOUS
10
1.99536
20
0.11069
11
1.98267
21
0.109423
0
LINE
8
BLACK
6
CONTINUOUS
10
1.98267
20
0.109423
11
1.97021
21
0.106706
0
LINE
8
BLACK
6
CONTINUOUS
10
1.97021
20
0.106706
11
1.95814
21
0.102575
0
LINE
8
BLACK
6
CONTINUOUS
10
1.95814
20
0.102575
11
1.94663
21
0.0970838
0
LINE
8
BLACK
6
CONTINUOUS
10
1.94663
20
0.0970838
11
1.93582
21
0.0903059
0
LINE
8
BLACK
6
CONTINUOUS
10
1.93582
20
0.0903059
11
1.92587
21
0.0823311
0
LINE
8
BLACK
6
CONTINUOUS
10
1.92587
20
0.0823311
11
1.9169
21
0.073265
0
LINE
8
BLACK
6
CONTINUOUS
10
1.9169
20
0.073265
11
1.90903
21
0.0632279
0
LINE
8
BLACK
6
CONTINUOUS
10
1.90903
20
0.0632279
11
1.90236
21
0.0523527
0
LINE
8
BLACK
6
CONTINUOUS
10
1.90236
20
0.0523527
11
1.89699
21
0.0407836
0
LINE
8
BLACK
6
CONTINUOUS
10
1.89699
20
0.0407836
11
1.89299
21
0.0286739
0
LINE
8
BLACK
6
CONTINUOUS
10
1.89299
20
0.0286739
11
1.8904
21
0.0161842
0
LINE
8
BLACK
6
CONTINUOUS
10
1.8904
20
0.0161842
11
1.88927
21
0.00347992
0
LINE
8
BLACK
6
CONTINUOUS
10
1.88927
20
0.00347992
11
1.8896
21
-0.00927047
0
LINE
8
BLACK
6
CONTINUOUS
10
1.8896
20
-0.00927047
11
1.8914
21
-0.021898
0
LINE
8
BLACK
6
CONTINUOUS
10
1.87792
20
1.22953
11
1.88197
21
1.24296
0
LINE
8
BLACK
6
CONTINUOUS
10
1.88197
20
1.24296
11
1.8875
21
1.25585
0
LINE
8
BLACK
6
CONTINUOUS
10
1.8875
20
1.25585
11
1.89442
21
1.26804
0
LINE
8
BLACK
6
CONTINUOUS
10
1.89442
20
1.26804
11
1.90267
21
1.27938
0
LINE
8
BLACK
6
CONTINUOUS
10
1.90267
20
1.27938
11
1.91212
21
1.28974
0
LINE
8
BLACK
6
CONTINUOUS
10
1.91212
20
1.28974
11
1.92267
21
1.29897
0
LINE
8
BLACK
6
CONTINUOUS
10
1.92267
20
1.29897
11
1.93419
21
1.30698
0
LINE
8
BLACK
6
CONTINUOUS
10
1.93419
20
1.30698
11
1.94652
21
1.31365
0
LINE
8
BLACK
6
CONTINUOUS
10
1.94652
20
1.31365
11
1.95952
21
1.3189
0
LINE
8
BLACK
6
CONTINUOUS
10
1.95952
20
1.3189
11
1.97303
21
1.32267
0
LINE
8
BLACK
6
CONTINUOUS
10
1.97303
20
1.32267
11
1.98687
21
1.32491
0
LINE
8
BLACK
6
CONTINUOUS
10
1.98687
20
1.32491
11
2.00088
21
1.3256
0
LINE
8
BLACK
6
CONTINUOUS
10
2.00088
20
1.3256
11
2.01487
21
1.32472
0
LINE
8
BLACK
6
CONTINUOUS
10
2.01487
20
1.32472
11
2.02868
21
1.32228
0
LINE
8
BLACK
6
CONTINUOUS
10
2.02868
20
1.32228
11
2.04213
21
1.31832
0
LINE
8
BLACK
6
CONTINUOUS
10
2.04213
20
1.31832
11
2.05506
21
1.31289
0
LINE
8
BLACK
6
CONTINUOUS
10
2.05506
20
1.31289
11
2.0673
21
1.30605
0
LINE
8
BLACK
6
CONTINUOUS
10
2.0673
20
1.30605
11
2.0787
21
1.29788
0
LINE
8
BLACK
6
CONTINUOUS
10
2.0787
20
1.29788
11
2.08912
21
1.2885
0
LINE
8
BLACK
6
CONTINUOUS
10
2.08912
20
1.2885
11
2.09843
21
1.27802
0
LINE
8
BLACK
6
CONTINUOUS
10
2.09843
20
1.27802
11
2.10651
21
1.26656
0
LINE
8
BLACK
6
CONTINUOUS
10
2.10651
20
1.26656
11
2.11327
21
1.25427
0
LINE
8
BLACK
6
CONTINUOUS
10
2.11327
20
1.25427
11
2.11861
21
1.24131
0
LINE
8
BLACK
6
CONTINUOUS
10
2.11861
20
1.24131
11
2.12248
21
1.22783
0
LINE
8
BLACK
6
CONTINUOUS
10
2.12248
20
1.22783
11
2.12482
21
1.214
0
LINE
8
BLACK
6
CONTINUOUS
10
2.12482
20
1.214
11
2.1256
21
1.2
0
LINE
8
BLACK
6
CONTINUOUS
10
2.1256
20
1.2
11
2.12555
21
1.19649
0
LINE
8
BLACK
6
CONTINUOUS
10
2.12555
20
1.19649
11
2.12438
21
1.18252
0
LINE
8
BLACK
6
CONTINUOUS
10
2.12438
20
1.18252
11
2.12165
21
1.16876
0
LINE
8
BLACK
6
CONTINUOUS
10
2.12165
20
1.16876
11
2.11741
21
1.1554
0
LINE
8
BLACK
6
CONTINUOUS
10
2.11741
20
1.1554
11
2.11171
21
1.14259
0
LINE
8
BLACK
6
CONTINUOUS
10
2.11171
20
1.14259
11
2.10461
21
1.13049
0
LINE
8
BLACK
6
CONTINUOUS
10
2.10461
20
1.13049
11
2.09622
21
1.11927
0
LINE
8
BLACK
6
CONTINUOUS
10
2.09622
20
1.11927
11
2.08662
21
1.10904
0
LINE
8
BLACK
6
CONTINUOUS
10
2.08662
20
1.10904
11
2.07594
21
1.09996
0
LINE
8
BLACK
6
CONTINUOUS
10
2.07594
20
1.09996
11
2.06431
21
1.09211
0
LINE
8
BLACK
6
CONTINUOUS
10
2.06431
20
1.09211
11
2.05189
21
1.08562
0
LINE
8
BLACK
6
CONTINUOUS
10
2.05189
20
1.08562
11
2.03881
21
1.08055
0
LINE
8
BLACK
6
CONTINUOUS
10
2.03881
20
1.08055
11
2.02526
21
1.07697
0
LINE
8
BLACK
6
CONTINUOUS
10
2.02526
20
1.07697
11
2.01138
21
1.07492
0
LINE
8
BLACK
6
CONTINUOUS
10
2.01138
20
1.07492
11
1.99737
21
1.07443
0
LINE
8
BLACK
6
CONTINUOUS
10
1.99737
20
1.07443
11
1.98339
21
1.0755
0
LINE
8
BLACK
6
CONTINUOUS
10
1.98339
20
1.0755
11
1.96961
21
1.07813
0
LINE
8
BLACK
6
CONTINUOUS
10
1.96961
20
1.07813
11
1.95622
21
1.08228
0
LINE
8
BLACK
6
CONTINUOUS
10
1.95622
20
1.08228
11
1.94337
21
1.08789
0
LINE
8
BLACK
6
CONTINUOUS
10
1.94337
20
1.08789
11
1.93123
21
1.0949
0
LINE
8
BLACK
6
CONTINUOUS
10
1.93123
20
1.0949
11
1.91994
21
1.10322
0
LINE
8
BLACK
6
CONTINUOUS
10
1.91994
20
1.10322
11
1.90965
21
1.11275
0
LINE
8
BLACK
6
CONTINUOUS
10
1.90965
20
1.11275
11
1.90049
21
1.12337
0
LINE
8
BLACK
6
CONTINUOUS
10
1.90049
20
1.12337
11
1.89257
21
1.13494
0
LINE
8
BLACK
6
CONTINUOUS
10
1.89257
20
1.13494
11
1.88598
21
1.14732
0
LINE
8
BLACK
6
CONTINUOUS
10
1.88598
20
1.14732
11
1.88082
21
1.16035
0
LINE
8
BLACK
6
CONTINUOUS
10
1.88082
20
1.16035
11
1.87714
21
1.17389
0
LINE
8
BLACK
6
CONTINUOUS
10
1.87714
20
1.17389
11
1.875
21
1.18774
0
LINE
8
BLACK
6
CONTINUOUS
10
1.875
20
1.18774
11
1.87441
21
1.20175
0
LINE
8
BLACK
6
CONTINUOUS
10
1.87441
20
1.20175
11
1.87453
21
1.20348
0
LINE
8
BLACK
6
CONTINUOUS
10
1.87453
20
1.20348
11
1.87539
21
1.21574
0
LINE
8
BLACK
6
CONTINUOUS
10
1.87539
20
1.21574
11
1.87792
21
1.22953
0
LINE
8
BLACK
6
CONTINUOUS
10
1.8914
20
1.1781
11
1.89463
21
1.16576
0
LINE
8
BLACK
6
CONTINUOUS
10
1.89463
20
1.16576
11
1.89927
21
1.15388
0
LINE
8
BLACK
6
CONTINUOUS
10
1.89927
20
1.15388
11
1.90524
21
1.14261
0
LINE
8
BLACK
6
CONTINUOUS
10
1.90524
20
1.14261
11
1.91246
21
1.1321
0
LINE
8
BLACK
6
CONTINUOUS
10
1.91246
20
1.1321
11
1.92085
21
1.12249
0
LINE
8
BLACK
6
CONTINUOUS
10
1.92085
20
1.12249
11
1.93028
21
1.1139
0
LINE
8
BLACK
6
CONTINUOUS
10
1.93028
20
1.1139
11
1.94064
21
1.10646
0
LINE
8
BLACK
6
CONTINUOUS
10
1.94064
20
1.10646
11
1.95178
21
1.10026
0
LINE
8
BLACK
6
CONTINUOUS
10
1.95178
20
1.10026
11
1.96357
21
1.09537
0
LINE
8
BLACK
6
CONTINUOUS
10
1.96357
20
1.09537
11
1.97583
21
1.09188
0
LINE
8
BLACK
6
CONTINUOUS
10
1.97583
20
1.09188
11
1.98842
21
1.08982
0
LINE
8
BLACK
6
CONTINUOUS
10
1.98842
20
1.08982
11
2.00116
21
1.08922
0
LINE
8
BLACK
6
CONTINUOUS
10
2.00116
20
1.08922
11
2.01389
21
1.09009
0
LINE
8
BLACK
6
CONTINUOUS
10
2.01389
20
1.09009
11
2.02643
21
1.09241
0
LINE
8
BLACK
6
CONTINUOUS
10
2.02643
20
1.09241
11
2.03862
21
1.09616
0
LINE
8
BLACK
6
CONTINUOUS
10
2.03862
20
1.09616
11
2.0503
21
1.10129
0
LINE
8
BLACK
6
CONTINUOUS
10
2.0503
20
1.10129
11
2.06131
21
1.10772
0
LINE
8
BLACK
6
CONTINUOUS
10
2.06131
20
1.10772
11
2.07151
21
1.11538
0
LINE
8
BLACK
6
CONTINUOUS
10
2.07151
20
1.11538
11
2.08076
21
1.12416
0
LINE
8
BLACK
6
CONTINUOUS
10
2.08076
20
1.12416
11
2.08894
21
1.13395
0
LINE
8
BLACK
6
CONTINUOUS
10
2.08894
20
1.13395
11
2.09594
21
1.14461
0
LINE
8
BLACK
6
CONTINUOUS
10
2.09594
20
1.14461
11
2.10168
21
1.156
0
LINE
8
BLACK
6
CONTINUOUS
10
2.10168
20
1.156
11
2.10606
21
1.16798
0
LINE
8
BLACK
6
CONTINUOUS
10
2.10606
20
1.16798
11
2.10904
21
1.18038
0
LINE
8
BLACK
6
CONTINUOUS
10
2.10904
20
1.18038
11
2.11057
21
1.19304
0
LINE
8
BLACK
6
CONTINUOUS
10
2.11057
20
1.19304
11
2.11079
21
1.2
0
LINE
8
BLACK
6
CONTINUOUS
10
2.11079
20
1.2
11
2.11005
21
1.21273
0
LINE
8
BLACK
6
CONTINUOUS
10
2.11005
20
1.21273
11
2.10786
21
1.2253
0
LINE
8
BLACK
6
CONTINUOUS
10
2.10786
20
1.2253
11
2.10424
21
1.23753
0
LINE
8
BLACK
6
CONTINUOUS
10
2.10424
20
1.23753
11
2.09923
21
1.24926
0
LINE
8
BLACK
6
CONTINUOUS
10
2.09923
20
1.24926
11
2.09291
21
1.26034
0
LINE
8
BLACK
6
CONTINUOUS
10
2.09291
20
1.26034
11
2.08536
21
1.27062
0
LINE
8
BLACK
6
CONTINUOUS
10
2.08536
20
1.27062
11
2.07668
21
1.27996
0
LINE
8
BLACK
6
CONTINUOUS
10
2.07668
20
1.27996
11
2.06698
21
1.28825
0
LINE
8
BLACK
6
CONTINUOUS
10
2.06698
20
1.28825
11
2.0564
21
1.29536
0
LINE
8
BLACK
6
CONTINUOUS
10
2.0564
20
1.29536
11
2.04506
21
1.30121
0
LINE
8
BLACK
6
CONTINUOUS
10
2.04506
20
1.30121
11
2.03313
21
1.30572
0
LINE
8
BLACK
6
CONTINUOUS
10
2.03313
20
1.30572
11
2.02076
21
1.30883
0
LINE
8
BLACK
6
CONTINUOUS
10
2.02076
20
1.30883
11
2.00811
21
1.31049
0
LINE
8
BLACK
6
CONTINUOUS
10
2.00811
20
1.31049
11
1.99536
21
1.31069
0
LINE
8
BLACK
6
CONTINUOUS
10
1.99536
20
1.31069
11
1.98267
21
1.30942
0
LINE
8
BLACK
6
CONTINUOUS
10
1.98267
20
1.30942
11
1.97021
21
1.30671
0
LINE
8
BLACK
6
CONTINUOUS
10
1.97021
20
1.30671
11
1.95814
21
1.30257
0
LINE
8
BLACK
6
CONTINUOUS
10
1.95814
20
1.30257
11
1.94663
21
1.29708
0
LINE
8
BLACK
6
CONTINUOUS
10
1.94663
20
1.29708
11
1.93582
21
1.29031
0
LINE
8
BLACK
6
CONTINUOUS
10
1.93582
20
1.29031
11
1.92587
21
1.28233
0
LINE
8
BLACK
6
CONTINUOUS
10
1.92587
20
1.28233
11
1.9169
21
1.27327
0
LINE
8
BLACK
6
CONTINUOUS
10
1.9169
20
1.27327
11
1.90903
21
1.26323
0
LINE
8
BLACK
6
CONTINUOUS
10
1.90903
20
1.26323
11
1.90236
21
1.25235
0
LINE
8
BLACK
6
CONTINUOUS
10
1.90236
20
1.25235
11
1.89699
21
1.24078
0
LINE
8
BLACK
6
CONTINUOUS
10
1.89699
20
1.24078
11
1.89299
21
1.22867
0
LINE
8
BLACK
6
CONTINUOUS
10
1.89299
20
1.22867
11
1.8904
21
1.21618
0
LINE
8
BLACK
6
CONTINUOUS
10
1.8904
20
1.21618
11
1.88927
21
1.20348
0
LINE
8
BLACK
6
CONTINUOUS
10
1.88927
20
1.20348
11
1.8896
21
1.19073
0
LINE
8
BLACK
6
CONTINUOUS
10
1.8896
20
1.19073
11
1.8914
21
1.1781
0
LINE
8
BLACK
6
CONTINUOUS
10
-0.122078
20
1.22953
11
-0.118025
21
1.24296
0
LINE
8
BLACK
6
CONTINUOUS
10
-0.118025
20
1.24296
11
-0.112501
21
1.25585
0
LINE
8
BLACK
6
CONTINUOUS
10
-0.112501
20
1.25585
11
-0.105575
21
1.26804
0
LINE
8
BLACK
6
CONTINUOUS
10
-0.105575
20
1.26804
11
-0.097333
21
1.27938
0
LINE
8
BLACK
6
CONTINUOUS
10
-0.097333
20
1.27938
11
-0.0878777
21
1.28974
0
LINE
8
BLACK
6
CONTINUOUS
10
-0.0878777
20
1.28974
11
-0.0773271
21
1.29897
0
LINE
8
BLACK
6
CONTINUOUS
10
-0.0773271
20
1.29897
11
-0.0658126
21
1.30698
0
LINE
8
BLACK
6
CONTINUOUS
10
-0.0658126
20
1.30698
11
-0.0534779
21
1.31365
0
LINE
8
BLACK
6
CONTINUOUS
10
-0.0534779
20
1.31365
11
-0.0404766
21
1.3189
0
LINE
8
BLACK
6
CONTINUOUS
10
-0.0404766
20
1.3189
11
-0.0269707
21
1.32267
0
LINE
8
BLACK
6
CONTINUOUS
10
-0.0269707
20
1.32267
11
-0.0131288
21
1.32491
0
LINE
8
BLACK
6
CONTINUOUS
10
-0.0131288
20
1.32491
11
0.00087685
21
1.3256
0
LINE
8
BLACK
6
CONTINUOUS
10
0.00087685
20
1.3256
11
0.0148715
21
1.32472
0
LINE
8
BLACK
6
CONTINUOUS
10
0.0148715
20
1.32472
11
0.0286809
21
1.32228
0
LINE
8
BLACK
6
CONTINUOUS
10
0.0286809
20
1.32228
11
0.0421327
21
1.31832
0
LINE
8
BLACK
6
CONTINUOUS
10
0.0421327
20
1.31832
11
0.0550594
21
1.31289
0
LINE
8
BLACK
6
CONTINUOUS
10
0.0550594
20
1.31289
11
0.0672998
21
1.30605
0
LINE
8
BLACK
6
CONTINUOUS
10
0.0672998
20
1.30605
11
0.0787015
21
1.29788
0
LINE
8
BLACK
6
CONTINUOUS
10
0.0787015
20
1.29788
11
0.0891221
21
1.2885
0
LINE
8
BLACK
6
CONTINUOUS
10
0.0891221
20
1.2885
11
0.0984319
21
1.27802
0
LINE
8
BLACK
6
CONTINUOUS
10
0.0984319
20
1.27802
11
0.106515
21
1.26656
0
LINE
8
BLACK
6
CONTINUOUS
10
0.106515
20
1.26656
11
0.11327
21
1.25427
0
LINE
8
BLACK
6
CONTINUOUS
10
0.11327
20
1.25427
11
0.118614
21
1.24131
0
LINE
8
BLACK
6
CONTINUOUS
10
0.118614
20
1.24131
11
0.122479
21
1.22783
0
LINE
8
BLACK
6
CONTINUOUS
10
0.122479
20
1.22783
11
0.124817
21
1.214
0
LINE
8
BLACK
6
CONTINUOUS
10
0.124817
20
1.214
11
0.1256
21
1.2
0
LINE
8
BLACK
6
CONTINUOUS
10
0.1256
20
1.2
11
0.125551
21
1.19649
0
LINE
8
BLACK
6
CONTINUOUS
10
0.125551
20
1.19649
11
0.124378
21
1.18252
0
LINE
8
BLACK
6
CONTINUOUS
10
0.124378
20
1.18252
11
0.121654
21
1.16876
0
LINE
8
BLACK
6
CONTINUOUS
10
0.121654
20
1.16876
11
0.117414
21
1.1554
0
LINE
8
BLACK
6
CONTINUOUS
10
0.117414
20
1.1554
11
0.111711
21
1.14259
0
LINE
8
BLACK
6
CONTINUOUS
10
0.111711
20
1.14259
11
0.104615
21
1.13049
0
LINE
8
BLACK
6
CONTINUOUS
10
0.104615
20
1.13049
11
0.0962152
21
1.11927
0
LINE
8
BLACK
6
CONTINUOUS
10
0.0962152
20
1.11927
11
0.0866162
21
1.10904
0
LINE
8
BLACK
6
CONTINUOUS
10
0.0866162
20
1.10904
11
0.0759376
21
1.09996
0
LINE
8
BLACK
6
CONTINUOUS
10
0.0759376
20
1.09996
11
0.0643126
21
1.09211
0
LINE
8
BLACK
6
CONTINUOUS
10
0.0643126
20
1.09211
11
0.0518859
21
1.08562
0
LINE
8
BLACK
6
CONTINUOUS
10
0.0518859
20
1.08562
11
0.0388125
21
1.08055
0
LINE
8
BLACK
6
CONTINUOUS
10
0.0388125
20
1.08055
11
0.0252554
21
1.07697
0
LINE
8
BLACK
6
CONTINUOUS
10
0.0252554
20
1.07697
11
0.0113835
21
1.07492
0
LINE
8
BLACK
6
CONTINUOUS
10
0.0113835
20
1.07492
11
-0.00263035
21
1.07443
0
LINE
8
BLACK
6
CONTINUOUS
10
-0.00263035
20
1.07443
11
-0.0166114
21
1.0755
0
LINE
8
BLACK
6
CONTINUOUS
10
-0.0166114
20
1.0755
11
-0.0303854
21
1.07813
0
LINE
8
BLACK
6
CONTINUOUS
10
-0.0303854
20
1.07813
11
-0.0437806
21
1.08228
0
LINE
8
BLACK
6
CONTINUOUS
10
-0.0437806
20
1.08228
11
-0.0566302
21
1.08789
0
LINE
8
BLACK
6
CONTINUOUS
10
-0.0566302
20
1.08789
11
-0.0687739
21
1.0949
0
LINE
8
BLACK
6
CONTINUOUS
10
-0.0687739
20
1.0949
11
-0.0800605
21
1.10322
0
LINE
8
BLACK
6
CONTINUOUS
10
-0.0800605
20
1.10322
11
-0.0903491
21
1.11275
0
LINE
8
BLACK
6
CONTINUOUS
10
-0.0903491
20
1.11275
11
-0.0995116
21
1.12337
0
LINE
8
BLACK
6
CONTINUOUS
10
-0.0995116
20
1.12337
11
-0.107434
21
1.13494
0
LINE
8
BLACK
6
CONTINUOUS
10
-0.107434
20
1.13494
11
-0.114017
21
1.14732
0
LINE
8
BLACK
6
CONTINUOUS
10
-0.114017
20
1.14732
11
-0.119179
21
1.16035
0
LINE
8
BLACK
6
CONTINUOUS
10
-0.119179
20
1.16035
11
-0.122855
21
1.17389
0
LINE
8
BLACK
6
CONTINUOUS
10
-0.122855
20
1.17389
11
-0.125001
21
1.18774
0
LINE
8
BLACK
6
CONTINUOUS
10
-0.125001
20
1.18774
11
-0.125588
21
1.20175
0
LINE
8
BLACK
6
CONTINUOUS
10
-0.125588
20
1.20175
11
-0.125467
21
1.20348
0
LINE
8
BLACK
6
CONTINUOUS
10
-0.125467
20
1.20348
11
-0.12461
21
1.21574
0
LINE
8
BLACK
6
CONTINUOUS
10
-0.12461
20
1.21574
11
-0.122078
21
1.22953
0
LINE
8
BLACK
6
CONTINUOUS
10
-0.108602
20
1.1781
11
-0.105365
21
1.16576
0
LINE
8
BLACK
6
CONTINUOUS
10
-0.105365
20
1.16576
11
-0.100732
21
1.15388
0
LINE
8
BLACK
6
CONTINUOUS
10
-0.100732
20
1.15388
11
-0.0947636
21
1.14261
0
LINE
8
BLACK
6
CONTINUOUS
10
-0.0947636
20
1.14261
11
-0.0875393
21
1.1321
0
LINE
8
BLACK
6
CONTINUOUS
10
-0.0875393
20
1.1321
11
-0.0791546
21
1.12249
0
LINE
8
BLACK
6
CONTINUOUS
10
-0.0791546
20
1.12249
11
-0.0697208
21
1.1139
0
LINE
8
BLACK
6
CONTINUOUS
10
-0.0697208
20
1.1139
11
-0.0593629
21
1.10646
0
LINE
8
BLACK
6
CONTINUOUS
10
-0.0593629
20
1.10646
11
-0.0482181
21
1.10026
0
LINE
8
BLACK
6
CONTINUOUS
10
-0.0482181
20
1.10026
11
-0.0364343
21
1.09537
0
LINE
8
BLACK
6
CONTINUOUS
10
-0.0364343
20
1.09537
11
-0.0241675
21
1.09188
0
LINE
8
BLACK
6
CONTINUOUS
10
-0.0241675
20
1.09188
11
-0.0115804
21
1.08982
0
LINE
8
BLACK
6
CONTINUOUS
10
-0.0115804
20
1.08982
11
0.00116016
21
1.08922
0
LINE
8
BLACK
6
CONTINUOUS
10
0.00116016
20
1.08922
11
0.0138854
21
1.09009
0
LINE
8
BLACK
6
CONTINUOUS
10
0.0138854
20
1.09009
11
0.0264265
21
1.09241
0
LINE
8
BLACK
6
CONTINUOUS
10
0.0264265
20
1.09241
11
0.0386174
21
1.09616
0
LINE
8
BLACK
6
CONTINUOUS
10
0.0386174
20
1.09616
11
0.0502965
21
1.10129
0
LINE
8
BLACK
6
CONTINUOUS
10
0.0502965
20
1.10129
11
0.0613088
21
1.10772
0
LINE
8
BLACK
6
CONTINUOUS
10
0.0613088
20
1.10772
11
0.0715086
21
1.11538
0
LINE
8
BLACK
6
CONTINUOUS
10
0.0715086
20
1.11538
11
0.0807606
21
1.12416
0
LINE
8
BLACK
6
CONTINUOUS
10
0.0807606
20
1.12416
11
0.0889421
21
1.13395
0
LINE
8
BLACK
6
CONTINUOUS
10
0.0889421
20
1.13395
11
0.0959447
21
1.14461
0
LINE
8
BLACK
6
CONTINUOUS
10
0.0959447
20
1.14461
11
0.101676
21
1.156
0
LINE
8
BLACK
6
CONTINUOUS
10
0.101676
20
1.156
11
0.106059
21
1.16798
0
LINE
8
BLACK
6
CONTINUOUS
10
0.106059
20
1.16798
11
0.109036
21
1.18038
0
LINE
8
BLACK
6
CONTINUOUS
10
0.109036
20
1.18038
11
0.110569
21
1.19304
0
LINE
8
BLACK
6
CONTINUOUS
10
0.110569
20
1.19304
11
0.110787
21
1.2
0
LINE
8
BLACK
6
CONTINUOUS
10
0.110787
20
1.2
11
0.110053
21
1.21273
0
LINE
8
BLACK
6
CONTINUOUS
10
0.110053
20
1.21273
11
0.10786
21
1.2253
0
LINE
8
BLACK
6
CONTINUOUS
10
0.10786
20
1.2253
11
0.104238
21
1.23753
0
LINE
8
BLACK
6
CONTINUOUS
10
0.104238
20
1.23753
11
0.0992336
21
1.24926
0
LINE
8
BLACK
6
CONTINUOUS
10
0.0992336
20
1.24926
11
0.0929142
21
1.26034
0
LINE
8
BLACK
6
CONTINUOUS
10
0.0929142
20
1.26034
11
0.0853632
21
1.27062
0
LINE
8
BLACK
6
CONTINUOUS
10
0.0853632
20
1.27062
11
0.0766808
21
1.27996
0
LINE
8
BLACK
6
CONTINUOUS
10
0.0766808
20
1.27996
11
0.066982
21
1.28825
0
LINE
8
BLACK
6
CONTINUOUS
10
0.066982
20
1.28825
11
0.0563954
21
1.29536
0
LINE
8
BLACK
6
CONTINUOUS
10
0.0563954
20
1.29536
11
0.0450613
21
1.30121
0
LINE
8
BLACK
6
CONTINUOUS
10
0.0450613
20
1.30121
11
0.03313
21
1.30572
0
LINE
8
BLACK
6
CONTINUOUS
10
0.03313
20
1.30572
11
0.0207595
21
1.30883
0
LINE
8
BLACK
6
CONTINUOUS
10
0.0207595
20
1.30883
11
0.00811386
21
1.31049
0
LINE
8
BLACK
6
CONTINUOUS
10
0.00811386
20
1.31049
11
-0.00463929
21
1.31069
0
LINE
8
BLACK
6
CONTINUOUS
10
-0.00463929
20
1.31069
11
-0.017331
21
1.30942
0
LINE
8
BLACK
6
CONTINUOUS
10
-0.017331
20
1.30942
11
-0.029793
21
1.30671
0
LINE
8
BLACK
6
CONTINUOUS
10
-0.029793
20
1.30671
11
-0.04186
21
1.30257
0
LINE
8
BLACK
6
CONTINUOUS
10
-0.04186
20
1.30257
11
-0.0533722
21
1.29708
0
LINE
8
BLACK
6
CONTINUOUS
10
-0.0533722
20
1.29708
11
-0.0641771
21
1.29031
0
LINE
8
BLACK
6
CONTINUOUS
10
-0.0641771
20
1.29031
11
-0.0741313
21
1.28233
0
LINE
8
BLACK
6
CONTINUOUS
10
-0.0741313
20
1.28233
11
-0.0831029
21
1.27327
0
LINE
8
BLACK
6
CONTINUOUS
10
-0.0831029
20
1.27327
11
-0.090973
21
1.26323
0
LINE
8
BLACK
6
CONTINUOUS
10
-0.090973
20
1.26323
11
-0.0976374
21
1.25235
0
LINE
8
BLACK
6
CONTINUOUS
10
-0.0976374
20
1.25235
11
-0.103008
21
1.24078
0
LINE
8
BLACK
6
CONTINUOUS
10
-0.103008
20
1.24078
11
-0.107012
21
1.22867
0
LINE
8
BLACK
6
CONTINUOUS
10
-0.107012
20
1.22867
11
-0.109599
21
1.21618
0
LINE
8
BLACK
6
CONTINUOUS
10
-0.109599
20
1.21618
11
-0.110733
21
1.20348
0
LINE
8
BLACK
6
CONTINUOUS
10
-0.110733
20
1.20348
11
-0.110399
21
1.19073
0
LINE
8
BLACK
6
CONTINUOUS
10
-0.110399
20
1.19073
11
-0.108602
21
1.1781
  0
ENDSEC
  0
EOF
