  0
SECTION
  2
HEADER
  9
$ANGBASE
  50
0.0
  9
$ANGDIR
  70
1
  9
$MEASUREMENT
  70
0
  0
ENDSEC
  0
SECTION
  2
TABLES
  0
TABLE
  2
LTYPE
  70
4
  0
LTYPE
  5
40F
  2
CONTINUOUS
  70
0
  3
Solid line
  72
65
  73
0
  40
0.0
  0
LTYPE
  5
410
  2
DASHDOT
 70
0
  3
Dash Dot ____ _ ____ _
 72
65
 73
4
 40
2.0
 49
1.25
 49
-0.25
 49
0.25
 49
-0.25
  0
LTYPE
  5
411
  2
DASHED
 70
0
  3
Dashed __ __ __ __ __
 72
65
 73
2
 40
0.75
 49
0.5
 49
-0.25
  0
LTYPE
  5
43B
  2
DOTTED
 70
0
  3
Dotted .  .  .  .
 72
65
 73
2
 40
0.2
 49
0.0
 49
-0.2
  0
ENDTAB
  0
TABLE
  2
STYLE
  70
4
  0
STYLE
  2
KICAD
  70
0
  40
0
  41
1
  42
1
  50
0
  71
0
  3
isocp.shx
  0
STYLE
  2
KICADB
  70
0
  40
0
  41
1
  42
1
  50
0
  71
0
  3
isocp.shx
  0
STYLE
  2
KICADI
  70
0
  40
0
  41
1
  42
1
  50
15
  71
0
  3
isocp.shx
  0
STYLE
  2
KICADBI
  70
0
  40
0
  41
1
  42
1
  50
15
  71
0
  3
isocp.shx
  0
ENDTAB
  0
TABLE
  2
LAYER
  70
1
  0
LAYER
  2
BLACK
  70
0
  62
7
  6
CONTINUOUS
  0
ENDTAB
  0
ENDSEC
  0
SECTION
  2
ENTITIES
0
LINE
8
BLACK
6
CONTINUOUS
10
0.0086502
20
0.117793
11
0.0221317
21
0.116018
0
LINE
8
BLACK
6
CONTINUOUS
10
0.0221317
20
0.116018
11
0.0353198
21
0.112706
0
LINE
8
BLACK
6
CONTINUOUS
10
0.0353198
20
0.112706
11
0.0480398
21
0.107899
0
LINE
8
BLACK
6
CONTINUOUS
10
0.0480398
20
0.107899
11
0.060123
21
0.101662
0
LINE
8
BLACK
6
CONTINUOUS
10
0.060123
20
0.101662
11
0.0714093
21
0.0940783
0
LINE
8
BLACK
6
CONTINUOUS
10
0.0714093
20
0.0940783
11
0.0817492
21
0.0852473
0
LINE
8
BLACK
6
CONTINUOUS
10
0.0817492
20
0.0852473
11
0.0910055
21
0.0752863
0
LINE
8
BLACK
6
CONTINUOUS
10
0.0910055
20
0.0752863
11
0.0990556
21
0.0643274
0
LINE
8
BLACK
6
CONTINUOUS
10
0.0990556
20
0.0643274
11
0.105793
21
0.052516
0
LINE
8
BLACK
6
CONTINUOUS
10
0.105793
20
0.052516
11
0.111128
21
0.0400084
0
LINE
8
BLACK
6
CONTINUOUS
10
0.111128
20
0.0400084
11
0.11499
21
0.0269706
0
LINE
8
BLACK
6
CONTINUOUS
10
0.11499
20
0.0269706
11
0.117327
21
0.0135752
0
LINE
8
BLACK
6
CONTINUOUS
10
0.117327
20
0.0135752
11
0.11811
21
0
0
LINE
8
BLACK
6
CONTINUOUS
10
0.11811
20
0
11
0.117877
21
-0.00741622
0
LINE
8
BLACK
6
CONTINUOUS
10
0.117877
20
-0.00741622
11
0.116244
21
-0.0209155
0
LINE
8
BLACK
6
CONTINUOUS
10
0.116244
20
-0.0209155
11
0.113069
21
-0.0341376
0
LINE
8
BLACK
6
CONTINUOUS
10
0.113069
20
-0.0341376
11
0.108396
21
-0.0469072
0
LINE
8
BLACK
6
CONTINUOUS
10
0.108396
20
-0.0469072
11
0.102286
21
-0.0590551
0
LINE
8
BLACK
6
CONTINUOUS
10
0.102286
20
-0.0590551
11
0.0948209
21
-0.0704203
0
LINE
8
BLACK
6
CONTINUOUS
10
0.0948209
20
-0.0704203
11
0.0860987
21
-0.080852
0
LINE
8
BLACK
6
CONTINUOUS
10
0.0860987
20
-0.080852
11
0.0762352
21
-0.0902121
0
LINE
8
BLACK
6
CONTINUOUS
10
0.0762352
20
-0.0902121
11
0.0653612
21
-0.0983765
0
LINE
8
BLACK
6
CONTINUOUS
10
0.0653612
20
-0.0983765
11
0.0536209
21
-0.105237
0
LINE
8
BLACK
6
CONTINUOUS
10
0.0536209
20
-0.105237
11
0.0411699
21
-0.110703
0
LINE
8
BLACK
6
CONTINUOUS
10
0.0411699
20
-0.110703
11
0.0281732
21
-0.114701
0
LINE
8
BLACK
6
CONTINUOUS
10
0.0281732
20
-0.114701
11
0.0148031
21
-0.117179
0
LINE
8
BLACK
6
CONTINUOUS
10
0.0148031
20
-0.117179
11
0.00123681
21
-0.118104
0
LINE
8
BLACK
6
CONTINUOUS
10
0.00123681
20
-0.118104
11
-0.0123459
21
-0.117463
0
LINE
8
BLACK
6
CONTINUOUS
10
-0.0123459
20
-0.117463
11
-0.025765
21
-0.115266
0
LINE
8
BLACK
6
CONTINUOUS
10
-0.025765
20
-0.115266
11
-0.0388425
21
-0.111541
0
LINE
8
BLACK
6
CONTINUOUS
10
-0.0388425
20
-0.111541
11
-0.0514052
21
-0.106337
0
LINE
8
BLACK
6
CONTINUOUS
10
-0.0514052
20
-0.106337
11
-0.0632866
21
-0.0997238
0
LINE
8
BLACK
6
CONTINUOUS
10
-0.0632866
20
-0.0997238
11
-0.0743292
21
-0.0917889
0
LINE
8
BLACK
6
CONTINUOUS
10
-0.0743292
20
-0.0917889
11
-0.0843865
21
-0.0826374
0
LINE
8
BLACK
6
CONTINUOUS
10
-0.0843865
20
-0.0826374
11
-0.0933254
21
-0.0723906
0
LINE
8
BLACK
6
CONTINUOUS
10
-0.0933254
20
-0.0723906
11
-0.101027
21
-0.0611843
0
LINE
8
BLACK
6
CONTINUOUS
10
-0.101027
20
-0.0611843
11
-0.10739
21
-0.049167
0
LINE
8
BLACK
6
CONTINUOUS
10
-0.10739
20
-0.049167
11
-0.11233
21
-0.0364981
0
LINE
8
BLACK
6
CONTINUOUS
10
-0.11233
20
-0.0364981
11
-0.11578
21
-0.0233454
0
LINE
8
BLACK
6
CONTINUOUS
10
-0.11578
20
-0.0233454
11
-0.117696
21
-0.00988323
0
LINE
8
BLACK
6
CONTINUOUS
10
-0.117696
20
-0.00988323
11
-0.118052
21
0.00370992
0
LINE
8
BLACK
6
CONTINUOUS
10
-0.118052
20
0.00370992
11
-0.116843
21
0.0172539
0
LINE
8
BLACK
6
CONTINUOUS
10
-0.116843
20
0.0172539
11
-0.114086
21
0.0305692
0
LINE
8
BLACK
6
CONTINUOUS
10
-0.114086
20
0.0305692
11
-0.109816
21
0.0434793
0
LINE
8
BLACK
6
CONTINUOUS
10
-0.109816
20
0.0434793
11
-0.104091
21
0.0558131
0
LINE
8
BLACK
6
CONTINUOUS
10
-0.104091
20
0.0558131
11
-0.0969861
21
0.0674071
0
LINE
8
BLACK
6
CONTINUOUS
10
-0.0969861
20
0.0674071
11
-0.0885958
21
0.0781077
0
LINE
8
BLACK
6
CONTINUOUS
10
-0.0885958
20
0.0781077
11
-0.0790312
21
0.087773
0
LINE
8
BLACK
6
CONTINUOUS
10
-0.0790312
20
0.087773
11
-0.0684191
21
0.0962749
0
LINE
8
BLACK
6
CONTINUOUS
10
-0.0684191
20
0.0962749
11
-0.0569
21
0.103501
0
LINE
8
BLACK
6
CONTINUOUS
10
-0.0569
20
0.103501
11
-0.0446269
21
0.109355
0
LINE
8
BLACK
6
CONTINUOUS
10
-0.0446269
20
0.109355
11
-0.0317622
21
0.113759
0
LINE
8
BLACK
6
CONTINUOUS
10
-0.0317622
20
0.113759
11
-0.0184765
21
0.116656
0
LINE
8
BLACK
6
CONTINUOUS
10
-0.0184765
20
0.116656
11
-0.00494594
21
0.118007
0
LINE
8
BLACK
6
CONTINUOUS
10
-0.00494594
20
0.118007
11
0.0086502
21
0.117793
0
LINE
8
BLACK
6
CONTINUOUS
10
2.00865
20
0.117793
11
2.02213
21
0.116018
0
LINE
8
BLACK
6
CONTINUOUS
10
2.02213
20
0.116018
11
2.03532
21
0.112706
0
LINE
8
BLACK
6
CONTINUOUS
10
2.03532
20
0.112706
11
2.04804
21
0.107899
0
LINE
8
BLACK
6
CONTINUOUS
10
2.04804
20
0.107899
11
2.06012
21
0.101662
0
LINE
8
BLACK
6
CONTINUOUS
10
2.06012
20
0.101662
11
2.07141
21
0.0940783
0
LINE
8
BLACK
6
CONTINUOUS
10
2.07141
20
0.0940783
11
2.08175
21
0.0852473
0
LINE
8
BLACK
6
CONTINUOUS
10
2.08175
20
0.0852473
11
2.09101
21
0.0752863
0
LINE
8
BLACK
6
CONTINUOUS
10
2.09101
20
0.0752863
11
2.09906
21
0.0643274
0
LINE
8
BLACK
6
CONTINUOUS
10
2.09906
20
0.0643274
11
2.10579
21
0.052516
0
LINE
8
BLACK
6
CONTINUOUS
10
2.10579
20
0.052516
11
2.11113
21
0.0400084
0
LINE
8
BLACK
6
CONTINUOUS
10
2.11113
20
0.0400084
11
2.11499
21
0.0269706
0
LINE
8
BLACK
6
CONTINUOUS
10
2.11499
20
0.0269706
11
2.11733
21
0.0135752
0
LINE
8
BLACK
6
CONTINUOUS
10
2.11733
20
0.0135752
11
2.11811
21
0
0
LINE
8
BLACK
6
CONTINUOUS
10
2.11811
20
0
11
2.11788
21
-0.00741622
0
LINE
8
BLACK
6
CONTINUOUS
10
2.11788
20
-0.00741622
11
2.11624
21
-0.0209155
0
LINE
8
BLACK
6
CONTINUOUS
10
2.11624
20
-0.0209155
11
2.11307
21
-0.0341376
0
LINE
8
BLACK
6
CONTINUOUS
10
2.11307
20
-0.0341376
11
2.1084
21
-0.0469072
0
LINE
8
BLACK
6
CONTINUOUS
10
2.1084
20
-0.0469072
11
2.10229
21
-0.0590551
0
LINE
8
BLACK
6
CONTINUOUS
10
2.10229
20
-0.0590551
11
2.09482
21
-0.0704203
0
LINE
8
BLACK
6
CONTINUOUS
10
2.09482
20
-0.0704203
11
2.0861
21
-0.080852
0
LINE
8
BLACK
6
CONTINUOUS
10
2.0861
20
-0.080852
11
2.07624
21
-0.0902121
0
LINE
8
BLACK
6
CONTINUOUS
10
2.07624
20
-0.0902121
11
2.06536
21
-0.0983765
0
LINE
8
BLACK
6
CONTINUOUS
10
2.06536
20
-0.0983765
11
2.05362
21
-0.105237
0
LINE
8
BLACK
6
CONTINUOUS
10
2.05362
20
-0.105237
11
2.04117
21
-0.110703
0
LINE
8
BLACK
6
CONTINUOUS
10
2.04117
20
-0.110703
11
2.02817
21
-0.114701
0
LINE
8
BLACK
6
CONTINUOUS
10
2.02817
20
-0.114701
11
2.0148
21
-0.117179
0
LINE
8
BLACK
6
CONTINUOUS
10
2.0148
20
-0.117179
11
2.00124
21
-0.118104
0
LINE
8
BLACK
6
CONTINUOUS
10
2.00124
20
-0.118104
11
1.98765
21
-0.117463
0
LINE
8
BLACK
6
CONTINUOUS
10
1.98765
20
-0.117463
11
1.97424
21
-0.115266
0
LINE
8
BLACK
6
CONTINUOUS
10
1.97424
20
-0.115266
11
1.96116
21
-0.111541
0
LINE
8
BLACK
6
CONTINUOUS
10
1.96116
20
-0.111541
11
1.94859
21
-0.106337
0
LINE
8
BLACK
6
CONTINUOUS
10
1.94859
20
-0.106337
11
1.93671
21
-0.0997238
0
LINE
8
BLACK
6
CONTINUOUS
10
1.93671
20
-0.0997238
11
1.92567
21
-0.0917889
0
LINE
8
BLACK
6
CONTINUOUS
10
1.92567
20
-0.0917889
11
1.91561
21
-0.0826374
0
LINE
8
BLACK
6
CONTINUOUS
10
1.91561
20
-0.0826374
11
1.90667
21
-0.0723906
0
LINE
8
BLACK
6
CONTINUOUS
10
1.90667
20
-0.0723906
11
1.89897
21
-0.0611843
0
LINE
8
BLACK
6
CONTINUOUS
10
1.89897
20
-0.0611843
11
1.89261
21
-0.049167
0
LINE
8
BLACK
6
CONTINUOUS
10
1.89261
20
-0.049167
11
1.88767
21
-0.0364981
0
LINE
8
BLACK
6
CONTINUOUS
10
1.88767
20
-0.0364981
11
1.88422
21
-0.0233454
0
LINE
8
BLACK
6
CONTINUOUS
10
1.88422
20
-0.0233454
11
1.8823
21
-0.00988323
0
LINE
8
BLACK
6
CONTINUOUS
10
1.8823
20
-0.00988323
11
1.88195
21
0.00370992
0
LINE
8
BLACK
6
CONTINUOUS
10
1.88195
20
0.00370992
11
1.88316
21
0.0172539
0
LINE
8
BLACK
6
CONTINUOUS
10
1.88316
20
0.0172539
11
1.88591
21
0.0305692
0
LINE
8
BLACK
6
CONTINUOUS
10
1.88591
20
0.0305692
11
1.89018
21
0.0434793
0
LINE
8
BLACK
6
CONTINUOUS
10
1.89018
20
0.0434793
11
1.89591
21
0.0558131
0
LINE
8
BLACK
6
CONTINUOUS
10
1.89591
20
0.0558131
11
1.90301
21
0.0674071
0
LINE
8
BLACK
6
CONTINUOUS
10
1.90301
20
0.0674071
11
1.9114
21
0.0781077
0
LINE
8
BLACK
6
CONTINUOUS
10
1.9114
20
0.0781077
11
1.92097
21
0.087773
0
LINE
8
BLACK
6
CONTINUOUS
10
1.92097
20
0.087773
11
1.93158
21
0.0962749
0
LINE
8
BLACK
6
CONTINUOUS
10
1.93158
20
0.0962749
11
1.9431
21
0.103501
0
LINE
8
BLACK
6
CONTINUOUS
10
1.9431
20
0.103501
11
1.95537
21
0.109355
0
LINE
8
BLACK
6
CONTINUOUS
10
1.95537
20
0.109355
11
1.96824
21
0.113759
0
LINE
8
BLACK
6
CONTINUOUS
10
1.96824
20
0.113759
11
1.98152
21
0.116656
0
LINE
8
BLACK
6
CONTINUOUS
10
1.98152
20
0.116656
11
1.99505
21
0.118007
0
LINE
8
BLACK
6
CONTINUOUS
10
1.99505
20
0.118007
11
2.00865
21
0.117793
0
LINE
8
BLACK
6
CONTINUOUS
10
0.0086502
20
1.31779
11
0.0221317
21
1.31602
0
LINE
8
BLACK
6
CONTINUOUS
10
0.0221317
20
1.31602
11
0.0353198
21
1.31271
0
LINE
8
BLACK
6
CONTINUOUS
10
0.0353198
20
1.31271
11
0.0480398
21
1.3079
0
LINE
8
BLACK
6
CONTINUOUS
10
0.0480398
20
1.3079
11
0.060123
21
1.30166
0
LINE
8
BLACK
6
CONTINUOUS
10
0.060123
20
1.30166
11
0.0714093
21
1.29408
0
LINE
8
BLACK
6
CONTINUOUS
10
0.0714093
20
1.29408
11
0.0817492
21
1.28525
0
LINE
8
BLACK
6
CONTINUOUS
10
0.0817492
20
1.28525
11
0.0910055
21
1.27529
0
LINE
8
BLACK
6
CONTINUOUS
10
0.0910055
20
1.27529
11
0.0990556
21
1.26433
0
LINE
8
BLACK
6
CONTINUOUS
10
0.0990556
20
1.26433
11
0.105793
21
1.25252
0
LINE
8
BLACK
6
CONTINUOUS
10
0.105793
20
1.25252
11
0.111128
21
1.24001
0
LINE
8
BLACK
6
CONTINUOUS
10
0.111128
20
1.24001
11
0.11499
21
1.22697
0
LINE
8
BLACK
6
CONTINUOUS
10
0.11499
20
1.22697
11
0.117327
21
1.21358
0
LINE
8
BLACK
6
CONTINUOUS
10
0.117327
20
1.21358
11
0.11811
21
1.2
0
LINE
8
BLACK
6
CONTINUOUS
10
0.11811
20
1.2
11
0.117877
21
1.19258
0
LINE
8
BLACK
6
CONTINUOUS
10
0.117877
20
1.19258
11
0.116244
21
1.17908
0
LINE
8
BLACK
6
CONTINUOUS
10
0.116244
20
1.17908
11
0.113069
21
1.16586
0
LINE
8
BLACK
6
CONTINUOUS
10
0.113069
20
1.16586
11
0.108396
21
1.15309
0
LINE
8
BLACK
6
CONTINUOUS
10
0.108396
20
1.15309
11
0.102286
21
1.14094
0
LINE
8
BLACK
6
CONTINUOUS
10
0.102286
20
1.14094
11
0.0948209
21
1.12958
0
LINE
8
BLACK
6
CONTINUOUS
10
0.0948209
20
1.12958
11
0.0860987
21
1.11915
0
LINE
8
BLACK
6
CONTINUOUS
10
0.0860987
20
1.11915
11
0.0762352
21
1.10979
0
LINE
8
BLACK
6
CONTINUOUS
10
0.0762352
20
1.10979
11
0.0653612
21
1.10162
0
LINE
8
BLACK
6
CONTINUOUS
10
0.0653612
20
1.10162
11
0.0536209
21
1.09476
0
LINE
8
BLACK
6
CONTINUOUS
10
0.0536209
20
1.09476
11
0.0411699
21
1.0893
0
LINE
8
BLACK
6
CONTINUOUS
10
0.0411699
20
1.0893
11
0.0281732
21
1.0853
0
LINE
8
BLACK
6
CONTINUOUS
10
0.0281732
20
1.0853
11
0.0148031
21
1.08282
0
LINE
8
BLACK
6
CONTINUOUS
10
0.0148031
20
1.08282
11
0.00123681
21
1.0819
0
LINE
8
BLACK
6
CONTINUOUS
10
0.00123681
20
1.0819
11
-0.0123459
21
1.08254
0
LINE
8
BLACK
6
CONTINUOUS
10
-0.0123459
20
1.08254
11
-0.025765
21
1.08473
0
LINE
8
BLACK
6
CONTINUOUS
10
-0.025765
20
1.08473
11
-0.0388425
21
1.08846
0
LINE
8
BLACK
6
CONTINUOUS
10
-0.0388425
20
1.08846
11
-0.0514052
21
1.09366
0
LINE
8
BLACK
6
CONTINUOUS
10
-0.0514052
20
1.09366
11
-0.0632866
21
1.10028
0
LINE
8
BLACK
6
CONTINUOUS
10
-0.0632866
20
1.10028
11
-0.0743292
21
1.10821
0
LINE
8
BLACK
6
CONTINUOUS
10
-0.0743292
20
1.10821
11
-0.0843865
21
1.11736
0
LINE
8
BLACK
6
CONTINUOUS
10
-0.0843865
20
1.11736
11
-0.0933254
21
1.12761
0
LINE
8
BLACK
6
CONTINUOUS
10
-0.0933254
20
1.12761
11
-0.101027
21
1.13882
0
LINE
8
BLACK
6
CONTINUOUS
10
-0.101027
20
1.13882
11
-0.10739
21
1.15083
0
LINE
8
BLACK
6
CONTINUOUS
10
-0.10739
20
1.15083
11
-0.11233
21
1.1635
0
LINE
8
BLACK
6
CONTINUOUS
10
-0.11233
20
1.1635
11
-0.11578
21
1.17665
0
LINE
8
BLACK
6
CONTINUOUS
10
-0.11578
20
1.17665
11
-0.117696
21
1.19012
0
LINE
8
BLACK
6
CONTINUOUS
10
-0.117696
20
1.19012
11
-0.118052
21
1.20371
0
LINE
8
BLACK
6
CONTINUOUS
10
-0.118052
20
1.20371
11
-0.116843
21
1.21725
0
LINE
8
BLACK
6
CONTINUOUS
10
-0.116843
20
1.21725
11
-0.114086
21
1.23057
0
LINE
8
BLACK
6
CONTINUOUS
10
-0.114086
20
1.23057
11
-0.109816
21
1.24348
0
LINE
8
BLACK
6
CONTINUOUS
10
-0.109816
20
1.24348
11
-0.104091
21
1.25581
0
LINE
8
BLACK
6
CONTINUOUS
10
-0.104091
20
1.25581
11
-0.0969861
21
1.26741
0
LINE
8
BLACK
6
CONTINUOUS
10
-0.0969861
20
1.26741
11
-0.0885958
21
1.27811
0
LINE
8
BLACK
6
CONTINUOUS
10
-0.0885958
20
1.27811
11
-0.0790312
21
1.28777
0
LINE
8
BLACK
6
CONTINUOUS
10
-0.0790312
20
1.28777
11
-0.0684191
21
1.29627
0
LINE
8
BLACK
6
CONTINUOUS
10
-0.0684191
20
1.29627
11
-0.0569
21
1.3035
0
LINE
8
BLACK
6
CONTINUOUS
10
-0.0569
20
1.3035
11
-0.0446269
21
1.30935
0
LINE
8
BLACK
6
CONTINUOUS
10
-0.0446269
20
1.30935
11
-0.0317622
21
1.31376
0
LINE
8
BLACK
6
CONTINUOUS
10
-0.0317622
20
1.31376
11
-0.0184765
21
1.31666
0
LINE
8
BLACK
6
CONTINUOUS
10
-0.0184765
20
1.31666
11
-0.00494594
21
1.31801
0
LINE
8
BLACK
6
CONTINUOUS
10
-0.00494594
20
1.31801
11
0.0086502
21
1.31779
0
LINE
8
BLACK
6
CONTINUOUS
10
2.00865
20
1.31779
11
2.02213
21
1.31602
0
LINE
8
BLACK
6
CONTINUOUS
10
2.02213
20
1.31602
11
2.03532
21
1.31271
0
LINE
8
BLACK
6
CONTINUOUS
10
2.03532
20
1.31271
11
2.04804
21
1.3079
0
LINE
8
BLACK
6
CONTINUOUS
10
2.04804
20
1.3079
11
2.06012
21
1.30166
0
LINE
8
BLACK
6
CONTINUOUS
10
2.06012
20
1.30166
11
2.07141
21
1.29408
0
LINE
8
BLACK
6
CONTINUOUS
10
2.07141
20
1.29408
11
2.08175
21
1.28525
0
LINE
8
BLACK
6
CONTINUOUS
10
2.08175
20
1.28525
11
2.09101
21
1.27529
0
LINE
8
BLACK
6
CONTINUOUS
10
2.09101
20
1.27529
11
2.09906
21
1.26433
0
LINE
8
BLACK
6
CONTINUOUS
10
2.09906
20
1.26433
11
2.10579
21
1.25252
0
LINE
8
BLACK
6
CONTINUOUS
10
2.10579
20
1.25252
11
2.11113
21
1.24001
0
LINE
8
BLACK
6
CONTINUOUS
10
2.11113
20
1.24001
11
2.11499
21
1.22697
0
LINE
8
BLACK
6
CONTINUOUS
10
2.11499
20
1.22697
11
2.11733
21
1.21358
0
LINE
8
BLACK
6
CONTINUOUS
10
2.11733
20
1.21358
11
2.11811
21
1.2
0
LINE
8
BLACK
6
CONTINUOUS
10
2.11811
20
1.2
11
2.11788
21
1.19258
0
LINE
8
BLACK
6
CONTINUOUS
10
2.11788
20
1.19258
11
2.11624
21
1.17908
0
LINE
8
BLACK
6
CONTINUOUS
10
2.11624
20
1.17908
11
2.11307
21
1.16586
0
LINE
8
BLACK
6
CONTINUOUS
10
2.11307
20
1.16586
11
2.1084
21
1.15309
0
LINE
8
BLACK
6
CONTINUOUS
10
2.1084
20
1.15309
11
2.10229
21
1.14094
0
LINE
8
BLACK
6
CONTINUOUS
10
2.10229
20
1.14094
11
2.09482
21
1.12958
0
LINE
8
BLACK
6
CONTINUOUS
10
2.09482
20
1.12958
11
2.0861
21
1.11915
0
LINE
8
BLACK
6
CONTINUOUS
10
2.0861
20
1.11915
11
2.07624
21
1.10979
0
LINE
8
BLACK
6
CONTINUOUS
10
2.07624
20
1.10979
11
2.06536
21
1.10162
0
LINE
8
BLACK
6
CONTINUOUS
10
2.06536
20
1.10162
11
2.05362
21
1.09476
0
LINE
8
BLACK
6
CONTINUOUS
10
2.05362
20
1.09476
11
2.04117
21
1.0893
0
LINE
8
BLACK
6
CONTINUOUS
10
2.04117
20
1.0893
11
2.02817
21
1.0853
0
LINE
8
BLACK
6
CONTINUOUS
10
2.02817
20
1.0853
11
2.0148
21
1.08282
0
LINE
8
BLACK
6
CONTINUOUS
10
2.0148
20
1.08282
11
2.00124
21
1.0819
0
LINE
8
BLACK
6
CONTINUOUS
10
2.00124
20
1.0819
11
1.98765
21
1.08254
0
LINE
8
BLACK
6
CONTINUOUS
10
1.98765
20
1.08254
11
1.97424
21
1.08473
0
LINE
8
BLACK
6
CONTINUOUS
10
1.97424
20
1.08473
11
1.96116
21
1.08846
0
LINE
8
BLACK
6
CONTINUOUS
10
1.96116
20
1.08846
11
1.94859
21
1.09366
0
LINE
8
BLACK
6
CONTINUOUS
10
1.94859
20
1.09366
11
1.93671
21
1.10028
0
LINE
8
BLACK
6
CONTINUOUS
10
1.93671
20
1.10028
11
1.92567
21
1.10821
0
LINE
8
BLACK
6
CONTINUOUS
10
1.92567
20
1.10821
11
1.91561
21
1.11736
0
LINE
8
BLACK
6
CONTINUOUS
10
1.91561
20
1.11736
11
1.90667
21
1.12761
0
LINE
8
BLACK
6
CONTINUOUS
10
1.90667
20
1.12761
11
1.89897
21
1.13882
0
LINE
8
BLACK
6
CONTINUOUS
10
1.89897
20
1.13882
11
1.89261
21
1.15083
0
LINE
8
BLACK
6
CONTINUOUS
10
1.89261
20
1.15083
11
1.88767
21
1.1635
0
LINE
8
BLACK
6
CONTINUOUS
10
1.88767
20
1.1635
11
1.88422
21
1.17665
0
LINE
8
BLACK
6
CONTINUOUS
10
1.88422
20
1.17665
11
1.8823
21
1.19012
0
LINE
8
BLACK
6
CONTINUOUS
10
1.8823
20
1.19012
11
1.88195
21
1.20371
0
LINE
8
BLACK
6
CONTINUOUS
10
1.88195
20
1.20371
11
1.88316
21
1.21725
0
LINE
8
BLACK
6
CONTINUOUS
10
1.88316
20
1.21725
11
1.88591
21
1.23057
0
LINE
8
BLACK
6
CONTINUOUS
10
1.88591
20
1.23057
11
1.89018
21
1.24348
0
LINE
8
BLACK
6
CONTINUOUS
10
1.89018
20
1.24348
11
1.89591
21
1.25581
0
LINE
8
BLACK
6
CONTINUOUS
10
1.89591
20
1.25581
11
1.90301
21
1.26741
0
LINE
8
BLACK
6
CONTINUOUS
10
1.90301
20
1.26741
11
1.9114
21
1.27811
0
LINE
8
BLACK
6
CONTINUOUS
10
1.9114
20
1.27811
11
1.92097
21
1.28777
0
LINE
8
BLACK
6
CONTINUOUS
10
1.92097
20
1.28777
11
1.93158
21
1.29627
0
LINE
8
BLACK
6
CONTINUOUS
10
1.93158
20
1.29627
11
1.9431
21
1.3035
0
LINE
8
BLACK
6
CONTINUOUS
10
1.9431
20
1.3035
11
1.95537
21
1.30935
0
LINE
8
BLACK
6
CONTINUOUS
10
1.95537
20
1.30935
11
1.96824
21
1.31376
0
LINE
8
BLACK
6
CONTINUOUS
10
1.96824
20
1.31376
11
1.98152
21
1.31666
0
LINE
8
BLACK
6
CONTINUOUS
10
1.98152
20
1.31666
11
1.99505
21
1.31801
0
LINE
8
BLACK
6
CONTINUOUS
10
1.99505
20
1.31801
11
2.00865
21
1.31779
0
LINE
8
BLACK
6
CONTINUOUS
10
1.18162
20
0.526866
11
1.18385
21
0.532983
0
LINE
8
BLACK
6
CONTINUOUS
10
1.18385
20
0.532983
11
1.18737
21
0.538455
0
LINE
8
BLACK
6
CONTINUOUS
10
1.18737
20
0.538455
11
1.19202
21
0.54301
0
LINE
8
BLACK
6
CONTINUOUS
10
1.19202
20
0.54301
11
1.19757
21
0.546421
0
LINE
8
BLACK
6
CONTINUOUS
10
1.19757
20
0.546421
11
1.20373
21
0.548519
0
LINE
8
BLACK
6
CONTINUOUS
10
1.20373
20
0.548519
11
1.2102
21
0.549199
0
LINE
8
BLACK
6
CONTINUOUS
10
1.2102
20
0.549199
11
1.21667
21
0.548429
0
LINE
8
BLACK
6
CONTINUOUS
10
1.21667
20
0.548429
11
1.2228
21
0.546245
0
LINE
8
BLACK
6
CONTINUOUS
10
1.2228
20
0.546245
11
1.2283
21
0.542757
0
LINE
8
BLACK
6
CONTINUOUS
10
1.2283
20
0.542757
11
1.23288
21
0.538138
0
LINE
8
BLACK
6
CONTINUOUS
10
1.23288
20
0.538138
11
1.23633
21
0.532617
0
LINE
8
BLACK
6
CONTINUOUS
10
1.23633
20
0.532617
11
1.23847
21
0.526469
0
LINE
8
BLACK
6
CONTINUOUS
10
1.23847
20
0.526469
11
1.2392
21
0.52
0
LINE
8
BLACK
6
CONTINUOUS
10
1.2392
20
0.52
11
1.23919
21
0.519185
0
LINE
8
BLACK
6
CONTINUOUS
10
1.23919
20
0.519185
11
1.23828
21
0.512738
0
LINE
8
BLACK
6
CONTINUOUS
10
1.23828
20
0.512738
11
1.23597
21
0.506653
0
LINE
8
BLACK
6
CONTINUOUS
10
1.23597
20
0.506653
11
1.23237
21
0.501231
0
LINE
8
BLACK
6
CONTINUOUS
10
1.23237
20
0.501231
11
1.22765
21
0.496741
0
LINE
8
BLACK
6
CONTINUOUS
10
1.22765
20
0.496741
11
1.22206
21
0.493408
0
LINE
8
BLACK
6
CONTINUOUS
10
1.22206
20
0.493408
11
1.21587
21
0.491396
0
LINE
8
BLACK
6
CONTINUOUS
10
1.21587
20
0.491396
11
1.20939
21
0.490806
0
LINE
8
BLACK
6
CONTINUOUS
10
1.20939
20
0.490806
11
1.20294
21
0.491667
0
LINE
8
BLACK
6
CONTINUOUS
10
1.20294
20
0.491667
11
1.19683
21
0.493936
0
LINE
8
BLACK
6
CONTINUOUS
10
1.19683
20
0.493936
11
1.19139
21
0.497501
0
LINE
8
BLACK
6
CONTINUOUS
10
1.19139
20
0.497501
11
1.18687
21
0.502184
0
LINE
8
BLACK
6
CONTINUOUS
10
1.18687
20
0.502184
11
1.18349
21
0.507752
0
LINE
8
BLACK
6
CONTINUOUS
10
1.18349
20
0.507752
11
1.18144
21
0.513929
0
LINE
8
BLACK
6
CONTINUOUS
10
1.18144
20
0.513929
11
1.18084
21
0.52
0
LINE
8
BLACK
6
CONTINUOUS
10
1.18084
20
0.52
11
1.1808
21
0.520408
0
LINE
8
BLACK
6
CONTINUOUS
10
1.1808
20
0.520408
11
1.18162
21
0.526866
0
LINE
8
BLACK
6
CONTINUOUS
10
1.21
20
0.519567
11
1.21031
21
0.519694
0
LINE
8
BLACK
6
CONTINUOUS
10
1.21031
20
0.519694
11
1.21043
21
0.52
0
LINE
8
BLACK
6
CONTINUOUS
10
1.21043
20
0.52
11
1.21031
21
0.520306
0
LINE
8
BLACK
6
CONTINUOUS
10
1.21031
20
0.520306
11
1.21
21
0.520433
0
LINE
8
BLACK
6
CONTINUOUS
10
1.21
20
0.520433
11
1.20969
21
0.520306
0
LINE
8
BLACK
6
CONTINUOUS
10
1.20969
20
0.520306
11
1.20957
21
0.52
0
LINE
8
BLACK
6
CONTINUOUS
10
1.20957
20
0.52
11
1.20969
21
0.519694
0
LINE
8
BLACK
6
CONTINUOUS
10
1.20969
20
0.519694
11
1.21
21
0.519567
0
LINE
8
BLACK
6
CONTINUOUS
10
-0.0363813
20
0.560866
11
-0.0341548
21
0.566983
0
LINE
8
BLACK
6
CONTINUOUS
10
-0.0341548
20
0.566983
11
-0.0306284
21
0.572455
0
LINE
8
BLACK
6
CONTINUOUS
10
-0.0306284
20
0.572455
11
-0.0259773
21
0.57701
0
LINE
8
BLACK
6
CONTINUOUS
10
-0.0259773
20
0.57701
11
-0.0204328
21
0.580421
0
LINE
8
BLACK
6
CONTINUOUS
10
-0.0204328
20
0.580421
11
-0.0142703
21
0.582519
0
LINE
8
BLACK
6
CONTINUOUS
10
-0.0142703
20
0.582519
11
-0.00779614
21
0.583199
0
LINE
8
BLACK
6
CONTINUOUS
10
-0.00779614
20
0.583199
11
-0.00133217
21
0.582429
0
LINE
8
BLACK
6
CONTINUOUS
10
-0.00133217
20
0.582429
11
0.00480043
21
0.580245
0
LINE
8
BLACK
6
CONTINUOUS
10
0.00480043
20
0.580245
11
0.0102969
21
0.576757
0
LINE
8
BLACK
6
CONTINUOUS
10
0.0102969
20
0.576757
11
0.0148839
21
0.572138
0
LINE
8
BLACK
6
CONTINUOUS
10
0.0148839
20
0.572138
11
0.0183335
21
0.566617
0
LINE
8
BLACK
6
CONTINUOUS
10
0.0183335
20
0.566617
11
0.0204744
21
0.560469
0
LINE
8
BLACK
6
CONTINUOUS
10
0.0204744
20
0.560469
11
0.0212
21
0.554
0
LINE
8
BLACK
6
CONTINUOUS
10
0.0212
20
0.554
11
0.0211886
21
0.553185
0
LINE
8
BLACK
6
CONTINUOUS
10
0.0211886
20
0.553185
11
0.0202826
21
0.546738
0
LINE
8
BLACK
6
CONTINUOUS
10
0.0202826
20
0.546738
11
0.0179709
21
0.540653
0
LINE
8
BLACK
6
CONTINUOUS
10
0.0179709
20
0.540653
11
0.0143685
21
0.535231
0
LINE
8
BLACK
6
CONTINUOUS
10
0.0143685
20
0.535231
11
0.00965429
21
0.530741
0
LINE
8
BLACK
6
CONTINUOUS
10
0.00965429
20
0.530741
11
0.00406264
21
0.527408
0
LINE
8
BLACK
6
CONTINUOUS
10
0.00406264
20
0.527408
11
-0.00212854
21
0.525396
0
LINE
8
BLACK
6
CONTINUOUS
10
-0.00212854
20
0.525396
11
-0.00861154
21
0.524806
0
LINE
8
BLACK
6
CONTINUOUS
10
-0.00861154
20
0.524806
11
-0.0150641
21
0.525667
0
LINE
8
BLACK
6
CONTINUOUS
10
-0.0150641
20
0.525667
11
-0.0211656
21
0.527936
0
LINE
8
BLACK
6
CONTINUOUS
10
-0.0211656
20
0.527936
11
-0.0266128
21
0.531501
0
LINE
8
BLACK
6
CONTINUOUS
10
-0.0266128
20
0.531501
11
-0.0311348
21
0.536184
0
LINE
8
BLACK
6
CONTINUOUS
10
-0.0311348
20
0.536184
11
-0.0345071
21
0.541752
0
LINE
8
BLACK
6
CONTINUOUS
10
-0.0345071
20
0.541752
11
-0.0365619
21
0.547929
0
LINE
8
BLACK
6
CONTINUOUS
10
-0.0365619
20
0.547929
11
-0.0371572
21
0.554
0
LINE
8
BLACK
6
CONTINUOUS
10
-0.0371572
20
0.554
11
-0.0371972
21
0.554408
0
LINE
8
BLACK
6
CONTINUOUS
10
-0.0371972
20
0.554408
11
-0.0363813
21
0.560866
0
LINE
8
BLACK
6
CONTINUOUS
10
-0.008
20
0.553567
11
-0.00769386
21
0.553694
0
LINE
8
BLACK
6
CONTINUOUS
10
-0.00769386
20
0.553694
11
-0.00756705
21
0.554
0
LINE
8
BLACK
6
CONTINUOUS
10
-0.00756705
20
0.554
11
-0.00769386
21
0.554306
0
LINE
8
BLACK
6
CONTINUOUS
10
-0.00769386
20
0.554306
11
-0.008
21
0.554433
0
LINE
8
BLACK
6
CONTINUOUS
10
-0.008
20
0.554433
11
-0.00830614
21
0.554306
0
LINE
8
BLACK
6
CONTINUOUS
10
-0.00830614
20
0.554306
11
-0.00843295
21
0.554
0
LINE
8
BLACK
6
CONTINUOUS
10
-0.00843295
20
0.554
11
-0.00830614
21
0.553694
0
LINE
8
BLACK
6
CONTINUOUS
10
-0.00830614
20
0.553694
11
-0.008
21
0.553567
0
LINE
8
BLACK
6
CONTINUOUS
10
1.54562
20
0.561966
11
1.54785
21
0.568083
0
LINE
8
BLACK
6
CONTINUOUS
10
1.54785
20
0.568083
11
1.55137
21
0.573555
0
LINE
8
BLACK
6
CONTINUOUS
10
1.55137
20
0.573555
11
1.55602
21
0.57811
0
LINE
8
BLACK
6
CONTINUOUS
10
1.55602
20
0.57811
11
1.56157
21
0.581521
0
LINE
8
BLACK
6
CONTINUOUS
10
1.56157
20
0.581521
11
1.56773
21
0.583619
0
LINE
8
BLACK
6
CONTINUOUS
10
1.56773
20
0.583619
11
1.5742
21
0.584299
0
LINE
8
BLACK
6
CONTINUOUS
10
1.5742
20
0.584299
11
1.58067
21
0.583529
0
LINE
8
BLACK
6
CONTINUOUS
10
1.58067
20
0.583529
11
1.5868
21
0.581345
0
LINE
8
BLACK
6
CONTINUOUS
10
1.5868
20
0.581345
11
1.5923
21
0.577857
0
LINE
8
BLACK
6
CONTINUOUS
10
1.5923
20
0.577857
11
1.59688
21
0.573238
0
LINE
8
BLACK
6
CONTINUOUS
10
1.59688
20
0.573238
11
1.60033
21
0.567717
0
LINE
8
BLACK
6
CONTINUOUS
10
1.60033
20
0.567717
11
1.60247
21
0.561569
0
LINE
8
BLACK
6
CONTINUOUS
10
1.60247
20
0.561569
11
1.6032
21
0.5551
0
LINE
8
BLACK
6
CONTINUOUS
10
1.6032
20
0.5551
11
1.60319
21
0.554285
0
LINE
8
BLACK
6
CONTINUOUS
10
1.60319
20
0.554285
11
1.60228
21
0.547838
0
LINE
8
BLACK
6
CONTINUOUS
10
1.60228
20
0.547838
11
1.59997
21
0.541753
0
LINE
8
BLACK
6
CONTINUOUS
10
1.59997
20
0.541753
11
1.59637
21
0.536331
0
LINE
8
BLACK
6
CONTINUOUS
10
1.59637
20
0.536331
11
1.59165
21
0.531841
0
LINE
8
BLACK
6
CONTINUOUS
10
1.59165
20
0.531841
11
1.58606
21
0.528508
0
LINE
8
BLACK
6
CONTINUOUS
10
1.58606
20
0.528508
11
1.57987
21
0.526496
0
LINE
8
BLACK
6
CONTINUOUS
10
1.57987
20
0.526496
11
1.57339
21
0.525906
0
LINE
8
BLACK
6
CONTINUOUS
10
1.57339
20
0.525906
11
1.56694
21
0.526767
0
LINE
8
BLACK
6
CONTINUOUS
10
1.56694
20
0.526767
11
1.56083
21
0.529036
0
LINE
8
BLACK
6
CONTINUOUS
10
1.56083
20
0.529036
11
1.55539
21
0.532601
0
LINE
8
BLACK
6
CONTINUOUS
10
1.55539
20
0.532601
11
1.55087
21
0.537284
0
LINE
8
BLACK
6
CONTINUOUS
10
1.55087
20
0.537284
11
1.54749
21
0.542852
0
LINE
8
BLACK
6
CONTINUOUS
10
1.54749
20
0.542852
11
1.54544
21
0.549029
0
LINE
8
BLACK
6
CONTINUOUS
10
1.54544
20
0.549029
11
1.54484
21
0.5551
0
LINE
8
BLACK
6
CONTINUOUS
10
1.54484
20
0.5551
11
1.5448
21
0.555508
0
LINE
8
BLACK
6
CONTINUOUS
10
1.5448
20
0.555508
11
1.54562
21
0.561966
0
LINE
8
BLACK
6
CONTINUOUS
10
1.574
20
0.554667
11
1.57431
21
0.554794
0
LINE
8
BLACK
6
CONTINUOUS
10
1.57431
20
0.554794
11
1.57443
21
0.5551
0
LINE
8
BLACK
6
CONTINUOUS
10
1.57443
20
0.5551
11
1.57431
21
0.555406
0
LINE
8
BLACK
6
CONTINUOUS
10
1.57431
20
0.555406
11
1.574
21
0.555533
0
LINE
8
BLACK
6
CONTINUOUS
10
1.574
20
0.555533
11
1.57369
21
0.555406
0
LINE
8
BLACK
6
CONTINUOUS
10
1.57369
20
0.555406
11
1.57357
21
0.5551
0
LINE
8
BLACK
6
CONTINUOUS
10
1.57357
20
0.5551
11
1.57369
21
0.554794
0
LINE
8
BLACK
6
CONTINUOUS
10
1.57369
20
0.554794
11
1.574
21
0.554667
0
LINE
8
BLACK
6
CONTINUOUS
10
0.257619
20
0.563966
11
0.259845
21
0.570083
0
LINE
8
BLACK
6
CONTINUOUS
10
0.259845
20
0.570083
11
0.263372
21
0.575555
0
LINE
8
BLACK
6
CONTINUOUS
10
0.263372
20
0.575555
11
0.268023
21
0.58011
0
LINE
8
BLACK
6
CONTINUOUS
10
0.268023
20
0.58011
11
0.273567
21
0.583521
0
LINE
8
BLACK
6
CONTINUOUS
10
0.273567
20
0.583521
11
0.27973
21
0.585619
0
LINE
8
BLACK
6
CONTINUOUS
10
0.27973
20
0.585619
11
0.286204
21
0.586299
0
LINE
8
BLACK
6
CONTINUOUS
10
0.286204
20
0.586299
11
0.292668
21
0.585529
0
LINE
8
BLACK
6
CONTINUOUS
10
0.292668
20
0.585529
11
0.2988
21
0.583345
0
LINE
8
BLACK
6
CONTINUOUS
10
0.2988
20
0.583345
11
0.304297
21
0.579857
0
LINE
8
BLACK
6
CONTINUOUS
10
0.304297
20
0.579857
11
0.308884
21
0.575238
0
LINE
8
BLACK
6
CONTINUOUS
10
0.308884
20
0.575238
11
0.312334
21
0.569717
0
LINE
8
BLACK
6
CONTINUOUS
10
0.312334
20
0.569717
11
0.314474
21
0.563569
0
LINE
8
BLACK
6
CONTINUOUS
10
0.314474
20
0.563569
11
0.3152
21
0.5571
0
LINE
8
BLACK
6
CONTINUOUS
10
0.3152
20
0.5571
11
0.315189
21
0.556285
0
LINE
8
BLACK
6
CONTINUOUS
10
0.315189
20
0.556285
11
0.314283
21
0.549838
0
LINE
8
BLACK
6
CONTINUOUS
10
0.314283
20
0.549838
11
0.311971
21
0.543753
0
LINE
8
BLACK
6
CONTINUOUS
10
0.311971
20
0.543753
11
0.308369
21
0.538331
0
LINE
8
BLACK
6
CONTINUOUS
10
0.308369
20
0.538331
11
0.303654
21
0.533841
0
LINE
8
BLACK
6
CONTINUOUS
10
0.303654
20
0.533841
11
0.298063
21
0.530508
0
LINE
8
BLACK
6
CONTINUOUS
10
0.298063
20
0.530508
11
0.291871
21
0.528496
0
LINE
8
BLACK
6
CONTINUOUS
10
0.291871
20
0.528496
11
0.285388
21
0.527906
0
LINE
8
BLACK
6
CONTINUOUS
10
0.285388
20
0.527906
11
0.278936
21
0.528767
0
LINE
8
BLACK
6
CONTINUOUS
10
0.278936
20
0.528767
11
0.272834
21
0.531036
0
LINE
8
BLACK
6
CONTINUOUS
10
0.272834
20
0.531036
11
0.267387
21
0.534601
0
LINE
8
BLACK
6
CONTINUOUS
10
0.267387
20
0.534601
11
0.262865
21
0.539284
0
LINE
8
BLACK
6
CONTINUOUS
10
0.262865
20
0.539284
11
0.259493
21
0.544852
0
LINE
8
BLACK
6
CONTINUOUS
10
0.259493
20
0.544852
11
0.257438
21
0.551029
0
LINE
8
BLACK
6
CONTINUOUS
10
0.257438
20
0.551029
11
0.256843
21
0.5571
0
LINE
8
BLACK
6
CONTINUOUS
10
0.256843
20
0.5571
11
0.256803
21
0.557508
0
LINE
8
BLACK
6
CONTINUOUS
10
0.256803
20
0.557508
11
0.257619
21
0.563966
0
LINE
8
BLACK
6
CONTINUOUS
10
0.286
20
0.556667
11
0.286306
21
0.556794
0
LINE
8
BLACK
6
CONTINUOUS
10
0.286306
20
0.556794
11
0.286433
21
0.5571
0
LINE
8
BLACK
6
CONTINUOUS
10
0.286433
20
0.5571
11
0.286306
21
0.557406
0
LINE
8
BLACK
6
CONTINUOUS
10
0.286306
20
0.557406
11
0.286
21
0.557533
0
LINE
8
BLACK
6
CONTINUOUS
10
0.286
20
0.557533
11
0.285694
21
0.557406
0
LINE
8
BLACK
6
CONTINUOUS
10
0.285694
20
0.557406
11
0.285567
21
0.5571
0
LINE
8
BLACK
6
CONTINUOUS
10
0.285567
20
0.5571
11
0.285694
21
0.556794
0
LINE
8
BLACK
6
CONTINUOUS
10
0.285694
20
0.556794
11
0.286
21
0.556667
0
LINE
8
BLACK
6
CONTINUOUS
10
1.64162
20
0.564866
11
1.64385
21
0.570983
0
LINE
8
BLACK
6
CONTINUOUS
10
1.64385
20
0.570983
11
1.64737
21
0.576455
0
LINE
8
BLACK
6
CONTINUOUS
10
1.64737
20
0.576455
11
1.65202
21
0.58101
0
LINE
8
BLACK
6
CONTINUOUS
10
1.65202
20
0.58101
11
1.65757
21
0.584421
0
LINE
8
BLACK
6
CONTINUOUS
10
1.65757
20
0.584421
11
1.66373
21
0.586519
0
LINE
8
BLACK
6
CONTINUOUS
10
1.66373
20
0.586519
11
1.6702
21
0.587199
0
LINE
8
BLACK
6
CONTINUOUS
10
1.6702
20
0.587199
11
1.67667
21
0.586429
0
LINE
8
BLACK
6
CONTINUOUS
10
1.67667
20
0.586429
11
1.6828
21
0.584245
0
LINE
8
BLACK
6
CONTINUOUS
10
1.6828
20
0.584245
11
1.6883
21
0.580757
0
LINE
8
BLACK
6
CONTINUOUS
10
1.6883
20
0.580757
11
1.69288
21
0.576138
0
LINE
8
BLACK
6
CONTINUOUS
10
1.69288
20
0.576138
11
1.69633
21
0.570617
0
LINE
8
BLACK
6
CONTINUOUS
10
1.69633
20
0.570617
11
1.69847
21
0.564469
0
LINE
8
BLACK
6
CONTINUOUS
10
1.69847
20
0.564469
11
1.6992
21
0.558
0
LINE
8
BLACK
6
CONTINUOUS
10
1.6992
20
0.558
11
1.69919
21
0.557185
0
LINE
8
BLACK
6
CONTINUOUS
10
1.69919
20
0.557185
11
1.69828
21
0.550738
0
LINE
8
BLACK
6
CONTINUOUS
10
1.69828
20
0.550738
11
1.69597
21
0.544653
0
LINE
8
BLACK
6
CONTINUOUS
10
1.69597
20
0.544653
11
1.69237
21
0.539231
0
LINE
8
BLACK
6
CONTINUOUS
10
1.69237
20
0.539231
11
1.68765
21
0.534741
0
LINE
8
BLACK
6
CONTINUOUS
10
1.68765
20
0.534741
11
1.68206
21
0.531408
0
LINE
8
BLACK
6
CONTINUOUS
10
1.68206
20
0.531408
11
1.67587
21
0.529396
0
LINE
8
BLACK
6
CONTINUOUS
10
1.67587
20
0.529396
11
1.66939
21
0.528806
0
LINE
8
BLACK
6
CONTINUOUS
10
1.66939
20
0.528806
11
1.66294
21
0.529667
0
LINE
8
BLACK
6
CONTINUOUS
10
1.66294
20
0.529667
11
1.65683
21
0.531936
0
LINE
8
BLACK
6
CONTINUOUS
10
1.65683
20
0.531936
11
1.65139
21
0.535501
0
LINE
8
BLACK
6
CONTINUOUS
10
1.65139
20
0.535501
11
1.64687
21
0.540184
0
LINE
8
BLACK
6
CONTINUOUS
10
1.64687
20
0.540184
11
1.64349
21
0.545752
0
LINE
8
BLACK
6
CONTINUOUS
10
1.64349
20
0.545752
11
1.64144
21
0.551929
0
LINE
8
BLACK
6
CONTINUOUS
10
1.64144
20
0.551929
11
1.64084
21
0.558
0
LINE
8
BLACK
6
CONTINUOUS
10
1.64084
20
0.558
11
1.6408
21
0.558408
0
LINE
8
BLACK
6
CONTINUOUS
10
1.6408
20
0.558408
11
1.64162
21
0.564866
0
LINE
8
BLACK
6
CONTINUOUS
10
1.67
20
0.557567
11
1.67031
21
0.557694
0
LINE
8
BLACK
6
CONTINUOUS
10
1.67031
20
0.557694
11
1.67043
21
0.558
0
LINE
8
BLACK
6
CONTINUOUS
10
1.67043
20
0.558
11
1.67031
21
0.558306
0
LINE
8
BLACK
6
CONTINUOUS
10
1.67031
20
0.558306
11
1.67
21
0.558433
0
LINE
8
BLACK
6
CONTINUOUS
10
1.67
20
0.558433
11
1.66969
21
0.558306
0
LINE
8
BLACK
6
CONTINUOUS
10
1.66969
20
0.558306
11
1.66957
21
0.558
0
LINE
8
BLACK
6
CONTINUOUS
10
1.66957
20
0.558
11
1.66969
21
0.557694
0
LINE
8
BLACK
6
CONTINUOUS
10
1.66969
20
0.557694
11
1.67
21
0.557567
0
LINE
8
BLACK
6
CONTINUOUS
10
0.725619
20
0.565966
11
0.727845
21
0.572083
0
LINE
8
BLACK
6
CONTINUOUS
10
0.727845
20
0.572083
11
0.731372
21
0.577555
0
LINE
8
BLACK
6
CONTINUOUS
10
0.731372
20
0.577555
11
0.736023
21
0.58211
0
LINE
8
BLACK
6
CONTINUOUS
10
0.736023
20
0.58211
11
0.741567
21
0.585521
0
LINE
8
BLACK
6
CONTINUOUS
10
0.741567
20
0.585521
11
0.74773
21
0.587619
0
LINE
8
BLACK
6
CONTINUOUS
10
0.74773
20
0.587619
11
0.754204
21
0.588299
0
LINE
8
BLACK
6
CONTINUOUS
10
0.754204
20
0.588299
11
0.760668
21
0.587529
0
LINE
8
BLACK
6
CONTINUOUS
10
0.760668
20
0.587529
11
0.7668
21
0.585345
0
LINE
8
BLACK
6
CONTINUOUS
10
0.7668
20
0.585345
11
0.772297
21
0.581857
0
LINE
8
BLACK
6
CONTINUOUS
10
0.772297
20
0.581857
11
0.776884
21
0.577238
0
LINE
8
BLACK
6
CONTINUOUS
10
0.776884
20
0.577238
11
0.780334
21
0.571717
0
LINE
8
BLACK
6
CONTINUOUS
10
0.780334
20
0.571717
11
0.782474
21
0.565569
0
LINE
8
BLACK
6
CONTINUOUS
10
0.782474
20
0.565569
11
0.7832
21
0.5591
0
LINE
8
BLACK
6
CONTINUOUS
10
0.7832
20
0.5591
11
0.783189
21
0.558285
0
LINE
8
BLACK
6
CONTINUOUS
10
0.783189
20
0.558285
11
0.782283
21
0.551838
0
LINE
8
BLACK
6
CONTINUOUS
10
0.782283
20
0.551838
11
0.779971
21
0.545753
0
LINE
8
BLACK
6
CONTINUOUS
10
0.779971
20
0.545753
11
0.776369
21
0.540331
0
LINE
8
BLACK
6
CONTINUOUS
10
0.776369
20
0.540331
11
0.771654
21
0.535841
0
LINE
8
BLACK
6
CONTINUOUS
10
0.771654
20
0.535841
11
0.766063
21
0.532508
0
LINE
8
BLACK
6
CONTINUOUS
10
0.766063
20
0.532508
11
0.759871
21
0.530496
0
LINE
8
BLACK
6
CONTINUOUS
10
0.759871
20
0.530496
11
0.753388
21
0.529906
0
LINE
8
BLACK
6
CONTINUOUS
10
0.753388
20
0.529906
11
0.746936
21
0.530767
0
LINE
8
BLACK
6
CONTINUOUS
10
0.746936
20
0.530767
11
0.740834
21
0.533036
0
LINE
8
BLACK
6
CONTINUOUS
10
0.740834
20
0.533036
11
0.735387
21
0.536601
0
LINE
8
BLACK
6
CONTINUOUS
10
0.735387
20
0.536601
11
0.730865
21
0.541284
0
LINE
8
BLACK
6
CONTINUOUS
10
0.730865
20
0.541284
11
0.727493
21
0.546852
0
LINE
8
BLACK
6
CONTINUOUS
10
0.727493
20
0.546852
11
0.725438
21
0.553029
0
LINE
8
BLACK
6
CONTINUOUS
10
0.725438
20
0.553029
11
0.724843
21
0.5591
0
LINE
8
BLACK
6
CONTINUOUS
10
0.724843
20
0.5591
11
0.724803
21
0.559508
0
LINE
8
BLACK
6
CONTINUOUS
10
0.724803
20
0.559508
11
0.725619
21
0.565966
0
LINE
8
BLACK
6
CONTINUOUS
10
0.754
20
0.558667
11
0.754306
21
0.558794
0
LINE
8
BLACK
6
CONTINUOUS
10
0.754306
20
0.558794
11
0.754433
21
0.5591
0
LINE
8
BLACK
6
CONTINUOUS
10
0.754433
20
0.5591
11
0.754306
21
0.559406
0
LINE
8
BLACK
6
CONTINUOUS
10
0.754306
20
0.559406
11
0.754
21
0.559533
0
LINE
8
BLACK
6
CONTINUOUS
10
0.754
20
0.559533
11
0.753694
21
0.559406
0
LINE
8
BLACK
6
CONTINUOUS
10
0.753694
20
0.559406
11
0.753567
21
0.5591
0
LINE
8
BLACK
6
CONTINUOUS
10
0.753567
20
0.5591
11
0.753694
21
0.558794
0
LINE
8
BLACK
6
CONTINUOUS
10
0.753694
20
0.558794
11
0.754
21
0.558667
0
LINE
8
BLACK
6
CONTINUOUS
10
1.93162
20
0.566866
11
1.93385
21
0.572983
0
LINE
8
BLACK
6
CONTINUOUS
10
1.93385
20
0.572983
11
1.93737
21
0.578455
0
LINE
8
BLACK
6
CONTINUOUS
10
1.93737
20
0.578455
11
1.94202
21
0.58301
0
LINE
8
BLACK
6
CONTINUOUS
10
1.94202
20
0.58301
11
1.94757
21
0.586421
0
LINE
8
BLACK
6
CONTINUOUS
10
1.94757
20
0.586421
11
1.95373
21
0.588519
0
LINE
8
BLACK
6
CONTINUOUS
10
1.95373
20
0.588519
11
1.9602
21
0.589199
0
LINE
8
BLACK
6
CONTINUOUS
10
1.9602
20
0.589199
11
1.96667
21
0.588429
0
LINE
8
BLACK
6
CONTINUOUS
10
1.96667
20
0.588429
11
1.9728
21
0.586245
0
LINE
8
BLACK
6
CONTINUOUS
10
1.9728
20
0.586245
11
1.9783
21
0.582757
0
LINE
8
BLACK
6
CONTINUOUS
10
1.9783
20
0.582757
11
1.98288
21
0.578138
0
LINE
8
BLACK
6
CONTINUOUS
10
1.98288
20
0.578138
11
1.98633
21
0.572617
0
LINE
8
BLACK
6
CONTINUOUS
10
1.98633
20
0.572617
11
1.98847
21
0.566469
0
LINE
8
BLACK
6
CONTINUOUS
10
1.98847
20
0.566469
11
1.9892
21
0.56
0
LINE
8
BLACK
6
CONTINUOUS
10
1.9892
20
0.56
11
1.98919
21
0.559185
0
LINE
8
BLACK
6
CONTINUOUS
10
1.98919
20
0.559185
11
1.98828
21
0.552738
0
LINE
8
BLACK
6
CONTINUOUS
10
1.98828
20
0.552738
11
1.98597
21
0.546653
0
LINE
8
BLACK
6
CONTINUOUS
10
1.98597
20
0.546653
11
1.98237
21
0.541231
0
LINE
8
BLACK
6
CONTINUOUS
10
1.98237
20
0.541231
11
1.97765
21
0.536741
0
LINE
8
BLACK
6
CONTINUOUS
10
1.97765
20
0.536741
11
1.97206
21
0.533408
0
LINE
8
BLACK
6
CONTINUOUS
10
1.97206
20
0.533408
11
1.96587
21
0.531396
0
LINE
8
BLACK
6
CONTINUOUS
10
1.96587
20
0.531396
11
1.95939
21
0.530806
0
LINE
8
BLACK
6
CONTINUOUS
10
1.95939
20
0.530806
11
1.95294
21
0.531667
0
LINE
8
BLACK
6
CONTINUOUS
10
1.95294
20
0.531667
11
1.94683
21
0.533936
0
LINE
8
BLACK
6
CONTINUOUS
10
1.94683
20
0.533936
11
1.94139
21
0.537501
0
LINE
8
BLACK
6
CONTINUOUS
10
1.94139
20
0.537501
11
1.93687
21
0.542184
0
LINE
8
BLACK
6
CONTINUOUS
10
1.93687
20
0.542184
11
1.93349
21
0.547752
0
LINE
8
BLACK
6
CONTINUOUS
10
1.93349
20
0.547752
11
1.93144
21
0.553929
0
LINE
8
BLACK
6
CONTINUOUS
10
1.93144
20
0.553929
11
1.93084
21
0.56
0
LINE
8
BLACK
6
CONTINUOUS
10
1.93084
20
0.56
11
1.9308
21
0.560408
0
LINE
8
BLACK
6
CONTINUOUS
10
1.9308
20
0.560408
11
1.93162
21
0.566866
0
LINE
8
BLACK
6
CONTINUOUS
10
1.96
20
0.559567
11
1.96031
21
0.559694
0
LINE
8
BLACK
6
CONTINUOUS
10
1.96031
20
0.559694
11
1.96043
21
0.56
0
LINE
8
BLACK
6
CONTINUOUS
10
1.96043
20
0.56
11
1.96031
21
0.560306
0
LINE
8
BLACK
6
CONTINUOUS
10
1.96031
20
0.560306
11
1.96
21
0.560433
0
LINE
8
BLACK
6
CONTINUOUS
10
1.96
20
0.560433
11
1.95969
21
0.560306
0
LINE
8
BLACK
6
CONTINUOUS
10
1.95969
20
0.560306
11
1.95957
21
0.56
0
LINE
8
BLACK
6
CONTINUOUS
10
1.95957
20
0.56
11
1.95969
21
0.559694
0
LINE
8
BLACK
6
CONTINUOUS
10
1.95969
20
0.559694
11
1.96
21
0.559567
0
LINE
8
BLACK
6
CONTINUOUS
10
0.361619
20
0.566866
11
0.363845
21
0.572983
0
LINE
8
BLACK
6
CONTINUOUS
10
0.363845
20
0.572983
11
0.367372
21
0.578455
0
LINE
8
BLACK
6
CONTINUOUS
10
0.367372
20
0.578455
11
0.372023
21
0.58301
0
LINE
8
BLACK
6
CONTINUOUS
10
0.372023
20
0.58301
11
0.377567
21
0.586421
0
LINE
8
BLACK
6
CONTINUOUS
10
0.377567
20
0.586421
11
0.38373
21
0.588519
0
LINE
8
BLACK
6
CONTINUOUS
10
0.38373
20
0.588519
11
0.390204
21
0.589199
0
LINE
8
BLACK
6
CONTINUOUS
10
0.390204
20
0.589199
11
0.396668
21
0.588429
0
LINE
8
BLACK
6
CONTINUOUS
10
0.396668
20
0.588429
11
0.4028
21
0.586245
0
LINE
8
BLACK
6
CONTINUOUS
10
0.4028
20
0.586245
11
0.408297
21
0.582757
0
LINE
8
BLACK
6
CONTINUOUS
10
0.408297
20
0.582757
11
0.412884
21
0.578138
0
LINE
8
BLACK
6
CONTINUOUS
10
0.412884
20
0.578138
11
0.416334
21
0.572617
0
LINE
8
BLACK
6
CONTINUOUS
10
0.416334
20
0.572617
11
0.418474
21
0.566469
0
LINE
8
BLACK
6
CONTINUOUS
10
0.418474
20
0.566469
11
0.4192
21
0.56
0
LINE
8
BLACK
6
CONTINUOUS
10
0.4192
20
0.56
11
0.419189
21
0.559185
0
LINE
8
BLACK
6
CONTINUOUS
10
0.419189
20
0.559185
11
0.418283
21
0.552738
0
LINE
8
BLACK
6
CONTINUOUS
10
0.418283
20
0.552738
11
0.415971
21
0.546653
0
LINE
8
BLACK
6
CONTINUOUS
10
0.415971
20
0.546653
11
0.412369
21
0.541231
0
LINE
8
BLACK
6
CONTINUOUS
10
0.412369
20
0.541231
11
0.407654
21
0.536741
0
LINE
8
BLACK
6
CONTINUOUS
10
0.407654
20
0.536741
11
0.402063
21
0.533408
0
LINE
8
BLACK
6
CONTINUOUS
10
0.402063
20
0.533408
11
0.395871
21
0.531396
0
LINE
8
BLACK
6
CONTINUOUS
10
0.395871
20
0.531396
11
0.389388
21
0.530806
0
LINE
8
BLACK
6
CONTINUOUS
10
0.389388
20
0.530806
11
0.382936
21
0.531667
0
LINE
8
BLACK
6
CONTINUOUS
10
0.382936
20
0.531667
11
0.376834
21
0.533936
0
LINE
8
BLACK
6
CONTINUOUS
10
0.376834
20
0.533936
11
0.371387
21
0.537501
0
LINE
8
BLACK
6
CONTINUOUS
10
0.371387
20
0.537501
11
0.366865
21
0.542184
0
LINE
8
BLACK
6
CONTINUOUS
10
0.366865
20
0.542184
11
0.363493
21
0.547752
0
LINE
8
BLACK
6
CONTINUOUS
10
0.363493
20
0.547752
11
0.361438
21
0.553929
0
LINE
8
BLACK
6
CONTINUOUS
10
0.361438
20
0.553929
11
0.360843
21
0.56
0
LINE
8
BLACK
6
CONTINUOUS
10
0.360843
20
0.56
11
0.360803
21
0.560408
0
LINE
8
BLACK
6
CONTINUOUS
10
0.360803
20
0.560408
11
0.361619
21
0.566866
0
LINE
8
BLACK
6
CONTINUOUS
10
0.39
20
0.559567
11
0.390306
21
0.559694
0
LINE
8
BLACK
6
CONTINUOUS
10
0.390306
20
0.559694
11
0.390433
21
0.56
0
LINE
8
BLACK
6
CONTINUOUS
10
0.390433
20
0.56
11
0.390306
21
0.560306
0
LINE
8
BLACK
6
CONTINUOUS
10
0.390306
20
0.560306
11
0.39
21
0.560433
0
LINE
8
BLACK
6
CONTINUOUS
10
0.39
20
0.560433
11
0.389694
21
0.560306
0
LINE
8
BLACK
6
CONTINUOUS
10
0.389694
20
0.560306
11
0.389567
21
0.56
0
LINE
8
BLACK
6
CONTINUOUS
10
0.389567
20
0.56
11
0.389694
21
0.559694
0
LINE
8
BLACK
6
CONTINUOUS
10
0.389694
20
0.559694
11
0.39
21
0.559567
0
LINE
8
BLACK
6
CONTINUOUS
10
0.621619
20
1.23687
11
0.623845
21
1.24298
0
LINE
8
BLACK
6
CONTINUOUS
10
0.623845
20
1.24298
11
0.627372
21
1.24846
0
LINE
8
BLACK
6
CONTINUOUS
10
0.627372
20
1.24846
11
0.632023
21
1.25301
0
LINE
8
BLACK
6
CONTINUOUS
10
0.632023
20
1.25301
11
0.637567
21
1.25642
0
LINE
8
BLACK
6
CONTINUOUS
10
0.637567
20
1.25642
11
0.64373
21
1.25852
0
LINE
8
BLACK
6
CONTINUOUS
10
0.64373
20
1.25852
11
0.650204
21
1.2592
0
LINE
8
BLACK
6
CONTINUOUS
10
0.650204
20
1.2592
11
0.656668
21
1.25843
0
LINE
8
BLACK
6
CONTINUOUS
10
0.656668
20
1.25843
11
0.6628
21
1.25624
0
LINE
8
BLACK
6
CONTINUOUS
10
0.6628
20
1.25624
11
0.668297
21
1.25276
0
LINE
8
BLACK
6
CONTINUOUS
10
0.668297
20
1.25276
11
0.672884
21
1.24814
0
LINE
8
BLACK
6
CONTINUOUS
10
0.672884
20
1.24814
11
0.676334
21
1.24262
0
LINE
8
BLACK
6
CONTINUOUS
10
0.676334
20
1.24262
11
0.678474
21
1.23647
0
LINE
8
BLACK
6
CONTINUOUS
10
0.678474
20
1.23647
11
0.6792
21
1.23
0
LINE
8
BLACK
6
CONTINUOUS
10
0.6792
20
1.23
11
0.679189
21
1.22918
0
LINE
8
BLACK
6
CONTINUOUS
10
0.679189
20
1.22918
11
0.678283
21
1.22274
0
LINE
8
BLACK
6
CONTINUOUS
10
0.678283
20
1.22274
11
0.675971
21
1.21665
0
LINE
8
BLACK
6
CONTINUOUS
10
0.675971
20
1.21665
11
0.672369
21
1.21123
0
LINE
8
BLACK
6
CONTINUOUS
10
0.672369
20
1.21123
11
0.667654
21
1.20674
0
LINE
8
BLACK
6
CONTINUOUS
10
0.667654
20
1.20674
11
0.662063
21
1.20341
0
LINE
8
BLACK
6
CONTINUOUS
10
0.662063
20
1.20341
11
0.655871
21
1.2014
0
LINE
8
BLACK
6
CONTINUOUS
10
0.655871
20
1.2014
11
0.649388
21
1.20081
0
LINE
8
BLACK
6
CONTINUOUS
10
0.649388
20
1.20081
11
0.642936
21
1.20167
0
LINE
8
BLACK
6
CONTINUOUS
10
0.642936
20
1.20167
11
0.636834
21
1.20394
0
LINE
8
BLACK
6
CONTINUOUS
10
0.636834
20
1.20394
11
0.631387
21
1.2075
0
LINE
8
BLACK
6
CONTINUOUS
10
0.631387
20
1.2075
11
0.626865
21
1.21218
0
LINE
8
BLACK
6
CONTINUOUS
10
0.626865
20
1.21218
11
0.623493
21
1.21775
0
LINE
8
BLACK
6
CONTINUOUS
10
0.623493
20
1.21775
11
0.621438
21
1.22393
0
LINE
8
BLACK
6
CONTINUOUS
10
0.621438
20
1.22393
11
0.620843
21
1.23
0
LINE
8
BLACK
6
CONTINUOUS
10
0.620843
20
1.23
11
0.620803
21
1.23041
0
LINE
8
BLACK
6
CONTINUOUS
10
0.620803
20
1.23041
11
0.621619
21
1.23687
0
LINE
8
BLACK
6
CONTINUOUS
10
0.65
20
1.22957
11
0.650306
21
1.22969
0
LINE
8
BLACK
6
CONTINUOUS
10
0.650306
20
1.22969
11
0.650433
21
1.23
0
LINE
8
BLACK
6
CONTINUOUS
10
0.650433
20
1.23
11
0.650306
21
1.23031
0
LINE
8
BLACK
6
CONTINUOUS
10
0.650306
20
1.23031
11
0.65
21
1.23043
0
LINE
8
BLACK
6
CONTINUOUS
10
0.65
20
1.23043
11
0.649694
21
1.23031
0
LINE
8
BLACK
6
CONTINUOUS
10
0.649694
20
1.23031
11
0.649567
21
1.23
0
LINE
8
BLACK
6
CONTINUOUS
10
0.649567
20
1.23
11
0.649694
21
1.22969
0
LINE
8
BLACK
6
CONTINUOUS
10
0.649694
20
1.22969
11
0.65
21
1.22957
  0
ENDSEC
  0
EOF
