  0
SECTION
  2
HEADER
  9
$ANGBASE
  50
0.0
  9
$ANGDIR
  70
1
  9
$MEASUREMENT
  70
0
  0
ENDSEC
  0
SECTION
  2
TABLES
  0
TABLE
  2
LTYPE
  70
4
  0
LTYPE
  5
40F
  2
CONTINUOUS
  70
0
  3
Solid line
  72
65
  73
0
  40
0.0
  0
LTYPE
  5
410
  2
DASHDOT
 70
0
  3
Dash Dot ____ _ ____ _
 72
65
 73
4
 40
2.0
 49
1.25
 49
-0.25
 49
0.25
 49
-0.25
  0
LTYPE
  5
411
  2
DASHED
 70
0
  3
Dashed __ __ __ __ __
 72
65
 73
2
 40
0.75
 49
0.5
 49
-0.25
  0
LTYPE
  5
43B
  2
DOTTED
 70
0
  3
Dotted .  .  .  .
 72
65
 73
2
 40
0.2
 49
0.0
 49
-0.2
  0
ENDTAB
  0
TABLE
  2
STYLE
  70
4
  0
STYLE
  2
KICAD
  70
0
  40
0
  41
1
  42
1
  50
0
  71
0
  3
isocp.shx
  0
STYLE
  2
KICADB
  70
0
  40
0
  41
1
  42
1
  50
0
  71
0
  3
isocp.shx
  0
STYLE
  2
KICADI
  70
0
  40
0
  41
1
  42
1
  50
15
  71
0
  3
isocp.shx
  0
STYLE
  2
KICADBI
  70
0
  40
0
  41
1
  42
1
  50
15
  71
0
  3
isocp.shx
  0
ENDTAB
  0
TABLE
  2
LAYER
  70
1
  0
LAYER
  2
BLACK
  70
0
  62
7
  6
CONTINUOUS
  0
ENDTAB
  0
ENDSEC
  0
SECTION
  2
ENTITIES
0
LINE
8
BLACK
6
CONTINUOUS
10
0.984977
20
0.706007
11
0.9852
21
0.706046
0
LINE
8
BLACK
6
CONTINUOUS
10
0.9852
20
0.706046
11
0.985897
21
0.705644
0
LINE
8
BLACK
6
CONTINUOUS
10
0.985897
20
0.705644
11
0.986646
21
0.705348
0
LINE
8
BLACK
6
CONTINUOUS
10
0.986646
20
0.705348
11
0.986753
21
0.705149
0
LINE
8
BLACK
6
CONTINUOUS
10
0.986753
20
0.705149
11
0.986949
21
0.705036
0
LINE
8
BLACK
6
CONTINUOUS
10
0.986949
20
0.705036
11
0.987224
21
0.70428
0
LINE
8
BLACK
6
CONTINUOUS
10
0.987224
20
0.70428
11
0.987608
21
0.703571
0
LINE
8
BLACK
6
CONTINUOUS
10
0.987608
20
0.703571
11
0.987562
21
0.70335
0
LINE
8
BLACK
6
CONTINUOUS
10
0.987562
20
0.70335
11
0.98764
21
0.703138
0
LINE
8
BLACK
6
CONTINUOUS
10
0.98764
20
0.703138
11
0.98764
21
0.687343
0
LINE
8
BLACK
6
CONTINUOUS
10
0.98764
20
0.687343
11
0.99781
21
0.687343
0
LINE
8
BLACK
6
CONTINUOUS
10
0.99781
20
0.687343
11
0.99882
21
0.687165
0
LINE
8
BLACK
6
CONTINUOUS
10
0.99882
20
0.687165
11
1.00037
21
0.685867
0
LINE
8
BLACK
6
CONTINUOUS
10
1.00037
20
0.685867
11
1.00072
21
0.683878
0
LINE
8
BLACK
6
CONTINUOUS
10
1.00072
20
0.683878
11
0.999708
21
0.682129
0
LINE
8
BLACK
6
CONTINUOUS
10
0.999708
20
0.682129
11
0.99781
21
0.681438
0
LINE
8
BLACK
6
CONTINUOUS
10
0.99781
20
0.681438
11
0.98764
21
0.681438
0
LINE
8
BLACK
6
CONTINUOUS
10
0.98764
20
0.681438
11
0.98764
21
0.678766
0
LINE
8
BLACK
6
CONTINUOUS
10
0.98764
20
0.678766
11
0.987462
21
0.677756
0
LINE
8
BLACK
6
CONTINUOUS
10
0.987462
20
0.677756
11
0.986163
21
0.676209
0
LINE
8
BLACK
6
CONTINUOUS
10
0.986163
20
0.676209
11
0.984174
21
0.675859
0
LINE
8
BLACK
6
CONTINUOUS
10
0.984174
20
0.675859
11
0.982425
21
0.676868
0
LINE
8
BLACK
6
CONTINUOUS
10
0.982425
20
0.676868
11
0.981734
21
0.678766
0
LINE
8
BLACK
6
CONTINUOUS
10
0.981734
20
0.678766
11
0.981734
21
0.681438
0
LINE
8
BLACK
6
CONTINUOUS
10
0.981734
20
0.681438
11
0.971564
21
0.681438
0
LINE
8
BLACK
6
CONTINUOUS
10
0.971564
20
0.681438
11
0.970554
21
0.681616
0
LINE
8
BLACK
6
CONTINUOUS
10
0.970554
20
0.681616
11
0.969006
21
0.682914
0
LINE
8
BLACK
6
CONTINUOUS
10
0.969006
20
0.682914
11
0.968656
21
0.684903
0
LINE
8
BLACK
6
CONTINUOUS
10
0.968656
20
0.684903
11
0.969666
21
0.686653
0
LINE
8
BLACK
6
CONTINUOUS
10
0.969666
20
0.686653
11
0.971564
21
0.687343
0
LINE
8
BLACK
6
CONTINUOUS
10
0.971564
20
0.687343
11
0.981734
21
0.687343
0
LINE
8
BLACK
6
CONTINUOUS
10
0.981734
20
0.687343
11
0.981734
21
0.699042
0
LINE
8
BLACK
6
CONTINUOUS
10
0.981734
20
0.699042
11
0.957499
21
0.690963
0
LINE
8
BLACK
6
CONTINUOUS
10
0.957499
20
0.690963
11
0.956485
21
0.690813
0
LINE
8
BLACK
6
CONTINUOUS
10
0.956485
20
0.690813
11
0.954606
21
0.691555
0
LINE
8
BLACK
6
CONTINUOUS
10
0.954606
20
0.691555
11
0.953645
21
0.693331
0
LINE
8
BLACK
6
CONTINUOUS
10
0.953645
20
0.693331
11
0.95405
21
0.69531
0
LINE
8
BLACK
6
CONTINUOUS
10
0.95405
20
0.69531
11
0.955632
21
0.696566
0
LINE
8
BLACK
6
CONTINUOUS
10
0.955632
20
0.696566
11
0.983753
21
0.70594
0
LINE
8
BLACK
6
CONTINUOUS
10
0.983753
20
0.70594
11
0.984768
21
0.70609
0
LINE
8
BLACK
6
CONTINUOUS
10
0.984768
20
0.70609
11
0.984977
21
0.706007
0
LINE
8
BLACK
6
CONTINUOUS
10
0.99844
20
0.745349
11
0.998574
21
0.745361
0
LINE
8
BLACK
6
CONTINUOUS
10
0.998574
20
0.745361
11
0.999303
21
0.744851
0
LINE
8
BLACK
6
CONTINUOUS
10
0.999303
20
0.744851
11
1.00007
21
0.744406
0
LINE
8
BLACK
6
CONTINUOUS
10
1.00007
20
0.744406
11
1.00012
21
0.74428
0
LINE
8
BLACK
6
CONTINUOUS
10
1.00012
20
0.74428
11
1.00023
21
0.744202
0
LINE
8
BLACK
6
CONTINUOUS
10
1.00023
20
0.744202
11
1.00046
21
0.743344
0
LINE
8
BLACK
6
CONTINUOUS
10
1.00046
20
0.743344
11
1.00076
21
0.742508
0
LINE
8
BLACK
6
CONTINUOUS
10
1.00076
20
0.742508
11
1.00076
21
0.718136
0
LINE
8
BLACK
6
CONTINUOUS
10
1.00076
20
0.718136
11
1.00058
21
0.717127
0
LINE
8
BLACK
6
CONTINUOUS
10
1.00058
20
0.717127
11
0.999287
21
0.715579
0
LINE
8
BLACK
6
CONTINUOUS
10
0.999287
20
0.715579
11
0.997297
21
0.715229
0
LINE
8
BLACK
6
CONTINUOUS
10
0.997297
20
0.715229
11
0.995548
21
0.716239
0
LINE
8
BLACK
6
CONTINUOUS
10
0.995548
20
0.716239
11
0.994857
21
0.718136
0
LINE
8
BLACK
6
CONTINUOUS
10
0.994857
20
0.718136
11
0.994857
21
0.73538
0
LINE
8
BLACK
6
CONTINUOUS
10
0.994857
20
0.73538
11
0.977401
21
0.717923
0
LINE
8
BLACK
6
CONTINUOUS
10
0.977401
20
0.717923
11
0.976561
21
0.717335
0
LINE
8
BLACK
6
CONTINUOUS
10
0.976561
20
0.717335
11
0.976385
21
0.71732
0
LINE
8
BLACK
6
CONTINUOUS
10
0.976385
20
0.71732
11
0.976247
21
0.71721
0
LINE
8
BLACK
6
CONTINUOUS
10
0.976247
20
0.71721
11
0.970623
21
0.715335
0
LINE
8
BLACK
6
CONTINUOUS
10
0.970623
20
0.715335
11
0.969749
21
0.715206
0
LINE
8
BLACK
6
CONTINUOUS
10
0.969749
20
0.715206
11
0.969689
21
0.715184
0
LINE
8
BLACK
6
CONTINUOUS
10
0.969689
20
0.715184
11
0.965939
21
0.715184
0
LINE
8
BLACK
6
CONTINUOUS
10
0.965939
20
0.715184
11
0.964929
21
0.715362
0
LINE
8
BLACK
6
CONTINUOUS
10
0.964929
20
0.715362
11
0.964794
21
0.715475
0
LINE
8
BLACK
6
CONTINUOUS
10
0.964794
20
0.715475
11
0.964619
21
0.715495
0
LINE
8
BLACK
6
CONTINUOUS
10
0.964619
20
0.715495
11
0.960869
21
0.71737
0
LINE
8
BLACK
6
CONTINUOUS
10
0.960869
20
0.71737
11
0.96016
21
0.717896
0
LINE
8
BLACK
6
CONTINUOUS
10
0.96016
20
0.717896
11
0.960102
21
0.717923
0
LINE
8
BLACK
6
CONTINUOUS
10
0.960102
20
0.717923
11
0.958227
21
0.719798
0
LINE
8
BLACK
6
CONTINUOUS
10
0.958227
20
0.719798
11
0.957721
21
0.720521
0
LINE
8
BLACK
6
CONTINUOUS
10
0.957721
20
0.720521
11
0.957674
21
0.720565
0
LINE
8
BLACK
6
CONTINUOUS
10
0.957674
20
0.720565
11
0.955799
21
0.724315
0
LINE
8
BLACK
6
CONTINUOUS
10
0.955799
20
0.724315
11
0.955507
21
0.725298
0
LINE
8
BLACK
6
CONTINUOUS
10
0.955507
20
0.725298
11
0.955548
21
0.72547
0
LINE
8
BLACK
6
CONTINUOUS
10
0.955548
20
0.72547
11
0.955487
21
0.725636
0
LINE
8
BLACK
6
CONTINUOUS
10
0.955487
20
0.725636
11
0.955487
21
0.735009
0
LINE
8
BLACK
6
CONTINUOUS
10
0.955487
20
0.735009
11
0.955665
21
0.736019
0
LINE
8
BLACK
6
CONTINUOUS
10
0.955665
20
0.736019
11
0.955779
21
0.736155
0
LINE
8
BLACK
6
CONTINUOUS
10
0.955779
20
0.736155
11
0.955799
21
0.73633
0
LINE
8
BLACK
6
CONTINUOUS
10
0.955799
20
0.73633
11
0.957674
21
0.740079
0
LINE
8
BLACK
6
CONTINUOUS
10
0.957674
20
0.740079
11
0.9582
21
0.740789
0
LINE
8
BLACK
6
CONTINUOUS
10
0.9582
20
0.740789
11
0.958227
21
0.740847
0
LINE
8
BLACK
6
CONTINUOUS
10
0.958227
20
0.740847
11
0.960102
21
0.742722
0
LINE
8
BLACK
6
CONTINUOUS
10
0.960102
20
0.742722
11
0.960942
21
0.74331
0
LINE
8
BLACK
6
CONTINUOUS
10
0.960942
20
0.74331
11
0.962954
21
0.743486
0
LINE
8
BLACK
6
CONTINUOUS
10
0.962954
20
0.743486
11
0.964609
21
0.742327
0
LINE
8
BLACK
6
CONTINUOUS
10
0.964609
20
0.742327
11
0.965131
21
0.740376
0
LINE
8
BLACK
6
CONTINUOUS
10
0.965131
20
0.740376
11
0.964278
21
0.738546
0
LINE
8
BLACK
6
CONTINUOUS
10
0.964278
20
0.738546
11
0.962742
21
0.73701
0
LINE
8
BLACK
6
CONTINUOUS
10
0.962742
20
0.73701
11
0.961393
21
0.734312
0
LINE
8
BLACK
6
CONTINUOUS
10
0.961393
20
0.734312
11
0.961393
21
0.726333
0
LINE
8
BLACK
6
CONTINUOUS
10
0.961393
20
0.726333
11
0.962742
21
0.723635
0
LINE
8
BLACK
6
CONTINUOUS
10
0.962742
20
0.723635
11
0.963939
21
0.722438
0
LINE
8
BLACK
6
CONTINUOUS
10
0.963939
20
0.722438
11
0.966636
21
0.721089
0
LINE
8
BLACK
6
CONTINUOUS
10
0.966636
20
0.721089
11
0.96921
21
0.721089
0
LINE
8
BLACK
6
CONTINUOUS
10
0.96921
20
0.721089
11
0.973718
21
0.722592
0
LINE
8
BLACK
6
CONTINUOUS
10
0.973718
20
0.722592
11
0.995722
21
0.744596
0
LINE
8
BLACK
6
CONTINUOUS
10
0.995722
20
0.744596
11
0.99625
21
0.744966
0
LINE
8
BLACK
6
CONTINUOUS
10
0.99625
20
0.744966
11
0.996334
21
0.745066
0
LINE
8
BLACK
6
CONTINUOUS
10
0.996334
20
0.745066
11
0.996412
21
0.745079
0
LINE
8
BLACK
6
CONTINUOUS
10
0.996412
20
0.745079
11
0.996562
21
0.745185
0
LINE
8
BLACK
6
CONTINUOUS
10
0.996562
20
0.745185
11
0.997448
21
0.745262
0
LINE
8
BLACK
6
CONTINUOUS
10
0.997448
20
0.745262
11
0.998323
21
0.745416
0
LINE
8
BLACK
6
CONTINUOUS
10
0.998323
20
0.745416
11
0.99844
21
0.745349
0
LINE
8
BLACK
6
CONTINUOUS
10
0.984977
20
0.780998
11
0.9852
21
0.781037
0
LINE
8
BLACK
6
CONTINUOUS
10
0.9852
20
0.781037
11
0.985897
21
0.780634
0
LINE
8
BLACK
6
CONTINUOUS
10
0.985897
20
0.780634
11
0.986646
21
0.780338
0
LINE
8
BLACK
6
CONTINUOUS
10
0.986646
20
0.780338
11
0.986753
21
0.78014
0
LINE
8
BLACK
6
CONTINUOUS
10
0.986753
20
0.78014
11
0.986949
21
0.780027
0
LINE
8
BLACK
6
CONTINUOUS
10
0.986949
20
0.780027
11
0.987224
21
0.77927
0
LINE
8
BLACK
6
CONTINUOUS
10
0.987224
20
0.77927
11
0.987608
21
0.778562
0
LINE
8
BLACK
6
CONTINUOUS
10
0.987608
20
0.778562
11
0.987562
21
0.778341
0
LINE
8
BLACK
6
CONTINUOUS
10
0.987562
20
0.778341
11
0.98764
21
0.778129
0
LINE
8
BLACK
6
CONTINUOUS
10
0.98764
20
0.778129
11
0.98764
21
0.762334
0
LINE
8
BLACK
6
CONTINUOUS
10
0.98764
20
0.762334
11
0.99781
21
0.762334
0
LINE
8
BLACK
6
CONTINUOUS
10
0.99781
20
0.762334
11
0.99882
21
0.762156
0
LINE
8
BLACK
6
CONTINUOUS
10
0.99882
20
0.762156
11
1.00037
21
0.760858
0
LINE
8
BLACK
6
CONTINUOUS
10
1.00037
20
0.760858
11
1.00072
21
0.758869
0
LINE
8
BLACK
6
CONTINUOUS
10
1.00072
20
0.758869
11
0.999708
21
0.757119
0
LINE
8
BLACK
6
CONTINUOUS
10
0.999708
20
0.757119
11
0.99781
21
0.756429
0
LINE
8
BLACK
6
CONTINUOUS
10
0.99781
20
0.756429
11
0.98764
21
0.756429
0
LINE
8
BLACK
6
CONTINUOUS
10
0.98764
20
0.756429
11
0.98764
21
0.753757
0
LINE
8
BLACK
6
CONTINUOUS
10
0.98764
20
0.753757
11
0.987462
21
0.752747
0
LINE
8
BLACK
6
CONTINUOUS
10
0.987462
20
0.752747
11
0.986163
21
0.7512
0
LINE
8
BLACK
6
CONTINUOUS
10
0.986163
20
0.7512
11
0.984174
21
0.750849
0
LINE
8
BLACK
6
CONTINUOUS
10
0.984174
20
0.750849
11
0.982425
21
0.751859
0
LINE
8
BLACK
6
CONTINUOUS
10
0.982425
20
0.751859
11
0.981734
21
0.753757
0
LINE
8
BLACK
6
CONTINUOUS
10
0.981734
20
0.753757
11
0.981734
21
0.756429
0
LINE
8
BLACK
6
CONTINUOUS
10
0.981734
20
0.756429
11
0.971564
21
0.756429
0
LINE
8
BLACK
6
CONTINUOUS
10
0.971564
20
0.756429
11
0.970554
21
0.756607
0
LINE
8
BLACK
6
CONTINUOUS
10
0.970554
20
0.756607
11
0.969006
21
0.757905
0
LINE
8
BLACK
6
CONTINUOUS
10
0.969006
20
0.757905
11
0.968656
21
0.759894
0
LINE
8
BLACK
6
CONTINUOUS
10
0.968656
20
0.759894
11
0.969666
21
0.761643
0
LINE
8
BLACK
6
CONTINUOUS
10
0.969666
20
0.761643
11
0.971564
21
0.762334
0
LINE
8
BLACK
6
CONTINUOUS
10
0.971564
20
0.762334
11
0.981734
21
0.762334
0
LINE
8
BLACK
6
CONTINUOUS
10
0.981734
20
0.762334
11
0.981734
21
0.774032
0
LINE
8
BLACK
6
CONTINUOUS
10
0.981734
20
0.774032
11
0.957499
21
0.765954
0
LINE
8
BLACK
6
CONTINUOUS
10
0.957499
20
0.765954
11
0.956485
21
0.765804
0
LINE
8
BLACK
6
CONTINUOUS
10
0.956485
20
0.765804
11
0.954606
21
0.766546
0
LINE
8
BLACK
6
CONTINUOUS
10
0.954606
20
0.766546
11
0.953645
21
0.768322
0
LINE
8
BLACK
6
CONTINUOUS
10
0.953645
20
0.768322
11
0.95405
21
0.770301
0
LINE
8
BLACK
6
CONTINUOUS
10
0.95405
20
0.770301
11
0.955632
21
0.771556
0
LINE
8
BLACK
6
CONTINUOUS
10
0.955632
20
0.771556
11
0.983753
21
0.78093
0
LINE
8
BLACK
6
CONTINUOUS
10
0.983753
20
0.78093
11
0.984768
21
0.781081
0
LINE
8
BLACK
6
CONTINUOUS
10
0.984768
20
0.781081
11
0.984977
21
0.780998
0
LINE
8
BLACK
6
CONTINUOUS
10
0.996149
20
0.819587
11
0.998023
21
0.817712
0
LINE
8
BLACK
6
CONTINUOUS
10
0.998023
20
0.817712
11
0.99853
21
0.816989
0
LINE
8
BLACK
6
CONTINUOUS
10
0.99853
20
0.816989
11
0.998576
21
0.816945
0
LINE
8
BLACK
6
CONTINUOUS
10
0.998576
20
0.816945
11
1.00045
21
0.813195
0
LINE
8
BLACK
6
CONTINUOUS
10
1.00045
20
0.813195
11
1.00074
21
0.812212
0
LINE
8
BLACK
6
CONTINUOUS
10
1.00074
20
0.812212
11
1.0007
21
0.812041
0
LINE
8
BLACK
6
CONTINUOUS
10
1.0007
20
0.812041
11
1.00076
21
0.811875
0
LINE
8
BLACK
6
CONTINUOUS
10
1.00076
20
0.811875
11
1.00076
21
0.800626
0
LINE
8
BLACK
6
CONTINUOUS
10
1.00076
20
0.800626
11
1.00058
21
0.799616
0
LINE
8
BLACK
6
CONTINUOUS
10
1.00058
20
0.799616
11
1.00047
21
0.799481
0
LINE
8
BLACK
6
CONTINUOUS
10
1.00047
20
0.799481
11
1.00045
21
0.799306
0
LINE
8
BLACK
6
CONTINUOUS
10
1.00045
20
0.799306
11
0.998576
21
0.795556
0
LINE
8
BLACK
6
CONTINUOUS
10
0.998576
20
0.795556
11
0.998051
21
0.794847
0
LINE
8
BLACK
6
CONTINUOUS
10
0.998051
20
0.794847
11
0.998023
21
0.794789
0
LINE
8
BLACK
6
CONTINUOUS
10
0.998023
20
0.794789
11
0.996149
21
0.792914
0
LINE
8
BLACK
6
CONTINUOUS
10
0.996149
20
0.792914
11
0.995426
21
0.792408
0
LINE
8
BLACK
6
CONTINUOUS
10
0.995426
20
0.792408
11
0.995381
21
0.792361
0
LINE
8
BLACK
6
CONTINUOUS
10
0.995381
20
0.792361
11
0.991632
21
0.790486
0
LINE
8
BLACK
6
CONTINUOUS
10
0.991632
20
0.790486
11
0.990649
21
0.790194
0
LINE
8
BLACK
6
CONTINUOUS
10
0.990649
20
0.790194
11
0.990477
21
0.790235
0
LINE
8
BLACK
6
CONTINUOUS
10
0.990477
20
0.790235
11
0.990311
21
0.790174
0
LINE
8
BLACK
6
CONTINUOUS
10
0.990311
20
0.790174
11
0.980937
21
0.790174
0
LINE
8
BLACK
6
CONTINUOUS
10
0.980937
20
0.790174
11
0.979927
21
0.790352
0
LINE
8
BLACK
6
CONTINUOUS
10
0.979927
20
0.790352
11
0.979792
21
0.790466
0
LINE
8
BLACK
6
CONTINUOUS
10
0.979792
20
0.790466
11
0.979617
21
0.790486
0
LINE
8
BLACK
6
CONTINUOUS
10
0.979617
20
0.790486
11
0.975867
21
0.792361
0
LINE
8
BLACK
6
CONTINUOUS
10
0.975867
20
0.792361
11
0.975158
21
0.792887
0
LINE
8
BLACK
6
CONTINUOUS
10
0.975158
20
0.792887
11
0.9751
21
0.792914
0
LINE
8
BLACK
6
CONTINUOUS
10
0.9751
20
0.792914
11
0.973225
21
0.794789
0
LINE
8
BLACK
6
CONTINUOUS
10
0.973225
20
0.794789
11
0.972719
21
0.795512
0
LINE
8
BLACK
6
CONTINUOUS
10
0.972719
20
0.795512
11
0.972672
21
0.795556
0
LINE
8
BLACK
6
CONTINUOUS
10
0.972672
20
0.795556
11
0.970797
21
0.799306
0
LINE
8
BLACK
6
CONTINUOUS
10
0.970797
20
0.799306
11
0.97063
21
0.799869
0
LINE
8
BLACK
6
CONTINUOUS
10
0.97063
20
0.799869
11
0.960385
21
0.790905
0
LINE
8
BLACK
6
CONTINUOUS
10
0.960385
20
0.790905
11
0.960005
21
0.790675
0
LINE
8
BLACK
6
CONTINUOUS
10
0.960005
20
0.790675
11
0.959917
21
0.79057
0
LINE
8
BLACK
6
CONTINUOUS
10
0.959917
20
0.79057
11
0.959796
21
0.790549
0
LINE
8
BLACK
6
CONTINUOUS
10
0.959796
20
0.790549
11
0.959507
21
0.790374
0
LINE
8
BLACK
6
CONTINUOUS
10
0.959507
20
0.790374
11
0.958711
21
0.790357
0
LINE
8
BLACK
6
CONTINUOUS
10
0.958711
20
0.790357
11
0.957927
21
0.790219
0
LINE
8
BLACK
6
CONTINUOUS
10
0.957927
20
0.790219
11
0.957723
21
0.790337
0
LINE
8
BLACK
6
CONTINUOUS
10
0.957723
20
0.790337
11
0.957488
21
0.790332
0
LINE
8
BLACK
6
CONTINUOUS
10
0.957488
20
0.790332
11
0.956868
21
0.790831
0
LINE
8
BLACK
6
CONTINUOUS
10
0.956868
20
0.790831
11
0.956178
21
0.791229
0
LINE
8
BLACK
6
CONTINUOUS
10
0.956178
20
0.791229
11
0.956098
21
0.79145
0
LINE
8
BLACK
6
CONTINUOUS
10
0.956098
20
0.79145
11
0.955914
21
0.791598
0
LINE
8
BLACK
6
CONTINUOUS
10
0.955914
20
0.791598
11
0.95576
21
0.792379
0
LINE
8
BLACK
6
CONTINUOUS
10
0.95576
20
0.792379
11
0.955487
21
0.793127
0
LINE
8
BLACK
6
CONTINUOUS
10
0.955487
20
0.793127
11
0.955487
21
0.817499
0
LINE
8
BLACK
6
CONTINUOUS
10
0.955487
20
0.817499
11
0.955665
21
0.818509
0
LINE
8
BLACK
6
CONTINUOUS
10
0.955665
20
0.818509
11
0.956964
21
0.820056
0
LINE
8
BLACK
6
CONTINUOUS
10
0.956964
20
0.820056
11
0.958953
21
0.820407
0
LINE
8
BLACK
6
CONTINUOUS
10
0.958953
20
0.820407
11
0.960702
21
0.819397
0
LINE
8
BLACK
6
CONTINUOUS
10
0.960702
20
0.819397
11
0.961393
21
0.817499
0
LINE
8
BLACK
6
CONTINUOUS
10
0.961393
20
0.817499
11
0.961393
21
0.799634
0
LINE
8
BLACK
6
CONTINUOUS
10
0.961393
20
0.799634
11
0.971494
21
0.808473
0
LINE
8
BLACK
6
CONTINUOUS
10
0.971494
20
0.808473
11
0.971874
21
0.808703
0
LINE
8
BLACK
6
CONTINUOUS
10
0.971874
20
0.808703
11
0.971962
21
0.808808
0
LINE
8
BLACK
6
CONTINUOUS
10
0.971962
20
0.808808
11
0.972082
21
0.808829
0
LINE
8
BLACK
6
CONTINUOUS
10
0.972082
20
0.808829
11
0.972371
21
0.809004
0
LINE
8
BLACK
6
CONTINUOUS
10
0.972371
20
0.809004
11
0.973167
21
0.80902
0
LINE
8
BLACK
6
CONTINUOUS
10
0.973167
20
0.80902
11
0.973951
21
0.809158
0
LINE
8
BLACK
6
CONTINUOUS
10
0.973951
20
0.809158
11
0.974155
21
0.809041
0
LINE
8
BLACK
6
CONTINUOUS
10
0.974155
20
0.809041
11
0.974391
21
0.809045
0
LINE
8
BLACK
6
CONTINUOUS
10
0.974391
20
0.809045
11
0.975011
21
0.808546
0
LINE
8
BLACK
6
CONTINUOUS
10
0.975011
20
0.808546
11
0.9757
21
0.808148
0
LINE
8
BLACK
6
CONTINUOUS
10
0.9757
20
0.808148
11
0.975781
21
0.807927
0
LINE
8
BLACK
6
CONTINUOUS
10
0.975781
20
0.807927
11
0.975964
21
0.807779
0
LINE
8
BLACK
6
CONTINUOUS
10
0.975964
20
0.807779
11
0.976119
21
0.806998
0
LINE
8
BLACK
6
CONTINUOUS
10
0.976119
20
0.806998
11
0.976391
21
0.80625
0
LINE
8
BLACK
6
CONTINUOUS
10
0.976391
20
0.80625
11
0.976391
21
0.801323
0
LINE
8
BLACK
6
CONTINUOUS
10
0.976391
20
0.801323
11
0.97774
21
0.798626
0
LINE
8
BLACK
6
CONTINUOUS
10
0.97774
20
0.798626
11
0.978937
21
0.797429
0
LINE
8
BLACK
6
CONTINUOUS
10
0.978937
20
0.797429
11
0.981634
21
0.79608
0
LINE
8
BLACK
6
CONTINUOUS
10
0.981634
20
0.79608
11
0.989614
21
0.79608
0
LINE
8
BLACK
6
CONTINUOUS
10
0.989614
20
0.79608
11
0.992312
21
0.797429
0
LINE
8
BLACK
6
CONTINUOUS
10
0.992312
20
0.797429
11
0.993509
21
0.798626
0
LINE
8
BLACK
6
CONTINUOUS
10
0.993509
20
0.798626
11
0.994857
21
0.801323
0
LINE
8
BLACK
6
CONTINUOUS
10
0.994857
20
0.801323
11
0.994857
21
0.811178
0
LINE
8
BLACK
6
CONTINUOUS
10
0.994857
20
0.811178
11
0.993509
21
0.813875
0
LINE
8
BLACK
6
CONTINUOUS
10
0.993509
20
0.813875
11
0.991973
21
0.815411
0
LINE
8
BLACK
6
CONTINUOUS
10
0.991973
20
0.815411
11
0.991385
21
0.816251
0
LINE
8
BLACK
6
CONTINUOUS
10
0.991385
20
0.816251
11
0.991209
21
0.818263
0
LINE
8
BLACK
6
CONTINUOUS
10
0.991209
20
0.818263
11
0.992367
21
0.819918
0
LINE
8
BLACK
6
CONTINUOUS
10
0.992367
20
0.819918
11
0.994318
21
0.820441
0
LINE
8
BLACK
6
CONTINUOUS
10
0.994318
20
0.820441
11
0.996149
21
0.819587
0
LINE
8
BLACK
6
CONTINUOUS
10
0.99882
20
0.855894
11
1.00037
21
0.854596
0
LINE
8
BLACK
6
CONTINUOUS
10
1.00037
20
0.854596
11
1.00072
21
0.852607
0
LINE
8
BLACK
6
CONTINUOUS
10
1.00072
20
0.852607
11
0.999708
21
0.850858
0
LINE
8
BLACK
6
CONTINUOUS
10
0.999708
20
0.850858
11
0.99781
21
0.850167
0
LINE
8
BLACK
6
CONTINUOUS
10
0.99781
20
0.850167
11
0.982015
21
0.850167
0
LINE
8
BLACK
6
CONTINUOUS
10
0.982015
20
0.850167
11
0.982015
21
0.838121
0
LINE
8
BLACK
6
CONTINUOUS
10
0.982015
20
0.838121
11
0.981837
21
0.837112
0
LINE
8
BLACK
6
CONTINUOUS
10
0.981837
20
0.837112
11
0.981724
21
0.836976
0
LINE
8
BLACK
6
CONTINUOUS
10
0.981724
20
0.836976
11
0.981704
21
0.836801
0
LINE
8
BLACK
6
CONTINUOUS
10
0.981704
20
0.836801
11
0.979829
21
0.833051
0
LINE
8
BLACK
6
CONTINUOUS
10
0.979829
20
0.833051
11
0.979303
21
0.832342
0
LINE
8
BLACK
6
CONTINUOUS
10
0.979303
20
0.832342
11
0.979276
21
0.832284
0
LINE
8
BLACK
6
CONTINUOUS
10
0.979276
20
0.832284
11
0.977401
21
0.830409
0
LINE
8
BLACK
6
CONTINUOUS
10
0.977401
20
0.830409
11
0.976678
21
0.829903
0
LINE
8
BLACK
6
CONTINUOUS
10
0.976678
20
0.829903
11
0.976634
21
0.829856
0
LINE
8
BLACK
6
CONTINUOUS
10
0.976634
20
0.829856
11
0.972884
21
0.827981
0
LINE
8
BLACK
6
CONTINUOUS
10
0.972884
20
0.827981
11
0.971901
21
0.827689
0
LINE
8
BLACK
6
CONTINUOUS
10
0.971901
20
0.827689
11
0.971729
21
0.82773
0
LINE
8
BLACK
6
CONTINUOUS
10
0.971729
20
0.82773
11
0.971564
21
0.82767
0
LINE
8
BLACK
6
CONTINUOUS
10
0.971564
20
0.82767
11
0.965939
21
0.82767
0
LINE
8
BLACK
6
CONTINUOUS
10
0.965939
20
0.82767
11
0.964929
21
0.827848
0
LINE
8
BLACK
6
CONTINUOUS
10
0.964929
20
0.827848
11
0.964794
21
0.827961
0
LINE
8
BLACK
6
CONTINUOUS
10
0.964794
20
0.827961
11
0.964619
21
0.827981
0
LINE
8
BLACK
6
CONTINUOUS
10
0.964619
20
0.827981
11
0.960869
21
0.829856
0
LINE
8
BLACK
6
CONTINUOUS
10
0.960869
20
0.829856
11
0.96016
21
0.830382
0
LINE
8
BLACK
6
CONTINUOUS
10
0.96016
20
0.830382
11
0.960102
21
0.830409
0
LINE
8
BLACK
6
CONTINUOUS
10
0.960102
20
0.830409
11
0.958227
21
0.832284
0
LINE
8
BLACK
6
CONTINUOUS
10
0.958227
20
0.832284
11
0.957721
21
0.833007
0
LINE
8
BLACK
6
CONTINUOUS
10
0.957721
20
0.833007
11
0.957674
21
0.833051
0
LINE
8
BLACK
6
CONTINUOUS
10
0.957674
20
0.833051
11
0.955799
21
0.836801
0
LINE
8
BLACK
6
CONTINUOUS
10
0.955799
20
0.836801
11
0.955507
21
0.837784
0
LINE
8
BLACK
6
CONTINUOUS
10
0.955507
20
0.837784
11
0.955548
21
0.837956
0
LINE
8
BLACK
6
CONTINUOUS
10
0.955548
20
0.837956
11
0.955487
21
0.838121
0
LINE
8
BLACK
6
CONTINUOUS
10
0.955487
20
0.838121
11
0.955487
21
0.85312
0
LINE
8
BLACK
6
CONTINUOUS
10
0.955487
20
0.85312
11
0.955555
21
0.853503
0
LINE
8
BLACK
6
CONTINUOUS
10
0.955555
20
0.853503
11
0.955532
21
0.853632
0
LINE
8
BLACK
6
CONTINUOUS
10
0.955532
20
0.853632
11
0.955598
21
0.853746
0
LINE
8
BLACK
6
CONTINUOUS
10
0.955598
20
0.853746
11
0.955665
21
0.85413
0
LINE
8
BLACK
6
CONTINUOUS
10
0.955665
20
0.85413
11
0.956159
21
0.854717
0
LINE
8
BLACK
6
CONTINUOUS
10
0.956159
20
0.854717
11
0.956542
21
0.855382
0
LINE
8
BLACK
6
CONTINUOUS
10
0.956542
20
0.855382
11
0.956793
21
0.855473
0
LINE
8
BLACK
6
CONTINUOUS
10
0.956793
20
0.855473
11
0.956964
21
0.855677
0
LINE
8
BLACK
6
CONTINUOUS
10
0.956964
20
0.855677
11
0.957719
21
0.85581
0
LINE
8
BLACK
6
CONTINUOUS
10
0.957719
20
0.85581
11
0.95844
21
0.856072
0
LINE
8
BLACK
6
CONTINUOUS
10
0.95844
20
0.856072
11
0.99781
21
0.856072
0
LINE
8
BLACK
6
CONTINUOUS
10
0.99781
20
0.856072
11
0.99882
21
0.855894
0
LINE
8
BLACK
6
CONTINUOUS
10
0.961393
20
0.850167
11
0.961393
21
0.838819
0
LINE
8
BLACK
6
CONTINUOUS
10
0.961393
20
0.838819
11
0.962742
21
0.836121
0
LINE
8
BLACK
6
CONTINUOUS
10
0.962742
20
0.836121
11
0.963939
21
0.834924
0
LINE
8
BLACK
6
CONTINUOUS
10
0.963939
20
0.834924
11
0.966636
21
0.833575
0
LINE
8
BLACK
6
CONTINUOUS
10
0.966636
20
0.833575
11
0.970866
21
0.833575
0
LINE
8
BLACK
6
CONTINUOUS
10
0.970866
20
0.833575
11
0.973564
21
0.834924
0
LINE
8
BLACK
6
CONTINUOUS
10
0.973564
20
0.834924
11
0.974761
21
0.836121
0
LINE
8
BLACK
6
CONTINUOUS
10
0.974761
20
0.836121
11
0.97611
21
0.838819
0
LINE
8
BLACK
6
CONTINUOUS
10
0.97611
20
0.838819
11
0.97611
21
0.850167
0
LINE
8
BLACK
6
CONTINUOUS
10
0.97611
20
0.850167
11
0.961393
21
0.850167
0
LINE
8
BLACK
6
CONTINUOUS
10
0.981518
20
0.897215
11
0.981654
21
0.897229
0
LINE
8
BLACK
6
CONTINUOUS
10
0.981654
20
0.897229
11
0.989153
21
0.895354
0
LINE
8
BLACK
6
CONTINUOUS
10
0.989153
20
0.895354
11
0.989618
21
0.895147
0
LINE
8
BLACK
6
CONTINUOUS
10
0.989618
20
0.895147
11
0.989757
21
0.895131
0
LINE
8
BLACK
6
CONTINUOUS
10
0.989757
20
0.895131
11
0.993506
21
0.893256
0
LINE
8
BLACK
6
CONTINUOUS
10
0.993506
20
0.893256
11
0.994216
21
0.89273
0
LINE
8
BLACK
6
CONTINUOUS
10
0.994216
20
0.89273
11
0.994274
21
0.892703
0
LINE
8
BLACK
6
CONTINUOUS
10
0.994274
20
0.892703
11
0.998023
21
0.888953
0
LINE
8
BLACK
6
CONTINUOUS
10
0.998023
20
0.888953
11
0.998612
21
0.888113
0
LINE
8
BLACK
6
CONTINUOUS
10
0.998612
20
0.888113
11
0.998627
21
0.887937
0
LINE
8
BLACK
6
CONTINUOUS
10
0.998627
20
0.887937
11
0.998737
21
0.887799
0
LINE
8
BLACK
6
CONTINUOUS
10
0.998737
20
0.887799
11
1.00061
21
0.882175
0
LINE
8
BLACK
6
CONTINUOUS
10
1.00061
20
0.882175
11
1.00074
21
0.881302
0
LINE
8
BLACK
6
CONTINUOUS
10
1.00074
20
0.881302
11
1.00076
21
0.881241
0
LINE
8
BLACK
6
CONTINUOUS
10
1.00076
20
0.881241
11
1.00076
21
0.877492
0
LINE
8
BLACK
6
CONTINUOUS
10
1.00076
20
0.877492
11
1.00061
21
0.876622
0
LINE
8
BLACK
6
CONTINUOUS
10
1.00061
20
0.876622
11
1.00061
21
0.876558
0
LINE
8
BLACK
6
CONTINUOUS
10
1.00061
20
0.876558
11
0.998737
21
0.870934
0
LINE
8
BLACK
6
CONTINUOUS
10
0.998737
20
0.870934
11
0.998248
21
0.870032
0
LINE
8
BLACK
6
CONTINUOUS
10
0.998248
20
0.870032
11
0.998098
21
0.869939
0
LINE
8
BLACK
6
CONTINUOUS
10
0.998098
20
0.869939
11
0.998023
21
0.869779
0
LINE
8
BLACK
6
CONTINUOUS
10
0.998023
20
0.869779
11
0.996149
21
0.867905
0
LINE
8
BLACK
6
CONTINUOUS
10
0.996149
20
0.867905
11
0.995309
21
0.867316
0
LINE
8
BLACK
6
CONTINUOUS
10
0.995309
20
0.867316
11
0.993296
21
0.86714
0
LINE
8
BLACK
6
CONTINUOUS
10
0.993296
20
0.86714
11
0.991642
21
0.868299
0
LINE
8
BLACK
6
CONTINUOUS
10
0.991642
20
0.868299
11
0.991119
21
0.87025
0
LINE
8
BLACK
6
CONTINUOUS
10
0.991119
20
0.87025
11
0.991973
21
0.87208
0
LINE
8
BLACK
6
CONTINUOUS
10
0.991973
20
0.87208
11
0.993355
21
0.873462
0
LINE
8
BLACK
6
CONTINUOUS
10
0.993355
20
0.873462
11
0.994857
21
0.877971
0
LINE
8
BLACK
6
CONTINUOUS
10
0.994857
20
0.877971
11
0.994857
21
0.880762
0
LINE
8
BLACK
6
CONTINUOUS
10
0.994857
20
0.880762
11
0.993355
21
0.88527
0
LINE
8
BLACK
6
CONTINUOUS
10
0.993355
20
0.88527
11
0.990437
21
0.888188
0
LINE
8
BLACK
6
CONTINUOUS
10
0.990437
20
0.888188
11
0.987406
21
0.889704
0
LINE
8
BLACK
6
CONTINUOUS
10
0.987406
20
0.889704
11
0.980574
21
0.891412
0
LINE
8
BLACK
6
CONTINUOUS
10
0.980574
20
0.891412
11
0.975677
21
0.891412
0
LINE
8
BLACK
6
CONTINUOUS
10
0.975677
20
0.891412
11
0.968845
21
0.889704
0
LINE
8
BLACK
6
CONTINUOUS
10
0.968845
20
0.889704
11
0.965814
21
0.888188
0
LINE
8
BLACK
6
CONTINUOUS
10
0.965814
20
0.888188
11
0.962896
21
0.88527
0
LINE
8
BLACK
6
CONTINUOUS
10
0.962896
20
0.88527
11
0.961393
21
0.880762
0
LINE
8
BLACK
6
CONTINUOUS
10
0.961393
20
0.880762
11
0.961393
21
0.877971
0
LINE
8
BLACK
6
CONTINUOUS
10
0.961393
20
0.877971
11
0.962896
21
0.873462
0
LINE
8
BLACK
6
CONTINUOUS
10
0.962896
20
0.873462
11
0.964278
21
0.87208
0
LINE
8
BLACK
6
CONTINUOUS
10
0.964278
20
0.87208
11
0.964866
21
0.87124
0
LINE
8
BLACK
6
CONTINUOUS
10
0.964866
20
0.87124
11
0.965042
21
0.869228
0
LINE
8
BLACK
6
CONTINUOUS
10
0.965042
20
0.869228
11
0.963883
21
0.867574
0
LINE
8
BLACK
6
CONTINUOUS
10
0.963883
20
0.867574
11
0.961932
21
0.867051
0
LINE
8
BLACK
6
CONTINUOUS
10
0.961932
20
0.867051
11
0.960102
21
0.867905
0
LINE
8
BLACK
6
CONTINUOUS
10
0.960102
20
0.867905
11
0.958227
21
0.869779
0
LINE
8
BLACK
6
CONTINUOUS
10
0.958227
20
0.869779
11
0.957639
21
0.870619
0
LINE
8
BLACK
6
CONTINUOUS
10
0.957639
20
0.870619
11
0.957623
21
0.870795
0
LINE
8
BLACK
6
CONTINUOUS
10
0.957623
20
0.870795
11
0.957514
21
0.870934
0
LINE
8
BLACK
6
CONTINUOUS
10
0.957514
20
0.870934
11
0.955639
21
0.876558
0
LINE
8
BLACK
6
CONTINUOUS
10
0.955639
20
0.876558
11
0.955509
21
0.877431
0
LINE
8
BLACK
6
CONTINUOUS
10
0.955509
20
0.877431
11
0.955487
21
0.877492
0
LINE
8
BLACK
6
CONTINUOUS
10
0.955487
20
0.877492
11
0.955487
21
0.881241
0
LINE
8
BLACK
6
CONTINUOUS
10
0.955487
20
0.881241
11
0.955641
21
0.882111
0
LINE
8
BLACK
6
CONTINUOUS
10
0.955641
20
0.882111
11
0.955639
21
0.882175
0
LINE
8
BLACK
6
CONTINUOUS
10
0.955639
20
0.882175
11
0.957514
21
0.887799
0
LINE
8
BLACK
6
CONTINUOUS
10
0.957514
20
0.887799
11
0.958002
21
0.888701
0
LINE
8
BLACK
6
CONTINUOUS
10
0.958002
20
0.888701
11
0.958152
21
0.888793
0
LINE
8
BLACK
6
CONTINUOUS
10
0.958152
20
0.888793
11
0.958227
21
0.888953
0
LINE
8
BLACK
6
CONTINUOUS
10
0.958227
20
0.888953
11
0.961977
21
0.892703
0
LINE
8
BLACK
6
CONTINUOUS
10
0.961977
20
0.892703
11
0.9627
21
0.893209
0
LINE
8
BLACK
6
CONTINUOUS
10
0.9627
20
0.893209
11
0.962744
21
0.893256
0
LINE
8
BLACK
6
CONTINUOUS
10
0.962744
20
0.893256
11
0.966494
21
0.895131
0
LINE
8
BLACK
6
CONTINUOUS
10
0.966494
20
0.895131
11
0.966982
21
0.895276
0
LINE
8
BLACK
6
CONTINUOUS
10
0.966982
20
0.895276
11
0.967098
21
0.895354
0
LINE
8
BLACK
6
CONTINUOUS
10
0.967098
20
0.895354
11
0.974597
21
0.897229
0
LINE
8
BLACK
6
CONTINUOUS
10
0.974597
20
0.897229
11
0.975185
21
0.897271
0
LINE
8
BLACK
6
CONTINUOUS
10
0.975185
20
0.897271
11
0.975313
21
0.897317
0
LINE
8
BLACK
6
CONTINUOUS
10
0.975313
20
0.897317
11
0.980937
21
0.897317
0
LINE
8
BLACK
6
CONTINUOUS
10
0.980937
20
0.897317
11
0.981518
21
0.897215
0
LINE
8
BLACK
6
CONTINUOUS
10
0.99882
20
0.940259
11
1.00037
21
0.93896
0
LINE
8
BLACK
6
CONTINUOUS
10
1.00037
20
0.93896
11
1.00072
21
0.936971
0
LINE
8
BLACK
6
CONTINUOUS
10
1.00072
20
0.936971
11
0.999708
21
0.935222
0
LINE
8
BLACK
6
CONTINUOUS
10
0.999708
20
0.935222
11
0.99781
21
0.934531
0
LINE
8
BLACK
6
CONTINUOUS
10
0.99781
20
0.934531
11
0.97175
21
0.934531
0
LINE
8
BLACK
6
CONTINUOUS
10
0.97175
20
0.934531
11
0.98781
21
0.927036
0
LINE
8
BLACK
6
CONTINUOUS
10
0.98781
20
0.927036
11
0.988128
21
0.926814
0
LINE
8
BLACK
6
CONTINUOUS
10
0.988128
20
0.926814
11
0.988255
21
0.92678
0
LINE
8
BLACK
6
CONTINUOUS
10
0.988255
20
0.92678
11
0.98833
21
0.926672
0
LINE
8
BLACK
6
CONTINUOUS
10
0.98833
20
0.926672
11
0.98865
21
0.926448
0
LINE
8
BLACK
6
CONTINUOUS
10
0.98865
20
0.926448
11
0.988974
21
0.925754
0
LINE
8
BLACK
6
CONTINUOUS
10
0.988974
20
0.925754
11
0.989414
21
0.925126
0
LINE
8
BLACK
6
CONTINUOUS
10
0.989414
20
0.925126
11
0.98939
21
0.924859
0
LINE
8
BLACK
6
CONTINUOUS
10
0.98939
20
0.924859
11
0.989503
21
0.924617
0
LINE
8
BLACK
6
CONTINUOUS
10
0.989503
20
0.924617
11
0.989305
21
0.923877
0
LINE
8
BLACK
6
CONTINUOUS
10
0.989305
20
0.923877
11
0.989238
21
0.923114
0
LINE
8
BLACK
6
CONTINUOUS
10
0.989238
20
0.923114
11
0.989049
21
0.922925
0
LINE
8
BLACK
6
CONTINUOUS
10
0.989049
20
0.922925
11
0.98898
21
0.922666
0
LINE
8
BLACK
6
CONTINUOUS
10
0.98898
20
0.922666
11
0.988352
21
0.922227
0
LINE
8
BLACK
6
CONTINUOUS
10
0.988352
20
0.922227
11
0.98781
21
0.921685
0
LINE
8
BLACK
6
CONTINUOUS
10
0.98781
20
0.921685
11
0.97175
21
0.91419
0
LINE
8
BLACK
6
CONTINUOUS
10
0.97175
20
0.91419
11
0.99781
21
0.91419
0
LINE
8
BLACK
6
CONTINUOUS
10
0.99781
20
0.91419
11
0.99882
21
0.914012
0
LINE
8
BLACK
6
CONTINUOUS
10
0.99882
20
0.914012
11
1.00037
21
0.912714
0
LINE
8
BLACK
6
CONTINUOUS
10
1.00037
20
0.912714
11
1.00072
21
0.910725
0
LINE
8
BLACK
6
CONTINUOUS
10
1.00072
20
0.910725
11
0.999708
21
0.908975
0
LINE
8
BLACK
6
CONTINUOUS
10
0.999708
20
0.908975
11
0.99781
21
0.908285
0
LINE
8
BLACK
6
CONTINUOUS
10
0.99781
20
0.908285
11
0.95844
21
0.908285
0
LINE
8
BLACK
6
CONTINUOUS
10
0.95844
20
0.908285
11
0.95743
21
0.908463
0
LINE
8
BLACK
6
CONTINUOUS
10
0.95743
20
0.908463
11
0.957128
21
0.908716
0
LINE
8
BLACK
6
CONTINUOUS
10
0.957128
20
0.908716
11
0.956747
21
0.908818
0
LINE
8
BLACK
6
CONTINUOUS
10
0.956747
20
0.908818
11
0.956377
21
0.909346
0
LINE
8
BLACK
6
CONTINUOUS
10
0.956377
20
0.909346
11
0.955883
21
0.909761
0
LINE
8
BLACK
6
CONTINUOUS
10
0.955883
20
0.909761
11
0.955815
21
0.910149
0
LINE
8
BLACK
6
CONTINUOUS
10
0.955815
20
0.910149
11
0.955588
21
0.910472
0
LINE
8
BLACK
6
CONTINUOUS
10
0.955588
20
0.910472
11
0.955644
21
0.911115
0
LINE
8
BLACK
6
CONTINUOUS
10
0.955644
20
0.911115
11
0.955532
21
0.91175
0
LINE
8
BLACK
6
CONTINUOUS
10
0.955532
20
0.91175
11
0.955729
21
0.912092
0
LINE
8
BLACK
6
CONTINUOUS
10
0.955729
20
0.912092
11
0.955764
21
0.912484
0
LINE
8
BLACK
6
CONTINUOUS
10
0.955764
20
0.912484
11
0.95622
21
0.912941
0
LINE
8
BLACK
6
CONTINUOUS
10
0.95622
20
0.912941
11
0.956542
21
0.913499
0
LINE
8
BLACK
6
CONTINUOUS
10
0.956542
20
0.913499
11
0.956913
21
0.913634
0
LINE
8
BLACK
6
CONTINUOUS
10
0.956913
20
0.913634
11
0.957191
21
0.913913
0
LINE
8
BLACK
6
CONTINUOUS
10
0.957191
20
0.913913
11
0.979579
21
0.924361
0
LINE
8
BLACK
6
CONTINUOUS
10
0.979579
20
0.924361
11
0.957191
21
0.934808
0
LINE
8
BLACK
6
CONTINUOUS
10
0.957191
20
0.934808
11
0.956352
21
0.935397
0
LINE
8
BLACK
6
CONTINUOUS
10
0.956352
20
0.935397
11
0.956185
21
0.935754
0
LINE
8
BLACK
6
CONTINUOUS
10
0.956185
20
0.935754
11
0.955883
21
0.936008
0
LINE
8
BLACK
6
CONTINUOUS
10
0.955883
20
0.936008
11
0.955771
21
0.936643
0
LINE
8
BLACK
6
CONTINUOUS
10
0.955771
20
0.936643
11
0.955499
21
0.937228
0
LINE
8
BLACK
6
CONTINUOUS
10
0.955499
20
0.937228
11
0.955601
21
0.937609
0
LINE
8
BLACK
6
CONTINUOUS
10
0.955601
20
0.937609
11
0.955532
21
0.937997
0
LINE
8
BLACK
6
CONTINUOUS
10
0.955532
20
0.937997
11
0.955855
21
0.938555
0
LINE
8
BLACK
6
CONTINUOUS
10
0.955855
20
0.938555
11
0.956022
21
0.939178
0
LINE
8
BLACK
6
CONTINUOUS
10
0.956022
20
0.939178
11
0.956345
21
0.939405
0
LINE
8
BLACK
6
CONTINUOUS
10
0.956345
20
0.939405
11
0.956542
21
0.939746
0
LINE
8
BLACK
6
CONTINUOUS
10
0.956542
20
0.939746
11
0.957148
21
0.939967
0
LINE
8
BLACK
6
CONTINUOUS
10
0.957148
20
0.939967
11
0.957677
21
0.940336
0
LINE
8
BLACK
6
CONTINUOUS
10
0.957677
20
0.940336
11
0.95807
21
0.940302
0
LINE
8
BLACK
6
CONTINUOUS
10
0.95807
20
0.940302
11
0.95844
21
0.940437
0
LINE
8
BLACK
6
CONTINUOUS
10
0.95844
20
0.940437
11
0.99781
21
0.940437
0
LINE
8
BLACK
6
CONTINUOUS
10
0.99781
20
0.940437
11
0.99882
21
0.940259
  0
ENDSEC
  0
EOF
