  0
SECTION
  2
HEADER
  9
$ANGBASE
  50
0.0
  9
$ANGDIR
  70
1
  9
$MEASUREMENT
  70
0
  0
ENDSEC
  0
SECTION
  2
TABLES
  0
TABLE
  2
LTYPE
  70
4
  0
LTYPE
  5
40F
  2
CONTINUOUS
  70
0
  3
Solid line
  72
65
  73
0
  40
0.0
  0
LTYPE
  5
410
  2
DASHDOT
 70
0
  3
Dash Dot ____ _ ____ _
 72
65
 73
4
 40
2.0
 49
1.25
 49
-0.25
 49
0.25
 49
-0.25
  0
LTYPE
  5
411
  2
DASHED
 70
0
  3
Dashed __ __ __ __ __
 72
65
 73
2
 40
0.75
 49
0.5
 49
-0.25
  0
LTYPE
  5
43B
  2
DOTTED
 70
0
  3
Dotted .  .  .  .
 72
65
 73
2
 40
0.2
 49
0.0
 49
-0.2
  0
ENDTAB
  0
TABLE
  2
STYLE
  70
4
  0
STYLE
  2
KICAD
  70
0
  40
0
  41
1
  42
1
  50
0
  71
0
  3
isocp.shx
  0
STYLE
  2
KICADB
  70
0
  40
0
  41
1
  42
1
  50
0
  71
0
  3
isocp.shx
  0
STYLE
  2
KICADI
  70
0
  40
0
  41
1
  42
1
  50
15
  71
0
  3
isocp.shx
  0
STYLE
  2
KICADBI
  70
0
  40
0
  41
1
  42
1
  50
15
  71
0
  3
isocp.shx
  0
ENDTAB
  0
TABLE
  2
LAYER
  70
1
  0
LAYER
  2
BLACK
  70
0
  62
7
  6
CONTINUOUS
  0
ENDTAB
  0
ENDSEC
  0
SECTION
  2
ENTITIES
0
LINE
8
BLACK
6
CONTINUOUS
10
1.725
20
0.22
11
1.665
21
0.22
0
LINE
8
BLACK
6
CONTINUOUS
10
1.665
20
0.22
11
1.665
21
0.3
0
LINE
8
BLACK
6
CONTINUOUS
10
1.665
20
0.3
11
1.725
21
0.3
0
LINE
8
BLACK
6
CONTINUOUS
10
1.725
20
0.3
11
1.725
21
0.22
0
LINE
8
BLACK
6
CONTINUOUS
10
1.855
20
0.22
11
1.795
21
0.22
0
LINE
8
BLACK
6
CONTINUOUS
10
1.795
20
0.22
11
1.795
21
0.3
0
LINE
8
BLACK
6
CONTINUOUS
10
1.795
20
0.3
11
1.855
21
0.3
0
LINE
8
BLACK
6
CONTINUOUS
10
1.855
20
0.3
11
1.855
21
0.22
0
LINE
8
BLACK
6
CONTINUOUS
10
0.685
20
0.22
11
0.625
21
0.22
0
LINE
8
BLACK
6
CONTINUOUS
10
0.625
20
0.22
11
0.625
21
0.3
0
LINE
8
BLACK
6
CONTINUOUS
10
0.625
20
0.3
11
0.685
21
0.3
0
LINE
8
BLACK
6
CONTINUOUS
10
0.685
20
0.3
11
0.685
21
0.22
0
LINE
8
BLACK
6
CONTINUOUS
10
0.815
20
0.22
11
0.755
21
0.22
0
LINE
8
BLACK
6
CONTINUOUS
10
0.755
20
0.22
11
0.755
21
0.3
0
LINE
8
BLACK
6
CONTINUOUS
10
0.755
20
0.3
11
0.815
21
0.3
0
LINE
8
BLACK
6
CONTINUOUS
10
0.815
20
0.3
11
0.815
21
0.22
0
LINE
8
BLACK
6
CONTINUOUS
10
0.365
20
0.22
11
0.305
21
0.22
0
LINE
8
BLACK
6
CONTINUOUS
10
0.305
20
0.22
11
0.305
21
0.3
0
LINE
8
BLACK
6
CONTINUOUS
10
0.305
20
0.3
11
0.365
21
0.3
0
LINE
8
BLACK
6
CONTINUOUS
10
0.365
20
0.3
11
0.365
21
0.22
0
LINE
8
BLACK
6
CONTINUOUS
10
0.235
20
0.22
11
0.175
21
0.22
0
LINE
8
BLACK
6
CONTINUOUS
10
0.175
20
0.22
11
0.175
21
0.3
0
LINE
8
BLACK
6
CONTINUOUS
10
0.175
20
0.3
11
0.235
21
0.3
0
LINE
8
BLACK
6
CONTINUOUS
10
0.235
20
0.3
11
0.235
21
0.22
0
LINE
8
BLACK
6
CONTINUOUS
10
1.385
20
0.23
11
1.325
21
0.23
0
LINE
8
BLACK
6
CONTINUOUS
10
1.325
20
0.23
11
1.325
21
0.31
0
LINE
8
BLACK
6
CONTINUOUS
10
1.325
20
0.31
11
1.385
21
0.31
0
LINE
8
BLACK
6
CONTINUOUS
10
1.385
20
0.31
11
1.385
21
0.23
0
LINE
8
BLACK
6
CONTINUOUS
10
1.255
20
0.23
11
1.195
21
0.23
0
LINE
8
BLACK
6
CONTINUOUS
10
1.195
20
0.23
11
1.195
21
0.31
0
LINE
8
BLACK
6
CONTINUOUS
10
1.195
20
0.31
11
1.255
21
0.31
0
LINE
8
BLACK
6
CONTINUOUS
10
1.255
20
0.31
11
1.255
21
0.23
0
LINE
8
BLACK
6
CONTINUOUS
10
1.24345
20
0.4255
11
1.17655
21
0.4255
0
LINE
8
BLACK
6
CONTINUOUS
10
1.17655
20
0.4255
11
1.17655
21
0.4767
0
LINE
8
BLACK
6
CONTINUOUS
10
1.17655
20
0.4767
11
1.24345
21
0.4767
0
LINE
8
BLACK
6
CONTINUOUS
10
1.24345
20
0.4767
11
1.24345
21
0.4255
0
LINE
8
BLACK
6
CONTINUOUS
10
0.02545
20
0.4595
11
-0.04145
21
0.4595
0
LINE
8
BLACK
6
CONTINUOUS
10
-0.04145
20
0.4595
11
-0.04145
21
0.5107
0
LINE
8
BLACK
6
CONTINUOUS
10
-0.04145
20
0.5107
11
0.02545
21
0.5107
0
LINE
8
BLACK
6
CONTINUOUS
10
0.02545
20
0.5107
11
0.02545
21
0.4595
0
LINE
8
BLACK
6
CONTINUOUS
10
1.60745
20
0.4606
11
1.54055
21
0.4606
0
LINE
8
BLACK
6
CONTINUOUS
10
1.54055
20
0.4606
11
1.54055
21
0.5118
0
LINE
8
BLACK
6
CONTINUOUS
10
1.54055
20
0.5118
11
1.60745
21
0.5118
0
LINE
8
BLACK
6
CONTINUOUS
10
1.60745
20
0.5118
11
1.60745
21
0.4606
0
LINE
8
BLACK
6
CONTINUOUS
10
0.31945
20
0.4626
11
0.25255
21
0.4626
0
LINE
8
BLACK
6
CONTINUOUS
10
0.25255
20
0.4626
11
0.25255
21
0.5138
0
LINE
8
BLACK
6
CONTINUOUS
10
0.25255
20
0.5138
11
0.31945
21
0.5138
0
LINE
8
BLACK
6
CONTINUOUS
10
0.31945
20
0.5138
11
0.31945
21
0.4626
0
LINE
8
BLACK
6
CONTINUOUS
10
1.70345
20
0.4635
11
1.63655
21
0.4635
0
LINE
8
BLACK
6
CONTINUOUS
10
1.63655
20
0.4635
11
1.63655
21
0.5147
0
LINE
8
BLACK
6
CONTINUOUS
10
1.63655
20
0.5147
11
1.70345
21
0.5147
0
LINE
8
BLACK
6
CONTINUOUS
10
1.70345
20
0.5147
11
1.70345
21
0.4635
0
LINE
8
BLACK
6
CONTINUOUS
10
0.78745
20
0.4646
11
0.72055
21
0.4646
0
LINE
8
BLACK
6
CONTINUOUS
10
0.72055
20
0.4646
11
0.72055
21
0.5158
0
LINE
8
BLACK
6
CONTINUOUS
10
0.72055
20
0.5158
11
0.78745
21
0.5158
0
LINE
8
BLACK
6
CONTINUOUS
10
0.78745
20
0.5158
11
0.78745
21
0.4646
0
LINE
8
BLACK
6
CONTINUOUS
10
1.99345
20
0.4655
11
1.92655
21
0.4655
0
LINE
8
BLACK
6
CONTINUOUS
10
1.92655
20
0.4655
11
1.92655
21
0.5167
0
LINE
8
BLACK
6
CONTINUOUS
10
1.92655
20
0.5167
11
1.99345
21
0.5167
0
LINE
8
BLACK
6
CONTINUOUS
10
1.99345
20
0.5167
11
1.99345
21
0.4655
0
LINE
8
BLACK
6
CONTINUOUS
10
0.42345
20
0.4655
11
0.35655
21
0.4655
0
LINE
8
BLACK
6
CONTINUOUS
10
0.35655
20
0.4655
11
0.35655
21
0.5167
0
LINE
8
BLACK
6
CONTINUOUS
10
0.35655
20
0.5167
11
0.42345
21
0.5167
0
LINE
8
BLACK
6
CONTINUOUS
10
0.42345
20
0.5167
11
0.42345
21
0.4655
0
LINE
8
BLACK
6
CONTINUOUS
10
1.8775
20
0.505
11
1.8225
21
0.505
0
LINE
8
BLACK
6
CONTINUOUS
10
1.8225
20
0.505
11
1.8225
21
0.54
0
LINE
8
BLACK
6
CONTINUOUS
10
1.8225
20
0.54
11
1.8775
21
0.54
0
LINE
8
BLACK
6
CONTINUOUS
10
1.8775
20
0.54
11
1.8775
21
0.505
0
LINE
8
BLACK
6
CONTINUOUS
10
1.7875
20
0.505
11
1.7325
21
0.505
0
LINE
8
BLACK
6
CONTINUOUS
10
1.7325
20
0.505
11
1.7325
21
0.54
0
LINE
8
BLACK
6
CONTINUOUS
10
1.7325
20
0.54
11
1.7875
21
0.54
0
LINE
8
BLACK
6
CONTINUOUS
10
1.7875
20
0.54
11
1.7875
21
0.505
0
LINE
8
BLACK
6
CONTINUOUS
10
1.5175
20
0.515
11
1.4625
21
0.515
0
LINE
8
BLACK
6
CONTINUOUS
10
1.4625
20
0.515
11
1.4625
21
0.55
0
LINE
8
BLACK
6
CONTINUOUS
10
1.4625
20
0.55
11
1.5175
21
0.55
0
LINE
8
BLACK
6
CONTINUOUS
10
1.5175
20
0.55
11
1.5175
21
0.515
0
LINE
8
BLACK
6
CONTINUOUS
10
1.4175
20
0.515
11
1.3625
21
0.515
0
LINE
8
BLACK
6
CONTINUOUS
10
1.3625
20
0.515
11
1.3625
21
0.55
0
LINE
8
BLACK
6
CONTINUOUS
10
1.3625
20
0.55
11
1.4175
21
0.55
0
LINE
8
BLACK
6
CONTINUOUS
10
1.4175
20
0.55
11
1.4175
21
0.515
0
LINE
8
BLACK
6
CONTINUOUS
10
0.5175
20
0.535
11
0.4625
21
0.535
0
LINE
8
BLACK
6
CONTINUOUS
10
0.4625
20
0.535
11
0.4625
21
0.57
0
LINE
8
BLACK
6
CONTINUOUS
10
0.4625
20
0.57
11
0.5175
21
0.57
0
LINE
8
BLACK
6
CONTINUOUS
10
0.5175
20
0.57
11
0.5175
21
0.535
0
LINE
8
BLACK
6
CONTINUOUS
10
0.1295
20
0.535
11
0.0745
21
0.535
0
LINE
8
BLACK
6
CONTINUOUS
10
0.0745
20
0.535
11
0.0745
21
0.57
0
LINE
8
BLACK
6
CONTINUOUS
10
0.0745
20
0.57
11
0.1295
21
0.57
0
LINE
8
BLACK
6
CONTINUOUS
10
0.1295
20
0.57
11
0.1295
21
0.535
0
LINE
8
BLACK
6
CONTINUOUS
10
0.2295
20
0.535
11
0.1745
21
0.535
0
LINE
8
BLACK
6
CONTINUOUS
10
0.1745
20
0.535
11
0.1745
21
0.57
0
LINE
8
BLACK
6
CONTINUOUS
10
0.1745
20
0.57
11
0.2295
21
0.57
0
LINE
8
BLACK
6
CONTINUOUS
10
0.2295
20
0.57
11
0.2295
21
0.535
0
LINE
8
BLACK
6
CONTINUOUS
10
0.6175
20
0.535
11
0.5625
21
0.535
0
LINE
8
BLACK
6
CONTINUOUS
10
0.5625
20
0.535
11
0.5625
21
0.57
0
LINE
8
BLACK
6
CONTINUOUS
10
0.5625
20
0.57
11
0.6175
21
0.57
0
LINE
8
BLACK
6
CONTINUOUS
10
0.6175
20
0.57
11
0.6175
21
0.535
0
LINE
8
BLACK
6
CONTINUOUS
10
1.24345
20
0.5633
11
1.17655
21
0.5633
0
LINE
8
BLACK
6
CONTINUOUS
10
1.17655
20
0.5633
11
1.17655
21
0.6145
0
LINE
8
BLACK
6
CONTINUOUS
10
1.17655
20
0.6145
11
1.24345
21
0.6145
0
LINE
8
BLACK
6
CONTINUOUS
10
1.24345
20
0.6145
11
1.24345
21
0.5633
0
LINE
8
BLACK
6
CONTINUOUS
10
1.7875
20
0.58
11
1.7325
21
0.58
0
LINE
8
BLACK
6
CONTINUOUS
10
1.7325
20
0.58
11
1.7325
21
0.615
0
LINE
8
BLACK
6
CONTINUOUS
10
1.7325
20
0.615
11
1.7875
21
0.615
0
LINE
8
BLACK
6
CONTINUOUS
10
1.7875
20
0.615
11
1.7875
21
0.58
0
LINE
8
BLACK
6
CONTINUOUS
10
1.8775
20
0.58
11
1.8225
21
0.58
0
LINE
8
BLACK
6
CONTINUOUS
10
1.8225
20
0.58
11
1.8225
21
0.615
0
LINE
8
BLACK
6
CONTINUOUS
10
1.8225
20
0.615
11
1.8775
21
0.615
0
LINE
8
BLACK
6
CONTINUOUS
10
1.8775
20
0.615
11
1.8775
21
0.58
0
LINE
8
BLACK
6
CONTINUOUS
10
1.4175
20
0.59
11
1.3625
21
0.59
0
LINE
8
BLACK
6
CONTINUOUS
10
1.3625
20
0.59
11
1.3625
21
0.625
0
LINE
8
BLACK
6
CONTINUOUS
10
1.3625
20
0.625
11
1.4175
21
0.625
0
LINE
8
BLACK
6
CONTINUOUS
10
1.4175
20
0.625
11
1.4175
21
0.59
0
LINE
8
BLACK
6
CONTINUOUS
10
1.5175
20
0.59
11
1.4625
21
0.59
0
LINE
8
BLACK
6
CONTINUOUS
10
1.4625
20
0.59
11
1.4625
21
0.625
0
LINE
8
BLACK
6
CONTINUOUS
10
1.4625
20
0.625
11
1.5175
21
0.625
0
LINE
8
BLACK
6
CONTINUOUS
10
1.5175
20
0.625
11
1.5175
21
0.59
0
LINE
8
BLACK
6
CONTINUOUS
10
0.02545
20
0.5973
11
-0.04145
21
0.5973
0
LINE
8
BLACK
6
CONTINUOUS
10
-0.04145
20
0.5973
11
-0.04145
21
0.6485
0
LINE
8
BLACK
6
CONTINUOUS
10
-0.04145
20
0.6485
11
0.02545
21
0.6485
0
LINE
8
BLACK
6
CONTINUOUS
10
0.02545
20
0.6485
11
0.02545
21
0.5973
0
LINE
8
BLACK
6
CONTINUOUS
10
1.60745
20
0.5984
11
1.54055
21
0.5984
0
LINE
8
BLACK
6
CONTINUOUS
10
1.54055
20
0.5984
11
1.54055
21
0.6496
0
LINE
8
BLACK
6
CONTINUOUS
10
1.54055
20
0.6496
11
1.60745
21
0.6496
0
LINE
8
BLACK
6
CONTINUOUS
10
1.60745
20
0.6496
11
1.60745
21
0.5984
0
LINE
8
BLACK
6
CONTINUOUS
10
0.31945
20
0.6004
11
0.25255
21
0.6004
0
LINE
8
BLACK
6
CONTINUOUS
10
0.25255
20
0.6004
11
0.25255
21
0.6516
0
LINE
8
BLACK
6
CONTINUOUS
10
0.25255
20
0.6516
11
0.31945
21
0.6516
0
LINE
8
BLACK
6
CONTINUOUS
10
0.31945
20
0.6516
11
0.31945
21
0.6004
0
LINE
8
BLACK
6
CONTINUOUS
10
1.70345
20
0.6013
11
1.63655
21
0.6013
0
LINE
8
BLACK
6
CONTINUOUS
10
1.63655
20
0.6013
11
1.63655
21
0.6525
0
LINE
8
BLACK
6
CONTINUOUS
10
1.63655
20
0.6525
11
1.70345
21
0.6525
0
LINE
8
BLACK
6
CONTINUOUS
10
1.70345
20
0.6525
11
1.70345
21
0.6013
0
LINE
8
BLACK
6
CONTINUOUS
10
0.78745
20
0.6024
11
0.72055
21
0.6024
0
LINE
8
BLACK
6
CONTINUOUS
10
0.72055
20
0.6024
11
0.72055
21
0.6536
0
LINE
8
BLACK
6
CONTINUOUS
10
0.72055
20
0.6536
11
0.78745
21
0.6536
0
LINE
8
BLACK
6
CONTINUOUS
10
0.78745
20
0.6536
11
0.78745
21
0.6024
0
LINE
8
BLACK
6
CONTINUOUS
10
0.42345
20
0.6033
11
0.35655
21
0.6033
0
LINE
8
BLACK
6
CONTINUOUS
10
0.35655
20
0.6033
11
0.35655
21
0.6545
0
LINE
8
BLACK
6
CONTINUOUS
10
0.35655
20
0.6545
11
0.42345
21
0.6545
0
LINE
8
BLACK
6
CONTINUOUS
10
0.42345
20
0.6545
11
0.42345
21
0.6033
0
LINE
8
BLACK
6
CONTINUOUS
10
1.99345
20
0.6033
11
1.92655
21
0.6033
0
LINE
8
BLACK
6
CONTINUOUS
10
1.92655
20
0.6033
11
1.92655
21
0.6545
0
LINE
8
BLACK
6
CONTINUOUS
10
1.92655
20
0.6545
11
1.99345
21
0.6545
0
LINE
8
BLACK
6
CONTINUOUS
10
1.99345
20
0.6545
11
1.99345
21
0.6033
0
LINE
8
BLACK
6
CONTINUOUS
10
0.6175
20
0.61
11
0.5625
21
0.61
0
LINE
8
BLACK
6
CONTINUOUS
10
0.5625
20
0.61
11
0.5625
21
0.645
0
LINE
8
BLACK
6
CONTINUOUS
10
0.5625
20
0.645
11
0.6175
21
0.645
0
LINE
8
BLACK
6
CONTINUOUS
10
0.6175
20
0.645
11
0.6175
21
0.61
0
LINE
8
BLACK
6
CONTINUOUS
10
0.2295
20
0.61
11
0.1745
21
0.61
0
LINE
8
BLACK
6
CONTINUOUS
10
0.1745
20
0.61
11
0.1745
21
0.645
0
LINE
8
BLACK
6
CONTINUOUS
10
0.1745
20
0.645
11
0.2295
21
0.645
0
LINE
8
BLACK
6
CONTINUOUS
10
0.2295
20
0.645
11
0.2295
21
0.61
0
LINE
8
BLACK
6
CONTINUOUS
10
0.1295
20
0.61
11
0.0745
21
0.61
0
LINE
8
BLACK
6
CONTINUOUS
10
0.0745
20
0.61
11
0.0745
21
0.645
0
LINE
8
BLACK
6
CONTINUOUS
10
0.0745
20
0.645
11
0.1295
21
0.645
0
LINE
8
BLACK
6
CONTINUOUS
10
0.1295
20
0.645
11
0.1295
21
0.61
0
LINE
8
BLACK
6
CONTINUOUS
10
0.5175
20
0.61
11
0.4625
21
0.61
0
LINE
8
BLACK
6
CONTINUOUS
10
0.4625
20
0.61
11
0.4625
21
0.645
0
LINE
8
BLACK
6
CONTINUOUS
10
0.4625
20
0.645
11
0.5175
21
0.645
0
LINE
8
BLACK
6
CONTINUOUS
10
0.5175
20
0.645
11
0.5175
21
0.61
0
LINE
8
BLACK
6
CONTINUOUS
10
0.9225
20
0.648189
11
0.8775
21
0.648189
0
LINE
8
BLACK
6
CONTINUOUS
10
0.8775
20
0.648189
11
0.8775
21
0.671811
0
LINE
8
BLACK
6
CONTINUOUS
10
0.8775
20
0.671811
11
0.9225
21
0.671811
0
LINE
8
BLACK
6
CONTINUOUS
10
0.9225
20
0.671811
11
0.9225
21
0.648189
0
LINE
8
BLACK
6
CONTINUOUS
10
1.1725
20
0.648189
11
1.1275
21
0.648189
0
LINE
8
BLACK
6
CONTINUOUS
10
1.1275
20
0.648189
11
1.1275
21
0.671811
0
LINE
8
BLACK
6
CONTINUOUS
10
1.1275
20
0.671811
11
1.1725
21
0.671811
0
LINE
8
BLACK
6
CONTINUOUS
10
1.1725
20
0.671811
11
1.1725
21
0.648189
0
LINE
8
BLACK
6
CONTINUOUS
10
1.505
20
0.6625
11
1.47
21
0.6625
0
LINE
8
BLACK
6
CONTINUOUS
10
1.47
20
0.6625
11
1.47
21
0.7175
0
LINE
8
BLACK
6
CONTINUOUS
10
1.47
20
0.7175
11
1.505
21
0.7175
0
LINE
8
BLACK
6
CONTINUOUS
10
1.505
20
0.7175
11
1.505
21
0.6625
0
LINE
8
BLACK
6
CONTINUOUS
10
1.43
20
0.6625
11
1.395
21
0.6625
0
LINE
8
BLACK
6
CONTINUOUS
10
1.395
20
0.6625
11
1.395
21
0.7175
0
LINE
8
BLACK
6
CONTINUOUS
10
1.395
20
0.7175
11
1.43
21
0.7175
0
LINE
8
BLACK
6
CONTINUOUS
10
1.43
20
0.7175
11
1.43
21
0.6625
0
LINE
8
BLACK
6
CONTINUOUS
10
1.71
20
0.6725
11
1.675
21
0.6725
0
LINE
8
BLACK
6
CONTINUOUS
10
1.675
20
0.6725
11
1.675
21
0.7275
0
LINE
8
BLACK
6
CONTINUOUS
10
1.675
20
0.7275
11
1.71
21
0.7275
0
LINE
8
BLACK
6
CONTINUOUS
10
1.71
20
0.7275
11
1.71
21
0.6725
0
LINE
8
BLACK
6
CONTINUOUS
10
1.785
20
0.6725
11
1.75
21
0.6725
0
LINE
8
BLACK
6
CONTINUOUS
10
1.75
20
0.6725
11
1.75
21
0.7275
0
LINE
8
BLACK
6
CONTINUOUS
10
1.75
20
0.7275
11
1.785
21
0.7275
0
LINE
8
BLACK
6
CONTINUOUS
10
1.785
20
0.7275
11
1.785
21
0.6725
0
LINE
8
BLACK
6
CONTINUOUS
10
0.1985
20
0.6725
11
0.1635
21
0.6725
0
LINE
8
BLACK
6
CONTINUOUS
10
0.1635
20
0.6725
11
0.1635
21
0.7275
0
LINE
8
BLACK
6
CONTINUOUS
10
0.1635
20
0.7275
11
0.1985
21
0.7275
0
LINE
8
BLACK
6
CONTINUOUS
10
0.1985
20
0.7275
11
0.1985
21
0.6725
0
LINE
8
BLACK
6
CONTINUOUS
10
0.2735
20
0.6725
11
0.2385
21
0.6725
0
LINE
8
BLACK
6
CONTINUOUS
10
0.2385
20
0.6725
11
0.2385
21
0.7275
0
LINE
8
BLACK
6
CONTINUOUS
10
0.2385
20
0.7275
11
0.2735
21
0.7275
0
LINE
8
BLACK
6
CONTINUOUS
10
0.2735
20
0.7275
11
0.2735
21
0.6725
0
LINE
8
BLACK
6
CONTINUOUS
10
1.29
20
0.6725
11
1.255
21
0.6725
0
LINE
8
BLACK
6
CONTINUOUS
10
1.255
20
0.6725
11
1.255
21
0.7275
0
LINE
8
BLACK
6
CONTINUOUS
10
1.255
20
0.7275
11
1.29
21
0.7275
0
LINE
8
BLACK
6
CONTINUOUS
10
1.29
20
0.7275
11
1.29
21
0.6725
0
LINE
8
BLACK
6
CONTINUOUS
10
1.365
20
0.6725
11
1.33
21
0.6725
0
LINE
8
BLACK
6
CONTINUOUS
10
1.33
20
0.6725
11
1.33
21
0.7275
0
LINE
8
BLACK
6
CONTINUOUS
10
1.33
20
0.7275
11
1.365
21
0.7275
0
LINE
8
BLACK
6
CONTINUOUS
10
1.365
20
0.7275
11
1.365
21
0.6725
0
LINE
8
BLACK
6
CONTINUOUS
10
0.505
20
0.6725
11
0.47
21
0.6725
0
LINE
8
BLACK
6
CONTINUOUS
10
0.47
20
0.6725
11
0.47
21
0.7275
0
LINE
8
BLACK
6
CONTINUOUS
10
0.47
20
0.7275
11
0.505
21
0.7275
0
LINE
8
BLACK
6
CONTINUOUS
10
0.505
20
0.7275
11
0.505
21
0.6725
0
LINE
8
BLACK
6
CONTINUOUS
10
0.43
20
0.6725
11
0.395
21
0.6725
0
LINE
8
BLACK
6
CONTINUOUS
10
0.395
20
0.6725
11
0.395
21
0.7275
0
LINE
8
BLACK
6
CONTINUOUS
10
0.395
20
0.7275
11
0.43
21
0.7275
0
LINE
8
BLACK
6
CONTINUOUS
10
0.43
20
0.7275
11
0.43
21
0.6725
0
LINE
8
BLACK
6
CONTINUOUS
10
0.1125
20
0.6825
11
0.0775
21
0.6825
0
LINE
8
BLACK
6
CONTINUOUS
10
0.0775
20
0.6825
11
0.0775
21
0.7375
0
LINE
8
BLACK
6
CONTINUOUS
10
0.0775
20
0.7375
11
0.1125
21
0.7375
0
LINE
8
BLACK
6
CONTINUOUS
10
0.1125
20
0.7375
11
0.1125
21
0.6825
0
LINE
8
BLACK
6
CONTINUOUS
10
0.0375
20
0.6825
11
0.0025
21
0.6825
0
LINE
8
BLACK
6
CONTINUOUS
10
0.0025
20
0.6825
11
0.0025
21
0.7375
0
LINE
8
BLACK
6
CONTINUOUS
10
0.0025
20
0.7375
11
0.0375
21
0.7375
0
LINE
8
BLACK
6
CONTINUOUS
10
0.0375
20
0.7375
11
0.0375
21
0.6825
0
LINE
8
BLACK
6
CONTINUOUS
10
1.6175
20
0.695
11
1.5625
21
0.695
0
LINE
8
BLACK
6
CONTINUOUS
10
1.5625
20
0.695
11
1.5625
21
0.73
0
LINE
8
BLACK
6
CONTINUOUS
10
1.5625
20
0.73
11
1.6175
21
0.73
0
LINE
8
BLACK
6
CONTINUOUS
10
1.6175
20
0.73
11
1.6175
21
0.695
0
LINE
8
BLACK
6
CONTINUOUS
10
0.9225
20
0.698189
11
0.8775
21
0.698189
0
LINE
8
BLACK
6
CONTINUOUS
10
0.8775
20
0.698189
11
0.8775
21
0.721811
0
LINE
8
BLACK
6
CONTINUOUS
10
0.8775
20
0.721811
11
0.9225
21
0.721811
0
LINE
8
BLACK
6
CONTINUOUS
10
0.9225
20
0.721811
11
0.9225
21
0.698189
0
LINE
8
BLACK
6
CONTINUOUS
10
1.1725
20
0.698189
11
1.1275
21
0.698189
0
LINE
8
BLACK
6
CONTINUOUS
10
1.1275
20
0.698189
11
1.1275
21
0.721811
0
LINE
8
BLACK
6
CONTINUOUS
10
1.1275
20
0.721811
11
1.1725
21
0.721811
0
LINE
8
BLACK
6
CONTINUOUS
10
1.1725
20
0.721811
11
1.1725
21
0.698189
0
LINE
8
BLACK
6
CONTINUOUS
10
0.3615
20
0.709
11
0.3065
21
0.709
0
LINE
8
BLACK
6
CONTINUOUS
10
0.3065
20
0.709
11
0.3065
21
0.744
0
LINE
8
BLACK
6
CONTINUOUS
10
0.3065
20
0.744
11
0.3615
21
0.744
0
LINE
8
BLACK
6
CONTINUOUS
10
0.3615
20
0.744
11
0.3615
21
0.709
0
LINE
8
BLACK
6
CONTINUOUS
10
0.57
20
0.7225
11
0.535
21
0.7225
0
LINE
8
BLACK
6
CONTINUOUS
10
0.535
20
0.7225
11
0.535
21
0.7775
0
LINE
8
BLACK
6
CONTINUOUS
10
0.535
20
0.7775
11
0.57
21
0.7775
0
LINE
8
BLACK
6
CONTINUOUS
10
0.57
20
0.7775
11
0.57
21
0.7225
0
LINE
8
BLACK
6
CONTINUOUS
10
0.645
20
0.7225
11
0.61
21
0.7225
0
LINE
8
BLACK
6
CONTINUOUS
10
0.61
20
0.7225
11
0.61
21
0.7775
0
LINE
8
BLACK
6
CONTINUOUS
10
0.61
20
0.7775
11
0.645
21
0.7775
0
LINE
8
BLACK
6
CONTINUOUS
10
0.645
20
0.7775
11
0.645
21
0.7225
0
LINE
8
BLACK
6
CONTINUOUS
10
1.87
20
0.7325
11
1.835
21
0.7325
0
LINE
8
BLACK
6
CONTINUOUS
10
1.835
20
0.7325
11
1.835
21
0.7875
0
LINE
8
BLACK
6
CONTINUOUS
10
1.835
20
0.7875
11
1.87
21
0.7875
0
LINE
8
BLACK
6
CONTINUOUS
10
1.87
20
0.7875
11
1.87
21
0.7325
0
LINE
8
BLACK
6
CONTINUOUS
10
1.945
20
0.7325
11
1.91
21
0.7325
0
LINE
8
BLACK
6
CONTINUOUS
10
1.91
20
0.7325
11
1.91
21
0.7875
0
LINE
8
BLACK
6
CONTINUOUS
10
1.91
20
0.7875
11
1.945
21
0.7875
0
LINE
8
BLACK
6
CONTINUOUS
10
1.945
20
0.7875
11
1.945
21
0.7325
0
LINE
8
BLACK
6
CONTINUOUS
10
0.9225
20
0.748189
11
0.8775
21
0.748189
0
LINE
8
BLACK
6
CONTINUOUS
10
0.8775
20
0.748189
11
0.8775
21
0.771811
0
LINE
8
BLACK
6
CONTINUOUS
10
0.8775
20
0.771811
11
0.9225
21
0.771811
0
LINE
8
BLACK
6
CONTINUOUS
10
0.9225
20
0.771811
11
0.9225
21
0.748189
0
LINE
8
BLACK
6
CONTINUOUS
10
1.1725
20
0.748189
11
1.1275
21
0.748189
0
LINE
8
BLACK
6
CONTINUOUS
10
1.1275
20
0.748189
11
1.1275
21
0.771811
0
LINE
8
BLACK
6
CONTINUOUS
10
1.1275
20
0.771811
11
1.1725
21
0.771811
0
LINE
8
BLACK
6
CONTINUOUS
10
1.1725
20
0.771811
11
1.1725
21
0.748189
0
LINE
8
BLACK
6
CONTINUOUS
10
1.785
20
0.7485
11
1.75
21
0.7485
0
LINE
8
BLACK
6
CONTINUOUS
10
1.75
20
0.7485
11
1.75
21
0.8035
0
LINE
8
BLACK
6
CONTINUOUS
10
1.75
20
0.8035
11
1.785
21
0.8035
0
LINE
8
BLACK
6
CONTINUOUS
10
1.785
20
0.8035
11
1.785
21
0.7485
0
LINE
8
BLACK
6
CONTINUOUS
10
1.71
20
0.7485
11
1.675
21
0.7485
0
LINE
8
BLACK
6
CONTINUOUS
10
1.675
20
0.7485
11
1.675
21
0.8035
0
LINE
8
BLACK
6
CONTINUOUS
10
1.675
20
0.8035
11
1.71
21
0.8035
0
LINE
8
BLACK
6
CONTINUOUS
10
1.71
20
0.8035
11
1.71
21
0.7485
0
LINE
8
BLACK
6
CONTINUOUS
10
1.5035
20
0.7505
11
1.4685
21
0.7505
0
LINE
8
BLACK
6
CONTINUOUS
10
1.4685
20
0.7505
11
1.4685
21
0.8055
0
LINE
8
BLACK
6
CONTINUOUS
10
1.4685
20
0.8055
11
1.5035
21
0.8055
0
LINE
8
BLACK
6
CONTINUOUS
10
1.5035
20
0.8055
11
1.5035
21
0.7505
0
LINE
8
BLACK
6
CONTINUOUS
10
1.4285
20
0.7505
11
1.3935
21
0.7505
0
LINE
8
BLACK
6
CONTINUOUS
10
1.3935
20
0.7505
11
1.3935
21
0.8055
0
LINE
8
BLACK
6
CONTINUOUS
10
1.3935
20
0.8055
11
1.4285
21
0.8055
0
LINE
8
BLACK
6
CONTINUOUS
10
1.4285
20
0.8055
11
1.4285
21
0.7505
0
LINE
8
BLACK
6
CONTINUOUS
10
0.2735
20
0.7525
11
0.2385
21
0.7525
0
LINE
8
BLACK
6
CONTINUOUS
10
0.2385
20
0.7525
11
0.2385
21
0.8075
0
LINE
8
BLACK
6
CONTINUOUS
10
0.2385
20
0.8075
11
0.2735
21
0.8075
0
LINE
8
BLACK
6
CONTINUOUS
10
0.2735
20
0.8075
11
0.2735
21
0.7525
0
LINE
8
BLACK
6
CONTINUOUS
10
0.1985
20
0.7525
11
0.1635
21
0.7525
0
LINE
8
BLACK
6
CONTINUOUS
10
0.1635
20
0.7525
11
0.1635
21
0.8075
0
LINE
8
BLACK
6
CONTINUOUS
10
0.1635
20
0.8075
11
0.1985
21
0.8075
0
LINE
8
BLACK
6
CONTINUOUS
10
0.1985
20
0.8075
11
0.1985
21
0.7525
0
LINE
8
BLACK
6
CONTINUOUS
10
0.43
20
0.7625
11
0.395
21
0.7625
0
LINE
8
BLACK
6
CONTINUOUS
10
0.395
20
0.7625
11
0.395
21
0.8175
0
LINE
8
BLACK
6
CONTINUOUS
10
0.395
20
0.8175
11
0.43
21
0.8175
0
LINE
8
BLACK
6
CONTINUOUS
10
0.43
20
0.8175
11
0.43
21
0.7625
0
LINE
8
BLACK
6
CONTINUOUS
10
0.505
20
0.7625
11
0.47
21
0.7625
0
LINE
8
BLACK
6
CONTINUOUS
10
0.47
20
0.7625
11
0.47
21
0.8175
0
LINE
8
BLACK
6
CONTINUOUS
10
0.47
20
0.8175
11
0.505
21
0.8175
0
LINE
8
BLACK
6
CONTINUOUS
10
0.505
20
0.8175
11
0.505
21
0.7625
0
LINE
8
BLACK
6
CONTINUOUS
10
1.6175
20
0.77
11
1.5625
21
0.77
0
LINE
8
BLACK
6
CONTINUOUS
10
1.5625
20
0.77
11
1.5625
21
0.805
0
LINE
8
BLACK
6
CONTINUOUS
10
1.5625
20
0.805
11
1.6175
21
0.805
0
LINE
8
BLACK
6
CONTINUOUS
10
1.6175
20
0.805
11
1.6175
21
0.77
0
LINE
8
BLACK
6
CONTINUOUS
10
1.365
20
0.7725
11
1.33
21
0.7725
0
LINE
8
BLACK
6
CONTINUOUS
10
1.33
20
0.7725
11
1.33
21
0.8275
0
LINE
8
BLACK
6
CONTINUOUS
10
1.33
20
0.8275
11
1.365
21
0.8275
0
LINE
8
BLACK
6
CONTINUOUS
10
1.365
20
0.8275
11
1.365
21
0.7725
0
LINE
8
BLACK
6
CONTINUOUS
10
1.29
20
0.7725
11
1.255
21
0.7725
0
LINE
8
BLACK
6
CONTINUOUS
10
1.255
20
0.7725
11
1.255
21
0.8275
0
LINE
8
BLACK
6
CONTINUOUS
10
1.255
20
0.8275
11
1.29
21
0.8275
0
LINE
8
BLACK
6
CONTINUOUS
10
1.29
20
0.8275
11
1.29
21
0.7725
0
LINE
8
BLACK
6
CONTINUOUS
10
0.0375
20
0.7825
11
0.0025
21
0.7825
0
LINE
8
BLACK
6
CONTINUOUS
10
0.0025
20
0.7825
11
0.0025
21
0.8375
0
LINE
8
BLACK
6
CONTINUOUS
10
0.0025
20
0.8375
11
0.0375
21
0.8375
0
LINE
8
BLACK
6
CONTINUOUS
10
0.0375
20
0.8375
11
0.0375
21
0.7825
0
LINE
8
BLACK
6
CONTINUOUS
10
0.1125
20
0.7825
11
0.0775
21
0.7825
0
LINE
8
BLACK
6
CONTINUOUS
10
0.0775
20
0.7825
11
0.0775
21
0.8375
0
LINE
8
BLACK
6
CONTINUOUS
10
0.0775
20
0.8375
11
0.1125
21
0.8375
0
LINE
8
BLACK
6
CONTINUOUS
10
0.1125
20
0.8375
11
0.1125
21
0.7825
0
LINE
8
BLACK
6
CONTINUOUS
10
0.3615
20
0.784
11
0.3065
21
0.784
0
LINE
8
BLACK
6
CONTINUOUS
10
0.3065
20
0.784
11
0.3065
21
0.819
0
LINE
8
BLACK
6
CONTINUOUS
10
0.3065
20
0.819
11
0.3615
21
0.819
0
LINE
8
BLACK
6
CONTINUOUS
10
0.3615
20
0.819
11
0.3615
21
0.784
0
LINE
8
BLACK
6
CONTINUOUS
10
0.9225
20
0.798189
11
0.8775
21
0.798189
0
LINE
8
BLACK
6
CONTINUOUS
10
0.8775
20
0.798189
11
0.8775
21
0.821811
0
LINE
8
BLACK
6
CONTINUOUS
10
0.8775
20
0.821811
11
0.9225
21
0.821811
0
LINE
8
BLACK
6
CONTINUOUS
10
0.9225
20
0.821811
11
0.9225
21
0.798189
0
LINE
8
BLACK
6
CONTINUOUS
10
1.1725
20
0.798189
11
1.1275
21
0.798189
0
LINE
8
BLACK
6
CONTINUOUS
10
1.1275
20
0.798189
11
1.1275
21
0.821811
0
LINE
8
BLACK
6
CONTINUOUS
10
1.1275
20
0.821811
11
1.1725
21
0.821811
0
LINE
8
BLACK
6
CONTINUOUS
10
1.1725
20
0.821811
11
1.1725
21
0.798189
0
LINE
8
BLACK
6
CONTINUOUS
10
0.57
20
0.8225
11
0.535
21
0.8225
0
LINE
8
BLACK
6
CONTINUOUS
10
0.535
20
0.8225
11
0.535
21
0.8775
0
LINE
8
BLACK
6
CONTINUOUS
10
0.535
20
0.8775
11
0.57
21
0.8775
0
LINE
8
BLACK
6
CONTINUOUS
10
0.57
20
0.8775
11
0.57
21
0.8225
0
LINE
8
BLACK
6
CONTINUOUS
10
0.645
20
0.8225
11
0.61
21
0.8225
0
LINE
8
BLACK
6
CONTINUOUS
10
0.61
20
0.8225
11
0.61
21
0.8775
0
LINE
8
BLACK
6
CONTINUOUS
10
0.61
20
0.8775
11
0.645
21
0.8775
0
LINE
8
BLACK
6
CONTINUOUS
10
0.645
20
0.8775
11
0.645
21
0.8225
0
LINE
8
BLACK
6
CONTINUOUS
10
1.945
20
0.8225
11
1.91
21
0.8225
0
LINE
8
BLACK
6
CONTINUOUS
10
1.91
20
0.8225
11
1.91
21
0.8775
0
LINE
8
BLACK
6
CONTINUOUS
10
1.91
20
0.8775
11
1.945
21
0.8775
0
LINE
8
BLACK
6
CONTINUOUS
10
1.945
20
0.8775
11
1.945
21
0.8225
0
LINE
8
BLACK
6
CONTINUOUS
10
1.87
20
0.8225
11
1.835
21
0.8225
0
LINE
8
BLACK
6
CONTINUOUS
10
1.835
20
0.8225
11
1.835
21
0.8775
0
LINE
8
BLACK
6
CONTINUOUS
10
1.835
20
0.8775
11
1.87
21
0.8775
0
LINE
8
BLACK
6
CONTINUOUS
10
1.87
20
0.8775
11
1.87
21
0.8225
0
LINE
8
BLACK
6
CONTINUOUS
10
0.8075
20
0.8275
11
0.7525
21
0.8275
0
LINE
8
BLACK
6
CONTINUOUS
10
0.7525
20
0.8275
11
0.7525
21
0.8625
0
LINE
8
BLACK
6
CONTINUOUS
10
0.7525
20
0.8625
11
0.8075
21
0.8625
0
LINE
8
BLACK
6
CONTINUOUS
10
0.8075
20
0.8625
11
0.8075
21
0.8275
0
LINE
8
BLACK
6
CONTINUOUS
10
1.72681
20
0.843189
11
1.66579
21
0.843189
0
LINE
8
BLACK
6
CONTINUOUS
10
1.66579
20
0.843189
11
1.66579
21
0.866811
0
LINE
8
BLACK
6
CONTINUOUS
10
1.66579
20
0.866811
11
1.72681
21
0.866811
0
LINE
8
BLACK
6
CONTINUOUS
10
1.72681
20
0.866811
11
1.72681
21
0.843189
0
LINE
8
BLACK
6
CONTINUOUS
10
1.51421
20
0.843189
11
1.45319
21
0.843189
0
LINE
8
BLACK
6
CONTINUOUS
10
1.45319
20
0.843189
11
1.45319
21
0.866811
0
LINE
8
BLACK
6
CONTINUOUS
10
1.45319
20
0.866811
11
1.51421
21
0.866811
0
LINE
8
BLACK
6
CONTINUOUS
10
1.51421
20
0.866811
11
1.51421
21
0.843189
0
LINE
8
BLACK
6
CONTINUOUS
10
0.9225
20
0.848189
11
0.8775
21
0.848189
0
LINE
8
BLACK
6
CONTINUOUS
10
0.8775
20
0.848189
11
0.8775
21
0.871811
0
LINE
8
BLACK
6
CONTINUOUS
10
0.8775
20
0.871811
11
0.9225
21
0.871811
0
LINE
8
BLACK
6
CONTINUOUS
10
0.9225
20
0.871811
11
0.9225
21
0.848189
0
LINE
8
BLACK
6
CONTINUOUS
10
1.1725
20
0.848189
11
1.1275
21
0.848189
0
LINE
8
BLACK
6
CONTINUOUS
10
1.1275
20
0.848189
11
1.1275
21
0.871811
0
LINE
8
BLACK
6
CONTINUOUS
10
1.1275
20
0.871811
11
1.1725
21
0.871811
0
LINE
8
BLACK
6
CONTINUOUS
10
1.1725
20
0.871811
11
1.1725
21
0.848189
0
LINE
8
BLACK
6
CONTINUOUS
10
0.456811
20
0.863189
11
0.395787
21
0.863189
0
LINE
8
BLACK
6
CONTINUOUS
10
0.395787
20
0.863189
11
0.395787
21
0.886811
0
LINE
8
BLACK
6
CONTINUOUS
10
0.395787
20
0.886811
11
0.456811
21
0.886811
0
LINE
8
BLACK
6
CONTINUOUS
10
0.456811
20
0.886811
11
0.456811
21
0.863189
0
LINE
8
BLACK
6
CONTINUOUS
10
0.244213
20
0.863189
11
0.183189
21
0.863189
0
LINE
8
BLACK
6
CONTINUOUS
10
0.183189
20
0.863189
11
0.183189
21
0.886811
0
LINE
8
BLACK
6
CONTINUOUS
10
0.183189
20
0.886811
11
0.244213
21
0.886811
0
LINE
8
BLACK
6
CONTINUOUS
10
0.244213
20
0.886811
11
0.244213
21
0.863189
0
LINE
8
BLACK
6
CONTINUOUS
10
1.51421
20
0.893189
11
1.45319
21
0.893189
0
LINE
8
BLACK
6
CONTINUOUS
10
1.45319
20
0.893189
11
1.45319
21
0.916811
0
LINE
8
BLACK
6
CONTINUOUS
10
1.45319
20
0.916811
11
1.51421
21
0.916811
0
LINE
8
BLACK
6
CONTINUOUS
10
1.51421
20
0.916811
11
1.51421
21
0.893189
0
LINE
8
BLACK
6
CONTINUOUS
10
1.72681
20
0.893189
11
1.66579
21
0.893189
0
LINE
8
BLACK
6
CONTINUOUS
10
1.66579
20
0.893189
11
1.66579
21
0.916811
0
LINE
8
BLACK
6
CONTINUOUS
10
1.66579
20
0.916811
11
1.72681
21
0.916811
0
LINE
8
BLACK
6
CONTINUOUS
10
1.72681
20
0.916811
11
1.72681
21
0.893189
0
LINE
8
BLACK
6
CONTINUOUS
10
1.1725
20
0.898189
11
1.1275
21
0.898189
0
LINE
8
BLACK
6
CONTINUOUS
10
1.1275
20
0.898189
11
1.1275
21
0.921811
0
LINE
8
BLACK
6
CONTINUOUS
10
1.1275
20
0.921811
11
1.1725
21
0.921811
0
LINE
8
BLACK
6
CONTINUOUS
10
1.1725
20
0.921811
11
1.1725
21
0.898189
0
LINE
8
BLACK
6
CONTINUOUS
10
0.9225
20
0.898189
11
0.8775
21
0.898189
0
LINE
8
BLACK
6
CONTINUOUS
10
0.8775
20
0.898189
11
0.8775
21
0.921811
0
LINE
8
BLACK
6
CONTINUOUS
10
0.8775
20
0.921811
11
0.9225
21
0.921811
0
LINE
8
BLACK
6
CONTINUOUS
10
0.9225
20
0.921811
11
0.9225
21
0.898189
0
LINE
8
BLACK
6
CONTINUOUS
10
0.8075
20
0.9025
11
0.7525
21
0.9025
0
LINE
8
BLACK
6
CONTINUOUS
10
0.7525
20
0.9025
11
0.7525
21
0.9375
0
LINE
8
BLACK
6
CONTINUOUS
10
0.7525
20
0.9375
11
0.8075
21
0.9375
0
LINE
8
BLACK
6
CONTINUOUS
10
0.8075
20
0.9375
11
0.8075
21
0.9025
0
LINE
8
BLACK
6
CONTINUOUS
10
0.244213
20
0.913189
11
0.183189
21
0.913189
0
LINE
8
BLACK
6
CONTINUOUS
10
0.183189
20
0.913189
11
0.183189
21
0.936811
0
LINE
8
BLACK
6
CONTINUOUS
10
0.183189
20
0.936811
11
0.244213
21
0.936811
0
LINE
8
BLACK
6
CONTINUOUS
10
0.244213
20
0.936811
11
0.244213
21
0.913189
0
LINE
8
BLACK
6
CONTINUOUS
10
0.456811
20
0.913189
11
0.395787
21
0.913189
0
LINE
8
BLACK
6
CONTINUOUS
10
0.395787
20
0.913189
11
0.395787
21
0.936811
0
LINE
8
BLACK
6
CONTINUOUS
10
0.395787
20
0.936811
11
0.456811
21
0.936811
0
LINE
8
BLACK
6
CONTINUOUS
10
0.456811
20
0.936811
11
0.456811
21
0.913189
0
LINE
8
BLACK
6
CONTINUOUS
10
1.72681
20
0.943189
11
1.66579
21
0.943189
0
LINE
8
BLACK
6
CONTINUOUS
10
1.66579
20
0.943189
11
1.66579
21
0.966811
0
LINE
8
BLACK
6
CONTINUOUS
10
1.66579
20
0.966811
11
1.72681
21
0.966811
0
LINE
8
BLACK
6
CONTINUOUS
10
1.72681
20
0.966811
11
1.72681
21
0.943189
0
LINE
8
BLACK
6
CONTINUOUS
10
1.51421
20
0.943189
11
1.45319
21
0.943189
0
LINE
8
BLACK
6
CONTINUOUS
10
1.45319
20
0.943189
11
1.45319
21
0.966811
0
LINE
8
BLACK
6
CONTINUOUS
10
1.45319
20
0.966811
11
1.51421
21
0.966811
0
LINE
8
BLACK
6
CONTINUOUS
10
1.51421
20
0.966811
11
1.51421
21
0.943189
0
LINE
8
BLACK
6
CONTINUOUS
10
0.9225
20
0.948189
11
0.8775
21
0.948189
0
LINE
8
BLACK
6
CONTINUOUS
10
0.8775
20
0.948189
11
0.8775
21
0.971811
0
LINE
8
BLACK
6
CONTINUOUS
10
0.8775
20
0.971811
11
0.9225
21
0.971811
0
LINE
8
BLACK
6
CONTINUOUS
10
0.9225
20
0.971811
11
0.9225
21
0.948189
0
LINE
8
BLACK
6
CONTINUOUS
10
1.1725
20
0.948189
11
1.1275
21
0.948189
0
LINE
8
BLACK
6
CONTINUOUS
10
1.1275
20
0.948189
11
1.1275
21
0.971811
0
LINE
8
BLACK
6
CONTINUOUS
10
1.1275
20
0.971811
11
1.1725
21
0.971811
0
LINE
8
BLACK
6
CONTINUOUS
10
1.1725
20
0.971811
11
1.1725
21
0.948189
0
LINE
8
BLACK
6
CONTINUOUS
10
0.456811
20
0.963189
11
0.395787
21
0.963189
0
LINE
8
BLACK
6
CONTINUOUS
10
0.395787
20
0.963189
11
0.395787
21
0.986811
0
LINE
8
BLACK
6
CONTINUOUS
10
0.395787
20
0.986811
11
0.456811
21
0.986811
0
LINE
8
BLACK
6
CONTINUOUS
10
0.456811
20
0.986811
11
0.456811
21
0.963189
0
LINE
8
BLACK
6
CONTINUOUS
10
0.244213
20
0.963189
11
0.183189
21
0.963189
0
LINE
8
BLACK
6
CONTINUOUS
10
0.183189
20
0.963189
11
0.183189
21
0.986811
0
LINE
8
BLACK
6
CONTINUOUS
10
0.183189
20
0.986811
11
0.244213
21
0.986811
0
LINE
8
BLACK
6
CONTINUOUS
10
0.244213
20
0.986811
11
0.244213
21
0.963189
0
LINE
8
BLACK
6
CONTINUOUS
10
0.8075
20
0.9725
11
0.7525
21
0.9725
0
LINE
8
BLACK
6
CONTINUOUS
10
0.7525
20
0.9725
11
0.7525
21
1.0075
0
LINE
8
BLACK
6
CONTINUOUS
10
0.7525
20
1.0075
11
0.8075
21
1.0075
0
LINE
8
BLACK
6
CONTINUOUS
10
0.8075
20
1.0075
11
0.8075
21
0.9725
0
LINE
8
BLACK
6
CONTINUOUS
10
1.72681
20
0.993189
11
1.66579
21
0.993189
0
LINE
8
BLACK
6
CONTINUOUS
10
1.66579
20
0.993189
11
1.66579
21
1.01681
0
LINE
8
BLACK
6
CONTINUOUS
10
1.66579
20
1.01681
11
1.72681
21
1.01681
0
LINE
8
BLACK
6
CONTINUOUS
10
1.72681
20
1.01681
11
1.72681
21
0.993189
0
LINE
8
BLACK
6
CONTINUOUS
10
1.51421
20
0.993189
11
1.45319
21
0.993189
0
LINE
8
BLACK
6
CONTINUOUS
10
1.45319
20
0.993189
11
1.45319
21
1.01681
0
LINE
8
BLACK
6
CONTINUOUS
10
1.45319
20
1.01681
11
1.51421
21
1.01681
0
LINE
8
BLACK
6
CONTINUOUS
10
1.51421
20
1.01681
11
1.51421
21
0.993189
0
LINE
8
BLACK
6
CONTINUOUS
10
0.7175
20
1.0025
11
0.6625
21
1.0025
0
LINE
8
BLACK
6
CONTINUOUS
10
0.6625
20
1.0025
11
0.6625
21
1.0375
0
LINE
8
BLACK
6
CONTINUOUS
10
0.6625
20
1.0375
11
0.7175
21
1.0375
0
LINE
8
BLACK
6
CONTINUOUS
10
0.7175
20
1.0375
11
0.7175
21
1.0025
0
LINE
8
BLACK
6
CONTINUOUS
10
0.244213
20
1.01319
11
0.183189
21
1.01319
0
LINE
8
BLACK
6
CONTINUOUS
10
0.183189
20
1.01319
11
0.183189
21
1.03681
0
LINE
8
BLACK
6
CONTINUOUS
10
0.183189
20
1.03681
11
0.244213
21
1.03681
0
LINE
8
BLACK
6
CONTINUOUS
10
0.244213
20
1.03681
11
0.244213
21
1.01319
0
LINE
8
BLACK
6
CONTINUOUS
10
0.456811
20
1.01319
11
0.395787
21
1.01319
0
LINE
8
BLACK
6
CONTINUOUS
10
0.395787
20
1.01319
11
0.395787
21
1.03681
0
LINE
8
BLACK
6
CONTINUOUS
10
0.395787
20
1.03681
11
0.456811
21
1.03681
0
LINE
8
BLACK
6
CONTINUOUS
10
0.456811
20
1.03681
11
0.456811
21
1.01319
0
LINE
8
BLACK
6
CONTINUOUS
10
1.125
20
1.0325
11
1.09
21
1.0325
0
LINE
8
BLACK
6
CONTINUOUS
10
1.09
20
1.0325
11
1.09
21
1.0875
0
LINE
8
BLACK
6
CONTINUOUS
10
1.09
20
1.0875
11
1.125
21
1.0875
0
LINE
8
BLACK
6
CONTINUOUS
10
1.125
20
1.0875
11
1.125
21
1.0325
0
LINE
8
BLACK
6
CONTINUOUS
10
1.05
20
1.0325
11
1.015
21
1.0325
0
LINE
8
BLACK
6
CONTINUOUS
10
1.015
20
1.0325
11
1.015
21
1.0875
0
LINE
8
BLACK
6
CONTINUOUS
10
1.015
20
1.0875
11
1.05
21
1.0875
0
LINE
8
BLACK
6
CONTINUOUS
10
1.05
20
1.0875
11
1.05
21
1.0325
0
LINE
8
BLACK
6
CONTINUOUS
10
0.985
20
1.0325
11
0.95
21
1.0325
0
LINE
8
BLACK
6
CONTINUOUS
10
0.95
20
1.0325
11
0.95
21
1.0875
0
LINE
8
BLACK
6
CONTINUOUS
10
0.95
20
1.0875
11
0.985
21
1.0875
0
LINE
8
BLACK
6
CONTINUOUS
10
0.985
20
1.0875
11
0.985
21
1.0325
0
LINE
8
BLACK
6
CONTINUOUS
10
0.91
20
1.0325
11
0.875
21
1.0325
0
LINE
8
BLACK
6
CONTINUOUS
10
0.875
20
1.0325
11
0.875
21
1.0875
0
LINE
8
BLACK
6
CONTINUOUS
10
0.875
20
1.0875
11
0.91
21
1.0875
0
LINE
8
BLACK
6
CONTINUOUS
10
0.91
20
1.0875
11
0.91
21
1.0325
0
LINE
8
BLACK
6
CONTINUOUS
10
0.8075
20
1.0475
11
0.7525
21
1.0475
0
LINE
8
BLACK
6
CONTINUOUS
10
0.7525
20
1.0475
11
0.7525
21
1.0825
0
LINE
8
BLACK
6
CONTINUOUS
10
0.7525
20
1.0825
11
0.8075
21
1.0825
0
LINE
8
BLACK
6
CONTINUOUS
10
0.8075
20
1.0825
11
0.8075
21
1.0475
0
LINE
8
BLACK
6
CONTINUOUS
10
0.7175
20
1.0775
11
0.6625
21
1.0775
0
LINE
8
BLACK
6
CONTINUOUS
10
0.6625
20
1.0775
11
0.6625
21
1.1125
0
LINE
8
BLACK
6
CONTINUOUS
10
0.6625
20
1.1125
11
0.7175
21
1.1125
0
LINE
8
BLACK
6
CONTINUOUS
10
0.7175
20
1.1125
11
0.7175
21
1.0775
0
LINE
8
BLACK
6
CONTINUOUS
10
0.68345
20
1.1355
11
0.61655
21
1.1355
0
LINE
8
BLACK
6
CONTINUOUS
10
0.61655
20
1.1355
11
0.61655
21
1.1867
0
LINE
8
BLACK
6
CONTINUOUS
10
0.61655
20
1.1867
11
0.68345
21
1.1867
0
LINE
8
BLACK
6
CONTINUOUS
10
0.68345
20
1.1867
11
0.68345
21
1.1355
0
LINE
8
BLACK
6
CONTINUOUS
10
1.7375
20
1.155
11
1.6825
21
1.155
0
LINE
8
BLACK
6
CONTINUOUS
10
1.6825
20
1.155
11
1.6825
21
1.19
0
LINE
8
BLACK
6
CONTINUOUS
10
1.6825
20
1.19
11
1.7375
21
1.19
0
LINE
8
BLACK
6
CONTINUOUS
10
1.7375
20
1.19
11
1.7375
21
1.155
0
LINE
8
BLACK
6
CONTINUOUS
10
1.4235
20
1.1595
11
1.3685
21
1.1595
0
LINE
8
BLACK
6
CONTINUOUS
10
1.3685
20
1.1595
11
1.3685
21
1.1945
0
LINE
8
BLACK
6
CONTINUOUS
10
1.3685
20
1.1945
11
1.4235
21
1.1945
0
LINE
8
BLACK
6
CONTINUOUS
10
1.4235
20
1.1945
11
1.4235
21
1.1595
0
LINE
8
BLACK
6
CONTINUOUS
10
1.7375
20
1.23
11
1.6825
21
1.23
0
LINE
8
BLACK
6
CONTINUOUS
10
1.6825
20
1.23
11
1.6825
21
1.265
0
LINE
8
BLACK
6
CONTINUOUS
10
1.6825
20
1.265
11
1.7375
21
1.265
0
LINE
8
BLACK
6
CONTINUOUS
10
1.7375
20
1.265
11
1.7375
21
1.23
0
LINE
8
BLACK
6
CONTINUOUS
10
1.4235
20
1.2345
11
1.3685
21
1.2345
0
LINE
8
BLACK
6
CONTINUOUS
10
1.3685
20
1.2345
11
1.3685
21
1.2695
0
LINE
8
BLACK
6
CONTINUOUS
10
1.3685
20
1.2695
11
1.4235
21
1.2695
0
LINE
8
BLACK
6
CONTINUOUS
10
1.4235
20
1.2695
11
1.4235
21
1.2345
0
LINE
8
BLACK
6
CONTINUOUS
10
0.68345
20
1.2733
11
0.61655
21
1.2733
0
LINE
8
BLACK
6
CONTINUOUS
10
0.61655
20
1.2733
11
0.61655
21
1.3245
0
LINE
8
BLACK
6
CONTINUOUS
10
0.61655
20
1.3245
11
0.68345
21
1.3245
0
LINE
8
BLACK
6
CONTINUOUS
10
0.68345
20
1.3245
11
0.68345
21
1.2733
  0
ENDSEC
  0
EOF
