  0
SECTION
  2
HEADER
  9
$ANGBASE
  50
0.0
  9
$ANGDIR
  70
1
  9
$MEASUREMENT
  70
0
  0
ENDSEC
  0
SECTION
  2
TABLES
  0
TABLE
  2
LTYPE
  70
4
  0
LTYPE
  5
40F
  2
CONTINUOUS
  70
0
  3
Solid line
  72
65
  73
0
  40
0.0
  0
LTYPE
  5
410
  2
DASHDOT
 70
0
  3
Dash Dot ____ _ ____ _
 72
65
 73
4
 40
2.0
 49
1.25
 49
-0.25
 49
0.25
 49
-0.25
  0
LTYPE
  5
411
  2
DASHED
 70
0
  3
Dashed __ __ __ __ __
 72
65
 73
2
 40
0.75
 49
0.5
 49
-0.25
  0
LTYPE
  5
43B
  2
DOTTED
 70
0
  3
Dotted .  .  .  .
 72
65
 73
2
 40
0.2
 49
0.0
 49
-0.2
  0
ENDTAB
  0
TABLE
  2
STYLE
  70
4
  0
STYLE
  2
KICAD
  70
0
  40
0
  41
1
  42
1
  50
0
  71
0
  3
isocp.shx
  0
STYLE
  2
KICADB
  70
0
  40
0
  41
1
  42
1
  50
0
  71
0
  3
isocp.shx
  0
STYLE
  2
KICADI
  70
0
  40
0
  41
1
  42
1
  50
15
  71
0
  3
isocp.shx
  0
STYLE
  2
KICADBI
  70
0
  40
0
  41
1
  42
1
  50
15
  71
0
  3
isocp.shx
  0
ENDTAB
  0
TABLE
  2
LAYER
  70
1
  0
LAYER
  2
BLACK
  70
0
  62
7
  6
CONTINUOUS
  0
ENDTAB
  0
ENDSEC
  0
SECTION
  2
ENTITIES
0
LINE
8
BLACK
6
CONTINUOUS
10
0.0205096
20
0.116316
11
0.0338744
21
0.113148
0
LINE
8
BLACK
6
CONTINUOUS
10
0.0338744
20
0.113148
11
0.0467811
21
0.108451
0
LINE
8
BLACK
6
CONTINUOUS
10
0.0467811
20
0.108451
11
0.0590551
21
0.102286
0
LINE
8
BLACK
6
CONTINUOUS
10
0.0590551
20
0.102286
11
0.0705306
21
0.094739
0
LINE
8
BLACK
6
CONTINUOUS
10
0.0705306
20
0.094739
11
0.0810522
21
0.0859103
0
LINE
8
BLACK
6
CONTINUOUS
10
0.0810522
20
0.0859103
11
0.0904777
21
0.0759198
0
LINE
8
BLACK
6
CONTINUOUS
10
0.0904777
20
0.0759198
11
0.0986796
21
0.0649026
0
LINE
8
BLACK
6
CONTINUOUS
10
0.0986796
20
0.0649026
11
0.105547
21
0.0530078
0
LINE
8
BLACK
6
CONTINUOUS
10
0.105547
20
0.0530078
11
0.110987
21
0.0403961
0
LINE
8
BLACK
6
CONTINUOUS
10
0.110987
20
0.0403961
11
0.114927
21
0.0272381
0
LINE
8
BLACK
6
CONTINUOUS
10
0.114927
20
0.0272381
11
0.117312
21
0.0137118
0
LINE
8
BLACK
6
CONTINUOUS
10
0.117312
20
0.0137118
11
0.11811
21
0
0
LINE
8
BLACK
6
CONTINUOUS
10
0.11811
20
0
11
0.117312
21
-0.0137118
0
LINE
8
BLACK
6
CONTINUOUS
10
0.117312
20
-0.0137118
11
0.114927
21
-0.0272381
0
LINE
8
BLACK
6
CONTINUOUS
10
0.114927
20
-0.0272381
11
0.110987
21
-0.0403961
0
LINE
8
BLACK
6
CONTINUOUS
10
0.110987
20
-0.0403961
11
0.105547
21
-0.0530078
0
LINE
8
BLACK
6
CONTINUOUS
10
0.105547
20
-0.0530078
11
0.0986796
21
-0.0649026
0
LINE
8
BLACK
6
CONTINUOUS
10
0.0986796
20
-0.0649026
11
0.0904777
21
-0.0759198
0
LINE
8
BLACK
6
CONTINUOUS
10
0.0904777
20
-0.0759198
11
0.0810522
21
-0.0859103
0
LINE
8
BLACK
6
CONTINUOUS
10
0.0810522
20
-0.0859103
11
0.0705306
21
-0.094739
0
LINE
8
BLACK
6
CONTINUOUS
10
0.0705306
20
-0.094739
11
0.0590551
21
-0.102286
0
LINE
8
BLACK
6
CONTINUOUS
10
0.0590551
20
-0.102286
11
0.0467811
21
-0.108451
0
LINE
8
BLACK
6
CONTINUOUS
10
0.0467811
20
-0.108451
11
0.0338744
21
-0.113148
0
LINE
8
BLACK
6
CONTINUOUS
10
0.0338744
20
-0.113148
11
0.0205096
21
-0.116316
0
LINE
8
BLACK
6
CONTINUOUS
10
0.0205096
20
-0.116316
11
0.00686748
21
-0.11791
0
LINE
8
BLACK
6
CONTINUOUS
10
0.00686748
20
-0.11791
11
-0.00686748
21
-0.11791
0
LINE
8
BLACK
6
CONTINUOUS
10
-0.00686748
20
-0.11791
11
-0.0205096
21
-0.116316
0
LINE
8
BLACK
6
CONTINUOUS
10
-0.0205096
20
-0.116316
11
-0.0338744
21
-0.113148
0
LINE
8
BLACK
6
CONTINUOUS
10
-0.0338744
20
-0.113148
11
-0.0467811
21
-0.108451
0
LINE
8
BLACK
6
CONTINUOUS
10
-0.0467811
20
-0.108451
11
-0.0590551
21
-0.102286
0
LINE
8
BLACK
6
CONTINUOUS
10
-0.0590551
20
-0.102286
11
-0.0705306
21
-0.094739
0
LINE
8
BLACK
6
CONTINUOUS
10
-0.0705306
20
-0.094739
11
-0.0810522
21
-0.0859103
0
LINE
8
BLACK
6
CONTINUOUS
10
-0.0810522
20
-0.0859103
11
-0.0904777
21
-0.0759198
0
LINE
8
BLACK
6
CONTINUOUS
10
-0.0904777
20
-0.0759198
11
-0.0986796
21
-0.0649026
0
LINE
8
BLACK
6
CONTINUOUS
10
-0.0986796
20
-0.0649026
11
-0.105547
21
-0.0530078
0
LINE
8
BLACK
6
CONTINUOUS
10
-0.105547
20
-0.0530078
11
-0.110987
21
-0.0403961
0
LINE
8
BLACK
6
CONTINUOUS
10
-0.110987
20
-0.0403961
11
-0.114927
21
-0.0272381
0
LINE
8
BLACK
6
CONTINUOUS
10
-0.114927
20
-0.0272381
11
-0.117312
21
-0.0137118
0
LINE
8
BLACK
6
CONTINUOUS
10
-0.117312
20
-0.0137118
11
-0.11811
21
0
0
LINE
8
BLACK
6
CONTINUOUS
10
-0.11811
20
0
11
-0.117312
21
0.0137118
0
LINE
8
BLACK
6
CONTINUOUS
10
-0.117312
20
0.0137118
11
-0.114927
21
0.0272381
0
LINE
8
BLACK
6
CONTINUOUS
10
-0.114927
20
0.0272381
11
-0.110987
21
0.0403961
0
LINE
8
BLACK
6
CONTINUOUS
10
-0.110987
20
0.0403961
11
-0.105547
21
0.0530078
0
LINE
8
BLACK
6
CONTINUOUS
10
-0.105547
20
0.0530078
11
-0.0986796
21
0.0649026
0
LINE
8
BLACK
6
CONTINUOUS
10
-0.0986796
20
0.0649026
11
-0.0904777
21
0.0759198
0
LINE
8
BLACK
6
CONTINUOUS
10
-0.0904777
20
0.0759198
11
-0.0810522
21
0.0859103
0
LINE
8
BLACK
6
CONTINUOUS
10
-0.0810522
20
0.0859103
11
-0.0705306
21
0.094739
0
LINE
8
BLACK
6
CONTINUOUS
10
-0.0705306
20
0.094739
11
-0.0590551
21
0.102286
0
LINE
8
BLACK
6
CONTINUOUS
10
-0.0590551
20
0.102286
11
-0.0467811
21
0.108451
0
LINE
8
BLACK
6
CONTINUOUS
10
-0.0467811
20
0.108451
11
-0.0338744
21
0.113148
0
LINE
8
BLACK
6
CONTINUOUS
10
-0.0338744
20
0.113148
11
-0.0205096
21
0.116316
0
LINE
8
BLACK
6
CONTINUOUS
10
-0.0205096
20
0.116316
11
-0.00686748
21
0.11791
0
LINE
8
BLACK
6
CONTINUOUS
10
-0.00686748
20
0.11791
11
0.00686748
21
0.11791
0
LINE
8
BLACK
6
CONTINUOUS
10
0.00686748
20
0.11791
11
0.0205096
21
0.116316
0
LINE
8
BLACK
6
CONTINUOUS
10
2.02051
20
0.116316
11
2.03387
21
0.113148
0
LINE
8
BLACK
6
CONTINUOUS
10
2.03387
20
0.113148
11
2.04678
21
0.108451
0
LINE
8
BLACK
6
CONTINUOUS
10
2.04678
20
0.108451
11
2.05906
21
0.102286
0
LINE
8
BLACK
6
CONTINUOUS
10
2.05906
20
0.102286
11
2.07053
21
0.094739
0
LINE
8
BLACK
6
CONTINUOUS
10
2.07053
20
0.094739
11
2.08105
21
0.0859103
0
LINE
8
BLACK
6
CONTINUOUS
10
2.08105
20
0.0859103
11
2.09048
21
0.0759198
0
LINE
8
BLACK
6
CONTINUOUS
10
2.09048
20
0.0759198
11
2.09868
21
0.0649026
0
LINE
8
BLACK
6
CONTINUOUS
10
2.09868
20
0.0649026
11
2.10555
21
0.0530078
0
LINE
8
BLACK
6
CONTINUOUS
10
2.10555
20
0.0530078
11
2.11099
21
0.0403961
0
LINE
8
BLACK
6
CONTINUOUS
10
2.11099
20
0.0403961
11
2.11493
21
0.0272381
0
LINE
8
BLACK
6
CONTINUOUS
10
2.11493
20
0.0272381
11
2.11731
21
0.0137118
0
LINE
8
BLACK
6
CONTINUOUS
10
2.11731
20
0.0137118
11
2.11811
21
0
0
LINE
8
BLACK
6
CONTINUOUS
10
2.11811
20
0
11
2.11731
21
-0.0137118
0
LINE
8
BLACK
6
CONTINUOUS
10
2.11731
20
-0.0137118
11
2.11493
21
-0.0272381
0
LINE
8
BLACK
6
CONTINUOUS
10
2.11493
20
-0.0272381
11
2.11099
21
-0.0403961
0
LINE
8
BLACK
6
CONTINUOUS
10
2.11099
20
-0.0403961
11
2.10555
21
-0.0530078
0
LINE
8
BLACK
6
CONTINUOUS
10
2.10555
20
-0.0530078
11
2.09868
21
-0.0649026
0
LINE
8
BLACK
6
CONTINUOUS
10
2.09868
20
-0.0649026
11
2.09048
21
-0.0759198
0
LINE
8
BLACK
6
CONTINUOUS
10
2.09048
20
-0.0759198
11
2.08105
21
-0.0859103
0
LINE
8
BLACK
6
CONTINUOUS
10
2.08105
20
-0.0859103
11
2.07053
21
-0.094739
0
LINE
8
BLACK
6
CONTINUOUS
10
2.07053
20
-0.094739
11
2.05906
21
-0.102286
0
LINE
8
BLACK
6
CONTINUOUS
10
2.05906
20
-0.102286
11
2.04678
21
-0.108451
0
LINE
8
BLACK
6
CONTINUOUS
10
2.04678
20
-0.108451
11
2.03387
21
-0.113148
0
LINE
8
BLACK
6
CONTINUOUS
10
2.03387
20
-0.113148
11
2.02051
21
-0.116316
0
LINE
8
BLACK
6
CONTINUOUS
10
2.02051
20
-0.116316
11
2.00687
21
-0.11791
0
LINE
8
BLACK
6
CONTINUOUS
10
2.00687
20
-0.11791
11
1.99313
21
-0.11791
0
LINE
8
BLACK
6
CONTINUOUS
10
1.99313
20
-0.11791
11
1.97949
21
-0.116316
0
LINE
8
BLACK
6
CONTINUOUS
10
1.97949
20
-0.116316
11
1.96613
21
-0.113148
0
LINE
8
BLACK
6
CONTINUOUS
10
1.96613
20
-0.113148
11
1.95322
21
-0.108451
0
LINE
8
BLACK
6
CONTINUOUS
10
1.95322
20
-0.108451
11
1.94094
21
-0.102286
0
LINE
8
BLACK
6
CONTINUOUS
10
1.94094
20
-0.102286
11
1.92947
21
-0.094739
0
LINE
8
BLACK
6
CONTINUOUS
10
1.92947
20
-0.094739
11
1.91895
21
-0.0859103
0
LINE
8
BLACK
6
CONTINUOUS
10
1.91895
20
-0.0859103
11
1.90952
21
-0.0759198
0
LINE
8
BLACK
6
CONTINUOUS
10
1.90952
20
-0.0759198
11
1.90132
21
-0.0649026
0
LINE
8
BLACK
6
CONTINUOUS
10
1.90132
20
-0.0649026
11
1.89445
21
-0.0530078
0
LINE
8
BLACK
6
CONTINUOUS
10
1.89445
20
-0.0530078
11
1.88901
21
-0.0403961
0
LINE
8
BLACK
6
CONTINUOUS
10
1.88901
20
-0.0403961
11
1.88507
21
-0.0272381
0
LINE
8
BLACK
6
CONTINUOUS
10
1.88507
20
-0.0272381
11
1.88269
21
-0.0137118
0
LINE
8
BLACK
6
CONTINUOUS
10
1.88269
20
-0.0137118
11
1.88189
21
0
0
LINE
8
BLACK
6
CONTINUOUS
10
1.88189
20
0
11
1.88269
21
0.0137118
0
LINE
8
BLACK
6
CONTINUOUS
10
1.88269
20
0.0137118
11
1.88507
21
0.0272381
0
LINE
8
BLACK
6
CONTINUOUS
10
1.88507
20
0.0272381
11
1.88901
21
0.0403961
0
LINE
8
BLACK
6
CONTINUOUS
10
1.88901
20
0.0403961
11
1.89445
21
0.0530078
0
LINE
8
BLACK
6
CONTINUOUS
10
1.89445
20
0.0530078
11
1.90132
21
0.0649026
0
LINE
8
BLACK
6
CONTINUOUS
10
1.90132
20
0.0649026
11
1.90952
21
0.0759198
0
LINE
8
BLACK
6
CONTINUOUS
10
1.90952
20
0.0759198
11
1.91895
21
0.0859103
0
LINE
8
BLACK
6
CONTINUOUS
10
1.91895
20
0.0859103
11
1.92947
21
0.094739
0
LINE
8
BLACK
6
CONTINUOUS
10
1.92947
20
0.094739
11
1.94094
21
0.102286
0
LINE
8
BLACK
6
CONTINUOUS
10
1.94094
20
0.102286
11
1.95322
21
0.108451
0
LINE
8
BLACK
6
CONTINUOUS
10
1.95322
20
0.108451
11
1.96613
21
0.113148
0
LINE
8
BLACK
6
CONTINUOUS
10
1.96613
20
0.113148
11
1.97949
21
0.116316
0
LINE
8
BLACK
6
CONTINUOUS
10
1.97949
20
0.116316
11
1.99313
21
0.11791
0
LINE
8
BLACK
6
CONTINUOUS
10
1.99313
20
0.11791
11
2.00687
21
0.11791
0
LINE
8
BLACK
6
CONTINUOUS
10
2.00687
20
0.11791
11
2.02051
21
0.116316
0
LINE
8
BLACK
6
CONTINUOUS
10
1.2165
20
0.548468
11
1.22267
21
0.546308
0
LINE
8
BLACK
6
CONTINUOUS
10
1.22267
20
0.546308
11
1.22821
21
0.542829
0
LINE
8
BLACK
6
CONTINUOUS
10
1.22821
20
0.542829
11
1.23283
21
0.538206
0
LINE
8
BLACK
6
CONTINUOUS
10
1.23283
20
0.538206
11
1.23631
21
0.532669
0
LINE
8
BLACK
6
CONTINUOUS
10
1.23631
20
0.532669
11
1.23847
21
0.526498
0
LINE
8
BLACK
6
CONTINUOUS
10
1.23847
20
0.526498
11
1.2392
21
0.52
0
LINE
8
BLACK
6
CONTINUOUS
10
1.2392
20
0.52
11
1.23847
21
0.513502
0
LINE
8
BLACK
6
CONTINUOUS
10
1.23847
20
0.513502
11
1.23631
21
0.507331
0
LINE
8
BLACK
6
CONTINUOUS
10
1.23631
20
0.507331
11
1.23283
21
0.501794
0
LINE
8
BLACK
6
CONTINUOUS
10
1.23283
20
0.501794
11
1.22821
21
0.497171
0
LINE
8
BLACK
6
CONTINUOUS
10
1.22821
20
0.497171
11
1.22267
21
0.493692
0
LINE
8
BLACK
6
CONTINUOUS
10
1.22267
20
0.493692
11
1.2165
21
0.491532
0
LINE
8
BLACK
6
CONTINUOUS
10
1.2165
20
0.491532
11
1.21
21
0.4908
0
LINE
8
BLACK
6
CONTINUOUS
10
1.21
20
0.4908
11
1.2035
21
0.491532
0
LINE
8
BLACK
6
CONTINUOUS
10
1.2035
20
0.491532
11
1.19733
21
0.493692
0
LINE
8
BLACK
6
CONTINUOUS
10
1.19733
20
0.493692
11
1.19179
21
0.497171
0
LINE
8
BLACK
6
CONTINUOUS
10
1.19179
20
0.497171
11
1.18717
21
0.501794
0
LINE
8
BLACK
6
CONTINUOUS
10
1.18717
20
0.501794
11
1.18369
21
0.507331
0
LINE
8
BLACK
6
CONTINUOUS
10
1.18369
20
0.507331
11
1.18153
21
0.513502
0
LINE
8
BLACK
6
CONTINUOUS
10
1.18153
20
0.513502
11
1.1808
21
0.52
0
LINE
8
BLACK
6
CONTINUOUS
10
1.1808
20
0.52
11
1.18153
21
0.526498
0
LINE
8
BLACK
6
CONTINUOUS
10
1.18153
20
0.526498
11
1.18369
21
0.532669
0
LINE
8
BLACK
6
CONTINUOUS
10
1.18369
20
0.532669
11
1.18717
21
0.538206
0
LINE
8
BLACK
6
CONTINUOUS
10
1.18717
20
0.538206
11
1.19179
21
0.542829
0
LINE
8
BLACK
6
CONTINUOUS
10
1.19179
20
0.542829
11
1.19733
21
0.546308
0
LINE
8
BLACK
6
CONTINUOUS
10
1.19733
20
0.546308
11
1.2035
21
0.548468
0
LINE
8
BLACK
6
CONTINUOUS
10
1.2035
20
0.548468
11
1.21
21
0.5492
0
LINE
8
BLACK
6
CONTINUOUS
10
1.21
20
0.5492
11
1.2165
21
0.548468
0
LINE
8
BLACK
6
CONTINUOUS
10
1.20969
20
0.519694
11
1.21
21
0.519567
0
LINE
8
BLACK
6
CONTINUOUS
10
1.21
20
0.519567
11
1.21031
21
0.519694
0
LINE
8
BLACK
6
CONTINUOUS
10
1.21031
20
0.519694
11
1.21043
21
0.52
0
LINE
8
BLACK
6
CONTINUOUS
10
1.21043
20
0.52
11
1.21031
21
0.520306
0
LINE
8
BLACK
6
CONTINUOUS
10
1.21031
20
0.520306
11
1.21
21
0.520433
0
LINE
8
BLACK
6
CONTINUOUS
10
1.21
20
0.520433
11
1.20969
21
0.520306
0
LINE
8
BLACK
6
CONTINUOUS
10
1.20969
20
0.520306
11
1.20957
21
0.52
0
LINE
8
BLACK
6
CONTINUOUS
10
1.20957
20
0.52
11
1.20969
21
0.519694
0
LINE
8
BLACK
6
CONTINUOUS
10
-0.0015024
20
0.582468
11
0.00466941
21
0.580308
0
LINE
8
BLACK
6
CONTINUOUS
10
0.00466941
20
0.580308
11
0.0102059
21
0.576829
0
LINE
8
BLACK
6
CONTINUOUS
10
0.0102059
20
0.576829
11
0.0148295
21
0.572206
0
LINE
8
BLACK
6
CONTINUOUS
10
0.0148295
20
0.572206
11
0.0183083
21
0.566669
0
LINE
8
BLACK
6
CONTINUOUS
10
0.0183083
20
0.566669
11
0.0204679
21
0.560498
0
LINE
8
BLACK
6
CONTINUOUS
10
0.0204679
20
0.560498
11
0.0212
21
0.554
0
LINE
8
BLACK
6
CONTINUOUS
10
0.0212
20
0.554
11
0.0204679
21
0.547502
0
LINE
8
BLACK
6
CONTINUOUS
10
0.0204679
20
0.547502
11
0.0183083
21
0.541331
0
LINE
8
BLACK
6
CONTINUOUS
10
0.0183083
20
0.541331
11
0.0148295
21
0.535794
0
LINE
8
BLACK
6
CONTINUOUS
10
0.0148295
20
0.535794
11
0.0102059
21
0.531171
0
LINE
8
BLACK
6
CONTINUOUS
10
0.0102059
20
0.531171
11
0.00466941
21
0.527692
0
LINE
8
BLACK
6
CONTINUOUS
10
0.00466941
20
0.527692
11
-0.0015024
21
0.525532
0
LINE
8
BLACK
6
CONTINUOUS
10
-0.0015024
20
0.525532
11
-0.008
21
0.5248
0
LINE
8
BLACK
6
CONTINUOUS
10
-0.008
20
0.5248
11
-0.0144976
21
0.525532
0
LINE
8
BLACK
6
CONTINUOUS
10
-0.0144976
20
0.525532
11
-0.0206694
21
0.527692
0
LINE
8
BLACK
6
CONTINUOUS
10
-0.0206694
20
0.527692
11
-0.0262059
21
0.531171
0
LINE
8
BLACK
6
CONTINUOUS
10
-0.0262059
20
0.531171
11
-0.0308295
21
0.535794
0
LINE
8
BLACK
6
CONTINUOUS
10
-0.0308295
20
0.535794
11
-0.0343083
21
0.541331
0
LINE
8
BLACK
6
CONTINUOUS
10
-0.0343083
20
0.541331
11
-0.0364679
21
0.547502
0
LINE
8
BLACK
6
CONTINUOUS
10
-0.0364679
20
0.547502
11
-0.0372
21
0.554
0
LINE
8
BLACK
6
CONTINUOUS
10
-0.0372
20
0.554
11
-0.0364679
21
0.560498
0
LINE
8
BLACK
6
CONTINUOUS
10
-0.0364679
20
0.560498
11
-0.0343083
21
0.566669
0
LINE
8
BLACK
6
CONTINUOUS
10
-0.0343083
20
0.566669
11
-0.0308295
21
0.572206
0
LINE
8
BLACK
6
CONTINUOUS
10
-0.0308295
20
0.572206
11
-0.0262059
21
0.576829
0
LINE
8
BLACK
6
CONTINUOUS
10
-0.0262059
20
0.576829
11
-0.0206694
21
0.580308
0
LINE
8
BLACK
6
CONTINUOUS
10
-0.0206694
20
0.580308
11
-0.0144976
21
0.582468
0
LINE
8
BLACK
6
CONTINUOUS
10
-0.0144976
20
0.582468
11
-0.008
21
0.5832
0
LINE
8
BLACK
6
CONTINUOUS
10
-0.008
20
0.5832
11
-0.0015024
21
0.582468
0
LINE
8
BLACK
6
CONTINUOUS
10
-0.00830614
20
0.553694
11
-0.008
21
0.553567
0
LINE
8
BLACK
6
CONTINUOUS
10
-0.008
20
0.553567
11
-0.00769386
21
0.553694
0
LINE
8
BLACK
6
CONTINUOUS
10
-0.00769386
20
0.553694
11
-0.00756705
21
0.554
0
LINE
8
BLACK
6
CONTINUOUS
10
-0.00756705
20
0.554
11
-0.00769386
21
0.554306
0
LINE
8
BLACK
6
CONTINUOUS
10
-0.00769386
20
0.554306
11
-0.008
21
0.554433
0
LINE
8
BLACK
6
CONTINUOUS
10
-0.008
20
0.554433
11
-0.00830614
21
0.554306
0
LINE
8
BLACK
6
CONTINUOUS
10
-0.00830614
20
0.554306
11
-0.00843295
21
0.554
0
LINE
8
BLACK
6
CONTINUOUS
10
-0.00843295
20
0.554
11
-0.00830614
21
0.553694
0
LINE
8
BLACK
6
CONTINUOUS
10
1.5805
20
0.583568
11
1.58667
21
0.581408
0
LINE
8
BLACK
6
CONTINUOUS
10
1.58667
20
0.581408
11
1.59221
21
0.577929
0
LINE
8
BLACK
6
CONTINUOUS
10
1.59221
20
0.577929
11
1.59683
21
0.573306
0
LINE
8
BLACK
6
CONTINUOUS
10
1.59683
20
0.573306
11
1.60031
21
0.567769
0
LINE
8
BLACK
6
CONTINUOUS
10
1.60031
20
0.567769
11
1.60247
21
0.561598
0
LINE
8
BLACK
6
CONTINUOUS
10
1.60247
20
0.561598
11
1.6032
21
0.5551
0
LINE
8
BLACK
6
CONTINUOUS
10
1.6032
20
0.5551
11
1.60247
21
0.548602
0
LINE
8
BLACK
6
CONTINUOUS
10
1.60247
20
0.548602
11
1.60031
21
0.542431
0
LINE
8
BLACK
6
CONTINUOUS
10
1.60031
20
0.542431
11
1.59683
21
0.536894
0
LINE
8
BLACK
6
CONTINUOUS
10
1.59683
20
0.536894
11
1.59221
21
0.532271
0
LINE
8
BLACK
6
CONTINUOUS
10
1.59221
20
0.532271
11
1.58667
21
0.528792
0
LINE
8
BLACK
6
CONTINUOUS
10
1.58667
20
0.528792
11
1.5805
21
0.526632
0
LINE
8
BLACK
6
CONTINUOUS
10
1.5805
20
0.526632
11
1.574
21
0.5259
0
LINE
8
BLACK
6
CONTINUOUS
10
1.574
20
0.5259
11
1.5675
21
0.526632
0
LINE
8
BLACK
6
CONTINUOUS
10
1.5675
20
0.526632
11
1.56133
21
0.528792
0
LINE
8
BLACK
6
CONTINUOUS
10
1.56133
20
0.528792
11
1.55579
21
0.532271
0
LINE
8
BLACK
6
CONTINUOUS
10
1.55579
20
0.532271
11
1.55117
21
0.536894
0
LINE
8
BLACK
6
CONTINUOUS
10
1.55117
20
0.536894
11
1.54769
21
0.542431
0
LINE
8
BLACK
6
CONTINUOUS
10
1.54769
20
0.542431
11
1.54553
21
0.548602
0
LINE
8
BLACK
6
CONTINUOUS
10
1.54553
20
0.548602
11
1.5448
21
0.5551
0
LINE
8
BLACK
6
CONTINUOUS
10
1.5448
20
0.5551
11
1.54553
21
0.561598
0
LINE
8
BLACK
6
CONTINUOUS
10
1.54553
20
0.561598
11
1.54769
21
0.567769
0
LINE
8
BLACK
6
CONTINUOUS
10
1.54769
20
0.567769
11
1.55117
21
0.573306
0
LINE
8
BLACK
6
CONTINUOUS
10
1.55117
20
0.573306
11
1.55579
21
0.577929
0
LINE
8
BLACK
6
CONTINUOUS
10
1.55579
20
0.577929
11
1.56133
21
0.581408
0
LINE
8
BLACK
6
CONTINUOUS
10
1.56133
20
0.581408
11
1.5675
21
0.583568
0
LINE
8
BLACK
6
CONTINUOUS
10
1.5675
20
0.583568
11
1.574
21
0.5843
0
LINE
8
BLACK
6
CONTINUOUS
10
1.574
20
0.5843
11
1.5805
21
0.583568
0
LINE
8
BLACK
6
CONTINUOUS
10
1.57369
20
0.554794
11
1.574
21
0.554667
0
LINE
8
BLACK
6
CONTINUOUS
10
1.574
20
0.554667
11
1.57431
21
0.554794
0
LINE
8
BLACK
6
CONTINUOUS
10
1.57431
20
0.554794
11
1.57443
21
0.5551
0
LINE
8
BLACK
6
CONTINUOUS
10
1.57443
20
0.5551
11
1.57431
21
0.555406
0
LINE
8
BLACK
6
CONTINUOUS
10
1.57431
20
0.555406
11
1.574
21
0.555533
0
LINE
8
BLACK
6
CONTINUOUS
10
1.574
20
0.555533
11
1.57369
21
0.555406
0
LINE
8
BLACK
6
CONTINUOUS
10
1.57369
20
0.555406
11
1.57357
21
0.5551
0
LINE
8
BLACK
6
CONTINUOUS
10
1.57357
20
0.5551
11
1.57369
21
0.554794
0
LINE
8
BLACK
6
CONTINUOUS
10
0.292498
20
0.585568
11
0.298669
21
0.583408
0
LINE
8
BLACK
6
CONTINUOUS
10
0.298669
20
0.583408
11
0.304206
21
0.579929
0
LINE
8
BLACK
6
CONTINUOUS
10
0.304206
20
0.579929
11
0.308829
21
0.575306
0
LINE
8
BLACK
6
CONTINUOUS
10
0.308829
20
0.575306
11
0.312308
21
0.569769
0
LINE
8
BLACK
6
CONTINUOUS
10
0.312308
20
0.569769
11
0.314468
21
0.563598
0
LINE
8
BLACK
6
CONTINUOUS
10
0.314468
20
0.563598
11
0.3152
21
0.5571
0
LINE
8
BLACK
6
CONTINUOUS
10
0.3152
20
0.5571
11
0.314468
21
0.550602
0
LINE
8
BLACK
6
CONTINUOUS
10
0.314468
20
0.550602
11
0.312308
21
0.544431
0
LINE
8
BLACK
6
CONTINUOUS
10
0.312308
20
0.544431
11
0.308829
21
0.538894
0
LINE
8
BLACK
6
CONTINUOUS
10
0.308829
20
0.538894
11
0.304206
21
0.534271
0
LINE
8
BLACK
6
CONTINUOUS
10
0.304206
20
0.534271
11
0.298669
21
0.530792
0
LINE
8
BLACK
6
CONTINUOUS
10
0.298669
20
0.530792
11
0.292498
21
0.528632
0
LINE
8
BLACK
6
CONTINUOUS
10
0.292498
20
0.528632
11
0.286
21
0.5279
0
LINE
8
BLACK
6
CONTINUOUS
10
0.286
20
0.5279
11
0.279502
21
0.528632
0
LINE
8
BLACK
6
CONTINUOUS
10
0.279502
20
0.528632
11
0.273331
21
0.530792
0
LINE
8
BLACK
6
CONTINUOUS
10
0.273331
20
0.530792
11
0.267794
21
0.534271
0
LINE
8
BLACK
6
CONTINUOUS
10
0.267794
20
0.534271
11
0.263171
21
0.538894
0
LINE
8
BLACK
6
CONTINUOUS
10
0.263171
20
0.538894
11
0.259692
21
0.544431
0
LINE
8
BLACK
6
CONTINUOUS
10
0.259692
20
0.544431
11
0.257532
21
0.550602
0
LINE
8
BLACK
6
CONTINUOUS
10
0.257532
20
0.550602
11
0.2568
21
0.5571
0
LINE
8
BLACK
6
CONTINUOUS
10
0.2568
20
0.5571
11
0.257532
21
0.563598
0
LINE
8
BLACK
6
CONTINUOUS
10
0.257532
20
0.563598
11
0.259692
21
0.569769
0
LINE
8
BLACK
6
CONTINUOUS
10
0.259692
20
0.569769
11
0.263171
21
0.575306
0
LINE
8
BLACK
6
CONTINUOUS
10
0.263171
20
0.575306
11
0.267794
21
0.579929
0
LINE
8
BLACK
6
CONTINUOUS
10
0.267794
20
0.579929
11
0.273331
21
0.583408
0
LINE
8
BLACK
6
CONTINUOUS
10
0.273331
20
0.583408
11
0.279502
21
0.585568
0
LINE
8
BLACK
6
CONTINUOUS
10
0.279502
20
0.585568
11
0.286
21
0.5863
0
LINE
8
BLACK
6
CONTINUOUS
10
0.286
20
0.5863
11
0.292498
21
0.585568
0
LINE
8
BLACK
6
CONTINUOUS
10
0.285694
20
0.556794
11
0.286
21
0.556667
0
LINE
8
BLACK
6
CONTINUOUS
10
0.286
20
0.556667
11
0.286306
21
0.556794
0
LINE
8
BLACK
6
CONTINUOUS
10
0.286306
20
0.556794
11
0.286433
21
0.5571
0
LINE
8
BLACK
6
CONTINUOUS
10
0.286433
20
0.5571
11
0.286306
21
0.557406
0
LINE
8
BLACK
6
CONTINUOUS
10
0.286306
20
0.557406
11
0.286
21
0.557533
0
LINE
8
BLACK
6
CONTINUOUS
10
0.286
20
0.557533
11
0.285694
21
0.557406
0
LINE
8
BLACK
6
CONTINUOUS
10
0.285694
20
0.557406
11
0.285567
21
0.5571
0
LINE
8
BLACK
6
CONTINUOUS
10
0.285567
20
0.5571
11
0.285694
21
0.556794
0
LINE
8
BLACK
6
CONTINUOUS
10
1.6765
20
0.586468
11
1.68267
21
0.584308
0
LINE
8
BLACK
6
CONTINUOUS
10
1.68267
20
0.584308
11
1.68821
21
0.580829
0
LINE
8
BLACK
6
CONTINUOUS
10
1.68821
20
0.580829
11
1.69283
21
0.576206
0
LINE
8
BLACK
6
CONTINUOUS
10
1.69283
20
0.576206
11
1.69631
21
0.570669
0
LINE
8
BLACK
6
CONTINUOUS
10
1.69631
20
0.570669
11
1.69847
21
0.564498
0
LINE
8
BLACK
6
CONTINUOUS
10
1.69847
20
0.564498
11
1.6992
21
0.558
0
LINE
8
BLACK
6
CONTINUOUS
10
1.6992
20
0.558
11
1.69847
21
0.551502
0
LINE
8
BLACK
6
CONTINUOUS
10
1.69847
20
0.551502
11
1.69631
21
0.545331
0
LINE
8
BLACK
6
CONTINUOUS
10
1.69631
20
0.545331
11
1.69283
21
0.539794
0
LINE
8
BLACK
6
CONTINUOUS
10
1.69283
20
0.539794
11
1.68821
21
0.535171
0
LINE
8
BLACK
6
CONTINUOUS
10
1.68821
20
0.535171
11
1.68267
21
0.531692
0
LINE
8
BLACK
6
CONTINUOUS
10
1.68267
20
0.531692
11
1.6765
21
0.529532
0
LINE
8
BLACK
6
CONTINUOUS
10
1.6765
20
0.529532
11
1.67
21
0.5288
0
LINE
8
BLACK
6
CONTINUOUS
10
1.67
20
0.5288
11
1.6635
21
0.529532
0
LINE
8
BLACK
6
CONTINUOUS
10
1.6635
20
0.529532
11
1.65733
21
0.531692
0
LINE
8
BLACK
6
CONTINUOUS
10
1.65733
20
0.531692
11
1.65179
21
0.535171
0
LINE
8
BLACK
6
CONTINUOUS
10
1.65179
20
0.535171
11
1.64717
21
0.539794
0
LINE
8
BLACK
6
CONTINUOUS
10
1.64717
20
0.539794
11
1.64369
21
0.545331
0
LINE
8
BLACK
6
CONTINUOUS
10
1.64369
20
0.545331
11
1.64153
21
0.551502
0
LINE
8
BLACK
6
CONTINUOUS
10
1.64153
20
0.551502
11
1.6408
21
0.558
0
LINE
8
BLACK
6
CONTINUOUS
10
1.6408
20
0.558
11
1.64153
21
0.564498
0
LINE
8
BLACK
6
CONTINUOUS
10
1.64153
20
0.564498
11
1.64369
21
0.570669
0
LINE
8
BLACK
6
CONTINUOUS
10
1.64369
20
0.570669
11
1.64717
21
0.576206
0
LINE
8
BLACK
6
CONTINUOUS
10
1.64717
20
0.576206
11
1.65179
21
0.580829
0
LINE
8
BLACK
6
CONTINUOUS
10
1.65179
20
0.580829
11
1.65733
21
0.584308
0
LINE
8
BLACK
6
CONTINUOUS
10
1.65733
20
0.584308
11
1.6635
21
0.586468
0
LINE
8
BLACK
6
CONTINUOUS
10
1.6635
20
0.586468
11
1.67
21
0.5872
0
LINE
8
BLACK
6
CONTINUOUS
10
1.67
20
0.5872
11
1.6765
21
0.586468
0
LINE
8
BLACK
6
CONTINUOUS
10
1.66969
20
0.557694
11
1.67
21
0.557567
0
LINE
8
BLACK
6
CONTINUOUS
10
1.67
20
0.557567
11
1.67031
21
0.557694
0
LINE
8
BLACK
6
CONTINUOUS
10
1.67031
20
0.557694
11
1.67043
21
0.558
0
LINE
8
BLACK
6
CONTINUOUS
10
1.67043
20
0.558
11
1.67031
21
0.558306
0
LINE
8
BLACK
6
CONTINUOUS
10
1.67031
20
0.558306
11
1.67
21
0.558433
0
LINE
8
BLACK
6
CONTINUOUS
10
1.67
20
0.558433
11
1.66969
21
0.558306
0
LINE
8
BLACK
6
CONTINUOUS
10
1.66969
20
0.558306
11
1.66957
21
0.558
0
LINE
8
BLACK
6
CONTINUOUS
10
1.66957
20
0.558
11
1.66969
21
0.557694
0
LINE
8
BLACK
6
CONTINUOUS
10
0.760498
20
0.587568
11
0.766669
21
0.585408
0
LINE
8
BLACK
6
CONTINUOUS
10
0.766669
20
0.585408
11
0.772206
21
0.581929
0
LINE
8
BLACK
6
CONTINUOUS
10
0.772206
20
0.581929
11
0.776829
21
0.577306
0
LINE
8
BLACK
6
CONTINUOUS
10
0.776829
20
0.577306
11
0.780308
21
0.571769
0
LINE
8
BLACK
6
CONTINUOUS
10
0.780308
20
0.571769
11
0.782468
21
0.565598
0
LINE
8
BLACK
6
CONTINUOUS
10
0.782468
20
0.565598
11
0.7832
21
0.5591
0
LINE
8
BLACK
6
CONTINUOUS
10
0.7832
20
0.5591
11
0.782468
21
0.552602
0
LINE
8
BLACK
6
CONTINUOUS
10
0.782468
20
0.552602
11
0.780308
21
0.546431
0
LINE
8
BLACK
6
CONTINUOUS
10
0.780308
20
0.546431
11
0.776829
21
0.540894
0
LINE
8
BLACK
6
CONTINUOUS
10
0.776829
20
0.540894
11
0.772206
21
0.536271
0
LINE
8
BLACK
6
CONTINUOUS
10
0.772206
20
0.536271
11
0.766669
21
0.532792
0
LINE
8
BLACK
6
CONTINUOUS
10
0.766669
20
0.532792
11
0.760498
21
0.530632
0
LINE
8
BLACK
6
CONTINUOUS
10
0.760498
20
0.530632
11
0.754
21
0.5299
0
LINE
8
BLACK
6
CONTINUOUS
10
0.754
20
0.5299
11
0.747502
21
0.530632
0
LINE
8
BLACK
6
CONTINUOUS
10
0.747502
20
0.530632
11
0.741331
21
0.532792
0
LINE
8
BLACK
6
CONTINUOUS
10
0.741331
20
0.532792
11
0.735794
21
0.536271
0
LINE
8
BLACK
6
CONTINUOUS
10
0.735794
20
0.536271
11
0.731171
21
0.540894
0
LINE
8
BLACK
6
CONTINUOUS
10
0.731171
20
0.540894
11
0.727692
21
0.546431
0
LINE
8
BLACK
6
CONTINUOUS
10
0.727692
20
0.546431
11
0.725532
21
0.552602
0
LINE
8
BLACK
6
CONTINUOUS
10
0.725532
20
0.552602
11
0.7248
21
0.5591
0
LINE
8
BLACK
6
CONTINUOUS
10
0.7248
20
0.5591
11
0.725532
21
0.565598
0
LINE
8
BLACK
6
CONTINUOUS
10
0.725532
20
0.565598
11
0.727692
21
0.571769
0
LINE
8
BLACK
6
CONTINUOUS
10
0.727692
20
0.571769
11
0.731171
21
0.577306
0
LINE
8
BLACK
6
CONTINUOUS
10
0.731171
20
0.577306
11
0.735794
21
0.581929
0
LINE
8
BLACK
6
CONTINUOUS
10
0.735794
20
0.581929
11
0.741331
21
0.585408
0
LINE
8
BLACK
6
CONTINUOUS
10
0.741331
20
0.585408
11
0.747502
21
0.587568
0
LINE
8
BLACK
6
CONTINUOUS
10
0.747502
20
0.587568
11
0.754
21
0.5883
0
LINE
8
BLACK
6
CONTINUOUS
10
0.754
20
0.5883
11
0.760498
21
0.587568
0
LINE
8
BLACK
6
CONTINUOUS
10
0.753694
20
0.558794
11
0.754
21
0.558667
0
LINE
8
BLACK
6
CONTINUOUS
10
0.754
20
0.558667
11
0.754306
21
0.558794
0
LINE
8
BLACK
6
CONTINUOUS
10
0.754306
20
0.558794
11
0.754433
21
0.5591
0
LINE
8
BLACK
6
CONTINUOUS
10
0.754433
20
0.5591
11
0.754306
21
0.559406
0
LINE
8
BLACK
6
CONTINUOUS
10
0.754306
20
0.559406
11
0.754
21
0.559533
0
LINE
8
BLACK
6
CONTINUOUS
10
0.754
20
0.559533
11
0.753694
21
0.559406
0
LINE
8
BLACK
6
CONTINUOUS
10
0.753694
20
0.559406
11
0.753567
21
0.5591
0
LINE
8
BLACK
6
CONTINUOUS
10
0.753567
20
0.5591
11
0.753694
21
0.558794
0
LINE
8
BLACK
6
CONTINUOUS
10
0.396498
20
0.588468
11
0.402669
21
0.586308
0
LINE
8
BLACK
6
CONTINUOUS
10
0.402669
20
0.586308
11
0.408206
21
0.582829
0
LINE
8
BLACK
6
CONTINUOUS
10
0.408206
20
0.582829
11
0.412829
21
0.578206
0
LINE
8
BLACK
6
CONTINUOUS
10
0.412829
20
0.578206
11
0.416308
21
0.572669
0
LINE
8
BLACK
6
CONTINUOUS
10
0.416308
20
0.572669
11
0.418468
21
0.566498
0
LINE
8
BLACK
6
CONTINUOUS
10
0.418468
20
0.566498
11
0.4192
21
0.56
0
LINE
8
BLACK
6
CONTINUOUS
10
0.4192
20
0.56
11
0.418468
21
0.553502
0
LINE
8
BLACK
6
CONTINUOUS
10
0.418468
20
0.553502
11
0.416308
21
0.547331
0
LINE
8
BLACK
6
CONTINUOUS
10
0.416308
20
0.547331
11
0.412829
21
0.541794
0
LINE
8
BLACK
6
CONTINUOUS
10
0.412829
20
0.541794
11
0.408206
21
0.537171
0
LINE
8
BLACK
6
CONTINUOUS
10
0.408206
20
0.537171
11
0.402669
21
0.533692
0
LINE
8
BLACK
6
CONTINUOUS
10
0.402669
20
0.533692
11
0.396498
21
0.531532
0
LINE
8
BLACK
6
CONTINUOUS
10
0.396498
20
0.531532
11
0.39
21
0.5308
0
LINE
8
BLACK
6
CONTINUOUS
10
0.39
20
0.5308
11
0.383502
21
0.531532
0
LINE
8
BLACK
6
CONTINUOUS
10
0.383502
20
0.531532
11
0.377331
21
0.533692
0
LINE
8
BLACK
6
CONTINUOUS
10
0.377331
20
0.533692
11
0.371794
21
0.537171
0
LINE
8
BLACK
6
CONTINUOUS
10
0.371794
20
0.537171
11
0.367171
21
0.541794
0
LINE
8
BLACK
6
CONTINUOUS
10
0.367171
20
0.541794
11
0.363692
21
0.547331
0
LINE
8
BLACK
6
CONTINUOUS
10
0.363692
20
0.547331
11
0.361532
21
0.553502
0
LINE
8
BLACK
6
CONTINUOUS
10
0.361532
20
0.553502
11
0.3608
21
0.56
0
LINE
8
BLACK
6
CONTINUOUS
10
0.3608
20
0.56
11
0.361532
21
0.566498
0
LINE
8
BLACK
6
CONTINUOUS
10
0.361532
20
0.566498
11
0.363692
21
0.572669
0
LINE
8
BLACK
6
CONTINUOUS
10
0.363692
20
0.572669
11
0.367171
21
0.578206
0
LINE
8
BLACK
6
CONTINUOUS
10
0.367171
20
0.578206
11
0.371794
21
0.582829
0
LINE
8
BLACK
6
CONTINUOUS
10
0.371794
20
0.582829
11
0.377331
21
0.586308
0
LINE
8
BLACK
6
CONTINUOUS
10
0.377331
20
0.586308
11
0.383502
21
0.588468
0
LINE
8
BLACK
6
CONTINUOUS
10
0.383502
20
0.588468
11
0.39
21
0.5892
0
LINE
8
BLACK
6
CONTINUOUS
10
0.39
20
0.5892
11
0.396498
21
0.588468
0
LINE
8
BLACK
6
CONTINUOUS
10
0.389694
20
0.559694
11
0.39
21
0.559567
0
LINE
8
BLACK
6
CONTINUOUS
10
0.39
20
0.559567
11
0.390306
21
0.559694
0
LINE
8
BLACK
6
CONTINUOUS
10
0.390306
20
0.559694
11
0.390433
21
0.56
0
LINE
8
BLACK
6
CONTINUOUS
10
0.390433
20
0.56
11
0.390306
21
0.560306
0
LINE
8
BLACK
6
CONTINUOUS
10
0.390306
20
0.560306
11
0.39
21
0.560433
0
LINE
8
BLACK
6
CONTINUOUS
10
0.39
20
0.560433
11
0.389694
21
0.560306
0
LINE
8
BLACK
6
CONTINUOUS
10
0.389694
20
0.560306
11
0.389567
21
0.56
0
LINE
8
BLACK
6
CONTINUOUS
10
0.389567
20
0.56
11
0.389694
21
0.559694
0
LINE
8
BLACK
6
CONTINUOUS
10
1.9665
20
0.588468
11
1.97267
21
0.586308
0
LINE
8
BLACK
6
CONTINUOUS
10
1.97267
20
0.586308
11
1.97821
21
0.582829
0
LINE
8
BLACK
6
CONTINUOUS
10
1.97821
20
0.582829
11
1.98283
21
0.578206
0
LINE
8
BLACK
6
CONTINUOUS
10
1.98283
20
0.578206
11
1.98631
21
0.572669
0
LINE
8
BLACK
6
CONTINUOUS
10
1.98631
20
0.572669
11
1.98847
21
0.566498
0
LINE
8
BLACK
6
CONTINUOUS
10
1.98847
20
0.566498
11
1.9892
21
0.56
0
LINE
8
BLACK
6
CONTINUOUS
10
1.9892
20
0.56
11
1.98847
21
0.553502
0
LINE
8
BLACK
6
CONTINUOUS
10
1.98847
20
0.553502
11
1.98631
21
0.547331
0
LINE
8
BLACK
6
CONTINUOUS
10
1.98631
20
0.547331
11
1.98283
21
0.541794
0
LINE
8
BLACK
6
CONTINUOUS
10
1.98283
20
0.541794
11
1.97821
21
0.537171
0
LINE
8
BLACK
6
CONTINUOUS
10
1.97821
20
0.537171
11
1.97267
21
0.533692
0
LINE
8
BLACK
6
CONTINUOUS
10
1.97267
20
0.533692
11
1.9665
21
0.531532
0
LINE
8
BLACK
6
CONTINUOUS
10
1.9665
20
0.531532
11
1.96
21
0.5308
0
LINE
8
BLACK
6
CONTINUOUS
10
1.96
20
0.5308
11
1.9535
21
0.531532
0
LINE
8
BLACK
6
CONTINUOUS
10
1.9535
20
0.531532
11
1.94733
21
0.533692
0
LINE
8
BLACK
6
CONTINUOUS
10
1.94733
20
0.533692
11
1.94179
21
0.537171
0
LINE
8
BLACK
6
CONTINUOUS
10
1.94179
20
0.537171
11
1.93717
21
0.541794
0
LINE
8
BLACK
6
CONTINUOUS
10
1.93717
20
0.541794
11
1.93369
21
0.547331
0
LINE
8
BLACK
6
CONTINUOUS
10
1.93369
20
0.547331
11
1.93153
21
0.553502
0
LINE
8
BLACK
6
CONTINUOUS
10
1.93153
20
0.553502
11
1.9308
21
0.56
0
LINE
8
BLACK
6
CONTINUOUS
10
1.9308
20
0.56
11
1.93153
21
0.566498
0
LINE
8
BLACK
6
CONTINUOUS
10
1.93153
20
0.566498
11
1.93369
21
0.572669
0
LINE
8
BLACK
6
CONTINUOUS
10
1.93369
20
0.572669
11
1.93717
21
0.578206
0
LINE
8
BLACK
6
CONTINUOUS
10
1.93717
20
0.578206
11
1.94179
21
0.582829
0
LINE
8
BLACK
6
CONTINUOUS
10
1.94179
20
0.582829
11
1.94733
21
0.586308
0
LINE
8
BLACK
6
CONTINUOUS
10
1.94733
20
0.586308
11
1.9535
21
0.588468
0
LINE
8
BLACK
6
CONTINUOUS
10
1.9535
20
0.588468
11
1.96
21
0.5892
0
LINE
8
BLACK
6
CONTINUOUS
10
1.96
20
0.5892
11
1.9665
21
0.588468
0
LINE
8
BLACK
6
CONTINUOUS
10
1.95969
20
0.559694
11
1.96
21
0.559567
0
LINE
8
BLACK
6
CONTINUOUS
10
1.96
20
0.559567
11
1.96031
21
0.559694
0
LINE
8
BLACK
6
CONTINUOUS
10
1.96031
20
0.559694
11
1.96043
21
0.56
0
LINE
8
BLACK
6
CONTINUOUS
10
1.96043
20
0.56
11
1.96031
21
0.560306
0
LINE
8
BLACK
6
CONTINUOUS
10
1.96031
20
0.560306
11
1.96
21
0.560433
0
LINE
8
BLACK
6
CONTINUOUS
10
1.96
20
0.560433
11
1.95969
21
0.560306
0
LINE
8
BLACK
6
CONTINUOUS
10
1.95969
20
0.560306
11
1.95957
21
0.56
0
LINE
8
BLACK
6
CONTINUOUS
10
1.95957
20
0.56
11
1.95969
21
0.559694
0
LINE
8
BLACK
6
CONTINUOUS
10
0.0205096
20
1.31632
11
0.0338744
21
1.31315
0
LINE
8
BLACK
6
CONTINUOUS
10
0.0338744
20
1.31315
11
0.0467811
21
1.30845
0
LINE
8
BLACK
6
CONTINUOUS
10
0.0467811
20
1.30845
11
0.0590551
21
1.30229
0
LINE
8
BLACK
6
CONTINUOUS
10
0.0590551
20
1.30229
11
0.0705306
21
1.29474
0
LINE
8
BLACK
6
CONTINUOUS
10
0.0705306
20
1.29474
11
0.0810522
21
1.28591
0
LINE
8
BLACK
6
CONTINUOUS
10
0.0810522
20
1.28591
11
0.0904777
21
1.27592
0
LINE
8
BLACK
6
CONTINUOUS
10
0.0904777
20
1.27592
11
0.0986796
21
1.2649
0
LINE
8
BLACK
6
CONTINUOUS
10
0.0986796
20
1.2649
11
0.105547
21
1.25301
0
LINE
8
BLACK
6
CONTINUOUS
10
0.105547
20
1.25301
11
0.110987
21
1.2404
0
LINE
8
BLACK
6
CONTINUOUS
10
0.110987
20
1.2404
11
0.114927
21
1.22724
0
LINE
8
BLACK
6
CONTINUOUS
10
0.114927
20
1.22724
11
0.117312
21
1.21371
0
LINE
8
BLACK
6
CONTINUOUS
10
0.117312
20
1.21371
11
0.11811
21
1.2
0
LINE
8
BLACK
6
CONTINUOUS
10
0.11811
20
1.2
11
0.117312
21
1.18629
0
LINE
8
BLACK
6
CONTINUOUS
10
0.117312
20
1.18629
11
0.114927
21
1.17276
0
LINE
8
BLACK
6
CONTINUOUS
10
0.114927
20
1.17276
11
0.110987
21
1.1596
0
LINE
8
BLACK
6
CONTINUOUS
10
0.110987
20
1.1596
11
0.105547
21
1.14699
0
LINE
8
BLACK
6
CONTINUOUS
10
0.105547
20
1.14699
11
0.0986796
21
1.1351
0
LINE
8
BLACK
6
CONTINUOUS
10
0.0986796
20
1.1351
11
0.0904777
21
1.12408
0
LINE
8
BLACK
6
CONTINUOUS
10
0.0904777
20
1.12408
11
0.0810522
21
1.11409
0
LINE
8
BLACK
6
CONTINUOUS
10
0.0810522
20
1.11409
11
0.0705306
21
1.10526
0
LINE
8
BLACK
6
CONTINUOUS
10
0.0705306
20
1.10526
11
0.0590551
21
1.09771
0
LINE
8
BLACK
6
CONTINUOUS
10
0.0590551
20
1.09771
11
0.0467811
21
1.09155
0
LINE
8
BLACK
6
CONTINUOUS
10
0.0467811
20
1.09155
11
0.0338744
21
1.08685
0
LINE
8
BLACK
6
CONTINUOUS
10
0.0338744
20
1.08685
11
0.0205096
21
1.08368
0
LINE
8
BLACK
6
CONTINUOUS
10
0.0205096
20
1.08368
11
0.00686748
21
1.08209
0
LINE
8
BLACK
6
CONTINUOUS
10
0.00686748
20
1.08209
11
-0.00686748
21
1.08209
0
LINE
8
BLACK
6
CONTINUOUS
10
-0.00686748
20
1.08209
11
-0.0205096
21
1.08368
0
LINE
8
BLACK
6
CONTINUOUS
10
-0.0205096
20
1.08368
11
-0.0338744
21
1.08685
0
LINE
8
BLACK
6
CONTINUOUS
10
-0.0338744
20
1.08685
11
-0.0467811
21
1.09155
0
LINE
8
BLACK
6
CONTINUOUS
10
-0.0467811
20
1.09155
11
-0.0590551
21
1.09771
0
LINE
8
BLACK
6
CONTINUOUS
10
-0.0590551
20
1.09771
11
-0.0705306
21
1.10526
0
LINE
8
BLACK
6
CONTINUOUS
10
-0.0705306
20
1.10526
11
-0.0810522
21
1.11409
0
LINE
8
BLACK
6
CONTINUOUS
10
-0.0810522
20
1.11409
11
-0.0904777
21
1.12408
0
LINE
8
BLACK
6
CONTINUOUS
10
-0.0904777
20
1.12408
11
-0.0986796
21
1.1351
0
LINE
8
BLACK
6
CONTINUOUS
10
-0.0986796
20
1.1351
11
-0.105547
21
1.14699
0
LINE
8
BLACK
6
CONTINUOUS
10
-0.105547
20
1.14699
11
-0.110987
21
1.1596
0
LINE
8
BLACK
6
CONTINUOUS
10
-0.110987
20
1.1596
11
-0.114927
21
1.17276
0
LINE
8
BLACK
6
CONTINUOUS
10
-0.114927
20
1.17276
11
-0.117312
21
1.18629
0
LINE
8
BLACK
6
CONTINUOUS
10
-0.117312
20
1.18629
11
-0.11811
21
1.2
0
LINE
8
BLACK
6
CONTINUOUS
10
-0.11811
20
1.2
11
-0.117312
21
1.21371
0
LINE
8
BLACK
6
CONTINUOUS
10
-0.117312
20
1.21371
11
-0.114927
21
1.22724
0
LINE
8
BLACK
6
CONTINUOUS
10
-0.114927
20
1.22724
11
-0.110987
21
1.2404
0
LINE
8
BLACK
6
CONTINUOUS
10
-0.110987
20
1.2404
11
-0.105547
21
1.25301
0
LINE
8
BLACK
6
CONTINUOUS
10
-0.105547
20
1.25301
11
-0.0986796
21
1.2649
0
LINE
8
BLACK
6
CONTINUOUS
10
-0.0986796
20
1.2649
11
-0.0904777
21
1.27592
0
LINE
8
BLACK
6
CONTINUOUS
10
-0.0904777
20
1.27592
11
-0.0810522
21
1.28591
0
LINE
8
BLACK
6
CONTINUOUS
10
-0.0810522
20
1.28591
11
-0.0705306
21
1.29474
0
LINE
8
BLACK
6
CONTINUOUS
10
-0.0705306
20
1.29474
11
-0.0590551
21
1.30229
0
LINE
8
BLACK
6
CONTINUOUS
10
-0.0590551
20
1.30229
11
-0.0467811
21
1.30845
0
LINE
8
BLACK
6
CONTINUOUS
10
-0.0467811
20
1.30845
11
-0.0338744
21
1.31315
0
LINE
8
BLACK
6
CONTINUOUS
10
-0.0338744
20
1.31315
11
-0.0205096
21
1.31632
0
LINE
8
BLACK
6
CONTINUOUS
10
-0.0205096
20
1.31632
11
-0.00686748
21
1.31791
0
LINE
8
BLACK
6
CONTINUOUS
10
-0.00686748
20
1.31791
11
0.00686748
21
1.31791
0
LINE
8
BLACK
6
CONTINUOUS
10
0.00686748
20
1.31791
11
0.0205096
21
1.31632
0
LINE
8
BLACK
6
CONTINUOUS
10
2.02051
20
1.31632
11
2.03387
21
1.31315
0
LINE
8
BLACK
6
CONTINUOUS
10
2.03387
20
1.31315
11
2.04678
21
1.30845
0
LINE
8
BLACK
6
CONTINUOUS
10
2.04678
20
1.30845
11
2.05906
21
1.30229
0
LINE
8
BLACK
6
CONTINUOUS
10
2.05906
20
1.30229
11
2.07053
21
1.29474
0
LINE
8
BLACK
6
CONTINUOUS
10
2.07053
20
1.29474
11
2.08105
21
1.28591
0
LINE
8
BLACK
6
CONTINUOUS
10
2.08105
20
1.28591
11
2.09048
21
1.27592
0
LINE
8
BLACK
6
CONTINUOUS
10
2.09048
20
1.27592
11
2.09868
21
1.2649
0
LINE
8
BLACK
6
CONTINUOUS
10
2.09868
20
1.2649
11
2.10555
21
1.25301
0
LINE
8
BLACK
6
CONTINUOUS
10
2.10555
20
1.25301
11
2.11099
21
1.2404
0
LINE
8
BLACK
6
CONTINUOUS
10
2.11099
20
1.2404
11
2.11493
21
1.22724
0
LINE
8
BLACK
6
CONTINUOUS
10
2.11493
20
1.22724
11
2.11731
21
1.21371
0
LINE
8
BLACK
6
CONTINUOUS
10
2.11731
20
1.21371
11
2.11811
21
1.2
0
LINE
8
BLACK
6
CONTINUOUS
10
2.11811
20
1.2
11
2.11731
21
1.18629
0
LINE
8
BLACK
6
CONTINUOUS
10
2.11731
20
1.18629
11
2.11493
21
1.17276
0
LINE
8
BLACK
6
CONTINUOUS
10
2.11493
20
1.17276
11
2.11099
21
1.1596
0
LINE
8
BLACK
6
CONTINUOUS
10
2.11099
20
1.1596
11
2.10555
21
1.14699
0
LINE
8
BLACK
6
CONTINUOUS
10
2.10555
20
1.14699
11
2.09868
21
1.1351
0
LINE
8
BLACK
6
CONTINUOUS
10
2.09868
20
1.1351
11
2.09048
21
1.12408
0
LINE
8
BLACK
6
CONTINUOUS
10
2.09048
20
1.12408
11
2.08105
21
1.11409
0
LINE
8
BLACK
6
CONTINUOUS
10
2.08105
20
1.11409
11
2.07053
21
1.10526
0
LINE
8
BLACK
6
CONTINUOUS
10
2.07053
20
1.10526
11
2.05906
21
1.09771
0
LINE
8
BLACK
6
CONTINUOUS
10
2.05906
20
1.09771
11
2.04678
21
1.09155
0
LINE
8
BLACK
6
CONTINUOUS
10
2.04678
20
1.09155
11
2.03387
21
1.08685
0
LINE
8
BLACK
6
CONTINUOUS
10
2.03387
20
1.08685
11
2.02051
21
1.08368
0
LINE
8
BLACK
6
CONTINUOUS
10
2.02051
20
1.08368
11
2.00687
21
1.08209
0
LINE
8
BLACK
6
CONTINUOUS
10
2.00687
20
1.08209
11
1.99313
21
1.08209
0
LINE
8
BLACK
6
CONTINUOUS
10
1.99313
20
1.08209
11
1.97949
21
1.08368
0
LINE
8
BLACK
6
CONTINUOUS
10
1.97949
20
1.08368
11
1.96613
21
1.08685
0
LINE
8
BLACK
6
CONTINUOUS
10
1.96613
20
1.08685
11
1.95322
21
1.09155
0
LINE
8
BLACK
6
CONTINUOUS
10
1.95322
20
1.09155
11
1.94094
21
1.09771
0
LINE
8
BLACK
6
CONTINUOUS
10
1.94094
20
1.09771
11
1.92947
21
1.10526
0
LINE
8
BLACK
6
CONTINUOUS
10
1.92947
20
1.10526
11
1.91895
21
1.11409
0
LINE
8
BLACK
6
CONTINUOUS
10
1.91895
20
1.11409
11
1.90952
21
1.12408
0
LINE
8
BLACK
6
CONTINUOUS
10
1.90952
20
1.12408
11
1.90132
21
1.1351
0
LINE
8
BLACK
6
CONTINUOUS
10
1.90132
20
1.1351
11
1.89445
21
1.14699
0
LINE
8
BLACK
6
CONTINUOUS
10
1.89445
20
1.14699
11
1.88901
21
1.1596
0
LINE
8
BLACK
6
CONTINUOUS
10
1.88901
20
1.1596
11
1.88507
21
1.17276
0
LINE
8
BLACK
6
CONTINUOUS
10
1.88507
20
1.17276
11
1.88269
21
1.18629
0
LINE
8
BLACK
6
CONTINUOUS
10
1.88269
20
1.18629
11
1.88189
21
1.2
0
LINE
8
BLACK
6
CONTINUOUS
10
1.88189
20
1.2
11
1.88269
21
1.21371
0
LINE
8
BLACK
6
CONTINUOUS
10
1.88269
20
1.21371
11
1.88507
21
1.22724
0
LINE
8
BLACK
6
CONTINUOUS
10
1.88507
20
1.22724
11
1.88901
21
1.2404
0
LINE
8
BLACK
6
CONTINUOUS
10
1.88901
20
1.2404
11
1.89445
21
1.25301
0
LINE
8
BLACK
6
CONTINUOUS
10
1.89445
20
1.25301
11
1.90132
21
1.2649
0
LINE
8
BLACK
6
CONTINUOUS
10
1.90132
20
1.2649
11
1.90952
21
1.27592
0
LINE
8
BLACK
6
CONTINUOUS
10
1.90952
20
1.27592
11
1.91895
21
1.28591
0
LINE
8
BLACK
6
CONTINUOUS
10
1.91895
20
1.28591
11
1.92947
21
1.29474
0
LINE
8
BLACK
6
CONTINUOUS
10
1.92947
20
1.29474
11
1.94094
21
1.30229
0
LINE
8
BLACK
6
CONTINUOUS
10
1.94094
20
1.30229
11
1.95322
21
1.30845
0
LINE
8
BLACK
6
CONTINUOUS
10
1.95322
20
1.30845
11
1.96613
21
1.31315
0
LINE
8
BLACK
6
CONTINUOUS
10
1.96613
20
1.31315
11
1.97949
21
1.31632
0
LINE
8
BLACK
6
CONTINUOUS
10
1.97949
20
1.31632
11
1.99313
21
1.31791
0
LINE
8
BLACK
6
CONTINUOUS
10
1.99313
20
1.31791
11
2.00687
21
1.31791
0
LINE
8
BLACK
6
CONTINUOUS
10
2.00687
20
1.31791
11
2.02051
21
1.31632
0
LINE
8
BLACK
6
CONTINUOUS
10
0.656498
20
1.25847
11
0.662669
21
1.25631
0
LINE
8
BLACK
6
CONTINUOUS
10
0.662669
20
1.25631
11
0.668206
21
1.25283
0
LINE
8
BLACK
6
CONTINUOUS
10
0.668206
20
1.25283
11
0.672829
21
1.24821
0
LINE
8
BLACK
6
CONTINUOUS
10
0.672829
20
1.24821
11
0.676308
21
1.24267
0
LINE
8
BLACK
6
CONTINUOUS
10
0.676308
20
1.24267
11
0.678468
21
1.2365
0
LINE
8
BLACK
6
CONTINUOUS
10
0.678468
20
1.2365
11
0.6792
21
1.23
0
LINE
8
BLACK
6
CONTINUOUS
10
0.6792
20
1.23
11
0.678468
21
1.2235
0
LINE
8
BLACK
6
CONTINUOUS
10
0.678468
20
1.2235
11
0.676308
21
1.21733
0
LINE
8
BLACK
6
CONTINUOUS
10
0.676308
20
1.21733
11
0.672829
21
1.21179
0
LINE
8
BLACK
6
CONTINUOUS
10
0.672829
20
1.21179
11
0.668206
21
1.20717
0
LINE
8
BLACK
6
CONTINUOUS
10
0.668206
20
1.20717
11
0.662669
21
1.20369
0
LINE
8
BLACK
6
CONTINUOUS
10
0.662669
20
1.20369
11
0.656498
21
1.20153
0
LINE
8
BLACK
6
CONTINUOUS
10
0.656498
20
1.20153
11
0.65
21
1.2008
0
LINE
8
BLACK
6
CONTINUOUS
10
0.65
20
1.2008
11
0.643502
21
1.20153
0
LINE
8
BLACK
6
CONTINUOUS
10
0.643502
20
1.20153
11
0.637331
21
1.20369
0
LINE
8
BLACK
6
CONTINUOUS
10
0.637331
20
1.20369
11
0.631794
21
1.20717
0
LINE
8
BLACK
6
CONTINUOUS
10
0.631794
20
1.20717
11
0.627171
21
1.21179
0
LINE
8
BLACK
6
CONTINUOUS
10
0.627171
20
1.21179
11
0.623692
21
1.21733
0
LINE
8
BLACK
6
CONTINUOUS
10
0.623692
20
1.21733
11
0.621532
21
1.2235
0
LINE
8
BLACK
6
CONTINUOUS
10
0.621532
20
1.2235
11
0.6208
21
1.23
0
LINE
8
BLACK
6
CONTINUOUS
10
0.6208
20
1.23
11
0.621532
21
1.2365
0
LINE
8
BLACK
6
CONTINUOUS
10
0.621532
20
1.2365
11
0.623692
21
1.24267
0
LINE
8
BLACK
6
CONTINUOUS
10
0.623692
20
1.24267
11
0.627171
21
1.24821
0
LINE
8
BLACK
6
CONTINUOUS
10
0.627171
20
1.24821
11
0.631794
21
1.25283
0
LINE
8
BLACK
6
CONTINUOUS
10
0.631794
20
1.25283
11
0.637331
21
1.25631
0
LINE
8
BLACK
6
CONTINUOUS
10
0.637331
20
1.25631
11
0.643502
21
1.25847
0
LINE
8
BLACK
6
CONTINUOUS
10
0.643502
20
1.25847
11
0.65
21
1.2592
0
LINE
8
BLACK
6
CONTINUOUS
10
0.65
20
1.2592
11
0.656498
21
1.25847
0
LINE
8
BLACK
6
CONTINUOUS
10
0.649694
20
1.22969
11
0.65
21
1.22957
0
LINE
8
BLACK
6
CONTINUOUS
10
0.65
20
1.22957
11
0.650306
21
1.22969
0
LINE
8
BLACK
6
CONTINUOUS
10
0.650306
20
1.22969
11
0.650433
21
1.23
0
LINE
8
BLACK
6
CONTINUOUS
10
0.650433
20
1.23
11
0.650306
21
1.23031
0
LINE
8
BLACK
6
CONTINUOUS
10
0.650306
20
1.23031
11
0.65
21
1.23043
0
LINE
8
BLACK
6
CONTINUOUS
10
0.65
20
1.23043
11
0.649694
21
1.23031
0
LINE
8
BLACK
6
CONTINUOUS
10
0.649694
20
1.23031
11
0.649567
21
1.23
0
LINE
8
BLACK
6
CONTINUOUS
10
0.649567
20
1.23
11
0.649694
21
1.22969
  0
ENDSEC
  0
EOF
