  0
SECTION
  2
HEADER
  9
$ANGBASE
  50
0.0
  9
$ANGDIR
  70
1
  9
$MEASUREMENT
  70
0
  0
ENDSEC
  0
SECTION
  2
TABLES
  0
TABLE
  2
LTYPE
  70
4
  0
LTYPE
  5
40F
  2
CONTINUOUS
  70
0
  3
Solid line
  72
65
  73
0
  40
0.0
  0
LTYPE
  5
410
  2
DASHDOT
 70
0
  3
Dash Dot ____ _ ____ _
 72
65
 73
4
 40
2.0
 49
1.25
 49
-0.25
 49
0.25
 49
-0.25
  0
LTYPE
  5
411
  2
DASHED
 70
0
  3
Dashed __ __ __ __ __
 72
65
 73
2
 40
0.75
 49
0.5
 49
-0.25
  0
LTYPE
  5
43B
  2
DOTTED
 70
0
  3
Dotted .  .  .  .
 72
65
 73
2
 40
0.2
 49
0.0
 49
-0.2
  0
ENDTAB
  0
TABLE
  2
STYLE
  70
4
  0
STYLE
  2
KICAD
  70
0
  40
0
  41
1
  42
1
  50
0
  71
0
  3
isocp.shx
  0
STYLE
  2
KICADB
  70
0
  40
0
  41
1
  42
1
  50
0
  71
0
  3
isocp.shx
  0
STYLE
  2
KICADI
  70
0
  40
0
  41
1
  42
1
  50
15
  71
0
  3
isocp.shx
  0
STYLE
  2
KICADBI
  70
0
  40
0
  41
1
  42
1
  50
15
  71
0
  3
isocp.shx
  0
ENDTAB
  0
TABLE
  2
LAYER
  70
1
  0
LAYER
  2
BLACK
  70
0
  62
7
  6
CONTINUOUS
  0
ENDTAB
  0
ENDSEC
  0
SECTION
  2
ENTITIES
0
LINE
8
BLACK
6
CONTINUOUS
10
2.42492
20
0.575098
11
2.43877
21
0.572656
0
LINE
8
BLACK
6
CONTINUOUS
10
2.43877
20
0.572656
11
2.45226
21
0.568684
0
LINE
8
BLACK
6
CONTINUOUS
10
2.45226
20
0.568684
11
2.46523
21
0.563234
0
LINE
8
BLACK
6
CONTINUOUS
10
2.46523
20
0.563234
11
2.47751
21
0.556372
0
LINE
8
BLACK
6
CONTINUOUS
10
2.47751
20
0.556372
11
2.48894
21
0.548184
0
LINE
8
BLACK
6
CONTINUOUS
10
2.48894
20
0.548184
11
2.49939
21
0.538773
0
LINE
8
BLACK
6
CONTINUOUS
10
2.49939
20
0.538773
11
2.50873
21
0.528255
0
LINE
8
BLACK
6
CONTINUOUS
10
2.50873
20
0.528255
11
2.51684
21
0.516761
0
LINE
8
BLACK
6
CONTINUOUS
10
2.51684
20
0.516761
11
2.52362
21
0.504436
0
LINE
8
BLACK
6
CONTINUOUS
10
2.52362
20
0.504436
11
2.52898
21
0.491432
0
LINE
8
BLACK
6
CONTINUOUS
10
2.52898
20
0.491432
11
2.53285
21
0.477912
0
LINE
8
BLACK
6
CONTINUOUS
10
2.53285
20
0.477912
11
2.5352
21
0.464043
0
LINE
8
BLACK
6
CONTINUOUS
10
2.5352
20
0.464043
11
2.53598
21
0.45
0
LINE
8
BLACK
6
CONTINUOUS
10
2.53598
20
0.45
11
2.53594
21
0.446482
0
LINE
8
BLACK
6
CONTINUOUS
10
2.53594
20
0.446482
11
2.53476
21
0.432466
0
LINE
8
BLACK
6
CONTINUOUS
10
2.53476
20
0.432466
11
2.53203
21
0.418669
0
LINE
8
BLACK
6
CONTINUOUS
10
2.53203
20
0.418669
11
2.52777
21
0.405262
0
LINE
8
BLACK
6
CONTINUOUS
10
2.52777
20
0.405262
11
2.52205
21
0.392413
0
LINE
8
BLACK
6
CONTINUOUS
10
2.52205
20
0.392413
11
2.51493
21
0.380281
0
LINE
8
BLACK
6
CONTINUOUS
10
2.51493
20
0.380281
11
2.50651
21
0.369019
0
LINE
8
BLACK
6
CONTINUOUS
10
2.50651
20
0.369019
11
2.49688
21
0.358766
0
LINE
8
BLACK
6
CONTINUOUS
10
2.49688
20
0.358766
11
2.48617
21
0.34965
0
LINE
8
BLACK
6
CONTINUOUS
10
2.48617
20
0.34965
11
2.47451
21
0.341785
0
LINE
8
BLACK
6
CONTINUOUS
10
2.47451
20
0.341785
11
2.46204
21
0.335268
0
LINE
8
BLACK
6
CONTINUOUS
10
2.46204
20
0.335268
11
2.44893
21
0.330182
0
LINE
8
BLACK
6
CONTINUOUS
10
2.44893
20
0.330182
11
2.43533
21
0.326589
0
LINE
8
BLACK
6
CONTINUOUS
10
2.43533
20
0.326589
11
2.42142
21
0.324534
0
LINE
8
BLACK
6
CONTINUOUS
10
2.42142
20
0.324534
11
2.40736
21
0.324043
0
LINE
8
BLACK
6
CONTINUOUS
10
2.40736
20
0.324043
11
2.39334
21
0.325122
0
LINE
8
BLACK
6
CONTINUOUS
10
2.39334
20
0.325122
11
2.37952
21
0.327758
0
LINE
8
BLACK
6
CONTINUOUS
10
2.37952
20
0.327758
11
2.36609
21
0.331917
0
LINE
8
BLACK
6
CONTINUOUS
10
2.36609
20
0.331917
11
2.3532
21
0.337548
0
LINE
8
BLACK
6
CONTINUOUS
10
2.3532
20
0.337548
11
2.34102
21
0.344581
0
LINE
8
BLACK
6
CONTINUOUS
10
2.34102
20
0.344581
11
2.32969
21
0.352927
0
LINE
8
BLACK
6
CONTINUOUS
10
2.32969
20
0.352927
11
2.31937
21
0.362484
0
LINE
8
BLACK
6
CONTINUOUS
10
2.31937
20
0.362484
11
2.31018
21
0.373131
0
LINE
8
BLACK
6
CONTINUOUS
10
2.31018
20
0.373131
11
2.30224
21
0.384737
0
LINE
8
BLACK
6
CONTINUOUS
10
2.30224
20
0.384737
11
2.29563
21
0.397156
0
LINE
8
BLACK
6
CONTINUOUS
10
2.29563
20
0.397156
11
2.29046
21
0.410233
0
LINE
8
BLACK
6
CONTINUOUS
10
2.29046
20
0.410233
11
2.28677
21
0.423806
0
LINE
8
BLACK
6
CONTINUOUS
10
2.28677
20
0.423806
11
2.28462
21
0.437706
0
LINE
8
BLACK
6
CONTINUOUS
10
2.28462
20
0.437706
11
2.28403
21
0.451759
0
LINE
8
BLACK
6
CONTINUOUS
10
2.28403
20
0.451759
11
2.28501
21
0.46579
0
LINE
8
BLACK
6
CONTINUOUS
10
2.28501
20
0.46579
11
2.28755
21
0.479624
0
LINE
8
BLACK
6
CONTINUOUS
10
2.28755
20
0.479624
11
2.29161
21
0.493089
0
LINE
8
BLACK
6
CONTINUOUS
10
2.29161
20
0.493089
11
2.29715
21
0.506017
0
LINE
8
BLACK
6
CONTINUOUS
10
2.29715
20
0.506017
11
2.3041
21
0.518247
0
LINE
8
BLACK
6
CONTINUOUS
10
2.3041
20
0.518247
11
2.31237
21
0.529626
0
LINE
8
BLACK
6
CONTINUOUS
10
2.31237
20
0.529626
11
2.32185
21
0.540012
0
LINE
8
BLACK
6
CONTINUOUS
10
2.32185
20
0.540012
11
2.33244
21
0.549277
0
LINE
8
BLACK
6
CONTINUOUS
10
2.33244
20
0.549277
11
2.34399
21
0.557304
0
LINE
8
BLACK
6
CONTINUOUS
10
2.34399
20
0.557304
11
2.35636
21
0.563994
0
LINE
8
BLACK
6
CONTINUOUS
10
2.35636
20
0.563994
11
2.3694
21
0.569263
0
LINE
8
BLACK
6
CONTINUOUS
10
2.3694
20
0.569263
11
2.38295
21
0.573045
0
LINE
8
BLACK
6
CONTINUOUS
10
2.38295
20
0.573045
11
2.39683
21
0.575294
0
LINE
8
BLACK
6
CONTINUOUS
10
2.39683
20
0.575294
11
2.41088
21
0.575981
0
LINE
8
BLACK
6
CONTINUOUS
10
2.41088
20
0.575981
11
2.42492
21
0.575098
0
LINE
8
BLACK
6
CONTINUOUS
10
0.424917
20
0.575098
11
0.438769
21
0.572656
0
LINE
8
BLACK
6
CONTINUOUS
10
0.438769
20
0.572656
11
0.452262
21
0.568684
0
LINE
8
BLACK
6
CONTINUOUS
10
0.452262
20
0.568684
11
0.465228
21
0.563234
0
LINE
8
BLACK
6
CONTINUOUS
10
0.465228
20
0.563234
11
0.477506
21
0.556372
0
LINE
8
BLACK
6
CONTINUOUS
10
0.477506
20
0.556372
11
0.488942
21
0.548184
0
LINE
8
BLACK
6
CONTINUOUS
10
0.488942
20
0.548184
11
0.499395
21
0.538773
0
LINE
8
BLACK
6
CONTINUOUS
10
0.499395
20
0.538773
11
0.508733
21
0.528255
0
LINE
8
BLACK
6
CONTINUOUS
10
0.508733
20
0.528255
11
0.516841
21
0.516761
0
LINE
8
BLACK
6
CONTINUOUS
10
0.516841
20
0.516761
11
0.523617
21
0.504436
0
LINE
8
BLACK
6
CONTINUOUS
10
0.523617
20
0.504436
11
0.528977
21
0.491432
0
LINE
8
BLACK
6
CONTINUOUS
10
0.528977
20
0.491432
11
0.532853
21
0.477912
0
LINE
8
BLACK
6
CONTINUOUS
10
0.532853
20
0.477912
11
0.535199
21
0.464043
0
LINE
8
BLACK
6
CONTINUOUS
10
0.535199
20
0.464043
11
0.535984
21
0.45
0
LINE
8
BLACK
6
CONTINUOUS
10
0.535984
20
0.45
11
0.535935
21
0.446482
0
LINE
8
BLACK
6
CONTINUOUS
10
0.535935
20
0.446482
11
0.534758
21
0.432466
0
LINE
8
BLACK
6
CONTINUOUS
10
0.534758
20
0.432466
11
0.532026
21
0.418669
0
LINE
8
BLACK
6
CONTINUOUS
10
0.532026
20
0.418669
11
0.527773
21
0.405262
0
LINE
8
BLACK
6
CONTINUOUS
10
0.527773
20
0.405262
11
0.522052
21
0.392413
0
LINE
8
BLACK
6
CONTINUOUS
10
0.522052
20
0.392413
11
0.514935
21
0.380281
0
LINE
8
BLACK
6
CONTINUOUS
10
0.514935
20
0.380281
11
0.50651
21
0.369019
0
LINE
8
BLACK
6
CONTINUOUS
10
0.50651
20
0.369019
11
0.496881
21
0.358766
0
LINE
8
BLACK
6
CONTINUOUS
10
0.496881
20
0.358766
11
0.48617
21
0.34965
0
LINE
8
BLACK
6
CONTINUOUS
10
0.48617
20
0.34965
11
0.474509
21
0.341785
0
LINE
8
BLACK
6
CONTINUOUS
10
0.474509
20
0.341785
11
0.462045
21
0.335268
0
LINE
8
BLACK
6
CONTINUOUS
10
0.462045
20
0.335268
11
0.448931
21
0.330182
0
LINE
8
BLACK
6
CONTINUOUS
10
0.448931
20
0.330182
11
0.435333
21
0.326589
0
LINE
8
BLACK
6
CONTINUOUS
10
0.435333
20
0.326589
11
0.421418
21
0.324534
0
LINE
8
BLACK
6
CONTINUOUS
10
0.421418
20
0.324534
11
0.407362
21
0.324043
0
LINE
8
BLACK
6
CONTINUOUS
10
0.407362
20
0.324043
11
0.393338
21
0.325122
0
LINE
8
BLACK
6
CONTINUOUS
10
0.393338
20
0.325122
11
0.379522
21
0.327758
0
LINE
8
BLACK
6
CONTINUOUS
10
0.379522
20
0.327758
11
0.366085
21
0.331917
0
LINE
8
BLACK
6
CONTINUOUS
10
0.366085
20
0.331917
11
0.353197
21
0.337548
0
LINE
8
BLACK
6
CONTINUOUS
10
0.353197
20
0.337548
11
0.341016
21
0.344581
0
LINE
8
BLACK
6
CONTINUOUS
10
0.341016
20
0.344581
11
0.329695
21
0.352927
0
LINE
8
BLACK
6
CONTINUOUS
10
0.329695
20
0.352927
11
0.319375
21
0.362484
0
LINE
8
BLACK
6
CONTINUOUS
10
0.319375
20
0.362484
11
0.310184
21
0.373131
0
LINE
8
BLACK
6
CONTINUOUS
10
0.310184
20
0.373131
11
0.302238
21
0.384737
0
LINE
8
BLACK
6
CONTINUOUS
10
0.302238
20
0.384737
11
0.295634
21
0.397156
0
LINE
8
BLACK
6
CONTINUOUS
10
0.295634
20
0.397156
11
0.290457
21
0.410233
0
LINE
8
BLACK
6
CONTINUOUS
10
0.290457
20
0.410233
11
0.286769
21
0.423806
0
LINE
8
BLACK
6
CONTINUOUS
10
0.286769
20
0.423806
11
0.284617
21
0.437706
0
LINE
8
BLACK
6
CONTINUOUS
10
0.284617
20
0.437706
11
0.284028
21
0.451759
0
LINE
8
BLACK
6
CONTINUOUS
10
0.284028
20
0.451759
11
0.285009
21
0.46579
0
LINE
8
BLACK
6
CONTINUOUS
10
0.285009
20
0.46579
11
0.287548
21
0.479624
0
LINE
8
BLACK
6
CONTINUOUS
10
0.287548
20
0.479624
11
0.291614
21
0.493089
0
LINE
8
BLACK
6
CONTINUOUS
10
0.291614
20
0.493089
11
0.297154
21
0.506017
0
LINE
8
BLACK
6
CONTINUOUS
10
0.297154
20
0.506017
11
0.304102
21
0.518247
0
LINE
8
BLACK
6
CONTINUOUS
10
0.304102
20
0.518247
11
0.312369
21
0.529626
0
LINE
8
BLACK
6
CONTINUOUS
10
0.312369
20
0.529626
11
0.321853
21
0.540012
0
LINE
8
BLACK
6
CONTINUOUS
10
0.321853
20
0.540012
11
0.332436
21
0.549277
0
LINE
8
BLACK
6
CONTINUOUS
10
0.332436
20
0.549277
11
0.343986
21
0.557304
0
LINE
8
BLACK
6
CONTINUOUS
10
0.343986
20
0.557304
11
0.356359
21
0.563994
0
LINE
8
BLACK
6
CONTINUOUS
10
0.356359
20
0.563994
11
0.3694
21
0.569263
0
LINE
8
BLACK
6
CONTINUOUS
10
0.3694
20
0.569263
11
0.382947
21
0.573045
0
LINE
8
BLACK
6
CONTINUOUS
10
0.382947
20
0.573045
11
0.396831
21
0.575294
0
LINE
8
BLACK
6
CONTINUOUS
10
0.396831
20
0.575294
11
0.41088
21
0.575981
0
LINE
8
BLACK
6
CONTINUOUS
10
0.41088
20
0.575981
11
0.424917
21
0.575098
0
LINE
8
BLACK
6
CONTINUOUS
10
1.34301
20
0.437275
11
1.34557
21
0.435568
0
LINE
8
BLACK
6
CONTINUOUS
10
1.34557
20
0.435568
11
1.34727
21
0.433013
0
LINE
8
BLACK
6
CONTINUOUS
10
1.34727
20
0.433013
11
1.34787
21
0.43
0
LINE
8
BLACK
6
CONTINUOUS
10
1.34787
20
0.43
11
1.34787
21
0.37
0
LINE
8
BLACK
6
CONTINUOUS
10
1.34787
20
0.37
11
1.34727
21
0.366987
0
LINE
8
BLACK
6
CONTINUOUS
10
1.34727
20
0.366987
11
1.34557
21
0.364432
0
LINE
8
BLACK
6
CONTINUOUS
10
1.34557
20
0.364432
11
1.34301
21
0.362725
0
LINE
8
BLACK
6
CONTINUOUS
10
1.34301
20
0.362725
11
1.34
21
0.362126
0
LINE
8
BLACK
6
CONTINUOUS
10
1.34
20
0.362126
11
1.28
21
0.362126
0
LINE
8
BLACK
6
CONTINUOUS
10
1.28
20
0.362126
11
1.27699
21
0.362725
0
LINE
8
BLACK
6
CONTINUOUS
10
1.27699
20
0.362725
11
1.27443
21
0.364432
0
LINE
8
BLACK
6
CONTINUOUS
10
1.27443
20
0.364432
11
1.27273
21
0.366987
0
LINE
8
BLACK
6
CONTINUOUS
10
1.27273
20
0.366987
11
1.27213
21
0.37
0
LINE
8
BLACK
6
CONTINUOUS
10
1.27213
20
0.37
11
1.27213
21
0.43
0
LINE
8
BLACK
6
CONTINUOUS
10
1.27213
20
0.43
11
1.27273
21
0.433013
0
LINE
8
BLACK
6
CONTINUOUS
10
1.27273
20
0.433013
11
1.27443
21
0.435568
0
LINE
8
BLACK
6
CONTINUOUS
10
1.27443
20
0.435568
11
1.27699
21
0.437275
0
LINE
8
BLACK
6
CONTINUOUS
10
1.27699
20
0.437275
11
1.28
21
0.437874
0
LINE
8
BLACK
6
CONTINUOUS
10
1.28
20
0.437874
11
1.34
21
0.437874
0
LINE
8
BLACK
6
CONTINUOUS
10
1.34
20
0.437874
11
1.34301
21
0.437275
0
LINE
8
BLACK
6
CONTINUOUS
10
0.843013
20
0.437275
11
0.845568
21
0.435568
0
LINE
8
BLACK
6
CONTINUOUS
10
0.845568
20
0.435568
11
0.847275
21
0.433013
0
LINE
8
BLACK
6
CONTINUOUS
10
0.847275
20
0.433013
11
0.847874
21
0.43
0
LINE
8
BLACK
6
CONTINUOUS
10
0.847874
20
0.43
11
0.847874
21
0.37
0
LINE
8
BLACK
6
CONTINUOUS
10
0.847874
20
0.37
11
0.847275
21
0.366987
0
LINE
8
BLACK
6
CONTINUOUS
10
0.847275
20
0.366987
11
0.845568
21
0.364432
0
LINE
8
BLACK
6
CONTINUOUS
10
0.845568
20
0.364432
11
0.843013
21
0.362725
0
LINE
8
BLACK
6
CONTINUOUS
10
0.843013
20
0.362725
11
0.84
21
0.362126
0
LINE
8
BLACK
6
CONTINUOUS
10
0.84
20
0.362126
11
0.78
21
0.362126
0
LINE
8
BLACK
6
CONTINUOUS
10
0.78
20
0.362126
11
0.776987
21
0.362725
0
LINE
8
BLACK
6
CONTINUOUS
10
0.776987
20
0.362725
11
0.774432
21
0.364432
0
LINE
8
BLACK
6
CONTINUOUS
10
0.774432
20
0.364432
11
0.772725
21
0.366987
0
LINE
8
BLACK
6
CONTINUOUS
10
0.772725
20
0.366987
11
0.772126
21
0.37
0
LINE
8
BLACK
6
CONTINUOUS
10
0.772126
20
0.37
11
0.772126
21
0.43
0
LINE
8
BLACK
6
CONTINUOUS
10
0.772126
20
0.43
11
0.772725
21
0.433013
0
LINE
8
BLACK
6
CONTINUOUS
10
0.772725
20
0.433013
11
0.774432
21
0.435568
0
LINE
8
BLACK
6
CONTINUOUS
10
0.774432
20
0.435568
11
0.776987
21
0.437275
0
LINE
8
BLACK
6
CONTINUOUS
10
0.776987
20
0.437275
11
0.78
21
0.437874
0
LINE
8
BLACK
6
CONTINUOUS
10
0.78
20
0.437874
11
0.84
21
0.437874
0
LINE
8
BLACK
6
CONTINUOUS
10
0.84
20
0.437874
11
0.843013
21
0.437275
0
LINE
8
BLACK
6
CONTINUOUS
10
0.943013
20
0.437275
11
0.945568
21
0.435568
0
LINE
8
BLACK
6
CONTINUOUS
10
0.945568
20
0.435568
11
0.947275
21
0.433013
0
LINE
8
BLACK
6
CONTINUOUS
10
0.947275
20
0.433013
11
0.947874
21
0.43
0
LINE
8
BLACK
6
CONTINUOUS
10
0.947874
20
0.43
11
0.947874
21
0.37
0
LINE
8
BLACK
6
CONTINUOUS
10
0.947874
20
0.37
11
0.947275
21
0.366987
0
LINE
8
BLACK
6
CONTINUOUS
10
0.947275
20
0.366987
11
0.945568
21
0.364432
0
LINE
8
BLACK
6
CONTINUOUS
10
0.945568
20
0.364432
11
0.943013
21
0.362725
0
LINE
8
BLACK
6
CONTINUOUS
10
0.943013
20
0.362725
11
0.94
21
0.362126
0
LINE
8
BLACK
6
CONTINUOUS
10
0.94
20
0.362126
11
0.88
21
0.362126
0
LINE
8
BLACK
6
CONTINUOUS
10
0.88
20
0.362126
11
0.876987
21
0.362725
0
LINE
8
BLACK
6
CONTINUOUS
10
0.876987
20
0.362725
11
0.874432
21
0.364432
0
LINE
8
BLACK
6
CONTINUOUS
10
0.874432
20
0.364432
11
0.872725
21
0.366987
0
LINE
8
BLACK
6
CONTINUOUS
10
0.872725
20
0.366987
11
0.872126
21
0.37
0
LINE
8
BLACK
6
CONTINUOUS
10
0.872126
20
0.37
11
0.872126
21
0.43
0
LINE
8
BLACK
6
CONTINUOUS
10
0.872126
20
0.43
11
0.872725
21
0.433013
0
LINE
8
BLACK
6
CONTINUOUS
10
0.872725
20
0.433013
11
0.874432
21
0.435568
0
LINE
8
BLACK
6
CONTINUOUS
10
0.874432
20
0.435568
11
0.876987
21
0.437275
0
LINE
8
BLACK
6
CONTINUOUS
10
0.876987
20
0.437275
11
0.88
21
0.437874
0
LINE
8
BLACK
6
CONTINUOUS
10
0.88
20
0.437874
11
0.94
21
0.437874
0
LINE
8
BLACK
6
CONTINUOUS
10
0.94
20
0.437874
11
0.943013
21
0.437275
0
LINE
8
BLACK
6
CONTINUOUS
10
0.743013
20
0.437275
11
0.745568
21
0.435568
0
LINE
8
BLACK
6
CONTINUOUS
10
0.745568
20
0.435568
11
0.747275
21
0.433013
0
LINE
8
BLACK
6
CONTINUOUS
10
0.747275
20
0.433013
11
0.747874
21
0.43
0
LINE
8
BLACK
6
CONTINUOUS
10
0.747874
20
0.43
11
0.747874
21
0.37
0
LINE
8
BLACK
6
CONTINUOUS
10
0.747874
20
0.37
11
0.747275
21
0.366987
0
LINE
8
BLACK
6
CONTINUOUS
10
0.747275
20
0.366987
11
0.745568
21
0.364432
0
LINE
8
BLACK
6
CONTINUOUS
10
0.745568
20
0.364432
11
0.743013
21
0.362725
0
LINE
8
BLACK
6
CONTINUOUS
10
0.743013
20
0.362725
11
0.74
21
0.362126
0
LINE
8
BLACK
6
CONTINUOUS
10
0.74
20
0.362126
11
0.68
21
0.362126
0
LINE
8
BLACK
6
CONTINUOUS
10
0.68
20
0.362126
11
0.676987
21
0.362725
0
LINE
8
BLACK
6
CONTINUOUS
10
0.676987
20
0.362725
11
0.674432
21
0.364432
0
LINE
8
BLACK
6
CONTINUOUS
10
0.674432
20
0.364432
11
0.672725
21
0.366987
0
LINE
8
BLACK
6
CONTINUOUS
10
0.672725
20
0.366987
11
0.672126
21
0.37
0
LINE
8
BLACK
6
CONTINUOUS
10
0.672126
20
0.37
11
0.672126
21
0.43
0
LINE
8
BLACK
6
CONTINUOUS
10
0.672126
20
0.43
11
0.672725
21
0.433013
0
LINE
8
BLACK
6
CONTINUOUS
10
0.672725
20
0.433013
11
0.674432
21
0.435568
0
LINE
8
BLACK
6
CONTINUOUS
10
0.674432
20
0.435568
11
0.676987
21
0.437275
0
LINE
8
BLACK
6
CONTINUOUS
10
0.676987
20
0.437275
11
0.68
21
0.437874
0
LINE
8
BLACK
6
CONTINUOUS
10
0.68
20
0.437874
11
0.74
21
0.437874
0
LINE
8
BLACK
6
CONTINUOUS
10
0.74
20
0.437874
11
0.743013
21
0.437275
0
LINE
8
BLACK
6
CONTINUOUS
10
1.86301
20
0.437275
11
1.86557
21
0.435568
0
LINE
8
BLACK
6
CONTINUOUS
10
1.86557
20
0.435568
11
1.86727
21
0.433013
0
LINE
8
BLACK
6
CONTINUOUS
10
1.86727
20
0.433013
11
1.86787
21
0.43
0
LINE
8
BLACK
6
CONTINUOUS
10
1.86787
20
0.43
11
1.86787
21
0.37
0
LINE
8
BLACK
6
CONTINUOUS
10
1.86787
20
0.37
11
1.86727
21
0.366987
0
LINE
8
BLACK
6
CONTINUOUS
10
1.86727
20
0.366987
11
1.86557
21
0.364432
0
LINE
8
BLACK
6
CONTINUOUS
10
1.86557
20
0.364432
11
1.86301
21
0.362725
0
LINE
8
BLACK
6
CONTINUOUS
10
1.86301
20
0.362725
11
1.86
21
0.362126
0
LINE
8
BLACK
6
CONTINUOUS
10
1.86
20
0.362126
11
1.8
21
0.362126
0
LINE
8
BLACK
6
CONTINUOUS
10
1.8
20
0.362126
11
1.79699
21
0.362725
0
LINE
8
BLACK
6
CONTINUOUS
10
1.79699
20
0.362725
11
1.79443
21
0.364432
0
LINE
8
BLACK
6
CONTINUOUS
10
1.79443
20
0.364432
11
1.79273
21
0.366987
0
LINE
8
BLACK
6
CONTINUOUS
10
1.79273
20
0.366987
11
1.79213
21
0.37
0
LINE
8
BLACK
6
CONTINUOUS
10
1.79213
20
0.37
11
1.79213
21
0.43
0
LINE
8
BLACK
6
CONTINUOUS
10
1.79213
20
0.43
11
1.79273
21
0.433013
0
LINE
8
BLACK
6
CONTINUOUS
10
1.79273
20
0.433013
11
1.79443
21
0.435568
0
LINE
8
BLACK
6
CONTINUOUS
10
1.79443
20
0.435568
11
1.79699
21
0.437275
0
LINE
8
BLACK
6
CONTINUOUS
10
1.79699
20
0.437275
11
1.8
21
0.437874
0
LINE
8
BLACK
6
CONTINUOUS
10
1.8
20
0.437874
11
1.86
21
0.437874
0
LINE
8
BLACK
6
CONTINUOUS
10
1.86
20
0.437874
11
1.86301
21
0.437275
0
LINE
8
BLACK
6
CONTINUOUS
10
1.56301
20
0.437275
11
1.56557
21
0.435568
0
LINE
8
BLACK
6
CONTINUOUS
10
1.56557
20
0.435568
11
1.56727
21
0.433013
0
LINE
8
BLACK
6
CONTINUOUS
10
1.56727
20
0.433013
11
1.56787
21
0.43
0
LINE
8
BLACK
6
CONTINUOUS
10
1.56787
20
0.43
11
1.56787
21
0.37
0
LINE
8
BLACK
6
CONTINUOUS
10
1.56787
20
0.37
11
1.56727
21
0.366987
0
LINE
8
BLACK
6
CONTINUOUS
10
1.56727
20
0.366987
11
1.56557
21
0.364432
0
LINE
8
BLACK
6
CONTINUOUS
10
1.56557
20
0.364432
11
1.56301
21
0.362725
0
LINE
8
BLACK
6
CONTINUOUS
10
1.56301
20
0.362725
11
1.56
21
0.362126
0
LINE
8
BLACK
6
CONTINUOUS
10
1.56
20
0.362126
11
1.5
21
0.362126
0
LINE
8
BLACK
6
CONTINUOUS
10
1.5
20
0.362126
11
1.49699
21
0.362725
0
LINE
8
BLACK
6
CONTINUOUS
10
1.49699
20
0.362725
11
1.49443
21
0.364432
0
LINE
8
BLACK
6
CONTINUOUS
10
1.49443
20
0.364432
11
1.49273
21
0.366987
0
LINE
8
BLACK
6
CONTINUOUS
10
1.49273
20
0.366987
11
1.49213
21
0.37
0
LINE
8
BLACK
6
CONTINUOUS
10
1.49213
20
0.37
11
1.49213
21
0.43
0
LINE
8
BLACK
6
CONTINUOUS
10
1.49213
20
0.43
11
1.49273
21
0.433013
0
LINE
8
BLACK
6
CONTINUOUS
10
1.49273
20
0.433013
11
1.49443
21
0.435568
0
LINE
8
BLACK
6
CONTINUOUS
10
1.49443
20
0.435568
11
1.49699
21
0.437275
0
LINE
8
BLACK
6
CONTINUOUS
10
1.49699
20
0.437275
11
1.5
21
0.437874
0
LINE
8
BLACK
6
CONTINUOUS
10
1.5
20
0.437874
11
1.56
21
0.437874
0
LINE
8
BLACK
6
CONTINUOUS
10
1.56
20
0.437874
11
1.56301
21
0.437275
0
LINE
8
BLACK
6
CONTINUOUS
10
2.06301
20
0.437275
11
2.06557
21
0.435568
0
LINE
8
BLACK
6
CONTINUOUS
10
2.06557
20
0.435568
11
2.06727
21
0.433013
0
LINE
8
BLACK
6
CONTINUOUS
10
2.06727
20
0.433013
11
2.06787
21
0.43
0
LINE
8
BLACK
6
CONTINUOUS
10
2.06787
20
0.43
11
2.06787
21
0.37
0
LINE
8
BLACK
6
CONTINUOUS
10
2.06787
20
0.37
11
2.06727
21
0.366987
0
LINE
8
BLACK
6
CONTINUOUS
10
2.06727
20
0.366987
11
2.06557
21
0.364432
0
LINE
8
BLACK
6
CONTINUOUS
10
2.06557
20
0.364432
11
2.06301
21
0.362725
0
LINE
8
BLACK
6
CONTINUOUS
10
2.06301
20
0.362725
11
2.06
21
0.362126
0
LINE
8
BLACK
6
CONTINUOUS
10
2.06
20
0.362126
11
2
21
0.362126
0
LINE
8
BLACK
6
CONTINUOUS
10
2
20
0.362126
11
1.99699
21
0.362725
0
LINE
8
BLACK
6
CONTINUOUS
10
1.99699
20
0.362725
11
1.99443
21
0.364432
0
LINE
8
BLACK
6
CONTINUOUS
10
1.99443
20
0.364432
11
1.99273
21
0.366987
0
LINE
8
BLACK
6
CONTINUOUS
10
1.99273
20
0.366987
11
1.99213
21
0.37
0
LINE
8
BLACK
6
CONTINUOUS
10
1.99213
20
0.37
11
1.99213
21
0.43
0
LINE
8
BLACK
6
CONTINUOUS
10
1.99213
20
0.43
11
1.99273
21
0.433013
0
LINE
8
BLACK
6
CONTINUOUS
10
1.99273
20
0.433013
11
1.99443
21
0.435568
0
LINE
8
BLACK
6
CONTINUOUS
10
1.99443
20
0.435568
11
1.99699
21
0.437275
0
LINE
8
BLACK
6
CONTINUOUS
10
1.99699
20
0.437275
11
2
21
0.437874
0
LINE
8
BLACK
6
CONTINUOUS
10
2
20
0.437874
11
2.06
21
0.437874
0
LINE
8
BLACK
6
CONTINUOUS
10
2.06
20
0.437874
11
2.06301
21
0.437275
0
LINE
8
BLACK
6
CONTINUOUS
10
1.96301
20
0.437275
11
1.96557
21
0.435568
0
LINE
8
BLACK
6
CONTINUOUS
10
1.96557
20
0.435568
11
1.96727
21
0.433013
0
LINE
8
BLACK
6
CONTINUOUS
10
1.96727
20
0.433013
11
1.96787
21
0.43
0
LINE
8
BLACK
6
CONTINUOUS
10
1.96787
20
0.43
11
1.96787
21
0.37
0
LINE
8
BLACK
6
CONTINUOUS
10
1.96787
20
0.37
11
1.96727
21
0.366987
0
LINE
8
BLACK
6
CONTINUOUS
10
1.96727
20
0.366987
11
1.96557
21
0.364432
0
LINE
8
BLACK
6
CONTINUOUS
10
1.96557
20
0.364432
11
1.96301
21
0.362725
0
LINE
8
BLACK
6
CONTINUOUS
10
1.96301
20
0.362725
11
1.96
21
0.362126
0
LINE
8
BLACK
6
CONTINUOUS
10
1.96
20
0.362126
11
1.9
21
0.362126
0
LINE
8
BLACK
6
CONTINUOUS
10
1.9
20
0.362126
11
1.89699
21
0.362725
0
LINE
8
BLACK
6
CONTINUOUS
10
1.89699
20
0.362725
11
1.89443
21
0.364432
0
LINE
8
BLACK
6
CONTINUOUS
10
1.89443
20
0.364432
11
1.89273
21
0.366987
0
LINE
8
BLACK
6
CONTINUOUS
10
1.89273
20
0.366987
11
1.89213
21
0.37
0
LINE
8
BLACK
6
CONTINUOUS
10
1.89213
20
0.37
11
1.89213
21
0.43
0
LINE
8
BLACK
6
CONTINUOUS
10
1.89213
20
0.43
11
1.89273
21
0.433013
0
LINE
8
BLACK
6
CONTINUOUS
10
1.89273
20
0.433013
11
1.89443
21
0.435568
0
LINE
8
BLACK
6
CONTINUOUS
10
1.89443
20
0.435568
11
1.89699
21
0.437275
0
LINE
8
BLACK
6
CONTINUOUS
10
1.89699
20
0.437275
11
1.9
21
0.437874
0
LINE
8
BLACK
6
CONTINUOUS
10
1.9
20
0.437874
11
1.96
21
0.437874
0
LINE
8
BLACK
6
CONTINUOUS
10
1.96
20
0.437874
11
1.96301
21
0.437275
0
LINE
8
BLACK
6
CONTINUOUS
10
2.16301
20
0.437275
11
2.16557
21
0.435568
0
LINE
8
BLACK
6
CONTINUOUS
10
2.16557
20
0.435568
11
2.16727
21
0.433013
0
LINE
8
BLACK
6
CONTINUOUS
10
2.16727
20
0.433013
11
2.16787
21
0.43
0
LINE
8
BLACK
6
CONTINUOUS
10
2.16787
20
0.43
11
2.16787
21
0.37
0
LINE
8
BLACK
6
CONTINUOUS
10
2.16787
20
0.37
11
2.16727
21
0.366987
0
LINE
8
BLACK
6
CONTINUOUS
10
2.16727
20
0.366987
11
2.16557
21
0.364432
0
LINE
8
BLACK
6
CONTINUOUS
10
2.16557
20
0.364432
11
2.16301
21
0.362725
0
LINE
8
BLACK
6
CONTINUOUS
10
2.16301
20
0.362725
11
2.16
21
0.362126
0
LINE
8
BLACK
6
CONTINUOUS
10
2.16
20
0.362126
11
2.1
21
0.362126
0
LINE
8
BLACK
6
CONTINUOUS
10
2.1
20
0.362126
11
2.09699
21
0.362725
0
LINE
8
BLACK
6
CONTINUOUS
10
2.09699
20
0.362725
11
2.09443
21
0.364432
0
LINE
8
BLACK
6
CONTINUOUS
10
2.09443
20
0.364432
11
2.09273
21
0.366987
0
LINE
8
BLACK
6
CONTINUOUS
10
2.09273
20
0.366987
11
2.09213
21
0.37
0
LINE
8
BLACK
6
CONTINUOUS
10
2.09213
20
0.37
11
2.09213
21
0.43
0
LINE
8
BLACK
6
CONTINUOUS
10
2.09213
20
0.43
11
2.09273
21
0.433013
0
LINE
8
BLACK
6
CONTINUOUS
10
2.09273
20
0.433013
11
2.09443
21
0.435568
0
LINE
8
BLACK
6
CONTINUOUS
10
2.09443
20
0.435568
11
2.09699
21
0.437275
0
LINE
8
BLACK
6
CONTINUOUS
10
2.09699
20
0.437275
11
2.1
21
0.437874
0
LINE
8
BLACK
6
CONTINUOUS
10
2.1
20
0.437874
11
2.16
21
0.437874
0
LINE
8
BLACK
6
CONTINUOUS
10
2.16
20
0.437874
11
2.16301
21
0.437275
0
LINE
8
BLACK
6
CONTINUOUS
10
1.66301
20
0.437275
11
1.66557
21
0.435568
0
LINE
8
BLACK
6
CONTINUOUS
10
1.66557
20
0.435568
11
1.66727
21
0.433013
0
LINE
8
BLACK
6
CONTINUOUS
10
1.66727
20
0.433013
11
1.66787
21
0.43
0
LINE
8
BLACK
6
CONTINUOUS
10
1.66787
20
0.43
11
1.66787
21
0.37
0
LINE
8
BLACK
6
CONTINUOUS
10
1.66787
20
0.37
11
1.66727
21
0.366987
0
LINE
8
BLACK
6
CONTINUOUS
10
1.66727
20
0.366987
11
1.66557
21
0.364432
0
LINE
8
BLACK
6
CONTINUOUS
10
1.66557
20
0.364432
11
1.66301
21
0.362725
0
LINE
8
BLACK
6
CONTINUOUS
10
1.66301
20
0.362725
11
1.66
21
0.362126
0
LINE
8
BLACK
6
CONTINUOUS
10
1.66
20
0.362126
11
1.6
21
0.362126
0
LINE
8
BLACK
6
CONTINUOUS
10
1.6
20
0.362126
11
1.59699
21
0.362725
0
LINE
8
BLACK
6
CONTINUOUS
10
1.59699
20
0.362725
11
1.59443
21
0.364432
0
LINE
8
BLACK
6
CONTINUOUS
10
1.59443
20
0.364432
11
1.59273
21
0.366987
0
LINE
8
BLACK
6
CONTINUOUS
10
1.59273
20
0.366987
11
1.59213
21
0.37
0
LINE
8
BLACK
6
CONTINUOUS
10
1.59213
20
0.37
11
1.59213
21
0.43
0
LINE
8
BLACK
6
CONTINUOUS
10
1.59213
20
0.43
11
1.59273
21
0.433013
0
LINE
8
BLACK
6
CONTINUOUS
10
1.59273
20
0.433013
11
1.59443
21
0.435568
0
LINE
8
BLACK
6
CONTINUOUS
10
1.59443
20
0.435568
11
1.59699
21
0.437275
0
LINE
8
BLACK
6
CONTINUOUS
10
1.59699
20
0.437275
11
1.6
21
0.437874
0
LINE
8
BLACK
6
CONTINUOUS
10
1.6
20
0.437874
11
1.66
21
0.437874
0
LINE
8
BLACK
6
CONTINUOUS
10
1.66
20
0.437874
11
1.66301
21
0.437275
0
LINE
8
BLACK
6
CONTINUOUS
10
1.76301
20
0.437275
11
1.76557
21
0.435568
0
LINE
8
BLACK
6
CONTINUOUS
10
1.76557
20
0.435568
11
1.76727
21
0.433013
0
LINE
8
BLACK
6
CONTINUOUS
10
1.76727
20
0.433013
11
1.76787
21
0.43
0
LINE
8
BLACK
6
CONTINUOUS
10
1.76787
20
0.43
11
1.76787
21
0.37
0
LINE
8
BLACK
6
CONTINUOUS
10
1.76787
20
0.37
11
1.76727
21
0.366987
0
LINE
8
BLACK
6
CONTINUOUS
10
1.76727
20
0.366987
11
1.76557
21
0.364432
0
LINE
8
BLACK
6
CONTINUOUS
10
1.76557
20
0.364432
11
1.76301
21
0.362725
0
LINE
8
BLACK
6
CONTINUOUS
10
1.76301
20
0.362725
11
1.76
21
0.362126
0
LINE
8
BLACK
6
CONTINUOUS
10
1.76
20
0.362126
11
1.7
21
0.362126
0
LINE
8
BLACK
6
CONTINUOUS
10
1.7
20
0.362126
11
1.69699
21
0.362725
0
LINE
8
BLACK
6
CONTINUOUS
10
1.69699
20
0.362725
11
1.69443
21
0.364432
0
LINE
8
BLACK
6
CONTINUOUS
10
1.69443
20
0.364432
11
1.69273
21
0.366987
0
LINE
8
BLACK
6
CONTINUOUS
10
1.69273
20
0.366987
11
1.69213
21
0.37
0
LINE
8
BLACK
6
CONTINUOUS
10
1.69213
20
0.37
11
1.69213
21
0.43
0
LINE
8
BLACK
6
CONTINUOUS
10
1.69213
20
0.43
11
1.69273
21
0.433013
0
LINE
8
BLACK
6
CONTINUOUS
10
1.69273
20
0.433013
11
1.69443
21
0.435568
0
LINE
8
BLACK
6
CONTINUOUS
10
1.69443
20
0.435568
11
1.69699
21
0.437275
0
LINE
8
BLACK
6
CONTINUOUS
10
1.69699
20
0.437275
11
1.7
21
0.437874
0
LINE
8
BLACK
6
CONTINUOUS
10
1.7
20
0.437874
11
1.76
21
0.437874
0
LINE
8
BLACK
6
CONTINUOUS
10
1.76
20
0.437874
11
1.76301
21
0.437275
0
LINE
8
BLACK
6
CONTINUOUS
10
1.04301
20
0.437275
11
1.04557
21
0.435568
0
LINE
8
BLACK
6
CONTINUOUS
10
1.04557
20
0.435568
11
1.04727
21
0.433013
0
LINE
8
BLACK
6
CONTINUOUS
10
1.04727
20
0.433013
11
1.04787
21
0.43
0
LINE
8
BLACK
6
CONTINUOUS
10
1.04787
20
0.43
11
1.04787
21
0.37
0
LINE
8
BLACK
6
CONTINUOUS
10
1.04787
20
0.37
11
1.04727
21
0.366987
0
LINE
8
BLACK
6
CONTINUOUS
10
1.04727
20
0.366987
11
1.04557
21
0.364432
0
LINE
8
BLACK
6
CONTINUOUS
10
1.04557
20
0.364432
11
1.04301
21
0.362725
0
LINE
8
BLACK
6
CONTINUOUS
10
1.04301
20
0.362725
11
1.04
21
0.362126
0
LINE
8
BLACK
6
CONTINUOUS
10
1.04
20
0.362126
11
0.98
21
0.362126
0
LINE
8
BLACK
6
CONTINUOUS
10
0.98
20
0.362126
11
0.976987
21
0.362725
0
LINE
8
BLACK
6
CONTINUOUS
10
0.976987
20
0.362725
11
0.974432
21
0.364432
0
LINE
8
BLACK
6
CONTINUOUS
10
0.974432
20
0.364432
11
0.972725
21
0.366987
0
LINE
8
BLACK
6
CONTINUOUS
10
0.972725
20
0.366987
11
0.972126
21
0.37
0
LINE
8
BLACK
6
CONTINUOUS
10
0.972126
20
0.37
11
0.972126
21
0.43
0
LINE
8
BLACK
6
CONTINUOUS
10
0.972126
20
0.43
11
0.972725
21
0.433013
0
LINE
8
BLACK
6
CONTINUOUS
10
0.972725
20
0.433013
11
0.974432
21
0.435568
0
LINE
8
BLACK
6
CONTINUOUS
10
0.974432
20
0.435568
11
0.976987
21
0.437275
0
LINE
8
BLACK
6
CONTINUOUS
10
0.976987
20
0.437275
11
0.98
21
0.437874
0
LINE
8
BLACK
6
CONTINUOUS
10
0.98
20
0.437874
11
1.04
21
0.437874
0
LINE
8
BLACK
6
CONTINUOUS
10
1.04
20
0.437874
11
1.04301
21
0.437275
0
LINE
8
BLACK
6
CONTINUOUS
10
1.24301
20
0.437275
11
1.24557
21
0.435568
0
LINE
8
BLACK
6
CONTINUOUS
10
1.24557
20
0.435568
11
1.24727
21
0.433013
0
LINE
8
BLACK
6
CONTINUOUS
10
1.24727
20
0.433013
11
1.24787
21
0.43
0
LINE
8
BLACK
6
CONTINUOUS
10
1.24787
20
0.43
11
1.24787
21
0.37
0
LINE
8
BLACK
6
CONTINUOUS
10
1.24787
20
0.37
11
1.24727
21
0.366987
0
LINE
8
BLACK
6
CONTINUOUS
10
1.24727
20
0.366987
11
1.24557
21
0.364432
0
LINE
8
BLACK
6
CONTINUOUS
10
1.24557
20
0.364432
11
1.24301
21
0.362725
0
LINE
8
BLACK
6
CONTINUOUS
10
1.24301
20
0.362725
11
1.24
21
0.362126
0
LINE
8
BLACK
6
CONTINUOUS
10
1.24
20
0.362126
11
1.18
21
0.362126
0
LINE
8
BLACK
6
CONTINUOUS
10
1.18
20
0.362126
11
1.17699
21
0.362725
0
LINE
8
BLACK
6
CONTINUOUS
10
1.17699
20
0.362725
11
1.17443
21
0.364432
0
LINE
8
BLACK
6
CONTINUOUS
10
1.17443
20
0.364432
11
1.17273
21
0.366987
0
LINE
8
BLACK
6
CONTINUOUS
10
1.17273
20
0.366987
11
1.17213
21
0.37
0
LINE
8
BLACK
6
CONTINUOUS
10
1.17213
20
0.37
11
1.17213
21
0.43
0
LINE
8
BLACK
6
CONTINUOUS
10
1.17213
20
0.43
11
1.17273
21
0.433013
0
LINE
8
BLACK
6
CONTINUOUS
10
1.17273
20
0.433013
11
1.17443
21
0.435568
0
LINE
8
BLACK
6
CONTINUOUS
10
1.17443
20
0.435568
11
1.17699
21
0.437275
0
LINE
8
BLACK
6
CONTINUOUS
10
1.17699
20
0.437275
11
1.18
21
0.437874
0
LINE
8
BLACK
6
CONTINUOUS
10
1.18
20
0.437874
11
1.24
21
0.437874
0
LINE
8
BLACK
6
CONTINUOUS
10
1.24
20
0.437874
11
1.24301
21
0.437275
0
LINE
8
BLACK
6
CONTINUOUS
10
1.14301
20
0.437275
11
1.14557
21
0.435568
0
LINE
8
BLACK
6
CONTINUOUS
10
1.14557
20
0.435568
11
1.14727
21
0.433013
0
LINE
8
BLACK
6
CONTINUOUS
10
1.14727
20
0.433013
11
1.14787
21
0.43
0
LINE
8
BLACK
6
CONTINUOUS
10
1.14787
20
0.43
11
1.14787
21
0.37
0
LINE
8
BLACK
6
CONTINUOUS
10
1.14787
20
0.37
11
1.14727
21
0.366987
0
LINE
8
BLACK
6
CONTINUOUS
10
1.14727
20
0.366987
11
1.14557
21
0.364432
0
LINE
8
BLACK
6
CONTINUOUS
10
1.14557
20
0.364432
11
1.14301
21
0.362725
0
LINE
8
BLACK
6
CONTINUOUS
10
1.14301
20
0.362725
11
1.14
21
0.362126
0
LINE
8
BLACK
6
CONTINUOUS
10
1.14
20
0.362126
11
1.08
21
0.362126
0
LINE
8
BLACK
6
CONTINUOUS
10
1.08
20
0.362126
11
1.07699
21
0.362725
0
LINE
8
BLACK
6
CONTINUOUS
10
1.07699
20
0.362725
11
1.07443
21
0.364432
0
LINE
8
BLACK
6
CONTINUOUS
10
1.07443
20
0.364432
11
1.07273
21
0.366987
0
LINE
8
BLACK
6
CONTINUOUS
10
1.07273
20
0.366987
11
1.07213
21
0.37
0
LINE
8
BLACK
6
CONTINUOUS
10
1.07213
20
0.37
11
1.07213
21
0.43
0
LINE
8
BLACK
6
CONTINUOUS
10
1.07213
20
0.43
11
1.07273
21
0.433013
0
LINE
8
BLACK
6
CONTINUOUS
10
1.07273
20
0.433013
11
1.07443
21
0.435568
0
LINE
8
BLACK
6
CONTINUOUS
10
1.07443
20
0.435568
11
1.07699
21
0.437275
0
LINE
8
BLACK
6
CONTINUOUS
10
1.07699
20
0.437275
11
1.08
21
0.437874
0
LINE
8
BLACK
6
CONTINUOUS
10
1.08
20
0.437874
11
1.14
21
0.437874
0
LINE
8
BLACK
6
CONTINUOUS
10
1.14
20
0.437874
11
1.14301
21
0.437275
0
LINE
8
BLACK
6
CONTINUOUS
10
1.14301
20
0.537275
11
1.14557
21
0.535568
0
LINE
8
BLACK
6
CONTINUOUS
10
1.14557
20
0.535568
11
1.14727
21
0.533013
0
LINE
8
BLACK
6
CONTINUOUS
10
1.14727
20
0.533013
11
1.14787
21
0.53
0
LINE
8
BLACK
6
CONTINUOUS
10
1.14787
20
0.53
11
1.14787
21
0.47
0
LINE
8
BLACK
6
CONTINUOUS
10
1.14787
20
0.47
11
1.14727
21
0.466987
0
LINE
8
BLACK
6
CONTINUOUS
10
1.14727
20
0.466987
11
1.14557
21
0.464432
0
LINE
8
BLACK
6
CONTINUOUS
10
1.14557
20
0.464432
11
1.14301
21
0.462725
0
LINE
8
BLACK
6
CONTINUOUS
10
1.14301
20
0.462725
11
1.14
21
0.462126
0
LINE
8
BLACK
6
CONTINUOUS
10
1.14
20
0.462126
11
1.08
21
0.462126
0
LINE
8
BLACK
6
CONTINUOUS
10
1.08
20
0.462126
11
1.07699
21
0.462725
0
LINE
8
BLACK
6
CONTINUOUS
10
1.07699
20
0.462725
11
1.07443
21
0.464432
0
LINE
8
BLACK
6
CONTINUOUS
10
1.07443
20
0.464432
11
1.07273
21
0.466987
0
LINE
8
BLACK
6
CONTINUOUS
10
1.07273
20
0.466987
11
1.07213
21
0.47
0
LINE
8
BLACK
6
CONTINUOUS
10
1.07213
20
0.47
11
1.07213
21
0.53
0
LINE
8
BLACK
6
CONTINUOUS
10
1.07213
20
0.53
11
1.07273
21
0.533013
0
LINE
8
BLACK
6
CONTINUOUS
10
1.07273
20
0.533013
11
1.07443
21
0.535568
0
LINE
8
BLACK
6
CONTINUOUS
10
1.07443
20
0.535568
11
1.07699
21
0.537275
0
LINE
8
BLACK
6
CONTINUOUS
10
1.07699
20
0.537275
11
1.08
21
0.537874
0
LINE
8
BLACK
6
CONTINUOUS
10
1.08
20
0.537874
11
1.14
21
0.537874
0
LINE
8
BLACK
6
CONTINUOUS
10
1.14
20
0.537874
11
1.14301
21
0.537275
0
LINE
8
BLACK
6
CONTINUOUS
10
1.96301
20
0.537275
11
1.96557
21
0.535568
0
LINE
8
BLACK
6
CONTINUOUS
10
1.96557
20
0.535568
11
1.96727
21
0.533013
0
LINE
8
BLACK
6
CONTINUOUS
10
1.96727
20
0.533013
11
1.96787
21
0.53
0
LINE
8
BLACK
6
CONTINUOUS
10
1.96787
20
0.53
11
1.96787
21
0.47
0
LINE
8
BLACK
6
CONTINUOUS
10
1.96787
20
0.47
11
1.96727
21
0.466987
0
LINE
8
BLACK
6
CONTINUOUS
10
1.96727
20
0.466987
11
1.96557
21
0.464432
0
LINE
8
BLACK
6
CONTINUOUS
10
1.96557
20
0.464432
11
1.96301
21
0.462725
0
LINE
8
BLACK
6
CONTINUOUS
10
1.96301
20
0.462725
11
1.96
21
0.462126
0
LINE
8
BLACK
6
CONTINUOUS
10
1.96
20
0.462126
11
1.9
21
0.462126
0
LINE
8
BLACK
6
CONTINUOUS
10
1.9
20
0.462126
11
1.89699
21
0.462725
0
LINE
8
BLACK
6
CONTINUOUS
10
1.89699
20
0.462725
11
1.89443
21
0.464432
0
LINE
8
BLACK
6
CONTINUOUS
10
1.89443
20
0.464432
11
1.89273
21
0.466987
0
LINE
8
BLACK
6
CONTINUOUS
10
1.89273
20
0.466987
11
1.89213
21
0.47
0
LINE
8
BLACK
6
CONTINUOUS
10
1.89213
20
0.47
11
1.89213
21
0.53
0
LINE
8
BLACK
6
CONTINUOUS
10
1.89213
20
0.53
11
1.89273
21
0.533013
0
LINE
8
BLACK
6
CONTINUOUS
10
1.89273
20
0.533013
11
1.89443
21
0.535568
0
LINE
8
BLACK
6
CONTINUOUS
10
1.89443
20
0.535568
11
1.89699
21
0.537275
0
LINE
8
BLACK
6
CONTINUOUS
10
1.89699
20
0.537275
11
1.9
21
0.537874
0
LINE
8
BLACK
6
CONTINUOUS
10
1.9
20
0.537874
11
1.96
21
0.537874
0
LINE
8
BLACK
6
CONTINUOUS
10
1.96
20
0.537874
11
1.96301
21
0.537275
0
LINE
8
BLACK
6
CONTINUOUS
10
2.16301
20
0.537275
11
2.16557
21
0.535568
0
LINE
8
BLACK
6
CONTINUOUS
10
2.16557
20
0.535568
11
2.16727
21
0.533013
0
LINE
8
BLACK
6
CONTINUOUS
10
2.16727
20
0.533013
11
2.16787
21
0.53
0
LINE
8
BLACK
6
CONTINUOUS
10
2.16787
20
0.53
11
2.16787
21
0.47
0
LINE
8
BLACK
6
CONTINUOUS
10
2.16787
20
0.47
11
2.16727
21
0.466987
0
LINE
8
BLACK
6
CONTINUOUS
10
2.16727
20
0.466987
11
2.16557
21
0.464432
0
LINE
8
BLACK
6
CONTINUOUS
10
2.16557
20
0.464432
11
2.16301
21
0.462725
0
LINE
8
BLACK
6
CONTINUOUS
10
2.16301
20
0.462725
11
2.16
21
0.462126
0
LINE
8
BLACK
6
CONTINUOUS
10
2.16
20
0.462126
11
2.1
21
0.462126
0
LINE
8
BLACK
6
CONTINUOUS
10
2.1
20
0.462126
11
2.09699
21
0.462725
0
LINE
8
BLACK
6
CONTINUOUS
10
2.09699
20
0.462725
11
2.09443
21
0.464432
0
LINE
8
BLACK
6
CONTINUOUS
10
2.09443
20
0.464432
11
2.09273
21
0.466987
0
LINE
8
BLACK
6
CONTINUOUS
10
2.09273
20
0.466987
11
2.09213
21
0.47
0
LINE
8
BLACK
6
CONTINUOUS
10
2.09213
20
0.47
11
2.09213
21
0.53
0
LINE
8
BLACK
6
CONTINUOUS
10
2.09213
20
0.53
11
2.09273
21
0.533013
0
LINE
8
BLACK
6
CONTINUOUS
10
2.09273
20
0.533013
11
2.09443
21
0.535568
0
LINE
8
BLACK
6
CONTINUOUS
10
2.09443
20
0.535568
11
2.09699
21
0.537275
0
LINE
8
BLACK
6
CONTINUOUS
10
2.09699
20
0.537275
11
2.1
21
0.537874
0
LINE
8
BLACK
6
CONTINUOUS
10
2.1
20
0.537874
11
2.16
21
0.537874
0
LINE
8
BLACK
6
CONTINUOUS
10
2.16
20
0.537874
11
2.16301
21
0.537275
0
LINE
8
BLACK
6
CONTINUOUS
10
2.06301
20
0.537275
11
2.06557
21
0.535568
0
LINE
8
BLACK
6
CONTINUOUS
10
2.06557
20
0.535568
11
2.06727
21
0.533013
0
LINE
8
BLACK
6
CONTINUOUS
10
2.06727
20
0.533013
11
2.06787
21
0.53
0
LINE
8
BLACK
6
CONTINUOUS
10
2.06787
20
0.53
11
2.06787
21
0.47
0
LINE
8
BLACK
6
CONTINUOUS
10
2.06787
20
0.47
11
2.06727
21
0.466987
0
LINE
8
BLACK
6
CONTINUOUS
10
2.06727
20
0.466987
11
2.06557
21
0.464432
0
LINE
8
BLACK
6
CONTINUOUS
10
2.06557
20
0.464432
11
2.06301
21
0.462725
0
LINE
8
BLACK
6
CONTINUOUS
10
2.06301
20
0.462725
11
2.06
21
0.462126
0
LINE
8
BLACK
6
CONTINUOUS
10
2.06
20
0.462126
11
2
21
0.462126
0
LINE
8
BLACK
6
CONTINUOUS
10
2
20
0.462126
11
1.99699
21
0.462725
0
LINE
8
BLACK
6
CONTINUOUS
10
1.99699
20
0.462725
11
1.99443
21
0.464432
0
LINE
8
BLACK
6
CONTINUOUS
10
1.99443
20
0.464432
11
1.99273
21
0.466987
0
LINE
8
BLACK
6
CONTINUOUS
10
1.99273
20
0.466987
11
1.99213
21
0.47
0
LINE
8
BLACK
6
CONTINUOUS
10
1.99213
20
0.47
11
1.99213
21
0.53
0
LINE
8
BLACK
6
CONTINUOUS
10
1.99213
20
0.53
11
1.99273
21
0.533013
0
LINE
8
BLACK
6
CONTINUOUS
10
1.99273
20
0.533013
11
1.99443
21
0.535568
0
LINE
8
BLACK
6
CONTINUOUS
10
1.99443
20
0.535568
11
1.99699
21
0.537275
0
LINE
8
BLACK
6
CONTINUOUS
10
1.99699
20
0.537275
11
2
21
0.537874
0
LINE
8
BLACK
6
CONTINUOUS
10
2
20
0.537874
11
2.06
21
0.537874
0
LINE
8
BLACK
6
CONTINUOUS
10
2.06
20
0.537874
11
2.06301
21
0.537275
0
LINE
8
BLACK
6
CONTINUOUS
10
1.66301
20
0.537275
11
1.66557
21
0.535568
0
LINE
8
BLACK
6
CONTINUOUS
10
1.66557
20
0.535568
11
1.66727
21
0.533013
0
LINE
8
BLACK
6
CONTINUOUS
10
1.66727
20
0.533013
11
1.66787
21
0.53
0
LINE
8
BLACK
6
CONTINUOUS
10
1.66787
20
0.53
11
1.66787
21
0.47
0
LINE
8
BLACK
6
CONTINUOUS
10
1.66787
20
0.47
11
1.66727
21
0.466987
0
LINE
8
BLACK
6
CONTINUOUS
10
1.66727
20
0.466987
11
1.66557
21
0.464432
0
LINE
8
BLACK
6
CONTINUOUS
10
1.66557
20
0.464432
11
1.66301
21
0.462725
0
LINE
8
BLACK
6
CONTINUOUS
10
1.66301
20
0.462725
11
1.66
21
0.462126
0
LINE
8
BLACK
6
CONTINUOUS
10
1.66
20
0.462126
11
1.6
21
0.462126
0
LINE
8
BLACK
6
CONTINUOUS
10
1.6
20
0.462126
11
1.59699
21
0.462725
0
LINE
8
BLACK
6
CONTINUOUS
10
1.59699
20
0.462725
11
1.59443
21
0.464432
0
LINE
8
BLACK
6
CONTINUOUS
10
1.59443
20
0.464432
11
1.59273
21
0.466987
0
LINE
8
BLACK
6
CONTINUOUS
10
1.59273
20
0.466987
11
1.59213
21
0.47
0
LINE
8
BLACK
6
CONTINUOUS
10
1.59213
20
0.47
11
1.59213
21
0.53
0
LINE
8
BLACK
6
CONTINUOUS
10
1.59213
20
0.53
11
1.59273
21
0.533013
0
LINE
8
BLACK
6
CONTINUOUS
10
1.59273
20
0.533013
11
1.59443
21
0.535568
0
LINE
8
BLACK
6
CONTINUOUS
10
1.59443
20
0.535568
11
1.59699
21
0.537275
0
LINE
8
BLACK
6
CONTINUOUS
10
1.59699
20
0.537275
11
1.6
21
0.537874
0
LINE
8
BLACK
6
CONTINUOUS
10
1.6
20
0.537874
11
1.66
21
0.537874
0
LINE
8
BLACK
6
CONTINUOUS
10
1.66
20
0.537874
11
1.66301
21
0.537275
0
LINE
8
BLACK
6
CONTINUOUS
10
1.76301
20
0.537275
11
1.76557
21
0.535568
0
LINE
8
BLACK
6
CONTINUOUS
10
1.76557
20
0.535568
11
1.76727
21
0.533013
0
LINE
8
BLACK
6
CONTINUOUS
10
1.76727
20
0.533013
11
1.76787
21
0.53
0
LINE
8
BLACK
6
CONTINUOUS
10
1.76787
20
0.53
11
1.76787
21
0.47
0
LINE
8
BLACK
6
CONTINUOUS
10
1.76787
20
0.47
11
1.76727
21
0.466987
0
LINE
8
BLACK
6
CONTINUOUS
10
1.76727
20
0.466987
11
1.76557
21
0.464432
0
LINE
8
BLACK
6
CONTINUOUS
10
1.76557
20
0.464432
11
1.76301
21
0.462725
0
LINE
8
BLACK
6
CONTINUOUS
10
1.76301
20
0.462725
11
1.76
21
0.462126
0
LINE
8
BLACK
6
CONTINUOUS
10
1.76
20
0.462126
11
1.7
21
0.462126
0
LINE
8
BLACK
6
CONTINUOUS
10
1.7
20
0.462126
11
1.69699
21
0.462725
0
LINE
8
BLACK
6
CONTINUOUS
10
1.69699
20
0.462725
11
1.69443
21
0.464432
0
LINE
8
BLACK
6
CONTINUOUS
10
1.69443
20
0.464432
11
1.69273
21
0.466987
0
LINE
8
BLACK
6
CONTINUOUS
10
1.69273
20
0.466987
11
1.69213
21
0.47
0
LINE
8
BLACK
6
CONTINUOUS
10
1.69213
20
0.47
11
1.69213
21
0.53
0
LINE
8
BLACK
6
CONTINUOUS
10
1.69213
20
0.53
11
1.69273
21
0.533013
0
LINE
8
BLACK
6
CONTINUOUS
10
1.69273
20
0.533013
11
1.69443
21
0.535568
0
LINE
8
BLACK
6
CONTINUOUS
10
1.69443
20
0.535568
11
1.69699
21
0.537275
0
LINE
8
BLACK
6
CONTINUOUS
10
1.69699
20
0.537275
11
1.7
21
0.537874
0
LINE
8
BLACK
6
CONTINUOUS
10
1.7
20
0.537874
11
1.76
21
0.537874
0
LINE
8
BLACK
6
CONTINUOUS
10
1.76
20
0.537874
11
1.76301
21
0.537275
0
LINE
8
BLACK
6
CONTINUOUS
10
1.56301
20
0.537275
11
1.56557
21
0.535568
0
LINE
8
BLACK
6
CONTINUOUS
10
1.56557
20
0.535568
11
1.56727
21
0.533013
0
LINE
8
BLACK
6
CONTINUOUS
10
1.56727
20
0.533013
11
1.56787
21
0.53
0
LINE
8
BLACK
6
CONTINUOUS
10
1.56787
20
0.53
11
1.56787
21
0.47
0
LINE
8
BLACK
6
CONTINUOUS
10
1.56787
20
0.47
11
1.56727
21
0.466987
0
LINE
8
BLACK
6
CONTINUOUS
10
1.56727
20
0.466987
11
1.56557
21
0.464432
0
LINE
8
BLACK
6
CONTINUOUS
10
1.56557
20
0.464432
11
1.56301
21
0.462725
0
LINE
8
BLACK
6
CONTINUOUS
10
1.56301
20
0.462725
11
1.56
21
0.462126
0
LINE
8
BLACK
6
CONTINUOUS
10
1.56
20
0.462126
11
1.5
21
0.462126
0
LINE
8
BLACK
6
CONTINUOUS
10
1.5
20
0.462126
11
1.49699
21
0.462725
0
LINE
8
BLACK
6
CONTINUOUS
10
1.49699
20
0.462725
11
1.49443
21
0.464432
0
LINE
8
BLACK
6
CONTINUOUS
10
1.49443
20
0.464432
11
1.49273
21
0.466987
0
LINE
8
BLACK
6
CONTINUOUS
10
1.49273
20
0.466987
11
1.49213
21
0.47
0
LINE
8
BLACK
6
CONTINUOUS
10
1.49213
20
0.47
11
1.49213
21
0.53
0
LINE
8
BLACK
6
CONTINUOUS
10
1.49213
20
0.53
11
1.49273
21
0.533013
0
LINE
8
BLACK
6
CONTINUOUS
10
1.49273
20
0.533013
11
1.49443
21
0.535568
0
LINE
8
BLACK
6
CONTINUOUS
10
1.49443
20
0.535568
11
1.49699
21
0.537275
0
LINE
8
BLACK
6
CONTINUOUS
10
1.49699
20
0.537275
11
1.5
21
0.537874
0
LINE
8
BLACK
6
CONTINUOUS
10
1.5
20
0.537874
11
1.56
21
0.537874
0
LINE
8
BLACK
6
CONTINUOUS
10
1.56
20
0.537874
11
1.56301
21
0.537275
0
LINE
8
BLACK
6
CONTINUOUS
10
1.04301
20
0.537275
11
1.04557
21
0.535568
0
LINE
8
BLACK
6
CONTINUOUS
10
1.04557
20
0.535568
11
1.04727
21
0.533013
0
LINE
8
BLACK
6
CONTINUOUS
10
1.04727
20
0.533013
11
1.04787
21
0.53
0
LINE
8
BLACK
6
CONTINUOUS
10
1.04787
20
0.53
11
1.04787
21
0.47
0
LINE
8
BLACK
6
CONTINUOUS
10
1.04787
20
0.47
11
1.04727
21
0.466987
0
LINE
8
BLACK
6
CONTINUOUS
10
1.04727
20
0.466987
11
1.04557
21
0.464432
0
LINE
8
BLACK
6
CONTINUOUS
10
1.04557
20
0.464432
11
1.04301
21
0.462725
0
LINE
8
BLACK
6
CONTINUOUS
10
1.04301
20
0.462725
11
1.04
21
0.462126
0
LINE
8
BLACK
6
CONTINUOUS
10
1.04
20
0.462126
11
0.98
21
0.462126
0
LINE
8
BLACK
6
CONTINUOUS
10
0.98
20
0.462126
11
0.976987
21
0.462725
0
LINE
8
BLACK
6
CONTINUOUS
10
0.976987
20
0.462725
11
0.974432
21
0.464432
0
LINE
8
BLACK
6
CONTINUOUS
10
0.974432
20
0.464432
11
0.972725
21
0.466987
0
LINE
8
BLACK
6
CONTINUOUS
10
0.972725
20
0.466987
11
0.972126
21
0.47
0
LINE
8
BLACK
6
CONTINUOUS
10
0.972126
20
0.47
11
0.972126
21
0.53
0
LINE
8
BLACK
6
CONTINUOUS
10
0.972126
20
0.53
11
0.972725
21
0.533013
0
LINE
8
BLACK
6
CONTINUOUS
10
0.972725
20
0.533013
11
0.974432
21
0.535568
0
LINE
8
BLACK
6
CONTINUOUS
10
0.974432
20
0.535568
11
0.976987
21
0.537275
0
LINE
8
BLACK
6
CONTINUOUS
10
0.976987
20
0.537275
11
0.98
21
0.537874
0
LINE
8
BLACK
6
CONTINUOUS
10
0.98
20
0.537874
11
1.04
21
0.537874
0
LINE
8
BLACK
6
CONTINUOUS
10
1.04
20
0.537874
11
1.04301
21
0.537275
0
LINE
8
BLACK
6
CONTINUOUS
10
1.24301
20
0.537275
11
1.24557
21
0.535568
0
LINE
8
BLACK
6
CONTINUOUS
10
1.24557
20
0.535568
11
1.24727
21
0.533013
0
LINE
8
BLACK
6
CONTINUOUS
10
1.24727
20
0.533013
11
1.24787
21
0.53
0
LINE
8
BLACK
6
CONTINUOUS
10
1.24787
20
0.53
11
1.24787
21
0.47
0
LINE
8
BLACK
6
CONTINUOUS
10
1.24787
20
0.47
11
1.24727
21
0.466987
0
LINE
8
BLACK
6
CONTINUOUS
10
1.24727
20
0.466987
11
1.24557
21
0.464432
0
LINE
8
BLACK
6
CONTINUOUS
10
1.24557
20
0.464432
11
1.24301
21
0.462725
0
LINE
8
BLACK
6
CONTINUOUS
10
1.24301
20
0.462725
11
1.24
21
0.462126
0
LINE
8
BLACK
6
CONTINUOUS
10
1.24
20
0.462126
11
1.18
21
0.462126
0
LINE
8
BLACK
6
CONTINUOUS
10
1.18
20
0.462126
11
1.17699
21
0.462725
0
LINE
8
BLACK
6
CONTINUOUS
10
1.17699
20
0.462725
11
1.17443
21
0.464432
0
LINE
8
BLACK
6
CONTINUOUS
10
1.17443
20
0.464432
11
1.17273
21
0.466987
0
LINE
8
BLACK
6
CONTINUOUS
10
1.17273
20
0.466987
11
1.17213
21
0.47
0
LINE
8
BLACK
6
CONTINUOUS
10
1.17213
20
0.47
11
1.17213
21
0.53
0
LINE
8
BLACK
6
CONTINUOUS
10
1.17213
20
0.53
11
1.17273
21
0.533013
0
LINE
8
BLACK
6
CONTINUOUS
10
1.17273
20
0.533013
11
1.17443
21
0.535568
0
LINE
8
BLACK
6
CONTINUOUS
10
1.17443
20
0.535568
11
1.17699
21
0.537275
0
LINE
8
BLACK
6
CONTINUOUS
10
1.17699
20
0.537275
11
1.18
21
0.537874
0
LINE
8
BLACK
6
CONTINUOUS
10
1.18
20
0.537874
11
1.24
21
0.537874
0
LINE
8
BLACK
6
CONTINUOUS
10
1.24
20
0.537874
11
1.24301
21
0.537275
0
LINE
8
BLACK
6
CONTINUOUS
10
1.34301
20
0.537275
11
1.34557
21
0.535568
0
LINE
8
BLACK
6
CONTINUOUS
10
1.34557
20
0.535568
11
1.34727
21
0.533013
0
LINE
8
BLACK
6
CONTINUOUS
10
1.34727
20
0.533013
11
1.34787
21
0.53
0
LINE
8
BLACK
6
CONTINUOUS
10
1.34787
20
0.53
11
1.34787
21
0.47
0
LINE
8
BLACK
6
CONTINUOUS
10
1.34787
20
0.47
11
1.34727
21
0.466987
0
LINE
8
BLACK
6
CONTINUOUS
10
1.34727
20
0.466987
11
1.34557
21
0.464432
0
LINE
8
BLACK
6
CONTINUOUS
10
1.34557
20
0.464432
11
1.34301
21
0.462725
0
LINE
8
BLACK
6
CONTINUOUS
10
1.34301
20
0.462725
11
1.34
21
0.462126
0
LINE
8
BLACK
6
CONTINUOUS
10
1.34
20
0.462126
11
1.28
21
0.462126
0
LINE
8
BLACK
6
CONTINUOUS
10
1.28
20
0.462126
11
1.27699
21
0.462725
0
LINE
8
BLACK
6
CONTINUOUS
10
1.27699
20
0.462725
11
1.27443
21
0.464432
0
LINE
8
BLACK
6
CONTINUOUS
10
1.27443
20
0.464432
11
1.27273
21
0.466987
0
LINE
8
BLACK
6
CONTINUOUS
10
1.27273
20
0.466987
11
1.27213
21
0.47
0
LINE
8
BLACK
6
CONTINUOUS
10
1.27213
20
0.47
11
1.27213
21
0.53
0
LINE
8
BLACK
6
CONTINUOUS
10
1.27213
20
0.53
11
1.27273
21
0.533013
0
LINE
8
BLACK
6
CONTINUOUS
10
1.27273
20
0.533013
11
1.27443
21
0.535568
0
LINE
8
BLACK
6
CONTINUOUS
10
1.27443
20
0.535568
11
1.27699
21
0.537275
0
LINE
8
BLACK
6
CONTINUOUS
10
1.27699
20
0.537275
11
1.28
21
0.537874
0
LINE
8
BLACK
6
CONTINUOUS
10
1.28
20
0.537874
11
1.34
21
0.537874
0
LINE
8
BLACK
6
CONTINUOUS
10
1.34
20
0.537874
11
1.34301
21
0.537275
0
LINE
8
BLACK
6
CONTINUOUS
10
1.86301
20
0.537275
11
1.86557
21
0.535568
0
LINE
8
BLACK
6
CONTINUOUS
10
1.86557
20
0.535568
11
1.86727
21
0.533013
0
LINE
8
BLACK
6
CONTINUOUS
10
1.86727
20
0.533013
11
1.86787
21
0.53
0
LINE
8
BLACK
6
CONTINUOUS
10
1.86787
20
0.53
11
1.86787
21
0.47
0
LINE
8
BLACK
6
CONTINUOUS
10
1.86787
20
0.47
11
1.86727
21
0.466987
0
LINE
8
BLACK
6
CONTINUOUS
10
1.86727
20
0.466987
11
1.86557
21
0.464432
0
LINE
8
BLACK
6
CONTINUOUS
10
1.86557
20
0.464432
11
1.86301
21
0.462725
0
LINE
8
BLACK
6
CONTINUOUS
10
1.86301
20
0.462725
11
1.86
21
0.462126
0
LINE
8
BLACK
6
CONTINUOUS
10
1.86
20
0.462126
11
1.8
21
0.462126
0
LINE
8
BLACK
6
CONTINUOUS
10
1.8
20
0.462126
11
1.79699
21
0.462725
0
LINE
8
BLACK
6
CONTINUOUS
10
1.79699
20
0.462725
11
1.79443
21
0.464432
0
LINE
8
BLACK
6
CONTINUOUS
10
1.79443
20
0.464432
11
1.79273
21
0.466987
0
LINE
8
BLACK
6
CONTINUOUS
10
1.79273
20
0.466987
11
1.79213
21
0.47
0
LINE
8
BLACK
6
CONTINUOUS
10
1.79213
20
0.47
11
1.79213
21
0.53
0
LINE
8
BLACK
6
CONTINUOUS
10
1.79213
20
0.53
11
1.79273
21
0.533013
0
LINE
8
BLACK
6
CONTINUOUS
10
1.79273
20
0.533013
11
1.79443
21
0.535568
0
LINE
8
BLACK
6
CONTINUOUS
10
1.79443
20
0.535568
11
1.79699
21
0.537275
0
LINE
8
BLACK
6
CONTINUOUS
10
1.79699
20
0.537275
11
1.8
21
0.537874
0
LINE
8
BLACK
6
CONTINUOUS
10
1.8
20
0.537874
11
1.86
21
0.537874
0
LINE
8
BLACK
6
CONTINUOUS
10
1.86
20
0.537874
11
1.86301
21
0.537275
0
LINE
8
BLACK
6
CONTINUOUS
10
0.743013
20
0.537275
11
0.745568
21
0.535568
0
LINE
8
BLACK
6
CONTINUOUS
10
0.745568
20
0.535568
11
0.747275
21
0.533013
0
LINE
8
BLACK
6
CONTINUOUS
10
0.747275
20
0.533013
11
0.747874
21
0.53
0
LINE
8
BLACK
6
CONTINUOUS
10
0.747874
20
0.53
11
0.747874
21
0.47
0
LINE
8
BLACK
6
CONTINUOUS
10
0.747874
20
0.47
11
0.747275
21
0.466987
0
LINE
8
BLACK
6
CONTINUOUS
10
0.747275
20
0.466987
11
0.745568
21
0.464432
0
LINE
8
BLACK
6
CONTINUOUS
10
0.745568
20
0.464432
11
0.743013
21
0.462725
0
LINE
8
BLACK
6
CONTINUOUS
10
0.743013
20
0.462725
11
0.74
21
0.462126
0
LINE
8
BLACK
6
CONTINUOUS
10
0.74
20
0.462126
11
0.68
21
0.462126
0
LINE
8
BLACK
6
CONTINUOUS
10
0.68
20
0.462126
11
0.676987
21
0.462725
0
LINE
8
BLACK
6
CONTINUOUS
10
0.676987
20
0.462725
11
0.674432
21
0.464432
0
LINE
8
BLACK
6
CONTINUOUS
10
0.674432
20
0.464432
11
0.672725
21
0.466987
0
LINE
8
BLACK
6
CONTINUOUS
10
0.672725
20
0.466987
11
0.672126
21
0.47
0
LINE
8
BLACK
6
CONTINUOUS
10
0.672126
20
0.47
11
0.672126
21
0.53
0
LINE
8
BLACK
6
CONTINUOUS
10
0.672126
20
0.53
11
0.672725
21
0.533013
0
LINE
8
BLACK
6
CONTINUOUS
10
0.672725
20
0.533013
11
0.674432
21
0.535568
0
LINE
8
BLACK
6
CONTINUOUS
10
0.674432
20
0.535568
11
0.676987
21
0.537275
0
LINE
8
BLACK
6
CONTINUOUS
10
0.676987
20
0.537275
11
0.68
21
0.537874
0
LINE
8
BLACK
6
CONTINUOUS
10
0.68
20
0.537874
11
0.74
21
0.537874
0
LINE
8
BLACK
6
CONTINUOUS
10
0.74
20
0.537874
11
0.743013
21
0.537275
0
LINE
8
BLACK
6
CONTINUOUS
10
0.943013
20
0.537275
11
0.945568
21
0.535568
0
LINE
8
BLACK
6
CONTINUOUS
10
0.945568
20
0.535568
11
0.947275
21
0.533013
0
LINE
8
BLACK
6
CONTINUOUS
10
0.947275
20
0.533013
11
0.947874
21
0.53
0
LINE
8
BLACK
6
CONTINUOUS
10
0.947874
20
0.53
11
0.947874
21
0.47
0
LINE
8
BLACK
6
CONTINUOUS
10
0.947874
20
0.47
11
0.947275
21
0.466987
0
LINE
8
BLACK
6
CONTINUOUS
10
0.947275
20
0.466987
11
0.945568
21
0.464432
0
LINE
8
BLACK
6
CONTINUOUS
10
0.945568
20
0.464432
11
0.943013
21
0.462725
0
LINE
8
BLACK
6
CONTINUOUS
10
0.943013
20
0.462725
11
0.94
21
0.462126
0
LINE
8
BLACK
6
CONTINUOUS
10
0.94
20
0.462126
11
0.88
21
0.462126
0
LINE
8
BLACK
6
CONTINUOUS
10
0.88
20
0.462126
11
0.876987
21
0.462725
0
LINE
8
BLACK
6
CONTINUOUS
10
0.876987
20
0.462725
11
0.874432
21
0.464432
0
LINE
8
BLACK
6
CONTINUOUS
10
0.874432
20
0.464432
11
0.872725
21
0.466987
0
LINE
8
BLACK
6
CONTINUOUS
10
0.872725
20
0.466987
11
0.872126
21
0.47
0
LINE
8
BLACK
6
CONTINUOUS
10
0.872126
20
0.47
11
0.872126
21
0.53
0
LINE
8
BLACK
6
CONTINUOUS
10
0.872126
20
0.53
11
0.872725
21
0.533013
0
LINE
8
BLACK
6
CONTINUOUS
10
0.872725
20
0.533013
11
0.874432
21
0.535568
0
LINE
8
BLACK
6
CONTINUOUS
10
0.874432
20
0.535568
11
0.876987
21
0.537275
0
LINE
8
BLACK
6
CONTINUOUS
10
0.876987
20
0.537275
11
0.88
21
0.537874
0
LINE
8
BLACK
6
CONTINUOUS
10
0.88
20
0.537874
11
0.94
21
0.537874
0
LINE
8
BLACK
6
CONTINUOUS
10
0.94
20
0.537874
11
0.943013
21
0.537275
0
LINE
8
BLACK
6
CONTINUOUS
10
0.843013
20
0.537275
11
0.845568
21
0.535568
0
LINE
8
BLACK
6
CONTINUOUS
10
0.845568
20
0.535568
11
0.847275
21
0.533013
0
LINE
8
BLACK
6
CONTINUOUS
10
0.847275
20
0.533013
11
0.847874
21
0.53
0
LINE
8
BLACK
6
CONTINUOUS
10
0.847874
20
0.53
11
0.847874
21
0.47
0
LINE
8
BLACK
6
CONTINUOUS
10
0.847874
20
0.47
11
0.847275
21
0.466987
0
LINE
8
BLACK
6
CONTINUOUS
10
0.847275
20
0.466987
11
0.845568
21
0.464432
0
LINE
8
BLACK
6
CONTINUOUS
10
0.845568
20
0.464432
11
0.843013
21
0.462725
0
LINE
8
BLACK
6
CONTINUOUS
10
0.843013
20
0.462725
11
0.84
21
0.462126
0
LINE
8
BLACK
6
CONTINUOUS
10
0.84
20
0.462126
11
0.78
21
0.462126
0
LINE
8
BLACK
6
CONTINUOUS
10
0.78
20
0.462126
11
0.776987
21
0.462725
0
LINE
8
BLACK
6
CONTINUOUS
10
0.776987
20
0.462725
11
0.774432
21
0.464432
0
LINE
8
BLACK
6
CONTINUOUS
10
0.774432
20
0.464432
11
0.772725
21
0.466987
0
LINE
8
BLACK
6
CONTINUOUS
10
0.772725
20
0.466987
11
0.772126
21
0.47
0
LINE
8
BLACK
6
CONTINUOUS
10
0.772126
20
0.47
11
0.772126
21
0.53
0
LINE
8
BLACK
6
CONTINUOUS
10
0.772126
20
0.53
11
0.772725
21
0.533013
0
LINE
8
BLACK
6
CONTINUOUS
10
0.772725
20
0.533013
11
0.774432
21
0.535568
0
LINE
8
BLACK
6
CONTINUOUS
10
0.774432
20
0.535568
11
0.776987
21
0.537275
0
LINE
8
BLACK
6
CONTINUOUS
10
0.776987
20
0.537275
11
0.78
21
0.537874
0
LINE
8
BLACK
6
CONTINUOUS
10
0.78
20
0.537874
11
0.84
21
0.537874
0
LINE
8
BLACK
6
CONTINUOUS
10
0.84
20
0.537874
11
0.843013
21
0.537275
0
LINE
8
BLACK
6
CONTINUOUS
10
0.723013
20
0.887275
11
0.725568
21
0.885568
0
LINE
8
BLACK
6
CONTINUOUS
10
0.725568
20
0.885568
11
0.727275
21
0.883013
0
LINE
8
BLACK
6
CONTINUOUS
10
0.727275
20
0.883013
11
0.727874
21
0.88
0
LINE
8
BLACK
6
CONTINUOUS
10
0.727874
20
0.88
11
0.727874
21
0.82
0
LINE
8
BLACK
6
CONTINUOUS
10
0.727874
20
0.82
11
0.727275
21
0.816987
0
LINE
8
BLACK
6
CONTINUOUS
10
0.727275
20
0.816987
11
0.725568
21
0.814432
0
LINE
8
BLACK
6
CONTINUOUS
10
0.725568
20
0.814432
11
0.723013
21
0.812725
0
LINE
8
BLACK
6
CONTINUOUS
10
0.723013
20
0.812725
11
0.72
21
0.812126
0
LINE
8
BLACK
6
CONTINUOUS
10
0.72
20
0.812126
11
0.66
21
0.812126
0
LINE
8
BLACK
6
CONTINUOUS
10
0.66
20
0.812126
11
0.656987
21
0.812725
0
LINE
8
BLACK
6
CONTINUOUS
10
0.656987
20
0.812725
11
0.654432
21
0.814432
0
LINE
8
BLACK
6
CONTINUOUS
10
0.654432
20
0.814432
11
0.652725
21
0.816987
0
LINE
8
BLACK
6
CONTINUOUS
10
0.652725
20
0.816987
11
0.652126
21
0.82
0
LINE
8
BLACK
6
CONTINUOUS
10
0.652126
20
0.82
11
0.652126
21
0.88
0
LINE
8
BLACK
6
CONTINUOUS
10
0.652126
20
0.88
11
0.652725
21
0.883013
0
LINE
8
BLACK
6
CONTINUOUS
10
0.652725
20
0.883013
11
0.654432
21
0.885568
0
LINE
8
BLACK
6
CONTINUOUS
10
0.654432
20
0.885568
11
0.656987
21
0.887275
0
LINE
8
BLACK
6
CONTINUOUS
10
0.656987
20
0.887275
11
0.66
21
0.887874
0
LINE
8
BLACK
6
CONTINUOUS
10
0.66
20
0.887874
11
0.72
21
0.887874
0
LINE
8
BLACK
6
CONTINUOUS
10
0.72
20
0.887874
11
0.723013
21
0.887275
0
LINE
8
BLACK
6
CONTINUOUS
10
0.983013
20
0.887275
11
0.985568
21
0.885568
0
LINE
8
BLACK
6
CONTINUOUS
10
0.985568
20
0.885568
11
0.987275
21
0.883013
0
LINE
8
BLACK
6
CONTINUOUS
10
0.987275
20
0.883013
11
0.987874
21
0.88
0
LINE
8
BLACK
6
CONTINUOUS
10
0.987874
20
0.88
11
0.987874
21
0.82
0
LINE
8
BLACK
6
CONTINUOUS
10
0.987874
20
0.82
11
0.987275
21
0.816987
0
LINE
8
BLACK
6
CONTINUOUS
10
0.987275
20
0.816987
11
0.985568
21
0.814432
0
LINE
8
BLACK
6
CONTINUOUS
10
0.985568
20
0.814432
11
0.983013
21
0.812725
0
LINE
8
BLACK
6
CONTINUOUS
10
0.983013
20
0.812725
11
0.98
21
0.812126
0
LINE
8
BLACK
6
CONTINUOUS
10
0.98
20
0.812126
11
0.92
21
0.812126
0
LINE
8
BLACK
6
CONTINUOUS
10
0.92
20
0.812126
11
0.916987
21
0.812725
0
LINE
8
BLACK
6
CONTINUOUS
10
0.916987
20
0.812725
11
0.914432
21
0.814432
0
LINE
8
BLACK
6
CONTINUOUS
10
0.914432
20
0.814432
11
0.912725
21
0.816987
0
LINE
8
BLACK
6
CONTINUOUS
10
0.912725
20
0.816987
11
0.912126
21
0.82
0
LINE
8
BLACK
6
CONTINUOUS
10
0.912126
20
0.82
11
0.912126
21
0.88
0
LINE
8
BLACK
6
CONTINUOUS
10
0.912126
20
0.88
11
0.912725
21
0.883013
0
LINE
8
BLACK
6
CONTINUOUS
10
0.912725
20
0.883013
11
0.914432
21
0.885568
0
LINE
8
BLACK
6
CONTINUOUS
10
0.914432
20
0.885568
11
0.916987
21
0.887275
0
LINE
8
BLACK
6
CONTINUOUS
10
0.916987
20
0.887275
11
0.92
21
0.887874
0
LINE
8
BLACK
6
CONTINUOUS
10
0.92
20
0.887874
11
0.98
21
0.887874
0
LINE
8
BLACK
6
CONTINUOUS
10
0.98
20
0.887874
11
0.983013
21
0.887275
0
LINE
8
BLACK
6
CONTINUOUS
10
1.08301
20
0.887275
11
1.08557
21
0.885568
0
LINE
8
BLACK
6
CONTINUOUS
10
1.08557
20
0.885568
11
1.08727
21
0.883013
0
LINE
8
BLACK
6
CONTINUOUS
10
1.08727
20
0.883013
11
1.08787
21
0.88
0
LINE
8
BLACK
6
CONTINUOUS
10
1.08787
20
0.88
11
1.08787
21
0.82
0
LINE
8
BLACK
6
CONTINUOUS
10
1.08787
20
0.82
11
1.08727
21
0.816987
0
LINE
8
BLACK
6
CONTINUOUS
10
1.08727
20
0.816987
11
1.08557
21
0.814432
0
LINE
8
BLACK
6
CONTINUOUS
10
1.08557
20
0.814432
11
1.08301
21
0.812725
0
LINE
8
BLACK
6
CONTINUOUS
10
1.08301
20
0.812725
11
1.08
21
0.812126
0
LINE
8
BLACK
6
CONTINUOUS
10
1.08
20
0.812126
11
1.02
21
0.812126
0
LINE
8
BLACK
6
CONTINUOUS
10
1.02
20
0.812126
11
1.01699
21
0.812725
0
LINE
8
BLACK
6
CONTINUOUS
10
1.01699
20
0.812725
11
1.01443
21
0.814432
0
LINE
8
BLACK
6
CONTINUOUS
10
1.01443
20
0.814432
11
1.01273
21
0.816987
0
LINE
8
BLACK
6
CONTINUOUS
10
1.01273
20
0.816987
11
1.01213
21
0.82
0
LINE
8
BLACK
6
CONTINUOUS
10
1.01213
20
0.82
11
1.01213
21
0.88
0
LINE
8
BLACK
6
CONTINUOUS
10
1.01213
20
0.88
11
1.01273
21
0.883013
0
LINE
8
BLACK
6
CONTINUOUS
10
1.01273
20
0.883013
11
1.01443
21
0.885568
0
LINE
8
BLACK
6
CONTINUOUS
10
1.01443
20
0.885568
11
1.01699
21
0.887275
0
LINE
8
BLACK
6
CONTINUOUS
10
1.01699
20
0.887275
11
1.02
21
0.887874
0
LINE
8
BLACK
6
CONTINUOUS
10
1.02
20
0.887874
11
1.08
21
0.887874
0
LINE
8
BLACK
6
CONTINUOUS
10
1.08
20
0.887874
11
1.08301
21
0.887275
0
LINE
8
BLACK
6
CONTINUOUS
10
0.823013
20
0.887275
11
0.825568
21
0.885568
0
LINE
8
BLACK
6
CONTINUOUS
10
0.825568
20
0.885568
11
0.827275
21
0.883013
0
LINE
8
BLACK
6
CONTINUOUS
10
0.827275
20
0.883013
11
0.827874
21
0.88
0
LINE
8
BLACK
6
CONTINUOUS
10
0.827874
20
0.88
11
0.827874
21
0.82
0
LINE
8
BLACK
6
CONTINUOUS
10
0.827874
20
0.82
11
0.827275
21
0.816987
0
LINE
8
BLACK
6
CONTINUOUS
10
0.827275
20
0.816987
11
0.825568
21
0.814432
0
LINE
8
BLACK
6
CONTINUOUS
10
0.825568
20
0.814432
11
0.823013
21
0.812725
0
LINE
8
BLACK
6
CONTINUOUS
10
0.823013
20
0.812725
11
0.82
21
0.812126
0
LINE
8
BLACK
6
CONTINUOUS
10
0.82
20
0.812126
11
0.76
21
0.812126
0
LINE
8
BLACK
6
CONTINUOUS
10
0.76
20
0.812126
11
0.756987
21
0.812725
0
LINE
8
BLACK
6
CONTINUOUS
10
0.756987
20
0.812725
11
0.754432
21
0.814432
0
LINE
8
BLACK
6
CONTINUOUS
10
0.754432
20
0.814432
11
0.752725
21
0.816987
0
LINE
8
BLACK
6
CONTINUOUS
10
0.752725
20
0.816987
11
0.752126
21
0.82
0
LINE
8
BLACK
6
CONTINUOUS
10
0.752126
20
0.82
11
0.752126
21
0.88
0
LINE
8
BLACK
6
CONTINUOUS
10
0.752126
20
0.88
11
0.752725
21
0.883013
0
LINE
8
BLACK
6
CONTINUOUS
10
0.752725
20
0.883013
11
0.754432
21
0.885568
0
LINE
8
BLACK
6
CONTINUOUS
10
0.754432
20
0.885568
11
0.756987
21
0.887275
0
LINE
8
BLACK
6
CONTINUOUS
10
0.756987
20
0.887275
11
0.76
21
0.887874
0
LINE
8
BLACK
6
CONTINUOUS
10
0.76
20
0.887874
11
0.82
21
0.887874
0
LINE
8
BLACK
6
CONTINUOUS
10
0.82
20
0.887874
11
0.823013
21
0.887275
0
LINE
8
BLACK
6
CONTINUOUS
10
1.86301
20
0.897275
11
1.86557
21
0.895568
0
LINE
8
BLACK
6
CONTINUOUS
10
1.86557
20
0.895568
11
1.86727
21
0.893013
0
LINE
8
BLACK
6
CONTINUOUS
10
1.86727
20
0.893013
11
1.86787
21
0.89
0
LINE
8
BLACK
6
CONTINUOUS
10
1.86787
20
0.89
11
1.86787
21
0.83
0
LINE
8
BLACK
6
CONTINUOUS
10
1.86787
20
0.83
11
1.86727
21
0.826987
0
LINE
8
BLACK
6
CONTINUOUS
10
1.86727
20
0.826987
11
1.86557
21
0.824432
0
LINE
8
BLACK
6
CONTINUOUS
10
1.86557
20
0.824432
11
1.86301
21
0.822725
0
LINE
8
BLACK
6
CONTINUOUS
10
1.86301
20
0.822725
11
1.86
21
0.822126
0
LINE
8
BLACK
6
CONTINUOUS
10
1.86
20
0.822126
11
1.8
21
0.822126
0
LINE
8
BLACK
6
CONTINUOUS
10
1.8
20
0.822126
11
1.79699
21
0.822725
0
LINE
8
BLACK
6
CONTINUOUS
10
1.79699
20
0.822725
11
1.79443
21
0.824432
0
LINE
8
BLACK
6
CONTINUOUS
10
1.79443
20
0.824432
11
1.79273
21
0.826987
0
LINE
8
BLACK
6
CONTINUOUS
10
1.79273
20
0.826987
11
1.79213
21
0.83
0
LINE
8
BLACK
6
CONTINUOUS
10
1.79213
20
0.83
11
1.79213
21
0.89
0
LINE
8
BLACK
6
CONTINUOUS
10
1.79213
20
0.89
11
1.79273
21
0.893013
0
LINE
8
BLACK
6
CONTINUOUS
10
1.79273
20
0.893013
11
1.79443
21
0.895568
0
LINE
8
BLACK
6
CONTINUOUS
10
1.79443
20
0.895568
11
1.79699
21
0.897275
0
LINE
8
BLACK
6
CONTINUOUS
10
1.79699
20
0.897275
11
1.8
21
0.897874
0
LINE
8
BLACK
6
CONTINUOUS
10
1.8
20
0.897874
11
1.86
21
0.897874
0
LINE
8
BLACK
6
CONTINUOUS
10
1.86
20
0.897874
11
1.86301
21
0.897275
0
LINE
8
BLACK
6
CONTINUOUS
10
1.96301
20
0.897275
11
1.96557
21
0.895568
0
LINE
8
BLACK
6
CONTINUOUS
10
1.96557
20
0.895568
11
1.96727
21
0.893013
0
LINE
8
BLACK
6
CONTINUOUS
10
1.96727
20
0.893013
11
1.96787
21
0.89
0
LINE
8
BLACK
6
CONTINUOUS
10
1.96787
20
0.89
11
1.96787
21
0.83
0
LINE
8
BLACK
6
CONTINUOUS
10
1.96787
20
0.83
11
1.96727
21
0.826987
0
LINE
8
BLACK
6
CONTINUOUS
10
1.96727
20
0.826987
11
1.96557
21
0.824432
0
LINE
8
BLACK
6
CONTINUOUS
10
1.96557
20
0.824432
11
1.96301
21
0.822725
0
LINE
8
BLACK
6
CONTINUOUS
10
1.96301
20
0.822725
11
1.96
21
0.822126
0
LINE
8
BLACK
6
CONTINUOUS
10
1.96
20
0.822126
11
1.9
21
0.822126
0
LINE
8
BLACK
6
CONTINUOUS
10
1.9
20
0.822126
11
1.89699
21
0.822725
0
LINE
8
BLACK
6
CONTINUOUS
10
1.89699
20
0.822725
11
1.89443
21
0.824432
0
LINE
8
BLACK
6
CONTINUOUS
10
1.89443
20
0.824432
11
1.89273
21
0.826987
0
LINE
8
BLACK
6
CONTINUOUS
10
1.89273
20
0.826987
11
1.89213
21
0.83
0
LINE
8
BLACK
6
CONTINUOUS
10
1.89213
20
0.83
11
1.89213
21
0.89
0
LINE
8
BLACK
6
CONTINUOUS
10
1.89213
20
0.89
11
1.89273
21
0.893013
0
LINE
8
BLACK
6
CONTINUOUS
10
1.89273
20
0.893013
11
1.89443
21
0.895568
0
LINE
8
BLACK
6
CONTINUOUS
10
1.89443
20
0.895568
11
1.89699
21
0.897275
0
LINE
8
BLACK
6
CONTINUOUS
10
1.89699
20
0.897275
11
1.9
21
0.897874
0
LINE
8
BLACK
6
CONTINUOUS
10
1.9
20
0.897874
11
1.96
21
0.897874
0
LINE
8
BLACK
6
CONTINUOUS
10
1.96
20
0.897874
11
1.96301
21
0.897275
0
LINE
8
BLACK
6
CONTINUOUS
10
2.20301
20
0.897275
11
2.20557
21
0.895568
0
LINE
8
BLACK
6
CONTINUOUS
10
2.20557
20
0.895568
11
2.20727
21
0.893013
0
LINE
8
BLACK
6
CONTINUOUS
10
2.20727
20
0.893013
11
2.20787
21
0.89
0
LINE
8
BLACK
6
CONTINUOUS
10
2.20787
20
0.89
11
2.20787
21
0.83
0
LINE
8
BLACK
6
CONTINUOUS
10
2.20787
20
0.83
11
2.20727
21
0.826987
0
LINE
8
BLACK
6
CONTINUOUS
10
2.20727
20
0.826987
11
2.20557
21
0.824432
0
LINE
8
BLACK
6
CONTINUOUS
10
2.20557
20
0.824432
11
2.20301
21
0.822725
0
LINE
8
BLACK
6
CONTINUOUS
10
2.20301
20
0.822725
11
2.2
21
0.822126
0
LINE
8
BLACK
6
CONTINUOUS
10
2.2
20
0.822126
11
2.14
21
0.822126
0
LINE
8
BLACK
6
CONTINUOUS
10
2.14
20
0.822126
11
2.13699
21
0.822725
0
LINE
8
BLACK
6
CONTINUOUS
10
2.13699
20
0.822725
11
2.13443
21
0.824432
0
LINE
8
BLACK
6
CONTINUOUS
10
2.13443
20
0.824432
11
2.13273
21
0.826987
0
LINE
8
BLACK
6
CONTINUOUS
10
2.13273
20
0.826987
11
2.13213
21
0.83
0
LINE
8
BLACK
6
CONTINUOUS
10
2.13213
20
0.83
11
2.13213
21
0.89
0
LINE
8
BLACK
6
CONTINUOUS
10
2.13213
20
0.89
11
2.13273
21
0.893013
0
LINE
8
BLACK
6
CONTINUOUS
10
2.13273
20
0.893013
11
2.13443
21
0.895568
0
LINE
8
BLACK
6
CONTINUOUS
10
2.13443
20
0.895568
11
2.13699
21
0.897275
0
LINE
8
BLACK
6
CONTINUOUS
10
2.13699
20
0.897275
11
2.14
21
0.897874
0
LINE
8
BLACK
6
CONTINUOUS
10
2.14
20
0.897874
11
2.2
21
0.897874
0
LINE
8
BLACK
6
CONTINUOUS
10
2.2
20
0.897874
11
2.20301
21
0.897275
0
LINE
8
BLACK
6
CONTINUOUS
10
2.10301
20
0.897275
11
2.10557
21
0.895568
0
LINE
8
BLACK
6
CONTINUOUS
10
2.10557
20
0.895568
11
2.10727
21
0.893013
0
LINE
8
BLACK
6
CONTINUOUS
10
2.10727
20
0.893013
11
2.10787
21
0.89
0
LINE
8
BLACK
6
CONTINUOUS
10
2.10787
20
0.89
11
2.10787
21
0.83
0
LINE
8
BLACK
6
CONTINUOUS
10
2.10787
20
0.83
11
2.10727
21
0.826987
0
LINE
8
BLACK
6
CONTINUOUS
10
2.10727
20
0.826987
11
2.10557
21
0.824432
0
LINE
8
BLACK
6
CONTINUOUS
10
2.10557
20
0.824432
11
2.10301
21
0.822725
0
LINE
8
BLACK
6
CONTINUOUS
10
2.10301
20
0.822725
11
2.1
21
0.822126
0
LINE
8
BLACK
6
CONTINUOUS
10
2.1
20
0.822126
11
2.04
21
0.822126
0
LINE
8
BLACK
6
CONTINUOUS
10
2.04
20
0.822126
11
2.03699
21
0.822725
0
LINE
8
BLACK
6
CONTINUOUS
10
2.03699
20
0.822725
11
2.03443
21
0.824432
0
LINE
8
BLACK
6
CONTINUOUS
10
2.03443
20
0.824432
11
2.03273
21
0.826987
0
LINE
8
BLACK
6
CONTINUOUS
10
2.03273
20
0.826987
11
2.03213
21
0.83
0
LINE
8
BLACK
6
CONTINUOUS
10
2.03213
20
0.83
11
2.03213
21
0.89
0
LINE
8
BLACK
6
CONTINUOUS
10
2.03213
20
0.89
11
2.03273
21
0.893013
0
LINE
8
BLACK
6
CONTINUOUS
10
2.03273
20
0.893013
11
2.03443
21
0.895568
0
LINE
8
BLACK
6
CONTINUOUS
10
2.03443
20
0.895568
11
2.03699
21
0.897275
0
LINE
8
BLACK
6
CONTINUOUS
10
2.03699
20
0.897275
11
2.04
21
0.897874
0
LINE
8
BLACK
6
CONTINUOUS
10
2.04
20
0.897874
11
2.1
21
0.897874
0
LINE
8
BLACK
6
CONTINUOUS
10
2.1
20
0.897874
11
2.10301
21
0.897275
0
LINE
8
BLACK
6
CONTINUOUS
10
0.424917
20
1.7751
11
0.438769
21
1.77266
0
LINE
8
BLACK
6
CONTINUOUS
10
0.438769
20
1.77266
11
0.452262
21
1.76868
0
LINE
8
BLACK
6
CONTINUOUS
10
0.452262
20
1.76868
11
0.465228
21
1.76323
0
LINE
8
BLACK
6
CONTINUOUS
10
0.465228
20
1.76323
11
0.477506
21
1.75637
0
LINE
8
BLACK
6
CONTINUOUS
10
0.477506
20
1.75637
11
0.488942
21
1.74818
0
LINE
8
BLACK
6
CONTINUOUS
10
0.488942
20
1.74818
11
0.499395
21
1.73877
0
LINE
8
BLACK
6
CONTINUOUS
10
0.499395
20
1.73877
11
0.508733
21
1.72825
0
LINE
8
BLACK
6
CONTINUOUS
10
0.508733
20
1.72825
11
0.516841
21
1.71676
0
LINE
8
BLACK
6
CONTINUOUS
10
0.516841
20
1.71676
11
0.523617
21
1.70444
0
LINE
8
BLACK
6
CONTINUOUS
10
0.523617
20
1.70444
11
0.528977
21
1.69143
0
LINE
8
BLACK
6
CONTINUOUS
10
0.528977
20
1.69143
11
0.532853
21
1.67791
0
LINE
8
BLACK
6
CONTINUOUS
10
0.532853
20
1.67791
11
0.535199
21
1.66404
0
LINE
8
BLACK
6
CONTINUOUS
10
0.535199
20
1.66404
11
0.535984
21
1.65
0
LINE
8
BLACK
6
CONTINUOUS
10
0.535984
20
1.65
11
0.535935
21
1.64648
0
LINE
8
BLACK
6
CONTINUOUS
10
0.535935
20
1.64648
11
0.534758
21
1.63247
0
LINE
8
BLACK
6
CONTINUOUS
10
0.534758
20
1.63247
11
0.532026
21
1.61867
0
LINE
8
BLACK
6
CONTINUOUS
10
0.532026
20
1.61867
11
0.527773
21
1.60526
0
LINE
8
BLACK
6
CONTINUOUS
10
0.527773
20
1.60526
11
0.522052
21
1.59241
0
LINE
8
BLACK
6
CONTINUOUS
10
0.522052
20
1.59241
11
0.514935
21
1.58028
0
LINE
8
BLACK
6
CONTINUOUS
10
0.514935
20
1.58028
11
0.50651
21
1.56902
0
LINE
8
BLACK
6
CONTINUOUS
10
0.50651
20
1.56902
11
0.496881
21
1.55877
0
LINE
8
BLACK
6
CONTINUOUS
10
0.496881
20
1.55877
11
0.48617
21
1.54965
0
LINE
8
BLACK
6
CONTINUOUS
10
0.48617
20
1.54965
11
0.474509
21
1.54178
0
LINE
8
BLACK
6
CONTINUOUS
10
0.474509
20
1.54178
11
0.462045
21
1.53527
0
LINE
8
BLACK
6
CONTINUOUS
10
0.462045
20
1.53527
11
0.448931
21
1.53018
0
LINE
8
BLACK
6
CONTINUOUS
10
0.448931
20
1.53018
11
0.435333
21
1.52659
0
LINE
8
BLACK
6
CONTINUOUS
10
0.435333
20
1.52659
11
0.421418
21
1.52453
0
LINE
8
BLACK
6
CONTINUOUS
10
0.421418
20
1.52453
11
0.407362
21
1.52404
0
LINE
8
BLACK
6
CONTINUOUS
10
0.407362
20
1.52404
11
0.393338
21
1.52512
0
LINE
8
BLACK
6
CONTINUOUS
10
0.393338
20
1.52512
11
0.379522
21
1.52776
0
LINE
8
BLACK
6
CONTINUOUS
10
0.379522
20
1.52776
11
0.366085
21
1.53192
0
LINE
8
BLACK
6
CONTINUOUS
10
0.366085
20
1.53192
11
0.353197
21
1.53755
0
LINE
8
BLACK
6
CONTINUOUS
10
0.353197
20
1.53755
11
0.341016
21
1.54458
0
LINE
8
BLACK
6
CONTINUOUS
10
0.341016
20
1.54458
11
0.329695
21
1.55293
0
LINE
8
BLACK
6
CONTINUOUS
10
0.329695
20
1.55293
11
0.319375
21
1.56248
0
LINE
8
BLACK
6
CONTINUOUS
10
0.319375
20
1.56248
11
0.310184
21
1.57313
0
LINE
8
BLACK
6
CONTINUOUS
10
0.310184
20
1.57313
11
0.302238
21
1.58474
0
LINE
8
BLACK
6
CONTINUOUS
10
0.302238
20
1.58474
11
0.295634
21
1.59716
0
LINE
8
BLACK
6
CONTINUOUS
10
0.295634
20
1.59716
11
0.290457
21
1.61023
0
LINE
8
BLACK
6
CONTINUOUS
10
0.290457
20
1.61023
11
0.286769
21
1.62381
0
LINE
8
BLACK
6
CONTINUOUS
10
0.286769
20
1.62381
11
0.284617
21
1.63771
0
LINE
8
BLACK
6
CONTINUOUS
10
0.284617
20
1.63771
11
0.284028
21
1.65176
0
LINE
8
BLACK
6
CONTINUOUS
10
0.284028
20
1.65176
11
0.285009
21
1.66579
0
LINE
8
BLACK
6
CONTINUOUS
10
0.285009
20
1.66579
11
0.287548
21
1.67962
0
LINE
8
BLACK
6
CONTINUOUS
10
0.287548
20
1.67962
11
0.291614
21
1.69309
0
LINE
8
BLACK
6
CONTINUOUS
10
0.291614
20
1.69309
11
0.297154
21
1.70602
0
LINE
8
BLACK
6
CONTINUOUS
10
0.297154
20
1.70602
11
0.304102
21
1.71825
0
LINE
8
BLACK
6
CONTINUOUS
10
0.304102
20
1.71825
11
0.312369
21
1.72963
0
LINE
8
BLACK
6
CONTINUOUS
10
0.312369
20
1.72963
11
0.321853
21
1.74001
0
LINE
8
BLACK
6
CONTINUOUS
10
0.321853
20
1.74001
11
0.332436
21
1.74928
0
LINE
8
BLACK
6
CONTINUOUS
10
0.332436
20
1.74928
11
0.343986
21
1.7573
0
LINE
8
BLACK
6
CONTINUOUS
10
0.343986
20
1.7573
11
0.356359
21
1.76399
0
LINE
8
BLACK
6
CONTINUOUS
10
0.356359
20
1.76399
11
0.3694
21
1.76926
0
LINE
8
BLACK
6
CONTINUOUS
10
0.3694
20
1.76926
11
0.382947
21
1.77305
0
LINE
8
BLACK
6
CONTINUOUS
10
0.382947
20
1.77305
11
0.396831
21
1.77529
0
LINE
8
BLACK
6
CONTINUOUS
10
0.396831
20
1.77529
11
0.41088
21
1.77598
0
LINE
8
BLACK
6
CONTINUOUS
10
0.41088
20
1.77598
11
0.424917
21
1.7751
0
LINE
8
BLACK
6
CONTINUOUS
10
2.42492
20
1.7751
11
2.43877
21
1.77266
0
LINE
8
BLACK
6
CONTINUOUS
10
2.43877
20
1.77266
11
2.45226
21
1.76868
0
LINE
8
BLACK
6
CONTINUOUS
10
2.45226
20
1.76868
11
2.46523
21
1.76323
0
LINE
8
BLACK
6
CONTINUOUS
10
2.46523
20
1.76323
11
2.47751
21
1.75637
0
LINE
8
BLACK
6
CONTINUOUS
10
2.47751
20
1.75637
11
2.48894
21
1.74818
0
LINE
8
BLACK
6
CONTINUOUS
10
2.48894
20
1.74818
11
2.49939
21
1.73877
0
LINE
8
BLACK
6
CONTINUOUS
10
2.49939
20
1.73877
11
2.50873
21
1.72825
0
LINE
8
BLACK
6
CONTINUOUS
10
2.50873
20
1.72825
11
2.51684
21
1.71676
0
LINE
8
BLACK
6
CONTINUOUS
10
2.51684
20
1.71676
11
2.52362
21
1.70444
0
LINE
8
BLACK
6
CONTINUOUS
10
2.52362
20
1.70444
11
2.52898
21
1.69143
0
LINE
8
BLACK
6
CONTINUOUS
10
2.52898
20
1.69143
11
2.53285
21
1.67791
0
LINE
8
BLACK
6
CONTINUOUS
10
2.53285
20
1.67791
11
2.5352
21
1.66404
0
LINE
8
BLACK
6
CONTINUOUS
10
2.5352
20
1.66404
11
2.53598
21
1.65
0
LINE
8
BLACK
6
CONTINUOUS
10
2.53598
20
1.65
11
2.53594
21
1.64648
0
LINE
8
BLACK
6
CONTINUOUS
10
2.53594
20
1.64648
11
2.53476
21
1.63247
0
LINE
8
BLACK
6
CONTINUOUS
10
2.53476
20
1.63247
11
2.53203
21
1.61867
0
LINE
8
BLACK
6
CONTINUOUS
10
2.53203
20
1.61867
11
2.52777
21
1.60526
0
LINE
8
BLACK
6
CONTINUOUS
10
2.52777
20
1.60526
11
2.52205
21
1.59241
0
LINE
8
BLACK
6
CONTINUOUS
10
2.52205
20
1.59241
11
2.51493
21
1.58028
0
LINE
8
BLACK
6
CONTINUOUS
10
2.51493
20
1.58028
11
2.50651
21
1.56902
0
LINE
8
BLACK
6
CONTINUOUS
10
2.50651
20
1.56902
11
2.49688
21
1.55877
0
LINE
8
BLACK
6
CONTINUOUS
10
2.49688
20
1.55877
11
2.48617
21
1.54965
0
LINE
8
BLACK
6
CONTINUOUS
10
2.48617
20
1.54965
11
2.47451
21
1.54178
0
LINE
8
BLACK
6
CONTINUOUS
10
2.47451
20
1.54178
11
2.46204
21
1.53527
0
LINE
8
BLACK
6
CONTINUOUS
10
2.46204
20
1.53527
11
2.44893
21
1.53018
0
LINE
8
BLACK
6
CONTINUOUS
10
2.44893
20
1.53018
11
2.43533
21
1.52659
0
LINE
8
BLACK
6
CONTINUOUS
10
2.43533
20
1.52659
11
2.42142
21
1.52453
0
LINE
8
BLACK
6
CONTINUOUS
10
2.42142
20
1.52453
11
2.40736
21
1.52404
0
LINE
8
BLACK
6
CONTINUOUS
10
2.40736
20
1.52404
11
2.39334
21
1.52512
0
LINE
8
BLACK
6
CONTINUOUS
10
2.39334
20
1.52512
11
2.37952
21
1.52776
0
LINE
8
BLACK
6
CONTINUOUS
10
2.37952
20
1.52776
11
2.36609
21
1.53192
0
LINE
8
BLACK
6
CONTINUOUS
10
2.36609
20
1.53192
11
2.3532
21
1.53755
0
LINE
8
BLACK
6
CONTINUOUS
10
2.3532
20
1.53755
11
2.34102
21
1.54458
0
LINE
8
BLACK
6
CONTINUOUS
10
2.34102
20
1.54458
11
2.32969
21
1.55293
0
LINE
8
BLACK
6
CONTINUOUS
10
2.32969
20
1.55293
11
2.31937
21
1.56248
0
LINE
8
BLACK
6
CONTINUOUS
10
2.31937
20
1.56248
11
2.31018
21
1.57313
0
LINE
8
BLACK
6
CONTINUOUS
10
2.31018
20
1.57313
11
2.30224
21
1.58474
0
LINE
8
BLACK
6
CONTINUOUS
10
2.30224
20
1.58474
11
2.29563
21
1.59716
0
LINE
8
BLACK
6
CONTINUOUS
10
2.29563
20
1.59716
11
2.29046
21
1.61023
0
LINE
8
BLACK
6
CONTINUOUS
10
2.29046
20
1.61023
11
2.28677
21
1.62381
0
LINE
8
BLACK
6
CONTINUOUS
10
2.28677
20
1.62381
11
2.28462
21
1.63771
0
LINE
8
BLACK
6
CONTINUOUS
10
2.28462
20
1.63771
11
2.28403
21
1.65176
0
LINE
8
BLACK
6
CONTINUOUS
10
2.28403
20
1.65176
11
2.28501
21
1.66579
0
LINE
8
BLACK
6
CONTINUOUS
10
2.28501
20
1.66579
11
2.28755
21
1.67962
0
LINE
8
BLACK
6
CONTINUOUS
10
2.28755
20
1.67962
11
2.29161
21
1.69309
0
LINE
8
BLACK
6
CONTINUOUS
10
2.29161
20
1.69309
11
2.29715
21
1.70602
0
LINE
8
BLACK
6
CONTINUOUS
10
2.29715
20
1.70602
11
2.3041
21
1.71825
0
LINE
8
BLACK
6
CONTINUOUS
10
2.3041
20
1.71825
11
2.31237
21
1.72963
0
LINE
8
BLACK
6
CONTINUOUS
10
2.31237
20
1.72963
11
2.32185
21
1.74001
0
LINE
8
BLACK
6
CONTINUOUS
10
2.32185
20
1.74001
11
2.33244
21
1.74928
0
LINE
8
BLACK
6
CONTINUOUS
10
2.33244
20
1.74928
11
2.34399
21
1.7573
0
LINE
8
BLACK
6
CONTINUOUS
10
2.34399
20
1.7573
11
2.35636
21
1.76399
0
LINE
8
BLACK
6
CONTINUOUS
10
2.35636
20
1.76399
11
2.3694
21
1.76926
0
LINE
8
BLACK
6
CONTINUOUS
10
2.3694
20
1.76926
11
2.38295
21
1.77305
0
LINE
8
BLACK
6
CONTINUOUS
10
2.38295
20
1.77305
11
2.39683
21
1.77529
0
LINE
8
BLACK
6
CONTINUOUS
10
2.39683
20
1.77529
11
2.41088
21
1.77598
0
LINE
8
BLACK
6
CONTINUOUS
10
2.41088
20
1.77598
11
2.42492
21
1.7751
0
LINE
8
BLACK
6
CONTINUOUS
10
2.04301
20
1.64727
11
2.04557
21
1.64557
0
LINE
8
BLACK
6
CONTINUOUS
10
2.04557
20
1.64557
11
2.04727
21
1.64301
0
LINE
8
BLACK
6
CONTINUOUS
10
2.04727
20
1.64301
11
2.04787
21
1.64
0
LINE
8
BLACK
6
CONTINUOUS
10
2.04787
20
1.64
11
2.04787
21
1.58
0
LINE
8
BLACK
6
CONTINUOUS
10
2.04787
20
1.58
11
2.04727
21
1.57699
0
LINE
8
BLACK
6
CONTINUOUS
10
2.04727
20
1.57699
11
2.04557
21
1.57443
0
LINE
8
BLACK
6
CONTINUOUS
10
2.04557
20
1.57443
11
2.04301
21
1.57273
0
LINE
8
BLACK
6
CONTINUOUS
10
2.04301
20
1.57273
11
2.04
21
1.57213
0
LINE
8
BLACK
6
CONTINUOUS
10
2.04
20
1.57213
11
1.98
21
1.57213
0
LINE
8
BLACK
6
CONTINUOUS
10
1.98
20
1.57213
11
1.97699
21
1.57273
0
LINE
8
BLACK
6
CONTINUOUS
10
1.97699
20
1.57273
11
1.97443
21
1.57443
0
LINE
8
BLACK
6
CONTINUOUS
10
1.97443
20
1.57443
11
1.97273
21
1.57699
0
LINE
8
BLACK
6
CONTINUOUS
10
1.97273
20
1.57699
11
1.97213
21
1.58
0
LINE
8
BLACK
6
CONTINUOUS
10
1.97213
20
1.58
11
1.97213
21
1.64
0
LINE
8
BLACK
6
CONTINUOUS
10
1.97213
20
1.64
11
1.97273
21
1.64301
0
LINE
8
BLACK
6
CONTINUOUS
10
1.97273
20
1.64301
11
1.97443
21
1.64557
0
LINE
8
BLACK
6
CONTINUOUS
10
1.97443
20
1.64557
11
1.97699
21
1.64727
0
LINE
8
BLACK
6
CONTINUOUS
10
1.97699
20
1.64727
11
1.98
21
1.64787
0
LINE
8
BLACK
6
CONTINUOUS
10
1.98
20
1.64787
11
2.04
21
1.64787
0
LINE
8
BLACK
6
CONTINUOUS
10
2.04
20
1.64787
11
2.04301
21
1.64727
0
LINE
8
BLACK
6
CONTINUOUS
10
1.94301
20
1.64727
11
1.94557
21
1.64557
0
LINE
8
BLACK
6
CONTINUOUS
10
1.94557
20
1.64557
11
1.94727
21
1.64301
0
LINE
8
BLACK
6
CONTINUOUS
10
1.94727
20
1.64301
11
1.94787
21
1.64
0
LINE
8
BLACK
6
CONTINUOUS
10
1.94787
20
1.64
11
1.94787
21
1.58
0
LINE
8
BLACK
6
CONTINUOUS
10
1.94787
20
1.58
11
1.94727
21
1.57699
0
LINE
8
BLACK
6
CONTINUOUS
10
1.94727
20
1.57699
11
1.94557
21
1.57443
0
LINE
8
BLACK
6
CONTINUOUS
10
1.94557
20
1.57443
11
1.94301
21
1.57273
0
LINE
8
BLACK
6
CONTINUOUS
10
1.94301
20
1.57273
11
1.94
21
1.57213
0
LINE
8
BLACK
6
CONTINUOUS
10
1.94
20
1.57213
11
1.88
21
1.57213
0
LINE
8
BLACK
6
CONTINUOUS
10
1.88
20
1.57213
11
1.87699
21
1.57273
0
LINE
8
BLACK
6
CONTINUOUS
10
1.87699
20
1.57273
11
1.87443
21
1.57443
0
LINE
8
BLACK
6
CONTINUOUS
10
1.87443
20
1.57443
11
1.87273
21
1.57699
0
LINE
8
BLACK
6
CONTINUOUS
10
1.87273
20
1.57699
11
1.87213
21
1.58
0
LINE
8
BLACK
6
CONTINUOUS
10
1.87213
20
1.58
11
1.87213
21
1.64
0
LINE
8
BLACK
6
CONTINUOUS
10
1.87213
20
1.64
11
1.87273
21
1.64301
0
LINE
8
BLACK
6
CONTINUOUS
10
1.87273
20
1.64301
11
1.87443
21
1.64557
0
LINE
8
BLACK
6
CONTINUOUS
10
1.87443
20
1.64557
11
1.87699
21
1.64727
0
LINE
8
BLACK
6
CONTINUOUS
10
1.87699
20
1.64727
11
1.88
21
1.64787
0
LINE
8
BLACK
6
CONTINUOUS
10
1.88
20
1.64787
11
1.94
21
1.64787
0
LINE
8
BLACK
6
CONTINUOUS
10
1.94
20
1.64787
11
1.94301
21
1.64727
0
LINE
8
BLACK
6
CONTINUOUS
10
1.46301
20
1.64727
11
1.46557
21
1.64557
0
LINE
8
BLACK
6
CONTINUOUS
10
1.46557
20
1.64557
11
1.46727
21
1.64301
0
LINE
8
BLACK
6
CONTINUOUS
10
1.46727
20
1.64301
11
1.46787
21
1.64
0
LINE
8
BLACK
6
CONTINUOUS
10
1.46787
20
1.64
11
1.46787
21
1.58
0
LINE
8
BLACK
6
CONTINUOUS
10
1.46787
20
1.58
11
1.46727
21
1.57699
0
LINE
8
BLACK
6
CONTINUOUS
10
1.46727
20
1.57699
11
1.46557
21
1.57443
0
LINE
8
BLACK
6
CONTINUOUS
10
1.46557
20
1.57443
11
1.46301
21
1.57273
0
LINE
8
BLACK
6
CONTINUOUS
10
1.46301
20
1.57273
11
1.46
21
1.57213
0
LINE
8
BLACK
6
CONTINUOUS
10
1.46
20
1.57213
11
1.4
21
1.57213
0
LINE
8
BLACK
6
CONTINUOUS
10
1.4
20
1.57213
11
1.39699
21
1.57273
0
LINE
8
BLACK
6
CONTINUOUS
10
1.39699
20
1.57273
11
1.39443
21
1.57443
0
LINE
8
BLACK
6
CONTINUOUS
10
1.39443
20
1.57443
11
1.39273
21
1.57699
0
LINE
8
BLACK
6
CONTINUOUS
10
1.39273
20
1.57699
11
1.39213
21
1.58
0
LINE
8
BLACK
6
CONTINUOUS
10
1.39213
20
1.58
11
1.39213
21
1.64
0
LINE
8
BLACK
6
CONTINUOUS
10
1.39213
20
1.64
11
1.39273
21
1.64301
0
LINE
8
BLACK
6
CONTINUOUS
10
1.39273
20
1.64301
11
1.39443
21
1.64557
0
LINE
8
BLACK
6
CONTINUOUS
10
1.39443
20
1.64557
11
1.39699
21
1.64727
0
LINE
8
BLACK
6
CONTINUOUS
10
1.39699
20
1.64727
11
1.4
21
1.64787
0
LINE
8
BLACK
6
CONTINUOUS
10
1.4
20
1.64787
11
1.46
21
1.64787
0
LINE
8
BLACK
6
CONTINUOUS
10
1.46
20
1.64787
11
1.46301
21
1.64727
0
LINE
8
BLACK
6
CONTINUOUS
10
1.26301
20
1.64727
11
1.26557
21
1.64557
0
LINE
8
BLACK
6
CONTINUOUS
10
1.26557
20
1.64557
11
1.26727
21
1.64301
0
LINE
8
BLACK
6
CONTINUOUS
10
1.26727
20
1.64301
11
1.26787
21
1.64
0
LINE
8
BLACK
6
CONTINUOUS
10
1.26787
20
1.64
11
1.26787
21
1.58
0
LINE
8
BLACK
6
CONTINUOUS
10
1.26787
20
1.58
11
1.26727
21
1.57699
0
LINE
8
BLACK
6
CONTINUOUS
10
1.26727
20
1.57699
11
1.26557
21
1.57443
0
LINE
8
BLACK
6
CONTINUOUS
10
1.26557
20
1.57443
11
1.26301
21
1.57273
0
LINE
8
BLACK
6
CONTINUOUS
10
1.26301
20
1.57273
11
1.26
21
1.57213
0
LINE
8
BLACK
6
CONTINUOUS
10
1.26
20
1.57213
11
1.2
21
1.57213
0
LINE
8
BLACK
6
CONTINUOUS
10
1.2
20
1.57213
11
1.19699
21
1.57273
0
LINE
8
BLACK
6
CONTINUOUS
10
1.19699
20
1.57273
11
1.19443
21
1.57443
0
LINE
8
BLACK
6
CONTINUOUS
10
1.19443
20
1.57443
11
1.19273
21
1.57699
0
LINE
8
BLACK
6
CONTINUOUS
10
1.19273
20
1.57699
11
1.19213
21
1.58
0
LINE
8
BLACK
6
CONTINUOUS
10
1.19213
20
1.58
11
1.19213
21
1.64
0
LINE
8
BLACK
6
CONTINUOUS
10
1.19213
20
1.64
11
1.19273
21
1.64301
0
LINE
8
BLACK
6
CONTINUOUS
10
1.19273
20
1.64301
11
1.19443
21
1.64557
0
LINE
8
BLACK
6
CONTINUOUS
10
1.19443
20
1.64557
11
1.19699
21
1.64727
0
LINE
8
BLACK
6
CONTINUOUS
10
1.19699
20
1.64727
11
1.2
21
1.64787
0
LINE
8
BLACK
6
CONTINUOUS
10
1.2
20
1.64787
11
1.26
21
1.64787
0
LINE
8
BLACK
6
CONTINUOUS
10
1.26
20
1.64787
11
1.26301
21
1.64727
0
LINE
8
BLACK
6
CONTINUOUS
10
1.36301
20
1.64727
11
1.36557
21
1.64557
0
LINE
8
BLACK
6
CONTINUOUS
10
1.36557
20
1.64557
11
1.36727
21
1.64301
0
LINE
8
BLACK
6
CONTINUOUS
10
1.36727
20
1.64301
11
1.36787
21
1.64
0
LINE
8
BLACK
6
CONTINUOUS
10
1.36787
20
1.64
11
1.36787
21
1.58
0
LINE
8
BLACK
6
CONTINUOUS
10
1.36787
20
1.58
11
1.36727
21
1.57699
0
LINE
8
BLACK
6
CONTINUOUS
10
1.36727
20
1.57699
11
1.36557
21
1.57443
0
LINE
8
BLACK
6
CONTINUOUS
10
1.36557
20
1.57443
11
1.36301
21
1.57273
0
LINE
8
BLACK
6
CONTINUOUS
10
1.36301
20
1.57273
11
1.36
21
1.57213
0
LINE
8
BLACK
6
CONTINUOUS
10
1.36
20
1.57213
11
1.3
21
1.57213
0
LINE
8
BLACK
6
CONTINUOUS
10
1.3
20
1.57213
11
1.29699
21
1.57273
0
LINE
8
BLACK
6
CONTINUOUS
10
1.29699
20
1.57273
11
1.29443
21
1.57443
0
LINE
8
BLACK
6
CONTINUOUS
10
1.29443
20
1.57443
11
1.29273
21
1.57699
0
LINE
8
BLACK
6
CONTINUOUS
10
1.29273
20
1.57699
11
1.29213
21
1.58
0
LINE
8
BLACK
6
CONTINUOUS
10
1.29213
20
1.58
11
1.29213
21
1.64
0
LINE
8
BLACK
6
CONTINUOUS
10
1.29213
20
1.64
11
1.29273
21
1.64301
0
LINE
8
BLACK
6
CONTINUOUS
10
1.29273
20
1.64301
11
1.29443
21
1.64557
0
LINE
8
BLACK
6
CONTINUOUS
10
1.29443
20
1.64557
11
1.29699
21
1.64727
0
LINE
8
BLACK
6
CONTINUOUS
10
1.29699
20
1.64727
11
1.3
21
1.64787
0
LINE
8
BLACK
6
CONTINUOUS
10
1.3
20
1.64787
11
1.36
21
1.64787
0
LINE
8
BLACK
6
CONTINUOUS
10
1.36
20
1.64787
11
1.36301
21
1.64727
0
LINE
8
BLACK
6
CONTINUOUS
10
1.66301
20
1.64727
11
1.66557
21
1.64557
0
LINE
8
BLACK
6
CONTINUOUS
10
1.66557
20
1.64557
11
1.66727
21
1.64301
0
LINE
8
BLACK
6
CONTINUOUS
10
1.66727
20
1.64301
11
1.66787
21
1.64
0
LINE
8
BLACK
6
CONTINUOUS
10
1.66787
20
1.64
11
1.66787
21
1.58
0
LINE
8
BLACK
6
CONTINUOUS
10
1.66787
20
1.58
11
1.66727
21
1.57699
0
LINE
8
BLACK
6
CONTINUOUS
10
1.66727
20
1.57699
11
1.66557
21
1.57443
0
LINE
8
BLACK
6
CONTINUOUS
10
1.66557
20
1.57443
11
1.66301
21
1.57273
0
LINE
8
BLACK
6
CONTINUOUS
10
1.66301
20
1.57273
11
1.66
21
1.57213
0
LINE
8
BLACK
6
CONTINUOUS
10
1.66
20
1.57213
11
1.6
21
1.57213
0
LINE
8
BLACK
6
CONTINUOUS
10
1.6
20
1.57213
11
1.59699
21
1.57273
0
LINE
8
BLACK
6
CONTINUOUS
10
1.59699
20
1.57273
11
1.59443
21
1.57443
0
LINE
8
BLACK
6
CONTINUOUS
10
1.59443
20
1.57443
11
1.59273
21
1.57699
0
LINE
8
BLACK
6
CONTINUOUS
10
1.59273
20
1.57699
11
1.59213
21
1.58
0
LINE
8
BLACK
6
CONTINUOUS
10
1.59213
20
1.58
11
1.59213
21
1.64
0
LINE
8
BLACK
6
CONTINUOUS
10
1.59213
20
1.64
11
1.59273
21
1.64301
0
LINE
8
BLACK
6
CONTINUOUS
10
1.59273
20
1.64301
11
1.59443
21
1.64557
0
LINE
8
BLACK
6
CONTINUOUS
10
1.59443
20
1.64557
11
1.59699
21
1.64727
0
LINE
8
BLACK
6
CONTINUOUS
10
1.59699
20
1.64727
11
1.6
21
1.64787
0
LINE
8
BLACK
6
CONTINUOUS
10
1.6
20
1.64787
11
1.66
21
1.64787
0
LINE
8
BLACK
6
CONTINUOUS
10
1.66
20
1.64787
11
1.66301
21
1.64727
0
LINE
8
BLACK
6
CONTINUOUS
10
1.56301
20
1.64727
11
1.56557
21
1.64557
0
LINE
8
BLACK
6
CONTINUOUS
10
1.56557
20
1.64557
11
1.56727
21
1.64301
0
LINE
8
BLACK
6
CONTINUOUS
10
1.56727
20
1.64301
11
1.56787
21
1.64
0
LINE
8
BLACK
6
CONTINUOUS
10
1.56787
20
1.64
11
1.56787
21
1.58
0
LINE
8
BLACK
6
CONTINUOUS
10
1.56787
20
1.58
11
1.56727
21
1.57699
0
LINE
8
BLACK
6
CONTINUOUS
10
1.56727
20
1.57699
11
1.56557
21
1.57443
0
LINE
8
BLACK
6
CONTINUOUS
10
1.56557
20
1.57443
11
1.56301
21
1.57273
0
LINE
8
BLACK
6
CONTINUOUS
10
1.56301
20
1.57273
11
1.56
21
1.57213
0
LINE
8
BLACK
6
CONTINUOUS
10
1.56
20
1.57213
11
1.5
21
1.57213
0
LINE
8
BLACK
6
CONTINUOUS
10
1.5
20
1.57213
11
1.49699
21
1.57273
0
LINE
8
BLACK
6
CONTINUOUS
10
1.49699
20
1.57273
11
1.49443
21
1.57443
0
LINE
8
BLACK
6
CONTINUOUS
10
1.49443
20
1.57443
11
1.49273
21
1.57699
0
LINE
8
BLACK
6
CONTINUOUS
10
1.49273
20
1.57699
11
1.49213
21
1.58
0
LINE
8
BLACK
6
CONTINUOUS
10
1.49213
20
1.58
11
1.49213
21
1.64
0
LINE
8
BLACK
6
CONTINUOUS
10
1.49213
20
1.64
11
1.49273
21
1.64301
0
LINE
8
BLACK
6
CONTINUOUS
10
1.49273
20
1.64301
11
1.49443
21
1.64557
0
LINE
8
BLACK
6
CONTINUOUS
10
1.49443
20
1.64557
11
1.49699
21
1.64727
0
LINE
8
BLACK
6
CONTINUOUS
10
1.49699
20
1.64727
11
1.5
21
1.64787
0
LINE
8
BLACK
6
CONTINUOUS
10
1.5
20
1.64787
11
1.56
21
1.64787
0
LINE
8
BLACK
6
CONTINUOUS
10
1.56
20
1.64787
11
1.56301
21
1.64727
0
LINE
8
BLACK
6
CONTINUOUS
10
1.94301
20
1.74727
11
1.94557
21
1.74557
0
LINE
8
BLACK
6
CONTINUOUS
10
1.94557
20
1.74557
11
1.94727
21
1.74301
0
LINE
8
BLACK
6
CONTINUOUS
10
1.94727
20
1.74301
11
1.94787
21
1.74
0
LINE
8
BLACK
6
CONTINUOUS
10
1.94787
20
1.74
11
1.94787
21
1.68
0
LINE
8
BLACK
6
CONTINUOUS
10
1.94787
20
1.68
11
1.94727
21
1.67699
0
LINE
8
BLACK
6
CONTINUOUS
10
1.94727
20
1.67699
11
1.94557
21
1.67443
0
LINE
8
BLACK
6
CONTINUOUS
10
1.94557
20
1.67443
11
1.94301
21
1.67273
0
LINE
8
BLACK
6
CONTINUOUS
10
1.94301
20
1.67273
11
1.94
21
1.67213
0
LINE
8
BLACK
6
CONTINUOUS
10
1.94
20
1.67213
11
1.88
21
1.67213
0
LINE
8
BLACK
6
CONTINUOUS
10
1.88
20
1.67213
11
1.87699
21
1.67273
0
LINE
8
BLACK
6
CONTINUOUS
10
1.87699
20
1.67273
11
1.87443
21
1.67443
0
LINE
8
BLACK
6
CONTINUOUS
10
1.87443
20
1.67443
11
1.87273
21
1.67699
0
LINE
8
BLACK
6
CONTINUOUS
10
1.87273
20
1.67699
11
1.87213
21
1.68
0
LINE
8
BLACK
6
CONTINUOUS
10
1.87213
20
1.68
11
1.87213
21
1.74
0
LINE
8
BLACK
6
CONTINUOUS
10
1.87213
20
1.74
11
1.87273
21
1.74301
0
LINE
8
BLACK
6
CONTINUOUS
10
1.87273
20
1.74301
11
1.87443
21
1.74557
0
LINE
8
BLACK
6
CONTINUOUS
10
1.87443
20
1.74557
11
1.87699
21
1.74727
0
LINE
8
BLACK
6
CONTINUOUS
10
1.87699
20
1.74727
11
1.88
21
1.74787
0
LINE
8
BLACK
6
CONTINUOUS
10
1.88
20
1.74787
11
1.94
21
1.74787
0
LINE
8
BLACK
6
CONTINUOUS
10
1.94
20
1.74787
11
1.94301
21
1.74727
0
LINE
8
BLACK
6
CONTINUOUS
10
2.04301
20
1.74727
11
2.04557
21
1.74557
0
LINE
8
BLACK
6
CONTINUOUS
10
2.04557
20
1.74557
11
2.04727
21
1.74301
0
LINE
8
BLACK
6
CONTINUOUS
10
2.04727
20
1.74301
11
2.04787
21
1.74
0
LINE
8
BLACK
6
CONTINUOUS
10
2.04787
20
1.74
11
2.04787
21
1.68
0
LINE
8
BLACK
6
CONTINUOUS
10
2.04787
20
1.68
11
2.04727
21
1.67699
0
LINE
8
BLACK
6
CONTINUOUS
10
2.04727
20
1.67699
11
2.04557
21
1.67443
0
LINE
8
BLACK
6
CONTINUOUS
10
2.04557
20
1.67443
11
2.04301
21
1.67273
0
LINE
8
BLACK
6
CONTINUOUS
10
2.04301
20
1.67273
11
2.04
21
1.67213
0
LINE
8
BLACK
6
CONTINUOUS
10
2.04
20
1.67213
11
1.98
21
1.67213
0
LINE
8
BLACK
6
CONTINUOUS
10
1.98
20
1.67213
11
1.97699
21
1.67273
0
LINE
8
BLACK
6
CONTINUOUS
10
1.97699
20
1.67273
11
1.97443
21
1.67443
0
LINE
8
BLACK
6
CONTINUOUS
10
1.97443
20
1.67443
11
1.97273
21
1.67699
0
LINE
8
BLACK
6
CONTINUOUS
10
1.97273
20
1.67699
11
1.97213
21
1.68
0
LINE
8
BLACK
6
CONTINUOUS
10
1.97213
20
1.68
11
1.97213
21
1.74
0
LINE
8
BLACK
6
CONTINUOUS
10
1.97213
20
1.74
11
1.97273
21
1.74301
0
LINE
8
BLACK
6
CONTINUOUS
10
1.97273
20
1.74301
11
1.97443
21
1.74557
0
LINE
8
BLACK
6
CONTINUOUS
10
1.97443
20
1.74557
11
1.97699
21
1.74727
0
LINE
8
BLACK
6
CONTINUOUS
10
1.97699
20
1.74727
11
1.98
21
1.74787
0
LINE
8
BLACK
6
CONTINUOUS
10
1.98
20
1.74787
11
2.04
21
1.74787
0
LINE
8
BLACK
6
CONTINUOUS
10
2.04
20
1.74787
11
2.04301
21
1.74727
0
LINE
8
BLACK
6
CONTINUOUS
10
1.26301
20
1.74727
11
1.26557
21
1.74557
0
LINE
8
BLACK
6
CONTINUOUS
10
1.26557
20
1.74557
11
1.26727
21
1.74301
0
LINE
8
BLACK
6
CONTINUOUS
10
1.26727
20
1.74301
11
1.26787
21
1.74
0
LINE
8
BLACK
6
CONTINUOUS
10
1.26787
20
1.74
11
1.26787
21
1.68
0
LINE
8
BLACK
6
CONTINUOUS
10
1.26787
20
1.68
11
1.26727
21
1.67699
0
LINE
8
BLACK
6
CONTINUOUS
10
1.26727
20
1.67699
11
1.26557
21
1.67443
0
LINE
8
BLACK
6
CONTINUOUS
10
1.26557
20
1.67443
11
1.26301
21
1.67273
0
LINE
8
BLACK
6
CONTINUOUS
10
1.26301
20
1.67273
11
1.26
21
1.67213
0
LINE
8
BLACK
6
CONTINUOUS
10
1.26
20
1.67213
11
1.2
21
1.67213
0
LINE
8
BLACK
6
CONTINUOUS
10
1.2
20
1.67213
11
1.19699
21
1.67273
0
LINE
8
BLACK
6
CONTINUOUS
10
1.19699
20
1.67273
11
1.19443
21
1.67443
0
LINE
8
BLACK
6
CONTINUOUS
10
1.19443
20
1.67443
11
1.19273
21
1.67699
0
LINE
8
BLACK
6
CONTINUOUS
10
1.19273
20
1.67699
11
1.19213
21
1.68
0
LINE
8
BLACK
6
CONTINUOUS
10
1.19213
20
1.68
11
1.19213
21
1.74
0
LINE
8
BLACK
6
CONTINUOUS
10
1.19213
20
1.74
11
1.19273
21
1.74301
0
LINE
8
BLACK
6
CONTINUOUS
10
1.19273
20
1.74301
11
1.19443
21
1.74557
0
LINE
8
BLACK
6
CONTINUOUS
10
1.19443
20
1.74557
11
1.19699
21
1.74727
0
LINE
8
BLACK
6
CONTINUOUS
10
1.19699
20
1.74727
11
1.2
21
1.74787
0
LINE
8
BLACK
6
CONTINUOUS
10
1.2
20
1.74787
11
1.26
21
1.74787
0
LINE
8
BLACK
6
CONTINUOUS
10
1.26
20
1.74787
11
1.26301
21
1.74727
0
LINE
8
BLACK
6
CONTINUOUS
10
1.36301
20
1.74727
11
1.36557
21
1.74557
0
LINE
8
BLACK
6
CONTINUOUS
10
1.36557
20
1.74557
11
1.36727
21
1.74301
0
LINE
8
BLACK
6
CONTINUOUS
10
1.36727
20
1.74301
11
1.36787
21
1.74
0
LINE
8
BLACK
6
CONTINUOUS
10
1.36787
20
1.74
11
1.36787
21
1.68
0
LINE
8
BLACK
6
CONTINUOUS
10
1.36787
20
1.68
11
1.36727
21
1.67699
0
LINE
8
BLACK
6
CONTINUOUS
10
1.36727
20
1.67699
11
1.36557
21
1.67443
0
LINE
8
BLACK
6
CONTINUOUS
10
1.36557
20
1.67443
11
1.36301
21
1.67273
0
LINE
8
BLACK
6
CONTINUOUS
10
1.36301
20
1.67273
11
1.36
21
1.67213
0
LINE
8
BLACK
6
CONTINUOUS
10
1.36
20
1.67213
11
1.3
21
1.67213
0
LINE
8
BLACK
6
CONTINUOUS
10
1.3
20
1.67213
11
1.29699
21
1.67273
0
LINE
8
BLACK
6
CONTINUOUS
10
1.29699
20
1.67273
11
1.29443
21
1.67443
0
LINE
8
BLACK
6
CONTINUOUS
10
1.29443
20
1.67443
11
1.29273
21
1.67699
0
LINE
8
BLACK
6
CONTINUOUS
10
1.29273
20
1.67699
11
1.29213
21
1.68
0
LINE
8
BLACK
6
CONTINUOUS
10
1.29213
20
1.68
11
1.29213
21
1.74
0
LINE
8
BLACK
6
CONTINUOUS
10
1.29213
20
1.74
11
1.29273
21
1.74301
0
LINE
8
BLACK
6
CONTINUOUS
10
1.29273
20
1.74301
11
1.29443
21
1.74557
0
LINE
8
BLACK
6
CONTINUOUS
10
1.29443
20
1.74557
11
1.29699
21
1.74727
0
LINE
8
BLACK
6
CONTINUOUS
10
1.29699
20
1.74727
11
1.3
21
1.74787
0
LINE
8
BLACK
6
CONTINUOUS
10
1.3
20
1.74787
11
1.36
21
1.74787
0
LINE
8
BLACK
6
CONTINUOUS
10
1.36
20
1.74787
11
1.36301
21
1.74727
0
LINE
8
BLACK
6
CONTINUOUS
10
1.66301
20
1.74727
11
1.66557
21
1.74557
0
LINE
8
BLACK
6
CONTINUOUS
10
1.66557
20
1.74557
11
1.66727
21
1.74301
0
LINE
8
BLACK
6
CONTINUOUS
10
1.66727
20
1.74301
11
1.66787
21
1.74
0
LINE
8
BLACK
6
CONTINUOUS
10
1.66787
20
1.74
11
1.66787
21
1.68
0
LINE
8
BLACK
6
CONTINUOUS
10
1.66787
20
1.68
11
1.66727
21
1.67699
0
LINE
8
BLACK
6
CONTINUOUS
10
1.66727
20
1.67699
11
1.66557
21
1.67443
0
LINE
8
BLACK
6
CONTINUOUS
10
1.66557
20
1.67443
11
1.66301
21
1.67273
0
LINE
8
BLACK
6
CONTINUOUS
10
1.66301
20
1.67273
11
1.66
21
1.67213
0
LINE
8
BLACK
6
CONTINUOUS
10
1.66
20
1.67213
11
1.6
21
1.67213
0
LINE
8
BLACK
6
CONTINUOUS
10
1.6
20
1.67213
11
1.59699
21
1.67273
0
LINE
8
BLACK
6
CONTINUOUS
10
1.59699
20
1.67273
11
1.59443
21
1.67443
0
LINE
8
BLACK
6
CONTINUOUS
10
1.59443
20
1.67443
11
1.59273
21
1.67699
0
LINE
8
BLACK
6
CONTINUOUS
10
1.59273
20
1.67699
11
1.59213
21
1.68
0
LINE
8
BLACK
6
CONTINUOUS
10
1.59213
20
1.68
11
1.59213
21
1.74
0
LINE
8
BLACK
6
CONTINUOUS
10
1.59213
20
1.74
11
1.59273
21
1.74301
0
LINE
8
BLACK
6
CONTINUOUS
10
1.59273
20
1.74301
11
1.59443
21
1.74557
0
LINE
8
BLACK
6
CONTINUOUS
10
1.59443
20
1.74557
11
1.59699
21
1.74727
0
LINE
8
BLACK
6
CONTINUOUS
10
1.59699
20
1.74727
11
1.6
21
1.74787
0
LINE
8
BLACK
6
CONTINUOUS
10
1.6
20
1.74787
11
1.66
21
1.74787
0
LINE
8
BLACK
6
CONTINUOUS
10
1.66
20
1.74787
11
1.66301
21
1.74727
0
LINE
8
BLACK
6
CONTINUOUS
10
1.56301
20
1.74727
11
1.56557
21
1.74557
0
LINE
8
BLACK
6
CONTINUOUS
10
1.56557
20
1.74557
11
1.56727
21
1.74301
0
LINE
8
BLACK
6
CONTINUOUS
10
1.56727
20
1.74301
11
1.56787
21
1.74
0
LINE
8
BLACK
6
CONTINUOUS
10
1.56787
20
1.74
11
1.56787
21
1.68
0
LINE
8
BLACK
6
CONTINUOUS
10
1.56787
20
1.68
11
1.56727
21
1.67699
0
LINE
8
BLACK
6
CONTINUOUS
10
1.56727
20
1.67699
11
1.56557
21
1.67443
0
LINE
8
BLACK
6
CONTINUOUS
10
1.56557
20
1.67443
11
1.56301
21
1.67273
0
LINE
8
BLACK
6
CONTINUOUS
10
1.56301
20
1.67273
11
1.56
21
1.67213
0
LINE
8
BLACK
6
CONTINUOUS
10
1.56
20
1.67213
11
1.5
21
1.67213
0
LINE
8
BLACK
6
CONTINUOUS
10
1.5
20
1.67213
11
1.49699
21
1.67273
0
LINE
8
BLACK
6
CONTINUOUS
10
1.49699
20
1.67273
11
1.49443
21
1.67443
0
LINE
8
BLACK
6
CONTINUOUS
10
1.49443
20
1.67443
11
1.49273
21
1.67699
0
LINE
8
BLACK
6
CONTINUOUS
10
1.49273
20
1.67699
11
1.49213
21
1.68
0
LINE
8
BLACK
6
CONTINUOUS
10
1.49213
20
1.68
11
1.49213
21
1.74
0
LINE
8
BLACK
6
CONTINUOUS
10
1.49213
20
1.74
11
1.49273
21
1.74301
0
LINE
8
BLACK
6
CONTINUOUS
10
1.49273
20
1.74301
11
1.49443
21
1.74557
0
LINE
8
BLACK
6
CONTINUOUS
10
1.49443
20
1.74557
11
1.49699
21
1.74727
0
LINE
8
BLACK
6
CONTINUOUS
10
1.49699
20
1.74727
11
1.5
21
1.74787
0
LINE
8
BLACK
6
CONTINUOUS
10
1.5
20
1.74787
11
1.56
21
1.74787
0
LINE
8
BLACK
6
CONTINUOUS
10
1.56
20
1.74787
11
1.56301
21
1.74727
0
LINE
8
BLACK
6
CONTINUOUS
10
1.46301
20
1.74727
11
1.46557
21
1.74557
0
LINE
8
BLACK
6
CONTINUOUS
10
1.46557
20
1.74557
11
1.46727
21
1.74301
0
LINE
8
BLACK
6
CONTINUOUS
10
1.46727
20
1.74301
11
1.46787
21
1.74
0
LINE
8
BLACK
6
CONTINUOUS
10
1.46787
20
1.74
11
1.46787
21
1.68
0
LINE
8
BLACK
6
CONTINUOUS
10
1.46787
20
1.68
11
1.46727
21
1.67699
0
LINE
8
BLACK
6
CONTINUOUS
10
1.46727
20
1.67699
11
1.46557
21
1.67443
0
LINE
8
BLACK
6
CONTINUOUS
10
1.46557
20
1.67443
11
1.46301
21
1.67273
0
LINE
8
BLACK
6
CONTINUOUS
10
1.46301
20
1.67273
11
1.46
21
1.67213
0
LINE
8
BLACK
6
CONTINUOUS
10
1.46
20
1.67213
11
1.4
21
1.67213
0
LINE
8
BLACK
6
CONTINUOUS
10
1.4
20
1.67213
11
1.39699
21
1.67273
0
LINE
8
BLACK
6
CONTINUOUS
10
1.39699
20
1.67273
11
1.39443
21
1.67443
0
LINE
8
BLACK
6
CONTINUOUS
10
1.39443
20
1.67443
11
1.39273
21
1.67699
0
LINE
8
BLACK
6
CONTINUOUS
10
1.39273
20
1.67699
11
1.39213
21
1.68
0
LINE
8
BLACK
6
CONTINUOUS
10
1.39213
20
1.68
11
1.39213
21
1.74
0
LINE
8
BLACK
6
CONTINUOUS
10
1.39213
20
1.74
11
1.39273
21
1.74301
0
LINE
8
BLACK
6
CONTINUOUS
10
1.39273
20
1.74301
11
1.39443
21
1.74557
0
LINE
8
BLACK
6
CONTINUOUS
10
1.39443
20
1.74557
11
1.39699
21
1.74727
0
LINE
8
BLACK
6
CONTINUOUS
10
1.39699
20
1.74727
11
1.4
21
1.74787
0
LINE
8
BLACK
6
CONTINUOUS
10
1.4
20
1.74787
11
1.46
21
1.74787
0
LINE
8
BLACK
6
CONTINUOUS
10
1.46
20
1.74787
11
1.46301
21
1.74727
  0
ENDSEC
  0
EOF
