  0
SECTION
  2
HEADER
  9
$ANGBASE
  50
0.0
  9
$ANGDIR
  70
1
  9
$MEASUREMENT
  70
0
  0
ENDSEC
  0
SECTION
  2
TABLES
  0
TABLE
  2
LTYPE
  70
4
  0
LTYPE
  5
40F
  2
CONTINUOUS
  70
0
  3
Solid line
  72
65
  73
0
  40
0.0
  0
LTYPE
  5
410
  2
DASHDOT
 70
0
  3
Dash Dot ____ _ ____ _
 72
65
 73
4
 40
2.0
 49
1.25
 49
-0.25
 49
0.25
 49
-0.25
  0
LTYPE
  5
411
  2
DASHED
 70
0
  3
Dashed __ __ __ __ __
 72
65
 73
2
 40
0.75
 49
0.5
 49
-0.25
  0
LTYPE
  5
43B
  2
DOTTED
 70
0
  3
Dotted .  .  .  .
 72
65
 73
2
 40
0.2
 49
0.0
 49
-0.2
  0
ENDTAB
  0
TABLE
  2
STYLE
  70
4
  0
STYLE
  2
KICAD
  70
0
  40
0
  41
1
  42
1
  50
0
  71
0
  3
isocp.shx
  0
STYLE
  2
KICADB
  70
0
  40
0
  41
1
  42
1
  50
0
  71
0
  3
isocp.shx
  0
STYLE
  2
KICADI
  70
0
  40
0
  41
1
  42
1
  50
15
  71
0
  3
isocp.shx
  0
STYLE
  2
KICADBI
  70
0
  40
0
  41
1
  42
1
  50
15
  71
0
  3
isocp.shx
  0
ENDTAB
  0
TABLE
  2
LAYER
  70
1
  0
LAYER
  2
BLACK
  70
0
  62
7
  6
CONTINUOUS
  0
ENDTAB
  0
ENDSEC
  0
SECTION
  2
ENTITIES
0
LINE
8
BLACK
6
CONTINUOUS
10
0.0086502
20
0.117793
11
0.0221317
21
0.116018
0
LINE
8
BLACK
6
CONTINUOUS
10
0.0221317
20
0.116018
11
0.0353198
21
0.112706
0
LINE
8
BLACK
6
CONTINUOUS
10
0.0353198
20
0.112706
11
0.0480398
21
0.107899
0
LINE
8
BLACK
6
CONTINUOUS
10
0.0480398
20
0.107899
11
0.060123
21
0.101662
0
LINE
8
BLACK
6
CONTINUOUS
10
0.060123
20
0.101662
11
0.0714093
21
0.0940783
0
LINE
8
BLACK
6
CONTINUOUS
10
0.0714093
20
0.0940783
11
0.0817492
21
0.0852473
0
LINE
8
BLACK
6
CONTINUOUS
10
0.0817492
20
0.0852473
11
0.0910055
21
0.0752863
0
LINE
8
BLACK
6
CONTINUOUS
10
0.0910055
20
0.0752863
11
0.0990556
21
0.0643274
0
LINE
8
BLACK
6
CONTINUOUS
10
0.0990556
20
0.0643274
11
0.105793
21
0.052516
0
LINE
8
BLACK
6
CONTINUOUS
10
0.105793
20
0.052516
11
0.111128
21
0.0400084
0
LINE
8
BLACK
6
CONTINUOUS
10
0.111128
20
0.0400084
11
0.11499
21
0.0269706
0
LINE
8
BLACK
6
CONTINUOUS
10
0.11499
20
0.0269706
11
0.117327
21
0.0135752
0
LINE
8
BLACK
6
CONTINUOUS
10
0.117327
20
0.0135752
11
0.11811
21
0
0
LINE
8
BLACK
6
CONTINUOUS
10
0.11811
20
0
11
0.117877
21
-0.00741622
0
LINE
8
BLACK
6
CONTINUOUS
10
0.117877
20
-0.00741622
11
0.116244
21
-0.0209155
0
LINE
8
BLACK
6
CONTINUOUS
10
0.116244
20
-0.0209155
11
0.113069
21
-0.0341376
0
LINE
8
BLACK
6
CONTINUOUS
10
0.113069
20
-0.0341376
11
0.108396
21
-0.0469072
0
LINE
8
BLACK
6
CONTINUOUS
10
0.108396
20
-0.0469072
11
0.102286
21
-0.0590551
0
LINE
8
BLACK
6
CONTINUOUS
10
0.102286
20
-0.0590551
11
0.0948209
21
-0.0704203
0
LINE
8
BLACK
6
CONTINUOUS
10
0.0948209
20
-0.0704203
11
0.0860987
21
-0.080852
0
LINE
8
BLACK
6
CONTINUOUS
10
0.0860987
20
-0.080852
11
0.0762352
21
-0.0902121
0
LINE
8
BLACK
6
CONTINUOUS
10
0.0762352
20
-0.0902121
11
0.0653612
21
-0.0983765
0
LINE
8
BLACK
6
CONTINUOUS
10
0.0653612
20
-0.0983765
11
0.0536209
21
-0.105237
0
LINE
8
BLACK
6
CONTINUOUS
10
0.0536209
20
-0.105237
11
0.0411699
21
-0.110703
0
LINE
8
BLACK
6
CONTINUOUS
10
0.0411699
20
-0.110703
11
0.0281732
21
-0.114701
0
LINE
8
BLACK
6
CONTINUOUS
10
0.0281732
20
-0.114701
11
0.0148031
21
-0.117179
0
LINE
8
BLACK
6
CONTINUOUS
10
0.0148031
20
-0.117179
11
0.00123681
21
-0.118104
0
LINE
8
BLACK
6
CONTINUOUS
10
0.00123681
20
-0.118104
11
-0.0123459
21
-0.117463
0
LINE
8
BLACK
6
CONTINUOUS
10
-0.0123459
20
-0.117463
11
-0.025765
21
-0.115266
0
LINE
8
BLACK
6
CONTINUOUS
10
-0.025765
20
-0.115266
11
-0.0388425
21
-0.111541
0
LINE
8
BLACK
6
CONTINUOUS
10
-0.0388425
20
-0.111541
11
-0.0514052
21
-0.106337
0
LINE
8
BLACK
6
CONTINUOUS
10
-0.0514052
20
-0.106337
11
-0.0632866
21
-0.0997238
0
LINE
8
BLACK
6
CONTINUOUS
10
-0.0632866
20
-0.0997238
11
-0.0743292
21
-0.0917889
0
LINE
8
BLACK
6
CONTINUOUS
10
-0.0743292
20
-0.0917889
11
-0.0843865
21
-0.0826374
0
LINE
8
BLACK
6
CONTINUOUS
10
-0.0843865
20
-0.0826374
11
-0.0933254
21
-0.0723906
0
LINE
8
BLACK
6
CONTINUOUS
10
-0.0933254
20
-0.0723906
11
-0.101027
21
-0.0611843
0
LINE
8
BLACK
6
CONTINUOUS
10
-0.101027
20
-0.0611843
11
-0.10739
21
-0.049167
0
LINE
8
BLACK
6
CONTINUOUS
10
-0.10739
20
-0.049167
11
-0.11233
21
-0.0364981
0
LINE
8
BLACK
6
CONTINUOUS
10
-0.11233
20
-0.0364981
11
-0.11578
21
-0.0233454
0
LINE
8
BLACK
6
CONTINUOUS
10
-0.11578
20
-0.0233454
11
-0.117696
21
-0.00988323
0
LINE
8
BLACK
6
CONTINUOUS
10
-0.117696
20
-0.00988323
11
-0.118052
21
0.00370992
0
LINE
8
BLACK
6
CONTINUOUS
10
-0.118052
20
0.00370992
11
-0.116843
21
0.0172539
0
LINE
8
BLACK
6
CONTINUOUS
10
-0.116843
20
0.0172539
11
-0.114086
21
0.0305692
0
LINE
8
BLACK
6
CONTINUOUS
10
-0.114086
20
0.0305692
11
-0.109816
21
0.0434793
0
LINE
8
BLACK
6
CONTINUOUS
10
-0.109816
20
0.0434793
11
-0.104091
21
0.0558131
0
LINE
8
BLACK
6
CONTINUOUS
10
-0.104091
20
0.0558131
11
-0.0969861
21
0.0674071
0
LINE
8
BLACK
6
CONTINUOUS
10
-0.0969861
20
0.0674071
11
-0.0885958
21
0.0781077
0
LINE
8
BLACK
6
CONTINUOUS
10
-0.0885958
20
0.0781077
11
-0.0790312
21
0.087773
0
LINE
8
BLACK
6
CONTINUOUS
10
-0.0790312
20
0.087773
11
-0.0684191
21
0.0962749
0
LINE
8
BLACK
6
CONTINUOUS
10
-0.0684191
20
0.0962749
11
-0.0569
21
0.103501
0
LINE
8
BLACK
6
CONTINUOUS
10
-0.0569
20
0.103501
11
-0.0446269
21
0.109355
0
LINE
8
BLACK
6
CONTINUOUS
10
-0.0446269
20
0.109355
11
-0.0317622
21
0.113759
0
LINE
8
BLACK
6
CONTINUOUS
10
-0.0317622
20
0.113759
11
-0.0184765
21
0.116656
0
LINE
8
BLACK
6
CONTINUOUS
10
-0.0184765
20
0.116656
11
-0.00494594
21
0.118007
0
LINE
8
BLACK
6
CONTINUOUS
10
-0.00494594
20
0.118007
11
0.0086502
21
0.117793
0
LINE
8
BLACK
6
CONTINUOUS
10
2.00865
20
0.117793
11
2.02213
21
0.116018
0
LINE
8
BLACK
6
CONTINUOUS
10
2.02213
20
0.116018
11
2.03532
21
0.112706
0
LINE
8
BLACK
6
CONTINUOUS
10
2.03532
20
0.112706
11
2.04804
21
0.107899
0
LINE
8
BLACK
6
CONTINUOUS
10
2.04804
20
0.107899
11
2.06012
21
0.101662
0
LINE
8
BLACK
6
CONTINUOUS
10
2.06012
20
0.101662
11
2.07141
21
0.0940783
0
LINE
8
BLACK
6
CONTINUOUS
10
2.07141
20
0.0940783
11
2.08175
21
0.0852473
0
LINE
8
BLACK
6
CONTINUOUS
10
2.08175
20
0.0852473
11
2.09101
21
0.0752863
0
LINE
8
BLACK
6
CONTINUOUS
10
2.09101
20
0.0752863
11
2.09906
21
0.0643274
0
LINE
8
BLACK
6
CONTINUOUS
10
2.09906
20
0.0643274
11
2.10579
21
0.052516
0
LINE
8
BLACK
6
CONTINUOUS
10
2.10579
20
0.052516
11
2.11113
21
0.0400084
0
LINE
8
BLACK
6
CONTINUOUS
10
2.11113
20
0.0400084
11
2.11499
21
0.0269706
0
LINE
8
BLACK
6
CONTINUOUS
10
2.11499
20
0.0269706
11
2.11733
21
0.0135752
0
LINE
8
BLACK
6
CONTINUOUS
10
2.11733
20
0.0135752
11
2.11811
21
0
0
LINE
8
BLACK
6
CONTINUOUS
10
2.11811
20
0
11
2.11788
21
-0.00741622
0
LINE
8
BLACK
6
CONTINUOUS
10
2.11788
20
-0.00741622
11
2.11624
21
-0.0209155
0
LINE
8
BLACK
6
CONTINUOUS
10
2.11624
20
-0.0209155
11
2.11307
21
-0.0341376
0
LINE
8
BLACK
6
CONTINUOUS
10
2.11307
20
-0.0341376
11
2.1084
21
-0.0469072
0
LINE
8
BLACK
6
CONTINUOUS
10
2.1084
20
-0.0469072
11
2.10229
21
-0.0590551
0
LINE
8
BLACK
6
CONTINUOUS
10
2.10229
20
-0.0590551
11
2.09482
21
-0.0704203
0
LINE
8
BLACK
6
CONTINUOUS
10
2.09482
20
-0.0704203
11
2.0861
21
-0.080852
0
LINE
8
BLACK
6
CONTINUOUS
10
2.0861
20
-0.080852
11
2.07624
21
-0.0902121
0
LINE
8
BLACK
6
CONTINUOUS
10
2.07624
20
-0.0902121
11
2.06536
21
-0.0983765
0
LINE
8
BLACK
6
CONTINUOUS
10
2.06536
20
-0.0983765
11
2.05362
21
-0.105237
0
LINE
8
BLACK
6
CONTINUOUS
10
2.05362
20
-0.105237
11
2.04117
21
-0.110703
0
LINE
8
BLACK
6
CONTINUOUS
10
2.04117
20
-0.110703
11
2.02817
21
-0.114701
0
LINE
8
BLACK
6
CONTINUOUS
10
2.02817
20
-0.114701
11
2.0148
21
-0.117179
0
LINE
8
BLACK
6
CONTINUOUS
10
2.0148
20
-0.117179
11
2.00124
21
-0.118104
0
LINE
8
BLACK
6
CONTINUOUS
10
2.00124
20
-0.118104
11
1.98765
21
-0.117463
0
LINE
8
BLACK
6
CONTINUOUS
10
1.98765
20
-0.117463
11
1.97424
21
-0.115266
0
LINE
8
BLACK
6
CONTINUOUS
10
1.97424
20
-0.115266
11
1.96116
21
-0.111541
0
LINE
8
BLACK
6
CONTINUOUS
10
1.96116
20
-0.111541
11
1.94859
21
-0.106337
0
LINE
8
BLACK
6
CONTINUOUS
10
1.94859
20
-0.106337
11
1.93671
21
-0.0997238
0
LINE
8
BLACK
6
CONTINUOUS
10
1.93671
20
-0.0997238
11
1.92567
21
-0.0917889
0
LINE
8
BLACK
6
CONTINUOUS
10
1.92567
20
-0.0917889
11
1.91561
21
-0.0826374
0
LINE
8
BLACK
6
CONTINUOUS
10
1.91561
20
-0.0826374
11
1.90667
21
-0.0723906
0
LINE
8
BLACK
6
CONTINUOUS
10
1.90667
20
-0.0723906
11
1.89897
21
-0.0611843
0
LINE
8
BLACK
6
CONTINUOUS
10
1.89897
20
-0.0611843
11
1.89261
21
-0.049167
0
LINE
8
BLACK
6
CONTINUOUS
10
1.89261
20
-0.049167
11
1.88767
21
-0.0364981
0
LINE
8
BLACK
6
CONTINUOUS
10
1.88767
20
-0.0364981
11
1.88422
21
-0.0233454
0
LINE
8
BLACK
6
CONTINUOUS
10
1.88422
20
-0.0233454
11
1.8823
21
-0.00988323
0
LINE
8
BLACK
6
CONTINUOUS
10
1.8823
20
-0.00988323
11
1.88195
21
0.00370992
0
LINE
8
BLACK
6
CONTINUOUS
10
1.88195
20
0.00370992
11
1.88316
21
0.0172539
0
LINE
8
BLACK
6
CONTINUOUS
10
1.88316
20
0.0172539
11
1.88591
21
0.0305692
0
LINE
8
BLACK
6
CONTINUOUS
10
1.88591
20
0.0305692
11
1.89018
21
0.0434793
0
LINE
8
BLACK
6
CONTINUOUS
10
1.89018
20
0.0434793
11
1.89591
21
0.0558131
0
LINE
8
BLACK
6
CONTINUOUS
10
1.89591
20
0.0558131
11
1.90301
21
0.0674071
0
LINE
8
BLACK
6
CONTINUOUS
10
1.90301
20
0.0674071
11
1.9114
21
0.0781077
0
LINE
8
BLACK
6
CONTINUOUS
10
1.9114
20
0.0781077
11
1.92097
21
0.087773
0
LINE
8
BLACK
6
CONTINUOUS
10
1.92097
20
0.087773
11
1.93158
21
0.0962749
0
LINE
8
BLACK
6
CONTINUOUS
10
1.93158
20
0.0962749
11
1.9431
21
0.103501
0
LINE
8
BLACK
6
CONTINUOUS
10
1.9431
20
0.103501
11
1.95537
21
0.109355
0
LINE
8
BLACK
6
CONTINUOUS
10
1.95537
20
0.109355
11
1.96824
21
0.113759
0
LINE
8
BLACK
6
CONTINUOUS
10
1.96824
20
0.113759
11
1.98152
21
0.116656
0
LINE
8
BLACK
6
CONTINUOUS
10
1.98152
20
0.116656
11
1.99505
21
0.118007
0
LINE
8
BLACK
6
CONTINUOUS
10
1.99505
20
0.118007
11
2.00865
21
0.117793
0
LINE
8
BLACK
6
CONTINUOUS
10
2.00865
20
1.31779
11
2.02213
21
1.31602
0
LINE
8
BLACK
6
CONTINUOUS
10
2.02213
20
1.31602
11
2.03532
21
1.31271
0
LINE
8
BLACK
6
CONTINUOUS
10
2.03532
20
1.31271
11
2.04804
21
1.3079
0
LINE
8
BLACK
6
CONTINUOUS
10
2.04804
20
1.3079
11
2.06012
21
1.30166
0
LINE
8
BLACK
6
CONTINUOUS
10
2.06012
20
1.30166
11
2.07141
21
1.29408
0
LINE
8
BLACK
6
CONTINUOUS
10
2.07141
20
1.29408
11
2.08175
21
1.28525
0
LINE
8
BLACK
6
CONTINUOUS
10
2.08175
20
1.28525
11
2.09101
21
1.27529
0
LINE
8
BLACK
6
CONTINUOUS
10
2.09101
20
1.27529
11
2.09906
21
1.26433
0
LINE
8
BLACK
6
CONTINUOUS
10
2.09906
20
1.26433
11
2.10579
21
1.25252
0
LINE
8
BLACK
6
CONTINUOUS
10
2.10579
20
1.25252
11
2.11113
21
1.24001
0
LINE
8
BLACK
6
CONTINUOUS
10
2.11113
20
1.24001
11
2.11499
21
1.22697
0
LINE
8
BLACK
6
CONTINUOUS
10
2.11499
20
1.22697
11
2.11733
21
1.21358
0
LINE
8
BLACK
6
CONTINUOUS
10
2.11733
20
1.21358
11
2.11811
21
1.2
0
LINE
8
BLACK
6
CONTINUOUS
10
2.11811
20
1.2
11
2.11788
21
1.19258
0
LINE
8
BLACK
6
CONTINUOUS
10
2.11788
20
1.19258
11
2.11624
21
1.17908
0
LINE
8
BLACK
6
CONTINUOUS
10
2.11624
20
1.17908
11
2.11307
21
1.16586
0
LINE
8
BLACK
6
CONTINUOUS
10
2.11307
20
1.16586
11
2.1084
21
1.15309
0
LINE
8
BLACK
6
CONTINUOUS
10
2.1084
20
1.15309
11
2.10229
21
1.14094
0
LINE
8
BLACK
6
CONTINUOUS
10
2.10229
20
1.14094
11
2.09482
21
1.12958
0
LINE
8
BLACK
6
CONTINUOUS
10
2.09482
20
1.12958
11
2.0861
21
1.11915
0
LINE
8
BLACK
6
CONTINUOUS
10
2.0861
20
1.11915
11
2.07624
21
1.10979
0
LINE
8
BLACK
6
CONTINUOUS
10
2.07624
20
1.10979
11
2.06536
21
1.10162
0
LINE
8
BLACK
6
CONTINUOUS
10
2.06536
20
1.10162
11
2.05362
21
1.09476
0
LINE
8
BLACK
6
CONTINUOUS
10
2.05362
20
1.09476
11
2.04117
21
1.0893
0
LINE
8
BLACK
6
CONTINUOUS
10
2.04117
20
1.0893
11
2.02817
21
1.0853
0
LINE
8
BLACK
6
CONTINUOUS
10
2.02817
20
1.0853
11
2.0148
21
1.08282
0
LINE
8
BLACK
6
CONTINUOUS
10
2.0148
20
1.08282
11
2.00124
21
1.0819
0
LINE
8
BLACK
6
CONTINUOUS
10
2.00124
20
1.0819
11
1.98765
21
1.08254
0
LINE
8
BLACK
6
CONTINUOUS
10
1.98765
20
1.08254
11
1.97424
21
1.08473
0
LINE
8
BLACK
6
CONTINUOUS
10
1.97424
20
1.08473
11
1.96116
21
1.08846
0
LINE
8
BLACK
6
CONTINUOUS
10
1.96116
20
1.08846
11
1.94859
21
1.09366
0
LINE
8
BLACK
6
CONTINUOUS
10
1.94859
20
1.09366
11
1.93671
21
1.10028
0
LINE
8
BLACK
6
CONTINUOUS
10
1.93671
20
1.10028
11
1.92567
21
1.10821
0
LINE
8
BLACK
6
CONTINUOUS
10
1.92567
20
1.10821
11
1.91561
21
1.11736
0
LINE
8
BLACK
6
CONTINUOUS
10
1.91561
20
1.11736
11
1.90667
21
1.12761
0
LINE
8
BLACK
6
CONTINUOUS
10
1.90667
20
1.12761
11
1.89897
21
1.13882
0
LINE
8
BLACK
6
CONTINUOUS
10
1.89897
20
1.13882
11
1.89261
21
1.15083
0
LINE
8
BLACK
6
CONTINUOUS
10
1.89261
20
1.15083
11
1.88767
21
1.1635
0
LINE
8
BLACK
6
CONTINUOUS
10
1.88767
20
1.1635
11
1.88422
21
1.17665
0
LINE
8
BLACK
6
CONTINUOUS
10
1.88422
20
1.17665
11
1.8823
21
1.19012
0
LINE
8
BLACK
6
CONTINUOUS
10
1.8823
20
1.19012
11
1.88195
21
1.20371
0
LINE
8
BLACK
6
CONTINUOUS
10
1.88195
20
1.20371
11
1.88316
21
1.21725
0
LINE
8
BLACK
6
CONTINUOUS
10
1.88316
20
1.21725
11
1.88591
21
1.23057
0
LINE
8
BLACK
6
CONTINUOUS
10
1.88591
20
1.23057
11
1.89018
21
1.24348
0
LINE
8
BLACK
6
CONTINUOUS
10
1.89018
20
1.24348
11
1.89591
21
1.25581
0
LINE
8
BLACK
6
CONTINUOUS
10
1.89591
20
1.25581
11
1.90301
21
1.26741
0
LINE
8
BLACK
6
CONTINUOUS
10
1.90301
20
1.26741
11
1.9114
21
1.27811
0
LINE
8
BLACK
6
CONTINUOUS
10
1.9114
20
1.27811
11
1.92097
21
1.28777
0
LINE
8
BLACK
6
CONTINUOUS
10
1.92097
20
1.28777
11
1.93158
21
1.29627
0
LINE
8
BLACK
6
CONTINUOUS
10
1.93158
20
1.29627
11
1.9431
21
1.3035
0
LINE
8
BLACK
6
CONTINUOUS
10
1.9431
20
1.3035
11
1.95537
21
1.30935
0
LINE
8
BLACK
6
CONTINUOUS
10
1.95537
20
1.30935
11
1.96824
21
1.31376
0
LINE
8
BLACK
6
CONTINUOUS
10
1.96824
20
1.31376
11
1.98152
21
1.31666
0
LINE
8
BLACK
6
CONTINUOUS
10
1.98152
20
1.31666
11
1.99505
21
1.31801
0
LINE
8
BLACK
6
CONTINUOUS
10
1.99505
20
1.31801
11
2.00865
21
1.31779
0
LINE
8
BLACK
6
CONTINUOUS
10
0.0086502
20
1.31779
11
0.0221317
21
1.31602
0
LINE
8
BLACK
6
CONTINUOUS
10
0.0221317
20
1.31602
11
0.0353198
21
1.31271
0
LINE
8
BLACK
6
CONTINUOUS
10
0.0353198
20
1.31271
11
0.0480398
21
1.3079
0
LINE
8
BLACK
6
CONTINUOUS
10
0.0480398
20
1.3079
11
0.060123
21
1.30166
0
LINE
8
BLACK
6
CONTINUOUS
10
0.060123
20
1.30166
11
0.0714093
21
1.29408
0
LINE
8
BLACK
6
CONTINUOUS
10
0.0714093
20
1.29408
11
0.0817492
21
1.28525
0
LINE
8
BLACK
6
CONTINUOUS
10
0.0817492
20
1.28525
11
0.0910055
21
1.27529
0
LINE
8
BLACK
6
CONTINUOUS
10
0.0910055
20
1.27529
11
0.0990556
21
1.26433
0
LINE
8
BLACK
6
CONTINUOUS
10
0.0990556
20
1.26433
11
0.105793
21
1.25252
0
LINE
8
BLACK
6
CONTINUOUS
10
0.105793
20
1.25252
11
0.111128
21
1.24001
0
LINE
8
BLACK
6
CONTINUOUS
10
0.111128
20
1.24001
11
0.11499
21
1.22697
0
LINE
8
BLACK
6
CONTINUOUS
10
0.11499
20
1.22697
11
0.117327
21
1.21358
0
LINE
8
BLACK
6
CONTINUOUS
10
0.117327
20
1.21358
11
0.11811
21
1.2
0
LINE
8
BLACK
6
CONTINUOUS
10
0.11811
20
1.2
11
0.117877
21
1.19258
0
LINE
8
BLACK
6
CONTINUOUS
10
0.117877
20
1.19258
11
0.116244
21
1.17908
0
LINE
8
BLACK
6
CONTINUOUS
10
0.116244
20
1.17908
11
0.113069
21
1.16586
0
LINE
8
BLACK
6
CONTINUOUS
10
0.113069
20
1.16586
11
0.108396
21
1.15309
0
LINE
8
BLACK
6
CONTINUOUS
10
0.108396
20
1.15309
11
0.102286
21
1.14094
0
LINE
8
BLACK
6
CONTINUOUS
10
0.102286
20
1.14094
11
0.0948209
21
1.12958
0
LINE
8
BLACK
6
CONTINUOUS
10
0.0948209
20
1.12958
11
0.0860987
21
1.11915
0
LINE
8
BLACK
6
CONTINUOUS
10
0.0860987
20
1.11915
11
0.0762352
21
1.10979
0
LINE
8
BLACK
6
CONTINUOUS
10
0.0762352
20
1.10979
11
0.0653612
21
1.10162
0
LINE
8
BLACK
6
CONTINUOUS
10
0.0653612
20
1.10162
11
0.0536209
21
1.09476
0
LINE
8
BLACK
6
CONTINUOUS
10
0.0536209
20
1.09476
11
0.0411699
21
1.0893
0
LINE
8
BLACK
6
CONTINUOUS
10
0.0411699
20
1.0893
11
0.0281732
21
1.0853
0
LINE
8
BLACK
6
CONTINUOUS
10
0.0281732
20
1.0853
11
0.0148031
21
1.08282
0
LINE
8
BLACK
6
CONTINUOUS
10
0.0148031
20
1.08282
11
0.00123681
21
1.0819
0
LINE
8
BLACK
6
CONTINUOUS
10
0.00123681
20
1.0819
11
-0.0123459
21
1.08254
0
LINE
8
BLACK
6
CONTINUOUS
10
-0.0123459
20
1.08254
11
-0.025765
21
1.08473
0
LINE
8
BLACK
6
CONTINUOUS
10
-0.025765
20
1.08473
11
-0.0388425
21
1.08846
0
LINE
8
BLACK
6
CONTINUOUS
10
-0.0388425
20
1.08846
11
-0.0514052
21
1.09366
0
LINE
8
BLACK
6
CONTINUOUS
10
-0.0514052
20
1.09366
11
-0.0632866
21
1.10028
0
LINE
8
BLACK
6
CONTINUOUS
10
-0.0632866
20
1.10028
11
-0.0743292
21
1.10821
0
LINE
8
BLACK
6
CONTINUOUS
10
-0.0743292
20
1.10821
11
-0.0843865
21
1.11736
0
LINE
8
BLACK
6
CONTINUOUS
10
-0.0843865
20
1.11736
11
-0.0933254
21
1.12761
0
LINE
8
BLACK
6
CONTINUOUS
10
-0.0933254
20
1.12761
11
-0.101027
21
1.13882
0
LINE
8
BLACK
6
CONTINUOUS
10
-0.101027
20
1.13882
11
-0.10739
21
1.15083
0
LINE
8
BLACK
6
CONTINUOUS
10
-0.10739
20
1.15083
11
-0.11233
21
1.1635
0
LINE
8
BLACK
6
CONTINUOUS
10
-0.11233
20
1.1635
11
-0.11578
21
1.17665
0
LINE
8
BLACK
6
CONTINUOUS
10
-0.11578
20
1.17665
11
-0.117696
21
1.19012
0
LINE
8
BLACK
6
CONTINUOUS
10
-0.117696
20
1.19012
11
-0.118052
21
1.20371
0
LINE
8
BLACK
6
CONTINUOUS
10
-0.118052
20
1.20371
11
-0.116843
21
1.21725
0
LINE
8
BLACK
6
CONTINUOUS
10
-0.116843
20
1.21725
11
-0.114086
21
1.23057
0
LINE
8
BLACK
6
CONTINUOUS
10
-0.114086
20
1.23057
11
-0.109816
21
1.24348
0
LINE
8
BLACK
6
CONTINUOUS
10
-0.109816
20
1.24348
11
-0.104091
21
1.25581
0
LINE
8
BLACK
6
CONTINUOUS
10
-0.104091
20
1.25581
11
-0.0969861
21
1.26741
0
LINE
8
BLACK
6
CONTINUOUS
10
-0.0969861
20
1.26741
11
-0.0885958
21
1.27811
0
LINE
8
BLACK
6
CONTINUOUS
10
-0.0885958
20
1.27811
11
-0.0790312
21
1.28777
0
LINE
8
BLACK
6
CONTINUOUS
10
-0.0790312
20
1.28777
11
-0.0684191
21
1.29627
0
LINE
8
BLACK
6
CONTINUOUS
10
-0.0684191
20
1.29627
11
-0.0569
21
1.3035
0
LINE
8
BLACK
6
CONTINUOUS
10
-0.0569
20
1.3035
11
-0.0446269
21
1.30935
0
LINE
8
BLACK
6
CONTINUOUS
10
-0.0446269
20
1.30935
11
-0.0317622
21
1.31376
0
LINE
8
BLACK
6
CONTINUOUS
10
-0.0317622
20
1.31376
11
-0.0184765
21
1.31666
0
LINE
8
BLACK
6
CONTINUOUS
10
-0.0184765
20
1.31666
11
-0.00494594
21
1.31801
0
LINE
8
BLACK
6
CONTINUOUS
10
-0.00494594
20
1.31801
11
0.0086502
21
1.31779
  0
ENDSEC
  0
EOF
