  0
SECTION
  2
HEADER
  9
$ANGBASE
  50
0.0
  9
$ANGDIR
  70
1
  9
$MEASUREMENT
  70
0
  0
ENDSEC
  0
SECTION
  2
TABLES
  0
TABLE
  2
LTYPE
  70
4
  0
LTYPE
  5
40F
  2
CONTINUOUS
  70
0
  3
Solid line
  72
65
  73
0
  40
0.0
  0
LTYPE
  5
410
  2
DASHDOT
 70
0
  3
Dash Dot ____ _ ____ _
 72
65
 73
4
 40
2.0
 49
1.25
 49
-0.25
 49
0.25
 49
-0.25
  0
LTYPE
  5
411
  2
DASHED
 70
0
  3
Dashed __ __ __ __ __
 72
65
 73
2
 40
0.75
 49
0.5
 49
-0.25
  0
LTYPE
  5
43B
  2
DOTTED
 70
0
  3
Dotted .  .  .  .
 72
65
 73
2
 40
0.2
 49
0.0
 49
-0.2
  0
ENDTAB
  0
TABLE
  2
STYLE
  70
4
  0
STYLE
  2
KICAD
  70
0
  40
0
  41
1
  42
1
  50
0
  71
0
  3
isocp.shx
  0
STYLE
  2
KICADB
  70
0
  40
0
  41
1
  42
1
  50
0
  71
0
  3
isocp.shx
  0
STYLE
  2
KICADI
  70
0
  40
0
  41
1
  42
1
  50
15
  71
0
  3
isocp.shx
  0
STYLE
  2
KICADBI
  70
0
  40
0
  41
1
  42
1
  50
15
  71
0
  3
isocp.shx
  0
ENDTAB
  0
TABLE
  2
LAYER
  70
1
  0
LAYER
  2
BLACK
  70
0
  62
7
  6
CONTINUOUS
  0
ENDTAB
  0
ENDSEC
  0
SECTION
  2
ENTITIES
0
LINE
8
BLACK
6
CONTINUOUS
10
0.0140628
20
0.12481
11
0.0279486
21
0.122451
0
LINE
8
BLACK
6
CONTINUOUS
10
0.0279486
20
0.122451
11
0.041483
21
0.118552
0
LINE
8
BLACK
6
CONTINUOUS
10
0.041483
20
0.118552
11
0.0544958
21
0.113162
0
LINE
8
BLACK
6
CONTINUOUS
10
0.0544958
20
0.113162
11
0.0668232
21
0.106349
0
LINE
8
BLACK
6
CONTINUOUS
10
0.0668232
20
0.106349
11
0.0783103
21
0.098198
0
LINE
8
BLACK
6
CONTINUOUS
10
0.0783103
20
0.098198
11
0.0888126
21
0.0888126
0
LINE
8
BLACK
6
CONTINUOUS
10
0.0888126
20
0.0888126
11
0.098198
21
0.0783103
0
LINE
8
BLACK
6
CONTINUOUS
10
0.098198
20
0.0783103
11
0.106349
21
0.0668232
0
LINE
8
BLACK
6
CONTINUOUS
10
0.106349
20
0.0668232
11
0.113162
21
0.0544958
0
LINE
8
BLACK
6
CONTINUOUS
10
0.113162
20
0.0544958
11
0.118552
21
0.041483
0
LINE
8
BLACK
6
CONTINUOUS
10
0.118552
20
0.041483
11
0.122451
21
0.0279486
0
LINE
8
BLACK
6
CONTINUOUS
10
0.122451
20
0.0279486
11
0.12481
21
0.0140628
0
LINE
8
BLACK
6
CONTINUOUS
10
0.12481
20
0.0140628
11
0.1256
21
0
0
LINE
8
BLACK
6
CONTINUOUS
10
0.1256
20
0
11
0.12481
21
-0.0140628
0
LINE
8
BLACK
6
CONTINUOUS
10
0.12481
20
-0.0140628
11
0.122451
21
-0.0279486
0
LINE
8
BLACK
6
CONTINUOUS
10
0.122451
20
-0.0279486
11
0.118552
21
-0.041483
0
LINE
8
BLACK
6
CONTINUOUS
10
0.118552
20
-0.041483
11
0.113162
21
-0.0544958
0
LINE
8
BLACK
6
CONTINUOUS
10
0.113162
20
-0.0544958
11
0.106349
21
-0.0668232
0
LINE
8
BLACK
6
CONTINUOUS
10
0.106349
20
-0.0668232
11
0.098198
21
-0.0783103
0
LINE
8
BLACK
6
CONTINUOUS
10
0.098198
20
-0.0783103
11
0.0888126
21
-0.0888126
0
LINE
8
BLACK
6
CONTINUOUS
10
0.0888126
20
-0.0888126
11
0.0783103
21
-0.098198
0
LINE
8
BLACK
6
CONTINUOUS
10
0.0783103
20
-0.098198
11
0.0668232
21
-0.106349
0
LINE
8
BLACK
6
CONTINUOUS
10
0.0668232
20
-0.106349
11
0.0544958
21
-0.113162
0
LINE
8
BLACK
6
CONTINUOUS
10
0.0544958
20
-0.113162
11
0.041483
21
-0.118552
0
LINE
8
BLACK
6
CONTINUOUS
10
0.041483
20
-0.118552
11
0.0279486
21
-0.122451
0
LINE
8
BLACK
6
CONTINUOUS
10
0.0279486
20
-0.122451
11
0.0140628
21
-0.12481
0
LINE
8
BLACK
6
CONTINUOUS
10
0.0140628
20
-0.12481
11
0
21
-0.1256
0
LINE
8
BLACK
6
CONTINUOUS
10
0
20
-0.1256
11
-0.0140628
21
-0.12481
0
LINE
8
BLACK
6
CONTINUOUS
10
-0.0140628
20
-0.12481
11
-0.0279486
21
-0.122451
0
LINE
8
BLACK
6
CONTINUOUS
10
-0.0279486
20
-0.122451
11
-0.041483
21
-0.118552
0
LINE
8
BLACK
6
CONTINUOUS
10
-0.041483
20
-0.118552
11
-0.0544958
21
-0.113162
0
LINE
8
BLACK
6
CONTINUOUS
10
-0.0544958
20
-0.113162
11
-0.0668232
21
-0.106349
0
LINE
8
BLACK
6
CONTINUOUS
10
-0.0668232
20
-0.106349
11
-0.0783103
21
-0.098198
0
LINE
8
BLACK
6
CONTINUOUS
10
-0.0783103
20
-0.098198
11
-0.0888126
21
-0.0888126
0
LINE
8
BLACK
6
CONTINUOUS
10
-0.0888126
20
-0.0888126
11
-0.098198
21
-0.0783103
0
LINE
8
BLACK
6
CONTINUOUS
10
-0.098198
20
-0.0783103
11
-0.106349
21
-0.0668232
0
LINE
8
BLACK
6
CONTINUOUS
10
-0.106349
20
-0.0668232
11
-0.113162
21
-0.0544958
0
LINE
8
BLACK
6
CONTINUOUS
10
-0.113162
20
-0.0544958
11
-0.118552
21
-0.041483
0
LINE
8
BLACK
6
CONTINUOUS
10
-0.118552
20
-0.041483
11
-0.122451
21
-0.0279486
0
LINE
8
BLACK
6
CONTINUOUS
10
-0.122451
20
-0.0279486
11
-0.12481
21
-0.0140628
0
LINE
8
BLACK
6
CONTINUOUS
10
-0.12481
20
-0.0140628
11
-0.1256
21
0
0
LINE
8
BLACK
6
CONTINUOUS
10
-0.1256
20
0
11
-0.12481
21
0.0140628
0
LINE
8
BLACK
6
CONTINUOUS
10
-0.12481
20
0.0140628
11
-0.122451
21
0.0279486
0
LINE
8
BLACK
6
CONTINUOUS
10
-0.122451
20
0.0279486
11
-0.118552
21
0.041483
0
LINE
8
BLACK
6
CONTINUOUS
10
-0.118552
20
0.041483
11
-0.113162
21
0.0544958
0
LINE
8
BLACK
6
CONTINUOUS
10
-0.113162
20
0.0544958
11
-0.106349
21
0.0668232
0
LINE
8
BLACK
6
CONTINUOUS
10
-0.106349
20
0.0668232
11
-0.098198
21
0.0783103
0
LINE
8
BLACK
6
CONTINUOUS
10
-0.098198
20
0.0783103
11
-0.0888126
21
0.0888126
0
LINE
8
BLACK
6
CONTINUOUS
10
-0.0888126
20
0.0888126
11
-0.0783103
21
0.098198
0
LINE
8
BLACK
6
CONTINUOUS
10
-0.0783103
20
0.098198
11
-0.0668232
21
0.106349
0
LINE
8
BLACK
6
CONTINUOUS
10
-0.0668232
20
0.106349
11
-0.0544958
21
0.113162
0
LINE
8
BLACK
6
CONTINUOUS
10
-0.0544958
20
0.113162
11
-0.041483
21
0.118552
0
LINE
8
BLACK
6
CONTINUOUS
10
-0.041483
20
0.118552
11
-0.0279486
21
0.122451
0
LINE
8
BLACK
6
CONTINUOUS
10
-0.0279486
20
0.122451
11
-0.0140628
21
0.12481
0
LINE
8
BLACK
6
CONTINUOUS
10
-0.0140628
20
0.12481
11
0
21
0.1256
0
LINE
8
BLACK
6
CONTINUOUS
10
0
20
0.1256
11
0.0140628
21
0.12481
0
LINE
8
BLACK
6
CONTINUOUS
10
-0.110038
20
-0.0128617
11
-0.107801
21
-0.0255493
0
LINE
8
BLACK
6
CONTINUOUS
10
-0.107801
20
-0.0255493
11
-0.104106
21
-0.0378915
0
LINE
8
BLACK
6
CONTINUOUS
10
-0.104106
20
-0.0378915
11
-0.0990033
21
-0.0497213
0
LINE
8
BLACK
6
CONTINUOUS
10
-0.0990033
20
-0.0497213
11
-0.0925616
21
-0.0608787
0
LINE
8
BLACK
6
CONTINUOUS
10
-0.0925616
20
-0.0608787
11
-0.0848681
21
-0.0712128
0
LINE
8
BLACK
6
CONTINUOUS
10
-0.0848681
20
-0.0712128
11
-0.076027
21
-0.0805839
0
LINE
8
BLACK
6
CONTINUOUS
10
-0.076027
20
-0.0805839
11
-0.0661577
21
-0.0888652
0
LINE
8
BLACK
6
CONTINUOUS
10
-0.0661577
20
-0.0888652
11
-0.0553937
21
-0.0959447
0
LINE
8
BLACK
6
CONTINUOUS
10
-0.0553937
20
-0.0959447
11
-0.0438807
21
-0.101727
0
LINE
8
BLACK
6
CONTINUOUS
10
-0.0438807
20
-0.101727
11
-0.0317742
21
-0.106133
0
LINE
8
BLACK
6
CONTINUOUS
10
-0.0317742
20
-0.106133
11
-0.019238
21
-0.109104
0
LINE
8
BLACK
6
CONTINUOUS
10
-0.019238
20
-0.109104
11
-0.00644173
21
-0.1106
0
LINE
8
BLACK
6
CONTINUOUS
10
-0.00644173
20
-0.1106
11
0.00644173
21
-0.1106
0
LINE
8
BLACK
6
CONTINUOUS
10
0.00644173
20
-0.1106
11
0.019238
21
-0.109104
0
LINE
8
BLACK
6
CONTINUOUS
10
0.019238
20
-0.109104
11
0.0317742
21
-0.106133
0
LINE
8
BLACK
6
CONTINUOUS
10
0.0317742
20
-0.106133
11
0.0438807
21
-0.101727
0
LINE
8
BLACK
6
CONTINUOUS
10
0.0438807
20
-0.101727
11
0.0553937
21
-0.0959447
0
LINE
8
BLACK
6
CONTINUOUS
10
0.0553937
20
-0.0959447
11
0.0661577
21
-0.0888652
0
LINE
8
BLACK
6
CONTINUOUS
10
0.0661577
20
-0.0888652
11
0.076027
21
-0.0805839
0
LINE
8
BLACK
6
CONTINUOUS
10
0.076027
20
-0.0805839
11
0.0848681
21
-0.0712128
0
LINE
8
BLACK
6
CONTINUOUS
10
0.0848681
20
-0.0712128
11
0.0925616
21
-0.0608787
0
LINE
8
BLACK
6
CONTINUOUS
10
0.0925616
20
-0.0608787
11
0.0990033
21
-0.0497213
0
LINE
8
BLACK
6
CONTINUOUS
10
0.0990033
20
-0.0497213
11
0.104106
21
-0.0378915
0
LINE
8
BLACK
6
CONTINUOUS
10
0.104106
20
-0.0378915
11
0.107801
21
-0.0255493
0
LINE
8
BLACK
6
CONTINUOUS
10
0.107801
20
-0.0255493
11
0.110038
21
-0.0128617
0
LINE
8
BLACK
6
CONTINUOUS
10
0.110038
20
-0.0128617
11
0.110787
21
0
0
LINE
8
BLACK
6
CONTINUOUS
10
0.110787
20
0
11
0.110038
21
0.0128617
0
LINE
8
BLACK
6
CONTINUOUS
10
0.110038
20
0.0128617
11
0.107801
21
0.0255493
0
LINE
8
BLACK
6
CONTINUOUS
10
0.107801
20
0.0255493
11
0.104106
21
0.0378915
0
LINE
8
BLACK
6
CONTINUOUS
10
0.104106
20
0.0378915
11
0.0990033
21
0.0497213
0
LINE
8
BLACK
6
CONTINUOUS
10
0.0990033
20
0.0497213
11
0.0925616
21
0.0608787
0
LINE
8
BLACK
6
CONTINUOUS
10
0.0925616
20
0.0608787
11
0.0848681
21
0.0712128
0
LINE
8
BLACK
6
CONTINUOUS
10
0.0848681
20
0.0712128
11
0.076027
21
0.0805839
0
LINE
8
BLACK
6
CONTINUOUS
10
0.076027
20
0.0805839
11
0.0661577
21
0.0888652
0
LINE
8
BLACK
6
CONTINUOUS
10
0.0661577
20
0.0888652
11
0.0553937
21
0.0959447
0
LINE
8
BLACK
6
CONTINUOUS
10
0.0553937
20
0.0959447
11
0.0438807
21
0.101727
0
LINE
8
BLACK
6
CONTINUOUS
10
0.0438807
20
0.101727
11
0.0317742
21
0.106133
0
LINE
8
BLACK
6
CONTINUOUS
10
0.0317742
20
0.106133
11
0.019238
21
0.109104
0
LINE
8
BLACK
6
CONTINUOUS
10
0.019238
20
0.109104
11
0.00644173
21
0.1106
0
LINE
8
BLACK
6
CONTINUOUS
10
0.00644173
20
0.1106
11
-0.00644173
21
0.1106
0
LINE
8
BLACK
6
CONTINUOUS
10
-0.00644173
20
0.1106
11
-0.019238
21
0.109104
0
LINE
8
BLACK
6
CONTINUOUS
10
-0.019238
20
0.109104
11
-0.0317742
21
0.106133
0
LINE
8
BLACK
6
CONTINUOUS
10
-0.0317742
20
0.106133
11
-0.0438807
21
0.101727
0
LINE
8
BLACK
6
CONTINUOUS
10
-0.0438807
20
0.101727
11
-0.0553937
21
0.0959447
0
LINE
8
BLACK
6
CONTINUOUS
10
-0.0553937
20
0.0959447
11
-0.0661577
21
0.0888652
0
LINE
8
BLACK
6
CONTINUOUS
10
-0.0661577
20
0.0888652
11
-0.076027
21
0.0805839
0
LINE
8
BLACK
6
CONTINUOUS
10
-0.076027
20
0.0805839
11
-0.0848681
21
0.0712128
0
LINE
8
BLACK
6
CONTINUOUS
10
-0.0848681
20
0.0712128
11
-0.0925616
21
0.0608787
0
LINE
8
BLACK
6
CONTINUOUS
10
-0.0925616
20
0.0608787
11
-0.0990033
21
0.0497213
0
LINE
8
BLACK
6
CONTINUOUS
10
-0.0990033
20
0.0497213
11
-0.104106
21
0.0378915
0
LINE
8
BLACK
6
CONTINUOUS
10
-0.104106
20
0.0378915
11
-0.107801
21
0.0255493
0
LINE
8
BLACK
6
CONTINUOUS
10
-0.107801
20
0.0255493
11
-0.110038
21
0.0128617
0
LINE
8
BLACK
6
CONTINUOUS
10
-0.110038
20
0.0128617
11
-0.110787
21
0
0
LINE
8
BLACK
6
CONTINUOUS
10
-0.110787
20
0
11
-0.110038
21
-0.0128617
0
LINE
8
BLACK
6
CONTINUOUS
10
2.01406
20
0.12481
11
2.02795
21
0.122451
0
LINE
8
BLACK
6
CONTINUOUS
10
2.02795
20
0.122451
11
2.04148
21
0.118552
0
LINE
8
BLACK
6
CONTINUOUS
10
2.04148
20
0.118552
11
2.0545
21
0.113162
0
LINE
8
BLACK
6
CONTINUOUS
10
2.0545
20
0.113162
11
2.06682
21
0.106349
0
LINE
8
BLACK
6
CONTINUOUS
10
2.06682
20
0.106349
11
2.07831
21
0.098198
0
LINE
8
BLACK
6
CONTINUOUS
10
2.07831
20
0.098198
11
2.08881
21
0.0888126
0
LINE
8
BLACK
6
CONTINUOUS
10
2.08881
20
0.0888126
11
2.0982
21
0.0783103
0
LINE
8
BLACK
6
CONTINUOUS
10
2.0982
20
0.0783103
11
2.10635
21
0.0668232
0
LINE
8
BLACK
6
CONTINUOUS
10
2.10635
20
0.0668232
11
2.11316
21
0.0544958
0
LINE
8
BLACK
6
CONTINUOUS
10
2.11316
20
0.0544958
11
2.11855
21
0.041483
0
LINE
8
BLACK
6
CONTINUOUS
10
2.11855
20
0.041483
11
2.12245
21
0.0279486
0
LINE
8
BLACK
6
CONTINUOUS
10
2.12245
20
0.0279486
11
2.12481
21
0.0140628
0
LINE
8
BLACK
6
CONTINUOUS
10
2.12481
20
0.0140628
11
2.1256
21
0
0
LINE
8
BLACK
6
CONTINUOUS
10
2.1256
20
0
11
2.12481
21
-0.0140628
0
LINE
8
BLACK
6
CONTINUOUS
10
2.12481
20
-0.0140628
11
2.12245
21
-0.0279486
0
LINE
8
BLACK
6
CONTINUOUS
10
2.12245
20
-0.0279486
11
2.11855
21
-0.041483
0
LINE
8
BLACK
6
CONTINUOUS
10
2.11855
20
-0.041483
11
2.11316
21
-0.0544958
0
LINE
8
BLACK
6
CONTINUOUS
10
2.11316
20
-0.0544958
11
2.10635
21
-0.0668232
0
LINE
8
BLACK
6
CONTINUOUS
10
2.10635
20
-0.0668232
11
2.0982
21
-0.0783103
0
LINE
8
BLACK
6
CONTINUOUS
10
2.0982
20
-0.0783103
11
2.08881
21
-0.0888126
0
LINE
8
BLACK
6
CONTINUOUS
10
2.08881
20
-0.0888126
11
2.07831
21
-0.098198
0
LINE
8
BLACK
6
CONTINUOUS
10
2.07831
20
-0.098198
11
2.06682
21
-0.106349
0
LINE
8
BLACK
6
CONTINUOUS
10
2.06682
20
-0.106349
11
2.0545
21
-0.113162
0
LINE
8
BLACK
6
CONTINUOUS
10
2.0545
20
-0.113162
11
2.04148
21
-0.118552
0
LINE
8
BLACK
6
CONTINUOUS
10
2.04148
20
-0.118552
11
2.02795
21
-0.122451
0
LINE
8
BLACK
6
CONTINUOUS
10
2.02795
20
-0.122451
11
2.01406
21
-0.12481
0
LINE
8
BLACK
6
CONTINUOUS
10
2.01406
20
-0.12481
11
2
21
-0.1256
0
LINE
8
BLACK
6
CONTINUOUS
10
2
20
-0.1256
11
1.98594
21
-0.12481
0
LINE
8
BLACK
6
CONTINUOUS
10
1.98594
20
-0.12481
11
1.97205
21
-0.122451
0
LINE
8
BLACK
6
CONTINUOUS
10
1.97205
20
-0.122451
11
1.95852
21
-0.118552
0
LINE
8
BLACK
6
CONTINUOUS
10
1.95852
20
-0.118552
11
1.9455
21
-0.113162
0
LINE
8
BLACK
6
CONTINUOUS
10
1.9455
20
-0.113162
11
1.93318
21
-0.106349
0
LINE
8
BLACK
6
CONTINUOUS
10
1.93318
20
-0.106349
11
1.92169
21
-0.098198
0
LINE
8
BLACK
6
CONTINUOUS
10
1.92169
20
-0.098198
11
1.91119
21
-0.0888126
0
LINE
8
BLACK
6
CONTINUOUS
10
1.91119
20
-0.0888126
11
1.9018
21
-0.0783103
0
LINE
8
BLACK
6
CONTINUOUS
10
1.9018
20
-0.0783103
11
1.89365
21
-0.0668232
0
LINE
8
BLACK
6
CONTINUOUS
10
1.89365
20
-0.0668232
11
1.88684
21
-0.0544958
0
LINE
8
BLACK
6
CONTINUOUS
10
1.88684
20
-0.0544958
11
1.88145
21
-0.041483
0
LINE
8
BLACK
6
CONTINUOUS
10
1.88145
20
-0.041483
11
1.87755
21
-0.0279486
0
LINE
8
BLACK
6
CONTINUOUS
10
1.87755
20
-0.0279486
11
1.87519
21
-0.0140628
0
LINE
8
BLACK
6
CONTINUOUS
10
1.87519
20
-0.0140628
11
1.8744
21
0
0
LINE
8
BLACK
6
CONTINUOUS
10
1.8744
20
0
11
1.87519
21
0.0140628
0
LINE
8
BLACK
6
CONTINUOUS
10
1.87519
20
0.0140628
11
1.87755
21
0.0279486
0
LINE
8
BLACK
6
CONTINUOUS
10
1.87755
20
0.0279486
11
1.88145
21
0.041483
0
LINE
8
BLACK
6
CONTINUOUS
10
1.88145
20
0.041483
11
1.88684
21
0.0544958
0
LINE
8
BLACK
6
CONTINUOUS
10
1.88684
20
0.0544958
11
1.89365
21
0.0668232
0
LINE
8
BLACK
6
CONTINUOUS
10
1.89365
20
0.0668232
11
1.9018
21
0.0783103
0
LINE
8
BLACK
6
CONTINUOUS
10
1.9018
20
0.0783103
11
1.91119
21
0.0888126
0
LINE
8
BLACK
6
CONTINUOUS
10
1.91119
20
0.0888126
11
1.92169
21
0.098198
0
LINE
8
BLACK
6
CONTINUOUS
10
1.92169
20
0.098198
11
1.93318
21
0.106349
0
LINE
8
BLACK
6
CONTINUOUS
10
1.93318
20
0.106349
11
1.9455
21
0.113162
0
LINE
8
BLACK
6
CONTINUOUS
10
1.9455
20
0.113162
11
1.95852
21
0.118552
0
LINE
8
BLACK
6
CONTINUOUS
10
1.95852
20
0.118552
11
1.97205
21
0.122451
0
LINE
8
BLACK
6
CONTINUOUS
10
1.97205
20
0.122451
11
1.98594
21
0.12481
0
LINE
8
BLACK
6
CONTINUOUS
10
1.98594
20
0.12481
11
2
21
0.1256
0
LINE
8
BLACK
6
CONTINUOUS
10
2
20
0.1256
11
2.01406
21
0.12481
0
LINE
8
BLACK
6
CONTINUOUS
10
1.88996
20
-0.0128617
11
1.8922
21
-0.0255493
0
LINE
8
BLACK
6
CONTINUOUS
10
1.8922
20
-0.0255493
11
1.89589
21
-0.0378915
0
LINE
8
BLACK
6
CONTINUOUS
10
1.89589
20
-0.0378915
11
1.901
21
-0.0497213
0
LINE
8
BLACK
6
CONTINUOUS
10
1.901
20
-0.0497213
11
1.90744
21
-0.0608787
0
LINE
8
BLACK
6
CONTINUOUS
10
1.90744
20
-0.0608787
11
1.91513
21
-0.0712128
0
LINE
8
BLACK
6
CONTINUOUS
10
1.91513
20
-0.0712128
11
1.92397
21
-0.0805839
0
LINE
8
BLACK
6
CONTINUOUS
10
1.92397
20
-0.0805839
11
1.93384
21
-0.0888652
0
LINE
8
BLACK
6
CONTINUOUS
10
1.93384
20
-0.0888652
11
1.94461
21
-0.0959447
0
LINE
8
BLACK
6
CONTINUOUS
10
1.94461
20
-0.0959447
11
1.95612
21
-0.101727
0
LINE
8
BLACK
6
CONTINUOUS
10
1.95612
20
-0.101727
11
1.96823
21
-0.106133
0
LINE
8
BLACK
6
CONTINUOUS
10
1.96823
20
-0.106133
11
1.98076
21
-0.109104
0
LINE
8
BLACK
6
CONTINUOUS
10
1.98076
20
-0.109104
11
1.99356
21
-0.1106
0
LINE
8
BLACK
6
CONTINUOUS
10
1.99356
20
-0.1106
11
2.00644
21
-0.1106
0
LINE
8
BLACK
6
CONTINUOUS
10
2.00644
20
-0.1106
11
2.01924
21
-0.109104
0
LINE
8
BLACK
6
CONTINUOUS
10
2.01924
20
-0.109104
11
2.03177
21
-0.106133
0
LINE
8
BLACK
6
CONTINUOUS
10
2.03177
20
-0.106133
11
2.04388
21
-0.101727
0
LINE
8
BLACK
6
CONTINUOUS
10
2.04388
20
-0.101727
11
2.05539
21
-0.0959447
0
LINE
8
BLACK
6
CONTINUOUS
10
2.05539
20
-0.0959447
11
2.06616
21
-0.0888652
0
LINE
8
BLACK
6
CONTINUOUS
10
2.06616
20
-0.0888652
11
2.07603
21
-0.0805839
0
LINE
8
BLACK
6
CONTINUOUS
10
2.07603
20
-0.0805839
11
2.08487
21
-0.0712128
0
LINE
8
BLACK
6
CONTINUOUS
10
2.08487
20
-0.0712128
11
2.09256
21
-0.0608787
0
LINE
8
BLACK
6
CONTINUOUS
10
2.09256
20
-0.0608787
11
2.099
21
-0.0497213
0
LINE
8
BLACK
6
CONTINUOUS
10
2.099
20
-0.0497213
11
2.10411
21
-0.0378915
0
LINE
8
BLACK
6
CONTINUOUS
10
2.10411
20
-0.0378915
11
2.1078
21
-0.0255493
0
LINE
8
BLACK
6
CONTINUOUS
10
2.1078
20
-0.0255493
11
2.11004
21
-0.0128617
0
LINE
8
BLACK
6
CONTINUOUS
10
2.11004
20
-0.0128617
11
2.11079
21
0
0
LINE
8
BLACK
6
CONTINUOUS
10
2.11079
20
0
11
2.11004
21
0.0128617
0
LINE
8
BLACK
6
CONTINUOUS
10
2.11004
20
0.0128617
11
2.1078
21
0.0255493
0
LINE
8
BLACK
6
CONTINUOUS
10
2.1078
20
0.0255493
11
2.10411
21
0.0378915
0
LINE
8
BLACK
6
CONTINUOUS
10
2.10411
20
0.0378915
11
2.099
21
0.0497213
0
LINE
8
BLACK
6
CONTINUOUS
10
2.099
20
0.0497213
11
2.09256
21
0.0608787
0
LINE
8
BLACK
6
CONTINUOUS
10
2.09256
20
0.0608787
11
2.08487
21
0.0712128
0
LINE
8
BLACK
6
CONTINUOUS
10
2.08487
20
0.0712128
11
2.07603
21
0.0805839
0
LINE
8
BLACK
6
CONTINUOUS
10
2.07603
20
0.0805839
11
2.06616
21
0.0888652
0
LINE
8
BLACK
6
CONTINUOUS
10
2.06616
20
0.0888652
11
2.05539
21
0.0959447
0
LINE
8
BLACK
6
CONTINUOUS
10
2.05539
20
0.0959447
11
2.04388
21
0.101727
0
LINE
8
BLACK
6
CONTINUOUS
10
2.04388
20
0.101727
11
2.03177
21
0.106133
0
LINE
8
BLACK
6
CONTINUOUS
10
2.03177
20
0.106133
11
2.01924
21
0.109104
0
LINE
8
BLACK
6
CONTINUOUS
10
2.01924
20
0.109104
11
2.00644
21
0.1106
0
LINE
8
BLACK
6
CONTINUOUS
10
2.00644
20
0.1106
11
1.99356
21
0.1106
0
LINE
8
BLACK
6
CONTINUOUS
10
1.99356
20
0.1106
11
1.98076
21
0.109104
0
LINE
8
BLACK
6
CONTINUOUS
10
1.98076
20
0.109104
11
1.96823
21
0.106133
0
LINE
8
BLACK
6
CONTINUOUS
10
1.96823
20
0.106133
11
1.95612
21
0.101727
0
LINE
8
BLACK
6
CONTINUOUS
10
1.95612
20
0.101727
11
1.94461
21
0.0959447
0
LINE
8
BLACK
6
CONTINUOUS
10
1.94461
20
0.0959447
11
1.93384
21
0.0888652
0
LINE
8
BLACK
6
CONTINUOUS
10
1.93384
20
0.0888652
11
1.92397
21
0.0805839
0
LINE
8
BLACK
6
CONTINUOUS
10
1.92397
20
0.0805839
11
1.91513
21
0.0712128
0
LINE
8
BLACK
6
CONTINUOUS
10
1.91513
20
0.0712128
11
1.90744
21
0.0608787
0
LINE
8
BLACK
6
CONTINUOUS
10
1.90744
20
0.0608787
11
1.901
21
0.0497213
0
LINE
8
BLACK
6
CONTINUOUS
10
1.901
20
0.0497213
11
1.89589
21
0.0378915
0
LINE
8
BLACK
6
CONTINUOUS
10
1.89589
20
0.0378915
11
1.8922
21
0.0255493
0
LINE
8
BLACK
6
CONTINUOUS
10
1.8922
20
0.0255493
11
1.88996
21
0.0128617
0
LINE
8
BLACK
6
CONTINUOUS
10
1.88996
20
0.0128617
11
1.88921
21
0
0
LINE
8
BLACK
6
CONTINUOUS
10
1.88921
20
0
11
1.88996
21
-0.0128617
0
LINE
8
BLACK
6
CONTINUOUS
10
0.0140628
20
1.32481
11
0.0279486
21
1.32245
0
LINE
8
BLACK
6
CONTINUOUS
10
0.0279486
20
1.32245
11
0.041483
21
1.31855
0
LINE
8
BLACK
6
CONTINUOUS
10
0.041483
20
1.31855
11
0.0544958
21
1.31316
0
LINE
8
BLACK
6
CONTINUOUS
10
0.0544958
20
1.31316
11
0.0668232
21
1.30635
0
LINE
8
BLACK
6
CONTINUOUS
10
0.0668232
20
1.30635
11
0.0783103
21
1.2982
0
LINE
8
BLACK
6
CONTINUOUS
10
0.0783103
20
1.2982
11
0.0888126
21
1.28881
0
LINE
8
BLACK
6
CONTINUOUS
10
0.0888126
20
1.28881
11
0.098198
21
1.27831
0
LINE
8
BLACK
6
CONTINUOUS
10
0.098198
20
1.27831
11
0.106349
21
1.26682
0
LINE
8
BLACK
6
CONTINUOUS
10
0.106349
20
1.26682
11
0.113162
21
1.2545
0
LINE
8
BLACK
6
CONTINUOUS
10
0.113162
20
1.2545
11
0.118552
21
1.24148
0
LINE
8
BLACK
6
CONTINUOUS
10
0.118552
20
1.24148
11
0.122451
21
1.22795
0
LINE
8
BLACK
6
CONTINUOUS
10
0.122451
20
1.22795
11
0.12481
21
1.21406
0
LINE
8
BLACK
6
CONTINUOUS
10
0.12481
20
1.21406
11
0.1256
21
1.2
0
LINE
8
BLACK
6
CONTINUOUS
10
0.1256
20
1.2
11
0.12481
21
1.18594
0
LINE
8
BLACK
6
CONTINUOUS
10
0.12481
20
1.18594
11
0.122451
21
1.17205
0
LINE
8
BLACK
6
CONTINUOUS
10
0.122451
20
1.17205
11
0.118552
21
1.15852
0
LINE
8
BLACK
6
CONTINUOUS
10
0.118552
20
1.15852
11
0.113162
21
1.1455
0
LINE
8
BLACK
6
CONTINUOUS
10
0.113162
20
1.1455
11
0.106349
21
1.13318
0
LINE
8
BLACK
6
CONTINUOUS
10
0.106349
20
1.13318
11
0.098198
21
1.12169
0
LINE
8
BLACK
6
CONTINUOUS
10
0.098198
20
1.12169
11
0.0888126
21
1.11119
0
LINE
8
BLACK
6
CONTINUOUS
10
0.0888126
20
1.11119
11
0.0783103
21
1.1018
0
LINE
8
BLACK
6
CONTINUOUS
10
0.0783103
20
1.1018
11
0.0668232
21
1.09365
0
LINE
8
BLACK
6
CONTINUOUS
10
0.0668232
20
1.09365
11
0.0544958
21
1.08684
0
LINE
8
BLACK
6
CONTINUOUS
10
0.0544958
20
1.08684
11
0.041483
21
1.08145
0
LINE
8
BLACK
6
CONTINUOUS
10
0.041483
20
1.08145
11
0.0279486
21
1.07755
0
LINE
8
BLACK
6
CONTINUOUS
10
0.0279486
20
1.07755
11
0.0140628
21
1.07519
0
LINE
8
BLACK
6
CONTINUOUS
10
0.0140628
20
1.07519
11
0
21
1.0744
0
LINE
8
BLACK
6
CONTINUOUS
10
0
20
1.0744
11
-0.0140628
21
1.07519
0
LINE
8
BLACK
6
CONTINUOUS
10
-0.0140628
20
1.07519
11
-0.0279486
21
1.07755
0
LINE
8
BLACK
6
CONTINUOUS
10
-0.0279486
20
1.07755
11
-0.041483
21
1.08145
0
LINE
8
BLACK
6
CONTINUOUS
10
-0.041483
20
1.08145
11
-0.0544958
21
1.08684
0
LINE
8
BLACK
6
CONTINUOUS
10
-0.0544958
20
1.08684
11
-0.0668232
21
1.09365
0
LINE
8
BLACK
6
CONTINUOUS
10
-0.0668232
20
1.09365
11
-0.0783103
21
1.1018
0
LINE
8
BLACK
6
CONTINUOUS
10
-0.0783103
20
1.1018
11
-0.0888126
21
1.11119
0
LINE
8
BLACK
6
CONTINUOUS
10
-0.0888126
20
1.11119
11
-0.098198
21
1.12169
0
LINE
8
BLACK
6
CONTINUOUS
10
-0.098198
20
1.12169
11
-0.106349
21
1.13318
0
LINE
8
BLACK
6
CONTINUOUS
10
-0.106349
20
1.13318
11
-0.113162
21
1.1455
0
LINE
8
BLACK
6
CONTINUOUS
10
-0.113162
20
1.1455
11
-0.118552
21
1.15852
0
LINE
8
BLACK
6
CONTINUOUS
10
-0.118552
20
1.15852
11
-0.122451
21
1.17205
0
LINE
8
BLACK
6
CONTINUOUS
10
-0.122451
20
1.17205
11
-0.12481
21
1.18594
0
LINE
8
BLACK
6
CONTINUOUS
10
-0.12481
20
1.18594
11
-0.1256
21
1.2
0
LINE
8
BLACK
6
CONTINUOUS
10
-0.1256
20
1.2
11
-0.12481
21
1.21406
0
LINE
8
BLACK
6
CONTINUOUS
10
-0.12481
20
1.21406
11
-0.122451
21
1.22795
0
LINE
8
BLACK
6
CONTINUOUS
10
-0.122451
20
1.22795
11
-0.118552
21
1.24148
0
LINE
8
BLACK
6
CONTINUOUS
10
-0.118552
20
1.24148
11
-0.113162
21
1.2545
0
LINE
8
BLACK
6
CONTINUOUS
10
-0.113162
20
1.2545
11
-0.106349
21
1.26682
0
LINE
8
BLACK
6
CONTINUOUS
10
-0.106349
20
1.26682
11
-0.098198
21
1.27831
0
LINE
8
BLACK
6
CONTINUOUS
10
-0.098198
20
1.27831
11
-0.0888126
21
1.28881
0
LINE
8
BLACK
6
CONTINUOUS
10
-0.0888126
20
1.28881
11
-0.0783103
21
1.2982
0
LINE
8
BLACK
6
CONTINUOUS
10
-0.0783103
20
1.2982
11
-0.0668232
21
1.30635
0
LINE
8
BLACK
6
CONTINUOUS
10
-0.0668232
20
1.30635
11
-0.0544958
21
1.31316
0
LINE
8
BLACK
6
CONTINUOUS
10
-0.0544958
20
1.31316
11
-0.041483
21
1.31855
0
LINE
8
BLACK
6
CONTINUOUS
10
-0.041483
20
1.31855
11
-0.0279486
21
1.32245
0
LINE
8
BLACK
6
CONTINUOUS
10
-0.0279486
20
1.32245
11
-0.0140628
21
1.32481
0
LINE
8
BLACK
6
CONTINUOUS
10
-0.0140628
20
1.32481
11
0
21
1.3256
0
LINE
8
BLACK
6
CONTINUOUS
10
0
20
1.3256
11
0.0140628
21
1.32481
0
LINE
8
BLACK
6
CONTINUOUS
10
-0.110038
20
1.18714
11
-0.107801
21
1.17445
0
LINE
8
BLACK
6
CONTINUOUS
10
-0.107801
20
1.17445
11
-0.104106
21
1.16211
0
LINE
8
BLACK
6
CONTINUOUS
10
-0.104106
20
1.16211
11
-0.0990033
21
1.15028
0
LINE
8
BLACK
6
CONTINUOUS
10
-0.0990033
20
1.15028
11
-0.0925616
21
1.13912
0
LINE
8
BLACK
6
CONTINUOUS
10
-0.0925616
20
1.13912
11
-0.0848681
21
1.12879
0
LINE
8
BLACK
6
CONTINUOUS
10
-0.0848681
20
1.12879
11
-0.076027
21
1.11942
0
LINE
8
BLACK
6
CONTINUOUS
10
-0.076027
20
1.11942
11
-0.0661577
21
1.11113
0
LINE
8
BLACK
6
CONTINUOUS
10
-0.0661577
20
1.11113
11
-0.0553937
21
1.10406
0
LINE
8
BLACK
6
CONTINUOUS
10
-0.0553937
20
1.10406
11
-0.0438807
21
1.09827
0
LINE
8
BLACK
6
CONTINUOUS
10
-0.0438807
20
1.09827
11
-0.0317742
21
1.09387
0
LINE
8
BLACK
6
CONTINUOUS
10
-0.0317742
20
1.09387
11
-0.019238
21
1.0909
0
LINE
8
BLACK
6
CONTINUOUS
10
-0.019238
20
1.0909
11
-0.00644173
21
1.0894
0
LINE
8
BLACK
6
CONTINUOUS
10
-0.00644173
20
1.0894
11
0.00644173
21
1.0894
0
LINE
8
BLACK
6
CONTINUOUS
10
0.00644173
20
1.0894
11
0.019238
21
1.0909
0
LINE
8
BLACK
6
CONTINUOUS
10
0.019238
20
1.0909
11
0.0317742
21
1.09387
0
LINE
8
BLACK
6
CONTINUOUS
10
0.0317742
20
1.09387
11
0.0438807
21
1.09827
0
LINE
8
BLACK
6
CONTINUOUS
10
0.0438807
20
1.09827
11
0.0553937
21
1.10406
0
LINE
8
BLACK
6
CONTINUOUS
10
0.0553937
20
1.10406
11
0.0661577
21
1.11113
0
LINE
8
BLACK
6
CONTINUOUS
10
0.0661577
20
1.11113
11
0.076027
21
1.11942
0
LINE
8
BLACK
6
CONTINUOUS
10
0.076027
20
1.11942
11
0.0848681
21
1.12879
0
LINE
8
BLACK
6
CONTINUOUS
10
0.0848681
20
1.12879
11
0.0925616
21
1.13912
0
LINE
8
BLACK
6
CONTINUOUS
10
0.0925616
20
1.13912
11
0.0990033
21
1.15028
0
LINE
8
BLACK
6
CONTINUOUS
10
0.0990033
20
1.15028
11
0.104106
21
1.16211
0
LINE
8
BLACK
6
CONTINUOUS
10
0.104106
20
1.16211
11
0.107801
21
1.17445
0
LINE
8
BLACK
6
CONTINUOUS
10
0.107801
20
1.17445
11
0.110038
21
1.18714
0
LINE
8
BLACK
6
CONTINUOUS
10
0.110038
20
1.18714
11
0.110787
21
1.2
0
LINE
8
BLACK
6
CONTINUOUS
10
0.110787
20
1.2
11
0.110038
21
1.21286
0
LINE
8
BLACK
6
CONTINUOUS
10
0.110038
20
1.21286
11
0.107801
21
1.22555
0
LINE
8
BLACK
6
CONTINUOUS
10
0.107801
20
1.22555
11
0.104106
21
1.23789
0
LINE
8
BLACK
6
CONTINUOUS
10
0.104106
20
1.23789
11
0.0990033
21
1.24972
0
LINE
8
BLACK
6
CONTINUOUS
10
0.0990033
20
1.24972
11
0.0925616
21
1.26088
0
LINE
8
BLACK
6
CONTINUOUS
10
0.0925616
20
1.26088
11
0.0848681
21
1.27121
0
LINE
8
BLACK
6
CONTINUOUS
10
0.0848681
20
1.27121
11
0.076027
21
1.28058
0
LINE
8
BLACK
6
CONTINUOUS
10
0.076027
20
1.28058
11
0.0661577
21
1.28887
0
LINE
8
BLACK
6
CONTINUOUS
10
0.0661577
20
1.28887
11
0.0553937
21
1.29594
0
LINE
8
BLACK
6
CONTINUOUS
10
0.0553937
20
1.29594
11
0.0438807
21
1.30173
0
LINE
8
BLACK
6
CONTINUOUS
10
0.0438807
20
1.30173
11
0.0317742
21
1.30613
0
LINE
8
BLACK
6
CONTINUOUS
10
0.0317742
20
1.30613
11
0.019238
21
1.3091
0
LINE
8
BLACK
6
CONTINUOUS
10
0.019238
20
1.3091
11
0.00644173
21
1.3106
0
LINE
8
BLACK
6
CONTINUOUS
10
0.00644173
20
1.3106
11
-0.00644173
21
1.3106
0
LINE
8
BLACK
6
CONTINUOUS
10
-0.00644173
20
1.3106
11
-0.019238
21
1.3091
0
LINE
8
BLACK
6
CONTINUOUS
10
-0.019238
20
1.3091
11
-0.0317742
21
1.30613
0
LINE
8
BLACK
6
CONTINUOUS
10
-0.0317742
20
1.30613
11
-0.0438807
21
1.30173
0
LINE
8
BLACK
6
CONTINUOUS
10
-0.0438807
20
1.30173
11
-0.0553937
21
1.29594
0
LINE
8
BLACK
6
CONTINUOUS
10
-0.0553937
20
1.29594
11
-0.0661577
21
1.28887
0
LINE
8
BLACK
6
CONTINUOUS
10
-0.0661577
20
1.28887
11
-0.076027
21
1.28058
0
LINE
8
BLACK
6
CONTINUOUS
10
-0.076027
20
1.28058
11
-0.0848681
21
1.27121
0
LINE
8
BLACK
6
CONTINUOUS
10
-0.0848681
20
1.27121
11
-0.0925616
21
1.26088
0
LINE
8
BLACK
6
CONTINUOUS
10
-0.0925616
20
1.26088
11
-0.0990033
21
1.24972
0
LINE
8
BLACK
6
CONTINUOUS
10
-0.0990033
20
1.24972
11
-0.104106
21
1.23789
0
LINE
8
BLACK
6
CONTINUOUS
10
-0.104106
20
1.23789
11
-0.107801
21
1.22555
0
LINE
8
BLACK
6
CONTINUOUS
10
-0.107801
20
1.22555
11
-0.110038
21
1.21286
0
LINE
8
BLACK
6
CONTINUOUS
10
-0.110038
20
1.21286
11
-0.110787
21
1.2
0
LINE
8
BLACK
6
CONTINUOUS
10
-0.110787
20
1.2
11
-0.110038
21
1.18714
0
LINE
8
BLACK
6
CONTINUOUS
10
2.01406
20
1.32481
11
2.02795
21
1.32245
0
LINE
8
BLACK
6
CONTINUOUS
10
2.02795
20
1.32245
11
2.04148
21
1.31855
0
LINE
8
BLACK
6
CONTINUOUS
10
2.04148
20
1.31855
11
2.0545
21
1.31316
0
LINE
8
BLACK
6
CONTINUOUS
10
2.0545
20
1.31316
11
2.06682
21
1.30635
0
LINE
8
BLACK
6
CONTINUOUS
10
2.06682
20
1.30635
11
2.07831
21
1.2982
0
LINE
8
BLACK
6
CONTINUOUS
10
2.07831
20
1.2982
11
2.08881
21
1.28881
0
LINE
8
BLACK
6
CONTINUOUS
10
2.08881
20
1.28881
11
2.0982
21
1.27831
0
LINE
8
BLACK
6
CONTINUOUS
10
2.0982
20
1.27831
11
2.10635
21
1.26682
0
LINE
8
BLACK
6
CONTINUOUS
10
2.10635
20
1.26682
11
2.11316
21
1.2545
0
LINE
8
BLACK
6
CONTINUOUS
10
2.11316
20
1.2545
11
2.11855
21
1.24148
0
LINE
8
BLACK
6
CONTINUOUS
10
2.11855
20
1.24148
11
2.12245
21
1.22795
0
LINE
8
BLACK
6
CONTINUOUS
10
2.12245
20
1.22795
11
2.12481
21
1.21406
0
LINE
8
BLACK
6
CONTINUOUS
10
2.12481
20
1.21406
11
2.1256
21
1.2
0
LINE
8
BLACK
6
CONTINUOUS
10
2.1256
20
1.2
11
2.12481
21
1.18594
0
LINE
8
BLACK
6
CONTINUOUS
10
2.12481
20
1.18594
11
2.12245
21
1.17205
0
LINE
8
BLACK
6
CONTINUOUS
10
2.12245
20
1.17205
11
2.11855
21
1.15852
0
LINE
8
BLACK
6
CONTINUOUS
10
2.11855
20
1.15852
11
2.11316
21
1.1455
0
LINE
8
BLACK
6
CONTINUOUS
10
2.11316
20
1.1455
11
2.10635
21
1.13318
0
LINE
8
BLACK
6
CONTINUOUS
10
2.10635
20
1.13318
11
2.0982
21
1.12169
0
LINE
8
BLACK
6
CONTINUOUS
10
2.0982
20
1.12169
11
2.08881
21
1.11119
0
LINE
8
BLACK
6
CONTINUOUS
10
2.08881
20
1.11119
11
2.07831
21
1.1018
0
LINE
8
BLACK
6
CONTINUOUS
10
2.07831
20
1.1018
11
2.06682
21
1.09365
0
LINE
8
BLACK
6
CONTINUOUS
10
2.06682
20
1.09365
11
2.0545
21
1.08684
0
LINE
8
BLACK
6
CONTINUOUS
10
2.0545
20
1.08684
11
2.04148
21
1.08145
0
LINE
8
BLACK
6
CONTINUOUS
10
2.04148
20
1.08145
11
2.02795
21
1.07755
0
LINE
8
BLACK
6
CONTINUOUS
10
2.02795
20
1.07755
11
2.01406
21
1.07519
0
LINE
8
BLACK
6
CONTINUOUS
10
2.01406
20
1.07519
11
2
21
1.0744
0
LINE
8
BLACK
6
CONTINUOUS
10
2
20
1.0744
11
1.98594
21
1.07519
0
LINE
8
BLACK
6
CONTINUOUS
10
1.98594
20
1.07519
11
1.97205
21
1.07755
0
LINE
8
BLACK
6
CONTINUOUS
10
1.97205
20
1.07755
11
1.95852
21
1.08145
0
LINE
8
BLACK
6
CONTINUOUS
10
1.95852
20
1.08145
11
1.9455
21
1.08684
0
LINE
8
BLACK
6
CONTINUOUS
10
1.9455
20
1.08684
11
1.93318
21
1.09365
0
LINE
8
BLACK
6
CONTINUOUS
10
1.93318
20
1.09365
11
1.92169
21
1.1018
0
LINE
8
BLACK
6
CONTINUOUS
10
1.92169
20
1.1018
11
1.91119
21
1.11119
0
LINE
8
BLACK
6
CONTINUOUS
10
1.91119
20
1.11119
11
1.9018
21
1.12169
0
LINE
8
BLACK
6
CONTINUOUS
10
1.9018
20
1.12169
11
1.89365
21
1.13318
0
LINE
8
BLACK
6
CONTINUOUS
10
1.89365
20
1.13318
11
1.88684
21
1.1455
0
LINE
8
BLACK
6
CONTINUOUS
10
1.88684
20
1.1455
11
1.88145
21
1.15852
0
LINE
8
BLACK
6
CONTINUOUS
10
1.88145
20
1.15852
11
1.87755
21
1.17205
0
LINE
8
BLACK
6
CONTINUOUS
10
1.87755
20
1.17205
11
1.87519
21
1.18594
0
LINE
8
BLACK
6
CONTINUOUS
10
1.87519
20
1.18594
11
1.8744
21
1.2
0
LINE
8
BLACK
6
CONTINUOUS
10
1.8744
20
1.2
11
1.87519
21
1.21406
0
LINE
8
BLACK
6
CONTINUOUS
10
1.87519
20
1.21406
11
1.87755
21
1.22795
0
LINE
8
BLACK
6
CONTINUOUS
10
1.87755
20
1.22795
11
1.88145
21
1.24148
0
LINE
8
BLACK
6
CONTINUOUS
10
1.88145
20
1.24148
11
1.88684
21
1.2545
0
LINE
8
BLACK
6
CONTINUOUS
10
1.88684
20
1.2545
11
1.89365
21
1.26682
0
LINE
8
BLACK
6
CONTINUOUS
10
1.89365
20
1.26682
11
1.9018
21
1.27831
0
LINE
8
BLACK
6
CONTINUOUS
10
1.9018
20
1.27831
11
1.91119
21
1.28881
0
LINE
8
BLACK
6
CONTINUOUS
10
1.91119
20
1.28881
11
1.92169
21
1.2982
0
LINE
8
BLACK
6
CONTINUOUS
10
1.92169
20
1.2982
11
1.93318
21
1.30635
0
LINE
8
BLACK
6
CONTINUOUS
10
1.93318
20
1.30635
11
1.9455
21
1.31316
0
LINE
8
BLACK
6
CONTINUOUS
10
1.9455
20
1.31316
11
1.95852
21
1.31855
0
LINE
8
BLACK
6
CONTINUOUS
10
1.95852
20
1.31855
11
1.97205
21
1.32245
0
LINE
8
BLACK
6
CONTINUOUS
10
1.97205
20
1.32245
11
1.98594
21
1.32481
0
LINE
8
BLACK
6
CONTINUOUS
10
1.98594
20
1.32481
11
2
21
1.3256
0
LINE
8
BLACK
6
CONTINUOUS
10
2
20
1.3256
11
2.01406
21
1.32481
0
LINE
8
BLACK
6
CONTINUOUS
10
1.88996
20
1.18714
11
1.8922
21
1.17445
0
LINE
8
BLACK
6
CONTINUOUS
10
1.8922
20
1.17445
11
1.89589
21
1.16211
0
LINE
8
BLACK
6
CONTINUOUS
10
1.89589
20
1.16211
11
1.901
21
1.15028
0
LINE
8
BLACK
6
CONTINUOUS
10
1.901
20
1.15028
11
1.90744
21
1.13912
0
LINE
8
BLACK
6
CONTINUOUS
10
1.90744
20
1.13912
11
1.91513
21
1.12879
0
LINE
8
BLACK
6
CONTINUOUS
10
1.91513
20
1.12879
11
1.92397
21
1.11942
0
LINE
8
BLACK
6
CONTINUOUS
10
1.92397
20
1.11942
11
1.93384
21
1.11113
0
LINE
8
BLACK
6
CONTINUOUS
10
1.93384
20
1.11113
11
1.94461
21
1.10406
0
LINE
8
BLACK
6
CONTINUOUS
10
1.94461
20
1.10406
11
1.95612
21
1.09827
0
LINE
8
BLACK
6
CONTINUOUS
10
1.95612
20
1.09827
11
1.96823
21
1.09387
0
LINE
8
BLACK
6
CONTINUOUS
10
1.96823
20
1.09387
11
1.98076
21
1.0909
0
LINE
8
BLACK
6
CONTINUOUS
10
1.98076
20
1.0909
11
1.99356
21
1.0894
0
LINE
8
BLACK
6
CONTINUOUS
10
1.99356
20
1.0894
11
2.00644
21
1.0894
0
LINE
8
BLACK
6
CONTINUOUS
10
2.00644
20
1.0894
11
2.01924
21
1.0909
0
LINE
8
BLACK
6
CONTINUOUS
10
2.01924
20
1.0909
11
2.03177
21
1.09387
0
LINE
8
BLACK
6
CONTINUOUS
10
2.03177
20
1.09387
11
2.04388
21
1.09827
0
LINE
8
BLACK
6
CONTINUOUS
10
2.04388
20
1.09827
11
2.05539
21
1.10406
0
LINE
8
BLACK
6
CONTINUOUS
10
2.05539
20
1.10406
11
2.06616
21
1.11113
0
LINE
8
BLACK
6
CONTINUOUS
10
2.06616
20
1.11113
11
2.07603
21
1.11942
0
LINE
8
BLACK
6
CONTINUOUS
10
2.07603
20
1.11942
11
2.08487
21
1.12879
0
LINE
8
BLACK
6
CONTINUOUS
10
2.08487
20
1.12879
11
2.09256
21
1.13912
0
LINE
8
BLACK
6
CONTINUOUS
10
2.09256
20
1.13912
11
2.099
21
1.15028
0
LINE
8
BLACK
6
CONTINUOUS
10
2.099
20
1.15028
11
2.10411
21
1.16211
0
LINE
8
BLACK
6
CONTINUOUS
10
2.10411
20
1.16211
11
2.1078
21
1.17445
0
LINE
8
BLACK
6
CONTINUOUS
10
2.1078
20
1.17445
11
2.11004
21
1.18714
0
LINE
8
BLACK
6
CONTINUOUS
10
2.11004
20
1.18714
11
2.11079
21
1.2
0
LINE
8
BLACK
6
CONTINUOUS
10
2.11079
20
1.2
11
2.11004
21
1.21286
0
LINE
8
BLACK
6
CONTINUOUS
10
2.11004
20
1.21286
11
2.1078
21
1.22555
0
LINE
8
BLACK
6
CONTINUOUS
10
2.1078
20
1.22555
11
2.10411
21
1.23789
0
LINE
8
BLACK
6
CONTINUOUS
10
2.10411
20
1.23789
11
2.099
21
1.24972
0
LINE
8
BLACK
6
CONTINUOUS
10
2.099
20
1.24972
11
2.09256
21
1.26088
0
LINE
8
BLACK
6
CONTINUOUS
10
2.09256
20
1.26088
11
2.08487
21
1.27121
0
LINE
8
BLACK
6
CONTINUOUS
10
2.08487
20
1.27121
11
2.07603
21
1.28058
0
LINE
8
BLACK
6
CONTINUOUS
10
2.07603
20
1.28058
11
2.06616
21
1.28887
0
LINE
8
BLACK
6
CONTINUOUS
10
2.06616
20
1.28887
11
2.05539
21
1.29594
0
LINE
8
BLACK
6
CONTINUOUS
10
2.05539
20
1.29594
11
2.04388
21
1.30173
0
LINE
8
BLACK
6
CONTINUOUS
10
2.04388
20
1.30173
11
2.03177
21
1.30613
0
LINE
8
BLACK
6
CONTINUOUS
10
2.03177
20
1.30613
11
2.01924
21
1.3091
0
LINE
8
BLACK
6
CONTINUOUS
10
2.01924
20
1.3091
11
2.00644
21
1.3106
0
LINE
8
BLACK
6
CONTINUOUS
10
2.00644
20
1.3106
11
1.99356
21
1.3106
0
LINE
8
BLACK
6
CONTINUOUS
10
1.99356
20
1.3106
11
1.98076
21
1.3091
0
LINE
8
BLACK
6
CONTINUOUS
10
1.98076
20
1.3091
11
1.96823
21
1.30613
0
LINE
8
BLACK
6
CONTINUOUS
10
1.96823
20
1.30613
11
1.95612
21
1.30173
0
LINE
8
BLACK
6
CONTINUOUS
10
1.95612
20
1.30173
11
1.94461
21
1.29594
0
LINE
8
BLACK
6
CONTINUOUS
10
1.94461
20
1.29594
11
1.93384
21
1.28887
0
LINE
8
BLACK
6
CONTINUOUS
10
1.93384
20
1.28887
11
1.92397
21
1.28058
0
LINE
8
BLACK
6
CONTINUOUS
10
1.92397
20
1.28058
11
1.91513
21
1.27121
0
LINE
8
BLACK
6
CONTINUOUS
10
1.91513
20
1.27121
11
1.90744
21
1.26088
0
LINE
8
BLACK
6
CONTINUOUS
10
1.90744
20
1.26088
11
1.901
21
1.24972
0
LINE
8
BLACK
6
CONTINUOUS
10
1.901
20
1.24972
11
1.89589
21
1.23789
0
LINE
8
BLACK
6
CONTINUOUS
10
1.89589
20
1.23789
11
1.8922
21
1.22555
0
LINE
8
BLACK
6
CONTINUOUS
10
1.8922
20
1.22555
11
1.88996
21
1.21286
0
LINE
8
BLACK
6
CONTINUOUS
10
1.88996
20
1.21286
11
1.88921
21
1.2
0
LINE
8
BLACK
6
CONTINUOUS
10
1.88921
20
1.2
11
1.88996
21
1.18714
  0
ENDSEC
  0
EOF
