  0
SECTION
  2
HEADER
  9
$ANGBASE
  50
0.0
  9
$ANGDIR
  70
1
  9
$MEASUREMENT
  70
0
  0
ENDSEC
  0
SECTION
  2
TABLES
  0
TABLE
  2
LTYPE
  70
4
  0
LTYPE
  5
40F
  2
CONTINUOUS
  70
0
  3
Solid line
  72
65
  73
0
  40
0.0
  0
LTYPE
  5
410
  2
DASHDOT
 70
0
  3
Dash Dot ____ _ ____ _
 72
65
 73
4
 40
2.0
 49
1.25
 49
-0.25
 49
0.25
 49
-0.25
  0
LTYPE
  5
411
  2
DASHED
 70
0
  3
Dashed __ __ __ __ __
 72
65
 73
2
 40
0.75
 49
0.5
 49
-0.25
  0
LTYPE
  5
43B
  2
DOTTED
 70
0
  3
Dotted .  .  .  .
 72
65
 73
2
 40
0.2
 49
0.0
 49
-0.2
  0
ENDTAB
  0
TABLE
  2
STYLE
  70
4
  0
STYLE
  2
KICAD
  70
0
  40
0
  41
1
  42
1
  50
0
  71
0
  3
isocp.shx
  0
STYLE
  2
KICADB
  70
0
  40
0
  41
1
  42
1
  50
0
  71
0
  3
isocp.shx
  0
STYLE
  2
KICADI
  70
0
  40
0
  41
1
  42
1
  50
15
  71
0
  3
isocp.shx
  0
STYLE
  2
KICADBI
  70
0
  40
0
  41
1
  42
1
  50
15
  71
0
  3
isocp.shx
  0
ENDTAB
  0
TABLE
  2
LAYER
  70
1
  0
LAYER
  2
BLACK
  70
0
  62
7
  6
CONTINUOUS
  0
ENDTAB
  0
ENDSEC
  0
SECTION
  2
ENTITIES
0
LINE
8
BLACK
6
CONTINUOUS
10
0.287922
20
0.479534
11
0.291975
21
0.492958
0
LINE
8
BLACK
6
CONTINUOUS
10
0.291975
20
0.492958
11
0.297499
21
0.505846
0
LINE
8
BLACK
6
CONTINUOUS
10
0.297499
20
0.505846
11
0.304425
21
0.518039
0
LINE
8
BLACK
6
CONTINUOUS
10
0.304425
20
0.518039
11
0.312667
21
0.529383
0
LINE
8
BLACK
6
CONTINUOUS
10
0.312667
20
0.529383
11
0.322122
21
0.539738
0
LINE
8
BLACK
6
CONTINUOUS
10
0.322122
20
0.539738
11
0.332673
21
0.548974
0
LINE
8
BLACK
6
CONTINUOUS
10
0.332673
20
0.548974
11
0.344187
21
0.556977
0
LINE
8
BLACK
6
CONTINUOUS
10
0.344187
20
0.556977
11
0.356522
21
0.563646
0
LINE
8
BLACK
6
CONTINUOUS
10
0.356522
20
0.563646
11
0.369523
21
0.568899
0
LINE
8
BLACK
6
CONTINUOUS
10
0.369523
20
0.568899
11
0.383029
21
0.57267
0
LINE
8
BLACK
6
CONTINUOUS
10
0.383029
20
0.57267
11
0.396871
21
0.574912
0
LINE
8
BLACK
6
CONTINUOUS
10
0.396871
20
0.574912
11
0.410877
21
0.575597
0
LINE
8
BLACK
6
CONTINUOUS
10
0.410877
20
0.575597
11
0.424872
21
0.574716
0
LINE
8
BLACK
6
CONTINUOUS
10
0.424872
20
0.574716
11
0.438681
21
0.572281
0
LINE
8
BLACK
6
CONTINUOUS
10
0.438681
20
0.572281
11
0.452133
21
0.568322
0
LINE
8
BLACK
6
CONTINUOUS
10
0.452133
20
0.568322
11
0.465059
21
0.562889
0
LINE
8
BLACK
6
CONTINUOUS
10
0.465059
20
0.562889
11
0.4773
21
0.556048
0
LINE
8
BLACK
6
CONTINUOUS
10
0.4773
20
0.556048
11
0.488701
21
0.547885
0
LINE
8
BLACK
6
CONTINUOUS
10
0.488701
20
0.547885
11
0.499122
21
0.538502
0
LINE
8
BLACK
6
CONTINUOUS
10
0.499122
20
0.538502
11
0.508432
21
0.528016
0
LINE
8
BLACK
6
CONTINUOUS
10
0.508432
20
0.528016
11
0.516515
21
0.516558
0
LINE
8
BLACK
6
CONTINUOUS
10
0.516515
20
0.516558
11
0.52327
21
0.50427
0
LINE
8
BLACK
6
CONTINUOUS
10
0.52327
20
0.50427
11
0.528614
21
0.491306
0
LINE
8
BLACK
6
CONTINUOUS
10
0.528614
20
0.491306
11
0.532479
21
0.477826
0
LINE
8
BLACK
6
CONTINUOUS
10
0.532479
20
0.477826
11
0.534817
21
0.464001
0
LINE
8
BLACK
6
CONTINUOUS
10
0.534817
20
0.464001
11
0.5356
21
0.45
0
LINE
8
BLACK
6
CONTINUOUS
10
0.5356
20
0.45
11
0.535551
21
0.446493
0
LINE
8
BLACK
6
CONTINUOUS
10
0.535551
20
0.446493
11
0.534378
21
0.43252
0
LINE
8
BLACK
6
CONTINUOUS
10
0.534378
20
0.43252
11
0.531654
21
0.418765
0
LINE
8
BLACK
6
CONTINUOUS
10
0.531654
20
0.418765
11
0.527414
21
0.405399
0
LINE
8
BLACK
6
CONTINUOUS
10
0.527414
20
0.405399
11
0.521711
21
0.392589
0
LINE
8
BLACK
6
CONTINUOUS
10
0.521711
20
0.392589
11
0.514615
21
0.380494
0
LINE
8
BLACK
6
CONTINUOUS
10
0.514615
20
0.380494
11
0.506215
21
0.369266
0
LINE
8
BLACK
6
CONTINUOUS
10
0.506215
20
0.369266
11
0.496616
21
0.359044
0
LINE
8
BLACK
6
CONTINUOUS
10
0.496616
20
0.359044
11
0.485938
21
0.349956
0
LINE
8
BLACK
6
CONTINUOUS
10
0.485938
20
0.349956
11
0.474313
21
0.342115
0
LINE
8
BLACK
6
CONTINUOUS
10
0.474313
20
0.342115
11
0.461886
21
0.335618
0
LINE
8
BLACK
6
CONTINUOUS
10
0.461886
20
0.335618
11
0.448813
21
0.330547
0
LINE
8
BLACK
6
CONTINUOUS
10
0.448813
20
0.330547
11
0.435255
21
0.326965
0
LINE
8
BLACK
6
CONTINUOUS
10
0.435255
20
0.326965
11
0.421383
21
0.324917
0
LINE
8
BLACK
6
CONTINUOUS
10
0.421383
20
0.324917
11
0.40737
21
0.324428
0
LINE
8
BLACK
6
CONTINUOUS
10
0.40737
20
0.324428
11
0.393389
21
0.325503
0
LINE
8
BLACK
6
CONTINUOUS
10
0.393389
20
0.325503
11
0.379615
21
0.328131
0
LINE
8
BLACK
6
CONTINUOUS
10
0.379615
20
0.328131
11
0.366219
21
0.332277
0
LINE
8
BLACK
6
CONTINUOUS
10
0.366219
20
0.332277
11
0.35337
21
0.337891
0
LINE
8
BLACK
6
CONTINUOUS
10
0.35337
20
0.337891
11
0.341226
21
0.344902
0
LINE
8
BLACK
6
CONTINUOUS
10
0.341226
20
0.344902
11
0.32994
21
0.353224
0
LINE
8
BLACK
6
CONTINUOUS
10
0.32994
20
0.353224
11
0.319651
21
0.362751
0
LINE
8
BLACK
6
CONTINUOUS
10
0.319651
20
0.362751
11
0.310488
21
0.373366
0
LINE
8
BLACK
6
CONTINUOUS
10
0.310488
20
0.373366
11
0.302566
21
0.384936
0
LINE
8
BLACK
6
CONTINUOUS
10
0.302566
20
0.384936
11
0.295983
21
0.397317
0
LINE
8
BLACK
6
CONTINUOUS
10
0.295983
20
0.397317
11
0.290821
21
0.410354
0
LINE
8
BLACK
6
CONTINUOUS
10
0.290821
20
0.410354
11
0.287145
21
0.423886
0
LINE
8
BLACK
6
CONTINUOUS
10
0.287145
20
0.423886
11
0.284999
21
0.437744
0
LINE
8
BLACK
6
CONTINUOUS
10
0.284999
20
0.437744
11
0.284412
21
0.451754
0
LINE
8
BLACK
6
CONTINUOUS
10
0.284412
20
0.451754
11
0.284533
21
0.45348
0
LINE
8
BLACK
6
CONTINUOUS
10
0.284533
20
0.45348
11
0.28539
21
0.465742
0
LINE
8
BLACK
6
CONTINUOUS
10
0.28539
20
0.465742
11
0.287922
21
0.479534
0
LINE
8
BLACK
6
CONTINUOUS
10
0.301398
20
0.428102
11
0.304635
21
0.415765
0
LINE
8
BLACK
6
CONTINUOUS
10
0.304635
20
0.415765
11
0.309268
21
0.403881
0
LINE
8
BLACK
6
CONTINUOUS
10
0.309268
20
0.403881
11
0.315236
21
0.392609
0
LINE
8
BLACK
6
CONTINUOUS
10
0.315236
20
0.392609
11
0.322461
21
0.382098
0
LINE
8
BLACK
6
CONTINUOUS
10
0.322461
20
0.382098
11
0.330845
21
0.372486
0
LINE
8
BLACK
6
CONTINUOUS
10
0.330845
20
0.372486
11
0.340279
21
0.363902
0
LINE
8
BLACK
6
CONTINUOUS
10
0.340279
20
0.363902
11
0.350637
21
0.356459
0
LINE
8
BLACK
6
CONTINUOUS
10
0.350637
20
0.356459
11
0.361782
21
0.350256
0
LINE
8
BLACK
6
CONTINUOUS
10
0.361782
20
0.350256
11
0.373566
21
0.345375
0
LINE
8
BLACK
6
CONTINUOUS
10
0.373566
20
0.345375
11
0.385832
21
0.341881
0
LINE
8
BLACK
6
CONTINUOUS
10
0.385832
20
0.341881
11
0.39842
21
0.339819
0
LINE
8
BLACK
6
CONTINUOUS
10
0.39842
20
0.339819
11
0.41116
21
0.339219
0
LINE
8
BLACK
6
CONTINUOUS
10
0.41116
20
0.339219
11
0.423885
21
0.340086
0
LINE
8
BLACK
6
CONTINUOUS
10
0.423885
20
0.340086
11
0.436426
21
0.342411
0
LINE
8
BLACK
6
CONTINUOUS
10
0.436426
20
0.342411
11
0.448617
21
0.346161
0
LINE
8
BLACK
6
CONTINUOUS
10
0.448617
20
0.346161
11
0.460296
21
0.351288
0
LINE
8
BLACK
6
CONTINUOUS
10
0.460296
20
0.351288
11
0.471309
21
0.357723
0
LINE
8
BLACK
6
CONTINUOUS
10
0.471309
20
0.357723
11
0.481509
21
0.365381
0
LINE
8
BLACK
6
CONTINUOUS
10
0.481509
20
0.365381
11
0.490761
21
0.374161
0
LINE
8
BLACK
6
CONTINUOUS
10
0.490761
20
0.374161
11
0.498942
21
0.383946
0
LINE
8
BLACK
6
CONTINUOUS
10
0.498942
20
0.383946
11
0.505945
21
0.394606
0
LINE
8
BLACK
6
CONTINUOUS
10
0.505945
20
0.394606
11
0.511676
21
0.406001
0
LINE
8
BLACK
6
CONTINUOUS
10
0.511676
20
0.406001
11
0.516059
21
0.417979
0
LINE
8
BLACK
6
CONTINUOUS
10
0.516059
20
0.417979
11
0.519036
21
0.430381
0
LINE
8
BLACK
6
CONTINUOUS
10
0.519036
20
0.430381
11
0.520569
21
0.443044
0
LINE
8
BLACK
6
CONTINUOUS
10
0.520569
20
0.443044
11
0.520787
21
0.45
0
LINE
8
BLACK
6
CONTINUOUS
10
0.520787
20
0.45
11
0.520053
21
0.462734
0
LINE
8
BLACK
6
CONTINUOUS
10
0.520053
20
0.462734
11
0.51786
21
0.475298
0
LINE
8
BLACK
6
CONTINUOUS
10
0.51786
20
0.475298
11
0.514238
21
0.487528
0
LINE
8
BLACK
6
CONTINUOUS
10
0.514238
20
0.487528
11
0.509234
21
0.49926
0
LINE
8
BLACK
6
CONTINUOUS
10
0.509234
20
0.49926
11
0.502914
21
0.510339
0
LINE
8
BLACK
6
CONTINUOUS
10
0.502914
20
0.510339
11
0.495363
21
0.520619
0
LINE
8
BLACK
6
CONTINUOUS
10
0.495363
20
0.520619
11
0.486681
21
0.529962
0
LINE
8
BLACK
6
CONTINUOUS
10
0.486681
20
0.529962
11
0.476982
21
0.538246
0
LINE
8
BLACK
6
CONTINUOUS
10
0.476982
20
0.538246
11
0.466395
21
0.545359
0
LINE
8
BLACK
6
CONTINUOUS
10
0.466395
20
0.545359
11
0.455061
21
0.551209
0
LINE
8
BLACK
6
CONTINUOUS
10
0.455061
20
0.551209
11
0.44313
21
0.555718
0
LINE
8
BLACK
6
CONTINUOUS
10
0.44313
20
0.555718
11
0.430759
21
0.558825
0
LINE
8
BLACK
6
CONTINUOUS
10
0.430759
20
0.558825
11
0.418114
21
0.56049
0
LINE
8
BLACK
6
CONTINUOUS
10
0.418114
20
0.56049
11
0.405361
21
0.56069
0
LINE
8
BLACK
6
CONTINUOUS
10
0.405361
20
0.56069
11
0.392669
21
0.559423
0
LINE
8
BLACK
6
CONTINUOUS
10
0.392669
20
0.559423
11
0.380207
21
0.556706
0
LINE
8
BLACK
6
CONTINUOUS
10
0.380207
20
0.556706
11
0.36814
21
0.552575
0
LINE
8
BLACK
6
CONTINUOUS
10
0.36814
20
0.552575
11
0.356628
21
0.547084
0
LINE
8
BLACK
6
CONTINUOUS
10
0.356628
20
0.547084
11
0.345823
21
0.540306
0
LINE
8
BLACK
6
CONTINUOUS
10
0.345823
20
0.540306
11
0.335869
21
0.532331
0
LINE
8
BLACK
6
CONTINUOUS
10
0.335869
20
0.532331
11
0.326897
21
0.523265
0
LINE
8
BLACK
6
CONTINUOUS
10
0.326897
20
0.523265
11
0.319027
21
0.513228
0
LINE
8
BLACK
6
CONTINUOUS
10
0.319027
20
0.513228
11
0.312363
21
0.502353
0
LINE
8
BLACK
6
CONTINUOUS
10
0.312363
20
0.502353
11
0.306992
21
0.490784
0
LINE
8
BLACK
6
CONTINUOUS
10
0.306992
20
0.490784
11
0.302988
21
0.478674
0
LINE
8
BLACK
6
CONTINUOUS
10
0.302988
20
0.478674
11
0.300401
21
0.466184
0
LINE
8
BLACK
6
CONTINUOUS
10
0.300401
20
0.466184
11
0.299267
21
0.45348
0
LINE
8
BLACK
6
CONTINUOUS
10
0.299267
20
0.45348
11
0.299601
21
0.44073
0
LINE
8
BLACK
6
CONTINUOUS
10
0.299601
20
0.44073
11
0.301398
21
0.428102
0
LINE
8
BLACK
6
CONTINUOUS
10
2.28792
20
0.479534
11
2.29197
21
0.492958
0
LINE
8
BLACK
6
CONTINUOUS
10
2.29197
20
0.492958
11
2.2975
21
0.505846
0
LINE
8
BLACK
6
CONTINUOUS
10
2.2975
20
0.505846
11
2.30442
21
0.518039
0
LINE
8
BLACK
6
CONTINUOUS
10
2.30442
20
0.518039
11
2.31267
21
0.529383
0
LINE
8
BLACK
6
CONTINUOUS
10
2.31267
20
0.529383
11
2.32212
21
0.539738
0
LINE
8
BLACK
6
CONTINUOUS
10
2.32212
20
0.539738
11
2.33267
21
0.548974
0
LINE
8
BLACK
6
CONTINUOUS
10
2.33267
20
0.548974
11
2.34419
21
0.556977
0
LINE
8
BLACK
6
CONTINUOUS
10
2.34419
20
0.556977
11
2.35652
21
0.563646
0
LINE
8
BLACK
6
CONTINUOUS
10
2.35652
20
0.563646
11
2.36952
21
0.568899
0
LINE
8
BLACK
6
CONTINUOUS
10
2.36952
20
0.568899
11
2.38303
21
0.57267
0
LINE
8
BLACK
6
CONTINUOUS
10
2.38303
20
0.57267
11
2.39687
21
0.574912
0
LINE
8
BLACK
6
CONTINUOUS
10
2.39687
20
0.574912
11
2.41088
21
0.575597
0
LINE
8
BLACK
6
CONTINUOUS
10
2.41088
20
0.575597
11
2.42487
21
0.574716
0
LINE
8
BLACK
6
CONTINUOUS
10
2.42487
20
0.574716
11
2.43868
21
0.572281
0
LINE
8
BLACK
6
CONTINUOUS
10
2.43868
20
0.572281
11
2.45213
21
0.568322
0
LINE
8
BLACK
6
CONTINUOUS
10
2.45213
20
0.568322
11
2.46506
21
0.562889
0
LINE
8
BLACK
6
CONTINUOUS
10
2.46506
20
0.562889
11
2.4773
21
0.556048
0
LINE
8
BLACK
6
CONTINUOUS
10
2.4773
20
0.556048
11
2.4887
21
0.547885
0
LINE
8
BLACK
6
CONTINUOUS
10
2.4887
20
0.547885
11
2.49912
21
0.538502
0
LINE
8
BLACK
6
CONTINUOUS
10
2.49912
20
0.538502
11
2.50843
21
0.528016
0
LINE
8
BLACK
6
CONTINUOUS
10
2.50843
20
0.528016
11
2.51651
21
0.516558
0
LINE
8
BLACK
6
CONTINUOUS
10
2.51651
20
0.516558
11
2.52327
21
0.50427
0
LINE
8
BLACK
6
CONTINUOUS
10
2.52327
20
0.50427
11
2.52861
21
0.491306
0
LINE
8
BLACK
6
CONTINUOUS
10
2.52861
20
0.491306
11
2.53248
21
0.477826
0
LINE
8
BLACK
6
CONTINUOUS
10
2.53248
20
0.477826
11
2.53482
21
0.464001
0
LINE
8
BLACK
6
CONTINUOUS
10
2.53482
20
0.464001
11
2.5356
21
0.45
0
LINE
8
BLACK
6
CONTINUOUS
10
2.5356
20
0.45
11
2.53555
21
0.446493
0
LINE
8
BLACK
6
CONTINUOUS
10
2.53555
20
0.446493
11
2.53438
21
0.43252
0
LINE
8
BLACK
6
CONTINUOUS
10
2.53438
20
0.43252
11
2.53165
21
0.418765
0
LINE
8
BLACK
6
CONTINUOUS
10
2.53165
20
0.418765
11
2.52741
21
0.405399
0
LINE
8
BLACK
6
CONTINUOUS
10
2.52741
20
0.405399
11
2.52171
21
0.392589
0
LINE
8
BLACK
6
CONTINUOUS
10
2.52171
20
0.392589
11
2.51461
21
0.380494
0
LINE
8
BLACK
6
CONTINUOUS
10
2.51461
20
0.380494
11
2.50622
21
0.369266
0
LINE
8
BLACK
6
CONTINUOUS
10
2.50622
20
0.369266
11
2.49662
21
0.359044
0
LINE
8
BLACK
6
CONTINUOUS
10
2.49662
20
0.359044
11
2.48594
21
0.349956
0
LINE
8
BLACK
6
CONTINUOUS
10
2.48594
20
0.349956
11
2.47431
21
0.342115
0
LINE
8
BLACK
6
CONTINUOUS
10
2.47431
20
0.342115
11
2.46189
21
0.335618
0
LINE
8
BLACK
6
CONTINUOUS
10
2.46189
20
0.335618
11
2.44881
21
0.330547
0
LINE
8
BLACK
6
CONTINUOUS
10
2.44881
20
0.330547
11
2.43526
21
0.326965
0
LINE
8
BLACK
6
CONTINUOUS
10
2.43526
20
0.326965
11
2.42138
21
0.324917
0
LINE
8
BLACK
6
CONTINUOUS
10
2.42138
20
0.324917
11
2.40737
21
0.324428
0
LINE
8
BLACK
6
CONTINUOUS
10
2.40737
20
0.324428
11
2.39339
21
0.325503
0
LINE
8
BLACK
6
CONTINUOUS
10
2.39339
20
0.325503
11
2.37961
21
0.328131
0
LINE
8
BLACK
6
CONTINUOUS
10
2.37961
20
0.328131
11
2.36622
21
0.332277
0
LINE
8
BLACK
6
CONTINUOUS
10
2.36622
20
0.332277
11
2.35337
21
0.337891
0
LINE
8
BLACK
6
CONTINUOUS
10
2.35337
20
0.337891
11
2.34123
21
0.344902
0
LINE
8
BLACK
6
CONTINUOUS
10
2.34123
20
0.344902
11
2.32994
21
0.353224
0
LINE
8
BLACK
6
CONTINUOUS
10
2.32994
20
0.353224
11
2.31965
21
0.362751
0
LINE
8
BLACK
6
CONTINUOUS
10
2.31965
20
0.362751
11
2.31049
21
0.373366
0
LINE
8
BLACK
6
CONTINUOUS
10
2.31049
20
0.373366
11
2.30257
21
0.384936
0
LINE
8
BLACK
6
CONTINUOUS
10
2.30257
20
0.384936
11
2.29598
21
0.397317
0
LINE
8
BLACK
6
CONTINUOUS
10
2.29598
20
0.397317
11
2.29082
21
0.410354
0
LINE
8
BLACK
6
CONTINUOUS
10
2.29082
20
0.410354
11
2.28714
21
0.423886
0
LINE
8
BLACK
6
CONTINUOUS
10
2.28714
20
0.423886
11
2.285
21
0.437744
0
LINE
8
BLACK
6
CONTINUOUS
10
2.285
20
0.437744
11
2.28441
21
0.451754
0
LINE
8
BLACK
6
CONTINUOUS
10
2.28441
20
0.451754
11
2.28453
21
0.45348
0
LINE
8
BLACK
6
CONTINUOUS
10
2.28453
20
0.45348
11
2.28539
21
0.465742
0
LINE
8
BLACK
6
CONTINUOUS
10
2.28539
20
0.465742
11
2.28792
21
0.479534
0
LINE
8
BLACK
6
CONTINUOUS
10
2.3014
20
0.428102
11
2.30463
21
0.415765
0
LINE
8
BLACK
6
CONTINUOUS
10
2.30463
20
0.415765
11
2.30927
21
0.403881
0
LINE
8
BLACK
6
CONTINUOUS
10
2.30927
20
0.403881
11
2.31524
21
0.392609
0
LINE
8
BLACK
6
CONTINUOUS
10
2.31524
20
0.392609
11
2.32246
21
0.382098
0
LINE
8
BLACK
6
CONTINUOUS
10
2.32246
20
0.382098
11
2.33085
21
0.372486
0
LINE
8
BLACK
6
CONTINUOUS
10
2.33085
20
0.372486
11
2.34028
21
0.363902
0
LINE
8
BLACK
6
CONTINUOUS
10
2.34028
20
0.363902
11
2.35064
21
0.356459
0
LINE
8
BLACK
6
CONTINUOUS
10
2.35064
20
0.356459
11
2.36178
21
0.350256
0
LINE
8
BLACK
6
CONTINUOUS
10
2.36178
20
0.350256
11
2.37357
21
0.345375
0
LINE
8
BLACK
6
CONTINUOUS
10
2.37357
20
0.345375
11
2.38583
21
0.341881
0
LINE
8
BLACK
6
CONTINUOUS
10
2.38583
20
0.341881
11
2.39842
21
0.339819
0
LINE
8
BLACK
6
CONTINUOUS
10
2.39842
20
0.339819
11
2.41116
21
0.339219
0
LINE
8
BLACK
6
CONTINUOUS
10
2.41116
20
0.339219
11
2.42389
21
0.340086
0
LINE
8
BLACK
6
CONTINUOUS
10
2.42389
20
0.340086
11
2.43643
21
0.342411
0
LINE
8
BLACK
6
CONTINUOUS
10
2.43643
20
0.342411
11
2.44862
21
0.346161
0
LINE
8
BLACK
6
CONTINUOUS
10
2.44862
20
0.346161
11
2.4603
21
0.351288
0
LINE
8
BLACK
6
CONTINUOUS
10
2.4603
20
0.351288
11
2.47131
21
0.357723
0
LINE
8
BLACK
6
CONTINUOUS
10
2.47131
20
0.357723
11
2.48151
21
0.365381
0
LINE
8
BLACK
6
CONTINUOUS
10
2.48151
20
0.365381
11
2.49076
21
0.374161
0
LINE
8
BLACK
6
CONTINUOUS
10
2.49076
20
0.374161
11
2.49894
21
0.383946
0
LINE
8
BLACK
6
CONTINUOUS
10
2.49894
20
0.383946
11
2.50594
21
0.394606
0
LINE
8
BLACK
6
CONTINUOUS
10
2.50594
20
0.394606
11
2.51168
21
0.406001
0
LINE
8
BLACK
6
CONTINUOUS
10
2.51168
20
0.406001
11
2.51606
21
0.417979
0
LINE
8
BLACK
6
CONTINUOUS
10
2.51606
20
0.417979
11
2.51904
21
0.430381
0
LINE
8
BLACK
6
CONTINUOUS
10
2.51904
20
0.430381
11
2.52057
21
0.443044
0
LINE
8
BLACK
6
CONTINUOUS
10
2.52057
20
0.443044
11
2.52079
21
0.45
0
LINE
8
BLACK
6
CONTINUOUS
10
2.52079
20
0.45
11
2.52005
21
0.462734
0
LINE
8
BLACK
6
CONTINUOUS
10
2.52005
20
0.462734
11
2.51786
21
0.475298
0
LINE
8
BLACK
6
CONTINUOUS
10
2.51786
20
0.475298
11
2.51424
21
0.487528
0
LINE
8
BLACK
6
CONTINUOUS
10
2.51424
20
0.487528
11
2.50923
21
0.49926
0
LINE
8
BLACK
6
CONTINUOUS
10
2.50923
20
0.49926
11
2.50291
21
0.510339
0
LINE
8
BLACK
6
CONTINUOUS
10
2.50291
20
0.510339
11
2.49536
21
0.520619
0
LINE
8
BLACK
6
CONTINUOUS
10
2.49536
20
0.520619
11
2.48668
21
0.529962
0
LINE
8
BLACK
6
CONTINUOUS
10
2.48668
20
0.529962
11
2.47698
21
0.538246
0
LINE
8
BLACK
6
CONTINUOUS
10
2.47698
20
0.538246
11
2.4664
21
0.545359
0
LINE
8
BLACK
6
CONTINUOUS
10
2.4664
20
0.545359
11
2.45506
21
0.551209
0
LINE
8
BLACK
6
CONTINUOUS
10
2.45506
20
0.551209
11
2.44313
21
0.555718
0
LINE
8
BLACK
6
CONTINUOUS
10
2.44313
20
0.555718
11
2.43076
21
0.558825
0
LINE
8
BLACK
6
CONTINUOUS
10
2.43076
20
0.558825
11
2.41811
21
0.56049
0
LINE
8
BLACK
6
CONTINUOUS
10
2.41811
20
0.56049
11
2.40536
21
0.56069
0
LINE
8
BLACK
6
CONTINUOUS
10
2.40536
20
0.56069
11
2.39267
21
0.559423
0
LINE
8
BLACK
6
CONTINUOUS
10
2.39267
20
0.559423
11
2.38021
21
0.556706
0
LINE
8
BLACK
6
CONTINUOUS
10
2.38021
20
0.556706
11
2.36814
21
0.552575
0
LINE
8
BLACK
6
CONTINUOUS
10
2.36814
20
0.552575
11
2.35663
21
0.547084
0
LINE
8
BLACK
6
CONTINUOUS
10
2.35663
20
0.547084
11
2.34582
21
0.540306
0
LINE
8
BLACK
6
CONTINUOUS
10
2.34582
20
0.540306
11
2.33587
21
0.532331
0
LINE
8
BLACK
6
CONTINUOUS
10
2.33587
20
0.532331
11
2.3269
21
0.523265
0
LINE
8
BLACK
6
CONTINUOUS
10
2.3269
20
0.523265
11
2.31903
21
0.513228
0
LINE
8
BLACK
6
CONTINUOUS
10
2.31903
20
0.513228
11
2.31236
21
0.502353
0
LINE
8
BLACK
6
CONTINUOUS
10
2.31236
20
0.502353
11
2.30699
21
0.490784
0
LINE
8
BLACK
6
CONTINUOUS
10
2.30699
20
0.490784
11
2.30299
21
0.478674
0
LINE
8
BLACK
6
CONTINUOUS
10
2.30299
20
0.478674
11
2.3004
21
0.466184
0
LINE
8
BLACK
6
CONTINUOUS
10
2.3004
20
0.466184
11
2.29927
21
0.45348
0
LINE
8
BLACK
6
CONTINUOUS
10
2.29927
20
0.45348
11
2.2996
21
0.44073
0
LINE
8
BLACK
6
CONTINUOUS
10
2.2996
20
0.44073
11
2.3014
21
0.428102
0
LINE
8
BLACK
6
CONTINUOUS
10
2.28792
20
1.67953
11
2.29197
21
1.69296
0
LINE
8
BLACK
6
CONTINUOUS
10
2.29197
20
1.69296
11
2.2975
21
1.70585
0
LINE
8
BLACK
6
CONTINUOUS
10
2.2975
20
1.70585
11
2.30442
21
1.71804
0
LINE
8
BLACK
6
CONTINUOUS
10
2.30442
20
1.71804
11
2.31267
21
1.72938
0
LINE
8
BLACK
6
CONTINUOUS
10
2.31267
20
1.72938
11
2.32212
21
1.73974
0
LINE
8
BLACK
6
CONTINUOUS
10
2.32212
20
1.73974
11
2.33267
21
1.74897
0
LINE
8
BLACK
6
CONTINUOUS
10
2.33267
20
1.74897
11
2.34419
21
1.75698
0
LINE
8
BLACK
6
CONTINUOUS
10
2.34419
20
1.75698
11
2.35652
21
1.76365
0
LINE
8
BLACK
6
CONTINUOUS
10
2.35652
20
1.76365
11
2.36952
21
1.7689
0
LINE
8
BLACK
6
CONTINUOUS
10
2.36952
20
1.7689
11
2.38303
21
1.77267
0
LINE
8
BLACK
6
CONTINUOUS
10
2.38303
20
1.77267
11
2.39687
21
1.77491
0
LINE
8
BLACK
6
CONTINUOUS
10
2.39687
20
1.77491
11
2.41088
21
1.7756
0
LINE
8
BLACK
6
CONTINUOUS
10
2.41088
20
1.7756
11
2.42487
21
1.77472
0
LINE
8
BLACK
6
CONTINUOUS
10
2.42487
20
1.77472
11
2.43868
21
1.77228
0
LINE
8
BLACK
6
CONTINUOUS
10
2.43868
20
1.77228
11
2.45213
21
1.76832
0
LINE
8
BLACK
6
CONTINUOUS
10
2.45213
20
1.76832
11
2.46506
21
1.76289
0
LINE
8
BLACK
6
CONTINUOUS
10
2.46506
20
1.76289
11
2.4773
21
1.75605
0
LINE
8
BLACK
6
CONTINUOUS
10
2.4773
20
1.75605
11
2.4887
21
1.74788
0
LINE
8
BLACK
6
CONTINUOUS
10
2.4887
20
1.74788
11
2.49912
21
1.7385
0
LINE
8
BLACK
6
CONTINUOUS
10
2.49912
20
1.7385
11
2.50843
21
1.72802
0
LINE
8
BLACK
6
CONTINUOUS
10
2.50843
20
1.72802
11
2.51651
21
1.71656
0
LINE
8
BLACK
6
CONTINUOUS
10
2.51651
20
1.71656
11
2.52327
21
1.70427
0
LINE
8
BLACK
6
CONTINUOUS
10
2.52327
20
1.70427
11
2.52861
21
1.69131
0
LINE
8
BLACK
6
CONTINUOUS
10
2.52861
20
1.69131
11
2.53248
21
1.67783
0
LINE
8
BLACK
6
CONTINUOUS
10
2.53248
20
1.67783
11
2.53482
21
1.664
0
LINE
8
BLACK
6
CONTINUOUS
10
2.53482
20
1.664
11
2.5356
21
1.65
0
LINE
8
BLACK
6
CONTINUOUS
10
2.5356
20
1.65
11
2.53555
21
1.64649
0
LINE
8
BLACK
6
CONTINUOUS
10
2.53555
20
1.64649
11
2.53438
21
1.63252
0
LINE
8
BLACK
6
CONTINUOUS
10
2.53438
20
1.63252
11
2.53165
21
1.61876
0
LINE
8
BLACK
6
CONTINUOUS
10
2.53165
20
1.61876
11
2.52741
21
1.6054
0
LINE
8
BLACK
6
CONTINUOUS
10
2.52741
20
1.6054
11
2.52171
21
1.59259
0
LINE
8
BLACK
6
CONTINUOUS
10
2.52171
20
1.59259
11
2.51461
21
1.58049
0
LINE
8
BLACK
6
CONTINUOUS
10
2.51461
20
1.58049
11
2.50622
21
1.56927
0
LINE
8
BLACK
6
CONTINUOUS
10
2.50622
20
1.56927
11
2.49662
21
1.55904
0
LINE
8
BLACK
6
CONTINUOUS
10
2.49662
20
1.55904
11
2.48594
21
1.54996
0
LINE
8
BLACK
6
CONTINUOUS
10
2.48594
20
1.54996
11
2.47431
21
1.54211
0
LINE
8
BLACK
6
CONTINUOUS
10
2.47431
20
1.54211
11
2.46189
21
1.53562
0
LINE
8
BLACK
6
CONTINUOUS
10
2.46189
20
1.53562
11
2.44881
21
1.53055
0
LINE
8
BLACK
6
CONTINUOUS
10
2.44881
20
1.53055
11
2.43526
21
1.52697
0
LINE
8
BLACK
6
CONTINUOUS
10
2.43526
20
1.52697
11
2.42138
21
1.52492
0
LINE
8
BLACK
6
CONTINUOUS
10
2.42138
20
1.52492
11
2.40737
21
1.52443
0
LINE
8
BLACK
6
CONTINUOUS
10
2.40737
20
1.52443
11
2.39339
21
1.5255
0
LINE
8
BLACK
6
CONTINUOUS
10
2.39339
20
1.5255
11
2.37961
21
1.52813
0
LINE
8
BLACK
6
CONTINUOUS
10
2.37961
20
1.52813
11
2.36622
21
1.53228
0
LINE
8
BLACK
6
CONTINUOUS
10
2.36622
20
1.53228
11
2.35337
21
1.53789
0
LINE
8
BLACK
6
CONTINUOUS
10
2.35337
20
1.53789
11
2.34123
21
1.5449
0
LINE
8
BLACK
6
CONTINUOUS
10
2.34123
20
1.5449
11
2.32994
21
1.55322
0
LINE
8
BLACK
6
CONTINUOUS
10
2.32994
20
1.55322
11
2.31965
21
1.56275
0
LINE
8
BLACK
6
CONTINUOUS
10
2.31965
20
1.56275
11
2.31049
21
1.57337
0
LINE
8
BLACK
6
CONTINUOUS
10
2.31049
20
1.57337
11
2.30257
21
1.58494
0
LINE
8
BLACK
6
CONTINUOUS
10
2.30257
20
1.58494
11
2.29598
21
1.59732
0
LINE
8
BLACK
6
CONTINUOUS
10
2.29598
20
1.59732
11
2.29082
21
1.61035
0
LINE
8
BLACK
6
CONTINUOUS
10
2.29082
20
1.61035
11
2.28714
21
1.62389
0
LINE
8
BLACK
6
CONTINUOUS
10
2.28714
20
1.62389
11
2.285
21
1.63774
0
LINE
8
BLACK
6
CONTINUOUS
10
2.285
20
1.63774
11
2.28441
21
1.65175
0
LINE
8
BLACK
6
CONTINUOUS
10
2.28441
20
1.65175
11
2.28453
21
1.65348
0
LINE
8
BLACK
6
CONTINUOUS
10
2.28453
20
1.65348
11
2.28539
21
1.66574
0
LINE
8
BLACK
6
CONTINUOUS
10
2.28539
20
1.66574
11
2.28792
21
1.67953
0
LINE
8
BLACK
6
CONTINUOUS
10
2.3014
20
1.6281
11
2.30463
21
1.61576
0
LINE
8
BLACK
6
CONTINUOUS
10
2.30463
20
1.61576
11
2.30927
21
1.60388
0
LINE
8
BLACK
6
CONTINUOUS
10
2.30927
20
1.60388
11
2.31524
21
1.59261
0
LINE
8
BLACK
6
CONTINUOUS
10
2.31524
20
1.59261
11
2.32246
21
1.5821
0
LINE
8
BLACK
6
CONTINUOUS
10
2.32246
20
1.5821
11
2.33085
21
1.57249
0
LINE
8
BLACK
6
CONTINUOUS
10
2.33085
20
1.57249
11
2.34028
21
1.5639
0
LINE
8
BLACK
6
CONTINUOUS
10
2.34028
20
1.5639
11
2.35064
21
1.55646
0
LINE
8
BLACK
6
CONTINUOUS
10
2.35064
20
1.55646
11
2.36178
21
1.55026
0
LINE
8
BLACK
6
CONTINUOUS
10
2.36178
20
1.55026
11
2.37357
21
1.54537
0
LINE
8
BLACK
6
CONTINUOUS
10
2.37357
20
1.54537
11
2.38583
21
1.54188
0
LINE
8
BLACK
6
CONTINUOUS
10
2.38583
20
1.54188
11
2.39842
21
1.53982
0
LINE
8
BLACK
6
CONTINUOUS
10
2.39842
20
1.53982
11
2.41116
21
1.53922
0
LINE
8
BLACK
6
CONTINUOUS
10
2.41116
20
1.53922
11
2.42389
21
1.54009
0
LINE
8
BLACK
6
CONTINUOUS
10
2.42389
20
1.54009
11
2.43643
21
1.54241
0
LINE
8
BLACK
6
CONTINUOUS
10
2.43643
20
1.54241
11
2.44862
21
1.54616
0
LINE
8
BLACK
6
CONTINUOUS
10
2.44862
20
1.54616
11
2.4603
21
1.55129
0
LINE
8
BLACK
6
CONTINUOUS
10
2.4603
20
1.55129
11
2.47131
21
1.55772
0
LINE
8
BLACK
6
CONTINUOUS
10
2.47131
20
1.55772
11
2.48151
21
1.56538
0
LINE
8
BLACK
6
CONTINUOUS
10
2.48151
20
1.56538
11
2.49076
21
1.57416
0
LINE
8
BLACK
6
CONTINUOUS
10
2.49076
20
1.57416
11
2.49894
21
1.58395
0
LINE
8
BLACK
6
CONTINUOUS
10
2.49894
20
1.58395
11
2.50594
21
1.59461
0
LINE
8
BLACK
6
CONTINUOUS
10
2.50594
20
1.59461
11
2.51168
21
1.606
0
LINE
8
BLACK
6
CONTINUOUS
10
2.51168
20
1.606
11
2.51606
21
1.61798
0
LINE
8
BLACK
6
CONTINUOUS
10
2.51606
20
1.61798
11
2.51904
21
1.63038
0
LINE
8
BLACK
6
CONTINUOUS
10
2.51904
20
1.63038
11
2.52057
21
1.64304
0
LINE
8
BLACK
6
CONTINUOUS
10
2.52057
20
1.64304
11
2.52079
21
1.65
0
LINE
8
BLACK
6
CONTINUOUS
10
2.52079
20
1.65
11
2.52005
21
1.66273
0
LINE
8
BLACK
6
CONTINUOUS
10
2.52005
20
1.66273
11
2.51786
21
1.6753
0
LINE
8
BLACK
6
CONTINUOUS
10
2.51786
20
1.6753
11
2.51424
21
1.68753
0
LINE
8
BLACK
6
CONTINUOUS
10
2.51424
20
1.68753
11
2.50923
21
1.69926
0
LINE
8
BLACK
6
CONTINUOUS
10
2.50923
20
1.69926
11
2.50291
21
1.71034
0
LINE
8
BLACK
6
CONTINUOUS
10
2.50291
20
1.71034
11
2.49536
21
1.72062
0
LINE
8
BLACK
6
CONTINUOUS
10
2.49536
20
1.72062
11
2.48668
21
1.72996
0
LINE
8
BLACK
6
CONTINUOUS
10
2.48668
20
1.72996
11
2.47698
21
1.73825
0
LINE
8
BLACK
6
CONTINUOUS
10
2.47698
20
1.73825
11
2.4664
21
1.74536
0
LINE
8
BLACK
6
CONTINUOUS
10
2.4664
20
1.74536
11
2.45506
21
1.75121
0
LINE
8
BLACK
6
CONTINUOUS
10
2.45506
20
1.75121
11
2.44313
21
1.75572
0
LINE
8
BLACK
6
CONTINUOUS
10
2.44313
20
1.75572
11
2.43076
21
1.75883
0
LINE
8
BLACK
6
CONTINUOUS
10
2.43076
20
1.75883
11
2.41811
21
1.76049
0
LINE
8
BLACK
6
CONTINUOUS
10
2.41811
20
1.76049
11
2.40536
21
1.76069
0
LINE
8
BLACK
6
CONTINUOUS
10
2.40536
20
1.76069
11
2.39267
21
1.75942
0
LINE
8
BLACK
6
CONTINUOUS
10
2.39267
20
1.75942
11
2.38021
21
1.75671
0
LINE
8
BLACK
6
CONTINUOUS
10
2.38021
20
1.75671
11
2.36814
21
1.75257
0
LINE
8
BLACK
6
CONTINUOUS
10
2.36814
20
1.75257
11
2.35663
21
1.74708
0
LINE
8
BLACK
6
CONTINUOUS
10
2.35663
20
1.74708
11
2.34582
21
1.74031
0
LINE
8
BLACK
6
CONTINUOUS
10
2.34582
20
1.74031
11
2.33587
21
1.73233
0
LINE
8
BLACK
6
CONTINUOUS
10
2.33587
20
1.73233
11
2.3269
21
1.72327
0
LINE
8
BLACK
6
CONTINUOUS
10
2.3269
20
1.72327
11
2.31903
21
1.71323
0
LINE
8
BLACK
6
CONTINUOUS
10
2.31903
20
1.71323
11
2.31236
21
1.70235
0
LINE
8
BLACK
6
CONTINUOUS
10
2.31236
20
1.70235
11
2.30699
21
1.69078
0
LINE
8
BLACK
6
CONTINUOUS
10
2.30699
20
1.69078
11
2.30299
21
1.67867
0
LINE
8
BLACK
6
CONTINUOUS
10
2.30299
20
1.67867
11
2.3004
21
1.66618
0
LINE
8
BLACK
6
CONTINUOUS
10
2.3004
20
1.66618
11
2.29927
21
1.65348
0
LINE
8
BLACK
6
CONTINUOUS
10
2.29927
20
1.65348
11
2.2996
21
1.64073
0
LINE
8
BLACK
6
CONTINUOUS
10
2.2996
20
1.64073
11
2.3014
21
1.6281
0
LINE
8
BLACK
6
CONTINUOUS
10
0.287922
20
1.67953
11
0.291975
21
1.69296
0
LINE
8
BLACK
6
CONTINUOUS
10
0.291975
20
1.69296
11
0.297499
21
1.70585
0
LINE
8
BLACK
6
CONTINUOUS
10
0.297499
20
1.70585
11
0.304425
21
1.71804
0
LINE
8
BLACK
6
CONTINUOUS
10
0.304425
20
1.71804
11
0.312667
21
1.72938
0
LINE
8
BLACK
6
CONTINUOUS
10
0.312667
20
1.72938
11
0.322122
21
1.73974
0
LINE
8
BLACK
6
CONTINUOUS
10
0.322122
20
1.73974
11
0.332673
21
1.74897
0
LINE
8
BLACK
6
CONTINUOUS
10
0.332673
20
1.74897
11
0.344187
21
1.75698
0
LINE
8
BLACK
6
CONTINUOUS
10
0.344187
20
1.75698
11
0.356522
21
1.76365
0
LINE
8
BLACK
6
CONTINUOUS
10
0.356522
20
1.76365
11
0.369523
21
1.7689
0
LINE
8
BLACK
6
CONTINUOUS
10
0.369523
20
1.7689
11
0.383029
21
1.77267
0
LINE
8
BLACK
6
CONTINUOUS
10
0.383029
20
1.77267
11
0.396871
21
1.77491
0
LINE
8
BLACK
6
CONTINUOUS
10
0.396871
20
1.77491
11
0.410877
21
1.7756
0
LINE
8
BLACK
6
CONTINUOUS
10
0.410877
20
1.7756
11
0.424872
21
1.77472
0
LINE
8
BLACK
6
CONTINUOUS
10
0.424872
20
1.77472
11
0.438681
21
1.77228
0
LINE
8
BLACK
6
CONTINUOUS
10
0.438681
20
1.77228
11
0.452133
21
1.76832
0
LINE
8
BLACK
6
CONTINUOUS
10
0.452133
20
1.76832
11
0.465059
21
1.76289
0
LINE
8
BLACK
6
CONTINUOUS
10
0.465059
20
1.76289
11
0.4773
21
1.75605
0
LINE
8
BLACK
6
CONTINUOUS
10
0.4773
20
1.75605
11
0.488701
21
1.74788
0
LINE
8
BLACK
6
CONTINUOUS
10
0.488701
20
1.74788
11
0.499122
21
1.7385
0
LINE
8
BLACK
6
CONTINUOUS
10
0.499122
20
1.7385
11
0.508432
21
1.72802
0
LINE
8
BLACK
6
CONTINUOUS
10
0.508432
20
1.72802
11
0.516515
21
1.71656
0
LINE
8
BLACK
6
CONTINUOUS
10
0.516515
20
1.71656
11
0.52327
21
1.70427
0
LINE
8
BLACK
6
CONTINUOUS
10
0.52327
20
1.70427
11
0.528614
21
1.69131
0
LINE
8
BLACK
6
CONTINUOUS
10
0.528614
20
1.69131
11
0.532479
21
1.67783
0
LINE
8
BLACK
6
CONTINUOUS
10
0.532479
20
1.67783
11
0.534817
21
1.664
0
LINE
8
BLACK
6
CONTINUOUS
10
0.534817
20
1.664
11
0.5356
21
1.65
0
LINE
8
BLACK
6
CONTINUOUS
10
0.5356
20
1.65
11
0.535551
21
1.64649
0
LINE
8
BLACK
6
CONTINUOUS
10
0.535551
20
1.64649
11
0.534378
21
1.63252
0
LINE
8
BLACK
6
CONTINUOUS
10
0.534378
20
1.63252
11
0.531654
21
1.61876
0
LINE
8
BLACK
6
CONTINUOUS
10
0.531654
20
1.61876
11
0.527414
21
1.6054
0
LINE
8
BLACK
6
CONTINUOUS
10
0.527414
20
1.6054
11
0.521711
21
1.59259
0
LINE
8
BLACK
6
CONTINUOUS
10
0.521711
20
1.59259
11
0.514615
21
1.58049
0
LINE
8
BLACK
6
CONTINUOUS
10
0.514615
20
1.58049
11
0.506215
21
1.56927
0
LINE
8
BLACK
6
CONTINUOUS
10
0.506215
20
1.56927
11
0.496616
21
1.55904
0
LINE
8
BLACK
6
CONTINUOUS
10
0.496616
20
1.55904
11
0.485938
21
1.54996
0
LINE
8
BLACK
6
CONTINUOUS
10
0.485938
20
1.54996
11
0.474313
21
1.54211
0
LINE
8
BLACK
6
CONTINUOUS
10
0.474313
20
1.54211
11
0.461886
21
1.53562
0
LINE
8
BLACK
6
CONTINUOUS
10
0.461886
20
1.53562
11
0.448813
21
1.53055
0
LINE
8
BLACK
6
CONTINUOUS
10
0.448813
20
1.53055
11
0.435255
21
1.52697
0
LINE
8
BLACK
6
CONTINUOUS
10
0.435255
20
1.52697
11
0.421383
21
1.52492
0
LINE
8
BLACK
6
CONTINUOUS
10
0.421383
20
1.52492
11
0.40737
21
1.52443
0
LINE
8
BLACK
6
CONTINUOUS
10
0.40737
20
1.52443
11
0.393389
21
1.5255
0
LINE
8
BLACK
6
CONTINUOUS
10
0.393389
20
1.5255
11
0.379615
21
1.52813
0
LINE
8
BLACK
6
CONTINUOUS
10
0.379615
20
1.52813
11
0.366219
21
1.53228
0
LINE
8
BLACK
6
CONTINUOUS
10
0.366219
20
1.53228
11
0.35337
21
1.53789
0
LINE
8
BLACK
6
CONTINUOUS
10
0.35337
20
1.53789
11
0.341226
21
1.5449
0
LINE
8
BLACK
6
CONTINUOUS
10
0.341226
20
1.5449
11
0.32994
21
1.55322
0
LINE
8
BLACK
6
CONTINUOUS
10
0.32994
20
1.55322
11
0.319651
21
1.56275
0
LINE
8
BLACK
6
CONTINUOUS
10
0.319651
20
1.56275
11
0.310488
21
1.57337
0
LINE
8
BLACK
6
CONTINUOUS
10
0.310488
20
1.57337
11
0.302566
21
1.58494
0
LINE
8
BLACK
6
CONTINUOUS
10
0.302566
20
1.58494
11
0.295983
21
1.59732
0
LINE
8
BLACK
6
CONTINUOUS
10
0.295983
20
1.59732
11
0.290821
21
1.61035
0
LINE
8
BLACK
6
CONTINUOUS
10
0.290821
20
1.61035
11
0.287145
21
1.62389
0
LINE
8
BLACK
6
CONTINUOUS
10
0.287145
20
1.62389
11
0.284999
21
1.63774
0
LINE
8
BLACK
6
CONTINUOUS
10
0.284999
20
1.63774
11
0.284412
21
1.65175
0
LINE
8
BLACK
6
CONTINUOUS
10
0.284412
20
1.65175
11
0.284533
21
1.65348
0
LINE
8
BLACK
6
CONTINUOUS
10
0.284533
20
1.65348
11
0.28539
21
1.66574
0
LINE
8
BLACK
6
CONTINUOUS
10
0.28539
20
1.66574
11
0.287922
21
1.67953
0
LINE
8
BLACK
6
CONTINUOUS
10
0.301398
20
1.6281
11
0.304635
21
1.61576
0
LINE
8
BLACK
6
CONTINUOUS
10
0.304635
20
1.61576
11
0.309268
21
1.60388
0
LINE
8
BLACK
6
CONTINUOUS
10
0.309268
20
1.60388
11
0.315236
21
1.59261
0
LINE
8
BLACK
6
CONTINUOUS
10
0.315236
20
1.59261
11
0.322461
21
1.5821
0
LINE
8
BLACK
6
CONTINUOUS
10
0.322461
20
1.5821
11
0.330845
21
1.57249
0
LINE
8
BLACK
6
CONTINUOUS
10
0.330845
20
1.57249
11
0.340279
21
1.5639
0
LINE
8
BLACK
6
CONTINUOUS
10
0.340279
20
1.5639
11
0.350637
21
1.55646
0
LINE
8
BLACK
6
CONTINUOUS
10
0.350637
20
1.55646
11
0.361782
21
1.55026
0
LINE
8
BLACK
6
CONTINUOUS
10
0.361782
20
1.55026
11
0.373566
21
1.54537
0
LINE
8
BLACK
6
CONTINUOUS
10
0.373566
20
1.54537
11
0.385832
21
1.54188
0
LINE
8
BLACK
6
CONTINUOUS
10
0.385832
20
1.54188
11
0.39842
21
1.53982
0
LINE
8
BLACK
6
CONTINUOUS
10
0.39842
20
1.53982
11
0.41116
21
1.53922
0
LINE
8
BLACK
6
CONTINUOUS
10
0.41116
20
1.53922
11
0.423885
21
1.54009
0
LINE
8
BLACK
6
CONTINUOUS
10
0.423885
20
1.54009
11
0.436426
21
1.54241
0
LINE
8
BLACK
6
CONTINUOUS
10
0.436426
20
1.54241
11
0.448617
21
1.54616
0
LINE
8
BLACK
6
CONTINUOUS
10
0.448617
20
1.54616
11
0.460296
21
1.55129
0
LINE
8
BLACK
6
CONTINUOUS
10
0.460296
20
1.55129
11
0.471309
21
1.55772
0
LINE
8
BLACK
6
CONTINUOUS
10
0.471309
20
1.55772
11
0.481509
21
1.56538
0
LINE
8
BLACK
6
CONTINUOUS
10
0.481509
20
1.56538
11
0.490761
21
1.57416
0
LINE
8
BLACK
6
CONTINUOUS
10
0.490761
20
1.57416
11
0.498942
21
1.58395
0
LINE
8
BLACK
6
CONTINUOUS
10
0.498942
20
1.58395
11
0.505945
21
1.59461
0
LINE
8
BLACK
6
CONTINUOUS
10
0.505945
20
1.59461
11
0.511676
21
1.606
0
LINE
8
BLACK
6
CONTINUOUS
10
0.511676
20
1.606
11
0.516059
21
1.61798
0
LINE
8
BLACK
6
CONTINUOUS
10
0.516059
20
1.61798
11
0.519036
21
1.63038
0
LINE
8
BLACK
6
CONTINUOUS
10
0.519036
20
1.63038
11
0.520569
21
1.64304
0
LINE
8
BLACK
6
CONTINUOUS
10
0.520569
20
1.64304
11
0.520787
21
1.65
0
LINE
8
BLACK
6
CONTINUOUS
10
0.520787
20
1.65
11
0.520053
21
1.66273
0
LINE
8
BLACK
6
CONTINUOUS
10
0.520053
20
1.66273
11
0.51786
21
1.6753
0
LINE
8
BLACK
6
CONTINUOUS
10
0.51786
20
1.6753
11
0.514238
21
1.68753
0
LINE
8
BLACK
6
CONTINUOUS
10
0.514238
20
1.68753
11
0.509234
21
1.69926
0
LINE
8
BLACK
6
CONTINUOUS
10
0.509234
20
1.69926
11
0.502914
21
1.71034
0
LINE
8
BLACK
6
CONTINUOUS
10
0.502914
20
1.71034
11
0.495363
21
1.72062
0
LINE
8
BLACK
6
CONTINUOUS
10
0.495363
20
1.72062
11
0.486681
21
1.72996
0
LINE
8
BLACK
6
CONTINUOUS
10
0.486681
20
1.72996
11
0.476982
21
1.73825
0
LINE
8
BLACK
6
CONTINUOUS
10
0.476982
20
1.73825
11
0.466395
21
1.74536
0
LINE
8
BLACK
6
CONTINUOUS
10
0.466395
20
1.74536
11
0.455061
21
1.75121
0
LINE
8
BLACK
6
CONTINUOUS
10
0.455061
20
1.75121
11
0.44313
21
1.75572
0
LINE
8
BLACK
6
CONTINUOUS
10
0.44313
20
1.75572
11
0.430759
21
1.75883
0
LINE
8
BLACK
6
CONTINUOUS
10
0.430759
20
1.75883
11
0.418114
21
1.76049
0
LINE
8
BLACK
6
CONTINUOUS
10
0.418114
20
1.76049
11
0.405361
21
1.76069
0
LINE
8
BLACK
6
CONTINUOUS
10
0.405361
20
1.76069
11
0.392669
21
1.75942
0
LINE
8
BLACK
6
CONTINUOUS
10
0.392669
20
1.75942
11
0.380207
21
1.75671
0
LINE
8
BLACK
6
CONTINUOUS
10
0.380207
20
1.75671
11
0.36814
21
1.75257
0
LINE
8
BLACK
6
CONTINUOUS
10
0.36814
20
1.75257
11
0.356628
21
1.74708
0
LINE
8
BLACK
6
CONTINUOUS
10
0.356628
20
1.74708
11
0.345823
21
1.74031
0
LINE
8
BLACK
6
CONTINUOUS
10
0.345823
20
1.74031
11
0.335869
21
1.73233
0
LINE
8
BLACK
6
CONTINUOUS
10
0.335869
20
1.73233
11
0.326897
21
1.72327
0
LINE
8
BLACK
6
CONTINUOUS
10
0.326897
20
1.72327
11
0.319027
21
1.71323
0
LINE
8
BLACK
6
CONTINUOUS
10
0.319027
20
1.71323
11
0.312363
21
1.70235
0
LINE
8
BLACK
6
CONTINUOUS
10
0.312363
20
1.70235
11
0.306992
21
1.69078
0
LINE
8
BLACK
6
CONTINUOUS
10
0.306992
20
1.69078
11
0.302988
21
1.67867
0
LINE
8
BLACK
6
CONTINUOUS
10
0.302988
20
1.67867
11
0.300401
21
1.66618
0
LINE
8
BLACK
6
CONTINUOUS
10
0.300401
20
1.66618
11
0.299267
21
1.65348
0
LINE
8
BLACK
6
CONTINUOUS
10
0.299267
20
1.65348
11
0.299601
21
1.64073
0
LINE
8
BLACK
6
CONTINUOUS
10
0.299601
20
1.64073
11
0.301398
21
1.6281
  0
ENDSEC
  0
EOF
