  0
SECTION
  2
HEADER
  9
$ANGBASE
  50
0.0
  9
$ANGDIR
  70
1
  9
$MEASUREMENT
  70
0
  0
ENDSEC
  0
SECTION
  2
TABLES
  0
TABLE
  2
LTYPE
  70
4
  0
LTYPE
  5
40F
  2
CONTINUOUS
  70
0
  3
Solid line
  72
65
  73
0
  40
0.0
  0
LTYPE
  5
410
  2
DASHDOT
 70
0
  3
Dash Dot ____ _ ____ _
 72
65
 73
4
 40
2.0
 49
1.25
 49
-0.25
 49
0.25
 49
-0.25
  0
LTYPE
  5
411
  2
DASHED
 70
0
  3
Dashed __ __ __ __ __
 72
65
 73
2
 40
0.75
 49
0.5
 49
-0.25
  0
LTYPE
  5
43B
  2
DOTTED
 70
0
  3
Dotted .  .  .  .
 72
65
 73
2
 40
0.2
 49
0.0
 49
-0.2
  0
ENDTAB
  0
TABLE
  2
STYLE
  70
4
  0
STYLE
  2
KICAD
  70
0
  40
0
  41
1
  42
1
  50
0
  71
0
  3
isocp.shx
  0
STYLE
  2
KICADB
  70
0
  40
0
  41
1
  42
1
  50
0
  71
0
  3
isocp.shx
  0
STYLE
  2
KICADI
  70
0
  40
0
  41
1
  42
1
  50
15
  71
0
  3
isocp.shx
  0
STYLE
  2
KICADBI
  70
0
  40
0
  41
1
  42
1
  50
15
  71
0
  3
isocp.shx
  0
ENDTAB
  0
TABLE
  2
LAYER
  70
1
  0
LAYER
  2
BLACK
  70
0
  62
7
  6
CONTINUOUS
  0
ENDTAB
  0
ENDSEC
  0
SECTION
  2
ENTITIES
0
LINE
8
BLACK
6
CONTINUOUS
10
0.0141057
20
0.125192
11
0.0280341
21
0.122826
0
LINE
8
BLACK
6
CONTINUOUS
10
0.0280341
20
0.122826
11
0.04161
21
0.118914
0
LINE
8
BLACK
6
CONTINUOUS
10
0.04161
20
0.118914
11
0.0546625
21
0.113508
0
LINE
8
BLACK
6
CONTINUOUS
10
0.0546625
20
0.113508
11
0.0670277
21
0.106674
0
LINE
8
BLACK
6
CONTINUOUS
10
0.0670277
20
0.106674
11
0.0785499
21
0.0984985
0
LINE
8
BLACK
6
CONTINUOUS
10
0.0785499
20
0.0984985
11
0.0890843
21
0.0890843
0
LINE
8
BLACK
6
CONTINUOUS
10
0.0890843
20
0.0890843
11
0.0984985
21
0.0785499
0
LINE
8
BLACK
6
CONTINUOUS
10
0.0984985
20
0.0785499
11
0.106674
21
0.0670277
0
LINE
8
BLACK
6
CONTINUOUS
10
0.106674
20
0.0670277
11
0.113508
21
0.0546625
0
LINE
8
BLACK
6
CONTINUOUS
10
0.113508
20
0.0546625
11
0.118914
21
0.04161
0
LINE
8
BLACK
6
CONTINUOUS
10
0.118914
20
0.04161
11
0.122826
21
0.0280341
0
LINE
8
BLACK
6
CONTINUOUS
10
0.122826
20
0.0280341
11
0.125192
21
0.0141057
0
LINE
8
BLACK
6
CONTINUOUS
10
0.125192
20
0.0141057
11
0.125984
21
0
0
LINE
8
BLACK
6
CONTINUOUS
10
0.125984
20
0
11
0.125192
21
-0.0141057
0
LINE
8
BLACK
6
CONTINUOUS
10
0.125192
20
-0.0141057
11
0.122826
21
-0.0280341
0
LINE
8
BLACK
6
CONTINUOUS
10
0.122826
20
-0.0280341
11
0.118914
21
-0.04161
0
LINE
8
BLACK
6
CONTINUOUS
10
0.118914
20
-0.04161
11
0.113508
21
-0.0546625
0
LINE
8
BLACK
6
CONTINUOUS
10
0.113508
20
-0.0546625
11
0.106674
21
-0.0670277
0
LINE
8
BLACK
6
CONTINUOUS
10
0.106674
20
-0.0670277
11
0.0984985
21
-0.0785499
0
LINE
8
BLACK
6
CONTINUOUS
10
0.0984985
20
-0.0785499
11
0.0890843
21
-0.0890843
0
LINE
8
BLACK
6
CONTINUOUS
10
0.0890843
20
-0.0890843
11
0.0785499
21
-0.0984985
0
LINE
8
BLACK
6
CONTINUOUS
10
0.0785499
20
-0.0984985
11
0.0670277
21
-0.106674
0
LINE
8
BLACK
6
CONTINUOUS
10
0.0670277
20
-0.106674
11
0.0546625
21
-0.113508
0
LINE
8
BLACK
6
CONTINUOUS
10
0.0546625
20
-0.113508
11
0.04161
21
-0.118914
0
LINE
8
BLACK
6
CONTINUOUS
10
0.04161
20
-0.118914
11
0.0280341
21
-0.122826
0
LINE
8
BLACK
6
CONTINUOUS
10
0.0280341
20
-0.122826
11
0.0141057
21
-0.125192
0
LINE
8
BLACK
6
CONTINUOUS
10
0.0141057
20
-0.125192
11
0
21
-0.125984
0
LINE
8
BLACK
6
CONTINUOUS
10
0
20
-0.125984
11
-0.0141057
21
-0.125192
0
LINE
8
BLACK
6
CONTINUOUS
10
-0.0141057
20
-0.125192
11
-0.0280341
21
-0.122826
0
LINE
8
BLACK
6
CONTINUOUS
10
-0.0280341
20
-0.122826
11
-0.04161
21
-0.118914
0
LINE
8
BLACK
6
CONTINUOUS
10
-0.04161
20
-0.118914
11
-0.0546625
21
-0.113508
0
LINE
8
BLACK
6
CONTINUOUS
10
-0.0546625
20
-0.113508
11
-0.0670277
21
-0.106674
0
LINE
8
BLACK
6
CONTINUOUS
10
-0.0670277
20
-0.106674
11
-0.0785499
21
-0.0984985
0
LINE
8
BLACK
6
CONTINUOUS
10
-0.0785499
20
-0.0984985
11
-0.0890843
21
-0.0890843
0
LINE
8
BLACK
6
CONTINUOUS
10
-0.0890843
20
-0.0890843
11
-0.0984985
21
-0.0785499
0
LINE
8
BLACK
6
CONTINUOUS
10
-0.0984985
20
-0.0785499
11
-0.106674
21
-0.0670277
0
LINE
8
BLACK
6
CONTINUOUS
10
-0.106674
20
-0.0670277
11
-0.113508
21
-0.0546625
0
LINE
8
BLACK
6
CONTINUOUS
10
-0.113508
20
-0.0546625
11
-0.118914
21
-0.04161
0
LINE
8
BLACK
6
CONTINUOUS
10
-0.118914
20
-0.04161
11
-0.122826
21
-0.0280341
0
LINE
8
BLACK
6
CONTINUOUS
10
-0.122826
20
-0.0280341
11
-0.125192
21
-0.0141057
0
LINE
8
BLACK
6
CONTINUOUS
10
-0.125192
20
-0.0141057
11
-0.125984
21
0
0
LINE
8
BLACK
6
CONTINUOUS
10
-0.125984
20
0
11
-0.125192
21
0.0141057
0
LINE
8
BLACK
6
CONTINUOUS
10
-0.125192
20
0.0141057
11
-0.122826
21
0.0280341
0
LINE
8
BLACK
6
CONTINUOUS
10
-0.122826
20
0.0280341
11
-0.118914
21
0.04161
0
LINE
8
BLACK
6
CONTINUOUS
10
-0.118914
20
0.04161
11
-0.113508
21
0.0546625
0
LINE
8
BLACK
6
CONTINUOUS
10
-0.113508
20
0.0546625
11
-0.106674
21
0.0670277
0
LINE
8
BLACK
6
CONTINUOUS
10
-0.106674
20
0.0670277
11
-0.0984985
21
0.0785499
0
LINE
8
BLACK
6
CONTINUOUS
10
-0.0984985
20
0.0785499
11
-0.0890843
21
0.0890843
0
LINE
8
BLACK
6
CONTINUOUS
10
-0.0890843
20
0.0890843
11
-0.0785499
21
0.0984985
0
LINE
8
BLACK
6
CONTINUOUS
10
-0.0785499
20
0.0984985
11
-0.0670277
21
0.106674
0
LINE
8
BLACK
6
CONTINUOUS
10
-0.0670277
20
0.106674
11
-0.0546625
21
0.113508
0
LINE
8
BLACK
6
CONTINUOUS
10
-0.0546625
20
0.113508
11
-0.04161
21
0.118914
0
LINE
8
BLACK
6
CONTINUOUS
10
-0.04161
20
0.118914
11
-0.0280341
21
0.122826
0
LINE
8
BLACK
6
CONTINUOUS
10
-0.0280341
20
0.122826
11
-0.0141057
21
0.125192
0
LINE
8
BLACK
6
CONTINUOUS
10
-0.0141057
20
0.125192
11
0
21
0.125984
0
LINE
8
BLACK
6
CONTINUOUS
10
0
20
0.125984
11
0.0141057
21
0.125192
0
LINE
8
BLACK
6
CONTINUOUS
10
2.01411
20
0.125192
11
2.02803
21
0.122826
0
LINE
8
BLACK
6
CONTINUOUS
10
2.02803
20
0.122826
11
2.04161
21
0.118914
0
LINE
8
BLACK
6
CONTINUOUS
10
2.04161
20
0.118914
11
2.05466
21
0.113508
0
LINE
8
BLACK
6
CONTINUOUS
10
2.05466
20
0.113508
11
2.06703
21
0.106674
0
LINE
8
BLACK
6
CONTINUOUS
10
2.06703
20
0.106674
11
2.07855
21
0.0984985
0
LINE
8
BLACK
6
CONTINUOUS
10
2.07855
20
0.0984985
11
2.08908
21
0.0890843
0
LINE
8
BLACK
6
CONTINUOUS
10
2.08908
20
0.0890843
11
2.0985
21
0.0785499
0
LINE
8
BLACK
6
CONTINUOUS
10
2.0985
20
0.0785499
11
2.10667
21
0.0670277
0
LINE
8
BLACK
6
CONTINUOUS
10
2.10667
20
0.0670277
11
2.11351
21
0.0546625
0
LINE
8
BLACK
6
CONTINUOUS
10
2.11351
20
0.0546625
11
2.11891
21
0.04161
0
LINE
8
BLACK
6
CONTINUOUS
10
2.11891
20
0.04161
11
2.12283
21
0.0280341
0
LINE
8
BLACK
6
CONTINUOUS
10
2.12283
20
0.0280341
11
2.12519
21
0.0141057
0
LINE
8
BLACK
6
CONTINUOUS
10
2.12519
20
0.0141057
11
2.12598
21
0
0
LINE
8
BLACK
6
CONTINUOUS
10
2.12598
20
0
11
2.12519
21
-0.0141057
0
LINE
8
BLACK
6
CONTINUOUS
10
2.12519
20
-0.0141057
11
2.12283
21
-0.0280341
0
LINE
8
BLACK
6
CONTINUOUS
10
2.12283
20
-0.0280341
11
2.11891
21
-0.04161
0
LINE
8
BLACK
6
CONTINUOUS
10
2.11891
20
-0.04161
11
2.11351
21
-0.0546625
0
LINE
8
BLACK
6
CONTINUOUS
10
2.11351
20
-0.0546625
11
2.10667
21
-0.0670277
0
LINE
8
BLACK
6
CONTINUOUS
10
2.10667
20
-0.0670277
11
2.0985
21
-0.0785499
0
LINE
8
BLACK
6
CONTINUOUS
10
2.0985
20
-0.0785499
11
2.08908
21
-0.0890843
0
LINE
8
BLACK
6
CONTINUOUS
10
2.08908
20
-0.0890843
11
2.07855
21
-0.0984985
0
LINE
8
BLACK
6
CONTINUOUS
10
2.07855
20
-0.0984985
11
2.06703
21
-0.106674
0
LINE
8
BLACK
6
CONTINUOUS
10
2.06703
20
-0.106674
11
2.05466
21
-0.113508
0
LINE
8
BLACK
6
CONTINUOUS
10
2.05466
20
-0.113508
11
2.04161
21
-0.118914
0
LINE
8
BLACK
6
CONTINUOUS
10
2.04161
20
-0.118914
11
2.02803
21
-0.122826
0
LINE
8
BLACK
6
CONTINUOUS
10
2.02803
20
-0.122826
11
2.01411
21
-0.125192
0
LINE
8
BLACK
6
CONTINUOUS
10
2.01411
20
-0.125192
11
2
21
-0.125984
0
LINE
8
BLACK
6
CONTINUOUS
10
2
20
-0.125984
11
1.98589
21
-0.125192
0
LINE
8
BLACK
6
CONTINUOUS
10
1.98589
20
-0.125192
11
1.97197
21
-0.122826
0
LINE
8
BLACK
6
CONTINUOUS
10
1.97197
20
-0.122826
11
1.95839
21
-0.118914
0
LINE
8
BLACK
6
CONTINUOUS
10
1.95839
20
-0.118914
11
1.94534
21
-0.113508
0
LINE
8
BLACK
6
CONTINUOUS
10
1.94534
20
-0.113508
11
1.93297
21
-0.106674
0
LINE
8
BLACK
6
CONTINUOUS
10
1.93297
20
-0.106674
11
1.92145
21
-0.0984985
0
LINE
8
BLACK
6
CONTINUOUS
10
1.92145
20
-0.0984985
11
1.91092
21
-0.0890843
0
LINE
8
BLACK
6
CONTINUOUS
10
1.91092
20
-0.0890843
11
1.9015
21
-0.0785499
0
LINE
8
BLACK
6
CONTINUOUS
10
1.9015
20
-0.0785499
11
1.89333
21
-0.0670277
0
LINE
8
BLACK
6
CONTINUOUS
10
1.89333
20
-0.0670277
11
1.88649
21
-0.0546625
0
LINE
8
BLACK
6
CONTINUOUS
10
1.88649
20
-0.0546625
11
1.88109
21
-0.04161
0
LINE
8
BLACK
6
CONTINUOUS
10
1.88109
20
-0.04161
11
1.87717
21
-0.0280341
0
LINE
8
BLACK
6
CONTINUOUS
10
1.87717
20
-0.0280341
11
1.87481
21
-0.0141057
0
LINE
8
BLACK
6
CONTINUOUS
10
1.87481
20
-0.0141057
11
1.87402
21
0
0
LINE
8
BLACK
6
CONTINUOUS
10
1.87402
20
0
11
1.87481
21
0.0141057
0
LINE
8
BLACK
6
CONTINUOUS
10
1.87481
20
0.0141057
11
1.87717
21
0.0280341
0
LINE
8
BLACK
6
CONTINUOUS
10
1.87717
20
0.0280341
11
1.88109
21
0.04161
0
LINE
8
BLACK
6
CONTINUOUS
10
1.88109
20
0.04161
11
1.88649
21
0.0546625
0
LINE
8
BLACK
6
CONTINUOUS
10
1.88649
20
0.0546625
11
1.89333
21
0.0670277
0
LINE
8
BLACK
6
CONTINUOUS
10
1.89333
20
0.0670277
11
1.9015
21
0.0785499
0
LINE
8
BLACK
6
CONTINUOUS
10
1.9015
20
0.0785499
11
1.91092
21
0.0890843
0
LINE
8
BLACK
6
CONTINUOUS
10
1.91092
20
0.0890843
11
1.92145
21
0.0984985
0
LINE
8
BLACK
6
CONTINUOUS
10
1.92145
20
0.0984985
11
1.93297
21
0.106674
0
LINE
8
BLACK
6
CONTINUOUS
10
1.93297
20
0.106674
11
1.94534
21
0.113508
0
LINE
8
BLACK
6
CONTINUOUS
10
1.94534
20
0.113508
11
1.95839
21
0.118914
0
LINE
8
BLACK
6
CONTINUOUS
10
1.95839
20
0.118914
11
1.97197
21
0.122826
0
LINE
8
BLACK
6
CONTINUOUS
10
1.97197
20
0.122826
11
1.98589
21
0.125192
0
LINE
8
BLACK
6
CONTINUOUS
10
1.98589
20
0.125192
11
2
21
0.125984
0
LINE
8
BLACK
6
CONTINUOUS
10
2
20
0.125984
11
2.01411
21
0.125192
0
LINE
8
BLACK
6
CONTINUOUS
10
0.333013
20
-0.0127254
11
0.335568
21
-0.0144322
0
LINE
8
BLACK
6
CONTINUOUS
10
0.335568
20
-0.0144322
11
0.337275
21
-0.0169867
0
LINE
8
BLACK
6
CONTINUOUS
10
0.337275
20
-0.0169867
11
0.337874
21
-0.02
0
LINE
8
BLACK
6
CONTINUOUS
10
0.337874
20
-0.02
11
0.337874
21
-0.08
0
LINE
8
BLACK
6
CONTINUOUS
10
0.337874
20
-0.08
11
0.337275
21
-0.0830133
0
LINE
8
BLACK
6
CONTINUOUS
10
0.337275
20
-0.0830133
11
0.335568
21
-0.0855678
0
LINE
8
BLACK
6
CONTINUOUS
10
0.335568
20
-0.0855678
11
0.333013
21
-0.0872746
0
LINE
8
BLACK
6
CONTINUOUS
10
0.333013
20
-0.0872746
11
0.33
21
-0.087874
0
LINE
8
BLACK
6
CONTINUOUS
10
0.33
20
-0.087874
11
0.27
21
-0.087874
0
LINE
8
BLACK
6
CONTINUOUS
10
0.27
20
-0.087874
11
0.266987
21
-0.0872746
0
LINE
8
BLACK
6
CONTINUOUS
10
0.266987
20
-0.0872746
11
0.264432
21
-0.0855678
0
LINE
8
BLACK
6
CONTINUOUS
10
0.264432
20
-0.0855678
11
0.262725
21
-0.0830133
0
LINE
8
BLACK
6
CONTINUOUS
10
0.262725
20
-0.0830133
11
0.262126
21
-0.08
0
LINE
8
BLACK
6
CONTINUOUS
10
0.262126
20
-0.08
11
0.262126
21
-0.02
0
LINE
8
BLACK
6
CONTINUOUS
10
0.262126
20
-0.02
11
0.262725
21
-0.0169867
0
LINE
8
BLACK
6
CONTINUOUS
10
0.262725
20
-0.0169867
11
0.264432
21
-0.0144322
0
LINE
8
BLACK
6
CONTINUOUS
10
0.264432
20
-0.0144322
11
0.266987
21
-0.0127254
0
LINE
8
BLACK
6
CONTINUOUS
10
0.266987
20
-0.0127254
11
0.27
21
-0.012126
0
LINE
8
BLACK
6
CONTINUOUS
10
0.27
20
-0.012126
11
0.33
21
-0.012126
0
LINE
8
BLACK
6
CONTINUOUS
10
0.33
20
-0.012126
11
0.333013
21
-0.0127254
0
LINE
8
BLACK
6
CONTINUOUS
10
0.433013
20
-0.0127254
11
0.435568
21
-0.0144322
0
LINE
8
BLACK
6
CONTINUOUS
10
0.435568
20
-0.0144322
11
0.437275
21
-0.0169867
0
LINE
8
BLACK
6
CONTINUOUS
10
0.437275
20
-0.0169867
11
0.437874
21
-0.02
0
LINE
8
BLACK
6
CONTINUOUS
10
0.437874
20
-0.02
11
0.437874
21
-0.08
0
LINE
8
BLACK
6
CONTINUOUS
10
0.437874
20
-0.08
11
0.437275
21
-0.0830133
0
LINE
8
BLACK
6
CONTINUOUS
10
0.437275
20
-0.0830133
11
0.435568
21
-0.0855678
0
LINE
8
BLACK
6
CONTINUOUS
10
0.435568
20
-0.0855678
11
0.433013
21
-0.0872746
0
LINE
8
BLACK
6
CONTINUOUS
10
0.433013
20
-0.0872746
11
0.43
21
-0.087874
0
LINE
8
BLACK
6
CONTINUOUS
10
0.43
20
-0.087874
11
0.37
21
-0.087874
0
LINE
8
BLACK
6
CONTINUOUS
10
0.37
20
-0.087874
11
0.366987
21
-0.0872746
0
LINE
8
BLACK
6
CONTINUOUS
10
0.366987
20
-0.0872746
11
0.364432
21
-0.0855678
0
LINE
8
BLACK
6
CONTINUOUS
10
0.364432
20
-0.0855678
11
0.362725
21
-0.0830133
0
LINE
8
BLACK
6
CONTINUOUS
10
0.362725
20
-0.0830133
11
0.362126
21
-0.08
0
LINE
8
BLACK
6
CONTINUOUS
10
0.362126
20
-0.08
11
0.362126
21
-0.02
0
LINE
8
BLACK
6
CONTINUOUS
10
0.362126
20
-0.02
11
0.362725
21
-0.0169867
0
LINE
8
BLACK
6
CONTINUOUS
10
0.362725
20
-0.0169867
11
0.364432
21
-0.0144322
0
LINE
8
BLACK
6
CONTINUOUS
10
0.364432
20
-0.0144322
11
0.366987
21
-0.0127254
0
LINE
8
BLACK
6
CONTINUOUS
10
0.366987
20
-0.0127254
11
0.37
21
-0.012126
0
LINE
8
BLACK
6
CONTINUOUS
10
0.37
20
-0.012126
11
0.43
21
-0.012126
0
LINE
8
BLACK
6
CONTINUOUS
10
0.43
20
-0.012126
11
0.433013
21
-0.0127254
0
LINE
8
BLACK
6
CONTINUOUS
10
0.533013
20
-0.0127254
11
0.535568
21
-0.0144322
0
LINE
8
BLACK
6
CONTINUOUS
10
0.535568
20
-0.0144322
11
0.537275
21
-0.0169867
0
LINE
8
BLACK
6
CONTINUOUS
10
0.537275
20
-0.0169867
11
0.537874
21
-0.02
0
LINE
8
BLACK
6
CONTINUOUS
10
0.537874
20
-0.02
11
0.537874
21
-0.08
0
LINE
8
BLACK
6
CONTINUOUS
10
0.537874
20
-0.08
11
0.537275
21
-0.0830133
0
LINE
8
BLACK
6
CONTINUOUS
10
0.537275
20
-0.0830133
11
0.535568
21
-0.0855678
0
LINE
8
BLACK
6
CONTINUOUS
10
0.535568
20
-0.0855678
11
0.533013
21
-0.0872746
0
LINE
8
BLACK
6
CONTINUOUS
10
0.533013
20
-0.0872746
11
0.53
21
-0.087874
0
LINE
8
BLACK
6
CONTINUOUS
10
0.53
20
-0.087874
11
0.47
21
-0.087874
0
LINE
8
BLACK
6
CONTINUOUS
10
0.47
20
-0.087874
11
0.466987
21
-0.0872746
0
LINE
8
BLACK
6
CONTINUOUS
10
0.466987
20
-0.0872746
11
0.464432
21
-0.0855678
0
LINE
8
BLACK
6
CONTINUOUS
10
0.464432
20
-0.0855678
11
0.462725
21
-0.0830133
0
LINE
8
BLACK
6
CONTINUOUS
10
0.462725
20
-0.0830133
11
0.462126
21
-0.08
0
LINE
8
BLACK
6
CONTINUOUS
10
0.462126
20
-0.08
11
0.462126
21
-0.02
0
LINE
8
BLACK
6
CONTINUOUS
10
0.462126
20
-0.02
11
0.462725
21
-0.0169867
0
LINE
8
BLACK
6
CONTINUOUS
10
0.462725
20
-0.0169867
11
0.464432
21
-0.0144322
0
LINE
8
BLACK
6
CONTINUOUS
10
0.464432
20
-0.0144322
11
0.466987
21
-0.0127254
0
LINE
8
BLACK
6
CONTINUOUS
10
0.466987
20
-0.0127254
11
0.47
21
-0.012126
0
LINE
8
BLACK
6
CONTINUOUS
10
0.47
20
-0.012126
11
0.53
21
-0.012126
0
LINE
8
BLACK
6
CONTINUOUS
10
0.53
20
-0.012126
11
0.533013
21
-0.0127254
0
LINE
8
BLACK
6
CONTINUOUS
10
0.633013
20
-0.0127254
11
0.635568
21
-0.0144322
0
LINE
8
BLACK
6
CONTINUOUS
10
0.635568
20
-0.0144322
11
0.637275
21
-0.0169867
0
LINE
8
BLACK
6
CONTINUOUS
10
0.637275
20
-0.0169867
11
0.637874
21
-0.02
0
LINE
8
BLACK
6
CONTINUOUS
10
0.637874
20
-0.02
11
0.637874
21
-0.08
0
LINE
8
BLACK
6
CONTINUOUS
10
0.637874
20
-0.08
11
0.637275
21
-0.0830133
0
LINE
8
BLACK
6
CONTINUOUS
10
0.637275
20
-0.0830133
11
0.635568
21
-0.0855678
0
LINE
8
BLACK
6
CONTINUOUS
10
0.635568
20
-0.0855678
11
0.633013
21
-0.0872746
0
LINE
8
BLACK
6
CONTINUOUS
10
0.633013
20
-0.0872746
11
0.63
21
-0.087874
0
LINE
8
BLACK
6
CONTINUOUS
10
0.63
20
-0.087874
11
0.57
21
-0.087874
0
LINE
8
BLACK
6
CONTINUOUS
10
0.57
20
-0.087874
11
0.566987
21
-0.0872746
0
LINE
8
BLACK
6
CONTINUOUS
10
0.566987
20
-0.0872746
11
0.564432
21
-0.0855678
0
LINE
8
BLACK
6
CONTINUOUS
10
0.564432
20
-0.0855678
11
0.562725
21
-0.0830133
0
LINE
8
BLACK
6
CONTINUOUS
10
0.562725
20
-0.0830133
11
0.562126
21
-0.08
0
LINE
8
BLACK
6
CONTINUOUS
10
0.562126
20
-0.08
11
0.562126
21
-0.02
0
LINE
8
BLACK
6
CONTINUOUS
10
0.562126
20
-0.02
11
0.562725
21
-0.0169867
0
LINE
8
BLACK
6
CONTINUOUS
10
0.562725
20
-0.0169867
11
0.564432
21
-0.0144322
0
LINE
8
BLACK
6
CONTINUOUS
10
0.564432
20
-0.0144322
11
0.566987
21
-0.0127254
0
LINE
8
BLACK
6
CONTINUOUS
10
0.566987
20
-0.0127254
11
0.57
21
-0.012126
0
LINE
8
BLACK
6
CONTINUOUS
10
0.57
20
-0.012126
11
0.63
21
-0.012126
0
LINE
8
BLACK
6
CONTINUOUS
10
0.63
20
-0.012126
11
0.633013
21
-0.0127254
0
LINE
8
BLACK
6
CONTINUOUS
10
0.733013
20
-0.0127254
11
0.735568
21
-0.0144322
0
LINE
8
BLACK
6
CONTINUOUS
10
0.735568
20
-0.0144322
11
0.737275
21
-0.0169867
0
LINE
8
BLACK
6
CONTINUOUS
10
0.737275
20
-0.0169867
11
0.737874
21
-0.02
0
LINE
8
BLACK
6
CONTINUOUS
10
0.737874
20
-0.02
11
0.737874
21
-0.08
0
LINE
8
BLACK
6
CONTINUOUS
10
0.737874
20
-0.08
11
0.737275
21
-0.0830133
0
LINE
8
BLACK
6
CONTINUOUS
10
0.737275
20
-0.0830133
11
0.735568
21
-0.0855678
0
LINE
8
BLACK
6
CONTINUOUS
10
0.735568
20
-0.0855678
11
0.733013
21
-0.0872746
0
LINE
8
BLACK
6
CONTINUOUS
10
0.733013
20
-0.0872746
11
0.73
21
-0.087874
0
LINE
8
BLACK
6
CONTINUOUS
10
0.73
20
-0.087874
11
0.67
21
-0.087874
0
LINE
8
BLACK
6
CONTINUOUS
10
0.67
20
-0.087874
11
0.666987
21
-0.0872746
0
LINE
8
BLACK
6
CONTINUOUS
10
0.666987
20
-0.0872746
11
0.664432
21
-0.0855678
0
LINE
8
BLACK
6
CONTINUOUS
10
0.664432
20
-0.0855678
11
0.662725
21
-0.0830133
0
LINE
8
BLACK
6
CONTINUOUS
10
0.662725
20
-0.0830133
11
0.662126
21
-0.08
0
LINE
8
BLACK
6
CONTINUOUS
10
0.662126
20
-0.08
11
0.662126
21
-0.02
0
LINE
8
BLACK
6
CONTINUOUS
10
0.662126
20
-0.02
11
0.662725
21
-0.0169867
0
LINE
8
BLACK
6
CONTINUOUS
10
0.662725
20
-0.0169867
11
0.664432
21
-0.0144322
0
LINE
8
BLACK
6
CONTINUOUS
10
0.664432
20
-0.0144322
11
0.666987
21
-0.0127254
0
LINE
8
BLACK
6
CONTINUOUS
10
0.666987
20
-0.0127254
11
0.67
21
-0.012126
0
LINE
8
BLACK
6
CONTINUOUS
10
0.67
20
-0.012126
11
0.73
21
-0.012126
0
LINE
8
BLACK
6
CONTINUOUS
10
0.73
20
-0.012126
11
0.733013
21
-0.0127254
0
LINE
8
BLACK
6
CONTINUOUS
10
0.833013
20
-0.0127254
11
0.835568
21
-0.0144322
0
LINE
8
BLACK
6
CONTINUOUS
10
0.835568
20
-0.0144322
11
0.837275
21
-0.0169867
0
LINE
8
BLACK
6
CONTINUOUS
10
0.837275
20
-0.0169867
11
0.837874
21
-0.02
0
LINE
8
BLACK
6
CONTINUOUS
10
0.837874
20
-0.02
11
0.837874
21
-0.08
0
LINE
8
BLACK
6
CONTINUOUS
10
0.837874
20
-0.08
11
0.837275
21
-0.0830133
0
LINE
8
BLACK
6
CONTINUOUS
10
0.837275
20
-0.0830133
11
0.835568
21
-0.0855678
0
LINE
8
BLACK
6
CONTINUOUS
10
0.835568
20
-0.0855678
11
0.833013
21
-0.0872746
0
LINE
8
BLACK
6
CONTINUOUS
10
0.833013
20
-0.0872746
11
0.83
21
-0.087874
0
LINE
8
BLACK
6
CONTINUOUS
10
0.83
20
-0.087874
11
0.77
21
-0.087874
0
LINE
8
BLACK
6
CONTINUOUS
10
0.77
20
-0.087874
11
0.766987
21
-0.0872746
0
LINE
8
BLACK
6
CONTINUOUS
10
0.766987
20
-0.0872746
11
0.764432
21
-0.0855678
0
LINE
8
BLACK
6
CONTINUOUS
10
0.764432
20
-0.0855678
11
0.762725
21
-0.0830133
0
LINE
8
BLACK
6
CONTINUOUS
10
0.762725
20
-0.0830133
11
0.762126
21
-0.08
0
LINE
8
BLACK
6
CONTINUOUS
10
0.762126
20
-0.08
11
0.762126
21
-0.02
0
LINE
8
BLACK
6
CONTINUOUS
10
0.762126
20
-0.02
11
0.762725
21
-0.0169867
0
LINE
8
BLACK
6
CONTINUOUS
10
0.762725
20
-0.0169867
11
0.764432
21
-0.0144322
0
LINE
8
BLACK
6
CONTINUOUS
10
0.764432
20
-0.0144322
11
0.766987
21
-0.0127254
0
LINE
8
BLACK
6
CONTINUOUS
10
0.766987
20
-0.0127254
11
0.77
21
-0.012126
0
LINE
8
BLACK
6
CONTINUOUS
10
0.77
20
-0.012126
11
0.83
21
-0.012126
0
LINE
8
BLACK
6
CONTINUOUS
10
0.83
20
-0.012126
11
0.833013
21
-0.0127254
0
LINE
8
BLACK
6
CONTINUOUS
10
0.933013
20
-0.0127254
11
0.935568
21
-0.0144322
0
LINE
8
BLACK
6
CONTINUOUS
10
0.935568
20
-0.0144322
11
0.937275
21
-0.0169867
0
LINE
8
BLACK
6
CONTINUOUS
10
0.937275
20
-0.0169867
11
0.937874
21
-0.02
0
LINE
8
BLACK
6
CONTINUOUS
10
0.937874
20
-0.02
11
0.937874
21
-0.08
0
LINE
8
BLACK
6
CONTINUOUS
10
0.937874
20
-0.08
11
0.937275
21
-0.0830133
0
LINE
8
BLACK
6
CONTINUOUS
10
0.937275
20
-0.0830133
11
0.935568
21
-0.0855678
0
LINE
8
BLACK
6
CONTINUOUS
10
0.935568
20
-0.0855678
11
0.933013
21
-0.0872746
0
LINE
8
BLACK
6
CONTINUOUS
10
0.933013
20
-0.0872746
11
0.93
21
-0.087874
0
LINE
8
BLACK
6
CONTINUOUS
10
0.93
20
-0.087874
11
0.87
21
-0.087874
0
LINE
8
BLACK
6
CONTINUOUS
10
0.87
20
-0.087874
11
0.866987
21
-0.0872746
0
LINE
8
BLACK
6
CONTINUOUS
10
0.866987
20
-0.0872746
11
0.864432
21
-0.0855678
0
LINE
8
BLACK
6
CONTINUOUS
10
0.864432
20
-0.0855678
11
0.862725
21
-0.0830133
0
LINE
8
BLACK
6
CONTINUOUS
10
0.862725
20
-0.0830133
11
0.862126
21
-0.08
0
LINE
8
BLACK
6
CONTINUOUS
10
0.862126
20
-0.08
11
0.862126
21
-0.02
0
LINE
8
BLACK
6
CONTINUOUS
10
0.862126
20
-0.02
11
0.862725
21
-0.0169867
0
LINE
8
BLACK
6
CONTINUOUS
10
0.862725
20
-0.0169867
11
0.864432
21
-0.0144322
0
LINE
8
BLACK
6
CONTINUOUS
10
0.864432
20
-0.0144322
11
0.866987
21
-0.0127254
0
LINE
8
BLACK
6
CONTINUOUS
10
0.866987
20
-0.0127254
11
0.87
21
-0.012126
0
LINE
8
BLACK
6
CONTINUOUS
10
0.87
20
-0.012126
11
0.93
21
-0.012126
0
LINE
8
BLACK
6
CONTINUOUS
10
0.93
20
-0.012126
11
0.933013
21
-0.0127254
0
LINE
8
BLACK
6
CONTINUOUS
10
1.15301
20
-0.0127254
11
1.15557
21
-0.0144322
0
LINE
8
BLACK
6
CONTINUOUS
10
1.15557
20
-0.0144322
11
1.15727
21
-0.0169867
0
LINE
8
BLACK
6
CONTINUOUS
10
1.15727
20
-0.0169867
11
1.15787
21
-0.02
0
LINE
8
BLACK
6
CONTINUOUS
10
1.15787
20
-0.02
11
1.15787
21
-0.08
0
LINE
8
BLACK
6
CONTINUOUS
10
1.15787
20
-0.08
11
1.15727
21
-0.0830133
0
LINE
8
BLACK
6
CONTINUOUS
10
1.15727
20
-0.0830133
11
1.15557
21
-0.0855678
0
LINE
8
BLACK
6
CONTINUOUS
10
1.15557
20
-0.0855678
11
1.15301
21
-0.0872746
0
LINE
8
BLACK
6
CONTINUOUS
10
1.15301
20
-0.0872746
11
1.15
21
-0.087874
0
LINE
8
BLACK
6
CONTINUOUS
10
1.15
20
-0.087874
11
1.09
21
-0.087874
0
LINE
8
BLACK
6
CONTINUOUS
10
1.09
20
-0.087874
11
1.08699
21
-0.0872746
0
LINE
8
BLACK
6
CONTINUOUS
10
1.08699
20
-0.0872746
11
1.08443
21
-0.0855678
0
LINE
8
BLACK
6
CONTINUOUS
10
1.08443
20
-0.0855678
11
1.08273
21
-0.0830133
0
LINE
8
BLACK
6
CONTINUOUS
10
1.08273
20
-0.0830133
11
1.08213
21
-0.08
0
LINE
8
BLACK
6
CONTINUOUS
10
1.08213
20
-0.08
11
1.08213
21
-0.02
0
LINE
8
BLACK
6
CONTINUOUS
10
1.08213
20
-0.02
11
1.08273
21
-0.0169867
0
LINE
8
BLACK
6
CONTINUOUS
10
1.08273
20
-0.0169867
11
1.08443
21
-0.0144322
0
LINE
8
BLACK
6
CONTINUOUS
10
1.08443
20
-0.0144322
11
1.08699
21
-0.0127254
0
LINE
8
BLACK
6
CONTINUOUS
10
1.08699
20
-0.0127254
11
1.09
21
-0.012126
0
LINE
8
BLACK
6
CONTINUOUS
10
1.09
20
-0.012126
11
1.15
21
-0.012126
0
LINE
8
BLACK
6
CONTINUOUS
10
1.15
20
-0.012126
11
1.15301
21
-0.0127254
0
LINE
8
BLACK
6
CONTINUOUS
10
1.25301
20
-0.0127254
11
1.25557
21
-0.0144322
0
LINE
8
BLACK
6
CONTINUOUS
10
1.25557
20
-0.0144322
11
1.25727
21
-0.0169867
0
LINE
8
BLACK
6
CONTINUOUS
10
1.25727
20
-0.0169867
11
1.25787
21
-0.02
0
LINE
8
BLACK
6
CONTINUOUS
10
1.25787
20
-0.02
11
1.25787
21
-0.08
0
LINE
8
BLACK
6
CONTINUOUS
10
1.25787
20
-0.08
11
1.25727
21
-0.0830133
0
LINE
8
BLACK
6
CONTINUOUS
10
1.25727
20
-0.0830133
11
1.25557
21
-0.0855678
0
LINE
8
BLACK
6
CONTINUOUS
10
1.25557
20
-0.0855678
11
1.25301
21
-0.0872746
0
LINE
8
BLACK
6
CONTINUOUS
10
1.25301
20
-0.0872746
11
1.25
21
-0.087874
0
LINE
8
BLACK
6
CONTINUOUS
10
1.25
20
-0.087874
11
1.19
21
-0.087874
0
LINE
8
BLACK
6
CONTINUOUS
10
1.19
20
-0.087874
11
1.18699
21
-0.0872746
0
LINE
8
BLACK
6
CONTINUOUS
10
1.18699
20
-0.0872746
11
1.18443
21
-0.0855678
0
LINE
8
BLACK
6
CONTINUOUS
10
1.18443
20
-0.0855678
11
1.18273
21
-0.0830133
0
LINE
8
BLACK
6
CONTINUOUS
10
1.18273
20
-0.0830133
11
1.18213
21
-0.08
0
LINE
8
BLACK
6
CONTINUOUS
10
1.18213
20
-0.08
11
1.18213
21
-0.02
0
LINE
8
BLACK
6
CONTINUOUS
10
1.18213
20
-0.02
11
1.18273
21
-0.0169867
0
LINE
8
BLACK
6
CONTINUOUS
10
1.18273
20
-0.0169867
11
1.18443
21
-0.0144322
0
LINE
8
BLACK
6
CONTINUOUS
10
1.18443
20
-0.0144322
11
1.18699
21
-0.0127254
0
LINE
8
BLACK
6
CONTINUOUS
10
1.18699
20
-0.0127254
11
1.19
21
-0.012126
0
LINE
8
BLACK
6
CONTINUOUS
10
1.19
20
-0.012126
11
1.25
21
-0.012126
0
LINE
8
BLACK
6
CONTINUOUS
10
1.25
20
-0.012126
11
1.25301
21
-0.0127254
0
LINE
8
BLACK
6
CONTINUOUS
10
1.35301
20
-0.0127254
11
1.35557
21
-0.0144322
0
LINE
8
BLACK
6
CONTINUOUS
10
1.35557
20
-0.0144322
11
1.35727
21
-0.0169867
0
LINE
8
BLACK
6
CONTINUOUS
10
1.35727
20
-0.0169867
11
1.35787
21
-0.02
0
LINE
8
BLACK
6
CONTINUOUS
10
1.35787
20
-0.02
11
1.35787
21
-0.08
0
LINE
8
BLACK
6
CONTINUOUS
10
1.35787
20
-0.08
11
1.35727
21
-0.0830133
0
LINE
8
BLACK
6
CONTINUOUS
10
1.35727
20
-0.0830133
11
1.35557
21
-0.0855678
0
LINE
8
BLACK
6
CONTINUOUS
10
1.35557
20
-0.0855678
11
1.35301
21
-0.0872746
0
LINE
8
BLACK
6
CONTINUOUS
10
1.35301
20
-0.0872746
11
1.35
21
-0.087874
0
LINE
8
BLACK
6
CONTINUOUS
10
1.35
20
-0.087874
11
1.29
21
-0.087874
0
LINE
8
BLACK
6
CONTINUOUS
10
1.29
20
-0.087874
11
1.28699
21
-0.0872746
0
LINE
8
BLACK
6
CONTINUOUS
10
1.28699
20
-0.0872746
11
1.28443
21
-0.0855678
0
LINE
8
BLACK
6
CONTINUOUS
10
1.28443
20
-0.0855678
11
1.28273
21
-0.0830133
0
LINE
8
BLACK
6
CONTINUOUS
10
1.28273
20
-0.0830133
11
1.28213
21
-0.08
0
LINE
8
BLACK
6
CONTINUOUS
10
1.28213
20
-0.08
11
1.28213
21
-0.02
0
LINE
8
BLACK
6
CONTINUOUS
10
1.28213
20
-0.02
11
1.28273
21
-0.0169867
0
LINE
8
BLACK
6
CONTINUOUS
10
1.28273
20
-0.0169867
11
1.28443
21
-0.0144322
0
LINE
8
BLACK
6
CONTINUOUS
10
1.28443
20
-0.0144322
11
1.28699
21
-0.0127254
0
LINE
8
BLACK
6
CONTINUOUS
10
1.28699
20
-0.0127254
11
1.29
21
-0.012126
0
LINE
8
BLACK
6
CONTINUOUS
10
1.29
20
-0.012126
11
1.35
21
-0.012126
0
LINE
8
BLACK
6
CONTINUOUS
10
1.35
20
-0.012126
11
1.35301
21
-0.0127254
0
LINE
8
BLACK
6
CONTINUOUS
10
1.45301
20
-0.0127254
11
1.45557
21
-0.0144322
0
LINE
8
BLACK
6
CONTINUOUS
10
1.45557
20
-0.0144322
11
1.45727
21
-0.0169867
0
LINE
8
BLACK
6
CONTINUOUS
10
1.45727
20
-0.0169867
11
1.45787
21
-0.02
0
LINE
8
BLACK
6
CONTINUOUS
10
1.45787
20
-0.02
11
1.45787
21
-0.08
0
LINE
8
BLACK
6
CONTINUOUS
10
1.45787
20
-0.08
11
1.45727
21
-0.0830133
0
LINE
8
BLACK
6
CONTINUOUS
10
1.45727
20
-0.0830133
11
1.45557
21
-0.0855678
0
LINE
8
BLACK
6
CONTINUOUS
10
1.45557
20
-0.0855678
11
1.45301
21
-0.0872746
0
LINE
8
BLACK
6
CONTINUOUS
10
1.45301
20
-0.0872746
11
1.45
21
-0.087874
0
LINE
8
BLACK
6
CONTINUOUS
10
1.45
20
-0.087874
11
1.39
21
-0.087874
0
LINE
8
BLACK
6
CONTINUOUS
10
1.39
20
-0.087874
11
1.38699
21
-0.0872746
0
LINE
8
BLACK
6
CONTINUOUS
10
1.38699
20
-0.0872746
11
1.38443
21
-0.0855678
0
LINE
8
BLACK
6
CONTINUOUS
10
1.38443
20
-0.0855678
11
1.38273
21
-0.0830133
0
LINE
8
BLACK
6
CONTINUOUS
10
1.38273
20
-0.0830133
11
1.38213
21
-0.08
0
LINE
8
BLACK
6
CONTINUOUS
10
1.38213
20
-0.08
11
1.38213
21
-0.02
0
LINE
8
BLACK
6
CONTINUOUS
10
1.38213
20
-0.02
11
1.38273
21
-0.0169867
0
LINE
8
BLACK
6
CONTINUOUS
10
1.38273
20
-0.0169867
11
1.38443
21
-0.0144322
0
LINE
8
BLACK
6
CONTINUOUS
10
1.38443
20
-0.0144322
11
1.38699
21
-0.0127254
0
LINE
8
BLACK
6
CONTINUOUS
10
1.38699
20
-0.0127254
11
1.39
21
-0.012126
0
LINE
8
BLACK
6
CONTINUOUS
10
1.39
20
-0.012126
11
1.45
21
-0.012126
0
LINE
8
BLACK
6
CONTINUOUS
10
1.45
20
-0.012126
11
1.45301
21
-0.0127254
0
LINE
8
BLACK
6
CONTINUOUS
10
1.55301
20
-0.0127254
11
1.55557
21
-0.0144322
0
LINE
8
BLACK
6
CONTINUOUS
10
1.55557
20
-0.0144322
11
1.55727
21
-0.0169867
0
LINE
8
BLACK
6
CONTINUOUS
10
1.55727
20
-0.0169867
11
1.55787
21
-0.02
0
LINE
8
BLACK
6
CONTINUOUS
10
1.55787
20
-0.02
11
1.55787
21
-0.08
0
LINE
8
BLACK
6
CONTINUOUS
10
1.55787
20
-0.08
11
1.55727
21
-0.0830133
0
LINE
8
BLACK
6
CONTINUOUS
10
1.55727
20
-0.0830133
11
1.55557
21
-0.0855678
0
LINE
8
BLACK
6
CONTINUOUS
10
1.55557
20
-0.0855678
11
1.55301
21
-0.0872746
0
LINE
8
BLACK
6
CONTINUOUS
10
1.55301
20
-0.0872746
11
1.55
21
-0.087874
0
LINE
8
BLACK
6
CONTINUOUS
10
1.55
20
-0.087874
11
1.49
21
-0.087874
0
LINE
8
BLACK
6
CONTINUOUS
10
1.49
20
-0.087874
11
1.48699
21
-0.0872746
0
LINE
8
BLACK
6
CONTINUOUS
10
1.48699
20
-0.0872746
11
1.48443
21
-0.0855678
0
LINE
8
BLACK
6
CONTINUOUS
10
1.48443
20
-0.0855678
11
1.48273
21
-0.0830133
0
LINE
8
BLACK
6
CONTINUOUS
10
1.48273
20
-0.0830133
11
1.48213
21
-0.08
0
LINE
8
BLACK
6
CONTINUOUS
10
1.48213
20
-0.08
11
1.48213
21
-0.02
0
LINE
8
BLACK
6
CONTINUOUS
10
1.48213
20
-0.02
11
1.48273
21
-0.0169867
0
LINE
8
BLACK
6
CONTINUOUS
10
1.48273
20
-0.0169867
11
1.48443
21
-0.0144322
0
LINE
8
BLACK
6
CONTINUOUS
10
1.48443
20
-0.0144322
11
1.48699
21
-0.0127254
0
LINE
8
BLACK
6
CONTINUOUS
10
1.48699
20
-0.0127254
11
1.49
21
-0.012126
0
LINE
8
BLACK
6
CONTINUOUS
10
1.49
20
-0.012126
11
1.55
21
-0.012126
0
LINE
8
BLACK
6
CONTINUOUS
10
1.55
20
-0.012126
11
1.55301
21
-0.0127254
0
LINE
8
BLACK
6
CONTINUOUS
10
1.65301
20
-0.0127254
11
1.65557
21
-0.0144322
0
LINE
8
BLACK
6
CONTINUOUS
10
1.65557
20
-0.0144322
11
1.65727
21
-0.0169867
0
LINE
8
BLACK
6
CONTINUOUS
10
1.65727
20
-0.0169867
11
1.65787
21
-0.02
0
LINE
8
BLACK
6
CONTINUOUS
10
1.65787
20
-0.02
11
1.65787
21
-0.08
0
LINE
8
BLACK
6
CONTINUOUS
10
1.65787
20
-0.08
11
1.65727
21
-0.0830133
0
LINE
8
BLACK
6
CONTINUOUS
10
1.65727
20
-0.0830133
11
1.65557
21
-0.0855678
0
LINE
8
BLACK
6
CONTINUOUS
10
1.65557
20
-0.0855678
11
1.65301
21
-0.0872746
0
LINE
8
BLACK
6
CONTINUOUS
10
1.65301
20
-0.0872746
11
1.65
21
-0.087874
0
LINE
8
BLACK
6
CONTINUOUS
10
1.65
20
-0.087874
11
1.59
21
-0.087874
0
LINE
8
BLACK
6
CONTINUOUS
10
1.59
20
-0.087874
11
1.58699
21
-0.0872746
0
LINE
8
BLACK
6
CONTINUOUS
10
1.58699
20
-0.0872746
11
1.58443
21
-0.0855678
0
LINE
8
BLACK
6
CONTINUOUS
10
1.58443
20
-0.0855678
11
1.58273
21
-0.0830133
0
LINE
8
BLACK
6
CONTINUOUS
10
1.58273
20
-0.0830133
11
1.58213
21
-0.08
0
LINE
8
BLACK
6
CONTINUOUS
10
1.58213
20
-0.08
11
1.58213
21
-0.02
0
LINE
8
BLACK
6
CONTINUOUS
10
1.58213
20
-0.02
11
1.58273
21
-0.0169867
0
LINE
8
BLACK
6
CONTINUOUS
10
1.58273
20
-0.0169867
11
1.58443
21
-0.0144322
0
LINE
8
BLACK
6
CONTINUOUS
10
1.58443
20
-0.0144322
11
1.58699
21
-0.0127254
0
LINE
8
BLACK
6
CONTINUOUS
10
1.58699
20
-0.0127254
11
1.59
21
-0.012126
0
LINE
8
BLACK
6
CONTINUOUS
10
1.59
20
-0.012126
11
1.65
21
-0.012126
0
LINE
8
BLACK
6
CONTINUOUS
10
1.65
20
-0.012126
11
1.65301
21
-0.0127254
0
LINE
8
BLACK
6
CONTINUOUS
10
1.75301
20
-0.0127254
11
1.75557
21
-0.0144322
0
LINE
8
BLACK
6
CONTINUOUS
10
1.75557
20
-0.0144322
11
1.75727
21
-0.0169867
0
LINE
8
BLACK
6
CONTINUOUS
10
1.75727
20
-0.0169867
11
1.75787
21
-0.02
0
LINE
8
BLACK
6
CONTINUOUS
10
1.75787
20
-0.02
11
1.75787
21
-0.08
0
LINE
8
BLACK
6
CONTINUOUS
10
1.75787
20
-0.08
11
1.75727
21
-0.0830133
0
LINE
8
BLACK
6
CONTINUOUS
10
1.75727
20
-0.0830133
11
1.75557
21
-0.0855678
0
LINE
8
BLACK
6
CONTINUOUS
10
1.75557
20
-0.0855678
11
1.75301
21
-0.0872746
0
LINE
8
BLACK
6
CONTINUOUS
10
1.75301
20
-0.0872746
11
1.75
21
-0.087874
0
LINE
8
BLACK
6
CONTINUOUS
10
1.75
20
-0.087874
11
1.69
21
-0.087874
0
LINE
8
BLACK
6
CONTINUOUS
10
1.69
20
-0.087874
11
1.68699
21
-0.0872746
0
LINE
8
BLACK
6
CONTINUOUS
10
1.68699
20
-0.0872746
11
1.68443
21
-0.0855678
0
LINE
8
BLACK
6
CONTINUOUS
10
1.68443
20
-0.0855678
11
1.68273
21
-0.0830133
0
LINE
8
BLACK
6
CONTINUOUS
10
1.68273
20
-0.0830133
11
1.68213
21
-0.08
0
LINE
8
BLACK
6
CONTINUOUS
10
1.68213
20
-0.08
11
1.68213
21
-0.02
0
LINE
8
BLACK
6
CONTINUOUS
10
1.68213
20
-0.02
11
1.68273
21
-0.0169867
0
LINE
8
BLACK
6
CONTINUOUS
10
1.68273
20
-0.0169867
11
1.68443
21
-0.0144322
0
LINE
8
BLACK
6
CONTINUOUS
10
1.68443
20
-0.0144322
11
1.68699
21
-0.0127254
0
LINE
8
BLACK
6
CONTINUOUS
10
1.68699
20
-0.0127254
11
1.69
21
-0.012126
0
LINE
8
BLACK
6
CONTINUOUS
10
1.69
20
-0.012126
11
1.75
21
-0.012126
0
LINE
8
BLACK
6
CONTINUOUS
10
1.75
20
-0.012126
11
1.75301
21
-0.0127254
0
LINE
8
BLACK
6
CONTINUOUS
10
0.333013
20
0.0872746
11
0.335568
21
0.0855678
0
LINE
8
BLACK
6
CONTINUOUS
10
0.335568
20
0.0855678
11
0.337275
21
0.0830133
0
LINE
8
BLACK
6
CONTINUOUS
10
0.337275
20
0.0830133
11
0.337874
21
0.08
0
LINE
8
BLACK
6
CONTINUOUS
10
0.337874
20
0.08
11
0.337874
21
0.02
0
LINE
8
BLACK
6
CONTINUOUS
10
0.337874
20
0.02
11
0.337275
21
0.0169867
0
LINE
8
BLACK
6
CONTINUOUS
10
0.337275
20
0.0169867
11
0.335568
21
0.0144322
0
LINE
8
BLACK
6
CONTINUOUS
10
0.335568
20
0.0144322
11
0.333013
21
0.0127254
0
LINE
8
BLACK
6
CONTINUOUS
10
0.333013
20
0.0127254
11
0.33
21
0.012126
0
LINE
8
BLACK
6
CONTINUOUS
10
0.33
20
0.012126
11
0.27
21
0.012126
0
LINE
8
BLACK
6
CONTINUOUS
10
0.27
20
0.012126
11
0.266987
21
0.0127254
0
LINE
8
BLACK
6
CONTINUOUS
10
0.266987
20
0.0127254
11
0.264432
21
0.0144322
0
LINE
8
BLACK
6
CONTINUOUS
10
0.264432
20
0.0144322
11
0.262725
21
0.0169867
0
LINE
8
BLACK
6
CONTINUOUS
10
0.262725
20
0.0169867
11
0.262126
21
0.02
0
LINE
8
BLACK
6
CONTINUOUS
10
0.262126
20
0.02
11
0.262126
21
0.08
0
LINE
8
BLACK
6
CONTINUOUS
10
0.262126
20
0.08
11
0.262725
21
0.0830133
0
LINE
8
BLACK
6
CONTINUOUS
10
0.262725
20
0.0830133
11
0.264432
21
0.0855678
0
LINE
8
BLACK
6
CONTINUOUS
10
0.264432
20
0.0855678
11
0.266987
21
0.0872746
0
LINE
8
BLACK
6
CONTINUOUS
10
0.266987
20
0.0872746
11
0.27
21
0.087874
0
LINE
8
BLACK
6
CONTINUOUS
10
0.27
20
0.087874
11
0.33
21
0.087874
0
LINE
8
BLACK
6
CONTINUOUS
10
0.33
20
0.087874
11
0.333013
21
0.0872746
0
LINE
8
BLACK
6
CONTINUOUS
10
0.433013
20
0.0872746
11
0.435568
21
0.0855678
0
LINE
8
BLACK
6
CONTINUOUS
10
0.435568
20
0.0855678
11
0.437275
21
0.0830133
0
LINE
8
BLACK
6
CONTINUOUS
10
0.437275
20
0.0830133
11
0.437874
21
0.08
0
LINE
8
BLACK
6
CONTINUOUS
10
0.437874
20
0.08
11
0.437874
21
0.02
0
LINE
8
BLACK
6
CONTINUOUS
10
0.437874
20
0.02
11
0.437275
21
0.0169867
0
LINE
8
BLACK
6
CONTINUOUS
10
0.437275
20
0.0169867
11
0.435568
21
0.0144322
0
LINE
8
BLACK
6
CONTINUOUS
10
0.435568
20
0.0144322
11
0.433013
21
0.0127254
0
LINE
8
BLACK
6
CONTINUOUS
10
0.433013
20
0.0127254
11
0.43
21
0.012126
0
LINE
8
BLACK
6
CONTINUOUS
10
0.43
20
0.012126
11
0.37
21
0.012126
0
LINE
8
BLACK
6
CONTINUOUS
10
0.37
20
0.012126
11
0.366987
21
0.0127254
0
LINE
8
BLACK
6
CONTINUOUS
10
0.366987
20
0.0127254
11
0.364432
21
0.0144322
0
LINE
8
BLACK
6
CONTINUOUS
10
0.364432
20
0.0144322
11
0.362725
21
0.0169867
0
LINE
8
BLACK
6
CONTINUOUS
10
0.362725
20
0.0169867
11
0.362126
21
0.02
0
LINE
8
BLACK
6
CONTINUOUS
10
0.362126
20
0.02
11
0.362126
21
0.08
0
LINE
8
BLACK
6
CONTINUOUS
10
0.362126
20
0.08
11
0.362725
21
0.0830133
0
LINE
8
BLACK
6
CONTINUOUS
10
0.362725
20
0.0830133
11
0.364432
21
0.0855678
0
LINE
8
BLACK
6
CONTINUOUS
10
0.364432
20
0.0855678
11
0.366987
21
0.0872746
0
LINE
8
BLACK
6
CONTINUOUS
10
0.366987
20
0.0872746
11
0.37
21
0.087874
0
LINE
8
BLACK
6
CONTINUOUS
10
0.37
20
0.087874
11
0.43
21
0.087874
0
LINE
8
BLACK
6
CONTINUOUS
10
0.43
20
0.087874
11
0.433013
21
0.0872746
0
LINE
8
BLACK
6
CONTINUOUS
10
0.533013
20
0.0872746
11
0.535568
21
0.0855678
0
LINE
8
BLACK
6
CONTINUOUS
10
0.535568
20
0.0855678
11
0.537275
21
0.0830133
0
LINE
8
BLACK
6
CONTINUOUS
10
0.537275
20
0.0830133
11
0.537874
21
0.08
0
LINE
8
BLACK
6
CONTINUOUS
10
0.537874
20
0.08
11
0.537874
21
0.02
0
LINE
8
BLACK
6
CONTINUOUS
10
0.537874
20
0.02
11
0.537275
21
0.0169867
0
LINE
8
BLACK
6
CONTINUOUS
10
0.537275
20
0.0169867
11
0.535568
21
0.0144322
0
LINE
8
BLACK
6
CONTINUOUS
10
0.535568
20
0.0144322
11
0.533013
21
0.0127254
0
LINE
8
BLACK
6
CONTINUOUS
10
0.533013
20
0.0127254
11
0.53
21
0.012126
0
LINE
8
BLACK
6
CONTINUOUS
10
0.53
20
0.012126
11
0.47
21
0.012126
0
LINE
8
BLACK
6
CONTINUOUS
10
0.47
20
0.012126
11
0.466987
21
0.0127254
0
LINE
8
BLACK
6
CONTINUOUS
10
0.466987
20
0.0127254
11
0.464432
21
0.0144322
0
LINE
8
BLACK
6
CONTINUOUS
10
0.464432
20
0.0144322
11
0.462725
21
0.0169867
0
LINE
8
BLACK
6
CONTINUOUS
10
0.462725
20
0.0169867
11
0.462126
21
0.02
0
LINE
8
BLACK
6
CONTINUOUS
10
0.462126
20
0.02
11
0.462126
21
0.08
0
LINE
8
BLACK
6
CONTINUOUS
10
0.462126
20
0.08
11
0.462725
21
0.0830133
0
LINE
8
BLACK
6
CONTINUOUS
10
0.462725
20
0.0830133
11
0.464432
21
0.0855678
0
LINE
8
BLACK
6
CONTINUOUS
10
0.464432
20
0.0855678
11
0.466987
21
0.0872746
0
LINE
8
BLACK
6
CONTINUOUS
10
0.466987
20
0.0872746
11
0.47
21
0.087874
0
LINE
8
BLACK
6
CONTINUOUS
10
0.47
20
0.087874
11
0.53
21
0.087874
0
LINE
8
BLACK
6
CONTINUOUS
10
0.53
20
0.087874
11
0.533013
21
0.0872746
0
LINE
8
BLACK
6
CONTINUOUS
10
0.633013
20
0.0872746
11
0.635568
21
0.0855678
0
LINE
8
BLACK
6
CONTINUOUS
10
0.635568
20
0.0855678
11
0.637275
21
0.0830133
0
LINE
8
BLACK
6
CONTINUOUS
10
0.637275
20
0.0830133
11
0.637874
21
0.08
0
LINE
8
BLACK
6
CONTINUOUS
10
0.637874
20
0.08
11
0.637874
21
0.02
0
LINE
8
BLACK
6
CONTINUOUS
10
0.637874
20
0.02
11
0.637275
21
0.0169867
0
LINE
8
BLACK
6
CONTINUOUS
10
0.637275
20
0.0169867
11
0.635568
21
0.0144322
0
LINE
8
BLACK
6
CONTINUOUS
10
0.635568
20
0.0144322
11
0.633013
21
0.0127254
0
LINE
8
BLACK
6
CONTINUOUS
10
0.633013
20
0.0127254
11
0.63
21
0.012126
0
LINE
8
BLACK
6
CONTINUOUS
10
0.63
20
0.012126
11
0.57
21
0.012126
0
LINE
8
BLACK
6
CONTINUOUS
10
0.57
20
0.012126
11
0.566987
21
0.0127254
0
LINE
8
BLACK
6
CONTINUOUS
10
0.566987
20
0.0127254
11
0.564432
21
0.0144322
0
LINE
8
BLACK
6
CONTINUOUS
10
0.564432
20
0.0144322
11
0.562725
21
0.0169867
0
LINE
8
BLACK
6
CONTINUOUS
10
0.562725
20
0.0169867
11
0.562126
21
0.02
0
LINE
8
BLACK
6
CONTINUOUS
10
0.562126
20
0.02
11
0.562126
21
0.08
0
LINE
8
BLACK
6
CONTINUOUS
10
0.562126
20
0.08
11
0.562725
21
0.0830133
0
LINE
8
BLACK
6
CONTINUOUS
10
0.562725
20
0.0830133
11
0.564432
21
0.0855678
0
LINE
8
BLACK
6
CONTINUOUS
10
0.564432
20
0.0855678
11
0.566987
21
0.0872746
0
LINE
8
BLACK
6
CONTINUOUS
10
0.566987
20
0.0872746
11
0.57
21
0.087874
0
LINE
8
BLACK
6
CONTINUOUS
10
0.57
20
0.087874
11
0.63
21
0.087874
0
LINE
8
BLACK
6
CONTINUOUS
10
0.63
20
0.087874
11
0.633013
21
0.0872746
0
LINE
8
BLACK
6
CONTINUOUS
10
0.733013
20
0.0872746
11
0.735568
21
0.0855678
0
LINE
8
BLACK
6
CONTINUOUS
10
0.735568
20
0.0855678
11
0.737275
21
0.0830133
0
LINE
8
BLACK
6
CONTINUOUS
10
0.737275
20
0.0830133
11
0.737874
21
0.08
0
LINE
8
BLACK
6
CONTINUOUS
10
0.737874
20
0.08
11
0.737874
21
0.02
0
LINE
8
BLACK
6
CONTINUOUS
10
0.737874
20
0.02
11
0.737275
21
0.0169867
0
LINE
8
BLACK
6
CONTINUOUS
10
0.737275
20
0.0169867
11
0.735568
21
0.0144322
0
LINE
8
BLACK
6
CONTINUOUS
10
0.735568
20
0.0144322
11
0.733013
21
0.0127254
0
LINE
8
BLACK
6
CONTINUOUS
10
0.733013
20
0.0127254
11
0.73
21
0.012126
0
LINE
8
BLACK
6
CONTINUOUS
10
0.73
20
0.012126
11
0.67
21
0.012126
0
LINE
8
BLACK
6
CONTINUOUS
10
0.67
20
0.012126
11
0.666987
21
0.0127254
0
LINE
8
BLACK
6
CONTINUOUS
10
0.666987
20
0.0127254
11
0.664432
21
0.0144322
0
LINE
8
BLACK
6
CONTINUOUS
10
0.664432
20
0.0144322
11
0.662725
21
0.0169867
0
LINE
8
BLACK
6
CONTINUOUS
10
0.662725
20
0.0169867
11
0.662126
21
0.02
0
LINE
8
BLACK
6
CONTINUOUS
10
0.662126
20
0.02
11
0.662126
21
0.08
0
LINE
8
BLACK
6
CONTINUOUS
10
0.662126
20
0.08
11
0.662725
21
0.0830133
0
LINE
8
BLACK
6
CONTINUOUS
10
0.662725
20
0.0830133
11
0.664432
21
0.0855678
0
LINE
8
BLACK
6
CONTINUOUS
10
0.664432
20
0.0855678
11
0.666987
21
0.0872746
0
LINE
8
BLACK
6
CONTINUOUS
10
0.666987
20
0.0872746
11
0.67
21
0.087874
0
LINE
8
BLACK
6
CONTINUOUS
10
0.67
20
0.087874
11
0.73
21
0.087874
0
LINE
8
BLACK
6
CONTINUOUS
10
0.73
20
0.087874
11
0.733013
21
0.0872746
0
LINE
8
BLACK
6
CONTINUOUS
10
0.833013
20
0.0872746
11
0.835568
21
0.0855678
0
LINE
8
BLACK
6
CONTINUOUS
10
0.835568
20
0.0855678
11
0.837275
21
0.0830133
0
LINE
8
BLACK
6
CONTINUOUS
10
0.837275
20
0.0830133
11
0.837874
21
0.08
0
LINE
8
BLACK
6
CONTINUOUS
10
0.837874
20
0.08
11
0.837874
21
0.02
0
LINE
8
BLACK
6
CONTINUOUS
10
0.837874
20
0.02
11
0.837275
21
0.0169867
0
LINE
8
BLACK
6
CONTINUOUS
10
0.837275
20
0.0169867
11
0.835568
21
0.0144322
0
LINE
8
BLACK
6
CONTINUOUS
10
0.835568
20
0.0144322
11
0.833013
21
0.0127254
0
LINE
8
BLACK
6
CONTINUOUS
10
0.833013
20
0.0127254
11
0.83
21
0.012126
0
LINE
8
BLACK
6
CONTINUOUS
10
0.83
20
0.012126
11
0.77
21
0.012126
0
LINE
8
BLACK
6
CONTINUOUS
10
0.77
20
0.012126
11
0.766987
21
0.0127254
0
LINE
8
BLACK
6
CONTINUOUS
10
0.766987
20
0.0127254
11
0.764432
21
0.0144322
0
LINE
8
BLACK
6
CONTINUOUS
10
0.764432
20
0.0144322
11
0.762725
21
0.0169867
0
LINE
8
BLACK
6
CONTINUOUS
10
0.762725
20
0.0169867
11
0.762126
21
0.02
0
LINE
8
BLACK
6
CONTINUOUS
10
0.762126
20
0.02
11
0.762126
21
0.08
0
LINE
8
BLACK
6
CONTINUOUS
10
0.762126
20
0.08
11
0.762725
21
0.0830133
0
LINE
8
BLACK
6
CONTINUOUS
10
0.762725
20
0.0830133
11
0.764432
21
0.0855678
0
LINE
8
BLACK
6
CONTINUOUS
10
0.764432
20
0.0855678
11
0.766987
21
0.0872746
0
LINE
8
BLACK
6
CONTINUOUS
10
0.766987
20
0.0872746
11
0.77
21
0.087874
0
LINE
8
BLACK
6
CONTINUOUS
10
0.77
20
0.087874
11
0.83
21
0.087874
0
LINE
8
BLACK
6
CONTINUOUS
10
0.83
20
0.087874
11
0.833013
21
0.0872746
0
LINE
8
BLACK
6
CONTINUOUS
10
0.933013
20
0.0872746
11
0.935568
21
0.0855678
0
LINE
8
BLACK
6
CONTINUOUS
10
0.935568
20
0.0855678
11
0.937275
21
0.0830133
0
LINE
8
BLACK
6
CONTINUOUS
10
0.937275
20
0.0830133
11
0.937874
21
0.08
0
LINE
8
BLACK
6
CONTINUOUS
10
0.937874
20
0.08
11
0.937874
21
0.02
0
LINE
8
BLACK
6
CONTINUOUS
10
0.937874
20
0.02
11
0.937275
21
0.0169867
0
LINE
8
BLACK
6
CONTINUOUS
10
0.937275
20
0.0169867
11
0.935568
21
0.0144322
0
LINE
8
BLACK
6
CONTINUOUS
10
0.935568
20
0.0144322
11
0.933013
21
0.0127254
0
LINE
8
BLACK
6
CONTINUOUS
10
0.933013
20
0.0127254
11
0.93
21
0.012126
0
LINE
8
BLACK
6
CONTINUOUS
10
0.93
20
0.012126
11
0.87
21
0.012126
0
LINE
8
BLACK
6
CONTINUOUS
10
0.87
20
0.012126
11
0.866987
21
0.0127254
0
LINE
8
BLACK
6
CONTINUOUS
10
0.866987
20
0.0127254
11
0.864432
21
0.0144322
0
LINE
8
BLACK
6
CONTINUOUS
10
0.864432
20
0.0144322
11
0.862725
21
0.0169867
0
LINE
8
BLACK
6
CONTINUOUS
10
0.862725
20
0.0169867
11
0.862126
21
0.02
0
LINE
8
BLACK
6
CONTINUOUS
10
0.862126
20
0.02
11
0.862126
21
0.08
0
LINE
8
BLACK
6
CONTINUOUS
10
0.862126
20
0.08
11
0.862725
21
0.0830133
0
LINE
8
BLACK
6
CONTINUOUS
10
0.862725
20
0.0830133
11
0.864432
21
0.0855678
0
LINE
8
BLACK
6
CONTINUOUS
10
0.864432
20
0.0855678
11
0.866987
21
0.0872746
0
LINE
8
BLACK
6
CONTINUOUS
10
0.866987
20
0.0872746
11
0.87
21
0.087874
0
LINE
8
BLACK
6
CONTINUOUS
10
0.87
20
0.087874
11
0.93
21
0.087874
0
LINE
8
BLACK
6
CONTINUOUS
10
0.93
20
0.087874
11
0.933013
21
0.0872746
0
LINE
8
BLACK
6
CONTINUOUS
10
1.15301
20
0.0872746
11
1.15557
21
0.0855678
0
LINE
8
BLACK
6
CONTINUOUS
10
1.15557
20
0.0855678
11
1.15727
21
0.0830133
0
LINE
8
BLACK
6
CONTINUOUS
10
1.15727
20
0.0830133
11
1.15787
21
0.08
0
LINE
8
BLACK
6
CONTINUOUS
10
1.15787
20
0.08
11
1.15787
21
0.02
0
LINE
8
BLACK
6
CONTINUOUS
10
1.15787
20
0.02
11
1.15727
21
0.0169867
0
LINE
8
BLACK
6
CONTINUOUS
10
1.15727
20
0.0169867
11
1.15557
21
0.0144322
0
LINE
8
BLACK
6
CONTINUOUS
10
1.15557
20
0.0144322
11
1.15301
21
0.0127254
0
LINE
8
BLACK
6
CONTINUOUS
10
1.15301
20
0.0127254
11
1.15
21
0.012126
0
LINE
8
BLACK
6
CONTINUOUS
10
1.15
20
0.012126
11
1.09
21
0.012126
0
LINE
8
BLACK
6
CONTINUOUS
10
1.09
20
0.012126
11
1.08699
21
0.0127254
0
LINE
8
BLACK
6
CONTINUOUS
10
1.08699
20
0.0127254
11
1.08443
21
0.0144322
0
LINE
8
BLACK
6
CONTINUOUS
10
1.08443
20
0.0144322
11
1.08273
21
0.0169867
0
LINE
8
BLACK
6
CONTINUOUS
10
1.08273
20
0.0169867
11
1.08213
21
0.02
0
LINE
8
BLACK
6
CONTINUOUS
10
1.08213
20
0.02
11
1.08213
21
0.08
0
LINE
8
BLACK
6
CONTINUOUS
10
1.08213
20
0.08
11
1.08273
21
0.0830133
0
LINE
8
BLACK
6
CONTINUOUS
10
1.08273
20
0.0830133
11
1.08443
21
0.0855678
0
LINE
8
BLACK
6
CONTINUOUS
10
1.08443
20
0.0855678
11
1.08699
21
0.0872746
0
LINE
8
BLACK
6
CONTINUOUS
10
1.08699
20
0.0872746
11
1.09
21
0.087874
0
LINE
8
BLACK
6
CONTINUOUS
10
1.09
20
0.087874
11
1.15
21
0.087874
0
LINE
8
BLACK
6
CONTINUOUS
10
1.15
20
0.087874
11
1.15301
21
0.0872746
0
LINE
8
BLACK
6
CONTINUOUS
10
1.25301
20
0.0872746
11
1.25557
21
0.0855678
0
LINE
8
BLACK
6
CONTINUOUS
10
1.25557
20
0.0855678
11
1.25727
21
0.0830133
0
LINE
8
BLACK
6
CONTINUOUS
10
1.25727
20
0.0830133
11
1.25787
21
0.08
0
LINE
8
BLACK
6
CONTINUOUS
10
1.25787
20
0.08
11
1.25787
21
0.02
0
LINE
8
BLACK
6
CONTINUOUS
10
1.25787
20
0.02
11
1.25727
21
0.0169867
0
LINE
8
BLACK
6
CONTINUOUS
10
1.25727
20
0.0169867
11
1.25557
21
0.0144322
0
LINE
8
BLACK
6
CONTINUOUS
10
1.25557
20
0.0144322
11
1.25301
21
0.0127254
0
LINE
8
BLACK
6
CONTINUOUS
10
1.25301
20
0.0127254
11
1.25
21
0.012126
0
LINE
8
BLACK
6
CONTINUOUS
10
1.25
20
0.012126
11
1.19
21
0.012126
0
LINE
8
BLACK
6
CONTINUOUS
10
1.19
20
0.012126
11
1.18699
21
0.0127254
0
LINE
8
BLACK
6
CONTINUOUS
10
1.18699
20
0.0127254
11
1.18443
21
0.0144322
0
LINE
8
BLACK
6
CONTINUOUS
10
1.18443
20
0.0144322
11
1.18273
21
0.0169867
0
LINE
8
BLACK
6
CONTINUOUS
10
1.18273
20
0.0169867
11
1.18213
21
0.02
0
LINE
8
BLACK
6
CONTINUOUS
10
1.18213
20
0.02
11
1.18213
21
0.08
0
LINE
8
BLACK
6
CONTINUOUS
10
1.18213
20
0.08
11
1.18273
21
0.0830133
0
LINE
8
BLACK
6
CONTINUOUS
10
1.18273
20
0.0830133
11
1.18443
21
0.0855678
0
LINE
8
BLACK
6
CONTINUOUS
10
1.18443
20
0.0855678
11
1.18699
21
0.0872746
0
LINE
8
BLACK
6
CONTINUOUS
10
1.18699
20
0.0872746
11
1.19
21
0.087874
0
LINE
8
BLACK
6
CONTINUOUS
10
1.19
20
0.087874
11
1.25
21
0.087874
0
LINE
8
BLACK
6
CONTINUOUS
10
1.25
20
0.087874
11
1.25301
21
0.0872746
0
LINE
8
BLACK
6
CONTINUOUS
10
1.35301
20
0.0872746
11
1.35557
21
0.0855678
0
LINE
8
BLACK
6
CONTINUOUS
10
1.35557
20
0.0855678
11
1.35727
21
0.0830133
0
LINE
8
BLACK
6
CONTINUOUS
10
1.35727
20
0.0830133
11
1.35787
21
0.08
0
LINE
8
BLACK
6
CONTINUOUS
10
1.35787
20
0.08
11
1.35787
21
0.02
0
LINE
8
BLACK
6
CONTINUOUS
10
1.35787
20
0.02
11
1.35727
21
0.0169867
0
LINE
8
BLACK
6
CONTINUOUS
10
1.35727
20
0.0169867
11
1.35557
21
0.0144322
0
LINE
8
BLACK
6
CONTINUOUS
10
1.35557
20
0.0144322
11
1.35301
21
0.0127254
0
LINE
8
BLACK
6
CONTINUOUS
10
1.35301
20
0.0127254
11
1.35
21
0.012126
0
LINE
8
BLACK
6
CONTINUOUS
10
1.35
20
0.012126
11
1.29
21
0.012126
0
LINE
8
BLACK
6
CONTINUOUS
10
1.29
20
0.012126
11
1.28699
21
0.0127254
0
LINE
8
BLACK
6
CONTINUOUS
10
1.28699
20
0.0127254
11
1.28443
21
0.0144322
0
LINE
8
BLACK
6
CONTINUOUS
10
1.28443
20
0.0144322
11
1.28273
21
0.0169867
0
LINE
8
BLACK
6
CONTINUOUS
10
1.28273
20
0.0169867
11
1.28213
21
0.02
0
LINE
8
BLACK
6
CONTINUOUS
10
1.28213
20
0.02
11
1.28213
21
0.08
0
LINE
8
BLACK
6
CONTINUOUS
10
1.28213
20
0.08
11
1.28273
21
0.0830133
0
LINE
8
BLACK
6
CONTINUOUS
10
1.28273
20
0.0830133
11
1.28443
21
0.0855678
0
LINE
8
BLACK
6
CONTINUOUS
10
1.28443
20
0.0855678
11
1.28699
21
0.0872746
0
LINE
8
BLACK
6
CONTINUOUS
10
1.28699
20
0.0872746
11
1.29
21
0.087874
0
LINE
8
BLACK
6
CONTINUOUS
10
1.29
20
0.087874
11
1.35
21
0.087874
0
LINE
8
BLACK
6
CONTINUOUS
10
1.35
20
0.087874
11
1.35301
21
0.0872746
0
LINE
8
BLACK
6
CONTINUOUS
10
1.45301
20
0.0872746
11
1.45557
21
0.0855678
0
LINE
8
BLACK
6
CONTINUOUS
10
1.45557
20
0.0855678
11
1.45727
21
0.0830133
0
LINE
8
BLACK
6
CONTINUOUS
10
1.45727
20
0.0830133
11
1.45787
21
0.08
0
LINE
8
BLACK
6
CONTINUOUS
10
1.45787
20
0.08
11
1.45787
21
0.02
0
LINE
8
BLACK
6
CONTINUOUS
10
1.45787
20
0.02
11
1.45727
21
0.0169867
0
LINE
8
BLACK
6
CONTINUOUS
10
1.45727
20
0.0169867
11
1.45557
21
0.0144322
0
LINE
8
BLACK
6
CONTINUOUS
10
1.45557
20
0.0144322
11
1.45301
21
0.0127254
0
LINE
8
BLACK
6
CONTINUOUS
10
1.45301
20
0.0127254
11
1.45
21
0.012126
0
LINE
8
BLACK
6
CONTINUOUS
10
1.45
20
0.012126
11
1.39
21
0.012126
0
LINE
8
BLACK
6
CONTINUOUS
10
1.39
20
0.012126
11
1.38699
21
0.0127254
0
LINE
8
BLACK
6
CONTINUOUS
10
1.38699
20
0.0127254
11
1.38443
21
0.0144322
0
LINE
8
BLACK
6
CONTINUOUS
10
1.38443
20
0.0144322
11
1.38273
21
0.0169867
0
LINE
8
BLACK
6
CONTINUOUS
10
1.38273
20
0.0169867
11
1.38213
21
0.02
0
LINE
8
BLACK
6
CONTINUOUS
10
1.38213
20
0.02
11
1.38213
21
0.08
0
LINE
8
BLACK
6
CONTINUOUS
10
1.38213
20
0.08
11
1.38273
21
0.0830133
0
LINE
8
BLACK
6
CONTINUOUS
10
1.38273
20
0.0830133
11
1.38443
21
0.0855678
0
LINE
8
BLACK
6
CONTINUOUS
10
1.38443
20
0.0855678
11
1.38699
21
0.0872746
0
LINE
8
BLACK
6
CONTINUOUS
10
1.38699
20
0.0872746
11
1.39
21
0.087874
0
LINE
8
BLACK
6
CONTINUOUS
10
1.39
20
0.087874
11
1.45
21
0.087874
0
LINE
8
BLACK
6
CONTINUOUS
10
1.45
20
0.087874
11
1.45301
21
0.0872746
0
LINE
8
BLACK
6
CONTINUOUS
10
1.55301
20
0.0872746
11
1.55557
21
0.0855678
0
LINE
8
BLACK
6
CONTINUOUS
10
1.55557
20
0.0855678
11
1.55727
21
0.0830133
0
LINE
8
BLACK
6
CONTINUOUS
10
1.55727
20
0.0830133
11
1.55787
21
0.08
0
LINE
8
BLACK
6
CONTINUOUS
10
1.55787
20
0.08
11
1.55787
21
0.02
0
LINE
8
BLACK
6
CONTINUOUS
10
1.55787
20
0.02
11
1.55727
21
0.0169867
0
LINE
8
BLACK
6
CONTINUOUS
10
1.55727
20
0.0169867
11
1.55557
21
0.0144322
0
LINE
8
BLACK
6
CONTINUOUS
10
1.55557
20
0.0144322
11
1.55301
21
0.0127254
0
LINE
8
BLACK
6
CONTINUOUS
10
1.55301
20
0.0127254
11
1.55
21
0.012126
0
LINE
8
BLACK
6
CONTINUOUS
10
1.55
20
0.012126
11
1.49
21
0.012126
0
LINE
8
BLACK
6
CONTINUOUS
10
1.49
20
0.012126
11
1.48699
21
0.0127254
0
LINE
8
BLACK
6
CONTINUOUS
10
1.48699
20
0.0127254
11
1.48443
21
0.0144322
0
LINE
8
BLACK
6
CONTINUOUS
10
1.48443
20
0.0144322
11
1.48273
21
0.0169867
0
LINE
8
BLACK
6
CONTINUOUS
10
1.48273
20
0.0169867
11
1.48213
21
0.02
0
LINE
8
BLACK
6
CONTINUOUS
10
1.48213
20
0.02
11
1.48213
21
0.08
0
LINE
8
BLACK
6
CONTINUOUS
10
1.48213
20
0.08
11
1.48273
21
0.0830133
0
LINE
8
BLACK
6
CONTINUOUS
10
1.48273
20
0.0830133
11
1.48443
21
0.0855678
0
LINE
8
BLACK
6
CONTINUOUS
10
1.48443
20
0.0855678
11
1.48699
21
0.0872746
0
LINE
8
BLACK
6
CONTINUOUS
10
1.48699
20
0.0872746
11
1.49
21
0.087874
0
LINE
8
BLACK
6
CONTINUOUS
10
1.49
20
0.087874
11
1.55
21
0.087874
0
LINE
8
BLACK
6
CONTINUOUS
10
1.55
20
0.087874
11
1.55301
21
0.0872746
0
LINE
8
BLACK
6
CONTINUOUS
10
1.65301
20
0.0872746
11
1.65557
21
0.0855678
0
LINE
8
BLACK
6
CONTINUOUS
10
1.65557
20
0.0855678
11
1.65727
21
0.0830133
0
LINE
8
BLACK
6
CONTINUOUS
10
1.65727
20
0.0830133
11
1.65787
21
0.08
0
LINE
8
BLACK
6
CONTINUOUS
10
1.65787
20
0.08
11
1.65787
21
0.02
0
LINE
8
BLACK
6
CONTINUOUS
10
1.65787
20
0.02
11
1.65727
21
0.0169867
0
LINE
8
BLACK
6
CONTINUOUS
10
1.65727
20
0.0169867
11
1.65557
21
0.0144322
0
LINE
8
BLACK
6
CONTINUOUS
10
1.65557
20
0.0144322
11
1.65301
21
0.0127254
0
LINE
8
BLACK
6
CONTINUOUS
10
1.65301
20
0.0127254
11
1.65
21
0.012126
0
LINE
8
BLACK
6
CONTINUOUS
10
1.65
20
0.012126
11
1.59
21
0.012126
0
LINE
8
BLACK
6
CONTINUOUS
10
1.59
20
0.012126
11
1.58699
21
0.0127254
0
LINE
8
BLACK
6
CONTINUOUS
10
1.58699
20
0.0127254
11
1.58443
21
0.0144322
0
LINE
8
BLACK
6
CONTINUOUS
10
1.58443
20
0.0144322
11
1.58273
21
0.0169867
0
LINE
8
BLACK
6
CONTINUOUS
10
1.58273
20
0.0169867
11
1.58213
21
0.02
0
LINE
8
BLACK
6
CONTINUOUS
10
1.58213
20
0.02
11
1.58213
21
0.08
0
LINE
8
BLACK
6
CONTINUOUS
10
1.58213
20
0.08
11
1.58273
21
0.0830133
0
LINE
8
BLACK
6
CONTINUOUS
10
1.58273
20
0.0830133
11
1.58443
21
0.0855678
0
LINE
8
BLACK
6
CONTINUOUS
10
1.58443
20
0.0855678
11
1.58699
21
0.0872746
0
LINE
8
BLACK
6
CONTINUOUS
10
1.58699
20
0.0872746
11
1.59
21
0.087874
0
LINE
8
BLACK
6
CONTINUOUS
10
1.59
20
0.087874
11
1.65
21
0.087874
0
LINE
8
BLACK
6
CONTINUOUS
10
1.65
20
0.087874
11
1.65301
21
0.0872746
0
LINE
8
BLACK
6
CONTINUOUS
10
1.75301
20
0.0872746
11
1.75557
21
0.0855678
0
LINE
8
BLACK
6
CONTINUOUS
10
1.75557
20
0.0855678
11
1.75727
21
0.0830133
0
LINE
8
BLACK
6
CONTINUOUS
10
1.75727
20
0.0830133
11
1.75787
21
0.08
0
LINE
8
BLACK
6
CONTINUOUS
10
1.75787
20
0.08
11
1.75787
21
0.02
0
LINE
8
BLACK
6
CONTINUOUS
10
1.75787
20
0.02
11
1.75727
21
0.0169867
0
LINE
8
BLACK
6
CONTINUOUS
10
1.75727
20
0.0169867
11
1.75557
21
0.0144322
0
LINE
8
BLACK
6
CONTINUOUS
10
1.75557
20
0.0144322
11
1.75301
21
0.0127254
0
LINE
8
BLACK
6
CONTINUOUS
10
1.75301
20
0.0127254
11
1.75
21
0.012126
0
LINE
8
BLACK
6
CONTINUOUS
10
1.75
20
0.012126
11
1.69
21
0.012126
0
LINE
8
BLACK
6
CONTINUOUS
10
1.69
20
0.012126
11
1.68699
21
0.0127254
0
LINE
8
BLACK
6
CONTINUOUS
10
1.68699
20
0.0127254
11
1.68443
21
0.0144322
0
LINE
8
BLACK
6
CONTINUOUS
10
1.68443
20
0.0144322
11
1.68273
21
0.0169867
0
LINE
8
BLACK
6
CONTINUOUS
10
1.68273
20
0.0169867
11
1.68213
21
0.02
0
LINE
8
BLACK
6
CONTINUOUS
10
1.68213
20
0.02
11
1.68213
21
0.08
0
LINE
8
BLACK
6
CONTINUOUS
10
1.68213
20
0.08
11
1.68273
21
0.0830133
0
LINE
8
BLACK
6
CONTINUOUS
10
1.68273
20
0.0830133
11
1.68443
21
0.0855678
0
LINE
8
BLACK
6
CONTINUOUS
10
1.68443
20
0.0855678
11
1.68699
21
0.0872746
0
LINE
8
BLACK
6
CONTINUOUS
10
1.68699
20
0.0872746
11
1.69
21
0.087874
0
LINE
8
BLACK
6
CONTINUOUS
10
1.69
20
0.087874
11
1.75
21
0.087874
0
LINE
8
BLACK
6
CONTINUOUS
10
1.75
20
0.087874
11
1.75301
21
0.0872746
0
LINE
8
BLACK
6
CONTINUOUS
10
0.313013
20
0.437275
11
0.315568
21
0.435568
0
LINE
8
BLACK
6
CONTINUOUS
10
0.315568
20
0.435568
11
0.317275
21
0.433013
0
LINE
8
BLACK
6
CONTINUOUS
10
0.317275
20
0.433013
11
0.317874
21
0.43
0
LINE
8
BLACK
6
CONTINUOUS
10
0.317874
20
0.43
11
0.317874
21
0.37
0
LINE
8
BLACK
6
CONTINUOUS
10
0.317874
20
0.37
11
0.317275
21
0.366987
0
LINE
8
BLACK
6
CONTINUOUS
10
0.317275
20
0.366987
11
0.315568
21
0.364432
0
LINE
8
BLACK
6
CONTINUOUS
10
0.315568
20
0.364432
11
0.313013
21
0.362725
0
LINE
8
BLACK
6
CONTINUOUS
10
0.313013
20
0.362725
11
0.31
21
0.362126
0
LINE
8
BLACK
6
CONTINUOUS
10
0.31
20
0.362126
11
0.25
21
0.362126
0
LINE
8
BLACK
6
CONTINUOUS
10
0.25
20
0.362126
11
0.246987
21
0.362725
0
LINE
8
BLACK
6
CONTINUOUS
10
0.246987
20
0.362725
11
0.244432
21
0.364432
0
LINE
8
BLACK
6
CONTINUOUS
10
0.244432
20
0.364432
11
0.242725
21
0.366987
0
LINE
8
BLACK
6
CONTINUOUS
10
0.242725
20
0.366987
11
0.242126
21
0.37
0
LINE
8
BLACK
6
CONTINUOUS
10
0.242126
20
0.37
11
0.242126
21
0.43
0
LINE
8
BLACK
6
CONTINUOUS
10
0.242126
20
0.43
11
0.242725
21
0.433013
0
LINE
8
BLACK
6
CONTINUOUS
10
0.242725
20
0.433013
11
0.244432
21
0.435568
0
LINE
8
BLACK
6
CONTINUOUS
10
0.244432
20
0.435568
11
0.246987
21
0.437275
0
LINE
8
BLACK
6
CONTINUOUS
10
0.246987
20
0.437275
11
0.25
21
0.437874
0
LINE
8
BLACK
6
CONTINUOUS
10
0.25
20
0.437874
11
0.31
21
0.437874
0
LINE
8
BLACK
6
CONTINUOUS
10
0.31
20
0.437874
11
0.313013
21
0.437275
0
LINE
8
BLACK
6
CONTINUOUS
10
0.413013
20
0.437275
11
0.415568
21
0.435568
0
LINE
8
BLACK
6
CONTINUOUS
10
0.415568
20
0.435568
11
0.417275
21
0.433013
0
LINE
8
BLACK
6
CONTINUOUS
10
0.417275
20
0.433013
11
0.417874
21
0.43
0
LINE
8
BLACK
6
CONTINUOUS
10
0.417874
20
0.43
11
0.417874
21
0.37
0
LINE
8
BLACK
6
CONTINUOUS
10
0.417874
20
0.37
11
0.417275
21
0.366987
0
LINE
8
BLACK
6
CONTINUOUS
10
0.417275
20
0.366987
11
0.415568
21
0.364432
0
LINE
8
BLACK
6
CONTINUOUS
10
0.415568
20
0.364432
11
0.413013
21
0.362725
0
LINE
8
BLACK
6
CONTINUOUS
10
0.413013
20
0.362725
11
0.41
21
0.362126
0
LINE
8
BLACK
6
CONTINUOUS
10
0.41
20
0.362126
11
0.35
21
0.362126
0
LINE
8
BLACK
6
CONTINUOUS
10
0.35
20
0.362126
11
0.346987
21
0.362725
0
LINE
8
BLACK
6
CONTINUOUS
10
0.346987
20
0.362725
11
0.344432
21
0.364432
0
LINE
8
BLACK
6
CONTINUOUS
10
0.344432
20
0.364432
11
0.342725
21
0.366987
0
LINE
8
BLACK
6
CONTINUOUS
10
0.342725
20
0.366987
11
0.342126
21
0.37
0
LINE
8
BLACK
6
CONTINUOUS
10
0.342126
20
0.37
11
0.342126
21
0.43
0
LINE
8
BLACK
6
CONTINUOUS
10
0.342126
20
0.43
11
0.342725
21
0.433013
0
LINE
8
BLACK
6
CONTINUOUS
10
0.342725
20
0.433013
11
0.344432
21
0.435568
0
LINE
8
BLACK
6
CONTINUOUS
10
0.344432
20
0.435568
11
0.346987
21
0.437275
0
LINE
8
BLACK
6
CONTINUOUS
10
0.346987
20
0.437275
11
0.35
21
0.437874
0
LINE
8
BLACK
6
CONTINUOUS
10
0.35
20
0.437874
11
0.41
21
0.437874
0
LINE
8
BLACK
6
CONTINUOUS
10
0.41
20
0.437874
11
0.413013
21
0.437275
0
LINE
8
BLACK
6
CONTINUOUS
10
0.573013
20
0.437275
11
0.575568
21
0.435568
0
LINE
8
BLACK
6
CONTINUOUS
10
0.575568
20
0.435568
11
0.577275
21
0.433013
0
LINE
8
BLACK
6
CONTINUOUS
10
0.577275
20
0.433013
11
0.577874
21
0.43
0
LINE
8
BLACK
6
CONTINUOUS
10
0.577874
20
0.43
11
0.577874
21
0.37
0
LINE
8
BLACK
6
CONTINUOUS
10
0.577874
20
0.37
11
0.577275
21
0.366987
0
LINE
8
BLACK
6
CONTINUOUS
10
0.577275
20
0.366987
11
0.575568
21
0.364432
0
LINE
8
BLACK
6
CONTINUOUS
10
0.575568
20
0.364432
11
0.573013
21
0.362725
0
LINE
8
BLACK
6
CONTINUOUS
10
0.573013
20
0.362725
11
0.57
21
0.362126
0
LINE
8
BLACK
6
CONTINUOUS
10
0.57
20
0.362126
11
0.51
21
0.362126
0
LINE
8
BLACK
6
CONTINUOUS
10
0.51
20
0.362126
11
0.506987
21
0.362725
0
LINE
8
BLACK
6
CONTINUOUS
10
0.506987
20
0.362725
11
0.504432
21
0.364432
0
LINE
8
BLACK
6
CONTINUOUS
10
0.504432
20
0.364432
11
0.502725
21
0.366987
0
LINE
8
BLACK
6
CONTINUOUS
10
0.502725
20
0.366987
11
0.502126
21
0.37
0
LINE
8
BLACK
6
CONTINUOUS
10
0.502126
20
0.37
11
0.502126
21
0.43
0
LINE
8
BLACK
6
CONTINUOUS
10
0.502126
20
0.43
11
0.502725
21
0.433013
0
LINE
8
BLACK
6
CONTINUOUS
10
0.502725
20
0.433013
11
0.504432
21
0.435568
0
LINE
8
BLACK
6
CONTINUOUS
10
0.504432
20
0.435568
11
0.506987
21
0.437275
0
LINE
8
BLACK
6
CONTINUOUS
10
0.506987
20
0.437275
11
0.51
21
0.437874
0
LINE
8
BLACK
6
CONTINUOUS
10
0.51
20
0.437874
11
0.57
21
0.437874
0
LINE
8
BLACK
6
CONTINUOUS
10
0.57
20
0.437874
11
0.573013
21
0.437275
0
LINE
8
BLACK
6
CONTINUOUS
10
0.673013
20
0.437275
11
0.675568
21
0.435568
0
LINE
8
BLACK
6
CONTINUOUS
10
0.675568
20
0.435568
11
0.677275
21
0.433013
0
LINE
8
BLACK
6
CONTINUOUS
10
0.677275
20
0.433013
11
0.677874
21
0.43
0
LINE
8
BLACK
6
CONTINUOUS
10
0.677874
20
0.43
11
0.677874
21
0.37
0
LINE
8
BLACK
6
CONTINUOUS
10
0.677874
20
0.37
11
0.677275
21
0.366987
0
LINE
8
BLACK
6
CONTINUOUS
10
0.677275
20
0.366987
11
0.675568
21
0.364432
0
LINE
8
BLACK
6
CONTINUOUS
10
0.675568
20
0.364432
11
0.673013
21
0.362725
0
LINE
8
BLACK
6
CONTINUOUS
10
0.673013
20
0.362725
11
0.67
21
0.362126
0
LINE
8
BLACK
6
CONTINUOUS
10
0.67
20
0.362126
11
0.61
21
0.362126
0
LINE
8
BLACK
6
CONTINUOUS
10
0.61
20
0.362126
11
0.606987
21
0.362725
0
LINE
8
BLACK
6
CONTINUOUS
10
0.606987
20
0.362725
11
0.604432
21
0.364432
0
LINE
8
BLACK
6
CONTINUOUS
10
0.604432
20
0.364432
11
0.602725
21
0.366987
0
LINE
8
BLACK
6
CONTINUOUS
10
0.602725
20
0.366987
11
0.602126
21
0.37
0
LINE
8
BLACK
6
CONTINUOUS
10
0.602126
20
0.37
11
0.602126
21
0.43
0
LINE
8
BLACK
6
CONTINUOUS
10
0.602126
20
0.43
11
0.602725
21
0.433013
0
LINE
8
BLACK
6
CONTINUOUS
10
0.602725
20
0.433013
11
0.604432
21
0.435568
0
LINE
8
BLACK
6
CONTINUOUS
10
0.604432
20
0.435568
11
0.606987
21
0.437275
0
LINE
8
BLACK
6
CONTINUOUS
10
0.606987
20
0.437275
11
0.61
21
0.437874
0
LINE
8
BLACK
6
CONTINUOUS
10
0.61
20
0.437874
11
0.67
21
0.437874
0
LINE
8
BLACK
6
CONTINUOUS
10
0.67
20
0.437874
11
0.673013
21
0.437275
0
LINE
8
BLACK
6
CONTINUOUS
10
1.45301
20
0.447275
11
1.45557
21
0.445568
0
LINE
8
BLACK
6
CONTINUOUS
10
1.45557
20
0.445568
11
1.45727
21
0.443013
0
LINE
8
BLACK
6
CONTINUOUS
10
1.45727
20
0.443013
11
1.45787
21
0.44
0
LINE
8
BLACK
6
CONTINUOUS
10
1.45787
20
0.44
11
1.45787
21
0.38
0
LINE
8
BLACK
6
CONTINUOUS
10
1.45787
20
0.38
11
1.45727
21
0.376987
0
LINE
8
BLACK
6
CONTINUOUS
10
1.45727
20
0.376987
11
1.45557
21
0.374432
0
LINE
8
BLACK
6
CONTINUOUS
10
1.45557
20
0.374432
11
1.45301
21
0.372725
0
LINE
8
BLACK
6
CONTINUOUS
10
1.45301
20
0.372725
11
1.45
21
0.372126
0
LINE
8
BLACK
6
CONTINUOUS
10
1.45
20
0.372126
11
1.39
21
0.372126
0
LINE
8
BLACK
6
CONTINUOUS
10
1.39
20
0.372126
11
1.38699
21
0.372725
0
LINE
8
BLACK
6
CONTINUOUS
10
1.38699
20
0.372725
11
1.38443
21
0.374432
0
LINE
8
BLACK
6
CONTINUOUS
10
1.38443
20
0.374432
11
1.38273
21
0.376987
0
LINE
8
BLACK
6
CONTINUOUS
10
1.38273
20
0.376987
11
1.38213
21
0.38
0
LINE
8
BLACK
6
CONTINUOUS
10
1.38213
20
0.38
11
1.38213
21
0.44
0
LINE
8
BLACK
6
CONTINUOUS
10
1.38213
20
0.44
11
1.38273
21
0.443013
0
LINE
8
BLACK
6
CONTINUOUS
10
1.38273
20
0.443013
11
1.38443
21
0.445568
0
LINE
8
BLACK
6
CONTINUOUS
10
1.38443
20
0.445568
11
1.38699
21
0.447275
0
LINE
8
BLACK
6
CONTINUOUS
10
1.38699
20
0.447275
11
1.39
21
0.447874
0
LINE
8
BLACK
6
CONTINUOUS
10
1.39
20
0.447874
11
1.45
21
0.447874
0
LINE
8
BLACK
6
CONTINUOUS
10
1.45
20
0.447874
11
1.45301
21
0.447275
0
LINE
8
BLACK
6
CONTINUOUS
10
1.55301
20
0.447275
11
1.55557
21
0.445568
0
LINE
8
BLACK
6
CONTINUOUS
10
1.55557
20
0.445568
11
1.55727
21
0.443013
0
LINE
8
BLACK
6
CONTINUOUS
10
1.55727
20
0.443013
11
1.55787
21
0.44
0
LINE
8
BLACK
6
CONTINUOUS
10
1.55787
20
0.44
11
1.55787
21
0.38
0
LINE
8
BLACK
6
CONTINUOUS
10
1.55787
20
0.38
11
1.55727
21
0.376987
0
LINE
8
BLACK
6
CONTINUOUS
10
1.55727
20
0.376987
11
1.55557
21
0.374432
0
LINE
8
BLACK
6
CONTINUOUS
10
1.55557
20
0.374432
11
1.55301
21
0.372725
0
LINE
8
BLACK
6
CONTINUOUS
10
1.55301
20
0.372725
11
1.55
21
0.372126
0
LINE
8
BLACK
6
CONTINUOUS
10
1.55
20
0.372126
11
1.49
21
0.372126
0
LINE
8
BLACK
6
CONTINUOUS
10
1.49
20
0.372126
11
1.48699
21
0.372725
0
LINE
8
BLACK
6
CONTINUOUS
10
1.48699
20
0.372725
11
1.48443
21
0.374432
0
LINE
8
BLACK
6
CONTINUOUS
10
1.48443
20
0.374432
11
1.48273
21
0.376987
0
LINE
8
BLACK
6
CONTINUOUS
10
1.48273
20
0.376987
11
1.48213
21
0.38
0
LINE
8
BLACK
6
CONTINUOUS
10
1.48213
20
0.38
11
1.48213
21
0.44
0
LINE
8
BLACK
6
CONTINUOUS
10
1.48213
20
0.44
11
1.48273
21
0.443013
0
LINE
8
BLACK
6
CONTINUOUS
10
1.48273
20
0.443013
11
1.48443
21
0.445568
0
LINE
8
BLACK
6
CONTINUOUS
10
1.48443
20
0.445568
11
1.48699
21
0.447275
0
LINE
8
BLACK
6
CONTINUOUS
10
1.48699
20
0.447275
11
1.49
21
0.447874
0
LINE
8
BLACK
6
CONTINUOUS
10
1.49
20
0.447874
11
1.55
21
0.447874
0
LINE
8
BLACK
6
CONTINUOUS
10
1.55
20
0.447874
11
1.55301
21
0.447275
0
LINE
8
BLACK
6
CONTINUOUS
10
1.69301
20
0.447275
11
1.69557
21
0.445568
0
LINE
8
BLACK
6
CONTINUOUS
10
1.69557
20
0.445568
11
1.69727
21
0.443013
0
LINE
8
BLACK
6
CONTINUOUS
10
1.69727
20
0.443013
11
1.69787
21
0.44
0
LINE
8
BLACK
6
CONTINUOUS
10
1.69787
20
0.44
11
1.69787
21
0.38
0
LINE
8
BLACK
6
CONTINUOUS
10
1.69787
20
0.38
11
1.69727
21
0.376987
0
LINE
8
BLACK
6
CONTINUOUS
10
1.69727
20
0.376987
11
1.69557
21
0.374432
0
LINE
8
BLACK
6
CONTINUOUS
10
1.69557
20
0.374432
11
1.69301
21
0.372725
0
LINE
8
BLACK
6
CONTINUOUS
10
1.69301
20
0.372725
11
1.69
21
0.372126
0
LINE
8
BLACK
6
CONTINUOUS
10
1.69
20
0.372126
11
1.63
21
0.372126
0
LINE
8
BLACK
6
CONTINUOUS
10
1.63
20
0.372126
11
1.62699
21
0.372725
0
LINE
8
BLACK
6
CONTINUOUS
10
1.62699
20
0.372725
11
1.62443
21
0.374432
0
LINE
8
BLACK
6
CONTINUOUS
10
1.62443
20
0.374432
11
1.62273
21
0.376987
0
LINE
8
BLACK
6
CONTINUOUS
10
1.62273
20
0.376987
11
1.62213
21
0.38
0
LINE
8
BLACK
6
CONTINUOUS
10
1.62213
20
0.38
11
1.62213
21
0.44
0
LINE
8
BLACK
6
CONTINUOUS
10
1.62213
20
0.44
11
1.62273
21
0.443013
0
LINE
8
BLACK
6
CONTINUOUS
10
1.62273
20
0.443013
11
1.62443
21
0.445568
0
LINE
8
BLACK
6
CONTINUOUS
10
1.62443
20
0.445568
11
1.62699
21
0.447275
0
LINE
8
BLACK
6
CONTINUOUS
10
1.62699
20
0.447275
11
1.63
21
0.447874
0
LINE
8
BLACK
6
CONTINUOUS
10
1.63
20
0.447874
11
1.69
21
0.447874
0
LINE
8
BLACK
6
CONTINUOUS
10
1.69
20
0.447874
11
1.69301
21
0.447275
0
LINE
8
BLACK
6
CONTINUOUS
10
1.79301
20
0.447275
11
1.79557
21
0.445568
0
LINE
8
BLACK
6
CONTINUOUS
10
1.79557
20
0.445568
11
1.79727
21
0.443013
0
LINE
8
BLACK
6
CONTINUOUS
10
1.79727
20
0.443013
11
1.79787
21
0.44
0
LINE
8
BLACK
6
CONTINUOUS
10
1.79787
20
0.44
11
1.79787
21
0.38
0
LINE
8
BLACK
6
CONTINUOUS
10
1.79787
20
0.38
11
1.79727
21
0.376987
0
LINE
8
BLACK
6
CONTINUOUS
10
1.79727
20
0.376987
11
1.79557
21
0.374432
0
LINE
8
BLACK
6
CONTINUOUS
10
1.79557
20
0.374432
11
1.79301
21
0.372725
0
LINE
8
BLACK
6
CONTINUOUS
10
1.79301
20
0.372725
11
1.79
21
0.372126
0
LINE
8
BLACK
6
CONTINUOUS
10
1.79
20
0.372126
11
1.73
21
0.372126
0
LINE
8
BLACK
6
CONTINUOUS
10
1.73
20
0.372126
11
1.72699
21
0.372725
0
LINE
8
BLACK
6
CONTINUOUS
10
1.72699
20
0.372725
11
1.72443
21
0.374432
0
LINE
8
BLACK
6
CONTINUOUS
10
1.72443
20
0.374432
11
1.72273
21
0.376987
0
LINE
8
BLACK
6
CONTINUOUS
10
1.72273
20
0.376987
11
1.72213
21
0.38
0
LINE
8
BLACK
6
CONTINUOUS
10
1.72213
20
0.38
11
1.72213
21
0.44
0
LINE
8
BLACK
6
CONTINUOUS
10
1.72213
20
0.44
11
1.72273
21
0.443013
0
LINE
8
BLACK
6
CONTINUOUS
10
1.72273
20
0.443013
11
1.72443
21
0.445568
0
LINE
8
BLACK
6
CONTINUOUS
10
1.72443
20
0.445568
11
1.72699
21
0.447275
0
LINE
8
BLACK
6
CONTINUOUS
10
1.72699
20
0.447275
11
1.73
21
0.447874
0
LINE
8
BLACK
6
CONTINUOUS
10
1.73
20
0.447874
11
1.79
21
0.447874
0
LINE
8
BLACK
6
CONTINUOUS
10
1.79
20
0.447874
11
1.79301
21
0.447275
0
LINE
8
BLACK
6
CONTINUOUS
10
0.0141057
20
1.32519
11
0.0280341
21
1.32283
0
LINE
8
BLACK
6
CONTINUOUS
10
0.0280341
20
1.32283
11
0.04161
21
1.31891
0
LINE
8
BLACK
6
CONTINUOUS
10
0.04161
20
1.31891
11
0.0546625
21
1.31351
0
LINE
8
BLACK
6
CONTINUOUS
10
0.0546625
20
1.31351
11
0.0670277
21
1.30667
0
LINE
8
BLACK
6
CONTINUOUS
10
0.0670277
20
1.30667
11
0.0785499
21
1.2985
0
LINE
8
BLACK
6
CONTINUOUS
10
0.0785499
20
1.2985
11
0.0890843
21
1.28908
0
LINE
8
BLACK
6
CONTINUOUS
10
0.0890843
20
1.28908
11
0.0984985
21
1.27855
0
LINE
8
BLACK
6
CONTINUOUS
10
0.0984985
20
1.27855
11
0.106674
21
1.26703
0
LINE
8
BLACK
6
CONTINUOUS
10
0.106674
20
1.26703
11
0.113508
21
1.25466
0
LINE
8
BLACK
6
CONTINUOUS
10
0.113508
20
1.25466
11
0.118914
21
1.24161
0
LINE
8
BLACK
6
CONTINUOUS
10
0.118914
20
1.24161
11
0.122826
21
1.22803
0
LINE
8
BLACK
6
CONTINUOUS
10
0.122826
20
1.22803
11
0.125192
21
1.21411
0
LINE
8
BLACK
6
CONTINUOUS
10
0.125192
20
1.21411
11
0.125984
21
1.2
0
LINE
8
BLACK
6
CONTINUOUS
10
0.125984
20
1.2
11
0.125192
21
1.18589
0
LINE
8
BLACK
6
CONTINUOUS
10
0.125192
20
1.18589
11
0.122826
21
1.17197
0
LINE
8
BLACK
6
CONTINUOUS
10
0.122826
20
1.17197
11
0.118914
21
1.15839
0
LINE
8
BLACK
6
CONTINUOUS
10
0.118914
20
1.15839
11
0.113508
21
1.14534
0
LINE
8
BLACK
6
CONTINUOUS
10
0.113508
20
1.14534
11
0.106674
21
1.13297
0
LINE
8
BLACK
6
CONTINUOUS
10
0.106674
20
1.13297
11
0.0984985
21
1.12145
0
LINE
8
BLACK
6
CONTINUOUS
10
0.0984985
20
1.12145
11
0.0890843
21
1.11092
0
LINE
8
BLACK
6
CONTINUOUS
10
0.0890843
20
1.11092
11
0.0785499
21
1.1015
0
LINE
8
BLACK
6
CONTINUOUS
10
0.0785499
20
1.1015
11
0.0670277
21
1.09333
0
LINE
8
BLACK
6
CONTINUOUS
10
0.0670277
20
1.09333
11
0.0546625
21
1.08649
0
LINE
8
BLACK
6
CONTINUOUS
10
0.0546625
20
1.08649
11
0.04161
21
1.08109
0
LINE
8
BLACK
6
CONTINUOUS
10
0.04161
20
1.08109
11
0.0280341
21
1.07717
0
LINE
8
BLACK
6
CONTINUOUS
10
0.0280341
20
1.07717
11
0.0141057
21
1.07481
0
LINE
8
BLACK
6
CONTINUOUS
10
0.0141057
20
1.07481
11
0
21
1.07402
0
LINE
8
BLACK
6
CONTINUOUS
10
0
20
1.07402
11
-0.0141057
21
1.07481
0
LINE
8
BLACK
6
CONTINUOUS
10
-0.0141057
20
1.07481
11
-0.0280341
21
1.07717
0
LINE
8
BLACK
6
CONTINUOUS
10
-0.0280341
20
1.07717
11
-0.04161
21
1.08109
0
LINE
8
BLACK
6
CONTINUOUS
10
-0.04161
20
1.08109
11
-0.0546625
21
1.08649
0
LINE
8
BLACK
6
CONTINUOUS
10
-0.0546625
20
1.08649
11
-0.0670277
21
1.09333
0
LINE
8
BLACK
6
CONTINUOUS
10
-0.0670277
20
1.09333
11
-0.0785499
21
1.1015
0
LINE
8
BLACK
6
CONTINUOUS
10
-0.0785499
20
1.1015
11
-0.0890843
21
1.11092
0
LINE
8
BLACK
6
CONTINUOUS
10
-0.0890843
20
1.11092
11
-0.0984985
21
1.12145
0
LINE
8
BLACK
6
CONTINUOUS
10
-0.0984985
20
1.12145
11
-0.106674
21
1.13297
0
LINE
8
BLACK
6
CONTINUOUS
10
-0.106674
20
1.13297
11
-0.113508
21
1.14534
0
LINE
8
BLACK
6
CONTINUOUS
10
-0.113508
20
1.14534
11
-0.118914
21
1.15839
0
LINE
8
BLACK
6
CONTINUOUS
10
-0.118914
20
1.15839
11
-0.122826
21
1.17197
0
LINE
8
BLACK
6
CONTINUOUS
10
-0.122826
20
1.17197
11
-0.125192
21
1.18589
0
LINE
8
BLACK
6
CONTINUOUS
10
-0.125192
20
1.18589
11
-0.125984
21
1.2
0
LINE
8
BLACK
6
CONTINUOUS
10
-0.125984
20
1.2
11
-0.125192
21
1.21411
0
LINE
8
BLACK
6
CONTINUOUS
10
-0.125192
20
1.21411
11
-0.122826
21
1.22803
0
LINE
8
BLACK
6
CONTINUOUS
10
-0.122826
20
1.22803
11
-0.118914
21
1.24161
0
LINE
8
BLACK
6
CONTINUOUS
10
-0.118914
20
1.24161
11
-0.113508
21
1.25466
0
LINE
8
BLACK
6
CONTINUOUS
10
-0.113508
20
1.25466
11
-0.106674
21
1.26703
0
LINE
8
BLACK
6
CONTINUOUS
10
-0.106674
20
1.26703
11
-0.0984985
21
1.27855
0
LINE
8
BLACK
6
CONTINUOUS
10
-0.0984985
20
1.27855
11
-0.0890843
21
1.28908
0
LINE
8
BLACK
6
CONTINUOUS
10
-0.0890843
20
1.28908
11
-0.0785499
21
1.2985
0
LINE
8
BLACK
6
CONTINUOUS
10
-0.0785499
20
1.2985
11
-0.0670277
21
1.30667
0
LINE
8
BLACK
6
CONTINUOUS
10
-0.0670277
20
1.30667
11
-0.0546625
21
1.31351
0
LINE
8
BLACK
6
CONTINUOUS
10
-0.0546625
20
1.31351
11
-0.04161
21
1.31891
0
LINE
8
BLACK
6
CONTINUOUS
10
-0.04161
20
1.31891
11
-0.0280341
21
1.32283
0
LINE
8
BLACK
6
CONTINUOUS
10
-0.0280341
20
1.32283
11
-0.0141057
21
1.32519
0
LINE
8
BLACK
6
CONTINUOUS
10
-0.0141057
20
1.32519
11
0
21
1.32598
0
LINE
8
BLACK
6
CONTINUOUS
10
0
20
1.32598
11
0.0141057
21
1.32519
0
LINE
8
BLACK
6
CONTINUOUS
10
2.01411
20
1.32519
11
2.02803
21
1.32283
0
LINE
8
BLACK
6
CONTINUOUS
10
2.02803
20
1.32283
11
2.04161
21
1.31891
0
LINE
8
BLACK
6
CONTINUOUS
10
2.04161
20
1.31891
11
2.05466
21
1.31351
0
LINE
8
BLACK
6
CONTINUOUS
10
2.05466
20
1.31351
11
2.06703
21
1.30667
0
LINE
8
BLACK
6
CONTINUOUS
10
2.06703
20
1.30667
11
2.07855
21
1.2985
0
LINE
8
BLACK
6
CONTINUOUS
10
2.07855
20
1.2985
11
2.08908
21
1.28908
0
LINE
8
BLACK
6
CONTINUOUS
10
2.08908
20
1.28908
11
2.0985
21
1.27855
0
LINE
8
BLACK
6
CONTINUOUS
10
2.0985
20
1.27855
11
2.10667
21
1.26703
0
LINE
8
BLACK
6
CONTINUOUS
10
2.10667
20
1.26703
11
2.11351
21
1.25466
0
LINE
8
BLACK
6
CONTINUOUS
10
2.11351
20
1.25466
11
2.11891
21
1.24161
0
LINE
8
BLACK
6
CONTINUOUS
10
2.11891
20
1.24161
11
2.12283
21
1.22803
0
LINE
8
BLACK
6
CONTINUOUS
10
2.12283
20
1.22803
11
2.12519
21
1.21411
0
LINE
8
BLACK
6
CONTINUOUS
10
2.12519
20
1.21411
11
2.12598
21
1.2
0
LINE
8
BLACK
6
CONTINUOUS
10
2.12598
20
1.2
11
2.12519
21
1.18589
0
LINE
8
BLACK
6
CONTINUOUS
10
2.12519
20
1.18589
11
2.12283
21
1.17197
0
LINE
8
BLACK
6
CONTINUOUS
10
2.12283
20
1.17197
11
2.11891
21
1.15839
0
LINE
8
BLACK
6
CONTINUOUS
10
2.11891
20
1.15839
11
2.11351
21
1.14534
0
LINE
8
BLACK
6
CONTINUOUS
10
2.11351
20
1.14534
11
2.10667
21
1.13297
0
LINE
8
BLACK
6
CONTINUOUS
10
2.10667
20
1.13297
11
2.0985
21
1.12145
0
LINE
8
BLACK
6
CONTINUOUS
10
2.0985
20
1.12145
11
2.08908
21
1.11092
0
LINE
8
BLACK
6
CONTINUOUS
10
2.08908
20
1.11092
11
2.07855
21
1.1015
0
LINE
8
BLACK
6
CONTINUOUS
10
2.07855
20
1.1015
11
2.06703
21
1.09333
0
LINE
8
BLACK
6
CONTINUOUS
10
2.06703
20
1.09333
11
2.05466
21
1.08649
0
LINE
8
BLACK
6
CONTINUOUS
10
2.05466
20
1.08649
11
2.04161
21
1.08109
0
LINE
8
BLACK
6
CONTINUOUS
10
2.04161
20
1.08109
11
2.02803
21
1.07717
0
LINE
8
BLACK
6
CONTINUOUS
10
2.02803
20
1.07717
11
2.01411
21
1.07481
0
LINE
8
BLACK
6
CONTINUOUS
10
2.01411
20
1.07481
11
2
21
1.07402
0
LINE
8
BLACK
6
CONTINUOUS
10
2
20
1.07402
11
1.98589
21
1.07481
0
LINE
8
BLACK
6
CONTINUOUS
10
1.98589
20
1.07481
11
1.97197
21
1.07717
0
LINE
8
BLACK
6
CONTINUOUS
10
1.97197
20
1.07717
11
1.95839
21
1.08109
0
LINE
8
BLACK
6
CONTINUOUS
10
1.95839
20
1.08109
11
1.94534
21
1.08649
0
LINE
8
BLACK
6
CONTINUOUS
10
1.94534
20
1.08649
11
1.93297
21
1.09333
0
LINE
8
BLACK
6
CONTINUOUS
10
1.93297
20
1.09333
11
1.92145
21
1.1015
0
LINE
8
BLACK
6
CONTINUOUS
10
1.92145
20
1.1015
11
1.91092
21
1.11092
0
LINE
8
BLACK
6
CONTINUOUS
10
1.91092
20
1.11092
11
1.9015
21
1.12145
0
LINE
8
BLACK
6
CONTINUOUS
10
1.9015
20
1.12145
11
1.89333
21
1.13297
0
LINE
8
BLACK
6
CONTINUOUS
10
1.89333
20
1.13297
11
1.88649
21
1.14534
0
LINE
8
BLACK
6
CONTINUOUS
10
1.88649
20
1.14534
11
1.88109
21
1.15839
0
LINE
8
BLACK
6
CONTINUOUS
10
1.88109
20
1.15839
11
1.87717
21
1.17197
0
LINE
8
BLACK
6
CONTINUOUS
10
1.87717
20
1.17197
11
1.87481
21
1.18589
0
LINE
8
BLACK
6
CONTINUOUS
10
1.87481
20
1.18589
11
1.87402
21
1.2
0
LINE
8
BLACK
6
CONTINUOUS
10
1.87402
20
1.2
11
1.87481
21
1.21411
0
LINE
8
BLACK
6
CONTINUOUS
10
1.87481
20
1.21411
11
1.87717
21
1.22803
0
LINE
8
BLACK
6
CONTINUOUS
10
1.87717
20
1.22803
11
1.88109
21
1.24161
0
LINE
8
BLACK
6
CONTINUOUS
10
1.88109
20
1.24161
11
1.88649
21
1.25466
0
LINE
8
BLACK
6
CONTINUOUS
10
1.88649
20
1.25466
11
1.89333
21
1.26703
0
LINE
8
BLACK
6
CONTINUOUS
10
1.89333
20
1.26703
11
1.9015
21
1.27855
0
LINE
8
BLACK
6
CONTINUOUS
10
1.9015
20
1.27855
11
1.91092
21
1.28908
0
LINE
8
BLACK
6
CONTINUOUS
10
1.91092
20
1.28908
11
1.92145
21
1.2985
0
LINE
8
BLACK
6
CONTINUOUS
10
1.92145
20
1.2985
11
1.93297
21
1.30667
0
LINE
8
BLACK
6
CONTINUOUS
10
1.93297
20
1.30667
11
1.94534
21
1.31351
0
LINE
8
BLACK
6
CONTINUOUS
10
1.94534
20
1.31351
11
1.95839
21
1.31891
0
LINE
8
BLACK
6
CONTINUOUS
10
1.95839
20
1.31891
11
1.97197
21
1.32283
0
LINE
8
BLACK
6
CONTINUOUS
10
1.97197
20
1.32283
11
1.98589
21
1.32519
0
LINE
8
BLACK
6
CONTINUOUS
10
1.98589
20
1.32519
11
2
21
1.32598
0
LINE
8
BLACK
6
CONTINUOUS
10
2
20
1.32598
11
2.01411
21
1.32519
0
LINE
8
BLACK
6
CONTINUOUS
10
0.853013
20
1.19727
11
0.855568
21
1.19557
0
LINE
8
BLACK
6
CONTINUOUS
10
0.855568
20
1.19557
11
0.857275
21
1.19301
0
LINE
8
BLACK
6
CONTINUOUS
10
0.857275
20
1.19301
11
0.857874
21
1.19
0
LINE
8
BLACK
6
CONTINUOUS
10
0.857874
20
1.19
11
0.857874
21
1.13
0
LINE
8
BLACK
6
CONTINUOUS
10
0.857874
20
1.13
11
0.857275
21
1.12699
0
LINE
8
BLACK
6
CONTINUOUS
10
0.857275
20
1.12699
11
0.855568
21
1.12443
0
LINE
8
BLACK
6
CONTINUOUS
10
0.855568
20
1.12443
11
0.853013
21
1.12273
0
LINE
8
BLACK
6
CONTINUOUS
10
0.853013
20
1.12273
11
0.85
21
1.12213
0
LINE
8
BLACK
6
CONTINUOUS
10
0.85
20
1.12213
11
0.79
21
1.12213
0
LINE
8
BLACK
6
CONTINUOUS
10
0.79
20
1.12213
11
0.786987
21
1.12273
0
LINE
8
BLACK
6
CONTINUOUS
10
0.786987
20
1.12273
11
0.784432
21
1.12443
0
LINE
8
BLACK
6
CONTINUOUS
10
0.784432
20
1.12443
11
0.782725
21
1.12699
0
LINE
8
BLACK
6
CONTINUOUS
10
0.782725
20
1.12699
11
0.782126
21
1.13
0
LINE
8
BLACK
6
CONTINUOUS
10
0.782126
20
1.13
11
0.782126
21
1.19
0
LINE
8
BLACK
6
CONTINUOUS
10
0.782126
20
1.19
11
0.782725
21
1.19301
0
LINE
8
BLACK
6
CONTINUOUS
10
0.782725
20
1.19301
11
0.784432
21
1.19557
0
LINE
8
BLACK
6
CONTINUOUS
10
0.784432
20
1.19557
11
0.786987
21
1.19727
0
LINE
8
BLACK
6
CONTINUOUS
10
0.786987
20
1.19727
11
0.79
21
1.19787
0
LINE
8
BLACK
6
CONTINUOUS
10
0.79
20
1.19787
11
0.85
21
1.19787
0
LINE
8
BLACK
6
CONTINUOUS
10
0.85
20
1.19787
11
0.853013
21
1.19727
0
LINE
8
BLACK
6
CONTINUOUS
10
0.953013
20
1.19727
11
0.955568
21
1.19557
0
LINE
8
BLACK
6
CONTINUOUS
10
0.955568
20
1.19557
11
0.957275
21
1.19301
0
LINE
8
BLACK
6
CONTINUOUS
10
0.957275
20
1.19301
11
0.957874
21
1.19
0
LINE
8
BLACK
6
CONTINUOUS
10
0.957874
20
1.19
11
0.957874
21
1.13
0
LINE
8
BLACK
6
CONTINUOUS
10
0.957874
20
1.13
11
0.957275
21
1.12699
0
LINE
8
BLACK
6
CONTINUOUS
10
0.957275
20
1.12699
11
0.955568
21
1.12443
0
LINE
8
BLACK
6
CONTINUOUS
10
0.955568
20
1.12443
11
0.953013
21
1.12273
0
LINE
8
BLACK
6
CONTINUOUS
10
0.953013
20
1.12273
11
0.95
21
1.12213
0
LINE
8
BLACK
6
CONTINUOUS
10
0.95
20
1.12213
11
0.89
21
1.12213
0
LINE
8
BLACK
6
CONTINUOUS
10
0.89
20
1.12213
11
0.886987
21
1.12273
0
LINE
8
BLACK
6
CONTINUOUS
10
0.886987
20
1.12273
11
0.884432
21
1.12443
0
LINE
8
BLACK
6
CONTINUOUS
10
0.884432
20
1.12443
11
0.882725
21
1.12699
0
LINE
8
BLACK
6
CONTINUOUS
10
0.882725
20
1.12699
11
0.882126
21
1.13
0
LINE
8
BLACK
6
CONTINUOUS
10
0.882126
20
1.13
11
0.882126
21
1.19
0
LINE
8
BLACK
6
CONTINUOUS
10
0.882126
20
1.19
11
0.882725
21
1.19301
0
LINE
8
BLACK
6
CONTINUOUS
10
0.882725
20
1.19301
11
0.884432
21
1.19557
0
LINE
8
BLACK
6
CONTINUOUS
10
0.884432
20
1.19557
11
0.886987
21
1.19727
0
LINE
8
BLACK
6
CONTINUOUS
10
0.886987
20
1.19727
11
0.89
21
1.19787
0
LINE
8
BLACK
6
CONTINUOUS
10
0.89
20
1.19787
11
0.95
21
1.19787
0
LINE
8
BLACK
6
CONTINUOUS
10
0.95
20
1.19787
11
0.953013
21
1.19727
0
LINE
8
BLACK
6
CONTINUOUS
10
1.05301
20
1.19727
11
1.05557
21
1.19557
0
LINE
8
BLACK
6
CONTINUOUS
10
1.05557
20
1.19557
11
1.05727
21
1.19301
0
LINE
8
BLACK
6
CONTINUOUS
10
1.05727
20
1.19301
11
1.05787
21
1.19
0
LINE
8
BLACK
6
CONTINUOUS
10
1.05787
20
1.19
11
1.05787
21
1.13
0
LINE
8
BLACK
6
CONTINUOUS
10
1.05787
20
1.13
11
1.05727
21
1.12699
0
LINE
8
BLACK
6
CONTINUOUS
10
1.05727
20
1.12699
11
1.05557
21
1.12443
0
LINE
8
BLACK
6
CONTINUOUS
10
1.05557
20
1.12443
11
1.05301
21
1.12273
0
LINE
8
BLACK
6
CONTINUOUS
10
1.05301
20
1.12273
11
1.05
21
1.12213
0
LINE
8
BLACK
6
CONTINUOUS
10
1.05
20
1.12213
11
0.99
21
1.12213
0
LINE
8
BLACK
6
CONTINUOUS
10
0.99
20
1.12213
11
0.986987
21
1.12273
0
LINE
8
BLACK
6
CONTINUOUS
10
0.986987
20
1.12273
11
0.984432
21
1.12443
0
LINE
8
BLACK
6
CONTINUOUS
10
0.984432
20
1.12443
11
0.982725
21
1.12699
0
LINE
8
BLACK
6
CONTINUOUS
10
0.982725
20
1.12699
11
0.982126
21
1.13
0
LINE
8
BLACK
6
CONTINUOUS
10
0.982126
20
1.13
11
0.982126
21
1.19
0
LINE
8
BLACK
6
CONTINUOUS
10
0.982126
20
1.19
11
0.982725
21
1.19301
0
LINE
8
BLACK
6
CONTINUOUS
10
0.982725
20
1.19301
11
0.984432
21
1.19557
0
LINE
8
BLACK
6
CONTINUOUS
10
0.984432
20
1.19557
11
0.986987
21
1.19727
0
LINE
8
BLACK
6
CONTINUOUS
10
0.986987
20
1.19727
11
0.99
21
1.19787
0
LINE
8
BLACK
6
CONTINUOUS
10
0.99
20
1.19787
11
1.05
21
1.19787
0
LINE
8
BLACK
6
CONTINUOUS
10
1.05
20
1.19787
11
1.05301
21
1.19727
0
LINE
8
BLACK
6
CONTINUOUS
10
1.15301
20
1.19727
11
1.15557
21
1.19557
0
LINE
8
BLACK
6
CONTINUOUS
10
1.15557
20
1.19557
11
1.15727
21
1.19301
0
LINE
8
BLACK
6
CONTINUOUS
10
1.15727
20
1.19301
11
1.15787
21
1.19
0
LINE
8
BLACK
6
CONTINUOUS
10
1.15787
20
1.19
11
1.15787
21
1.13
0
LINE
8
BLACK
6
CONTINUOUS
10
1.15787
20
1.13
11
1.15727
21
1.12699
0
LINE
8
BLACK
6
CONTINUOUS
10
1.15727
20
1.12699
11
1.15557
21
1.12443
0
LINE
8
BLACK
6
CONTINUOUS
10
1.15557
20
1.12443
11
1.15301
21
1.12273
0
LINE
8
BLACK
6
CONTINUOUS
10
1.15301
20
1.12273
11
1.15
21
1.12213
0
LINE
8
BLACK
6
CONTINUOUS
10
1.15
20
1.12213
11
1.09
21
1.12213
0
LINE
8
BLACK
6
CONTINUOUS
10
1.09
20
1.12213
11
1.08699
21
1.12273
0
LINE
8
BLACK
6
CONTINUOUS
10
1.08699
20
1.12273
11
1.08443
21
1.12443
0
LINE
8
BLACK
6
CONTINUOUS
10
1.08443
20
1.12443
11
1.08273
21
1.12699
0
LINE
8
BLACK
6
CONTINUOUS
10
1.08273
20
1.12699
11
1.08213
21
1.13
0
LINE
8
BLACK
6
CONTINUOUS
10
1.08213
20
1.13
11
1.08213
21
1.19
0
LINE
8
BLACK
6
CONTINUOUS
10
1.08213
20
1.19
11
1.08273
21
1.19301
0
LINE
8
BLACK
6
CONTINUOUS
10
1.08273
20
1.19301
11
1.08443
21
1.19557
0
LINE
8
BLACK
6
CONTINUOUS
10
1.08443
20
1.19557
11
1.08699
21
1.19727
0
LINE
8
BLACK
6
CONTINUOUS
10
1.08699
20
1.19727
11
1.09
21
1.19787
0
LINE
8
BLACK
6
CONTINUOUS
10
1.09
20
1.19787
11
1.15
21
1.19787
0
LINE
8
BLACK
6
CONTINUOUS
10
1.15
20
1.19787
11
1.15301
21
1.19727
0
LINE
8
BLACK
6
CONTINUOUS
10
1.25301
20
1.19727
11
1.25557
21
1.19557
0
LINE
8
BLACK
6
CONTINUOUS
10
1.25557
20
1.19557
11
1.25727
21
1.19301
0
LINE
8
BLACK
6
CONTINUOUS
10
1.25727
20
1.19301
11
1.25787
21
1.19
0
LINE
8
BLACK
6
CONTINUOUS
10
1.25787
20
1.19
11
1.25787
21
1.13
0
LINE
8
BLACK
6
CONTINUOUS
10
1.25787
20
1.13
11
1.25727
21
1.12699
0
LINE
8
BLACK
6
CONTINUOUS
10
1.25727
20
1.12699
11
1.25557
21
1.12443
0
LINE
8
BLACK
6
CONTINUOUS
10
1.25557
20
1.12443
11
1.25301
21
1.12273
0
LINE
8
BLACK
6
CONTINUOUS
10
1.25301
20
1.12273
11
1.25
21
1.12213
0
LINE
8
BLACK
6
CONTINUOUS
10
1.25
20
1.12213
11
1.19
21
1.12213
0
LINE
8
BLACK
6
CONTINUOUS
10
1.19
20
1.12213
11
1.18699
21
1.12273
0
LINE
8
BLACK
6
CONTINUOUS
10
1.18699
20
1.12273
11
1.18443
21
1.12443
0
LINE
8
BLACK
6
CONTINUOUS
10
1.18443
20
1.12443
11
1.18273
21
1.12699
0
LINE
8
BLACK
6
CONTINUOUS
10
1.18273
20
1.12699
11
1.18213
21
1.13
0
LINE
8
BLACK
6
CONTINUOUS
10
1.18213
20
1.13
11
1.18213
21
1.19
0
LINE
8
BLACK
6
CONTINUOUS
10
1.18213
20
1.19
11
1.18273
21
1.19301
0
LINE
8
BLACK
6
CONTINUOUS
10
1.18273
20
1.19301
11
1.18443
21
1.19557
0
LINE
8
BLACK
6
CONTINUOUS
10
1.18443
20
1.19557
11
1.18699
21
1.19727
0
LINE
8
BLACK
6
CONTINUOUS
10
1.18699
20
1.19727
11
1.19
21
1.19787
0
LINE
8
BLACK
6
CONTINUOUS
10
1.19
20
1.19787
11
1.25
21
1.19787
0
LINE
8
BLACK
6
CONTINUOUS
10
1.25
20
1.19787
11
1.25301
21
1.19727
0
LINE
8
BLACK
6
CONTINUOUS
10
1.53301
20
1.19727
11
1.53557
21
1.19557
0
LINE
8
BLACK
6
CONTINUOUS
10
1.53557
20
1.19557
11
1.53727
21
1.19301
0
LINE
8
BLACK
6
CONTINUOUS
10
1.53727
20
1.19301
11
1.53787
21
1.19
0
LINE
8
BLACK
6
CONTINUOUS
10
1.53787
20
1.19
11
1.53787
21
1.13
0
LINE
8
BLACK
6
CONTINUOUS
10
1.53787
20
1.13
11
1.53727
21
1.12699
0
LINE
8
BLACK
6
CONTINUOUS
10
1.53727
20
1.12699
11
1.53557
21
1.12443
0
LINE
8
BLACK
6
CONTINUOUS
10
1.53557
20
1.12443
11
1.53301
21
1.12273
0
LINE
8
BLACK
6
CONTINUOUS
10
1.53301
20
1.12273
11
1.53
21
1.12213
0
LINE
8
BLACK
6
CONTINUOUS
10
1.53
20
1.12213
11
1.47
21
1.12213
0
LINE
8
BLACK
6
CONTINUOUS
10
1.47
20
1.12213
11
1.46699
21
1.12273
0
LINE
8
BLACK
6
CONTINUOUS
10
1.46699
20
1.12273
11
1.46443
21
1.12443
0
LINE
8
BLACK
6
CONTINUOUS
10
1.46443
20
1.12443
11
1.46273
21
1.12699
0
LINE
8
BLACK
6
CONTINUOUS
10
1.46273
20
1.12699
11
1.46213
21
1.13
0
LINE
8
BLACK
6
CONTINUOUS
10
1.46213
20
1.13
11
1.46213
21
1.19
0
LINE
8
BLACK
6
CONTINUOUS
10
1.46213
20
1.19
11
1.46273
21
1.19301
0
LINE
8
BLACK
6
CONTINUOUS
10
1.46273
20
1.19301
11
1.46443
21
1.19557
0
LINE
8
BLACK
6
CONTINUOUS
10
1.46443
20
1.19557
11
1.46699
21
1.19727
0
LINE
8
BLACK
6
CONTINUOUS
10
1.46699
20
1.19727
11
1.47
21
1.19787
0
LINE
8
BLACK
6
CONTINUOUS
10
1.47
20
1.19787
11
1.53
21
1.19787
0
LINE
8
BLACK
6
CONTINUOUS
10
1.53
20
1.19787
11
1.53301
21
1.19727
0
LINE
8
BLACK
6
CONTINUOUS
10
1.63301
20
1.19727
11
1.63557
21
1.19557
0
LINE
8
BLACK
6
CONTINUOUS
10
1.63557
20
1.19557
11
1.63727
21
1.19301
0
LINE
8
BLACK
6
CONTINUOUS
10
1.63727
20
1.19301
11
1.63787
21
1.19
0
LINE
8
BLACK
6
CONTINUOUS
10
1.63787
20
1.19
11
1.63787
21
1.13
0
LINE
8
BLACK
6
CONTINUOUS
10
1.63787
20
1.13
11
1.63727
21
1.12699
0
LINE
8
BLACK
6
CONTINUOUS
10
1.63727
20
1.12699
11
1.63557
21
1.12443
0
LINE
8
BLACK
6
CONTINUOUS
10
1.63557
20
1.12443
11
1.63301
21
1.12273
0
LINE
8
BLACK
6
CONTINUOUS
10
1.63301
20
1.12273
11
1.63
21
1.12213
0
LINE
8
BLACK
6
CONTINUOUS
10
1.63
20
1.12213
11
1.57
21
1.12213
0
LINE
8
BLACK
6
CONTINUOUS
10
1.57
20
1.12213
11
1.56699
21
1.12273
0
LINE
8
BLACK
6
CONTINUOUS
10
1.56699
20
1.12273
11
1.56443
21
1.12443
0
LINE
8
BLACK
6
CONTINUOUS
10
1.56443
20
1.12443
11
1.56273
21
1.12699
0
LINE
8
BLACK
6
CONTINUOUS
10
1.56273
20
1.12699
11
1.56213
21
1.13
0
LINE
8
BLACK
6
CONTINUOUS
10
1.56213
20
1.13
11
1.56213
21
1.19
0
LINE
8
BLACK
6
CONTINUOUS
10
1.56213
20
1.19
11
1.56273
21
1.19301
0
LINE
8
BLACK
6
CONTINUOUS
10
1.56273
20
1.19301
11
1.56443
21
1.19557
0
LINE
8
BLACK
6
CONTINUOUS
10
1.56443
20
1.19557
11
1.56699
21
1.19727
0
LINE
8
BLACK
6
CONTINUOUS
10
1.56699
20
1.19727
11
1.57
21
1.19787
0
LINE
8
BLACK
6
CONTINUOUS
10
1.57
20
1.19787
11
1.63
21
1.19787
0
LINE
8
BLACK
6
CONTINUOUS
10
1.63
20
1.19787
11
1.63301
21
1.19727
0
LINE
8
BLACK
6
CONTINUOUS
10
0.853013
20
1.29727
11
0.855568
21
1.29557
0
LINE
8
BLACK
6
CONTINUOUS
10
0.855568
20
1.29557
11
0.857275
21
1.29301
0
LINE
8
BLACK
6
CONTINUOUS
10
0.857275
20
1.29301
11
0.857874
21
1.29
0
LINE
8
BLACK
6
CONTINUOUS
10
0.857874
20
1.29
11
0.857874
21
1.23
0
LINE
8
BLACK
6
CONTINUOUS
10
0.857874
20
1.23
11
0.857275
21
1.22699
0
LINE
8
BLACK
6
CONTINUOUS
10
0.857275
20
1.22699
11
0.855568
21
1.22443
0
LINE
8
BLACK
6
CONTINUOUS
10
0.855568
20
1.22443
11
0.853013
21
1.22273
0
LINE
8
BLACK
6
CONTINUOUS
10
0.853013
20
1.22273
11
0.85
21
1.22213
0
LINE
8
BLACK
6
CONTINUOUS
10
0.85
20
1.22213
11
0.79
21
1.22213
0
LINE
8
BLACK
6
CONTINUOUS
10
0.79
20
1.22213
11
0.786987
21
1.22273
0
LINE
8
BLACK
6
CONTINUOUS
10
0.786987
20
1.22273
11
0.784432
21
1.22443
0
LINE
8
BLACK
6
CONTINUOUS
10
0.784432
20
1.22443
11
0.782725
21
1.22699
0
LINE
8
BLACK
6
CONTINUOUS
10
0.782725
20
1.22699
11
0.782126
21
1.23
0
LINE
8
BLACK
6
CONTINUOUS
10
0.782126
20
1.23
11
0.782126
21
1.29
0
LINE
8
BLACK
6
CONTINUOUS
10
0.782126
20
1.29
11
0.782725
21
1.29301
0
LINE
8
BLACK
6
CONTINUOUS
10
0.782725
20
1.29301
11
0.784432
21
1.29557
0
LINE
8
BLACK
6
CONTINUOUS
10
0.784432
20
1.29557
11
0.786987
21
1.29727
0
LINE
8
BLACK
6
CONTINUOUS
10
0.786987
20
1.29727
11
0.79
21
1.29787
0
LINE
8
BLACK
6
CONTINUOUS
10
0.79
20
1.29787
11
0.85
21
1.29787
0
LINE
8
BLACK
6
CONTINUOUS
10
0.85
20
1.29787
11
0.853013
21
1.29727
0
LINE
8
BLACK
6
CONTINUOUS
10
0.953013
20
1.29727
11
0.955568
21
1.29557
0
LINE
8
BLACK
6
CONTINUOUS
10
0.955568
20
1.29557
11
0.957275
21
1.29301
0
LINE
8
BLACK
6
CONTINUOUS
10
0.957275
20
1.29301
11
0.957874
21
1.29
0
LINE
8
BLACK
6
CONTINUOUS
10
0.957874
20
1.29
11
0.957874
21
1.23
0
LINE
8
BLACK
6
CONTINUOUS
10
0.957874
20
1.23
11
0.957275
21
1.22699
0
LINE
8
BLACK
6
CONTINUOUS
10
0.957275
20
1.22699
11
0.955568
21
1.22443
0
LINE
8
BLACK
6
CONTINUOUS
10
0.955568
20
1.22443
11
0.953013
21
1.22273
0
LINE
8
BLACK
6
CONTINUOUS
10
0.953013
20
1.22273
11
0.95
21
1.22213
0
LINE
8
BLACK
6
CONTINUOUS
10
0.95
20
1.22213
11
0.89
21
1.22213
0
LINE
8
BLACK
6
CONTINUOUS
10
0.89
20
1.22213
11
0.886987
21
1.22273
0
LINE
8
BLACK
6
CONTINUOUS
10
0.886987
20
1.22273
11
0.884432
21
1.22443
0
LINE
8
BLACK
6
CONTINUOUS
10
0.884432
20
1.22443
11
0.882725
21
1.22699
0
LINE
8
BLACK
6
CONTINUOUS
10
0.882725
20
1.22699
11
0.882126
21
1.23
0
LINE
8
BLACK
6
CONTINUOUS
10
0.882126
20
1.23
11
0.882126
21
1.29
0
LINE
8
BLACK
6
CONTINUOUS
10
0.882126
20
1.29
11
0.882725
21
1.29301
0
LINE
8
BLACK
6
CONTINUOUS
10
0.882725
20
1.29301
11
0.884432
21
1.29557
0
LINE
8
BLACK
6
CONTINUOUS
10
0.884432
20
1.29557
11
0.886987
21
1.29727
0
LINE
8
BLACK
6
CONTINUOUS
10
0.886987
20
1.29727
11
0.89
21
1.29787
0
LINE
8
BLACK
6
CONTINUOUS
10
0.89
20
1.29787
11
0.95
21
1.29787
0
LINE
8
BLACK
6
CONTINUOUS
10
0.95
20
1.29787
11
0.953013
21
1.29727
0
LINE
8
BLACK
6
CONTINUOUS
10
1.05301
20
1.29727
11
1.05557
21
1.29557
0
LINE
8
BLACK
6
CONTINUOUS
10
1.05557
20
1.29557
11
1.05727
21
1.29301
0
LINE
8
BLACK
6
CONTINUOUS
10
1.05727
20
1.29301
11
1.05787
21
1.29
0
LINE
8
BLACK
6
CONTINUOUS
10
1.05787
20
1.29
11
1.05787
21
1.23
0
LINE
8
BLACK
6
CONTINUOUS
10
1.05787
20
1.23
11
1.05727
21
1.22699
0
LINE
8
BLACK
6
CONTINUOUS
10
1.05727
20
1.22699
11
1.05557
21
1.22443
0
LINE
8
BLACK
6
CONTINUOUS
10
1.05557
20
1.22443
11
1.05301
21
1.22273
0
LINE
8
BLACK
6
CONTINUOUS
10
1.05301
20
1.22273
11
1.05
21
1.22213
0
LINE
8
BLACK
6
CONTINUOUS
10
1.05
20
1.22213
11
0.99
21
1.22213
0
LINE
8
BLACK
6
CONTINUOUS
10
0.99
20
1.22213
11
0.986987
21
1.22273
0
LINE
8
BLACK
6
CONTINUOUS
10
0.986987
20
1.22273
11
0.984432
21
1.22443
0
LINE
8
BLACK
6
CONTINUOUS
10
0.984432
20
1.22443
11
0.982725
21
1.22699
0
LINE
8
BLACK
6
CONTINUOUS
10
0.982725
20
1.22699
11
0.982126
21
1.23
0
LINE
8
BLACK
6
CONTINUOUS
10
0.982126
20
1.23
11
0.982126
21
1.29
0
LINE
8
BLACK
6
CONTINUOUS
10
0.982126
20
1.29
11
0.982725
21
1.29301
0
LINE
8
BLACK
6
CONTINUOUS
10
0.982725
20
1.29301
11
0.984432
21
1.29557
0
LINE
8
BLACK
6
CONTINUOUS
10
0.984432
20
1.29557
11
0.986987
21
1.29727
0
LINE
8
BLACK
6
CONTINUOUS
10
0.986987
20
1.29727
11
0.99
21
1.29787
0
LINE
8
BLACK
6
CONTINUOUS
10
0.99
20
1.29787
11
1.05
21
1.29787
0
LINE
8
BLACK
6
CONTINUOUS
10
1.05
20
1.29787
11
1.05301
21
1.29727
0
LINE
8
BLACK
6
CONTINUOUS
10
1.15301
20
1.29727
11
1.15557
21
1.29557
0
LINE
8
BLACK
6
CONTINUOUS
10
1.15557
20
1.29557
11
1.15727
21
1.29301
0
LINE
8
BLACK
6
CONTINUOUS
10
1.15727
20
1.29301
11
1.15787
21
1.29
0
LINE
8
BLACK
6
CONTINUOUS
10
1.15787
20
1.29
11
1.15787
21
1.23
0
LINE
8
BLACK
6
CONTINUOUS
10
1.15787
20
1.23
11
1.15727
21
1.22699
0
LINE
8
BLACK
6
CONTINUOUS
10
1.15727
20
1.22699
11
1.15557
21
1.22443
0
LINE
8
BLACK
6
CONTINUOUS
10
1.15557
20
1.22443
11
1.15301
21
1.22273
0
LINE
8
BLACK
6
CONTINUOUS
10
1.15301
20
1.22273
11
1.15
21
1.22213
0
LINE
8
BLACK
6
CONTINUOUS
10
1.15
20
1.22213
11
1.09
21
1.22213
0
LINE
8
BLACK
6
CONTINUOUS
10
1.09
20
1.22213
11
1.08699
21
1.22273
0
LINE
8
BLACK
6
CONTINUOUS
10
1.08699
20
1.22273
11
1.08443
21
1.22443
0
LINE
8
BLACK
6
CONTINUOUS
10
1.08443
20
1.22443
11
1.08273
21
1.22699
0
LINE
8
BLACK
6
CONTINUOUS
10
1.08273
20
1.22699
11
1.08213
21
1.23
0
LINE
8
BLACK
6
CONTINUOUS
10
1.08213
20
1.23
11
1.08213
21
1.29
0
LINE
8
BLACK
6
CONTINUOUS
10
1.08213
20
1.29
11
1.08273
21
1.29301
0
LINE
8
BLACK
6
CONTINUOUS
10
1.08273
20
1.29301
11
1.08443
21
1.29557
0
LINE
8
BLACK
6
CONTINUOUS
10
1.08443
20
1.29557
11
1.08699
21
1.29727
0
LINE
8
BLACK
6
CONTINUOUS
10
1.08699
20
1.29727
11
1.09
21
1.29787
0
LINE
8
BLACK
6
CONTINUOUS
10
1.09
20
1.29787
11
1.15
21
1.29787
0
LINE
8
BLACK
6
CONTINUOUS
10
1.15
20
1.29787
11
1.15301
21
1.29727
0
LINE
8
BLACK
6
CONTINUOUS
10
1.25301
20
1.29727
11
1.25557
21
1.29557
0
LINE
8
BLACK
6
CONTINUOUS
10
1.25557
20
1.29557
11
1.25727
21
1.29301
0
LINE
8
BLACK
6
CONTINUOUS
10
1.25727
20
1.29301
11
1.25787
21
1.29
0
LINE
8
BLACK
6
CONTINUOUS
10
1.25787
20
1.29
11
1.25787
21
1.23
0
LINE
8
BLACK
6
CONTINUOUS
10
1.25787
20
1.23
11
1.25727
21
1.22699
0
LINE
8
BLACK
6
CONTINUOUS
10
1.25727
20
1.22699
11
1.25557
21
1.22443
0
LINE
8
BLACK
6
CONTINUOUS
10
1.25557
20
1.22443
11
1.25301
21
1.22273
0
LINE
8
BLACK
6
CONTINUOUS
10
1.25301
20
1.22273
11
1.25
21
1.22213
0
LINE
8
BLACK
6
CONTINUOUS
10
1.25
20
1.22213
11
1.19
21
1.22213
0
LINE
8
BLACK
6
CONTINUOUS
10
1.19
20
1.22213
11
1.18699
21
1.22273
0
LINE
8
BLACK
6
CONTINUOUS
10
1.18699
20
1.22273
11
1.18443
21
1.22443
0
LINE
8
BLACK
6
CONTINUOUS
10
1.18443
20
1.22443
11
1.18273
21
1.22699
0
LINE
8
BLACK
6
CONTINUOUS
10
1.18273
20
1.22699
11
1.18213
21
1.23
0
LINE
8
BLACK
6
CONTINUOUS
10
1.18213
20
1.23
11
1.18213
21
1.29
0
LINE
8
BLACK
6
CONTINUOUS
10
1.18213
20
1.29
11
1.18273
21
1.29301
0
LINE
8
BLACK
6
CONTINUOUS
10
1.18273
20
1.29301
11
1.18443
21
1.29557
0
LINE
8
BLACK
6
CONTINUOUS
10
1.18443
20
1.29557
11
1.18699
21
1.29727
0
LINE
8
BLACK
6
CONTINUOUS
10
1.18699
20
1.29727
11
1.19
21
1.29787
0
LINE
8
BLACK
6
CONTINUOUS
10
1.19
20
1.29787
11
1.25
21
1.29787
0
LINE
8
BLACK
6
CONTINUOUS
10
1.25
20
1.29787
11
1.25301
21
1.29727
0
LINE
8
BLACK
6
CONTINUOUS
10
1.53301
20
1.29727
11
1.53557
21
1.29557
0
LINE
8
BLACK
6
CONTINUOUS
10
1.53557
20
1.29557
11
1.53727
21
1.29301
0
LINE
8
BLACK
6
CONTINUOUS
10
1.53727
20
1.29301
11
1.53787
21
1.29
0
LINE
8
BLACK
6
CONTINUOUS
10
1.53787
20
1.29
11
1.53787
21
1.23
0
LINE
8
BLACK
6
CONTINUOUS
10
1.53787
20
1.23
11
1.53727
21
1.22699
0
LINE
8
BLACK
6
CONTINUOUS
10
1.53727
20
1.22699
11
1.53557
21
1.22443
0
LINE
8
BLACK
6
CONTINUOUS
10
1.53557
20
1.22443
11
1.53301
21
1.22273
0
LINE
8
BLACK
6
CONTINUOUS
10
1.53301
20
1.22273
11
1.53
21
1.22213
0
LINE
8
BLACK
6
CONTINUOUS
10
1.53
20
1.22213
11
1.47
21
1.22213
0
LINE
8
BLACK
6
CONTINUOUS
10
1.47
20
1.22213
11
1.46699
21
1.22273
0
LINE
8
BLACK
6
CONTINUOUS
10
1.46699
20
1.22273
11
1.46443
21
1.22443
0
LINE
8
BLACK
6
CONTINUOUS
10
1.46443
20
1.22443
11
1.46273
21
1.22699
0
LINE
8
BLACK
6
CONTINUOUS
10
1.46273
20
1.22699
11
1.46213
21
1.23
0
LINE
8
BLACK
6
CONTINUOUS
10
1.46213
20
1.23
11
1.46213
21
1.29
0
LINE
8
BLACK
6
CONTINUOUS
10
1.46213
20
1.29
11
1.46273
21
1.29301
0
LINE
8
BLACK
6
CONTINUOUS
10
1.46273
20
1.29301
11
1.46443
21
1.29557
0
LINE
8
BLACK
6
CONTINUOUS
10
1.46443
20
1.29557
11
1.46699
21
1.29727
0
LINE
8
BLACK
6
CONTINUOUS
10
1.46699
20
1.29727
11
1.47
21
1.29787
0
LINE
8
BLACK
6
CONTINUOUS
10
1.47
20
1.29787
11
1.53
21
1.29787
0
LINE
8
BLACK
6
CONTINUOUS
10
1.53
20
1.29787
11
1.53301
21
1.29727
0
LINE
8
BLACK
6
CONTINUOUS
10
1.63301
20
1.29727
11
1.63557
21
1.29557
0
LINE
8
BLACK
6
CONTINUOUS
10
1.63557
20
1.29557
11
1.63727
21
1.29301
0
LINE
8
BLACK
6
CONTINUOUS
10
1.63727
20
1.29301
11
1.63787
21
1.29
0
LINE
8
BLACK
6
CONTINUOUS
10
1.63787
20
1.29
11
1.63787
21
1.23
0
LINE
8
BLACK
6
CONTINUOUS
10
1.63787
20
1.23
11
1.63727
21
1.22699
0
LINE
8
BLACK
6
CONTINUOUS
10
1.63727
20
1.22699
11
1.63557
21
1.22443
0
LINE
8
BLACK
6
CONTINUOUS
10
1.63557
20
1.22443
11
1.63301
21
1.22273
0
LINE
8
BLACK
6
CONTINUOUS
10
1.63301
20
1.22273
11
1.63
21
1.22213
0
LINE
8
BLACK
6
CONTINUOUS
10
1.63
20
1.22213
11
1.57
21
1.22213
0
LINE
8
BLACK
6
CONTINUOUS
10
1.57
20
1.22213
11
1.56699
21
1.22273
0
LINE
8
BLACK
6
CONTINUOUS
10
1.56699
20
1.22273
11
1.56443
21
1.22443
0
LINE
8
BLACK
6
CONTINUOUS
10
1.56443
20
1.22443
11
1.56273
21
1.22699
0
LINE
8
BLACK
6
CONTINUOUS
10
1.56273
20
1.22699
11
1.56213
21
1.23
0
LINE
8
BLACK
6
CONTINUOUS
10
1.56213
20
1.23
11
1.56213
21
1.29
0
LINE
8
BLACK
6
CONTINUOUS
10
1.56213
20
1.29
11
1.56273
21
1.29301
0
LINE
8
BLACK
6
CONTINUOUS
10
1.56273
20
1.29301
11
1.56443
21
1.29557
0
LINE
8
BLACK
6
CONTINUOUS
10
1.56443
20
1.29557
11
1.56699
21
1.29727
0
LINE
8
BLACK
6
CONTINUOUS
10
1.56699
20
1.29727
11
1.57
21
1.29787
0
LINE
8
BLACK
6
CONTINUOUS
10
1.57
20
1.29787
11
1.63
21
1.29787
0
LINE
8
BLACK
6
CONTINUOUS
10
1.63
20
1.29787
11
1.63301
21
1.29727
  0
ENDSEC
  0
EOF
