  0
SECTION
  2
HEADER
  9
$ANGBASE
  50
0.0
  9
$ANGDIR
  70
1
  9
$MEASUREMENT
  70
0
  0
ENDSEC
  0
SECTION
  2
TABLES
  0
TABLE
  2
LTYPE
  70
4
  0
LTYPE
  5
40F
  2
CONTINUOUS
  70
0
  3
Solid line
  72
65
  73
0
  40
0.0
  0
LTYPE
  5
410
  2
DASHDOT
 70
0
  3
Dash Dot ____ _ ____ _
 72
65
 73
4
 40
2.0
 49
1.25
 49
-0.25
 49
0.25
 49
-0.25
  0
LTYPE
  5
411
  2
DASHED
 70
0
  3
Dashed __ __ __ __ __
 72
65
 73
2
 40
0.75
 49
0.5
 49
-0.25
  0
LTYPE
  5
43B
  2
DOTTED
 70
0
  3
Dotted .  .  .  .
 72
65
 73
2
 40
0.2
 49
0.0
 49
-0.2
  0
ENDTAB
  0
TABLE
  2
STYLE
  70
4
  0
STYLE
  2
KICAD
  70
0
  40
0
  41
1
  42
1
  50
0
  71
0
  3
isocp.shx
  0
STYLE
  2
KICADB
  70
0
  40
0
  41
1
  42
1
  50
0
  71
0
  3
isocp.shx
  0
STYLE
  2
KICADI
  70
0
  40
0
  41
1
  42
1
  50
15
  71
0
  3
isocp.shx
  0
STYLE
  2
KICADBI
  70
0
  40
0
  41
1
  42
1
  50
15
  71
0
  3
isocp.shx
  0
ENDTAB
  0
TABLE
  2
LAYER
  70
1
  0
LAYER
  2
BLACK
  70
0
  62
7
  6
CONTINUOUS
  0
ENDTAB
  0
ENDSEC
  0
SECTION
  2
ENTITIES
0
LINE
8
BLACK
6
CONTINUOUS
10
0.985073
20
0.706007
11
0.985296
21
0.706046
0
LINE
8
BLACK
6
CONTINUOUS
10
0.985296
20
0.706046
11
0.985993
21
0.705644
0
LINE
8
BLACK
6
CONTINUOUS
10
0.985993
20
0.705644
11
0.986742
21
0.705348
0
LINE
8
BLACK
6
CONTINUOUS
10
0.986742
20
0.705348
11
0.986849
21
0.705149
0
LINE
8
BLACK
6
CONTINUOUS
10
0.986849
20
0.705149
11
0.987045
21
0.705036
0
LINE
8
BLACK
6
CONTINUOUS
10
0.987045
20
0.705036
11
0.98732
21
0.70428
0
LINE
8
BLACK
6
CONTINUOUS
10
0.98732
20
0.70428
11
0.987704
21
0.703571
0
LINE
8
BLACK
6
CONTINUOUS
10
0.987704
20
0.703571
11
0.987658
21
0.70335
0
LINE
8
BLACK
6
CONTINUOUS
10
0.987658
20
0.70335
11
0.987736
21
0.703138
0
LINE
8
BLACK
6
CONTINUOUS
10
0.987736
20
0.703138
11
0.987736
21
0.687343
0
LINE
8
BLACK
6
CONTINUOUS
10
0.987736
20
0.687343
11
0.997906
21
0.687343
0
LINE
8
BLACK
6
CONTINUOUS
10
0.997906
20
0.687343
11
0.998916
21
0.687165
0
LINE
8
BLACK
6
CONTINUOUS
10
0.998916
20
0.687165
11
1.00046
21
0.685867
0
LINE
8
BLACK
6
CONTINUOUS
10
1.00046
20
0.685867
11
1.00081
21
0.683878
0
LINE
8
BLACK
6
CONTINUOUS
10
1.00081
20
0.683878
11
0.999804
21
0.682129
0
LINE
8
BLACK
6
CONTINUOUS
10
0.999804
20
0.682129
11
0.997906
21
0.681438
0
LINE
8
BLACK
6
CONTINUOUS
10
0.997906
20
0.681438
11
0.987736
21
0.681438
0
LINE
8
BLACK
6
CONTINUOUS
10
0.987736
20
0.681438
11
0.987736
21
0.678766
0
LINE
8
BLACK
6
CONTINUOUS
10
0.987736
20
0.678766
11
0.987558
21
0.677756
0
LINE
8
BLACK
6
CONTINUOUS
10
0.987558
20
0.677756
11
0.986259
21
0.676209
0
LINE
8
BLACK
6
CONTINUOUS
10
0.986259
20
0.676209
11
0.98427
21
0.675859
0
LINE
8
BLACK
6
CONTINUOUS
10
0.98427
20
0.675859
11
0.982521
21
0.676868
0
LINE
8
BLACK
6
CONTINUOUS
10
0.982521
20
0.676868
11
0.98183
21
0.678766
0
LINE
8
BLACK
6
CONTINUOUS
10
0.98183
20
0.678766
11
0.98183
21
0.681438
0
LINE
8
BLACK
6
CONTINUOUS
10
0.98183
20
0.681438
11
0.97166
21
0.681438
0
LINE
8
BLACK
6
CONTINUOUS
10
0.97166
20
0.681438
11
0.97065
21
0.681616
0
LINE
8
BLACK
6
CONTINUOUS
10
0.97065
20
0.681616
11
0.969102
21
0.682914
0
LINE
8
BLACK
6
CONTINUOUS
10
0.969102
20
0.682914
11
0.968752
21
0.684903
0
LINE
8
BLACK
6
CONTINUOUS
10
0.968752
20
0.684903
11
0.969762
21
0.686653
0
LINE
8
BLACK
6
CONTINUOUS
10
0.969762
20
0.686653
11
0.97166
21
0.687343
0
LINE
8
BLACK
6
CONTINUOUS
10
0.97166
20
0.687343
11
0.98183
21
0.687343
0
LINE
8
BLACK
6
CONTINUOUS
10
0.98183
20
0.687343
11
0.98183
21
0.699042
0
LINE
8
BLACK
6
CONTINUOUS
10
0.98183
20
0.699042
11
0.957595
21
0.690963
0
LINE
8
BLACK
6
CONTINUOUS
10
0.957595
20
0.690963
11
0.956581
21
0.690813
0
LINE
8
BLACK
6
CONTINUOUS
10
0.956581
20
0.690813
11
0.954702
21
0.691555
0
LINE
8
BLACK
6
CONTINUOUS
10
0.954702
20
0.691555
11
0.953741
21
0.693331
0
LINE
8
BLACK
6
CONTINUOUS
10
0.953741
20
0.693331
11
0.954146
21
0.69531
0
LINE
8
BLACK
6
CONTINUOUS
10
0.954146
20
0.69531
11
0.955728
21
0.696566
0
LINE
8
BLACK
6
CONTINUOUS
10
0.955728
20
0.696566
11
0.983849
21
0.70594
0
LINE
8
BLACK
6
CONTINUOUS
10
0.983849
20
0.70594
11
0.984864
21
0.70609
0
LINE
8
BLACK
6
CONTINUOUS
10
0.984864
20
0.70609
11
0.985073
21
0.706007
0
LINE
8
BLACK
6
CONTINUOUS
10
0.998536
20
0.745349
11
0.998671
21
0.745361
0
LINE
8
BLACK
6
CONTINUOUS
10
0.998671
20
0.745361
11
0.999399
21
0.744851
0
LINE
8
BLACK
6
CONTINUOUS
10
0.999399
20
0.744851
11
1.00017
21
0.744406
0
LINE
8
BLACK
6
CONTINUOUS
10
1.00017
20
0.744406
11
1.00021
21
0.74428
0
LINE
8
BLACK
6
CONTINUOUS
10
1.00021
20
0.74428
11
1.00033
21
0.744202
0
LINE
8
BLACK
6
CONTINUOUS
10
1.00033
20
0.744202
11
1.00056
21
0.743344
0
LINE
8
BLACK
6
CONTINUOUS
10
1.00056
20
0.743344
11
1.00086
21
0.742508
0
LINE
8
BLACK
6
CONTINUOUS
10
1.00086
20
0.742508
11
1.00086
21
0.718136
0
LINE
8
BLACK
6
CONTINUOUS
10
1.00086
20
0.718136
11
1.00068
21
0.717127
0
LINE
8
BLACK
6
CONTINUOUS
10
1.00068
20
0.717127
11
0.999383
21
0.715579
0
LINE
8
BLACK
6
CONTINUOUS
10
0.999383
20
0.715579
11
0.997394
21
0.715229
0
LINE
8
BLACK
6
CONTINUOUS
10
0.997394
20
0.715229
11
0.995644
21
0.716239
0
LINE
8
BLACK
6
CONTINUOUS
10
0.995644
20
0.716239
11
0.994954
21
0.718136
0
LINE
8
BLACK
6
CONTINUOUS
10
0.994954
20
0.718136
11
0.994954
21
0.73538
0
LINE
8
BLACK
6
CONTINUOUS
10
0.994954
20
0.73538
11
0.977497
21
0.717923
0
LINE
8
BLACK
6
CONTINUOUS
10
0.977497
20
0.717923
11
0.976657
21
0.717335
0
LINE
8
BLACK
6
CONTINUOUS
10
0.976657
20
0.717335
11
0.976481
21
0.71732
0
LINE
8
BLACK
6
CONTINUOUS
10
0.976481
20
0.71732
11
0.976343
21
0.71721
0
LINE
8
BLACK
6
CONTINUOUS
10
0.976343
20
0.71721
11
0.970719
21
0.715335
0
LINE
8
BLACK
6
CONTINUOUS
10
0.970719
20
0.715335
11
0.969845
21
0.715206
0
LINE
8
BLACK
6
CONTINUOUS
10
0.969845
20
0.715206
11
0.969785
21
0.715184
0
LINE
8
BLACK
6
CONTINUOUS
10
0.969785
20
0.715184
11
0.966035
21
0.715184
0
LINE
8
BLACK
6
CONTINUOUS
10
0.966035
20
0.715184
11
0.965025
21
0.715362
0
LINE
8
BLACK
6
CONTINUOUS
10
0.965025
20
0.715362
11
0.96489
21
0.715475
0
LINE
8
BLACK
6
CONTINUOUS
10
0.96489
20
0.715475
11
0.964715
21
0.715495
0
LINE
8
BLACK
6
CONTINUOUS
10
0.964715
20
0.715495
11
0.960965
21
0.71737
0
LINE
8
BLACK
6
CONTINUOUS
10
0.960965
20
0.71737
11
0.960256
21
0.717896
0
LINE
8
BLACK
6
CONTINUOUS
10
0.960256
20
0.717896
11
0.960198
21
0.717923
0
LINE
8
BLACK
6
CONTINUOUS
10
0.960198
20
0.717923
11
0.958323
21
0.719798
0
LINE
8
BLACK
6
CONTINUOUS
10
0.958323
20
0.719798
11
0.957817
21
0.720521
0
LINE
8
BLACK
6
CONTINUOUS
10
0.957817
20
0.720521
11
0.95777
21
0.720566
0
LINE
8
BLACK
6
CONTINUOUS
10
0.95777
20
0.720566
11
0.955895
21
0.724315
0
LINE
8
BLACK
6
CONTINUOUS
10
0.955895
20
0.724315
11
0.955603
21
0.725298
0
LINE
8
BLACK
6
CONTINUOUS
10
0.955603
20
0.725298
11
0.955644
21
0.72547
0
LINE
8
BLACK
6
CONTINUOUS
10
0.955644
20
0.72547
11
0.955583
21
0.725636
0
LINE
8
BLACK
6
CONTINUOUS
10
0.955583
20
0.725636
11
0.955583
21
0.735009
0
LINE
8
BLACK
6
CONTINUOUS
10
0.955583
20
0.735009
11
0.955761
21
0.736019
0
LINE
8
BLACK
6
CONTINUOUS
10
0.955761
20
0.736019
11
0.955875
21
0.736155
0
LINE
8
BLACK
6
CONTINUOUS
10
0.955875
20
0.736155
11
0.955895
21
0.73633
0
LINE
8
BLACK
6
CONTINUOUS
10
0.955895
20
0.73633
11
0.95777
21
0.740079
0
LINE
8
BLACK
6
CONTINUOUS
10
0.95777
20
0.740079
11
0.958296
21
0.740789
0
LINE
8
BLACK
6
CONTINUOUS
10
0.958296
20
0.740789
11
0.958323
21
0.740847
0
LINE
8
BLACK
6
CONTINUOUS
10
0.958323
20
0.740847
11
0.960198
21
0.742722
0
LINE
8
BLACK
6
CONTINUOUS
10
0.960198
20
0.742722
11
0.961038
21
0.74331
0
LINE
8
BLACK
6
CONTINUOUS
10
0.961038
20
0.74331
11
0.96305
21
0.743486
0
LINE
8
BLACK
6
CONTINUOUS
10
0.96305
20
0.743486
11
0.964704
21
0.742327
0
LINE
8
BLACK
6
CONTINUOUS
10
0.964704
20
0.742327
11
0.965227
21
0.740376
0
LINE
8
BLACK
6
CONTINUOUS
10
0.965227
20
0.740376
11
0.964374
21
0.738546
0
LINE
8
BLACK
6
CONTINUOUS
10
0.964374
20
0.738546
11
0.962838
21
0.73701
0
LINE
8
BLACK
6
CONTINUOUS
10
0.962838
20
0.73701
11
0.961489
21
0.734312
0
LINE
8
BLACK
6
CONTINUOUS
10
0.961489
20
0.734312
11
0.961489
21
0.726333
0
LINE
8
BLACK
6
CONTINUOUS
10
0.961489
20
0.726333
11
0.962838
21
0.723635
0
LINE
8
BLACK
6
CONTINUOUS
10
0.962838
20
0.723635
11
0.964035
21
0.722438
0
LINE
8
BLACK
6
CONTINUOUS
10
0.964035
20
0.722438
11
0.966732
21
0.721089
0
LINE
8
BLACK
6
CONTINUOUS
10
0.966732
20
0.721089
11
0.969306
21
0.721089
0
LINE
8
BLACK
6
CONTINUOUS
10
0.969306
20
0.721089
11
0.973814
21
0.722592
0
LINE
8
BLACK
6
CONTINUOUS
10
0.973814
20
0.722592
11
0.995818
21
0.744596
0
LINE
8
BLACK
6
CONTINUOUS
10
0.995818
20
0.744596
11
0.996346
21
0.744966
0
LINE
8
BLACK
6
CONTINUOUS
10
0.996346
20
0.744966
11
0.99643
21
0.745066
0
LINE
8
BLACK
6
CONTINUOUS
10
0.99643
20
0.745066
11
0.996508
21
0.745079
0
LINE
8
BLACK
6
CONTINUOUS
10
0.996508
20
0.745079
11
0.996658
21
0.745185
0
LINE
8
BLACK
6
CONTINUOUS
10
0.996658
20
0.745185
11
0.997544
21
0.745262
0
LINE
8
BLACK
6
CONTINUOUS
10
0.997544
20
0.745262
11
0.998419
21
0.745416
0
LINE
8
BLACK
6
CONTINUOUS
10
0.998419
20
0.745416
11
0.998536
21
0.745349
0
LINE
8
BLACK
6
CONTINUOUS
10
0.985073
20
0.780998
11
0.985296
21
0.781037
0
LINE
8
BLACK
6
CONTINUOUS
10
0.985296
20
0.781037
11
0.985993
21
0.780634
0
LINE
8
BLACK
6
CONTINUOUS
10
0.985993
20
0.780634
11
0.986742
21
0.780338
0
LINE
8
BLACK
6
CONTINUOUS
10
0.986742
20
0.780338
11
0.986849
21
0.78014
0
LINE
8
BLACK
6
CONTINUOUS
10
0.986849
20
0.78014
11
0.987045
21
0.780027
0
LINE
8
BLACK
6
CONTINUOUS
10
0.987045
20
0.780027
11
0.98732
21
0.77927
0
LINE
8
BLACK
6
CONTINUOUS
10
0.98732
20
0.77927
11
0.987704
21
0.778562
0
LINE
8
BLACK
6
CONTINUOUS
10
0.987704
20
0.778562
11
0.987658
21
0.778341
0
LINE
8
BLACK
6
CONTINUOUS
10
0.987658
20
0.778341
11
0.987736
21
0.778129
0
LINE
8
BLACK
6
CONTINUOUS
10
0.987736
20
0.778129
11
0.987736
21
0.762334
0
LINE
8
BLACK
6
CONTINUOUS
10
0.987736
20
0.762334
11
0.997906
21
0.762334
0
LINE
8
BLACK
6
CONTINUOUS
10
0.997906
20
0.762334
11
0.998916
21
0.762156
0
LINE
8
BLACK
6
CONTINUOUS
10
0.998916
20
0.762156
11
1.00046
21
0.760858
0
LINE
8
BLACK
6
CONTINUOUS
10
1.00046
20
0.760858
11
1.00081
21
0.758869
0
LINE
8
BLACK
6
CONTINUOUS
10
1.00081
20
0.758869
11
0.999804
21
0.757119
0
LINE
8
BLACK
6
CONTINUOUS
10
0.999804
20
0.757119
11
0.997906
21
0.756429
0
LINE
8
BLACK
6
CONTINUOUS
10
0.997906
20
0.756429
11
0.987736
21
0.756429
0
LINE
8
BLACK
6
CONTINUOUS
10
0.987736
20
0.756429
11
0.987736
21
0.753757
0
LINE
8
BLACK
6
CONTINUOUS
10
0.987736
20
0.753757
11
0.987558
21
0.752747
0
LINE
8
BLACK
6
CONTINUOUS
10
0.987558
20
0.752747
11
0.986259
21
0.7512
0
LINE
8
BLACK
6
CONTINUOUS
10
0.986259
20
0.7512
11
0.98427
21
0.750849
0
LINE
8
BLACK
6
CONTINUOUS
10
0.98427
20
0.750849
11
0.982521
21
0.751859
0
LINE
8
BLACK
6
CONTINUOUS
10
0.982521
20
0.751859
11
0.98183
21
0.753757
0
LINE
8
BLACK
6
CONTINUOUS
10
0.98183
20
0.753757
11
0.98183
21
0.756429
0
LINE
8
BLACK
6
CONTINUOUS
10
0.98183
20
0.756429
11
0.97166
21
0.756429
0
LINE
8
BLACK
6
CONTINUOUS
10
0.97166
20
0.756429
11
0.97065
21
0.756607
0
LINE
8
BLACK
6
CONTINUOUS
10
0.97065
20
0.756607
11
0.969102
21
0.757905
0
LINE
8
BLACK
6
CONTINUOUS
10
0.969102
20
0.757905
11
0.968752
21
0.759894
0
LINE
8
BLACK
6
CONTINUOUS
10
0.968752
20
0.759894
11
0.969762
21
0.761643
0
LINE
8
BLACK
6
CONTINUOUS
10
0.969762
20
0.761643
11
0.97166
21
0.762334
0
LINE
8
BLACK
6
CONTINUOUS
10
0.97166
20
0.762334
11
0.98183
21
0.762334
0
LINE
8
BLACK
6
CONTINUOUS
10
0.98183
20
0.762334
11
0.98183
21
0.774032
0
LINE
8
BLACK
6
CONTINUOUS
10
0.98183
20
0.774032
11
0.957595
21
0.765954
0
LINE
8
BLACK
6
CONTINUOUS
10
0.957595
20
0.765954
11
0.956581
21
0.765804
0
LINE
8
BLACK
6
CONTINUOUS
10
0.956581
20
0.765804
11
0.954702
21
0.766546
0
LINE
8
BLACK
6
CONTINUOUS
10
0.954702
20
0.766546
11
0.953741
21
0.768322
0
LINE
8
BLACK
6
CONTINUOUS
10
0.953741
20
0.768322
11
0.954146
21
0.770301
0
LINE
8
BLACK
6
CONTINUOUS
10
0.954146
20
0.770301
11
0.955728
21
0.771556
0
LINE
8
BLACK
6
CONTINUOUS
10
0.955728
20
0.771556
11
0.983849
21
0.78093
0
LINE
8
BLACK
6
CONTINUOUS
10
0.983849
20
0.78093
11
0.984864
21
0.781081
0
LINE
8
BLACK
6
CONTINUOUS
10
0.984864
20
0.781081
11
0.985073
21
0.780998
0
LINE
8
BLACK
6
CONTINUOUS
10
0.996245
20
0.819587
11
0.998119
21
0.817712
0
LINE
8
BLACK
6
CONTINUOUS
10
0.998119
20
0.817712
11
0.998626
21
0.816989
0
LINE
8
BLACK
6
CONTINUOUS
10
0.998626
20
0.816989
11
0.998673
21
0.816945
0
LINE
8
BLACK
6
CONTINUOUS
10
0.998673
20
0.816945
11
1.00055
21
0.813195
0
LINE
8
BLACK
6
CONTINUOUS
10
1.00055
20
0.813195
11
1.00084
21
0.812212
0
LINE
8
BLACK
6
CONTINUOUS
10
1.00084
20
0.812212
11
1.0008
21
0.812041
0
LINE
8
BLACK
6
CONTINUOUS
10
1.0008
20
0.812041
11
1.00086
21
0.811875
0
LINE
8
BLACK
6
CONTINUOUS
10
1.00086
20
0.811875
11
1.00086
21
0.800626
0
LINE
8
BLACK
6
CONTINUOUS
10
1.00086
20
0.800626
11
1.00068
21
0.799616
0
LINE
8
BLACK
6
CONTINUOUS
10
1.00068
20
0.799616
11
1.00057
21
0.799481
0
LINE
8
BLACK
6
CONTINUOUS
10
1.00057
20
0.799481
11
1.00055
21
0.799306
0
LINE
8
BLACK
6
CONTINUOUS
10
1.00055
20
0.799306
11
0.998673
21
0.795556
0
LINE
8
BLACK
6
CONTINUOUS
10
0.998673
20
0.795556
11
0.998147
21
0.794847
0
LINE
8
BLACK
6
CONTINUOUS
10
0.998147
20
0.794847
11
0.998119
21
0.794789
0
LINE
8
BLACK
6
CONTINUOUS
10
0.998119
20
0.794789
11
0.996245
21
0.792914
0
LINE
8
BLACK
6
CONTINUOUS
10
0.996245
20
0.792914
11
0.995521
21
0.792408
0
LINE
8
BLACK
6
CONTINUOUS
10
0.995521
20
0.792408
11
0.995477
21
0.792361
0
LINE
8
BLACK
6
CONTINUOUS
10
0.995477
20
0.792361
11
0.991728
21
0.790486
0
LINE
8
BLACK
6
CONTINUOUS
10
0.991728
20
0.790486
11
0.990745
21
0.790194
0
LINE
8
BLACK
6
CONTINUOUS
10
0.990745
20
0.790194
11
0.990573
21
0.790235
0
LINE
8
BLACK
6
CONTINUOUS
10
0.990573
20
0.790235
11
0.990407
21
0.790174
0
LINE
8
BLACK
6
CONTINUOUS
10
0.990407
20
0.790174
11
0.981033
21
0.790174
0
LINE
8
BLACK
6
CONTINUOUS
10
0.981033
20
0.790174
11
0.980023
21
0.790352
0
LINE
8
BLACK
6
CONTINUOUS
10
0.980023
20
0.790352
11
0.979888
21
0.790466
0
LINE
8
BLACK
6
CONTINUOUS
10
0.979888
20
0.790466
11
0.979713
21
0.790486
0
LINE
8
BLACK
6
CONTINUOUS
10
0.979713
20
0.790486
11
0.975963
21
0.792361
0
LINE
8
BLACK
6
CONTINUOUS
10
0.975963
20
0.792361
11
0.975254
21
0.792887
0
LINE
8
BLACK
6
CONTINUOUS
10
0.975254
20
0.792887
11
0.975196
21
0.792914
0
LINE
8
BLACK
6
CONTINUOUS
10
0.975196
20
0.792914
11
0.973321
21
0.794789
0
LINE
8
BLACK
6
CONTINUOUS
10
0.973321
20
0.794789
11
0.972815
21
0.795512
0
LINE
8
BLACK
6
CONTINUOUS
10
0.972815
20
0.795512
11
0.972768
21
0.795556
0
LINE
8
BLACK
6
CONTINUOUS
10
0.972768
20
0.795556
11
0.970893
21
0.799306
0
LINE
8
BLACK
6
CONTINUOUS
10
0.970893
20
0.799306
11
0.970726
21
0.799869
0
LINE
8
BLACK
6
CONTINUOUS
10
0.970726
20
0.799869
11
0.960481
21
0.790905
0
LINE
8
BLACK
6
CONTINUOUS
10
0.960481
20
0.790905
11
0.960101
21
0.790675
0
LINE
8
BLACK
6
CONTINUOUS
10
0.960101
20
0.790675
11
0.960013
21
0.79057
0
LINE
8
BLACK
6
CONTINUOUS
10
0.960013
20
0.79057
11
0.959892
21
0.790549
0
LINE
8
BLACK
6
CONTINUOUS
10
0.959892
20
0.790549
11
0.959603
21
0.790374
0
LINE
8
BLACK
6
CONTINUOUS
10
0.959603
20
0.790374
11
0.958807
21
0.790357
0
LINE
8
BLACK
6
CONTINUOUS
10
0.958807
20
0.790357
11
0.958023
21
0.790219
0
LINE
8
BLACK
6
CONTINUOUS
10
0.958023
20
0.790219
11
0.957819
21
0.790337
0
LINE
8
BLACK
6
CONTINUOUS
10
0.957819
20
0.790337
11
0.957584
21
0.790332
0
LINE
8
BLACK
6
CONTINUOUS
10
0.957584
20
0.790332
11
0.956964
21
0.790831
0
LINE
8
BLACK
6
CONTINUOUS
10
0.956964
20
0.790831
11
0.956274
21
0.791229
0
LINE
8
BLACK
6
CONTINUOUS
10
0.956274
20
0.791229
11
0.956194
21
0.791451
0
LINE
8
BLACK
6
CONTINUOUS
10
0.956194
20
0.791451
11
0.95601
21
0.791598
0
LINE
8
BLACK
6
CONTINUOUS
10
0.95601
20
0.791598
11
0.955856
21
0.792379
0
LINE
8
BLACK
6
CONTINUOUS
10
0.955856
20
0.792379
11
0.955583
21
0.793127
0
LINE
8
BLACK
6
CONTINUOUS
10
0.955583
20
0.793127
11
0.955583
21
0.817499
0
LINE
8
BLACK
6
CONTINUOUS
10
0.955583
20
0.817499
11
0.955761
21
0.818509
0
LINE
8
BLACK
6
CONTINUOUS
10
0.955761
20
0.818509
11
0.95706
21
0.820056
0
LINE
8
BLACK
6
CONTINUOUS
10
0.95706
20
0.820056
11
0.959049
21
0.820407
0
LINE
8
BLACK
6
CONTINUOUS
10
0.959049
20
0.820407
11
0.960798
21
0.819397
0
LINE
8
BLACK
6
CONTINUOUS
10
0.960798
20
0.819397
11
0.961489
21
0.817499
0
LINE
8
BLACK
6
CONTINUOUS
10
0.961489
20
0.817499
11
0.961489
21
0.799634
0
LINE
8
BLACK
6
CONTINUOUS
10
0.961489
20
0.799634
11
0.97159
21
0.808473
0
LINE
8
BLACK
6
CONTINUOUS
10
0.97159
20
0.808473
11
0.97197
21
0.808703
0
LINE
8
BLACK
6
CONTINUOUS
10
0.97197
20
0.808703
11
0.972058
21
0.808808
0
LINE
8
BLACK
6
CONTINUOUS
10
0.972058
20
0.808808
11
0.972178
21
0.808829
0
LINE
8
BLACK
6
CONTINUOUS
10
0.972178
20
0.808829
11
0.972467
21
0.809004
0
LINE
8
BLACK
6
CONTINUOUS
10
0.972467
20
0.809004
11
0.973263
21
0.80902
0
LINE
8
BLACK
6
CONTINUOUS
10
0.973263
20
0.80902
11
0.974047
21
0.809158
0
LINE
8
BLACK
6
CONTINUOUS
10
0.974047
20
0.809158
11
0.974251
21
0.809041
0
LINE
8
BLACK
6
CONTINUOUS
10
0.974251
20
0.809041
11
0.974487
21
0.809045
0
LINE
8
BLACK
6
CONTINUOUS
10
0.974487
20
0.809045
11
0.975107
21
0.808546
0
LINE
8
BLACK
6
CONTINUOUS
10
0.975107
20
0.808546
11
0.975796
21
0.808148
0
LINE
8
BLACK
6
CONTINUOUS
10
0.975796
20
0.808148
11
0.975877
21
0.807927
0
LINE
8
BLACK
6
CONTINUOUS
10
0.975877
20
0.807927
11
0.97606
21
0.807779
0
LINE
8
BLACK
6
CONTINUOUS
10
0.97606
20
0.807779
11
0.976215
21
0.806999
0
LINE
8
BLACK
6
CONTINUOUS
10
0.976215
20
0.806999
11
0.976487
21
0.80625
0
LINE
8
BLACK
6
CONTINUOUS
10
0.976487
20
0.80625
11
0.976487
21
0.801323
0
LINE
8
BLACK
6
CONTINUOUS
10
0.976487
20
0.801323
11
0.977836
21
0.798626
0
LINE
8
BLACK
6
CONTINUOUS
10
0.977836
20
0.798626
11
0.979033
21
0.797429
0
LINE
8
BLACK
6
CONTINUOUS
10
0.979033
20
0.797429
11
0.98173
21
0.79608
0
LINE
8
BLACK
6
CONTINUOUS
10
0.98173
20
0.79608
11
0.98971
21
0.79608
0
LINE
8
BLACK
6
CONTINUOUS
10
0.98971
20
0.79608
11
0.992408
21
0.797429
0
LINE
8
BLACK
6
CONTINUOUS
10
0.992408
20
0.797429
11
0.993605
21
0.798626
0
LINE
8
BLACK
6
CONTINUOUS
10
0.993605
20
0.798626
11
0.994954
21
0.801323
0
LINE
8
BLACK
6
CONTINUOUS
10
0.994954
20
0.801323
11
0.994954
21
0.811178
0
LINE
8
BLACK
6
CONTINUOUS
10
0.994954
20
0.811178
11
0.993605
21
0.813875
0
LINE
8
BLACK
6
CONTINUOUS
10
0.993605
20
0.813875
11
0.992069
21
0.815411
0
LINE
8
BLACK
6
CONTINUOUS
10
0.992069
20
0.815411
11
0.991481
21
0.816251
0
LINE
8
BLACK
6
CONTINUOUS
10
0.991481
20
0.816251
11
0.991305
21
0.818263
0
LINE
8
BLACK
6
CONTINUOUS
10
0.991305
20
0.818263
11
0.992463
21
0.819918
0
LINE
8
BLACK
6
CONTINUOUS
10
0.992463
20
0.819918
11
0.994414
21
0.820441
0
LINE
8
BLACK
6
CONTINUOUS
10
0.994414
20
0.820441
11
0.996245
21
0.819587
0
LINE
8
BLACK
6
CONTINUOUS
10
0.998916
20
0.855894
11
1.00046
21
0.854596
0
LINE
8
BLACK
6
CONTINUOUS
10
1.00046
20
0.854596
11
1.00081
21
0.852607
0
LINE
8
BLACK
6
CONTINUOUS
10
1.00081
20
0.852607
11
0.999804
21
0.850858
0
LINE
8
BLACK
6
CONTINUOUS
10
0.999804
20
0.850858
11
0.997906
21
0.850167
0
LINE
8
BLACK
6
CONTINUOUS
10
0.997906
20
0.850167
11
0.982111
21
0.850167
0
LINE
8
BLACK
6
CONTINUOUS
10
0.982111
20
0.850167
11
0.982111
21
0.838121
0
LINE
8
BLACK
6
CONTINUOUS
10
0.982111
20
0.838121
11
0.981933
21
0.837112
0
LINE
8
BLACK
6
CONTINUOUS
10
0.981933
20
0.837112
11
0.98182
21
0.836976
0
LINE
8
BLACK
6
CONTINUOUS
10
0.98182
20
0.836976
11
0.9818
21
0.836801
0
LINE
8
BLACK
6
CONTINUOUS
10
0.9818
20
0.836801
11
0.979925
21
0.833051
0
LINE
8
BLACK
6
CONTINUOUS
10
0.979925
20
0.833051
11
0.979399
21
0.832342
0
LINE
8
BLACK
6
CONTINUOUS
10
0.979399
20
0.832342
11
0.979372
21
0.832284
0
LINE
8
BLACK
6
CONTINUOUS
10
0.979372
20
0.832284
11
0.977497
21
0.830409
0
LINE
8
BLACK
6
CONTINUOUS
10
0.977497
20
0.830409
11
0.976774
21
0.829903
0
LINE
8
BLACK
6
CONTINUOUS
10
0.976774
20
0.829903
11
0.97673
21
0.829856
0
LINE
8
BLACK
6
CONTINUOUS
10
0.97673
20
0.829856
11
0.97298
21
0.827981
0
LINE
8
BLACK
6
CONTINUOUS
10
0.97298
20
0.827981
11
0.971997
21
0.827689
0
LINE
8
BLACK
6
CONTINUOUS
10
0.971997
20
0.827689
11
0.971825
21
0.82773
0
LINE
8
BLACK
6
CONTINUOUS
10
0.971825
20
0.82773
11
0.97166
21
0.82767
0
LINE
8
BLACK
6
CONTINUOUS
10
0.97166
20
0.82767
11
0.966035
21
0.82767
0
LINE
8
BLACK
6
CONTINUOUS
10
0.966035
20
0.82767
11
0.965025
21
0.827848
0
LINE
8
BLACK
6
CONTINUOUS
10
0.965025
20
0.827848
11
0.96489
21
0.827961
0
LINE
8
BLACK
6
CONTINUOUS
10
0.96489
20
0.827961
11
0.964715
21
0.827981
0
LINE
8
BLACK
6
CONTINUOUS
10
0.964715
20
0.827981
11
0.960965
21
0.829856
0
LINE
8
BLACK
6
CONTINUOUS
10
0.960965
20
0.829856
11
0.960256
21
0.830382
0
LINE
8
BLACK
6
CONTINUOUS
10
0.960256
20
0.830382
11
0.960198
21
0.830409
0
LINE
8
BLACK
6
CONTINUOUS
10
0.960198
20
0.830409
11
0.958323
21
0.832284
0
LINE
8
BLACK
6
CONTINUOUS
10
0.958323
20
0.832284
11
0.957817
21
0.833007
0
LINE
8
BLACK
6
CONTINUOUS
10
0.957817
20
0.833007
11
0.95777
21
0.833051
0
LINE
8
BLACK
6
CONTINUOUS
10
0.95777
20
0.833051
11
0.955895
21
0.836801
0
LINE
8
BLACK
6
CONTINUOUS
10
0.955895
20
0.836801
11
0.955603
21
0.837784
0
LINE
8
BLACK
6
CONTINUOUS
10
0.955603
20
0.837784
11
0.955644
21
0.837956
0
LINE
8
BLACK
6
CONTINUOUS
10
0.955644
20
0.837956
11
0.955583
21
0.838121
0
LINE
8
BLACK
6
CONTINUOUS
10
0.955583
20
0.838121
11
0.955583
21
0.85312
0
LINE
8
BLACK
6
CONTINUOUS
10
0.955583
20
0.85312
11
0.955651
21
0.853503
0
LINE
8
BLACK
6
CONTINUOUS
10
0.955651
20
0.853503
11
0.955628
21
0.853632
0
LINE
8
BLACK
6
CONTINUOUS
10
0.955628
20
0.853632
11
0.955694
21
0.853746
0
LINE
8
BLACK
6
CONTINUOUS
10
0.955694
20
0.853746
11
0.955761
21
0.85413
0
LINE
8
BLACK
6
CONTINUOUS
10
0.955761
20
0.85413
11
0.956255
21
0.854717
0
LINE
8
BLACK
6
CONTINUOUS
10
0.956255
20
0.854717
11
0.956638
21
0.855382
0
LINE
8
BLACK
6
CONTINUOUS
10
0.956638
20
0.855382
11
0.956889
21
0.855473
0
LINE
8
BLACK
6
CONTINUOUS
10
0.956889
20
0.855473
11
0.95706
21
0.855677
0
LINE
8
BLACK
6
CONTINUOUS
10
0.95706
20
0.855677
11
0.957815
21
0.85581
0
LINE
8
BLACK
6
CONTINUOUS
10
0.957815
20
0.85581
11
0.958536
21
0.856072
0
LINE
8
BLACK
6
CONTINUOUS
10
0.958536
20
0.856072
11
0.997906
21
0.856072
0
LINE
8
BLACK
6
CONTINUOUS
10
0.997906
20
0.856072
11
0.998916
21
0.855894
0
LINE
8
BLACK
6
CONTINUOUS
10
0.961489
20
0.838819
11
0.962838
21
0.836121
0
LINE
8
BLACK
6
CONTINUOUS
10
0.962838
20
0.836121
11
0.964035
21
0.834924
0
LINE
8
BLACK
6
CONTINUOUS
10
0.964035
20
0.834924
11
0.966732
21
0.833575
0
LINE
8
BLACK
6
CONTINUOUS
10
0.966732
20
0.833575
11
0.970962
21
0.833575
0
LINE
8
BLACK
6
CONTINUOUS
10
0.970962
20
0.833575
11
0.97366
21
0.834924
0
LINE
8
BLACK
6
CONTINUOUS
10
0.97366
20
0.834924
11
0.974857
21
0.836121
0
LINE
8
BLACK
6
CONTINUOUS
10
0.974857
20
0.836121
11
0.976206
21
0.838819
0
LINE
8
BLACK
6
CONTINUOUS
10
0.976206
20
0.838819
11
0.976206
21
0.850167
0
LINE
8
BLACK
6
CONTINUOUS
10
0.976206
20
0.850167
11
0.961489
21
0.850167
0
LINE
8
BLACK
6
CONTINUOUS
10
0.961489
20
0.850167
11
0.961489
21
0.838819
0
LINE
8
BLACK
6
CONTINUOUS
10
0.981614
20
0.897215
11
0.981749
21
0.897229
0
LINE
8
BLACK
6
CONTINUOUS
10
0.981749
20
0.897229
11
0.989249
21
0.895354
0
LINE
8
BLACK
6
CONTINUOUS
10
0.989249
20
0.895354
11
0.989714
21
0.895147
0
LINE
8
BLACK
6
CONTINUOUS
10
0.989714
20
0.895147
11
0.989853
21
0.895131
0
LINE
8
BLACK
6
CONTINUOUS
10
0.989853
20
0.895131
11
0.993602
21
0.893256
0
LINE
8
BLACK
6
CONTINUOUS
10
0.993602
20
0.893256
11
0.994311
21
0.89273
0
LINE
8
BLACK
6
CONTINUOUS
10
0.994311
20
0.89273
11
0.99437
21
0.892703
0
LINE
8
BLACK
6
CONTINUOUS
10
0.99437
20
0.892703
11
0.998119
21
0.888953
0
LINE
8
BLACK
6
CONTINUOUS
10
0.998119
20
0.888953
11
0.998708
21
0.888113
0
LINE
8
BLACK
6
CONTINUOUS
10
0.998708
20
0.888113
11
0.998723
21
0.887937
0
LINE
8
BLACK
6
CONTINUOUS
10
0.998723
20
0.887937
11
0.998833
21
0.887799
0
LINE
8
BLACK
6
CONTINUOUS
10
0.998833
20
0.887799
11
1.00071
21
0.882175
0
LINE
8
BLACK
6
CONTINUOUS
10
1.00071
20
0.882175
11
1.00084
21
0.881302
0
LINE
8
BLACK
6
CONTINUOUS
10
1.00084
20
0.881302
11
1.00086
21
0.881241
0
LINE
8
BLACK
6
CONTINUOUS
10
1.00086
20
0.881241
11
1.00086
21
0.877492
0
LINE
8
BLACK
6
CONTINUOUS
10
1.00086
20
0.877492
11
1.00071
21
0.876622
0
LINE
8
BLACK
6
CONTINUOUS
10
1.00071
20
0.876622
11
1.00071
21
0.876558
0
LINE
8
BLACK
6
CONTINUOUS
10
1.00071
20
0.876558
11
0.998833
21
0.870934
0
LINE
8
BLACK
6
CONTINUOUS
10
0.998833
20
0.870934
11
0.998344
21
0.870032
0
LINE
8
BLACK
6
CONTINUOUS
10
0.998344
20
0.870032
11
0.998194
21
0.869939
0
LINE
8
BLACK
6
CONTINUOUS
10
0.998194
20
0.869939
11
0.998119
21
0.869779
0
LINE
8
BLACK
6
CONTINUOUS
10
0.998119
20
0.869779
11
0.996245
21
0.867905
0
LINE
8
BLACK
6
CONTINUOUS
10
0.996245
20
0.867905
11
0.995405
21
0.867316
0
LINE
8
BLACK
6
CONTINUOUS
10
0.995405
20
0.867316
11
0.993392
21
0.86714
0
LINE
8
BLACK
6
CONTINUOUS
10
0.993392
20
0.86714
11
0.991738
21
0.868299
0
LINE
8
BLACK
6
CONTINUOUS
10
0.991738
20
0.868299
11
0.991215
21
0.87025
0
LINE
8
BLACK
6
CONTINUOUS
10
0.991215
20
0.87025
11
0.992069
21
0.87208
0
LINE
8
BLACK
6
CONTINUOUS
10
0.992069
20
0.87208
11
0.993451
21
0.873462
0
LINE
8
BLACK
6
CONTINUOUS
10
0.993451
20
0.873462
11
0.994954
21
0.877971
0
LINE
8
BLACK
6
CONTINUOUS
10
0.994954
20
0.877971
11
0.994954
21
0.880762
0
LINE
8
BLACK
6
CONTINUOUS
10
0.994954
20
0.880762
11
0.993451
21
0.88527
0
LINE
8
BLACK
6
CONTINUOUS
10
0.993451
20
0.88527
11
0.990533
21
0.888188
0
LINE
8
BLACK
6
CONTINUOUS
10
0.990533
20
0.888188
11
0.987502
21
0.889704
0
LINE
8
BLACK
6
CONTINUOUS
10
0.987502
20
0.889704
11
0.98067
21
0.891412
0
LINE
8
BLACK
6
CONTINUOUS
10
0.98067
20
0.891412
11
0.975773
21
0.891412
0
LINE
8
BLACK
6
CONTINUOUS
10
0.975773
20
0.891412
11
0.968941
21
0.889704
0
LINE
8
BLACK
6
CONTINUOUS
10
0.968941
20
0.889704
11
0.96591
21
0.888188
0
LINE
8
BLACK
6
CONTINUOUS
10
0.96591
20
0.888188
11
0.962992
21
0.88527
0
LINE
8
BLACK
6
CONTINUOUS
10
0.962992
20
0.88527
11
0.961489
21
0.880762
0
LINE
8
BLACK
6
CONTINUOUS
10
0.961489
20
0.880762
11
0.961489
21
0.877971
0
LINE
8
BLACK
6
CONTINUOUS
10
0.961489
20
0.877971
11
0.962992
21
0.873462
0
LINE
8
BLACK
6
CONTINUOUS
10
0.962992
20
0.873462
11
0.964374
21
0.87208
0
LINE
8
BLACK
6
CONTINUOUS
10
0.964374
20
0.87208
11
0.964962
21
0.87124
0
LINE
8
BLACK
6
CONTINUOUS
10
0.964962
20
0.87124
11
0.965138
21
0.869228
0
LINE
8
BLACK
6
CONTINUOUS
10
0.965138
20
0.869228
11
0.963979
21
0.867574
0
LINE
8
BLACK
6
CONTINUOUS
10
0.963979
20
0.867574
11
0.962028
21
0.867051
0
LINE
8
BLACK
6
CONTINUOUS
10
0.962028
20
0.867051
11
0.960198
21
0.867905
0
LINE
8
BLACK
6
CONTINUOUS
10
0.960198
20
0.867905
11
0.958323
21
0.869779
0
LINE
8
BLACK
6
CONTINUOUS
10
0.958323
20
0.869779
11
0.957735
21
0.870619
0
LINE
8
BLACK
6
CONTINUOUS
10
0.957735
20
0.870619
11
0.957719
21
0.870795
0
LINE
8
BLACK
6
CONTINUOUS
10
0.957719
20
0.870795
11
0.95761
21
0.870934
0
LINE
8
BLACK
6
CONTINUOUS
10
0.95761
20
0.870934
11
0.955735
21
0.876558
0
LINE
8
BLACK
6
CONTINUOUS
10
0.955735
20
0.876558
11
0.955605
21
0.877431
0
LINE
8
BLACK
6
CONTINUOUS
10
0.955605
20
0.877431
11
0.955583
21
0.877492
0
LINE
8
BLACK
6
CONTINUOUS
10
0.955583
20
0.877492
11
0.955583
21
0.881241
0
LINE
8
BLACK
6
CONTINUOUS
10
0.955583
20
0.881241
11
0.955737
21
0.882111
0
LINE
8
BLACK
6
CONTINUOUS
10
0.955737
20
0.882111
11
0.955735
21
0.882175
0
LINE
8
BLACK
6
CONTINUOUS
10
0.955735
20
0.882175
11
0.95761
21
0.887799
0
LINE
8
BLACK
6
CONTINUOUS
10
0.95761
20
0.887799
11
0.958098
21
0.888701
0
LINE
8
BLACK
6
CONTINUOUS
10
0.958098
20
0.888701
11
0.958248
21
0.888793
0
LINE
8
BLACK
6
CONTINUOUS
10
0.958248
20
0.888793
11
0.958323
21
0.888953
0
LINE
8
BLACK
6
CONTINUOUS
10
0.958323
20
0.888953
11
0.962073
21
0.892703
0
LINE
8
BLACK
6
CONTINUOUS
10
0.962073
20
0.892703
11
0.962796
21
0.893209
0
LINE
8
BLACK
6
CONTINUOUS
10
0.962796
20
0.893209
11
0.96284
21
0.893256
0
LINE
8
BLACK
6
CONTINUOUS
10
0.96284
20
0.893256
11
0.966589
21
0.895131
0
LINE
8
BLACK
6
CONTINUOUS
10
0.966589
20
0.895131
11
0.967078
21
0.895276
0
LINE
8
BLACK
6
CONTINUOUS
10
0.967078
20
0.895276
11
0.967194
21
0.895354
0
LINE
8
BLACK
6
CONTINUOUS
10
0.967194
20
0.895354
11
0.974693
21
0.897229
0
LINE
8
BLACK
6
CONTINUOUS
10
0.974693
20
0.897229
11
0.975281
21
0.897271
0
LINE
8
BLACK
6
CONTINUOUS
10
0.975281
20
0.897271
11
0.975409
21
0.897317
0
LINE
8
BLACK
6
CONTINUOUS
10
0.975409
20
0.897317
11
0.981033
21
0.897317
0
LINE
8
BLACK
6
CONTINUOUS
10
0.981033
20
0.897317
11
0.981614
21
0.897215
0
LINE
8
BLACK
6
CONTINUOUS
10
0.998916
20
0.940259
11
1.00046
21
0.93896
0
LINE
8
BLACK
6
CONTINUOUS
10
1.00046
20
0.93896
11
1.00081
21
0.936971
0
LINE
8
BLACK
6
CONTINUOUS
10
1.00081
20
0.936971
11
0.999804
21
0.935222
0
LINE
8
BLACK
6
CONTINUOUS
10
0.999804
20
0.935222
11
0.997906
21
0.934531
0
LINE
8
BLACK
6
CONTINUOUS
10
0.997906
20
0.934531
11
0.971846
21
0.934531
0
LINE
8
BLACK
6
CONTINUOUS
10
0.971846
20
0.934531
11
0.987906
21
0.927036
0
LINE
8
BLACK
6
CONTINUOUS
10
0.987906
20
0.927036
11
0.988224
21
0.926814
0
LINE
8
BLACK
6
CONTINUOUS
10
0.988224
20
0.926814
11
0.988351
21
0.92678
0
LINE
8
BLACK
6
CONTINUOUS
10
0.988351
20
0.92678
11
0.988426
21
0.926672
0
LINE
8
BLACK
6
CONTINUOUS
10
0.988426
20
0.926672
11
0.988746
21
0.926448
0
LINE
8
BLACK
6
CONTINUOUS
10
0.988746
20
0.926448
11
0.98907
21
0.925754
0
LINE
8
BLACK
6
CONTINUOUS
10
0.98907
20
0.925754
11
0.98951
21
0.925126
0
LINE
8
BLACK
6
CONTINUOUS
10
0.98951
20
0.925126
11
0.989486
21
0.924859
0
LINE
8
BLACK
6
CONTINUOUS
10
0.989486
20
0.924859
11
0.989599
21
0.924617
0
LINE
8
BLACK
6
CONTINUOUS
10
0.989599
20
0.924617
11
0.989401
21
0.923877
0
LINE
8
BLACK
6
CONTINUOUS
10
0.989401
20
0.923877
11
0.989334
21
0.923114
0
LINE
8
BLACK
6
CONTINUOUS
10
0.989334
20
0.923114
11
0.989145
21
0.922925
0
LINE
8
BLACK
6
CONTINUOUS
10
0.989145
20
0.922925
11
0.989076
21
0.922666
0
LINE
8
BLACK
6
CONTINUOUS
10
0.989076
20
0.922666
11
0.988448
21
0.922227
0
LINE
8
BLACK
6
CONTINUOUS
10
0.988448
20
0.922227
11
0.987906
21
0.921685
0
LINE
8
BLACK
6
CONTINUOUS
10
0.987906
20
0.921685
11
0.971846
21
0.91419
0
LINE
8
BLACK
6
CONTINUOUS
10
0.971846
20
0.91419
11
0.997906
21
0.91419
0
LINE
8
BLACK
6
CONTINUOUS
10
0.997906
20
0.91419
11
0.998916
21
0.914012
0
LINE
8
BLACK
6
CONTINUOUS
10
0.998916
20
0.914012
11
1.00046
21
0.912714
0
LINE
8
BLACK
6
CONTINUOUS
10
1.00046
20
0.912714
11
1.00081
21
0.910725
0
LINE
8
BLACK
6
CONTINUOUS
10
1.00081
20
0.910725
11
0.999804
21
0.908975
0
LINE
8
BLACK
6
CONTINUOUS
10
0.999804
20
0.908975
11
0.997906
21
0.908285
0
LINE
8
BLACK
6
CONTINUOUS
10
0.997906
20
0.908285
11
0.958536
21
0.908285
0
LINE
8
BLACK
6
CONTINUOUS
10
0.958536
20
0.908285
11
0.957526
21
0.908463
0
LINE
8
BLACK
6
CONTINUOUS
10
0.957526
20
0.908463
11
0.957224
21
0.908716
0
LINE
8
BLACK
6
CONTINUOUS
10
0.957224
20
0.908716
11
0.956843
21
0.908818
0
LINE
8
BLACK
6
CONTINUOUS
10
0.956843
20
0.908818
11
0.956473
21
0.909346
0
LINE
8
BLACK
6
CONTINUOUS
10
0.956473
20
0.909346
11
0.955979
21
0.909761
0
LINE
8
BLACK
6
CONTINUOUS
10
0.955979
20
0.909761
11
0.955911
21
0.910149
0
LINE
8
BLACK
6
CONTINUOUS
10
0.955911
20
0.910149
11
0.955684
21
0.910472
0
LINE
8
BLACK
6
CONTINUOUS
10
0.955684
20
0.910472
11
0.95574
21
0.911115
0
LINE
8
BLACK
6
CONTINUOUS
10
0.95574
20
0.911115
11
0.955628
21
0.91175
0
LINE
8
BLACK
6
CONTINUOUS
10
0.955628
20
0.91175
11
0.955825
21
0.912092
0
LINE
8
BLACK
6
CONTINUOUS
10
0.955825
20
0.912092
11
0.95586
21
0.912484
0
LINE
8
BLACK
6
CONTINUOUS
10
0.95586
20
0.912484
11
0.956316
21
0.912941
0
LINE
8
BLACK
6
CONTINUOUS
10
0.956316
20
0.912941
11
0.956638
21
0.913499
0
LINE
8
BLACK
6
CONTINUOUS
10
0.956638
20
0.913499
11
0.957009
21
0.913634
0
LINE
8
BLACK
6
CONTINUOUS
10
0.957009
20
0.913634
11
0.957288
21
0.913913
0
LINE
8
BLACK
6
CONTINUOUS
10
0.957288
20
0.913913
11
0.979675
21
0.924361
0
LINE
8
BLACK
6
CONTINUOUS
10
0.979675
20
0.924361
11
0.957288
21
0.934808
0
LINE
8
BLACK
6
CONTINUOUS
10
0.957288
20
0.934808
11
0.956448
21
0.935397
0
LINE
8
BLACK
6
CONTINUOUS
10
0.956448
20
0.935397
11
0.956281
21
0.935754
0
LINE
8
BLACK
6
CONTINUOUS
10
0.956281
20
0.935754
11
0.955979
21
0.936008
0
LINE
8
BLACK
6
CONTINUOUS
10
0.955979
20
0.936008
11
0.955867
21
0.936643
0
LINE
8
BLACK
6
CONTINUOUS
10
0.955867
20
0.936643
11
0.955595
21
0.937228
0
LINE
8
BLACK
6
CONTINUOUS
10
0.955595
20
0.937228
11
0.955697
21
0.937608
0
LINE
8
BLACK
6
CONTINUOUS
10
0.955697
20
0.937608
11
0.955628
21
0.937997
0
LINE
8
BLACK
6
CONTINUOUS
10
0.955628
20
0.937997
11
0.955951
21
0.938555
0
LINE
8
BLACK
6
CONTINUOUS
10
0.955951
20
0.938555
11
0.956118
21
0.939178
0
LINE
8
BLACK
6
CONTINUOUS
10
0.956118
20
0.939178
11
0.956441
21
0.939405
0
LINE
8
BLACK
6
CONTINUOUS
10
0.956441
20
0.939405
11
0.956638
21
0.939746
0
LINE
8
BLACK
6
CONTINUOUS
10
0.956638
20
0.939746
11
0.957244
21
0.939967
0
LINE
8
BLACK
6
CONTINUOUS
10
0.957244
20
0.939967
11
0.957773
21
0.940336
0
LINE
8
BLACK
6
CONTINUOUS
10
0.957773
20
0.940336
11
0.958166
21
0.940302
0
LINE
8
BLACK
6
CONTINUOUS
10
0.958166
20
0.940302
11
0.958536
21
0.940437
0
LINE
8
BLACK
6
CONTINUOUS
10
0.958536
20
0.940437
11
0.997906
21
0.940437
0
LINE
8
BLACK
6
CONTINUOUS
10
0.997906
20
0.940437
11
0.998916
21
0.940259
  0
ENDSEC
  0
EOF
