  0
SECTION
  2
HEADER
  9
$ANGBASE
  50
0.0
  9
$ANGDIR
  70
1
  9
$MEASUREMENT
  70
0
  0
ENDSEC
  0
SECTION
  2
TABLES
  0
TABLE
  2
LTYPE
  70
4
  0
LTYPE
  5
40F
  2
CONTINUOUS
  70
0
  3
Solid line
  72
65
  73
0
  40
0.0
  0
LTYPE
  5
410
  2
DASHDOT
 70
0
  3
Dash Dot ____ _ ____ _
 72
65
 73
4
 40
2.0
 49
1.25
 49
-0.25
 49
0.25
 49
-0.25
  0
LTYPE
  5
411
  2
DASHED
 70
0
  3
Dashed __ __ __ __ __
 72
65
 73
2
 40
0.75
 49
0.5
 49
-0.25
  0
LTYPE
  5
43B
  2
DOTTED
 70
0
  3
Dotted .  .  .  .
 72
65
 73
2
 40
0.2
 49
0.0
 49
-0.2
  0
ENDTAB
  0
TABLE
  2
STYLE
  70
4
  0
STYLE
  2
KICAD
  70
0
  40
0
  41
1
  42
1
  50
0
  71
0
  3
isocp.shx
  0
STYLE
  2
KICADB
  70
0
  40
0
  41
1
  42
1
  50
0
  71
0
  3
isocp.shx
  0
STYLE
  2
KICADI
  70
0
  40
0
  41
1
  42
1
  50
15
  71
0
  3
isocp.shx
  0
STYLE
  2
KICADBI
  70
0
  40
0
  41
1
  42
1
  50
15
  71
0
  3
isocp.shx
  0
ENDTAB
  0
TABLE
  2
LAYER
  70
1
  0
LAYER
  2
BLACK
  70
0
  62
7
  6
CONTINUOUS
  0
ENDTAB
  0
ENDSEC
  0
SECTION
  2
ENTITIES
0
LINE
8
BLACK
6
CONTINUOUS
10
0.41865
20
0.567793
11
0.432132
21
0.566018
0
LINE
8
BLACK
6
CONTINUOUS
10
0.432132
20
0.566018
11
0.44532
21
0.562706
0
LINE
8
BLACK
6
CONTINUOUS
10
0.44532
20
0.562706
11
0.45804
21
0.557899
0
LINE
8
BLACK
6
CONTINUOUS
10
0.45804
20
0.557899
11
0.470123
21
0.551662
0
LINE
8
BLACK
6
CONTINUOUS
10
0.470123
20
0.551662
11
0.481409
21
0.544078
0
LINE
8
BLACK
6
CONTINUOUS
10
0.481409
20
0.544078
11
0.491749
21
0.535247
0
LINE
8
BLACK
6
CONTINUOUS
10
0.491749
20
0.535247
11
0.501006
21
0.525286
0
LINE
8
BLACK
6
CONTINUOUS
10
0.501006
20
0.525286
11
0.509056
21
0.514327
0
LINE
8
BLACK
6
CONTINUOUS
10
0.509056
20
0.514327
11
0.515793
21
0.502516
0
LINE
8
BLACK
6
CONTINUOUS
10
0.515793
20
0.502516
11
0.521128
21
0.490008
0
LINE
8
BLACK
6
CONTINUOUS
10
0.521128
20
0.490008
11
0.52499
21
0.476971
0
LINE
8
BLACK
6
CONTINUOUS
10
0.52499
20
0.476971
11
0.527327
21
0.463575
0
LINE
8
BLACK
6
CONTINUOUS
10
0.527327
20
0.463575
11
0.52811
21
0.45
0
LINE
8
BLACK
6
CONTINUOUS
10
0.52811
20
0.45
11
0.527877
21
0.442584
0
LINE
8
BLACK
6
CONTINUOUS
10
0.527877
20
0.442584
11
0.526244
21
0.429084
0
LINE
8
BLACK
6
CONTINUOUS
10
0.526244
20
0.429084
11
0.523069
21
0.415862
0
LINE
8
BLACK
6
CONTINUOUS
10
0.523069
20
0.415862
11
0.518396
21
0.403093
0
LINE
8
BLACK
6
CONTINUOUS
10
0.518396
20
0.403093
11
0.512286
21
0.390945
0
LINE
8
BLACK
6
CONTINUOUS
10
0.512286
20
0.390945
11
0.504821
21
0.37958
0
LINE
8
BLACK
6
CONTINUOUS
10
0.504821
20
0.37958
11
0.496099
21
0.369148
0
LINE
8
BLACK
6
CONTINUOUS
10
0.496099
20
0.369148
11
0.486235
21
0.359788
0
LINE
8
BLACK
6
CONTINUOUS
10
0.486235
20
0.359788
11
0.475361
21
0.351623
0
LINE
8
BLACK
6
CONTINUOUS
10
0.475361
20
0.351623
11
0.463621
21
0.344763
0
LINE
8
BLACK
6
CONTINUOUS
10
0.463621
20
0.344763
11
0.45117
21
0.339297
0
LINE
8
BLACK
6
CONTINUOUS
10
0.45117
20
0.339297
11
0.438173
21
0.335299
0
LINE
8
BLACK
6
CONTINUOUS
10
0.438173
20
0.335299
11
0.424803
21
0.332821
0
LINE
8
BLACK
6
CONTINUOUS
10
0.424803
20
0.332821
11
0.411237
21
0.331896
0
LINE
8
BLACK
6
CONTINUOUS
10
0.411237
20
0.331896
11
0.397654
21
0.332537
0
LINE
8
BLACK
6
CONTINUOUS
10
0.397654
20
0.332537
11
0.384235
21
0.334734
0
LINE
8
BLACK
6
CONTINUOUS
10
0.384235
20
0.334734
11
0.371157
21
0.338459
0
LINE
8
BLACK
6
CONTINUOUS
10
0.371157
20
0.338459
11
0.358595
21
0.343663
0
LINE
8
BLACK
6
CONTINUOUS
10
0.358595
20
0.343663
11
0.346713
21
0.350276
0
LINE
8
BLACK
6
CONTINUOUS
10
0.346713
20
0.350276
11
0.335671
21
0.358211
0
LINE
8
BLACK
6
CONTINUOUS
10
0.335671
20
0.358211
11
0.325613
21
0.367363
0
LINE
8
BLACK
6
CONTINUOUS
10
0.325613
20
0.367363
11
0.316675
21
0.377609
0
LINE
8
BLACK
6
CONTINUOUS
10
0.316675
20
0.377609
11
0.308973
21
0.388816
0
LINE
8
BLACK
6
CONTINUOUS
10
0.308973
20
0.388816
11
0.30261
21
0.400833
0
LINE
8
BLACK
6
CONTINUOUS
10
0.30261
20
0.400833
11
0.29767
21
0.413502
0
LINE
8
BLACK
6
CONTINUOUS
10
0.29767
20
0.413502
11
0.29422
21
0.426655
0
LINE
8
BLACK
6
CONTINUOUS
10
0.29422
20
0.426655
11
0.292304
21
0.440117
0
LINE
8
BLACK
6
CONTINUOUS
10
0.292304
20
0.440117
11
0.291948
21
0.45371
0
LINE
8
BLACK
6
CONTINUOUS
10
0.291948
20
0.45371
11
0.293157
21
0.467254
0
LINE
8
BLACK
6
CONTINUOUS
10
0.293157
20
0.467254
11
0.295914
21
0.480569
0
LINE
8
BLACK
6
CONTINUOUS
10
0.295914
20
0.480569
11
0.300184
21
0.493479
0
LINE
8
BLACK
6
CONTINUOUS
10
0.300184
20
0.493479
11
0.305909
21
0.505813
0
LINE
8
BLACK
6
CONTINUOUS
10
0.305909
20
0.505813
11
0.313014
21
0.517407
0
LINE
8
BLACK
6
CONTINUOUS
10
0.313014
20
0.517407
11
0.321404
21
0.528108
0
LINE
8
BLACK
6
CONTINUOUS
10
0.321404
20
0.528108
11
0.330969
21
0.537773
0
LINE
8
BLACK
6
CONTINUOUS
10
0.330969
20
0.537773
11
0.341581
21
0.546275
0
LINE
8
BLACK
6
CONTINUOUS
10
0.341581
20
0.546275
11
0.3531
21
0.553501
0
LINE
8
BLACK
6
CONTINUOUS
10
0.3531
20
0.553501
11
0.365373
21
0.559355
0
LINE
8
BLACK
6
CONTINUOUS
10
0.365373
20
0.559355
11
0.378238
21
0.563759
0
LINE
8
BLACK
6
CONTINUOUS
10
0.378238
20
0.563759
11
0.391524
21
0.566656
0
LINE
8
BLACK
6
CONTINUOUS
10
0.391524
20
0.566656
11
0.405054
21
0.568007
0
LINE
8
BLACK
6
CONTINUOUS
10
0.405054
20
0.568007
11
0.41865
21
0.567793
0
LINE
8
BLACK
6
CONTINUOUS
10
2.41865
20
0.567793
11
2.43213
21
0.566018
0
LINE
8
BLACK
6
CONTINUOUS
10
2.43213
20
0.566018
11
2.44532
21
0.562706
0
LINE
8
BLACK
6
CONTINUOUS
10
2.44532
20
0.562706
11
2.45804
21
0.557899
0
LINE
8
BLACK
6
CONTINUOUS
10
2.45804
20
0.557899
11
2.47012
21
0.551662
0
LINE
8
BLACK
6
CONTINUOUS
10
2.47012
20
0.551662
11
2.48141
21
0.544078
0
LINE
8
BLACK
6
CONTINUOUS
10
2.48141
20
0.544078
11
2.49175
21
0.535247
0
LINE
8
BLACK
6
CONTINUOUS
10
2.49175
20
0.535247
11
2.50101
21
0.525286
0
LINE
8
BLACK
6
CONTINUOUS
10
2.50101
20
0.525286
11
2.50906
21
0.514327
0
LINE
8
BLACK
6
CONTINUOUS
10
2.50906
20
0.514327
11
2.51579
21
0.502516
0
LINE
8
BLACK
6
CONTINUOUS
10
2.51579
20
0.502516
11
2.52113
21
0.490008
0
LINE
8
BLACK
6
CONTINUOUS
10
2.52113
20
0.490008
11
2.52499
21
0.476971
0
LINE
8
BLACK
6
CONTINUOUS
10
2.52499
20
0.476971
11
2.52733
21
0.463575
0
LINE
8
BLACK
6
CONTINUOUS
10
2.52733
20
0.463575
11
2.52811
21
0.45
0
LINE
8
BLACK
6
CONTINUOUS
10
2.52811
20
0.45
11
2.52788
21
0.442584
0
LINE
8
BLACK
6
CONTINUOUS
10
2.52788
20
0.442584
11
2.52624
21
0.429084
0
LINE
8
BLACK
6
CONTINUOUS
10
2.52624
20
0.429084
11
2.52307
21
0.415862
0
LINE
8
BLACK
6
CONTINUOUS
10
2.52307
20
0.415862
11
2.5184
21
0.403093
0
LINE
8
BLACK
6
CONTINUOUS
10
2.5184
20
0.403093
11
2.51229
21
0.390945
0
LINE
8
BLACK
6
CONTINUOUS
10
2.51229
20
0.390945
11
2.50482
21
0.37958
0
LINE
8
BLACK
6
CONTINUOUS
10
2.50482
20
0.37958
11
2.4961
21
0.369148
0
LINE
8
BLACK
6
CONTINUOUS
10
2.4961
20
0.369148
11
2.48624
21
0.359788
0
LINE
8
BLACK
6
CONTINUOUS
10
2.48624
20
0.359788
11
2.47536
21
0.351623
0
LINE
8
BLACK
6
CONTINUOUS
10
2.47536
20
0.351623
11
2.46362
21
0.344763
0
LINE
8
BLACK
6
CONTINUOUS
10
2.46362
20
0.344763
11
2.45117
21
0.339297
0
LINE
8
BLACK
6
CONTINUOUS
10
2.45117
20
0.339297
11
2.43817
21
0.335299
0
LINE
8
BLACK
6
CONTINUOUS
10
2.43817
20
0.335299
11
2.4248
21
0.332821
0
LINE
8
BLACK
6
CONTINUOUS
10
2.4248
20
0.332821
11
2.41124
21
0.331896
0
LINE
8
BLACK
6
CONTINUOUS
10
2.41124
20
0.331896
11
2.39765
21
0.332537
0
LINE
8
BLACK
6
CONTINUOUS
10
2.39765
20
0.332537
11
2.38424
21
0.334734
0
LINE
8
BLACK
6
CONTINUOUS
10
2.38424
20
0.334734
11
2.37116
21
0.338459
0
LINE
8
BLACK
6
CONTINUOUS
10
2.37116
20
0.338459
11
2.35859
21
0.343663
0
LINE
8
BLACK
6
CONTINUOUS
10
2.35859
20
0.343663
11
2.34671
21
0.350276
0
LINE
8
BLACK
6
CONTINUOUS
10
2.34671
20
0.350276
11
2.33567
21
0.358211
0
LINE
8
BLACK
6
CONTINUOUS
10
2.33567
20
0.358211
11
2.32561
21
0.367363
0
LINE
8
BLACK
6
CONTINUOUS
10
2.32561
20
0.367363
11
2.31667
21
0.377609
0
LINE
8
BLACK
6
CONTINUOUS
10
2.31667
20
0.377609
11
2.30897
21
0.388816
0
LINE
8
BLACK
6
CONTINUOUS
10
2.30897
20
0.388816
11
2.30261
21
0.400833
0
LINE
8
BLACK
6
CONTINUOUS
10
2.30261
20
0.400833
11
2.29767
21
0.413502
0
LINE
8
BLACK
6
CONTINUOUS
10
2.29767
20
0.413502
11
2.29422
21
0.426655
0
LINE
8
BLACK
6
CONTINUOUS
10
2.29422
20
0.426655
11
2.2923
21
0.440117
0
LINE
8
BLACK
6
CONTINUOUS
10
2.2923
20
0.440117
11
2.29195
21
0.45371
0
LINE
8
BLACK
6
CONTINUOUS
10
2.29195
20
0.45371
11
2.29316
21
0.467254
0
LINE
8
BLACK
6
CONTINUOUS
10
2.29316
20
0.467254
11
2.29591
21
0.480569
0
LINE
8
BLACK
6
CONTINUOUS
10
2.29591
20
0.480569
11
2.30018
21
0.493479
0
LINE
8
BLACK
6
CONTINUOUS
10
2.30018
20
0.493479
11
2.30591
21
0.505813
0
LINE
8
BLACK
6
CONTINUOUS
10
2.30591
20
0.505813
11
2.31301
21
0.517407
0
LINE
8
BLACK
6
CONTINUOUS
10
2.31301
20
0.517407
11
2.3214
21
0.528108
0
LINE
8
BLACK
6
CONTINUOUS
10
2.3214
20
0.528108
11
2.33097
21
0.537773
0
LINE
8
BLACK
6
CONTINUOUS
10
2.33097
20
0.537773
11
2.34158
21
0.546275
0
LINE
8
BLACK
6
CONTINUOUS
10
2.34158
20
0.546275
11
2.3531
21
0.553501
0
LINE
8
BLACK
6
CONTINUOUS
10
2.3531
20
0.553501
11
2.36537
21
0.559355
0
LINE
8
BLACK
6
CONTINUOUS
10
2.36537
20
0.559355
11
2.37824
21
0.563759
0
LINE
8
BLACK
6
CONTINUOUS
10
2.37824
20
0.563759
11
2.39152
21
0.566656
0
LINE
8
BLACK
6
CONTINUOUS
10
2.39152
20
0.566656
11
2.40505
21
0.568007
0
LINE
8
BLACK
6
CONTINUOUS
10
2.40505
20
0.568007
11
2.41865
21
0.567793
0
LINE
8
BLACK
6
CONTINUOUS
10
0.41865
20
1.76779
11
0.432132
21
1.76602
0
LINE
8
BLACK
6
CONTINUOUS
10
0.432132
20
1.76602
11
0.44532
21
1.76271
0
LINE
8
BLACK
6
CONTINUOUS
10
0.44532
20
1.76271
11
0.45804
21
1.7579
0
LINE
8
BLACK
6
CONTINUOUS
10
0.45804
20
1.7579
11
0.470123
21
1.75166
0
LINE
8
BLACK
6
CONTINUOUS
10
0.470123
20
1.75166
11
0.481409
21
1.74408
0
LINE
8
BLACK
6
CONTINUOUS
10
0.481409
20
1.74408
11
0.491749
21
1.73525
0
LINE
8
BLACK
6
CONTINUOUS
10
0.491749
20
1.73525
11
0.501006
21
1.72529
0
LINE
8
BLACK
6
CONTINUOUS
10
0.501006
20
1.72529
11
0.509056
21
1.71433
0
LINE
8
BLACK
6
CONTINUOUS
10
0.509056
20
1.71433
11
0.515793
21
1.70252
0
LINE
8
BLACK
6
CONTINUOUS
10
0.515793
20
1.70252
11
0.521128
21
1.69001
0
LINE
8
BLACK
6
CONTINUOUS
10
0.521128
20
1.69001
11
0.52499
21
1.67697
0
LINE
8
BLACK
6
CONTINUOUS
10
0.52499
20
1.67697
11
0.527327
21
1.66358
0
LINE
8
BLACK
6
CONTINUOUS
10
0.527327
20
1.66358
11
0.52811
21
1.65
0
LINE
8
BLACK
6
CONTINUOUS
10
0.52811
20
1.65
11
0.527877
21
1.64258
0
LINE
8
BLACK
6
CONTINUOUS
10
0.527877
20
1.64258
11
0.526244
21
1.62908
0
LINE
8
BLACK
6
CONTINUOUS
10
0.526244
20
1.62908
11
0.523069
21
1.61586
0
LINE
8
BLACK
6
CONTINUOUS
10
0.523069
20
1.61586
11
0.518396
21
1.60309
0
LINE
8
BLACK
6
CONTINUOUS
10
0.518396
20
1.60309
11
0.512286
21
1.59094
0
LINE
8
BLACK
6
CONTINUOUS
10
0.512286
20
1.59094
11
0.504821
21
1.57958
0
LINE
8
BLACK
6
CONTINUOUS
10
0.504821
20
1.57958
11
0.496099
21
1.56915
0
LINE
8
BLACK
6
CONTINUOUS
10
0.496099
20
1.56915
11
0.486235
21
1.55979
0
LINE
8
BLACK
6
CONTINUOUS
10
0.486235
20
1.55979
11
0.475361
21
1.55162
0
LINE
8
BLACK
6
CONTINUOUS
10
0.475361
20
1.55162
11
0.463621
21
1.54476
0
LINE
8
BLACK
6
CONTINUOUS
10
0.463621
20
1.54476
11
0.45117
21
1.5393
0
LINE
8
BLACK
6
CONTINUOUS
10
0.45117
20
1.5393
11
0.438173
21
1.5353
0
LINE
8
BLACK
6
CONTINUOUS
10
0.438173
20
1.5353
11
0.424803
21
1.53282
0
LINE
8
BLACK
6
CONTINUOUS
10
0.424803
20
1.53282
11
0.411237
21
1.5319
0
LINE
8
BLACK
6
CONTINUOUS
10
0.411237
20
1.5319
11
0.397654
21
1.53254
0
LINE
8
BLACK
6
CONTINUOUS
10
0.397654
20
1.53254
11
0.384235
21
1.53473
0
LINE
8
BLACK
6
CONTINUOUS
10
0.384235
20
1.53473
11
0.371157
21
1.53846
0
LINE
8
BLACK
6
CONTINUOUS
10
0.371157
20
1.53846
11
0.358595
21
1.54366
0
LINE
8
BLACK
6
CONTINUOUS
10
0.358595
20
1.54366
11
0.346713
21
1.55028
0
LINE
8
BLACK
6
CONTINUOUS
10
0.346713
20
1.55028
11
0.335671
21
1.55821
0
LINE
8
BLACK
6
CONTINUOUS
10
0.335671
20
1.55821
11
0.325613
21
1.56736
0
LINE
8
BLACK
6
CONTINUOUS
10
0.325613
20
1.56736
11
0.316675
21
1.57761
0
LINE
8
BLACK
6
CONTINUOUS
10
0.316675
20
1.57761
11
0.308973
21
1.58882
0
LINE
8
BLACK
6
CONTINUOUS
10
0.308973
20
1.58882
11
0.30261
21
1.60083
0
LINE
8
BLACK
6
CONTINUOUS
10
0.30261
20
1.60083
11
0.29767
21
1.6135
0
LINE
8
BLACK
6
CONTINUOUS
10
0.29767
20
1.6135
11
0.29422
21
1.62665
0
LINE
8
BLACK
6
CONTINUOUS
10
0.29422
20
1.62665
11
0.292304
21
1.64012
0
LINE
8
BLACK
6
CONTINUOUS
10
0.292304
20
1.64012
11
0.291948
21
1.65371
0
LINE
8
BLACK
6
CONTINUOUS
10
0.291948
20
1.65371
11
0.293157
21
1.66725
0
LINE
8
BLACK
6
CONTINUOUS
10
0.293157
20
1.66725
11
0.295914
21
1.68057
0
LINE
8
BLACK
6
CONTINUOUS
10
0.295914
20
1.68057
11
0.300184
21
1.69348
0
LINE
8
BLACK
6
CONTINUOUS
10
0.300184
20
1.69348
11
0.305909
21
1.70581
0
LINE
8
BLACK
6
CONTINUOUS
10
0.305909
20
1.70581
11
0.313014
21
1.71741
0
LINE
8
BLACK
6
CONTINUOUS
10
0.313014
20
1.71741
11
0.321404
21
1.72811
0
LINE
8
BLACK
6
CONTINUOUS
10
0.321404
20
1.72811
11
0.330969
21
1.73777
0
LINE
8
BLACK
6
CONTINUOUS
10
0.330969
20
1.73777
11
0.341581
21
1.74627
0
LINE
8
BLACK
6
CONTINUOUS
10
0.341581
20
1.74627
11
0.3531
21
1.7535
0
LINE
8
BLACK
6
CONTINUOUS
10
0.3531
20
1.7535
11
0.365373
21
1.75935
0
LINE
8
BLACK
6
CONTINUOUS
10
0.365373
20
1.75935
11
0.378238
21
1.76376
0
LINE
8
BLACK
6
CONTINUOUS
10
0.378238
20
1.76376
11
0.391524
21
1.76666
0
LINE
8
BLACK
6
CONTINUOUS
10
0.391524
20
1.76666
11
0.405054
21
1.76801
0
LINE
8
BLACK
6
CONTINUOUS
10
0.405054
20
1.76801
11
0.41865
21
1.76779
0
LINE
8
BLACK
6
CONTINUOUS
10
2.41865
20
1.76779
11
2.43213
21
1.76602
0
LINE
8
BLACK
6
CONTINUOUS
10
2.43213
20
1.76602
11
2.44532
21
1.76271
0
LINE
8
BLACK
6
CONTINUOUS
10
2.44532
20
1.76271
11
2.45804
21
1.7579
0
LINE
8
BLACK
6
CONTINUOUS
10
2.45804
20
1.7579
11
2.47012
21
1.75166
0
LINE
8
BLACK
6
CONTINUOUS
10
2.47012
20
1.75166
11
2.48141
21
1.74408
0
LINE
8
BLACK
6
CONTINUOUS
10
2.48141
20
1.74408
11
2.49175
21
1.73525
0
LINE
8
BLACK
6
CONTINUOUS
10
2.49175
20
1.73525
11
2.50101
21
1.72529
0
LINE
8
BLACK
6
CONTINUOUS
10
2.50101
20
1.72529
11
2.50906
21
1.71433
0
LINE
8
BLACK
6
CONTINUOUS
10
2.50906
20
1.71433
11
2.51579
21
1.70252
0
LINE
8
BLACK
6
CONTINUOUS
10
2.51579
20
1.70252
11
2.52113
21
1.69001
0
LINE
8
BLACK
6
CONTINUOUS
10
2.52113
20
1.69001
11
2.52499
21
1.67697
0
LINE
8
BLACK
6
CONTINUOUS
10
2.52499
20
1.67697
11
2.52733
21
1.66358
0
LINE
8
BLACK
6
CONTINUOUS
10
2.52733
20
1.66358
11
2.52811
21
1.65
0
LINE
8
BLACK
6
CONTINUOUS
10
2.52811
20
1.65
11
2.52788
21
1.64258
0
LINE
8
BLACK
6
CONTINUOUS
10
2.52788
20
1.64258
11
2.52624
21
1.62908
0
LINE
8
BLACK
6
CONTINUOUS
10
2.52624
20
1.62908
11
2.52307
21
1.61586
0
LINE
8
BLACK
6
CONTINUOUS
10
2.52307
20
1.61586
11
2.5184
21
1.60309
0
LINE
8
BLACK
6
CONTINUOUS
10
2.5184
20
1.60309
11
2.51229
21
1.59094
0
LINE
8
BLACK
6
CONTINUOUS
10
2.51229
20
1.59094
11
2.50482
21
1.57958
0
LINE
8
BLACK
6
CONTINUOUS
10
2.50482
20
1.57958
11
2.4961
21
1.56915
0
LINE
8
BLACK
6
CONTINUOUS
10
2.4961
20
1.56915
11
2.48624
21
1.55979
0
LINE
8
BLACK
6
CONTINUOUS
10
2.48624
20
1.55979
11
2.47536
21
1.55162
0
LINE
8
BLACK
6
CONTINUOUS
10
2.47536
20
1.55162
11
2.46362
21
1.54476
0
LINE
8
BLACK
6
CONTINUOUS
10
2.46362
20
1.54476
11
2.45117
21
1.5393
0
LINE
8
BLACK
6
CONTINUOUS
10
2.45117
20
1.5393
11
2.43817
21
1.5353
0
LINE
8
BLACK
6
CONTINUOUS
10
2.43817
20
1.5353
11
2.4248
21
1.53282
0
LINE
8
BLACK
6
CONTINUOUS
10
2.4248
20
1.53282
11
2.41124
21
1.5319
0
LINE
8
BLACK
6
CONTINUOUS
10
2.41124
20
1.5319
11
2.39765
21
1.53254
0
LINE
8
BLACK
6
CONTINUOUS
10
2.39765
20
1.53254
11
2.38424
21
1.53473
0
LINE
8
BLACK
6
CONTINUOUS
10
2.38424
20
1.53473
11
2.37116
21
1.53846
0
LINE
8
BLACK
6
CONTINUOUS
10
2.37116
20
1.53846
11
2.35859
21
1.54366
0
LINE
8
BLACK
6
CONTINUOUS
10
2.35859
20
1.54366
11
2.34671
21
1.55028
0
LINE
8
BLACK
6
CONTINUOUS
10
2.34671
20
1.55028
11
2.33567
21
1.55821
0
LINE
8
BLACK
6
CONTINUOUS
10
2.33567
20
1.55821
11
2.32561
21
1.56736
0
LINE
8
BLACK
6
CONTINUOUS
10
2.32561
20
1.56736
11
2.31667
21
1.57761
0
LINE
8
BLACK
6
CONTINUOUS
10
2.31667
20
1.57761
11
2.30897
21
1.58882
0
LINE
8
BLACK
6
CONTINUOUS
10
2.30897
20
1.58882
11
2.30261
21
1.60083
0
LINE
8
BLACK
6
CONTINUOUS
10
2.30261
20
1.60083
11
2.29767
21
1.6135
0
LINE
8
BLACK
6
CONTINUOUS
10
2.29767
20
1.6135
11
2.29422
21
1.62665
0
LINE
8
BLACK
6
CONTINUOUS
10
2.29422
20
1.62665
11
2.2923
21
1.64012
0
LINE
8
BLACK
6
CONTINUOUS
10
2.2923
20
1.64012
11
2.29195
21
1.65371
0
LINE
8
BLACK
6
CONTINUOUS
10
2.29195
20
1.65371
11
2.29316
21
1.66725
0
LINE
8
BLACK
6
CONTINUOUS
10
2.29316
20
1.66725
11
2.29591
21
1.68057
0
LINE
8
BLACK
6
CONTINUOUS
10
2.29591
20
1.68057
11
2.30018
21
1.69348
0
LINE
8
BLACK
6
CONTINUOUS
10
2.30018
20
1.69348
11
2.30591
21
1.70581
0
LINE
8
BLACK
6
CONTINUOUS
10
2.30591
20
1.70581
11
2.31301
21
1.71741
0
LINE
8
BLACK
6
CONTINUOUS
10
2.31301
20
1.71741
11
2.3214
21
1.72811
0
LINE
8
BLACK
6
CONTINUOUS
10
2.3214
20
1.72811
11
2.33097
21
1.73777
0
LINE
8
BLACK
6
CONTINUOUS
10
2.33097
20
1.73777
11
2.34158
21
1.74627
0
LINE
8
BLACK
6
CONTINUOUS
10
2.34158
20
1.74627
11
2.3531
21
1.7535
0
LINE
8
BLACK
6
CONTINUOUS
10
2.3531
20
1.7535
11
2.36537
21
1.75935
0
LINE
8
BLACK
6
CONTINUOUS
10
2.36537
20
1.75935
11
2.37824
21
1.76376
0
LINE
8
BLACK
6
CONTINUOUS
10
2.37824
20
1.76376
11
2.39152
21
1.76666
0
LINE
8
BLACK
6
CONTINUOUS
10
2.39152
20
1.76666
11
2.40505
21
1.76801
0
LINE
8
BLACK
6
CONTINUOUS
10
2.40505
20
1.76801
11
2.41865
21
1.76779
0
LINE
8
BLACK
6
CONTINUOUS
10
1.59162
20
0.976866
11
1.59385
21
0.982983
0
LINE
8
BLACK
6
CONTINUOUS
10
1.59385
20
0.982983
11
1.59737
21
0.988455
0
LINE
8
BLACK
6
CONTINUOUS
10
1.59737
20
0.988455
11
1.60202
21
0.99301
0
LINE
8
BLACK
6
CONTINUOUS
10
1.60202
20
0.99301
11
1.60757
21
0.996421
0
LINE
8
BLACK
6
CONTINUOUS
10
1.60757
20
0.996421
11
1.61373
21
0.998519
0
LINE
8
BLACK
6
CONTINUOUS
10
1.61373
20
0.998519
11
1.6202
21
0.999199
0
LINE
8
BLACK
6
CONTINUOUS
10
1.6202
20
0.999199
11
1.62667
21
0.998429
0
LINE
8
BLACK
6
CONTINUOUS
10
1.62667
20
0.998429
11
1.6328
21
0.996245
0
LINE
8
BLACK
6
CONTINUOUS
10
1.6328
20
0.996245
11
1.6383
21
0.992757
0
LINE
8
BLACK
6
CONTINUOUS
10
1.6383
20
0.992757
11
1.64288
21
0.988138
0
LINE
8
BLACK
6
CONTINUOUS
10
1.64288
20
0.988138
11
1.64633
21
0.982617
0
LINE
8
BLACK
6
CONTINUOUS
10
1.64633
20
0.982617
11
1.64847
21
0.976469
0
LINE
8
BLACK
6
CONTINUOUS
10
1.64847
20
0.976469
11
1.6492
21
0.97
0
LINE
8
BLACK
6
CONTINUOUS
10
1.6492
20
0.97
11
1.64919
21
0.969185
0
LINE
8
BLACK
6
CONTINUOUS
10
1.64919
20
0.969185
11
1.64828
21
0.962738
0
LINE
8
BLACK
6
CONTINUOUS
10
1.64828
20
0.962738
11
1.64597
21
0.956653
0
LINE
8
BLACK
6
CONTINUOUS
10
1.64597
20
0.956653
11
1.64237
21
0.951231
0
LINE
8
BLACK
6
CONTINUOUS
10
1.64237
20
0.951231
11
1.63765
21
0.946741
0
LINE
8
BLACK
6
CONTINUOUS
10
1.63765
20
0.946741
11
1.63206
21
0.943408
0
LINE
8
BLACK
6
CONTINUOUS
10
1.63206
20
0.943408
11
1.62587
21
0.941396
0
LINE
8
BLACK
6
CONTINUOUS
10
1.62587
20
0.941396
11
1.61939
21
0.940806
0
LINE
8
BLACK
6
CONTINUOUS
10
1.61939
20
0.940806
11
1.61294
21
0.941667
0
LINE
8
BLACK
6
CONTINUOUS
10
1.61294
20
0.941667
11
1.60683
21
0.943936
0
LINE
8
BLACK
6
CONTINUOUS
10
1.60683
20
0.943936
11
1.60139
21
0.947501
0
LINE
8
BLACK
6
CONTINUOUS
10
1.60139
20
0.947501
11
1.59687
21
0.952184
0
LINE
8
BLACK
6
CONTINUOUS
10
1.59687
20
0.952184
11
1.59349
21
0.957752
0
LINE
8
BLACK
6
CONTINUOUS
10
1.59349
20
0.957752
11
1.59144
21
0.963929
0
LINE
8
BLACK
6
CONTINUOUS
10
1.59144
20
0.963929
11
1.59084
21
0.97
0
LINE
8
BLACK
6
CONTINUOUS
10
1.59084
20
0.97
11
1.5908
21
0.970408
0
LINE
8
BLACK
6
CONTINUOUS
10
1.5908
20
0.970408
11
1.59162
21
0.976866
0
LINE
8
BLACK
6
CONTINUOUS
10
1.62
20
0.969567
11
1.62031
21
0.969694
0
LINE
8
BLACK
6
CONTINUOUS
10
1.62031
20
0.969694
11
1.62043
21
0.97
0
LINE
8
BLACK
6
CONTINUOUS
10
1.62043
20
0.97
11
1.62031
21
0.970306
0
LINE
8
BLACK
6
CONTINUOUS
10
1.62031
20
0.970306
11
1.62
21
0.970433
0
LINE
8
BLACK
6
CONTINUOUS
10
1.62
20
0.970433
11
1.61969
21
0.970306
0
LINE
8
BLACK
6
CONTINUOUS
10
1.61969
20
0.970306
11
1.61957
21
0.97
0
LINE
8
BLACK
6
CONTINUOUS
10
1.61957
20
0.97
11
1.61969
21
0.969694
0
LINE
8
BLACK
6
CONTINUOUS
10
1.61969
20
0.969694
11
1.62
21
0.969567
0
LINE
8
BLACK
6
CONTINUOUS
10
0.373619
20
1.01087
11
0.375845
21
1.01698
0
LINE
8
BLACK
6
CONTINUOUS
10
0.375845
20
1.01698
11
0.379372
21
1.02246
0
LINE
8
BLACK
6
CONTINUOUS
10
0.379372
20
1.02246
11
0.384023
21
1.02701
0
LINE
8
BLACK
6
CONTINUOUS
10
0.384023
20
1.02701
11
0.389567
21
1.03042
0
LINE
8
BLACK
6
CONTINUOUS
10
0.389567
20
1.03042
11
0.39573
21
1.03252
0
LINE
8
BLACK
6
CONTINUOUS
10
0.39573
20
1.03252
11
0.402204
21
1.0332
0
LINE
8
BLACK
6
CONTINUOUS
10
0.402204
20
1.0332
11
0.408668
21
1.03243
0
LINE
8
BLACK
6
CONTINUOUS
10
0.408668
20
1.03243
11
0.4148
21
1.03024
0
LINE
8
BLACK
6
CONTINUOUS
10
0.4148
20
1.03024
11
0.420297
21
1.02676
0
LINE
8
BLACK
6
CONTINUOUS
10
0.420297
20
1.02676
11
0.424884
21
1.02214
0
LINE
8
BLACK
6
CONTINUOUS
10
0.424884
20
1.02214
11
0.428334
21
1.01662
0
LINE
8
BLACK
6
CONTINUOUS
10
0.428334
20
1.01662
11
0.430474
21
1.01047
0
LINE
8
BLACK
6
CONTINUOUS
10
0.430474
20
1.01047
11
0.4312
21
1.004
0
LINE
8
BLACK
6
CONTINUOUS
10
0.4312
20
1.004
11
0.431189
21
1.00318
0
LINE
8
BLACK
6
CONTINUOUS
10
0.431189
20
1.00318
11
0.430283
21
0.996738
0
LINE
8
BLACK
6
CONTINUOUS
10
0.430283
20
0.996738
11
0.427971
21
0.990653
0
LINE
8
BLACK
6
CONTINUOUS
10
0.427971
20
0.990653
11
0.424369
21
0.985231
0
LINE
8
BLACK
6
CONTINUOUS
10
0.424369
20
0.985231
11
0.419654
21
0.980741
0
LINE
8
BLACK
6
CONTINUOUS
10
0.419654
20
0.980741
11
0.414063
21
0.977408
0
LINE
8
BLACK
6
CONTINUOUS
10
0.414063
20
0.977408
11
0.407871
21
0.975396
0
LINE
8
BLACK
6
CONTINUOUS
10
0.407871
20
0.975396
11
0.401388
21
0.974806
0
LINE
8
BLACK
6
CONTINUOUS
10
0.401388
20
0.974806
11
0.394936
21
0.975667
0
LINE
8
BLACK
6
CONTINUOUS
10
0.394936
20
0.975667
11
0.388834
21
0.977936
0
LINE
8
BLACK
6
CONTINUOUS
10
0.388834
20
0.977936
11
0.383387
21
0.981501
0
LINE
8
BLACK
6
CONTINUOUS
10
0.383387
20
0.981501
11
0.378865
21
0.986184
0
LINE
8
BLACK
6
CONTINUOUS
10
0.378865
20
0.986184
11
0.375493
21
0.991752
0
LINE
8
BLACK
6
CONTINUOUS
10
0.375493
20
0.991752
11
0.373438
21
0.997929
0
LINE
8
BLACK
6
CONTINUOUS
10
0.373438
20
0.997929
11
0.372843
21
1.004
0
LINE
8
BLACK
6
CONTINUOUS
10
0.372843
20
1.004
11
0.372803
21
1.00441
0
LINE
8
BLACK
6
CONTINUOUS
10
0.372803
20
1.00441
11
0.373619
21
1.01087
0
LINE
8
BLACK
6
CONTINUOUS
10
0.402
20
1.00357
11
0.402306
21
1.00369
0
LINE
8
BLACK
6
CONTINUOUS
10
0.402306
20
1.00369
11
0.402433
21
1.004
0
LINE
8
BLACK
6
CONTINUOUS
10
0.402433
20
1.004
11
0.402306
21
1.00431
0
LINE
8
BLACK
6
CONTINUOUS
10
0.402306
20
1.00431
11
0.402
21
1.00443
0
LINE
8
BLACK
6
CONTINUOUS
10
0.402
20
1.00443
11
0.401694
21
1.00431
0
LINE
8
BLACK
6
CONTINUOUS
10
0.401694
20
1.00431
11
0.401567
21
1.004
0
LINE
8
BLACK
6
CONTINUOUS
10
0.401567
20
1.004
11
0.401694
21
1.00369
0
LINE
8
BLACK
6
CONTINUOUS
10
0.401694
20
1.00369
11
0.402
21
1.00357
0
LINE
8
BLACK
6
CONTINUOUS
10
1.95562
20
1.01197
11
1.95785
21
1.01808
0
LINE
8
BLACK
6
CONTINUOUS
10
1.95785
20
1.01808
11
1.96137
21
1.02356
0
LINE
8
BLACK
6
CONTINUOUS
10
1.96137
20
1.02356
11
1.96602
21
1.02811
0
LINE
8
BLACK
6
CONTINUOUS
10
1.96602
20
1.02811
11
1.97157
21
1.03152
0
LINE
8
BLACK
6
CONTINUOUS
10
1.97157
20
1.03152
11
1.97773
21
1.03362
0
LINE
8
BLACK
6
CONTINUOUS
10
1.97773
20
1.03362
11
1.9842
21
1.0343
0
LINE
8
BLACK
6
CONTINUOUS
10
1.9842
20
1.0343
11
1.99067
21
1.03353
0
LINE
8
BLACK
6
CONTINUOUS
10
1.99067
20
1.03353
11
1.9968
21
1.03134
0
LINE
8
BLACK
6
CONTINUOUS
10
1.9968
20
1.03134
11
2.0023
21
1.02786
0
LINE
8
BLACK
6
CONTINUOUS
10
2.0023
20
1.02786
11
2.00688
21
1.02324
0
LINE
8
BLACK
6
CONTINUOUS
10
2.00688
20
1.02324
11
2.01033
21
1.01772
0
LINE
8
BLACK
6
CONTINUOUS
10
2.01033
20
1.01772
11
2.01247
21
1.01157
0
LINE
8
BLACK
6
CONTINUOUS
10
2.01247
20
1.01157
11
2.0132
21
1.0051
0
LINE
8
BLACK
6
CONTINUOUS
10
2.0132
20
1.0051
11
2.01319
21
1.00428
0
LINE
8
BLACK
6
CONTINUOUS
10
2.01319
20
1.00428
11
2.01228
21
0.997838
0
LINE
8
BLACK
6
CONTINUOUS
10
2.01228
20
0.997838
11
2.00997
21
0.991753
0
LINE
8
BLACK
6
CONTINUOUS
10
2.00997
20
0.991753
11
2.00637
21
0.986331
0
LINE
8
BLACK
6
CONTINUOUS
10
2.00637
20
0.986331
11
2.00165
21
0.981841
0
LINE
8
BLACK
6
CONTINUOUS
10
2.00165
20
0.981841
11
1.99606
21
0.978508
0
LINE
8
BLACK
6
CONTINUOUS
10
1.99606
20
0.978508
11
1.98987
21
0.976496
0
LINE
8
BLACK
6
CONTINUOUS
10
1.98987
20
0.976496
11
1.98339
21
0.975906
0
LINE
8
BLACK
6
CONTINUOUS
10
1.98339
20
0.975906
11
1.97694
21
0.976767
0
LINE
8
BLACK
6
CONTINUOUS
10
1.97694
20
0.976767
11
1.97083
21
0.979036
0
LINE
8
BLACK
6
CONTINUOUS
10
1.97083
20
0.979036
11
1.96539
21
0.982601
0
LINE
8
BLACK
6
CONTINUOUS
10
1.96539
20
0.982601
11
1.96087
21
0.987284
0
LINE
8
BLACK
6
CONTINUOUS
10
1.96087
20
0.987284
11
1.95749
21
0.992852
0
LINE
8
BLACK
6
CONTINUOUS
10
1.95749
20
0.992852
11
1.95544
21
0.999029
0
LINE
8
BLACK
6
CONTINUOUS
10
1.95544
20
0.999029
11
1.95484
21
1.0051
0
LINE
8
BLACK
6
CONTINUOUS
10
1.95484
20
1.0051
11
1.9548
21
1.00551
0
LINE
8
BLACK
6
CONTINUOUS
10
1.9548
20
1.00551
11
1.95562
21
1.01197
0
LINE
8
BLACK
6
CONTINUOUS
10
1.984
20
1.00467
11
1.98431
21
1.00479
0
LINE
8
BLACK
6
CONTINUOUS
10
1.98431
20
1.00479
11
1.98443
21
1.0051
0
LINE
8
BLACK
6
CONTINUOUS
10
1.98443
20
1.0051
11
1.98431
21
1.00541
0
LINE
8
BLACK
6
CONTINUOUS
10
1.98431
20
1.00541
11
1.984
21
1.00553
0
LINE
8
BLACK
6
CONTINUOUS
10
1.984
20
1.00553
11
1.98369
21
1.00541
0
LINE
8
BLACK
6
CONTINUOUS
10
1.98369
20
1.00541
11
1.98357
21
1.0051
0
LINE
8
BLACK
6
CONTINUOUS
10
1.98357
20
1.0051
11
1.98369
21
1.00479
0
LINE
8
BLACK
6
CONTINUOUS
10
1.98369
20
1.00479
11
1.984
21
1.00467
0
LINE
8
BLACK
6
CONTINUOUS
10
0.667619
20
1.01397
11
0.669845
21
1.02008
0
LINE
8
BLACK
6
CONTINUOUS
10
0.669845
20
1.02008
11
0.673372
21
1.02556
0
LINE
8
BLACK
6
CONTINUOUS
10
0.673372
20
1.02556
11
0.678023
21
1.03011
0
LINE
8
BLACK
6
CONTINUOUS
10
0.678023
20
1.03011
11
0.683567
21
1.03352
0
LINE
8
BLACK
6
CONTINUOUS
10
0.683567
20
1.03352
11
0.68973
21
1.03562
0
LINE
8
BLACK
6
CONTINUOUS
10
0.68973
20
1.03562
11
0.696204
21
1.0363
0
LINE
8
BLACK
6
CONTINUOUS
10
0.696204
20
1.0363
11
0.702668
21
1.03553
0
LINE
8
BLACK
6
CONTINUOUS
10
0.702668
20
1.03553
11
0.7088
21
1.03334
0
LINE
8
BLACK
6
CONTINUOUS
10
0.7088
20
1.03334
11
0.714297
21
1.02986
0
LINE
8
BLACK
6
CONTINUOUS
10
0.714297
20
1.02986
11
0.718884
21
1.02524
0
LINE
8
BLACK
6
CONTINUOUS
10
0.718884
20
1.02524
11
0.722334
21
1.01972
0
LINE
8
BLACK
6
CONTINUOUS
10
0.722334
20
1.01972
11
0.724474
21
1.01357
0
LINE
8
BLACK
6
CONTINUOUS
10
0.724474
20
1.01357
11
0.7252
21
1.0071
0
LINE
8
BLACK
6
CONTINUOUS
10
0.7252
20
1.0071
11
0.725189
21
1.00628
0
LINE
8
BLACK
6
CONTINUOUS
10
0.725189
20
1.00628
11
0.724283
21
0.999838
0
LINE
8
BLACK
6
CONTINUOUS
10
0.724283
20
0.999838
11
0.721971
21
0.993753
0
LINE
8
BLACK
6
CONTINUOUS
10
0.721971
20
0.993753
11
0.718369
21
0.988331
0
LINE
8
BLACK
6
CONTINUOUS
10
0.718369
20
0.988331
11
0.713654
21
0.983841
0
LINE
8
BLACK
6
CONTINUOUS
10
0.713654
20
0.983841
11
0.708063
21
0.980508
0
LINE
8
BLACK
6
CONTINUOUS
10
0.708063
20
0.980508
11
0.701871
21
0.978496
0
LINE
8
BLACK
6
CONTINUOUS
10
0.701871
20
0.978496
11
0.695388
21
0.977906
0
LINE
8
BLACK
6
CONTINUOUS
10
0.695388
20
0.977906
11
0.688936
21
0.978767
0
LINE
8
BLACK
6
CONTINUOUS
10
0.688936
20
0.978767
11
0.682834
21
0.981036
0
LINE
8
BLACK
6
CONTINUOUS
10
0.682834
20
0.981036
11
0.677387
21
0.984601
0
LINE
8
BLACK
6
CONTINUOUS
10
0.677387
20
0.984601
11
0.672865
21
0.989284
0
LINE
8
BLACK
6
CONTINUOUS
10
0.672865
20
0.989284
11
0.669493
21
0.994852
0
LINE
8
BLACK
6
CONTINUOUS
10
0.669493
20
0.994852
11
0.667438
21
1.00103
0
LINE
8
BLACK
6
CONTINUOUS
10
0.667438
20
1.00103
11
0.666843
21
1.0071
0
LINE
8
BLACK
6
CONTINUOUS
10
0.666843
20
1.0071
11
0.666803
21
1.00751
0
LINE
8
BLACK
6
CONTINUOUS
10
0.666803
20
1.00751
11
0.667619
21
1.01397
0
LINE
8
BLACK
6
CONTINUOUS
10
0.696
20
1.00667
11
0.696306
21
1.00679
0
LINE
8
BLACK
6
CONTINUOUS
10
0.696306
20
1.00679
11
0.696433
21
1.0071
0
LINE
8
BLACK
6
CONTINUOUS
10
0.696433
20
1.0071
11
0.696306
21
1.00741
0
LINE
8
BLACK
6
CONTINUOUS
10
0.696306
20
1.00741
11
0.696
21
1.00753
0
LINE
8
BLACK
6
CONTINUOUS
10
0.696
20
1.00753
11
0.695694
21
1.00741
0
LINE
8
BLACK
6
CONTINUOUS
10
0.695694
20
1.00741
11
0.695567
21
1.0071
0
LINE
8
BLACK
6
CONTINUOUS
10
0.695567
20
1.0071
11
0.695694
21
1.00679
0
LINE
8
BLACK
6
CONTINUOUS
10
0.695694
20
1.00679
11
0.696
21
1.00667
0
LINE
8
BLACK
6
CONTINUOUS
10
2.05162
20
1.01487
11
2.05385
21
1.02098
0
LINE
8
BLACK
6
CONTINUOUS
10
2.05385
20
1.02098
11
2.05737
21
1.02646
0
LINE
8
BLACK
6
CONTINUOUS
10
2.05737
20
1.02646
11
2.06202
21
1.03101
0
LINE
8
BLACK
6
CONTINUOUS
10
2.06202
20
1.03101
11
2.06757
21
1.03442
0
LINE
8
BLACK
6
CONTINUOUS
10
2.06757
20
1.03442
11
2.07373
21
1.03652
0
LINE
8
BLACK
6
CONTINUOUS
10
2.07373
20
1.03652
11
2.0802
21
1.0372
0
LINE
8
BLACK
6
CONTINUOUS
10
2.0802
20
1.0372
11
2.08667
21
1.03643
0
LINE
8
BLACK
6
CONTINUOUS
10
2.08667
20
1.03643
11
2.0928
21
1.03424
0
LINE
8
BLACK
6
CONTINUOUS
10
2.0928
20
1.03424
11
2.0983
21
1.03076
0
LINE
8
BLACK
6
CONTINUOUS
10
2.0983
20
1.03076
11
2.10288
21
1.02614
0
LINE
8
BLACK
6
CONTINUOUS
10
2.10288
20
1.02614
11
2.10633
21
1.02062
0
LINE
8
BLACK
6
CONTINUOUS
10
2.10633
20
1.02062
11
2.10847
21
1.01447
0
LINE
8
BLACK
6
CONTINUOUS
10
2.10847
20
1.01447
11
2.1092
21
1.008
0
LINE
8
BLACK
6
CONTINUOUS
10
2.1092
20
1.008
11
2.10919
21
1.00718
0
LINE
8
BLACK
6
CONTINUOUS
10
2.10919
20
1.00718
11
2.10828
21
1.00074
0
LINE
8
BLACK
6
CONTINUOUS
10
2.10828
20
1.00074
11
2.10597
21
0.994653
0
LINE
8
BLACK
6
CONTINUOUS
10
2.10597
20
0.994653
11
2.10237
21
0.989231
0
LINE
8
BLACK
6
CONTINUOUS
10
2.10237
20
0.989231
11
2.09765
21
0.984741
0
LINE
8
BLACK
6
CONTINUOUS
10
2.09765
20
0.984741
11
2.09206
21
0.981408
0
LINE
8
BLACK
6
CONTINUOUS
10
2.09206
20
0.981408
11
2.08587
21
0.979396
0
LINE
8
BLACK
6
CONTINUOUS
10
2.08587
20
0.979396
11
2.07939
21
0.978806
0
LINE
8
BLACK
6
CONTINUOUS
10
2.07939
20
0.978806
11
2.07294
21
0.979667
0
LINE
8
BLACK
6
CONTINUOUS
10
2.07294
20
0.979667
11
2.06683
21
0.981936
0
LINE
8
BLACK
6
CONTINUOUS
10
2.06683
20
0.981936
11
2.06139
21
0.985501
0
LINE
8
BLACK
6
CONTINUOUS
10
2.06139
20
0.985501
11
2.05687
21
0.990184
0
LINE
8
BLACK
6
CONTINUOUS
10
2.05687
20
0.990184
11
2.05349
21
0.995752
0
LINE
8
BLACK
6
CONTINUOUS
10
2.05349
20
0.995752
11
2.05144
21
1.00193
0
LINE
8
BLACK
6
CONTINUOUS
10
2.05144
20
1.00193
11
2.05084
21
1.008
0
LINE
8
BLACK
6
CONTINUOUS
10
2.05084
20
1.008
11
2.0508
21
1.00841
0
LINE
8
BLACK
6
CONTINUOUS
10
2.0508
20
1.00841
11
2.05162
21
1.01487
0
LINE
8
BLACK
6
CONTINUOUS
10
2.08
20
1.00757
11
2.08031
21
1.00769
0
LINE
8
BLACK
6
CONTINUOUS
10
2.08031
20
1.00769
11
2.08043
21
1.008
0
LINE
8
BLACK
6
CONTINUOUS
10
2.08043
20
1.008
11
2.08031
21
1.00831
0
LINE
8
BLACK
6
CONTINUOUS
10
2.08031
20
1.00831
11
2.08
21
1.00843
0
LINE
8
BLACK
6
CONTINUOUS
10
2.08
20
1.00843
11
2.07969
21
1.00831
0
LINE
8
BLACK
6
CONTINUOUS
10
2.07969
20
1.00831
11
2.07957
21
1.008
0
LINE
8
BLACK
6
CONTINUOUS
10
2.07957
20
1.008
11
2.07969
21
1.00769
0
LINE
8
BLACK
6
CONTINUOUS
10
2.07969
20
1.00769
11
2.08
21
1.00757
0
LINE
8
BLACK
6
CONTINUOUS
10
1.13562
20
1.01597
11
1.13785
21
1.02208
0
LINE
8
BLACK
6
CONTINUOUS
10
1.13785
20
1.02208
11
1.14137
21
1.02756
0
LINE
8
BLACK
6
CONTINUOUS
10
1.14137
20
1.02756
11
1.14602
21
1.03211
0
LINE
8
BLACK
6
CONTINUOUS
10
1.14602
20
1.03211
11
1.15157
21
1.03552
0
LINE
8
BLACK
6
CONTINUOUS
10
1.15157
20
1.03552
11
1.15773
21
1.03762
0
LINE
8
BLACK
6
CONTINUOUS
10
1.15773
20
1.03762
11
1.1642
21
1.0383
0
LINE
8
BLACK
6
CONTINUOUS
10
1.1642
20
1.0383
11
1.17067
21
1.03753
0
LINE
8
BLACK
6
CONTINUOUS
10
1.17067
20
1.03753
11
1.1768
21
1.03534
0
LINE
8
BLACK
6
CONTINUOUS
10
1.1768
20
1.03534
11
1.1823
21
1.03186
0
LINE
8
BLACK
6
CONTINUOUS
10
1.1823
20
1.03186
11
1.18688
21
1.02724
0
LINE
8
BLACK
6
CONTINUOUS
10
1.18688
20
1.02724
11
1.19033
21
1.02172
0
LINE
8
BLACK
6
CONTINUOUS
10
1.19033
20
1.02172
11
1.19247
21
1.01557
0
LINE
8
BLACK
6
CONTINUOUS
10
1.19247
20
1.01557
11
1.1932
21
1.0091
0
LINE
8
BLACK
6
CONTINUOUS
10
1.1932
20
1.0091
11
1.19319
21
1.00828
0
LINE
8
BLACK
6
CONTINUOUS
10
1.19319
20
1.00828
11
1.19228
21
1.00184
0
LINE
8
BLACK
6
CONTINUOUS
10
1.19228
20
1.00184
11
1.18997
21
0.995753
0
LINE
8
BLACK
6
CONTINUOUS
10
1.18997
20
0.995753
11
1.18637
21
0.990331
0
LINE
8
BLACK
6
CONTINUOUS
10
1.18637
20
0.990331
11
1.18165
21
0.985841
0
LINE
8
BLACK
6
CONTINUOUS
10
1.18165
20
0.985841
11
1.17606
21
0.982508
0
LINE
8
BLACK
6
CONTINUOUS
10
1.17606
20
0.982508
11
1.16987
21
0.980496
0
LINE
8
BLACK
6
CONTINUOUS
10
1.16987
20
0.980496
11
1.16339
21
0.979906
0
LINE
8
BLACK
6
CONTINUOUS
10
1.16339
20
0.979906
11
1.15694
21
0.980767
0
LINE
8
BLACK
6
CONTINUOUS
10
1.15694
20
0.980767
11
1.15083
21
0.983036
0
LINE
8
BLACK
6
CONTINUOUS
10
1.15083
20
0.983036
11
1.14539
21
0.986601
0
LINE
8
BLACK
6
CONTINUOUS
10
1.14539
20
0.986601
11
1.14087
21
0.991284
0
LINE
8
BLACK
6
CONTINUOUS
10
1.14087
20
0.991284
11
1.13749
21
0.996852
0
LINE
8
BLACK
6
CONTINUOUS
10
1.13749
20
0.996852
11
1.13544
21
1.00303
0
LINE
8
BLACK
6
CONTINUOUS
10
1.13544
20
1.00303
11
1.13484
21
1.0091
0
LINE
8
BLACK
6
CONTINUOUS
10
1.13484
20
1.0091
11
1.1348
21
1.00951
0
LINE
8
BLACK
6
CONTINUOUS
10
1.1348
20
1.00951
11
1.13562
21
1.01597
0
LINE
8
BLACK
6
CONTINUOUS
10
1.164
20
1.00867
11
1.16431
21
1.00879
0
LINE
8
BLACK
6
CONTINUOUS
10
1.16431
20
1.00879
11
1.16443
21
1.0091
0
LINE
8
BLACK
6
CONTINUOUS
10
1.16443
20
1.0091
11
1.16431
21
1.00941
0
LINE
8
BLACK
6
CONTINUOUS
10
1.16431
20
1.00941
11
1.164
21
1.00953
0
LINE
8
BLACK
6
CONTINUOUS
10
1.164
20
1.00953
11
1.16369
21
1.00941
0
LINE
8
BLACK
6
CONTINUOUS
10
1.16369
20
1.00941
11
1.16357
21
1.0091
0
LINE
8
BLACK
6
CONTINUOUS
10
1.16357
20
1.0091
11
1.16369
21
1.00879
0
LINE
8
BLACK
6
CONTINUOUS
10
1.16369
20
1.00879
11
1.164
21
1.00867
0
LINE
8
BLACK
6
CONTINUOUS
10
2.34162
20
1.01687
11
2.34385
21
1.02298
0
LINE
8
BLACK
6
CONTINUOUS
10
2.34385
20
1.02298
11
2.34737
21
1.02846
0
LINE
8
BLACK
6
CONTINUOUS
10
2.34737
20
1.02846
11
2.35202
21
1.03301
0
LINE
8
BLACK
6
CONTINUOUS
10
2.35202
20
1.03301
11
2.35757
21
1.03642
0
LINE
8
BLACK
6
CONTINUOUS
10
2.35757
20
1.03642
11
2.36373
21
1.03852
0
LINE
8
BLACK
6
CONTINUOUS
10
2.36373
20
1.03852
11
2.3702
21
1.0392
0
LINE
8
BLACK
6
CONTINUOUS
10
2.3702
20
1.0392
11
2.37667
21
1.03843
0
LINE
8
BLACK
6
CONTINUOUS
10
2.37667
20
1.03843
11
2.3828
21
1.03624
0
LINE
8
BLACK
6
CONTINUOUS
10
2.3828
20
1.03624
11
2.3883
21
1.03276
0
LINE
8
BLACK
6
CONTINUOUS
10
2.3883
20
1.03276
11
2.39288
21
1.02814
0
LINE
8
BLACK
6
CONTINUOUS
10
2.39288
20
1.02814
11
2.39633
21
1.02262
0
LINE
8
BLACK
6
CONTINUOUS
10
2.39633
20
1.02262
11
2.39847
21
1.01647
0
LINE
8
BLACK
6
CONTINUOUS
10
2.39847
20
1.01647
11
2.3992
21
1.01
0
LINE
8
BLACK
6
CONTINUOUS
10
2.3992
20
1.01
11
2.39919
21
1.00918
0
LINE
8
BLACK
6
CONTINUOUS
10
2.39919
20
1.00918
11
2.39828
21
1.00274
0
LINE
8
BLACK
6
CONTINUOUS
10
2.39828
20
1.00274
11
2.39597
21
0.996653
0
LINE
8
BLACK
6
CONTINUOUS
10
2.39597
20
0.996653
11
2.39237
21
0.991231
0
LINE
8
BLACK
6
CONTINUOUS
10
2.39237
20
0.991231
11
2.38765
21
0.986741
0
LINE
8
BLACK
6
CONTINUOUS
10
2.38765
20
0.986741
11
2.38206
21
0.983408
0
LINE
8
BLACK
6
CONTINUOUS
10
2.38206
20
0.983408
11
2.37587
21
0.981396
0
LINE
8
BLACK
6
CONTINUOUS
10
2.37587
20
0.981396
11
2.36939
21
0.980806
0
LINE
8
BLACK
6
CONTINUOUS
10
2.36939
20
0.980806
11
2.36294
21
0.981667
0
LINE
8
BLACK
6
CONTINUOUS
10
2.36294
20
0.981667
11
2.35683
21
0.983936
0
LINE
8
BLACK
6
CONTINUOUS
10
2.35683
20
0.983936
11
2.35139
21
0.987501
0
LINE
8
BLACK
6
CONTINUOUS
10
2.35139
20
0.987501
11
2.34687
21
0.992184
0
LINE
8
BLACK
6
CONTINUOUS
10
2.34687
20
0.992184
11
2.34349
21
0.997752
0
LINE
8
BLACK
6
CONTINUOUS
10
2.34349
20
0.997752
11
2.34144
21
1.00393
0
LINE
8
BLACK
6
CONTINUOUS
10
2.34144
20
1.00393
11
2.34084
21
1.01
0
LINE
8
BLACK
6
CONTINUOUS
10
2.34084
20
1.01
11
2.3408
21
1.01041
0
LINE
8
BLACK
6
CONTINUOUS
10
2.3408
20
1.01041
11
2.34162
21
1.01687
0
LINE
8
BLACK
6
CONTINUOUS
10
2.37
20
1.00957
11
2.37031
21
1.00969
0
LINE
8
BLACK
6
CONTINUOUS
10
2.37031
20
1.00969
11
2.37043
21
1.01
0
LINE
8
BLACK
6
CONTINUOUS
10
2.37043
20
1.01
11
2.37031
21
1.01031
0
LINE
8
BLACK
6
CONTINUOUS
10
2.37031
20
1.01031
11
2.37
21
1.01043
0
LINE
8
BLACK
6
CONTINUOUS
10
2.37
20
1.01043
11
2.36969
21
1.01031
0
LINE
8
BLACK
6
CONTINUOUS
10
2.36969
20
1.01031
11
2.36957
21
1.01
0
LINE
8
BLACK
6
CONTINUOUS
10
2.36957
20
1.01
11
2.36969
21
1.00969
0
LINE
8
BLACK
6
CONTINUOUS
10
2.36969
20
1.00969
11
2.37
21
1.00957
0
LINE
8
BLACK
6
CONTINUOUS
10
0.771619
20
1.01687
11
0.773845
21
1.02298
0
LINE
8
BLACK
6
CONTINUOUS
10
0.773845
20
1.02298
11
0.777372
21
1.02846
0
LINE
8
BLACK
6
CONTINUOUS
10
0.777372
20
1.02846
11
0.782023
21
1.03301
0
LINE
8
BLACK
6
CONTINUOUS
10
0.782023
20
1.03301
11
0.787567
21
1.03642
0
LINE
8
BLACK
6
CONTINUOUS
10
0.787567
20
1.03642
11
0.79373
21
1.03852
0
LINE
8
BLACK
6
CONTINUOUS
10
0.79373
20
1.03852
11
0.800204
21
1.0392
0
LINE
8
BLACK
6
CONTINUOUS
10
0.800204
20
1.0392
11
0.806668
21
1.03843
0
LINE
8
BLACK
6
CONTINUOUS
10
0.806668
20
1.03843
11
0.8128
21
1.03624
0
LINE
8
BLACK
6
CONTINUOUS
10
0.8128
20
1.03624
11
0.818297
21
1.03276
0
LINE
8
BLACK
6
CONTINUOUS
10
0.818297
20
1.03276
11
0.822884
21
1.02814
0
LINE
8
BLACK
6
CONTINUOUS
10
0.822884
20
1.02814
11
0.826334
21
1.02262
0
LINE
8
BLACK
6
CONTINUOUS
10
0.826334
20
1.02262
11
0.828474
21
1.01647
0
LINE
8
BLACK
6
CONTINUOUS
10
0.828474
20
1.01647
11
0.8292
21
1.01
0
LINE
8
BLACK
6
CONTINUOUS
10
0.8292
20
1.01
11
0.829189
21
1.00918
0
LINE
8
BLACK
6
CONTINUOUS
10
0.829189
20
1.00918
11
0.828283
21
1.00274
0
LINE
8
BLACK
6
CONTINUOUS
10
0.828283
20
1.00274
11
0.825971
21
0.996653
0
LINE
8
BLACK
6
CONTINUOUS
10
0.825971
20
0.996653
11
0.822369
21
0.991231
0
LINE
8
BLACK
6
CONTINUOUS
10
0.822369
20
0.991231
11
0.817654
21
0.986741
0
LINE
8
BLACK
6
CONTINUOUS
10
0.817654
20
0.986741
11
0.812063
21
0.983408
0
LINE
8
BLACK
6
CONTINUOUS
10
0.812063
20
0.983408
11
0.805871
21
0.981396
0
LINE
8
BLACK
6
CONTINUOUS
10
0.805871
20
0.981396
11
0.799388
21
0.980806
0
LINE
8
BLACK
6
CONTINUOUS
10
0.799388
20
0.980806
11
0.792936
21
0.981667
0
LINE
8
BLACK
6
CONTINUOUS
10
0.792936
20
0.981667
11
0.786834
21
0.983936
0
LINE
8
BLACK
6
CONTINUOUS
10
0.786834
20
0.983936
11
0.781387
21
0.987501
0
LINE
8
BLACK
6
CONTINUOUS
10
0.781387
20
0.987501
11
0.776865
21
0.992184
0
LINE
8
BLACK
6
CONTINUOUS
10
0.776865
20
0.992184
11
0.773493
21
0.997752
0
LINE
8
BLACK
6
CONTINUOUS
10
0.773493
20
0.997752
11
0.771438
21
1.00393
0
LINE
8
BLACK
6
CONTINUOUS
10
0.771438
20
1.00393
11
0.770843
21
1.01
0
LINE
8
BLACK
6
CONTINUOUS
10
0.770843
20
1.01
11
0.770803
21
1.01041
0
LINE
8
BLACK
6
CONTINUOUS
10
0.770803
20
1.01041
11
0.771619
21
1.01687
0
LINE
8
BLACK
6
CONTINUOUS
10
0.8
20
1.00957
11
0.800306
21
1.00969
0
LINE
8
BLACK
6
CONTINUOUS
10
0.800306
20
1.00969
11
0.800433
21
1.01
0
LINE
8
BLACK
6
CONTINUOUS
10
0.800433
20
1.01
11
0.800306
21
1.01031
0
LINE
8
BLACK
6
CONTINUOUS
10
0.800306
20
1.01031
11
0.8
21
1.01043
0
LINE
8
BLACK
6
CONTINUOUS
10
0.8
20
1.01043
11
0.799694
21
1.01031
0
LINE
8
BLACK
6
CONTINUOUS
10
0.799694
20
1.01031
11
0.799567
21
1.01
0
LINE
8
BLACK
6
CONTINUOUS
10
0.799567
20
1.01
11
0.799694
21
1.00969
0
LINE
8
BLACK
6
CONTINUOUS
10
0.799694
20
1.00969
11
0.8
21
1.00957
0
LINE
8
BLACK
6
CONTINUOUS
10
1.03162
20
1.68687
11
1.03385
21
1.69298
0
LINE
8
BLACK
6
CONTINUOUS
10
1.03385
20
1.69298
11
1.03737
21
1.69846
0
LINE
8
BLACK
6
CONTINUOUS
10
1.03737
20
1.69846
11
1.04202
21
1.70301
0
LINE
8
BLACK
6
CONTINUOUS
10
1.04202
20
1.70301
11
1.04757
21
1.70642
0
LINE
8
BLACK
6
CONTINUOUS
10
1.04757
20
1.70642
11
1.05373
21
1.70852
0
LINE
8
BLACK
6
CONTINUOUS
10
1.05373
20
1.70852
11
1.0602
21
1.7092
0
LINE
8
BLACK
6
CONTINUOUS
10
1.0602
20
1.7092
11
1.06667
21
1.70843
0
LINE
8
BLACK
6
CONTINUOUS
10
1.06667
20
1.70843
11
1.0728
21
1.70624
0
LINE
8
BLACK
6
CONTINUOUS
10
1.0728
20
1.70624
11
1.0783
21
1.70276
0
LINE
8
BLACK
6
CONTINUOUS
10
1.0783
20
1.70276
11
1.08288
21
1.69814
0
LINE
8
BLACK
6
CONTINUOUS
10
1.08288
20
1.69814
11
1.08633
21
1.69262
0
LINE
8
BLACK
6
CONTINUOUS
10
1.08633
20
1.69262
11
1.08847
21
1.68647
0
LINE
8
BLACK
6
CONTINUOUS
10
1.08847
20
1.68647
11
1.0892
21
1.68
0
LINE
8
BLACK
6
CONTINUOUS
10
1.0892
20
1.68
11
1.08919
21
1.67918
0
LINE
8
BLACK
6
CONTINUOUS
10
1.08919
20
1.67918
11
1.08828
21
1.67274
0
LINE
8
BLACK
6
CONTINUOUS
10
1.08828
20
1.67274
11
1.08597
21
1.66665
0
LINE
8
BLACK
6
CONTINUOUS
10
1.08597
20
1.66665
11
1.08237
21
1.66123
0
LINE
8
BLACK
6
CONTINUOUS
10
1.08237
20
1.66123
11
1.07765
21
1.65674
0
LINE
8
BLACK
6
CONTINUOUS
10
1.07765
20
1.65674
11
1.07206
21
1.65341
0
LINE
8
BLACK
6
CONTINUOUS
10
1.07206
20
1.65341
11
1.06587
21
1.6514
0
LINE
8
BLACK
6
CONTINUOUS
10
1.06587
20
1.6514
11
1.05939
21
1.65081
0
LINE
8
BLACK
6
CONTINUOUS
10
1.05939
20
1.65081
11
1.05294
21
1.65167
0
LINE
8
BLACK
6
CONTINUOUS
10
1.05294
20
1.65167
11
1.04683
21
1.65394
0
LINE
8
BLACK
6
CONTINUOUS
10
1.04683
20
1.65394
11
1.04139
21
1.6575
0
LINE
8
BLACK
6
CONTINUOUS
10
1.04139
20
1.6575
11
1.03687
21
1.66218
0
LINE
8
BLACK
6
CONTINUOUS
10
1.03687
20
1.66218
11
1.03349
21
1.66775
0
LINE
8
BLACK
6
CONTINUOUS
10
1.03349
20
1.66775
11
1.03144
21
1.67393
0
LINE
8
BLACK
6
CONTINUOUS
10
1.03144
20
1.67393
11
1.03084
21
1.68
0
LINE
8
BLACK
6
CONTINUOUS
10
1.03084
20
1.68
11
1.0308
21
1.68041
0
LINE
8
BLACK
6
CONTINUOUS
10
1.0308
20
1.68041
11
1.03162
21
1.68687
0
LINE
8
BLACK
6
CONTINUOUS
10
1.06
20
1.67957
11
1.06031
21
1.67969
0
LINE
8
BLACK
6
CONTINUOUS
10
1.06031
20
1.67969
11
1.06043
21
1.68
0
LINE
8
BLACK
6
CONTINUOUS
10
1.06043
20
1.68
11
1.06031
21
1.68031
0
LINE
8
BLACK
6
CONTINUOUS
10
1.06031
20
1.68031
11
1.06
21
1.68043
0
LINE
8
BLACK
6
CONTINUOUS
10
1.06
20
1.68043
11
1.05969
21
1.68031
0
LINE
8
BLACK
6
CONTINUOUS
10
1.05969
20
1.68031
11
1.05957
21
1.68
0
LINE
8
BLACK
6
CONTINUOUS
10
1.05957
20
1.68
11
1.05969
21
1.67969
0
LINE
8
BLACK
6
CONTINUOUS
10
1.05969
20
1.67969
11
1.06
21
1.67957
  0
ENDSEC
  0
EOF
