  0
SECTION
  2
HEADER
  9
$ANGBASE
  50
0.0
  9
$ANGDIR
  70
1
  9
$MEASUREMENT
  70
0
  0
ENDSEC
  0
SECTION
  2
TABLES
  0
TABLE
  2
LTYPE
  70
4
  0
LTYPE
  5
40F
  2
CONTINUOUS
  70
0
  3
Solid line
  72
65
  73
0
  40
0.0
  0
LTYPE
  5
410
  2
DASHDOT
 70
0
  3
Dash Dot ____ _ ____ _
 72
65
 73
4
 40
2.0
 49
1.25
 49
-0.25
 49
0.25
 49
-0.25
  0
LTYPE
  5
411
  2
DASHED
 70
0
  3
Dashed __ __ __ __ __
 72
65
 73
2
 40
0.75
 49
0.5
 49
-0.25
  0
LTYPE
  5
43B
  2
DOTTED
 70
0
  3
Dotted .  .  .  .
 72
65
 73
2
 40
0.2
 49
0.0
 49
-0.2
  0
ENDTAB
  0
TABLE
  2
STYLE
  70
4
  0
STYLE
  2
KICAD
  70
0
  40
0
  41
1
  42
1
  50
0
  71
0
  3
isocp.shx
  0
STYLE
  2
KICADB
  70
0
  40
0
  41
1
  42
1
  50
0
  71
0
  3
isocp.shx
  0
STYLE
  2
KICADI
  70
0
  40
0
  41
1
  42
1
  50
15
  71
0
  3
isocp.shx
  0
STYLE
  2
KICADBI
  70
0
  40
0
  41
1
  42
1
  50
15
  71
0
  3
isocp.shx
  0
ENDTAB
  0
TABLE
  2
LAYER
  70
1
  0
LAYER
  2
BLACK
  70
0
  62
7
  6
CONTINUOUS
  0
ENDTAB
  0
ENDSEC
  0
SECTION
  2
ENTITIES
0
LINE
8
BLACK
6
CONTINUOUS
10
1.85167
20
1.27104
11
1.85138
21
1.27173
0
LINE
8
BLACK
6
CONTINUOUS
10
1.85138
20
1.27173
11
1.85138
21
1.48827
0
LINE
8
BLACK
6
CONTINUOUS
10
1.85138
20
1.48827
11
1.85167
21
1.48896
0
LINE
8
BLACK
6
CONTINUOUS
10
1.85167
20
1.48896
11
1.85236
21
1.48925
0
LINE
8
BLACK
6
CONTINUOUS
10
1.85236
20
1.48925
11
2.14764
21
1.48925
0
LINE
8
BLACK
6
CONTINUOUS
10
2.14764
20
1.48925
11
2.14833
21
1.48896
0
LINE
8
BLACK
6
CONTINUOUS
10
2.14833
20
1.48896
11
2.14862
21
1.48827
0
LINE
8
BLACK
6
CONTINUOUS
10
2.14862
20
1.48827
11
2.14862
21
1.27173
0
LINE
8
BLACK
6
CONTINUOUS
10
2.14862
20
1.27173
11
2.14833
21
1.27104
0
LINE
8
BLACK
6
CONTINUOUS
10
2.14833
20
1.27104
11
2.14764
21
1.27075
0
LINE
8
BLACK
6
CONTINUOUS
10
2.14764
20
1.27075
11
1.85236
21
1.27075
0
LINE
8
BLACK
6
CONTINUOUS
10
1.85236
20
1.27075
11
1.85167
21
1.27104
0
LINE
8
BLACK
6
CONTINUOUS
10
1.85335
20
1.48728
11
1.85335
21
1.27272
0
LINE
8
BLACK
6
CONTINUOUS
10
1.85335
20
1.27272
11
2.14665
21
1.27272
0
LINE
8
BLACK
6
CONTINUOUS
10
2.14665
20
1.27272
11
2.14665
21
1.48728
0
LINE
8
BLACK
6
CONTINUOUS
10
2.14665
20
1.48728
11
1.85335
21
1.48728
0
LINE
8
BLACK
6
CONTINUOUS
10
0.581666
20
1.29104
11
0.581378
21
1.29173
0
LINE
8
BLACK
6
CONTINUOUS
10
0.581378
20
1.29173
11
0.581378
21
1.50827
0
LINE
8
BLACK
6
CONTINUOUS
10
0.581378
20
1.50827
11
0.581666
21
1.50896
0
LINE
8
BLACK
6
CONTINUOUS
10
0.581666
20
1.50896
11
0.582362
21
1.50925
0
LINE
8
BLACK
6
CONTINUOUS
10
0.582362
20
1.50925
11
0.877638
21
1.50925
0
LINE
8
BLACK
6
CONTINUOUS
10
0.877638
20
1.50925
11
0.878334
21
1.50896
0
LINE
8
BLACK
6
CONTINUOUS
10
0.878334
20
1.50896
11
0.878622
21
1.50827
0
LINE
8
BLACK
6
CONTINUOUS
10
0.878622
20
1.50827
11
0.878622
21
1.29173
0
LINE
8
BLACK
6
CONTINUOUS
10
0.878622
20
1.29173
11
0.878334
21
1.29104
0
LINE
8
BLACK
6
CONTINUOUS
10
0.878334
20
1.29104
11
0.877638
21
1.29075
0
LINE
8
BLACK
6
CONTINUOUS
10
0.877638
20
1.29075
11
0.582362
21
1.29075
0
LINE
8
BLACK
6
CONTINUOUS
10
0.582362
20
1.29075
11
0.581666
21
1.29104
0
LINE
8
BLACK
6
CONTINUOUS
10
0.583346
20
1.50728
11
0.583346
21
1.29272
0
LINE
8
BLACK
6
CONTINUOUS
10
0.583346
20
1.29272
11
0.876654
21
1.29272
0
LINE
8
BLACK
6
CONTINUOUS
10
0.876654
20
1.29272
11
0.876654
21
1.50728
0
LINE
8
BLACK
6
CONTINUOUS
10
0.876654
20
1.50728
11
0.583346
21
1.50728
  0
ENDSEC
  0
EOF
