  0
SECTION
  2
HEADER
  9
$ANGBASE
  50
0.0
  9
$ANGDIR
  70
1
  9
$MEASUREMENT
  70
0
  0
ENDSEC
  0
SECTION
  2
TABLES
  0
TABLE
  2
LTYPE
  70
4
  0
LTYPE
  5
40F
  2
CONTINUOUS
  70
0
  3
Solid line
  72
65
  73
0
  40
0.0
  0
LTYPE
  5
410
  2
DASHDOT
 70
0
  3
Dash Dot ____ _ ____ _
 72
65
 73
4
 40
2.0
 49
1.25
 49
-0.25
 49
0.25
 49
-0.25
  0
LTYPE
  5
411
  2
DASHED
 70
0
  3
Dashed __ __ __ __ __
 72
65
 73
2
 40
0.75
 49
0.5
 49
-0.25
  0
LTYPE
  5
43B
  2
DOTTED
 70
0
  3
Dotted .  .  .  .
 72
65
 73
2
 40
0.2
 49
0.0
 49
-0.2
  0
ENDTAB
  0
TABLE
  2
STYLE
  70
4
  0
STYLE
  2
KICAD
  70
0
  40
0
  41
1
  42
1
  50
0
  71
0
  3
isocp.shx
  0
STYLE
  2
KICADB
  70
0
  40
0
  41
1
  42
1
  50
0
  71
0
  3
isocp.shx
  0
STYLE
  2
KICADI
  70
0
  40
0
  41
1
  42
1
  50
15
  71
0
  3
isocp.shx
  0
STYLE
  2
KICADBI
  70
0
  40
0
  41
1
  42
1
  50
15
  71
0
  3
isocp.shx
  0
ENDTAB
  0
TABLE
  2
LAYER
  70
1
  0
LAYER
  2
BLACK
  70
0
  62
7
  6
CONTINUOUS
  0
ENDTAB
  0
ENDSEC
  0
SECTION
  2
ENTITIES
0
LINE
8
BLACK
6
CONTINUOUS
10
2.19038
20
1.39289
11
2.19051
21
1.39291
0
LINE
8
BLACK
6
CONTINUOUS
10
2.19051
20
1.39291
11
2.19063
21
1.39284
0
LINE
8
BLACK
6
CONTINUOUS
10
2.19063
20
1.39284
11
2.19101
21
1.39277
0
LINE
8
BLACK
6
CONTINUOUS
10
2.19101
20
1.39277
11
2.1916
21
1.39228
0
LINE
8
BLACK
6
CONTINUOUS
10
2.1916
20
1.39228
11
2.19226
21
1.3919
0
LINE
8
BLACK
6
CONTINUOUS
10
2.19226
20
1.3919
11
2.19235
21
1.39165
0
LINE
8
BLACK
6
CONTINUOUS
10
2.19235
20
1.39165
11
2.19256
21
1.39148
0
LINE
8
BLACK
6
CONTINUOUS
10
2.19256
20
1.39148
11
2.19269
21
1.39072
0
LINE
8
BLACK
6
CONTINUOUS
10
2.19269
20
1.39072
11
2.19295
21
1.39
0
LINE
8
BLACK
6
CONTINUOUS
10
2.19295
20
1.39
11
2.19295
21
-0.19
0
LINE
8
BLACK
6
CONTINUOUS
10
2.19295
20
-0.19
11
2.19289
21
-0.190384
0
LINE
8
BLACK
6
CONTINUOUS
10
2.19289
20
-0.190384
11
2.19291
21
-0.190513
0
LINE
8
BLACK
6
CONTINUOUS
10
2.19291
20
-0.190513
11
2.19284
21
-0.190626
0
LINE
8
BLACK
6
CONTINUOUS
10
2.19284
20
-0.190626
11
2.19277
21
-0.19101
0
LINE
8
BLACK
6
CONTINUOUS
10
2.19277
20
-0.19101
11
2.19228
21
-0.191598
0
LINE
8
BLACK
6
CONTINUOUS
10
2.19228
20
-0.191598
11
2.1919
21
-0.192262
0
LINE
8
BLACK
6
CONTINUOUS
10
2.1919
20
-0.192262
11
2.19165
21
-0.192353
0
LINE
8
BLACK
6
CONTINUOUS
10
2.19165
20
-0.192353
11
2.19148
21
-0.192557
0
LINE
8
BLACK
6
CONTINUOUS
10
2.19148
20
-0.192557
11
2.19072
21
-0.19269
0
LINE
8
BLACK
6
CONTINUOUS
10
2.19072
20
-0.19269
11
2.19
21
-0.192953
0
LINE
8
BLACK
6
CONTINUOUS
10
2.19
20
-0.192953
11
-0.19
21
-0.192953
0
LINE
8
BLACK
6
CONTINUOUS
10
-0.19
20
-0.192953
11
-0.190384
21
-0.192885
0
LINE
8
BLACK
6
CONTINUOUS
10
-0.190384
20
-0.192885
11
-0.190513
21
-0.192908
0
LINE
8
BLACK
6
CONTINUOUS
10
-0.190513
20
-0.192908
11
-0.190626
21
-0.192842
0
LINE
8
BLACK
6
CONTINUOUS
10
-0.190626
20
-0.192842
11
-0.19101
21
-0.192775
0
LINE
8
BLACK
6
CONTINUOUS
10
-0.19101
20
-0.192775
11
-0.191598
21
-0.192282
0
LINE
8
BLACK
6
CONTINUOUS
10
-0.191598
20
-0.192282
11
-0.192262
21
-0.191898
0
LINE
8
BLACK
6
CONTINUOUS
10
-0.192262
20
-0.191898
11
-0.192353
21
-0.191648
0
LINE
8
BLACK
6
CONTINUOUS
10
-0.192353
20
-0.191648
11
-0.192557
21
-0.191476
0
LINE
8
BLACK
6
CONTINUOUS
10
-0.192557
20
-0.191476
11
-0.19269
21
-0.190721
0
LINE
8
BLACK
6
CONTINUOUS
10
-0.19269
20
-0.190721
11
-0.192953
21
-0.19
0
LINE
8
BLACK
6
CONTINUOUS
10
-0.192953
20
-0.19
11
-0.192953
21
1.39
0
LINE
8
BLACK
6
CONTINUOUS
10
-0.192953
20
1.39
11
-0.192885
21
1.39038
0
LINE
8
BLACK
6
CONTINUOUS
10
-0.192885
20
1.39038
11
-0.192908
21
1.39051
0
LINE
8
BLACK
6
CONTINUOUS
10
-0.192908
20
1.39051
11
-0.192842
21
1.39063
0
LINE
8
BLACK
6
CONTINUOUS
10
-0.192842
20
1.39063
11
-0.192775
21
1.39101
0
LINE
8
BLACK
6
CONTINUOUS
10
-0.192775
20
1.39101
11
-0.192282
21
1.3916
0
LINE
8
BLACK
6
CONTINUOUS
10
-0.192282
20
1.3916
11
-0.191898
21
1.39226
0
LINE
8
BLACK
6
CONTINUOUS
10
-0.191898
20
1.39226
11
-0.191648
21
1.39235
0
LINE
8
BLACK
6
CONTINUOUS
10
-0.191648
20
1.39235
11
-0.191476
21
1.39256
0
LINE
8
BLACK
6
CONTINUOUS
10
-0.191476
20
1.39256
11
-0.190721
21
1.39269
0
LINE
8
BLACK
6
CONTINUOUS
10
-0.190721
20
1.39269
11
-0.19
21
1.39295
0
LINE
8
BLACK
6
CONTINUOUS
10
-0.19
20
1.39295
11
2.19
21
1.39295
0
LINE
8
BLACK
6
CONTINUOUS
10
2.19
20
1.39295
11
2.19038
21
1.39289
0
LINE
8
BLACK
6
CONTINUOUS
10
-0.187047
20
1.38705
11
-0.187047
21
-0.187047
0
LINE
8
BLACK
6
CONTINUOUS
10
-0.187047
20
-0.187047
11
2.18705
21
-0.187047
0
LINE
8
BLACK
6
CONTINUOUS
10
2.18705
20
-0.187047
11
2.18705
21
1.38705
0
LINE
8
BLACK
6
CONTINUOUS
10
2.18705
20
1.38705
11
-0.187047
21
1.38705
  0
ENDSEC
  0
EOF
