  0
SECTION
  2
HEADER
  9
$ANGBASE
  50
0.0
  9
$ANGDIR
  70
1
  9
$MEASUREMENT
  70
0
  0
ENDSEC
  0
SECTION
  2
TABLES
  0
TABLE
  2
LTYPE
  70
4
  0
LTYPE
  5
40F
  2
CONTINUOUS
  70
0
  3
Solid line
  72
65
  73
0
  40
0.0
  0
LTYPE
  5
410
  2
DASHDOT
 70
0
  3
Dash Dot ____ _ ____ _
 72
65
 73
4
 40
2.0
 49
1.25
 49
-0.25
 49
0.25
 49
-0.25
  0
LTYPE
  5
411
  2
DASHED
 70
0
  3
Dashed __ __ __ __ __
 72
65
 73
2
 40
0.75
 49
0.5
 49
-0.25
  0
LTYPE
  5
43B
  2
DOTTED
 70
0
  3
Dotted .  .  .  .
 72
65
 73
2
 40
0.2
 49
0.0
 49
-0.2
  0
ENDTAB
  0
TABLE
  2
STYLE
  70
4
  0
STYLE
  2
KICAD
  70
0
  40
0
  41
1
  42
1
  50
0
  71
0
  3
isocp.shx
  0
STYLE
  2
KICADB
  70
0
  40
0
  41
1
  42
1
  50
0
  71
0
  3
isocp.shx
  0
STYLE
  2
KICADI
  70
0
  40
0
  41
1
  42
1
  50
15
  71
0
  3
isocp.shx
  0
STYLE
  2
KICADBI
  70
0
  40
0
  41
1
  42
1
  50
15
  71
0
  3
isocp.shx
  0
ENDTAB
  0
TABLE
  2
LAYER
  70
1
  0
LAYER
  2
BLACK
  70
0
  62
7
  6
CONTINUOUS
  0
ENDTAB
  0
ENDSEC
  0
SECTION
  2
ENTITIES
0
LINE
8
BLACK
6
CONTINUOUS
10
1.39498
20
1.15601
11
1.3952
21
1.15605
0
LINE
8
BLACK
6
CONTINUOUS
10
1.3952
20
1.15605
11
1.3959
21
1.15564
0
LINE
8
BLACK
6
CONTINUOUS
10
1.3959
20
1.15564
11
1.39665
21
1.15535
0
LINE
8
BLACK
6
CONTINUOUS
10
1.39665
20
1.15535
11
1.39675
21
1.15515
0
LINE
8
BLACK
6
CONTINUOUS
10
1.39675
20
1.15515
11
1.39695
21
1.15504
0
LINE
8
BLACK
6
CONTINUOUS
10
1.39695
20
1.15504
11
1.39722
21
1.15428
0
LINE
8
BLACK
6
CONTINUOUS
10
1.39722
20
1.15428
11
1.39761
21
1.15357
0
LINE
8
BLACK
6
CONTINUOUS
10
1.39761
20
1.15357
11
1.39756
21
1.15335
0
LINE
8
BLACK
6
CONTINUOUS
10
1.39756
20
1.15335
11
1.39764
21
1.15314
0
LINE
8
BLACK
6
CONTINUOUS
10
1.39764
20
1.15314
11
1.39764
21
1.13734
0
LINE
8
BLACK
6
CONTINUOUS
10
1.39764
20
1.13734
11
1.40781
21
1.13734
0
LINE
8
BLACK
6
CONTINUOUS
10
1.40781
20
1.13734
11
1.40882
21
1.13717
0
LINE
8
BLACK
6
CONTINUOUS
10
1.40882
20
1.13717
11
1.41037
21
1.13587
0
LINE
8
BLACK
6
CONTINUOUS
10
1.41037
20
1.13587
11
1.41072
21
1.13388
0
LINE
8
BLACK
6
CONTINUOUS
10
1.41072
20
1.13388
11
1.40971
21
1.13213
0
LINE
8
BLACK
6
CONTINUOUS
10
1.40971
20
1.13213
11
1.40781
21
1.13144
0
LINE
8
BLACK
6
CONTINUOUS
10
1.40781
20
1.13144
11
1.39764
21
1.13144
0
LINE
8
BLACK
6
CONTINUOUS
10
1.39764
20
1.13144
11
1.39764
21
1.12877
0
LINE
8
BLACK
6
CONTINUOUS
10
1.39764
20
1.12877
11
1.39746
21
1.12776
0
LINE
8
BLACK
6
CONTINUOUS
10
1.39746
20
1.12776
11
1.39616
21
1.12621
0
LINE
8
BLACK
6
CONTINUOUS
10
1.39616
20
1.12621
11
1.39417
21
1.12586
0
LINE
8
BLACK
6
CONTINUOUS
10
1.39417
20
1.12586
11
1.39242
21
1.12687
0
LINE
8
BLACK
6
CONTINUOUS
10
1.39242
20
1.12687
11
1.39173
21
1.12877
0
LINE
8
BLACK
6
CONTINUOUS
10
1.39173
20
1.12877
11
1.39173
21
1.13144
0
LINE
8
BLACK
6
CONTINUOUS
10
1.39173
20
1.13144
11
1.38156
21
1.13144
0
LINE
8
BLACK
6
CONTINUOUS
10
1.38156
20
1.13144
11
1.38055
21
1.13162
0
LINE
8
BLACK
6
CONTINUOUS
10
1.38055
20
1.13162
11
1.37901
21
1.13291
0
LINE
8
BLACK
6
CONTINUOUS
10
1.37901
20
1.13291
11
1.37866
21
1.1349
0
LINE
8
BLACK
6
CONTINUOUS
10
1.37866
20
1.1349
11
1.37967
21
1.13665
0
LINE
8
BLACK
6
CONTINUOUS
10
1.37967
20
1.13665
11
1.38156
21
1.13734
0
LINE
8
BLACK
6
CONTINUOUS
10
1.38156
20
1.13734
11
1.39173
21
1.13734
0
LINE
8
BLACK
6
CONTINUOUS
10
1.39173
20
1.13734
11
1.39173
21
1.14904
0
LINE
8
BLACK
6
CONTINUOUS
10
1.39173
20
1.14904
11
1.3675
21
1.14096
0
LINE
8
BLACK
6
CONTINUOUS
10
1.3675
20
1.14096
11
1.36648
21
1.14081
0
LINE
8
BLACK
6
CONTINUOUS
10
1.36648
20
1.14081
11
1.36461
21
1.14156
0
LINE
8
BLACK
6
CONTINUOUS
10
1.36461
20
1.14156
11
1.36364
21
1.14333
0
LINE
8
BLACK
6
CONTINUOUS
10
1.36364
20
1.14333
11
1.36405
21
1.14531
0
LINE
8
BLACK
6
CONTINUOUS
10
1.36405
20
1.14531
11
1.36563
21
1.14657
0
LINE
8
BLACK
6
CONTINUOUS
10
1.36563
20
1.14657
11
1.39375
21
1.15594
0
LINE
8
BLACK
6
CONTINUOUS
10
1.39375
20
1.15594
11
1.39477
21
1.15609
0
LINE
8
BLACK
6
CONTINUOUS
10
1.39477
20
1.15609
11
1.39498
21
1.15601
0
LINE
8
BLACK
6
CONTINUOUS
10
1.40844
20
1.19535
11
1.40857
21
1.19536
0
LINE
8
BLACK
6
CONTINUOUS
10
1.40857
20
1.19536
11
1.4093
21
1.19485
0
LINE
8
BLACK
6
CONTINUOUS
10
1.4093
20
1.19485
11
1.41007
21
1.19441
0
LINE
8
BLACK
6
CONTINUOUS
10
1.41007
20
1.19441
11
1.41012
21
1.19428
0
LINE
8
BLACK
6
CONTINUOUS
10
1.41012
20
1.19428
11
1.41023
21
1.1942
0
LINE
8
BLACK
6
CONTINUOUS
10
1.41023
20
1.1942
11
1.41046
21
1.19334
0
LINE
8
BLACK
6
CONTINUOUS
10
1.41046
20
1.19334
11
1.41076
21
1.19251
0
LINE
8
BLACK
6
CONTINUOUS
10
1.41076
20
1.19251
11
1.41076
21
1.16814
0
LINE
8
BLACK
6
CONTINUOUS
10
1.41076
20
1.16814
11
1.41058
21
1.16713
0
LINE
8
BLACK
6
CONTINUOUS
10
1.41058
20
1.16713
11
1.40929
21
1.16558
0
LINE
8
BLACK
6
CONTINUOUS
10
1.40929
20
1.16558
11
1.4073
21
1.16523
0
LINE
8
BLACK
6
CONTINUOUS
10
1.4073
20
1.16523
11
1.40555
21
1.16624
0
LINE
8
BLACK
6
CONTINUOUS
10
1.40555
20
1.16624
11
1.40486
21
1.16814
0
LINE
8
BLACK
6
CONTINUOUS
10
1.40486
20
1.16814
11
1.40486
21
1.18538
0
LINE
8
BLACK
6
CONTINUOUS
10
1.40486
20
1.18538
11
1.3874
21
1.16792
0
LINE
8
BLACK
6
CONTINUOUS
10
1.3874
20
1.16792
11
1.38656
21
1.16734
0
LINE
8
BLACK
6
CONTINUOUS
10
1.38656
20
1.16734
11
1.38639
21
1.16732
0
LINE
8
BLACK
6
CONTINUOUS
10
1.38639
20
1.16732
11
1.38625
21
1.16721
0
LINE
8
BLACK
6
CONTINUOUS
10
1.38625
20
1.16721
11
1.38062
21
1.16534
0
LINE
8
BLACK
6
CONTINUOUS
10
1.38062
20
1.16534
11
1.37975
21
1.16521
0
LINE
8
BLACK
6
CONTINUOUS
10
1.37975
20
1.16521
11
1.37969
21
1.16518
0
LINE
8
BLACK
6
CONTINUOUS
10
1.37969
20
1.16518
11
1.37594
21
1.16518
0
LINE
8
BLACK
6
CONTINUOUS
10
1.37594
20
1.16518
11
1.37493
21
1.16536
0
LINE
8
BLACK
6
CONTINUOUS
10
1.37493
20
1.16536
11
1.37479
21
1.16548
0
LINE
8
BLACK
6
CONTINUOUS
10
1.37479
20
1.16548
11
1.37462
21
1.1655
0
LINE
8
BLACK
6
CONTINUOUS
10
1.37462
20
1.1655
11
1.37087
21
1.16737
0
LINE
8
BLACK
6
CONTINUOUS
10
1.37087
20
1.16737
11
1.37016
21
1.1679
0
LINE
8
BLACK
6
CONTINUOUS
10
1.37016
20
1.1679
11
1.3701
21
1.16792
0
LINE
8
BLACK
6
CONTINUOUS
10
1.3701
20
1.16792
11
1.36823
21
1.1698
0
LINE
8
BLACK
6
CONTINUOUS
10
1.36823
20
1.1698
11
1.36772
21
1.17052
0
LINE
8
BLACK
6
CONTINUOUS
10
1.36772
20
1.17052
11
1.36767
21
1.17057
0
LINE
8
BLACK
6
CONTINUOUS
10
1.36767
20
1.17057
11
1.3658
21
1.17431
0
LINE
8
BLACK
6
CONTINUOUS
10
1.3658
20
1.17431
11
1.36551
21
1.1753
0
LINE
8
BLACK
6
CONTINUOUS
10
1.36551
20
1.1753
11
1.36555
21
1.17547
0
LINE
8
BLACK
6
CONTINUOUS
10
1.36555
20
1.17547
11
1.36549
21
1.17564
0
LINE
8
BLACK
6
CONTINUOUS
10
1.36549
20
1.17564
11
1.36549
21
1.18501
0
LINE
8
BLACK
6
CONTINUOUS
10
1.36549
20
1.18501
11
1.36567
21
1.18602
0
LINE
8
BLACK
6
CONTINUOUS
10
1.36567
20
1.18602
11
1.36578
21
1.18615
0
LINE
8
BLACK
6
CONTINUOUS
10
1.36578
20
1.18615
11
1.3658
21
1.18633
0
LINE
8
BLACK
6
CONTINUOUS
10
1.3658
20
1.18633
11
1.36767
21
1.19008
0
LINE
8
BLACK
6
CONTINUOUS
10
1.36767
20
1.19008
11
1.3682
21
1.19079
0
LINE
8
BLACK
6
CONTINUOUS
10
1.3682
20
1.19079
11
1.36823
21
1.19085
0
LINE
8
BLACK
6
CONTINUOUS
10
1.36823
20
1.19085
11
1.3701
21
1.19272
0
LINE
8
BLACK
6
CONTINUOUS
10
1.3701
20
1.19272
11
1.37094
21
1.19331
0
LINE
8
BLACK
6
CONTINUOUS
10
1.37094
20
1.19331
11
1.37295
21
1.19349
0
LINE
8
BLACK
6
CONTINUOUS
10
1.37295
20
1.19349
11
1.37461
21
1.19233
0
LINE
8
BLACK
6
CONTINUOUS
10
1.37461
20
1.19233
11
1.37513
21
1.19038
0
LINE
8
BLACK
6
CONTINUOUS
10
1.37513
20
1.19038
11
1.37428
21
1.18855
0
LINE
8
BLACK
6
CONTINUOUS
10
1.37428
20
1.18855
11
1.37274
21
1.18701
0
LINE
8
BLACK
6
CONTINUOUS
10
1.37274
20
1.18701
11
1.37139
21
1.18431
0
LINE
8
BLACK
6
CONTINUOUS
10
1.37139
20
1.18431
11
1.37139
21
1.17633
0
LINE
8
BLACK
6
CONTINUOUS
10
1.37139
20
1.17633
11
1.37274
21
1.17364
0
LINE
8
BLACK
6
CONTINUOUS
10
1.37274
20
1.17364
11
1.37394
21
1.17244
0
LINE
8
BLACK
6
CONTINUOUS
10
1.37394
20
1.17244
11
1.37664
21
1.17109
0
LINE
8
BLACK
6
CONTINUOUS
10
1.37664
20
1.17109
11
1.37921
21
1.17109
0
LINE
8
BLACK
6
CONTINUOUS
10
1.37921
20
1.17109
11
1.38372
21
1.17259
0
LINE
8
BLACK
6
CONTINUOUS
10
1.38372
20
1.17259
11
1.40572
21
1.1946
0
LINE
8
BLACK
6
CONTINUOUS
10
1.40572
20
1.1946
11
1.40625
21
1.19497
0
LINE
8
BLACK
6
CONTINUOUS
10
1.40625
20
1.19497
11
1.40633
21
1.19507
0
LINE
8
BLACK
6
CONTINUOUS
10
1.40633
20
1.19507
11
1.40641
21
1.19508
0
LINE
8
BLACK
6
CONTINUOUS
10
1.40641
20
1.19508
11
1.40656
21
1.19518
0
LINE
8
BLACK
6
CONTINUOUS
10
1.40656
20
1.19518
11
1.40745
21
1.19526
0
LINE
8
BLACK
6
CONTINUOUS
10
1.40745
20
1.19526
11
1.40832
21
1.19542
0
LINE
8
BLACK
6
CONTINUOUS
10
1.40832
20
1.19542
11
1.40844
21
1.19535
0
LINE
8
BLACK
6
CONTINUOUS
10
1.39498
20
1.231
11
1.3952
21
1.23104
0
LINE
8
BLACK
6
CONTINUOUS
10
1.3952
20
1.23104
11
1.3959
21
1.23063
0
LINE
8
BLACK
6
CONTINUOUS
10
1.3959
20
1.23063
11
1.39665
21
1.23034
0
LINE
8
BLACK
6
CONTINUOUS
10
1.39665
20
1.23034
11
1.39675
21
1.23014
0
LINE
8
BLACK
6
CONTINUOUS
10
1.39675
20
1.23014
11
1.39695
21
1.23003
0
LINE
8
BLACK
6
CONTINUOUS
10
1.39695
20
1.23003
11
1.39722
21
1.22927
0
LINE
8
BLACK
6
CONTINUOUS
10
1.39722
20
1.22927
11
1.39761
21
1.22856
0
LINE
8
BLACK
6
CONTINUOUS
10
1.39761
20
1.22856
11
1.39756
21
1.22834
0
LINE
8
BLACK
6
CONTINUOUS
10
1.39756
20
1.22834
11
1.39764
21
1.22813
0
LINE
8
BLACK
6
CONTINUOUS
10
1.39764
20
1.22813
11
1.39764
21
1.21233
0
LINE
8
BLACK
6
CONTINUOUS
10
1.39764
20
1.21233
11
1.40781
21
1.21233
0
LINE
8
BLACK
6
CONTINUOUS
10
1.40781
20
1.21233
11
1.40882
21
1.21216
0
LINE
8
BLACK
6
CONTINUOUS
10
1.40882
20
1.21216
11
1.41037
21
1.21086
0
LINE
8
BLACK
6
CONTINUOUS
10
1.41037
20
1.21086
11
1.41072
21
1.20887
0
LINE
8
BLACK
6
CONTINUOUS
10
1.41072
20
1.20887
11
1.40971
21
1.20712
0
LINE
8
BLACK
6
CONTINUOUS
10
1.40971
20
1.20712
11
1.40781
21
1.20643
0
LINE
8
BLACK
6
CONTINUOUS
10
1.40781
20
1.20643
11
1.39764
21
1.20643
0
LINE
8
BLACK
6
CONTINUOUS
10
1.39764
20
1.20643
11
1.39764
21
1.20376
0
LINE
8
BLACK
6
CONTINUOUS
10
1.39764
20
1.20376
11
1.39746
21
1.20275
0
LINE
8
BLACK
6
CONTINUOUS
10
1.39746
20
1.20275
11
1.39616
21
1.2012
0
LINE
8
BLACK
6
CONTINUOUS
10
1.39616
20
1.2012
11
1.39417
21
1.20085
0
LINE
8
BLACK
6
CONTINUOUS
10
1.39417
20
1.20085
11
1.39242
21
1.20186
0
LINE
8
BLACK
6
CONTINUOUS
10
1.39242
20
1.20186
11
1.39173
21
1.20376
0
LINE
8
BLACK
6
CONTINUOUS
10
1.39173
20
1.20376
11
1.39173
21
1.20643
0
LINE
8
BLACK
6
CONTINUOUS
10
1.39173
20
1.20643
11
1.38156
21
1.20643
0
LINE
8
BLACK
6
CONTINUOUS
10
1.38156
20
1.20643
11
1.38055
21
1.20661
0
LINE
8
BLACK
6
CONTINUOUS
10
1.38055
20
1.20661
11
1.37901
21
1.2079
0
LINE
8
BLACK
6
CONTINUOUS
10
1.37901
20
1.2079
11
1.37866
21
1.20989
0
LINE
8
BLACK
6
CONTINUOUS
10
1.37866
20
1.20989
11
1.37967
21
1.21164
0
LINE
8
BLACK
6
CONTINUOUS
10
1.37967
20
1.21164
11
1.38156
21
1.21233
0
LINE
8
BLACK
6
CONTINUOUS
10
1.38156
20
1.21233
11
1.39173
21
1.21233
0
LINE
8
BLACK
6
CONTINUOUS
10
1.39173
20
1.21233
11
1.39173
21
1.22403
0
LINE
8
BLACK
6
CONTINUOUS
10
1.39173
20
1.22403
11
1.3675
21
1.21595
0
LINE
8
BLACK
6
CONTINUOUS
10
1.3675
20
1.21595
11
1.36648
21
1.2158
0
LINE
8
BLACK
6
CONTINUOUS
10
1.36648
20
1.2158
11
1.36461
21
1.21655
0
LINE
8
BLACK
6
CONTINUOUS
10
1.36461
20
1.21655
11
1.36364
21
1.21832
0
LINE
8
BLACK
6
CONTINUOUS
10
1.36364
20
1.21832
11
1.36405
21
1.2203
0
LINE
8
BLACK
6
CONTINUOUS
10
1.36405
20
1.2203
11
1.36563
21
1.22156
0
LINE
8
BLACK
6
CONTINUOUS
10
1.36563
20
1.22156
11
1.39375
21
1.23093
0
LINE
8
BLACK
6
CONTINUOUS
10
1.39375
20
1.23093
11
1.39477
21
1.23108
0
LINE
8
BLACK
6
CONTINUOUS
10
1.39477
20
1.23108
11
1.39498
21
1.231
0
LINE
8
BLACK
6
CONTINUOUS
10
1.40615
20
1.26959
11
1.40802
21
1.26771
0
LINE
8
BLACK
6
CONTINUOUS
10
1.40802
20
1.26771
11
1.40853
21
1.26699
0
LINE
8
BLACK
6
CONTINUOUS
10
1.40853
20
1.26699
11
1.40858
21
1.26694
0
LINE
8
BLACK
6
CONTINUOUS
10
1.40858
20
1.26694
11
1.41045
21
1.2632
0
LINE
8
BLACK
6
CONTINUOUS
10
1.41045
20
1.2632
11
1.41074
21
1.26221
0
LINE
8
BLACK
6
CONTINUOUS
10
1.41074
20
1.26221
11
1.4107
21
1.26204
0
LINE
8
BLACK
6
CONTINUOUS
10
1.4107
20
1.26204
11
1.41076
21
1.26187
0
LINE
8
BLACK
6
CONTINUOUS
10
1.41076
20
1.26187
11
1.41076
21
1.25063
0
LINE
8
BLACK
6
CONTINUOUS
10
1.41076
20
1.25063
11
1.41058
21
1.24962
0
LINE
8
BLACK
6
CONTINUOUS
10
1.41058
20
1.24962
11
1.41047
21
1.24948
0
LINE
8
BLACK
6
CONTINUOUS
10
1.41047
20
1.24948
11
1.41045
21
1.24931
0
LINE
8
BLACK
6
CONTINUOUS
10
1.41045
20
1.24931
11
1.40858
21
1.24556
0
LINE
8
BLACK
6
CONTINUOUS
10
1.40858
20
1.24556
11
1.40805
21
1.24485
0
LINE
8
BLACK
6
CONTINUOUS
10
1.40805
20
1.24485
11
1.40802
21
1.24479
0
LINE
8
BLACK
6
CONTINUOUS
10
1.40802
20
1.24479
11
1.40615
21
1.24291
0
LINE
8
BLACK
6
CONTINUOUS
10
1.40615
20
1.24291
11
1.40543
21
1.24241
0
LINE
8
BLACK
6
CONTINUOUS
10
1.40543
20
1.24241
11
1.40538
21
1.24236
0
LINE
8
BLACK
6
CONTINUOUS
10
1.40538
20
1.24236
11
1.40163
21
1.24049
0
LINE
8
BLACK
6
CONTINUOUS
10
1.40163
20
1.24049
11
1.40065
21
1.24019
0
LINE
8
BLACK
6
CONTINUOUS
10
1.40065
20
1.24019
11
1.40048
21
1.24023
0
LINE
8
BLACK
6
CONTINUOUS
10
1.40048
20
1.24023
11
1.40031
21
1.24017
0
LINE
8
BLACK
6
CONTINUOUS
10
1.40031
20
1.24017
11
1.39094
21
1.24017
0
LINE
8
BLACK
6
CONTINUOUS
10
1.39094
20
1.24017
11
1.38993
21
1.24035
0
LINE
8
BLACK
6
CONTINUOUS
10
1.38993
20
1.24035
11
1.38979
21
1.24047
0
LINE
8
BLACK
6
CONTINUOUS
10
1.38979
20
1.24047
11
1.38962
21
1.24049
0
LINE
8
BLACK
6
CONTINUOUS
10
1.38962
20
1.24049
11
1.38587
21
1.24236
0
LINE
8
BLACK
6
CONTINUOUS
10
1.38587
20
1.24236
11
1.38516
21
1.24289
0
LINE
8
BLACK
6
CONTINUOUS
10
1.38516
20
1.24289
11
1.3851
21
1.24291
0
LINE
8
BLACK
6
CONTINUOUS
10
1.3851
20
1.24291
11
1.38323
21
1.24479
0
LINE
8
BLACK
6
CONTINUOUS
10
1.38323
20
1.24479
11
1.38272
21
1.24551
0
LINE
8
BLACK
6
CONTINUOUS
10
1.38272
20
1.24551
11
1.38267
21
1.24556
0
LINE
8
BLACK
6
CONTINUOUS
10
1.38267
20
1.24556
11
1.3808
21
1.24931
0
LINE
8
BLACK
6
CONTINUOUS
10
1.3808
20
1.24931
11
1.38063
21
1.24987
0
LINE
8
BLACK
6
CONTINUOUS
10
1.38063
20
1.24987
11
1.37038
21
1.2409
0
LINE
8
BLACK
6
CONTINUOUS
10
1.37038
20
1.2409
11
1.37
21
1.24068
0
LINE
8
BLACK
6
CONTINUOUS
10
1.37
20
1.24068
11
1.36992
21
1.24057
0
LINE
8
BLACK
6
CONTINUOUS
10
1.36992
20
1.24057
11
1.3698
21
1.24055
0
LINE
8
BLACK
6
CONTINUOUS
10
1.3698
20
1.24055
11
1.36951
21
1.24037
0
LINE
8
BLACK
6
CONTINUOUS
10
1.36951
20
1.24037
11
1.36871
21
1.24036
0
LINE
8
BLACK
6
CONTINUOUS
10
1.36871
20
1.24036
11
1.36793
21
1.24022
0
LINE
8
BLACK
6
CONTINUOUS
10
1.36793
20
1.24022
11
1.36772
21
1.24034
0
LINE
8
BLACK
6
CONTINUOUS
10
1.36772
20
1.24034
11
1.36749
21
1.24033
0
LINE
8
BLACK
6
CONTINUOUS
10
1.36749
20
1.24033
11
1.36687
21
1.24083
0
LINE
8
BLACK
6
CONTINUOUS
10
1.36687
20
1.24083
11
1.36618
21
1.24123
0
LINE
8
BLACK
6
CONTINUOUS
10
1.36618
20
1.24123
11
1.3661
21
1.24145
0
LINE
8
BLACK
6
CONTINUOUS
10
1.3661
20
1.24145
11
1.36591
21
1.2416
0
LINE
8
BLACK
6
CONTINUOUS
10
1.36591
20
1.2416
11
1.36576
21
1.24238
0
LINE
8
BLACK
6
CONTINUOUS
10
1.36576
20
1.24238
11
1.36549
21
1.24313
0
LINE
8
BLACK
6
CONTINUOUS
10
1.36549
20
1.24313
11
1.36549
21
1.2675
0
LINE
8
BLACK
6
CONTINUOUS
10
1.36549
20
1.2675
11
1.36567
21
1.26851
0
LINE
8
BLACK
6
CONTINUOUS
10
1.36567
20
1.26851
11
1.36696
21
1.27006
0
LINE
8
BLACK
6
CONTINUOUS
10
1.36696
20
1.27006
11
1.36895
21
1.27041
0
LINE
8
BLACK
6
CONTINUOUS
10
1.36895
20
1.27041
11
1.3707
21
1.2694
0
LINE
8
BLACK
6
CONTINUOUS
10
1.3707
20
1.2694
11
1.37139
21
1.2675
0
LINE
8
BLACK
6
CONTINUOUS
10
1.37139
20
1.2675
11
1.37139
21
1.24963
0
LINE
8
BLACK
6
CONTINUOUS
10
1.37139
20
1.24963
11
1.38149
21
1.25847
0
LINE
8
BLACK
6
CONTINUOUS
10
1.38149
20
1.25847
11
1.38187
21
1.2587
0
LINE
8
BLACK
6
CONTINUOUS
10
1.38187
20
1.2587
11
1.38196
21
1.25881
0
LINE
8
BLACK
6
CONTINUOUS
10
1.38196
20
1.25881
11
1.38208
21
1.25883
0
LINE
8
BLACK
6
CONTINUOUS
10
1.38208
20
1.25883
11
1.38237
21
1.259
0
LINE
8
BLACK
6
CONTINUOUS
10
1.38237
20
1.259
11
1.38317
21
1.25902
0
LINE
8
BLACK
6
CONTINUOUS
10
1.38317
20
1.25902
11
1.38395
21
1.25916
0
LINE
8
BLACK
6
CONTINUOUS
10
1.38395
20
1.25916
11
1.38416
21
1.25904
0
LINE
8
BLACK
6
CONTINUOUS
10
1.38416
20
1.25904
11
1.38439
21
1.25905
0
LINE
8
BLACK
6
CONTINUOUS
10
1.38439
20
1.25905
11
1.38501
21
1.25855
0
LINE
8
BLACK
6
CONTINUOUS
10
1.38501
20
1.25855
11
1.3857
21
1.25815
0
LINE
8
BLACK
6
CONTINUOUS
10
1.3857
20
1.25815
11
1.38578
21
1.25793
0
LINE
8
BLACK
6
CONTINUOUS
10
1.38578
20
1.25793
11
1.38596
21
1.25778
0
LINE
8
BLACK
6
CONTINUOUS
10
1.38596
20
1.25778
11
1.38612
21
1.257
0
LINE
8
BLACK
6
CONTINUOUS
10
1.38612
20
1.257
11
1.38639
21
1.25625
0
LINE
8
BLACK
6
CONTINUOUS
10
1.38639
20
1.25625
11
1.38639
21
1.25132
0
LINE
8
BLACK
6
CONTINUOUS
10
1.38639
20
1.25132
11
1.38774
21
1.24863
0
LINE
8
BLACK
6
CONTINUOUS
10
1.38774
20
1.24863
11
1.38894
21
1.24743
0
LINE
8
BLACK
6
CONTINUOUS
10
1.38894
20
1.24743
11
1.39163
21
1.24608
0
LINE
8
BLACK
6
CONTINUOUS
10
1.39163
20
1.24608
11
1.39961
21
1.24608
0
LINE
8
BLACK
6
CONTINUOUS
10
1.39961
20
1.24608
11
1.40231
21
1.24743
0
LINE
8
BLACK
6
CONTINUOUS
10
1.40231
20
1.24743
11
1.40351
21
1.24863
0
LINE
8
BLACK
6
CONTINUOUS
10
1.40351
20
1.24863
11
1.40486
21
1.25132
0
LINE
8
BLACK
6
CONTINUOUS
10
1.40486
20
1.25132
11
1.40486
21
1.26118
0
LINE
8
BLACK
6
CONTINUOUS
10
1.40486
20
1.26118
11
1.40351
21
1.26388
0
LINE
8
BLACK
6
CONTINUOUS
10
1.40351
20
1.26388
11
1.40197
21
1.26541
0
LINE
8
BLACK
6
CONTINUOUS
10
1.40197
20
1.26541
11
1.40138
21
1.26625
0
LINE
8
BLACK
6
CONTINUOUS
10
1.40138
20
1.26625
11
1.40121
21
1.26826
0
LINE
8
BLACK
6
CONTINUOUS
10
1.40121
20
1.26826
11
1.40237
21
1.26992
0
LINE
8
BLACK
6
CONTINUOUS
10
1.40237
20
1.26992
11
1.40432
21
1.27044
0
LINE
8
BLACK
6
CONTINUOUS
10
1.40432
20
1.27044
11
1.40615
21
1.26959
0
LINE
8
BLACK
6
CONTINUOUS
10
1.40882
20
1.30589
11
1.41037
21
1.3046
0
LINE
8
BLACK
6
CONTINUOUS
10
1.41037
20
1.3046
11
1.41072
21
1.30261
0
LINE
8
BLACK
6
CONTINUOUS
10
1.41072
20
1.30261
11
1.40971
21
1.30086
0
LINE
8
BLACK
6
CONTINUOUS
10
1.40971
20
1.30086
11
1.40781
21
1.30017
0
LINE
8
BLACK
6
CONTINUOUS
10
1.40781
20
1.30017
11
1.39202
21
1.30017
0
LINE
8
BLACK
6
CONTINUOUS
10
1.39202
20
1.30017
11
1.39202
21
1.28812
0
LINE
8
BLACK
6
CONTINUOUS
10
1.39202
20
1.28812
11
1.39184
21
1.28711
0
LINE
8
BLACK
6
CONTINUOUS
10
1.39184
20
1.28711
11
1.39172
21
1.28698
0
LINE
8
BLACK
6
CONTINUOUS
10
1.39172
20
1.28698
11
1.3917
21
1.2868
0
LINE
8
BLACK
6
CONTINUOUS
10
1.3917
20
1.2868
11
1.38983
21
1.28305
0
LINE
8
BLACK
6
CONTINUOUS
10
1.38983
20
1.28305
11
1.3893
21
1.28234
0
LINE
8
BLACK
6
CONTINUOUS
10
1.3893
20
1.28234
11
1.38928
21
1.28228
0
LINE
8
BLACK
6
CONTINUOUS
10
1.38928
20
1.28228
11
1.3874
21
1.28041
0
LINE
8
BLACK
6
CONTINUOUS
10
1.3874
20
1.28041
11
1.38668
21
1.2799
0
LINE
8
BLACK
6
CONTINUOUS
10
1.38668
20
1.2799
11
1.38663
21
1.27986
0
LINE
8
BLACK
6
CONTINUOUS
10
1.38663
20
1.27986
11
1.38288
21
1.27798
0
LINE
8
BLACK
6
CONTINUOUS
10
1.38288
20
1.27798
11
1.3819
21
1.27769
0
LINE
8
BLACK
6
CONTINUOUS
10
1.3819
20
1.27769
11
1.38173
21
1.27773
0
LINE
8
BLACK
6
CONTINUOUS
10
1.38173
20
1.27773
11
1.38156
21
1.27767
0
LINE
8
BLACK
6
CONTINUOUS
10
1.38156
20
1.27767
11
1.37594
21
1.27767
0
LINE
8
BLACK
6
CONTINUOUS
10
1.37594
20
1.27767
11
1.37493
21
1.27785
0
LINE
8
BLACK
6
CONTINUOUS
10
1.37493
20
1.27785
11
1.37479
21
1.27796
0
LINE
8
BLACK
6
CONTINUOUS
10
1.37479
20
1.27796
11
1.37462
21
1.27798
0
LINE
8
BLACK
6
CONTINUOUS
10
1.37462
20
1.27798
11
1.37087
21
1.27986
0
LINE
8
BLACK
6
CONTINUOUS
10
1.37087
20
1.27986
11
1.37016
21
1.28038
0
LINE
8
BLACK
6
CONTINUOUS
10
1.37016
20
1.28038
11
1.3701
21
1.28041
0
LINE
8
BLACK
6
CONTINUOUS
10
1.3701
20
1.28041
11
1.36823
21
1.28228
0
LINE
8
BLACK
6
CONTINUOUS
10
1.36823
20
1.28228
11
1.36772
21
1.28301
0
LINE
8
BLACK
6
CONTINUOUS
10
1.36772
20
1.28301
11
1.36767
21
1.28305
0
LINE
8
BLACK
6
CONTINUOUS
10
1.36767
20
1.28305
11
1.3658
21
1.2868
0
LINE
8
BLACK
6
CONTINUOUS
10
1.3658
20
1.2868
11
1.36551
21
1.28778
0
LINE
8
BLACK
6
CONTINUOUS
10
1.36551
20
1.28778
11
1.36555
21
1.28796
0
LINE
8
BLACK
6
CONTINUOUS
10
1.36555
20
1.28796
11
1.36549
21
1.28812
0
LINE
8
BLACK
6
CONTINUOUS
10
1.36549
20
1.28812
11
1.36549
21
1.30312
0
LINE
8
BLACK
6
CONTINUOUS
10
1.36549
20
1.30312
11
1.36556
21
1.3035
0
LINE
8
BLACK
6
CONTINUOUS
10
1.36556
20
1.3035
11
1.36553
21
1.30363
0
LINE
8
BLACK
6
CONTINUOUS
10
1.36553
20
1.30363
11
1.3656
21
1.30375
0
LINE
8
BLACK
6
CONTINUOUS
10
1.3656
20
1.30375
11
1.36567
21
1.30413
0
LINE
8
BLACK
6
CONTINUOUS
10
1.36567
20
1.30413
11
1.36616
21
1.30472
0
LINE
8
BLACK
6
CONTINUOUS
10
1.36616
20
1.30472
11
1.36654
21
1.30538
0
LINE
8
BLACK
6
CONTINUOUS
10
1.36654
20
1.30538
11
1.36679
21
1.30547
0
LINE
8
BLACK
6
CONTINUOUS
10
1.36679
20
1.30547
11
1.36696
21
1.30568
0
LINE
8
BLACK
6
CONTINUOUS
10
1.36696
20
1.30568
11
1.36772
21
1.30581
0
LINE
8
BLACK
6
CONTINUOUS
10
1.36772
20
1.30581
11
1.36844
21
1.30607
0
LINE
8
BLACK
6
CONTINUOUS
10
1.36844
20
1.30607
11
1.40781
21
1.30607
0
LINE
8
BLACK
6
CONTINUOUS
10
1.40781
20
1.30607
11
1.40882
21
1.30589
0
LINE
8
BLACK
6
CONTINUOUS
10
1.37139
20
1.30017
11
1.37139
21
1.28882
0
LINE
8
BLACK
6
CONTINUOUS
10
1.37139
20
1.28882
11
1.37274
21
1.28612
0
LINE
8
BLACK
6
CONTINUOUS
10
1.37274
20
1.28612
11
1.37394
21
1.28492
0
LINE
8
BLACK
6
CONTINUOUS
10
1.37394
20
1.28492
11
1.37664
21
1.28358
0
LINE
8
BLACK
6
CONTINUOUS
10
1.37664
20
1.28358
11
1.38087
21
1.28358
0
LINE
8
BLACK
6
CONTINUOUS
10
1.38087
20
1.28358
11
1.38356
21
1.28492
0
LINE
8
BLACK
6
CONTINUOUS
10
1.38356
20
1.28492
11
1.38476
21
1.28612
0
LINE
8
BLACK
6
CONTINUOUS
10
1.38476
20
1.28612
11
1.38611
21
1.28882
0
LINE
8
BLACK
6
CONTINUOUS
10
1.38611
20
1.28882
11
1.38611
21
1.30017
0
LINE
8
BLACK
6
CONTINUOUS
10
1.38611
20
1.30017
11
1.37139
21
1.30017
0
LINE
8
BLACK
6
CONTINUOUS
10
1.39152
20
1.34721
11
1.39165
21
1.34723
0
LINE
8
BLACK
6
CONTINUOUS
10
1.39165
20
1.34723
11
1.39915
21
1.34535
0
LINE
8
BLACK
6
CONTINUOUS
10
1.39915
20
1.34535
11
1.39962
21
1.34515
0
LINE
8
BLACK
6
CONTINUOUS
10
1.39962
20
1.34515
11
1.39976
21
1.34513
0
LINE
8
BLACK
6
CONTINUOUS
10
1.39976
20
1.34513
11
1.40351
21
1.34326
0
LINE
8
BLACK
6
CONTINUOUS
10
1.40351
20
1.34326
11
1.40422
21
1.34273
0
LINE
8
BLACK
6
CONTINUOUS
10
1.40422
20
1.34273
11
1.40427
21
1.3427
0
LINE
8
BLACK
6
CONTINUOUS
10
1.40427
20
1.3427
11
1.40802
21
1.33895
0
LINE
8
BLACK
6
CONTINUOUS
10
1.40802
20
1.33895
11
1.40861
21
1.33811
0
LINE
8
BLACK
6
CONTINUOUS
10
1.40861
20
1.33811
11
1.40863
21
1.33794
0
LINE
8
BLACK
6
CONTINUOUS
10
1.40863
20
1.33794
11
1.40874
21
1.3378
0
LINE
8
BLACK
6
CONTINUOUS
10
1.40874
20
1.3378
11
1.41061
21
1.33217
0
LINE
8
BLACK
6
CONTINUOUS
10
1.41061
20
1.33217
11
1.41074
21
1.3313
0
LINE
8
BLACK
6
CONTINUOUS
10
1.41074
20
1.3313
11
1.41076
21
1.33124
0
LINE
8
BLACK
6
CONTINUOUS
10
1.41076
20
1.33124
11
1.41076
21
1.32749
0
LINE
8
BLACK
6
CONTINUOUS
10
1.41076
20
1.32749
11
1.41061
21
1.32662
0
LINE
8
BLACK
6
CONTINUOUS
10
1.41061
20
1.32662
11
1.41061
21
1.32656
0
LINE
8
BLACK
6
CONTINUOUS
10
1.41061
20
1.32656
11
1.40874
21
1.32093
0
LINE
8
BLACK
6
CONTINUOUS
10
1.40874
20
1.32093
11
1.40825
21
1.32003
0
LINE
8
BLACK
6
CONTINUOUS
10
1.40825
20
1.32003
11
1.4081
21
1.31994
0
LINE
8
BLACK
6
CONTINUOUS
10
1.4081
20
1.31994
11
1.40802
21
1.31978
0
LINE
8
BLACK
6
CONTINUOUS
10
1.40802
20
1.31978
11
1.40615
21
1.3179
0
LINE
8
BLACK
6
CONTINUOUS
10
1.40615
20
1.3179
11
1.40531
21
1.31732
0
LINE
8
BLACK
6
CONTINUOUS
10
1.40531
20
1.31732
11
1.4033
21
1.31714
0
LINE
8
BLACK
6
CONTINUOUS
10
1.4033
20
1.31714
11
1.40164
21
1.3183
0
LINE
8
BLACK
6
CONTINUOUS
10
1.40164
20
1.3183
11
1.40112
21
1.32025
0
LINE
8
BLACK
6
CONTINUOUS
10
1.40112
20
1.32025
11
1.40197
21
1.32208
0
LINE
8
BLACK
6
CONTINUOUS
10
1.40197
20
1.32208
11
1.40335
21
1.32346
0
LINE
8
BLACK
6
CONTINUOUS
10
1.40335
20
1.32346
11
1.40486
21
1.32797
0
LINE
8
BLACK
6
CONTINUOUS
10
1.40486
20
1.32797
11
1.40486
21
1.33076
0
LINE
8
BLACK
6
CONTINUOUS
10
1.40486
20
1.33076
11
1.40335
21
1.33527
0
LINE
8
BLACK
6
CONTINUOUS
10
1.40335
20
1.33527
11
1.40044
21
1.33819
0
LINE
8
BLACK
6
CONTINUOUS
10
1.40044
20
1.33819
11
1.39741
21
1.3397
0
LINE
8
BLACK
6
CONTINUOUS
10
1.39741
20
1.3397
11
1.39057
21
1.34141
0
LINE
8
BLACK
6
CONTINUOUS
10
1.39057
20
1.34141
11
1.38568
21
1.34141
0
LINE
8
BLACK
6
CONTINUOUS
10
1.38568
20
1.34141
11
1.37884
21
1.3397
0
LINE
8
BLACK
6
CONTINUOUS
10
1.37884
20
1.3397
11
1.37581
21
1.33819
0
LINE
8
BLACK
6
CONTINUOUS
10
1.37581
20
1.33819
11
1.3729
21
1.33527
0
LINE
8
BLACK
6
CONTINUOUS
10
1.3729
20
1.33527
11
1.37139
21
1.33076
0
LINE
8
BLACK
6
CONTINUOUS
10
1.37139
20
1.33076
11
1.37139
21
1.32797
0
LINE
8
BLACK
6
CONTINUOUS
10
1.37139
20
1.32797
11
1.3729
21
1.32346
0
LINE
8
BLACK
6
CONTINUOUS
10
1.3729
20
1.32346
11
1.37428
21
1.32208
0
LINE
8
BLACK
6
CONTINUOUS
10
1.37428
20
1.32208
11
1.37487
21
1.32124
0
LINE
8
BLACK
6
CONTINUOUS
10
1.37487
20
1.32124
11
1.37504
21
1.31923
0
LINE
8
BLACK
6
CONTINUOUS
10
1.37504
20
1.31923
11
1.37388
21
1.31757
0
LINE
8
BLACK
6
CONTINUOUS
10
1.37388
20
1.31757
11
1.37193
21
1.31705
0
LINE
8
BLACK
6
CONTINUOUS
10
1.37193
20
1.31705
11
1.3701
21
1.3179
0
LINE
8
BLACK
6
CONTINUOUS
10
1.3701
20
1.3179
11
1.36823
21
1.31978
0
LINE
8
BLACK
6
CONTINUOUS
10
1.36823
20
1.31978
11
1.36764
21
1.32062
0
LINE
8
BLACK
6
CONTINUOUS
10
1.36764
20
1.32062
11
1.36762
21
1.3208
0
LINE
8
BLACK
6
CONTINUOUS
10
1.36762
20
1.3208
11
1.36751
21
1.32093
0
LINE
8
BLACK
6
CONTINUOUS
10
1.36751
20
1.32093
11
1.36564
21
1.32656
0
LINE
8
BLACK
6
CONTINUOUS
10
1.36564
20
1.32656
11
1.36551
21
1.32743
0
LINE
8
BLACK
6
CONTINUOUS
10
1.36551
20
1.32743
11
1.36549
21
1.32749
0
LINE
8
BLACK
6
CONTINUOUS
10
1.36549
20
1.32749
11
1.36549
21
1.33124
0
LINE
8
BLACK
6
CONTINUOUS
10
1.36549
20
1.33124
11
1.36564
21
1.33211
0
LINE
8
BLACK
6
CONTINUOUS
10
1.36564
20
1.33211
11
1.36564
21
1.33217
0
LINE
8
BLACK
6
CONTINUOUS
10
1.36564
20
1.33217
11
1.36751
21
1.3378
0
LINE
8
BLACK
6
CONTINUOUS
10
1.36751
20
1.3378
11
1.368
21
1.3387
0
LINE
8
BLACK
6
CONTINUOUS
10
1.368
20
1.3387
11
1.36815
21
1.33879
0
LINE
8
BLACK
6
CONTINUOUS
10
1.36815
20
1.33879
11
1.36823
21
1.33895
0
LINE
8
BLACK
6
CONTINUOUS
10
1.36823
20
1.33895
11
1.37198
21
1.3427
0
LINE
8
BLACK
6
CONTINUOUS
10
1.37198
20
1.3427
11
1.3727
21
1.34321
0
LINE
8
BLACK
6
CONTINUOUS
10
1.3727
20
1.34321
11
1.37274
21
1.34326
0
LINE
8
BLACK
6
CONTINUOUS
10
1.37274
20
1.34326
11
1.37649
21
1.34513
0
LINE
8
BLACK
6
CONTINUOUS
10
1.37649
20
1.34513
11
1.37698
21
1.34528
0
LINE
8
BLACK
6
CONTINUOUS
10
1.37698
20
1.34528
11
1.3771
21
1.34535
0
LINE
8
BLACK
6
CONTINUOUS
10
1.3771
20
1.34535
11
1.3846
21
1.34723
0
LINE
8
BLACK
6
CONTINUOUS
10
1.3846
20
1.34723
11
1.38518
21
1.34727
0
LINE
8
BLACK
6
CONTINUOUS
10
1.38518
20
1.34727
11
1.38531
21
1.34732
0
LINE
8
BLACK
6
CONTINUOUS
10
1.38531
20
1.34732
11
1.39094
21
1.34732
0
LINE
8
BLACK
6
CONTINUOUS
10
1.39094
20
1.34732
11
1.39152
21
1.34721
0
LINE
8
BLACK
6
CONTINUOUS
10
1.40882
20
1.39026
11
1.41037
21
1.38896
0
LINE
8
BLACK
6
CONTINUOUS
10
1.41037
20
1.38896
11
1.41072
21
1.38697
0
LINE
8
BLACK
6
CONTINUOUS
10
1.41072
20
1.38697
11
1.40971
21
1.38522
0
LINE
8
BLACK
6
CONTINUOUS
10
1.40971
20
1.38522
11
1.40781
21
1.38453
0
LINE
8
BLACK
6
CONTINUOUS
10
1.40781
20
1.38453
11
1.38175
21
1.38453
0
LINE
8
BLACK
6
CONTINUOUS
10
1.38175
20
1.38453
11
1.39781
21
1.37704
0
LINE
8
BLACK
6
CONTINUOUS
10
1.39781
20
1.37704
11
1.39813
21
1.37681
0
LINE
8
BLACK
6
CONTINUOUS
10
1.39813
20
1.37681
11
1.39825
21
1.37678
0
LINE
8
BLACK
6
CONTINUOUS
10
1.39825
20
1.37678
11
1.39833
21
1.37667
0
LINE
8
BLACK
6
CONTINUOUS
10
1.39833
20
1.37667
11
1.39865
21
1.37645
0
LINE
8
BLACK
6
CONTINUOUS
10
1.39865
20
1.37645
11
1.39897
21
1.37575
0
LINE
8
BLACK
6
CONTINUOUS
10
1.39897
20
1.37575
11
1.39941
21
1.37513
0
LINE
8
BLACK
6
CONTINUOUS
10
1.39941
20
1.37513
11
1.39939
21
1.37486
0
LINE
8
BLACK
6
CONTINUOUS
10
1.39939
20
1.37486
11
1.3995
21
1.37462
0
LINE
8
BLACK
6
CONTINUOUS
10
1.3995
20
1.37462
11
1.3993
21
1.37388
0
LINE
8
BLACK
6
CONTINUOUS
10
1.3993
20
1.37388
11
1.39924
21
1.37311
0
LINE
8
BLACK
6
CONTINUOUS
10
1.39924
20
1.37311
11
1.39905
21
1.37292
0
LINE
8
BLACK
6
CONTINUOUS
10
1.39905
20
1.37292
11
1.39898
21
1.37267
0
LINE
8
BLACK
6
CONTINUOUS
10
1.39898
20
1.37267
11
1.39835
21
1.37223
0
LINE
8
BLACK
6
CONTINUOUS
10
1.39835
20
1.37223
11
1.39781
21
1.37168
0
LINE
8
BLACK
6
CONTINUOUS
10
1.39781
20
1.37168
11
1.38175
21
1.36419
0
LINE
8
BLACK
6
CONTINUOUS
10
1.38175
20
1.36419
11
1.40781
21
1.36419
0
LINE
8
BLACK
6
CONTINUOUS
10
1.40781
20
1.36419
11
1.40882
21
1.36401
0
LINE
8
BLACK
6
CONTINUOUS
10
1.40882
20
1.36401
11
1.41037
21
1.36271
0
LINE
8
BLACK
6
CONTINUOUS
10
1.41037
20
1.36271
11
1.41072
21
1.36072
0
LINE
8
BLACK
6
CONTINUOUS
10
1.41072
20
1.36072
11
1.40971
21
1.35898
0
LINE
8
BLACK
6
CONTINUOUS
10
1.40971
20
1.35898
11
1.40781
21
1.35828
0
LINE
8
BLACK
6
CONTINUOUS
10
1.40781
20
1.35828
11
1.36844
21
1.35828
0
LINE
8
BLACK
6
CONTINUOUS
10
1.36844
20
1.35828
11
1.36743
21
1.35846
0
LINE
8
BLACK
6
CONTINUOUS
10
1.36743
20
1.35846
11
1.36713
21
1.35872
0
LINE
8
BLACK
6
CONTINUOUS
10
1.36713
20
1.35872
11
1.36675
21
1.35882
0
LINE
8
BLACK
6
CONTINUOUS
10
1.36675
20
1.35882
11
1.36638
21
1.35935
0
LINE
8
BLACK
6
CONTINUOUS
10
1.36638
20
1.35935
11
1.36588
21
1.35976
0
LINE
8
BLACK
6
CONTINUOUS
10
1.36588
20
1.35976
11
1.36581
21
1.36015
0
LINE
8
BLACK
6
CONTINUOUS
10
1.36581
20
1.36015
11
1.36559
21
1.36047
0
LINE
8
BLACK
6
CONTINUOUS
10
1.36559
20
1.36047
11
1.36564
21
1.36111
0
LINE
8
BLACK
6
CONTINUOUS
10
1.36564
20
1.36111
11
1.36553
21
1.36175
0
LINE
8
BLACK
6
CONTINUOUS
10
1.36553
20
1.36175
11
1.36573
21
1.36209
0
LINE
8
BLACK
6
CONTINUOUS
10
1.36573
20
1.36209
11
1.36576
21
1.36248
0
LINE
8
BLACK
6
CONTINUOUS
10
1.36576
20
1.36248
11
1.36622
21
1.36294
0
LINE
8
BLACK
6
CONTINUOUS
10
1.36622
20
1.36294
11
1.36654
21
1.3635
0
LINE
8
BLACK
6
CONTINUOUS
10
1.36654
20
1.3635
11
1.36691
21
1.36363
0
LINE
8
BLACK
6
CONTINUOUS
10
1.36691
20
1.36363
11
1.36719
21
1.36391
0
LINE
8
BLACK
6
CONTINUOUS
10
1.36719
20
1.36391
11
1.38958
21
1.37436
0
LINE
8
BLACK
6
CONTINUOUS
10
1.38958
20
1.37436
11
1.36719
21
1.38481
0
LINE
8
BLACK
6
CONTINUOUS
10
1.36719
20
1.38481
11
1.36635
21
1.3854
0
LINE
8
BLACK
6
CONTINUOUS
10
1.36635
20
1.3854
11
1.36619
21
1.38575
0
LINE
8
BLACK
6
CONTINUOUS
10
1.36619
20
1.38575
11
1.36588
21
1.38601
0
LINE
8
BLACK
6
CONTINUOUS
10
1.36588
20
1.38601
11
1.36577
21
1.38664
0
LINE
8
BLACK
6
CONTINUOUS
10
1.36577
20
1.38664
11
1.3655
21
1.38723
0
LINE
8
BLACK
6
CONTINUOUS
10
1.3655
20
1.38723
11
1.3656
21
1.38761
0
LINE
8
BLACK
6
CONTINUOUS
10
1.3656
20
1.38761
11
1.36553
21
1.388
0
LINE
8
BLACK
6
CONTINUOUS
10
1.36553
20
1.388
11
1.36585
21
1.38856
0
LINE
8
BLACK
6
CONTINUOUS
10
1.36585
20
1.38856
11
1.36602
21
1.38918
0
LINE
8
BLACK
6
CONTINUOUS
10
1.36602
20
1.38918
11
1.36635
21
1.3894
0
LINE
8
BLACK
6
CONTINUOUS
10
1.36635
20
1.3894
11
1.36654
21
1.38975
0
LINE
8
BLACK
6
CONTINUOUS
10
1.36654
20
1.38975
11
1.36715
21
1.38997
0
LINE
8
BLACK
6
CONTINUOUS
10
1.36715
20
1.38997
11
1.36768
21
1.39034
0
LINE
8
BLACK
6
CONTINUOUS
10
1.36768
20
1.39034
11
1.36807
21
1.3903
0
LINE
8
BLACK
6
CONTINUOUS
10
1.36807
20
1.3903
11
1.36844
21
1.39044
0
LINE
8
BLACK
6
CONTINUOUS
10
1.36844
20
1.39044
11
1.40781
21
1.39044
0
LINE
8
BLACK
6
CONTINUOUS
10
1.40781
20
1.39044
11
1.40882
21
1.39026
  0
ENDSEC
  0
EOF
