  0
SECTION
  2
HEADER
  9
$ANGBASE
  50
0.0
  9
$ANGDIR
  70
1
  9
$MEASUREMENT
  70
0
  0
ENDSEC
  0
SECTION
  2
TABLES
  0
TABLE
  2
LTYPE
  70
4
  0
LTYPE
  5
40F
  2
CONTINUOUS
  70
0
  3
Solid line
  72
65
  73
0
  40
0.0
  0
LTYPE
  5
410
  2
DASHDOT
 70
0
  3
Dash Dot ____ _ ____ _
 72
65
 73
4
 40
2.0
 49
1.25
 49
-0.25
 49
0.25
 49
-0.25
  0
LTYPE
  5
411
  2
DASHED
 70
0
  3
Dashed __ __ __ __ __
 72
65
 73
2
 40
0.75
 49
0.5
 49
-0.25
  0
LTYPE
  5
43B
  2
DOTTED
 70
0
  3
Dotted .  .  .  .
 72
65
 73
2
 40
0.2
 49
0.0
 49
-0.2
  0
ENDTAB
  0
TABLE
  2
STYLE
  70
4
  0
STYLE
  2
KICAD
  70
0
  40
0
  41
1
  42
1
  50
0
  71
0
  3
isocp.shx
  0
STYLE
  2
KICADB
  70
0
  40
0
  41
1
  42
1
  50
0
  71
0
  3
isocp.shx
  0
STYLE
  2
KICADI
  70
0
  40
0
  41
1
  42
1
  50
15
  71
0
  3
isocp.shx
  0
STYLE
  2
KICADBI
  70
0
  40
0
  41
1
  42
1
  50
15
  71
0
  3
isocp.shx
  0
ENDTAB
  0
TABLE
  2
LAYER
  70
1
  0
LAYER
  2
BLACK
  70
0
  62
7
  6
CONTINUOUS
  0
ENDTAB
  0
ENDSEC
  0
SECTION
  2
ENTITIES
0
LINE
8
BLACK
6
CONTINUOUS
10
2.01492
20
0.125098
11
2.02877
21
0.122656
0
LINE
8
BLACK
6
CONTINUOUS
10
2.02877
20
0.122656
11
2.04226
21
0.118684
0
LINE
8
BLACK
6
CONTINUOUS
10
2.04226
20
0.118684
11
2.05523
21
0.113234
0
LINE
8
BLACK
6
CONTINUOUS
10
2.05523
20
0.113234
11
2.06751
21
0.106372
0
LINE
8
BLACK
6
CONTINUOUS
10
2.06751
20
0.106372
11
2.07894
21
0.0981843
0
LINE
8
BLACK
6
CONTINUOUS
10
2.07894
20
0.0981843
11
2.08939
21
0.0887728
0
LINE
8
BLACK
6
CONTINUOUS
10
2.08939
20
0.0887728
11
2.09873
21
0.0782548
0
LINE
8
BLACK
6
CONTINUOUS
10
2.09873
20
0.0782548
11
2.10684
21
0.0667615
0
LINE
8
BLACK
6
CONTINUOUS
10
2.10684
20
0.0667615
11
2.11362
21
0.054436
0
LINE
8
BLACK
6
CONTINUOUS
10
2.11362
20
0.054436
11
2.11898
21
0.041432
0
LINE
8
BLACK
6
CONTINUOUS
10
2.11898
20
0.041432
11
2.12285
21
0.0279116
0
LINE
8
BLACK
6
CONTINUOUS
10
2.12285
20
0.0279116
11
2.1252
21
0.0140433
0
LINE
8
BLACK
6
CONTINUOUS
10
2.1252
20
0.0140433
11
2.12598
21
0
0
LINE
8
BLACK
6
CONTINUOUS
10
2.12598
20
0
11
2.12594
21
-0.00351768
0
LINE
8
BLACK
6
CONTINUOUS
10
2.12594
20
-0.00351768
11
2.12476
21
-0.0175336
0
LINE
8
BLACK
6
CONTINUOUS
10
2.12476
20
-0.0175336
11
2.12203
21
-0.031331
0
LINE
8
BLACK
6
CONTINUOUS
10
2.12203
20
-0.031331
11
2.11777
21
-0.0447379
0
LINE
8
BLACK
6
CONTINUOUS
10
2.11777
20
-0.0447379
11
2.11205
21
-0.0575871
0
LINE
8
BLACK
6
CONTINUOUS
10
2.11205
20
-0.0575871
11
2.10493
21
-0.0697186
0
LINE
8
BLACK
6
CONTINUOUS
10
2.10493
20
-0.0697186
11
2.09651
21
-0.0809811
0
LINE
8
BLACK
6
CONTINUOUS
10
2.09651
20
-0.0809811
11
2.08688
21
-0.0912343
0
LINE
8
BLACK
6
CONTINUOUS
10
2.08688
20
-0.0912343
11
2.07617
21
-0.10035
0
LINE
8
BLACK
6
CONTINUOUS
10
2.07617
20
-0.10035
11
2.06451
21
-0.108215
0
LINE
8
BLACK
6
CONTINUOUS
10
2.06451
20
-0.108215
11
2.05204
21
-0.114732
0
LINE
8
BLACK
6
CONTINUOUS
10
2.05204
20
-0.114732
11
2.03893
21
-0.119818
0
LINE
8
BLACK
6
CONTINUOUS
10
2.03893
20
-0.119818
11
2.02533
21
-0.123411
0
LINE
8
BLACK
6
CONTINUOUS
10
2.02533
20
-0.123411
11
2.01142
21
-0.125466
0
LINE
8
BLACK
6
CONTINUOUS
10
2.01142
20
-0.125466
11
1.99736
21
-0.125957
0
LINE
8
BLACK
6
CONTINUOUS
10
1.99736
20
-0.125957
11
1.98334
21
-0.124878
0
LINE
8
BLACK
6
CONTINUOUS
10
1.98334
20
-0.124878
11
1.96952
21
-0.122242
0
LINE
8
BLACK
6
CONTINUOUS
10
1.96952
20
-0.122242
11
1.95609
21
-0.118083
0
LINE
8
BLACK
6
CONTINUOUS
10
1.95609
20
-0.118083
11
1.9432
21
-0.112452
0
LINE
8
BLACK
6
CONTINUOUS
10
1.9432
20
-0.112452
11
1.93102
21
-0.105419
0
LINE
8
BLACK
6
CONTINUOUS
10
1.93102
20
-0.105419
11
1.91969
21
-0.0970725
0
LINE
8
BLACK
6
CONTINUOUS
10
1.91969
20
-0.0970725
11
1.90937
21
-0.087516
0
LINE
8
BLACK
6
CONTINUOUS
10
1.90937
20
-0.087516
11
1.90018
21
-0.0768687
0
LINE
8
BLACK
6
CONTINUOUS
10
1.90018
20
-0.0768687
11
1.89224
21
-0.0652632
0
LINE
8
BLACK
6
CONTINUOUS
10
1.89224
20
-0.0652632
11
1.88563
21
-0.0528444
0
LINE
8
BLACK
6
CONTINUOUS
10
1.88563
20
-0.0528444
11
1.88046
21
-0.0397668
0
LINE
8
BLACK
6
CONTINUOUS
10
1.88046
20
-0.0397668
11
1.87677
21
-0.0261936
0
LINE
8
BLACK
6
CONTINUOUS
10
1.87677
20
-0.0261936
11
1.87462
21
-0.0122939
0
LINE
8
BLACK
6
CONTINUOUS
10
1.87462
20
-0.0122939
11
1.87403
21
0.00175902
0
LINE
8
BLACK
6
CONTINUOUS
10
1.87403
20
0.00175902
11
1.87501
21
0.01579
0
LINE
8
BLACK
6
CONTINUOUS
10
1.87501
20
0.01579
11
1.87755
21
0.0296242
0
LINE
8
BLACK
6
CONTINUOUS
10
1.87755
20
0.0296242
11
1.88161
21
0.0430891
0
LINE
8
BLACK
6
CONTINUOUS
10
1.88161
20
0.0430891
11
1.88715
21
0.056017
0
LINE
8
BLACK
6
CONTINUOUS
10
1.88715
20
0.056017
11
1.8941
21
0.0682467
0
LINE
8
BLACK
6
CONTINUOUS
10
1.8941
20
0.0682467
11
1.90237
21
0.0796257
0
LINE
8
BLACK
6
CONTINUOUS
10
1.90237
20
0.0796257
11
1.91185
21
0.0900123
0
LINE
8
BLACK
6
CONTINUOUS
10
1.91185
20
0.0900123
11
1.92244
21
0.0992769
0
LINE
8
BLACK
6
CONTINUOUS
10
1.92244
20
0.0992769
11
1.93399
21
0.107304
0
LINE
8
BLACK
6
CONTINUOUS
10
1.93399
20
0.107304
11
1.94636
21
0.113994
0
LINE
8
BLACK
6
CONTINUOUS
10
1.94636
20
0.113994
11
1.9594
21
0.119263
0
LINE
8
BLACK
6
CONTINUOUS
10
1.9594
20
0.119263
11
1.97295
21
0.123045
0
LINE
8
BLACK
6
CONTINUOUS
10
1.97295
20
0.123045
11
1.98683
21
0.125294
0
LINE
8
BLACK
6
CONTINUOUS
10
1.98683
20
0.125294
11
2.00088
21
0.125981
0
LINE
8
BLACK
6
CONTINUOUS
10
2.00088
20
0.125981
11
2.01492
21
0.125098
0
LINE
8
BLACK
6
CONTINUOUS
10
0.014917
20
0.125098
11
0.0287686
21
0.122656
0
LINE
8
BLACK
6
CONTINUOUS
10
0.0287686
20
0.122656
11
0.0422616
21
0.118684
0
LINE
8
BLACK
6
CONTINUOUS
10
0.0422616
20
0.118684
11
0.0552279
21
0.113234
0
LINE
8
BLACK
6
CONTINUOUS
10
0.0552279
20
0.113234
11
0.0675057
21
0.106372
0
LINE
8
BLACK
6
CONTINUOUS
10
0.0675057
20
0.106372
11
0.0789422
21
0.0981843
0
LINE
8
BLACK
6
CONTINUOUS
10
0.0789422
20
0.0981843
11
0.0893947
21
0.0887728
0
LINE
8
BLACK
6
CONTINUOUS
10
0.0893947
20
0.0887728
11
0.098733
21
0.0782548
0
LINE
8
BLACK
6
CONTINUOUS
10
0.098733
20
0.0782548
11
0.106841
21
0.0667615
0
LINE
8
BLACK
6
CONTINUOUS
10
0.106841
20
0.0667615
11
0.113617
21
0.054436
0
LINE
8
BLACK
6
CONTINUOUS
10
0.113617
20
0.054436
11
0.118977
21
0.041432
0
LINE
8
BLACK
6
CONTINUOUS
10
0.118977
20
0.041432
11
0.122853
21
0.0279116
0
LINE
8
BLACK
6
CONTINUOUS
10
0.122853
20
0.0279116
11
0.125199
21
0.0140433
0
LINE
8
BLACK
6
CONTINUOUS
10
0.125199
20
0.0140433
11
0.125984
21
0
0
LINE
8
BLACK
6
CONTINUOUS
10
0.125984
20
0
11
0.125935
21
-0.00351768
0
LINE
8
BLACK
6
CONTINUOUS
10
0.125935
20
-0.00351768
11
0.124758
21
-0.0175336
0
LINE
8
BLACK
6
CONTINUOUS
10
0.124758
20
-0.0175336
11
0.122026
21
-0.031331
0
LINE
8
BLACK
6
CONTINUOUS
10
0.122026
20
-0.031331
11
0.117773
21
-0.0447379
0
LINE
8
BLACK
6
CONTINUOUS
10
0.117773
20
-0.0447379
11
0.112052
21
-0.0575871
0
LINE
8
BLACK
6
CONTINUOUS
10
0.112052
20
-0.0575871
11
0.104935
21
-0.0697186
0
LINE
8
BLACK
6
CONTINUOUS
10
0.104935
20
-0.0697186
11
0.0965095
21
-0.0809811
0
LINE
8
BLACK
6
CONTINUOUS
10
0.0965095
20
-0.0809811
11
0.0868812
21
-0.0912343
0
LINE
8
BLACK
6
CONTINUOUS
10
0.0868812
20
-0.0912343
11
0.07617
21
-0.10035
0
LINE
8
BLACK
6
CONTINUOUS
10
0.07617
20
-0.10035
11
0.0645093
21
-0.108215
0
LINE
8
BLACK
6
CONTINUOUS
10
0.0645093
20
-0.108215
11
0.0520446
21
-0.114732
0
LINE
8
BLACK
6
CONTINUOUS
10
0.0520446
20
-0.114732
11
0.0389313
21
-0.119818
0
LINE
8
BLACK
6
CONTINUOUS
10
0.0389313
20
-0.119818
11
0.0253326
21
-0.123411
0
LINE
8
BLACK
6
CONTINUOUS
10
0.0253326
20
-0.123411
11
0.0114183
21
-0.125466
0
LINE
8
BLACK
6
CONTINUOUS
10
0.0114183
20
-0.125466
11
-0.00263843
21
-0.125957
0
LINE
8
BLACK
6
CONTINUOUS
10
-0.00263843
20
-0.125957
11
-0.0166622
21
-0.124878
0
LINE
8
BLACK
6
CONTINUOUS
10
-0.0166622
20
-0.124878
11
-0.0304783
21
-0.122242
0
LINE
8
BLACK
6
CONTINUOUS
10
-0.0304783
20
-0.122242
11
-0.0439146
21
-0.118083
0
LINE
8
BLACK
6
CONTINUOUS
10
-0.0439146
20
-0.118083
11
-0.0568035
21
-0.112452
0
LINE
8
BLACK
6
CONTINUOUS
10
-0.0568035
20
-0.112452
11
-0.0689843
21
-0.105419
0
LINE
8
BLACK
6
CONTINUOUS
10
-0.0689843
20
-0.105419
11
-0.0803054
21
-0.0970725
0
LINE
8
BLACK
6
CONTINUOUS
10
-0.0803054
20
-0.0970725
11
-0.0906255
21
-0.087516
0
LINE
8
BLACK
6
CONTINUOUS
10
-0.0906255
20
-0.087516
11
-0.099816
21
-0.0768687
0
LINE
8
BLACK
6
CONTINUOUS
10
-0.099816
20
-0.0768687
11
-0.107762
21
-0.0652632
0
LINE
8
BLACK
6
CONTINUOUS
10
-0.107762
20
-0.0652632
11
-0.114366
21
-0.0528444
0
LINE
8
BLACK
6
CONTINUOUS
10
-0.114366
20
-0.0528444
11
-0.119543
21
-0.0397668
0
LINE
8
BLACK
6
CONTINUOUS
10
-0.119543
20
-0.0397668
11
-0.123231
21
-0.0261936
0
LINE
8
BLACK
6
CONTINUOUS
10
-0.123231
20
-0.0261936
11
-0.125383
21
-0.0122939
0
LINE
8
BLACK
6
CONTINUOUS
10
-0.125383
20
-0.0122939
11
-0.125972
21
0.00175902
0
LINE
8
BLACK
6
CONTINUOUS
10
-0.125972
20
0.00175902
11
-0.124991
21
0.01579
0
LINE
8
BLACK
6
CONTINUOUS
10
-0.124991
20
0.01579
11
-0.122452
21
0.0296242
0
LINE
8
BLACK
6
CONTINUOUS
10
-0.122452
20
0.0296242
11
-0.118386
21
0.0430891
0
LINE
8
BLACK
6
CONTINUOUS
10
-0.118386
20
0.0430891
11
-0.112846
21
0.056017
0
LINE
8
BLACK
6
CONTINUOUS
10
-0.112846
20
0.056017
11
-0.105898
21
0.0682467
0
LINE
8
BLACK
6
CONTINUOUS
10
-0.105898
20
0.0682467
11
-0.0976308
21
0.0796257
0
LINE
8
BLACK
6
CONTINUOUS
10
-0.0976308
20
0.0796257
11
-0.0881466
21
0.0900123
0
LINE
8
BLACK
6
CONTINUOUS
10
-0.0881466
20
0.0900123
11
-0.0775637
21
0.0992769
0
LINE
8
BLACK
6
CONTINUOUS
10
-0.0775637
20
0.0992769
11
-0.066014
21
0.107304
0
LINE
8
BLACK
6
CONTINUOUS
10
-0.066014
20
0.107304
11
-0.0536415
21
0.113994
0
LINE
8
BLACK
6
CONTINUOUS
10
-0.0536415
20
0.113994
11
-0.0406004
21
0.119263
0
LINE
8
BLACK
6
CONTINUOUS
10
-0.0406004
20
0.119263
11
-0.0270533
21
0.123045
0
LINE
8
BLACK
6
CONTINUOUS
10
-0.0270533
20
0.123045
11
-0.0131689
21
0.125294
0
LINE
8
BLACK
6
CONTINUOUS
10
-0.0131689
20
0.125294
11
0.000879528
21
0.125981
0
LINE
8
BLACK
6
CONTINUOUS
10
0.000879528
20
0.125981
11
0.014917
21
0.125098
0
LINE
8
BLACK
6
CONTINUOUS
10
0.933013
20
-0.0127254
11
0.935568
21
-0.0144322
0
LINE
8
BLACK
6
CONTINUOUS
10
0.935568
20
-0.0144322
11
0.937275
21
-0.0169867
0
LINE
8
BLACK
6
CONTINUOUS
10
0.937275
20
-0.0169867
11
0.937874
21
-0.02
0
LINE
8
BLACK
6
CONTINUOUS
10
0.937874
20
-0.02
11
0.937874
21
-0.08
0
LINE
8
BLACK
6
CONTINUOUS
10
0.937874
20
-0.08
11
0.937275
21
-0.0830133
0
LINE
8
BLACK
6
CONTINUOUS
10
0.937275
20
-0.0830133
11
0.935568
21
-0.0855678
0
LINE
8
BLACK
6
CONTINUOUS
10
0.935568
20
-0.0855678
11
0.933013
21
-0.0872746
0
LINE
8
BLACK
6
CONTINUOUS
10
0.933013
20
-0.0872746
11
0.93
21
-0.087874
0
LINE
8
BLACK
6
CONTINUOUS
10
0.93
20
-0.087874
11
0.87
21
-0.087874
0
LINE
8
BLACK
6
CONTINUOUS
10
0.87
20
-0.087874
11
0.866987
21
-0.0872746
0
LINE
8
BLACK
6
CONTINUOUS
10
0.866987
20
-0.0872746
11
0.864432
21
-0.0855678
0
LINE
8
BLACK
6
CONTINUOUS
10
0.864432
20
-0.0855678
11
0.862725
21
-0.0830133
0
LINE
8
BLACK
6
CONTINUOUS
10
0.862725
20
-0.0830133
11
0.862126
21
-0.08
0
LINE
8
BLACK
6
CONTINUOUS
10
0.862126
20
-0.08
11
0.862126
21
-0.02
0
LINE
8
BLACK
6
CONTINUOUS
10
0.862126
20
-0.02
11
0.862725
21
-0.0169867
0
LINE
8
BLACK
6
CONTINUOUS
10
0.862725
20
-0.0169867
11
0.864432
21
-0.0144322
0
LINE
8
BLACK
6
CONTINUOUS
10
0.864432
20
-0.0144322
11
0.866987
21
-0.0127254
0
LINE
8
BLACK
6
CONTINUOUS
10
0.866987
20
-0.0127254
11
0.87
21
-0.012126
0
LINE
8
BLACK
6
CONTINUOUS
10
0.87
20
-0.012126
11
0.93
21
-0.012126
0
LINE
8
BLACK
6
CONTINUOUS
10
0.93
20
-0.012126
11
0.933013
21
-0.0127254
0
LINE
8
BLACK
6
CONTINUOUS
10
0.433013
20
-0.0127254
11
0.435568
21
-0.0144322
0
LINE
8
BLACK
6
CONTINUOUS
10
0.435568
20
-0.0144322
11
0.437275
21
-0.0169867
0
LINE
8
BLACK
6
CONTINUOUS
10
0.437275
20
-0.0169867
11
0.437874
21
-0.02
0
LINE
8
BLACK
6
CONTINUOUS
10
0.437874
20
-0.02
11
0.437874
21
-0.08
0
LINE
8
BLACK
6
CONTINUOUS
10
0.437874
20
-0.08
11
0.437275
21
-0.0830133
0
LINE
8
BLACK
6
CONTINUOUS
10
0.437275
20
-0.0830133
11
0.435568
21
-0.0855678
0
LINE
8
BLACK
6
CONTINUOUS
10
0.435568
20
-0.0855678
11
0.433013
21
-0.0872746
0
LINE
8
BLACK
6
CONTINUOUS
10
0.433013
20
-0.0872746
11
0.43
21
-0.087874
0
LINE
8
BLACK
6
CONTINUOUS
10
0.43
20
-0.087874
11
0.37
21
-0.087874
0
LINE
8
BLACK
6
CONTINUOUS
10
0.37
20
-0.087874
11
0.366987
21
-0.0872746
0
LINE
8
BLACK
6
CONTINUOUS
10
0.366987
20
-0.0872746
11
0.364432
21
-0.0855678
0
LINE
8
BLACK
6
CONTINUOUS
10
0.364432
20
-0.0855678
11
0.362725
21
-0.0830133
0
LINE
8
BLACK
6
CONTINUOUS
10
0.362725
20
-0.0830133
11
0.362126
21
-0.08
0
LINE
8
BLACK
6
CONTINUOUS
10
0.362126
20
-0.08
11
0.362126
21
-0.02
0
LINE
8
BLACK
6
CONTINUOUS
10
0.362126
20
-0.02
11
0.362725
21
-0.0169867
0
LINE
8
BLACK
6
CONTINUOUS
10
0.362725
20
-0.0169867
11
0.364432
21
-0.0144322
0
LINE
8
BLACK
6
CONTINUOUS
10
0.364432
20
-0.0144322
11
0.366987
21
-0.0127254
0
LINE
8
BLACK
6
CONTINUOUS
10
0.366987
20
-0.0127254
11
0.37
21
-0.012126
0
LINE
8
BLACK
6
CONTINUOUS
10
0.37
20
-0.012126
11
0.43
21
-0.012126
0
LINE
8
BLACK
6
CONTINUOUS
10
0.43
20
-0.012126
11
0.433013
21
-0.0127254
0
LINE
8
BLACK
6
CONTINUOUS
10
0.533013
20
-0.0127254
11
0.535568
21
-0.0144322
0
LINE
8
BLACK
6
CONTINUOUS
10
0.535568
20
-0.0144322
11
0.537275
21
-0.0169867
0
LINE
8
BLACK
6
CONTINUOUS
10
0.537275
20
-0.0169867
11
0.537874
21
-0.02
0
LINE
8
BLACK
6
CONTINUOUS
10
0.537874
20
-0.02
11
0.537874
21
-0.08
0
LINE
8
BLACK
6
CONTINUOUS
10
0.537874
20
-0.08
11
0.537275
21
-0.0830133
0
LINE
8
BLACK
6
CONTINUOUS
10
0.537275
20
-0.0830133
11
0.535568
21
-0.0855678
0
LINE
8
BLACK
6
CONTINUOUS
10
0.535568
20
-0.0855678
11
0.533013
21
-0.0872746
0
LINE
8
BLACK
6
CONTINUOUS
10
0.533013
20
-0.0872746
11
0.53
21
-0.087874
0
LINE
8
BLACK
6
CONTINUOUS
10
0.53
20
-0.087874
11
0.47
21
-0.087874
0
LINE
8
BLACK
6
CONTINUOUS
10
0.47
20
-0.087874
11
0.466987
21
-0.0872746
0
LINE
8
BLACK
6
CONTINUOUS
10
0.466987
20
-0.0872746
11
0.464432
21
-0.0855678
0
LINE
8
BLACK
6
CONTINUOUS
10
0.464432
20
-0.0855678
11
0.462725
21
-0.0830133
0
LINE
8
BLACK
6
CONTINUOUS
10
0.462725
20
-0.0830133
11
0.462126
21
-0.08
0
LINE
8
BLACK
6
CONTINUOUS
10
0.462126
20
-0.08
11
0.462126
21
-0.02
0
LINE
8
BLACK
6
CONTINUOUS
10
0.462126
20
-0.02
11
0.462725
21
-0.0169867
0
LINE
8
BLACK
6
CONTINUOUS
10
0.462725
20
-0.0169867
11
0.464432
21
-0.0144322
0
LINE
8
BLACK
6
CONTINUOUS
10
0.464432
20
-0.0144322
11
0.466987
21
-0.0127254
0
LINE
8
BLACK
6
CONTINUOUS
10
0.466987
20
-0.0127254
11
0.47
21
-0.012126
0
LINE
8
BLACK
6
CONTINUOUS
10
0.47
20
-0.012126
11
0.53
21
-0.012126
0
LINE
8
BLACK
6
CONTINUOUS
10
0.53
20
-0.012126
11
0.533013
21
-0.0127254
0
LINE
8
BLACK
6
CONTINUOUS
10
0.333013
20
-0.0127254
11
0.335568
21
-0.0144322
0
LINE
8
BLACK
6
CONTINUOUS
10
0.335568
20
-0.0144322
11
0.337275
21
-0.0169867
0
LINE
8
BLACK
6
CONTINUOUS
10
0.337275
20
-0.0169867
11
0.337874
21
-0.02
0
LINE
8
BLACK
6
CONTINUOUS
10
0.337874
20
-0.02
11
0.337874
21
-0.08
0
LINE
8
BLACK
6
CONTINUOUS
10
0.337874
20
-0.08
11
0.337275
21
-0.0830133
0
LINE
8
BLACK
6
CONTINUOUS
10
0.337275
20
-0.0830133
11
0.335568
21
-0.0855678
0
LINE
8
BLACK
6
CONTINUOUS
10
0.335568
20
-0.0855678
11
0.333013
21
-0.0872746
0
LINE
8
BLACK
6
CONTINUOUS
10
0.333013
20
-0.0872746
11
0.33
21
-0.087874
0
LINE
8
BLACK
6
CONTINUOUS
10
0.33
20
-0.087874
11
0.27
21
-0.087874
0
LINE
8
BLACK
6
CONTINUOUS
10
0.27
20
-0.087874
11
0.266987
21
-0.0872746
0
LINE
8
BLACK
6
CONTINUOUS
10
0.266987
20
-0.0872746
11
0.264432
21
-0.0855678
0
LINE
8
BLACK
6
CONTINUOUS
10
0.264432
20
-0.0855678
11
0.262725
21
-0.0830133
0
LINE
8
BLACK
6
CONTINUOUS
10
0.262725
20
-0.0830133
11
0.262126
21
-0.08
0
LINE
8
BLACK
6
CONTINUOUS
10
0.262126
20
-0.08
11
0.262126
21
-0.02
0
LINE
8
BLACK
6
CONTINUOUS
10
0.262126
20
-0.02
11
0.262725
21
-0.0169867
0
LINE
8
BLACK
6
CONTINUOUS
10
0.262725
20
-0.0169867
11
0.264432
21
-0.0144322
0
LINE
8
BLACK
6
CONTINUOUS
10
0.264432
20
-0.0144322
11
0.266987
21
-0.0127254
0
LINE
8
BLACK
6
CONTINUOUS
10
0.266987
20
-0.0127254
11
0.27
21
-0.012126
0
LINE
8
BLACK
6
CONTINUOUS
10
0.27
20
-0.012126
11
0.33
21
-0.012126
0
LINE
8
BLACK
6
CONTINUOUS
10
0.33
20
-0.012126
11
0.333013
21
-0.0127254
0
LINE
8
BLACK
6
CONTINUOUS
10
1.45301
20
-0.0127254
11
1.45557
21
-0.0144322
0
LINE
8
BLACK
6
CONTINUOUS
10
1.45557
20
-0.0144322
11
1.45727
21
-0.0169867
0
LINE
8
BLACK
6
CONTINUOUS
10
1.45727
20
-0.0169867
11
1.45787
21
-0.02
0
LINE
8
BLACK
6
CONTINUOUS
10
1.45787
20
-0.02
11
1.45787
21
-0.08
0
LINE
8
BLACK
6
CONTINUOUS
10
1.45787
20
-0.08
11
1.45727
21
-0.0830133
0
LINE
8
BLACK
6
CONTINUOUS
10
1.45727
20
-0.0830133
11
1.45557
21
-0.0855678
0
LINE
8
BLACK
6
CONTINUOUS
10
1.45557
20
-0.0855678
11
1.45301
21
-0.0872746
0
LINE
8
BLACK
6
CONTINUOUS
10
1.45301
20
-0.0872746
11
1.45
21
-0.087874
0
LINE
8
BLACK
6
CONTINUOUS
10
1.45
20
-0.087874
11
1.39
21
-0.087874
0
LINE
8
BLACK
6
CONTINUOUS
10
1.39
20
-0.087874
11
1.38699
21
-0.0872746
0
LINE
8
BLACK
6
CONTINUOUS
10
1.38699
20
-0.0872746
11
1.38443
21
-0.0855678
0
LINE
8
BLACK
6
CONTINUOUS
10
1.38443
20
-0.0855678
11
1.38273
21
-0.0830133
0
LINE
8
BLACK
6
CONTINUOUS
10
1.38273
20
-0.0830133
11
1.38213
21
-0.08
0
LINE
8
BLACK
6
CONTINUOUS
10
1.38213
20
-0.08
11
1.38213
21
-0.02
0
LINE
8
BLACK
6
CONTINUOUS
10
1.38213
20
-0.02
11
1.38273
21
-0.0169867
0
LINE
8
BLACK
6
CONTINUOUS
10
1.38273
20
-0.0169867
11
1.38443
21
-0.0144322
0
LINE
8
BLACK
6
CONTINUOUS
10
1.38443
20
-0.0144322
11
1.38699
21
-0.0127254
0
LINE
8
BLACK
6
CONTINUOUS
10
1.38699
20
-0.0127254
11
1.39
21
-0.012126
0
LINE
8
BLACK
6
CONTINUOUS
10
1.39
20
-0.012126
11
1.45
21
-0.012126
0
LINE
8
BLACK
6
CONTINUOUS
10
1.45
20
-0.012126
11
1.45301
21
-0.0127254
0
LINE
8
BLACK
6
CONTINUOUS
10
1.15301
20
-0.0127254
11
1.15557
21
-0.0144322
0
LINE
8
BLACK
6
CONTINUOUS
10
1.15557
20
-0.0144322
11
1.15727
21
-0.0169867
0
LINE
8
BLACK
6
CONTINUOUS
10
1.15727
20
-0.0169867
11
1.15787
21
-0.02
0
LINE
8
BLACK
6
CONTINUOUS
10
1.15787
20
-0.02
11
1.15787
21
-0.08
0
LINE
8
BLACK
6
CONTINUOUS
10
1.15787
20
-0.08
11
1.15727
21
-0.0830133
0
LINE
8
BLACK
6
CONTINUOUS
10
1.15727
20
-0.0830133
11
1.15557
21
-0.0855678
0
LINE
8
BLACK
6
CONTINUOUS
10
1.15557
20
-0.0855678
11
1.15301
21
-0.0872746
0
LINE
8
BLACK
6
CONTINUOUS
10
1.15301
20
-0.0872746
11
1.15
21
-0.087874
0
LINE
8
BLACK
6
CONTINUOUS
10
1.15
20
-0.087874
11
1.09
21
-0.087874
0
LINE
8
BLACK
6
CONTINUOUS
10
1.09
20
-0.087874
11
1.08699
21
-0.0872746
0
LINE
8
BLACK
6
CONTINUOUS
10
1.08699
20
-0.0872746
11
1.08443
21
-0.0855678
0
LINE
8
BLACK
6
CONTINUOUS
10
1.08443
20
-0.0855678
11
1.08273
21
-0.0830133
0
LINE
8
BLACK
6
CONTINUOUS
10
1.08273
20
-0.0830133
11
1.08213
21
-0.08
0
LINE
8
BLACK
6
CONTINUOUS
10
1.08213
20
-0.08
11
1.08213
21
-0.02
0
LINE
8
BLACK
6
CONTINUOUS
10
1.08213
20
-0.02
11
1.08273
21
-0.0169867
0
LINE
8
BLACK
6
CONTINUOUS
10
1.08273
20
-0.0169867
11
1.08443
21
-0.0144322
0
LINE
8
BLACK
6
CONTINUOUS
10
1.08443
20
-0.0144322
11
1.08699
21
-0.0127254
0
LINE
8
BLACK
6
CONTINUOUS
10
1.08699
20
-0.0127254
11
1.09
21
-0.012126
0
LINE
8
BLACK
6
CONTINUOUS
10
1.09
20
-0.012126
11
1.15
21
-0.012126
0
LINE
8
BLACK
6
CONTINUOUS
10
1.15
20
-0.012126
11
1.15301
21
-0.0127254
0
LINE
8
BLACK
6
CONTINUOUS
10
1.65301
20
-0.0127254
11
1.65557
21
-0.0144322
0
LINE
8
BLACK
6
CONTINUOUS
10
1.65557
20
-0.0144322
11
1.65727
21
-0.0169867
0
LINE
8
BLACK
6
CONTINUOUS
10
1.65727
20
-0.0169867
11
1.65787
21
-0.02
0
LINE
8
BLACK
6
CONTINUOUS
10
1.65787
20
-0.02
11
1.65787
21
-0.08
0
LINE
8
BLACK
6
CONTINUOUS
10
1.65787
20
-0.08
11
1.65727
21
-0.0830133
0
LINE
8
BLACK
6
CONTINUOUS
10
1.65727
20
-0.0830133
11
1.65557
21
-0.0855678
0
LINE
8
BLACK
6
CONTINUOUS
10
1.65557
20
-0.0855678
11
1.65301
21
-0.0872746
0
LINE
8
BLACK
6
CONTINUOUS
10
1.65301
20
-0.0872746
11
1.65
21
-0.087874
0
LINE
8
BLACK
6
CONTINUOUS
10
1.65
20
-0.087874
11
1.59
21
-0.087874
0
LINE
8
BLACK
6
CONTINUOUS
10
1.59
20
-0.087874
11
1.58699
21
-0.0872746
0
LINE
8
BLACK
6
CONTINUOUS
10
1.58699
20
-0.0872746
11
1.58443
21
-0.0855678
0
LINE
8
BLACK
6
CONTINUOUS
10
1.58443
20
-0.0855678
11
1.58273
21
-0.0830133
0
LINE
8
BLACK
6
CONTINUOUS
10
1.58273
20
-0.0830133
11
1.58213
21
-0.08
0
LINE
8
BLACK
6
CONTINUOUS
10
1.58213
20
-0.08
11
1.58213
21
-0.02
0
LINE
8
BLACK
6
CONTINUOUS
10
1.58213
20
-0.02
11
1.58273
21
-0.0169867
0
LINE
8
BLACK
6
CONTINUOUS
10
1.58273
20
-0.0169867
11
1.58443
21
-0.0144322
0
LINE
8
BLACK
6
CONTINUOUS
10
1.58443
20
-0.0144322
11
1.58699
21
-0.0127254
0
LINE
8
BLACK
6
CONTINUOUS
10
1.58699
20
-0.0127254
11
1.59
21
-0.012126
0
LINE
8
BLACK
6
CONTINUOUS
10
1.59
20
-0.012126
11
1.65
21
-0.012126
0
LINE
8
BLACK
6
CONTINUOUS
10
1.65
20
-0.012126
11
1.65301
21
-0.0127254
0
LINE
8
BLACK
6
CONTINUOUS
10
1.55301
20
-0.0127254
11
1.55557
21
-0.0144322
0
LINE
8
BLACK
6
CONTINUOUS
10
1.55557
20
-0.0144322
11
1.55727
21
-0.0169867
0
LINE
8
BLACK
6
CONTINUOUS
10
1.55727
20
-0.0169867
11
1.55787
21
-0.02
0
LINE
8
BLACK
6
CONTINUOUS
10
1.55787
20
-0.02
11
1.55787
21
-0.08
0
LINE
8
BLACK
6
CONTINUOUS
10
1.55787
20
-0.08
11
1.55727
21
-0.0830133
0
LINE
8
BLACK
6
CONTINUOUS
10
1.55727
20
-0.0830133
11
1.55557
21
-0.0855678
0
LINE
8
BLACK
6
CONTINUOUS
10
1.55557
20
-0.0855678
11
1.55301
21
-0.0872746
0
LINE
8
BLACK
6
CONTINUOUS
10
1.55301
20
-0.0872746
11
1.55
21
-0.087874
0
LINE
8
BLACK
6
CONTINUOUS
10
1.55
20
-0.087874
11
1.49
21
-0.087874
0
LINE
8
BLACK
6
CONTINUOUS
10
1.49
20
-0.087874
11
1.48699
21
-0.0872746
0
LINE
8
BLACK
6
CONTINUOUS
10
1.48699
20
-0.0872746
11
1.48443
21
-0.0855678
0
LINE
8
BLACK
6
CONTINUOUS
10
1.48443
20
-0.0855678
11
1.48273
21
-0.0830133
0
LINE
8
BLACK
6
CONTINUOUS
10
1.48273
20
-0.0830133
11
1.48213
21
-0.08
0
LINE
8
BLACK
6
CONTINUOUS
10
1.48213
20
-0.08
11
1.48213
21
-0.02
0
LINE
8
BLACK
6
CONTINUOUS
10
1.48213
20
-0.02
11
1.48273
21
-0.0169867
0
LINE
8
BLACK
6
CONTINUOUS
10
1.48273
20
-0.0169867
11
1.48443
21
-0.0144322
0
LINE
8
BLACK
6
CONTINUOUS
10
1.48443
20
-0.0144322
11
1.48699
21
-0.0127254
0
LINE
8
BLACK
6
CONTINUOUS
10
1.48699
20
-0.0127254
11
1.49
21
-0.012126
0
LINE
8
BLACK
6
CONTINUOUS
10
1.49
20
-0.012126
11
1.55
21
-0.012126
0
LINE
8
BLACK
6
CONTINUOUS
10
1.55
20
-0.012126
11
1.55301
21
-0.0127254
0
LINE
8
BLACK
6
CONTINUOUS
10
1.75301
20
-0.0127254
11
1.75557
21
-0.0144322
0
LINE
8
BLACK
6
CONTINUOUS
10
1.75557
20
-0.0144322
11
1.75727
21
-0.0169867
0
LINE
8
BLACK
6
CONTINUOUS
10
1.75727
20
-0.0169867
11
1.75787
21
-0.02
0
LINE
8
BLACK
6
CONTINUOUS
10
1.75787
20
-0.02
11
1.75787
21
-0.08
0
LINE
8
BLACK
6
CONTINUOUS
10
1.75787
20
-0.08
11
1.75727
21
-0.0830133
0
LINE
8
BLACK
6
CONTINUOUS
10
1.75727
20
-0.0830133
11
1.75557
21
-0.0855678
0
LINE
8
BLACK
6
CONTINUOUS
10
1.75557
20
-0.0855678
11
1.75301
21
-0.0872746
0
LINE
8
BLACK
6
CONTINUOUS
10
1.75301
20
-0.0872746
11
1.75
21
-0.087874
0
LINE
8
BLACK
6
CONTINUOUS
10
1.75
20
-0.087874
11
1.69
21
-0.087874
0
LINE
8
BLACK
6
CONTINUOUS
10
1.69
20
-0.087874
11
1.68699
21
-0.0872746
0
LINE
8
BLACK
6
CONTINUOUS
10
1.68699
20
-0.0872746
11
1.68443
21
-0.0855678
0
LINE
8
BLACK
6
CONTINUOUS
10
1.68443
20
-0.0855678
11
1.68273
21
-0.0830133
0
LINE
8
BLACK
6
CONTINUOUS
10
1.68273
20
-0.0830133
11
1.68213
21
-0.08
0
LINE
8
BLACK
6
CONTINUOUS
10
1.68213
20
-0.08
11
1.68213
21
-0.02
0
LINE
8
BLACK
6
CONTINUOUS
10
1.68213
20
-0.02
11
1.68273
21
-0.0169867
0
LINE
8
BLACK
6
CONTINUOUS
10
1.68273
20
-0.0169867
11
1.68443
21
-0.0144322
0
LINE
8
BLACK
6
CONTINUOUS
10
1.68443
20
-0.0144322
11
1.68699
21
-0.0127254
0
LINE
8
BLACK
6
CONTINUOUS
10
1.68699
20
-0.0127254
11
1.69
21
-0.012126
0
LINE
8
BLACK
6
CONTINUOUS
10
1.69
20
-0.012126
11
1.75
21
-0.012126
0
LINE
8
BLACK
6
CONTINUOUS
10
1.75
20
-0.012126
11
1.75301
21
-0.0127254
0
LINE
8
BLACK
6
CONTINUOUS
10
1.25301
20
-0.0127254
11
1.25557
21
-0.0144322
0
LINE
8
BLACK
6
CONTINUOUS
10
1.25557
20
-0.0144322
11
1.25727
21
-0.0169867
0
LINE
8
BLACK
6
CONTINUOUS
10
1.25727
20
-0.0169867
11
1.25787
21
-0.02
0
LINE
8
BLACK
6
CONTINUOUS
10
1.25787
20
-0.02
11
1.25787
21
-0.08
0
LINE
8
BLACK
6
CONTINUOUS
10
1.25787
20
-0.08
11
1.25727
21
-0.0830133
0
LINE
8
BLACK
6
CONTINUOUS
10
1.25727
20
-0.0830133
11
1.25557
21
-0.0855678
0
LINE
8
BLACK
6
CONTINUOUS
10
1.25557
20
-0.0855678
11
1.25301
21
-0.0872746
0
LINE
8
BLACK
6
CONTINUOUS
10
1.25301
20
-0.0872746
11
1.25
21
-0.087874
0
LINE
8
BLACK
6
CONTINUOUS
10
1.25
20
-0.087874
11
1.19
21
-0.087874
0
LINE
8
BLACK
6
CONTINUOUS
10
1.19
20
-0.087874
11
1.18699
21
-0.0872746
0
LINE
8
BLACK
6
CONTINUOUS
10
1.18699
20
-0.0872746
11
1.18443
21
-0.0855678
0
LINE
8
BLACK
6
CONTINUOUS
10
1.18443
20
-0.0855678
11
1.18273
21
-0.0830133
0
LINE
8
BLACK
6
CONTINUOUS
10
1.18273
20
-0.0830133
11
1.18213
21
-0.08
0
LINE
8
BLACK
6
CONTINUOUS
10
1.18213
20
-0.08
11
1.18213
21
-0.02
0
LINE
8
BLACK
6
CONTINUOUS
10
1.18213
20
-0.02
11
1.18273
21
-0.0169867
0
LINE
8
BLACK
6
CONTINUOUS
10
1.18273
20
-0.0169867
11
1.18443
21
-0.0144322
0
LINE
8
BLACK
6
CONTINUOUS
10
1.18443
20
-0.0144322
11
1.18699
21
-0.0127254
0
LINE
8
BLACK
6
CONTINUOUS
10
1.18699
20
-0.0127254
11
1.19
21
-0.012126
0
LINE
8
BLACK
6
CONTINUOUS
10
1.19
20
-0.012126
11
1.25
21
-0.012126
0
LINE
8
BLACK
6
CONTINUOUS
10
1.25
20
-0.012126
11
1.25301
21
-0.0127254
0
LINE
8
BLACK
6
CONTINUOUS
10
1.35301
20
-0.0127254
11
1.35557
21
-0.0144322
0
LINE
8
BLACK
6
CONTINUOUS
10
1.35557
20
-0.0144322
11
1.35727
21
-0.0169867
0
LINE
8
BLACK
6
CONTINUOUS
10
1.35727
20
-0.0169867
11
1.35787
21
-0.02
0
LINE
8
BLACK
6
CONTINUOUS
10
1.35787
20
-0.02
11
1.35787
21
-0.08
0
LINE
8
BLACK
6
CONTINUOUS
10
1.35787
20
-0.08
11
1.35727
21
-0.0830133
0
LINE
8
BLACK
6
CONTINUOUS
10
1.35727
20
-0.0830133
11
1.35557
21
-0.0855678
0
LINE
8
BLACK
6
CONTINUOUS
10
1.35557
20
-0.0855678
11
1.35301
21
-0.0872746
0
LINE
8
BLACK
6
CONTINUOUS
10
1.35301
20
-0.0872746
11
1.35
21
-0.087874
0
LINE
8
BLACK
6
CONTINUOUS
10
1.35
20
-0.087874
11
1.29
21
-0.087874
0
LINE
8
BLACK
6
CONTINUOUS
10
1.29
20
-0.087874
11
1.28699
21
-0.0872746
0
LINE
8
BLACK
6
CONTINUOUS
10
1.28699
20
-0.0872746
11
1.28443
21
-0.0855678
0
LINE
8
BLACK
6
CONTINUOUS
10
1.28443
20
-0.0855678
11
1.28273
21
-0.0830133
0
LINE
8
BLACK
6
CONTINUOUS
10
1.28273
20
-0.0830133
11
1.28213
21
-0.08
0
LINE
8
BLACK
6
CONTINUOUS
10
1.28213
20
-0.08
11
1.28213
21
-0.02
0
LINE
8
BLACK
6
CONTINUOUS
10
1.28213
20
-0.02
11
1.28273
21
-0.0169867
0
LINE
8
BLACK
6
CONTINUOUS
10
1.28273
20
-0.0169867
11
1.28443
21
-0.0144322
0
LINE
8
BLACK
6
CONTINUOUS
10
1.28443
20
-0.0144322
11
1.28699
21
-0.0127254
0
LINE
8
BLACK
6
CONTINUOUS
10
1.28699
20
-0.0127254
11
1.29
21
-0.012126
0
LINE
8
BLACK
6
CONTINUOUS
10
1.29
20
-0.012126
11
1.35
21
-0.012126
0
LINE
8
BLACK
6
CONTINUOUS
10
1.35
20
-0.012126
11
1.35301
21
-0.0127254
0
LINE
8
BLACK
6
CONTINUOUS
10
0.633013
20
-0.0127254
11
0.635568
21
-0.0144322
0
LINE
8
BLACK
6
CONTINUOUS
10
0.635568
20
-0.0144322
11
0.637275
21
-0.0169867
0
LINE
8
BLACK
6
CONTINUOUS
10
0.637275
20
-0.0169867
11
0.637874
21
-0.02
0
LINE
8
BLACK
6
CONTINUOUS
10
0.637874
20
-0.02
11
0.637874
21
-0.08
0
LINE
8
BLACK
6
CONTINUOUS
10
0.637874
20
-0.08
11
0.637275
21
-0.0830133
0
LINE
8
BLACK
6
CONTINUOUS
10
0.637275
20
-0.0830133
11
0.635568
21
-0.0855678
0
LINE
8
BLACK
6
CONTINUOUS
10
0.635568
20
-0.0855678
11
0.633013
21
-0.0872746
0
LINE
8
BLACK
6
CONTINUOUS
10
0.633013
20
-0.0872746
11
0.63
21
-0.087874
0
LINE
8
BLACK
6
CONTINUOUS
10
0.63
20
-0.087874
11
0.57
21
-0.087874
0
LINE
8
BLACK
6
CONTINUOUS
10
0.57
20
-0.087874
11
0.566987
21
-0.0872746
0
LINE
8
BLACK
6
CONTINUOUS
10
0.566987
20
-0.0872746
11
0.564432
21
-0.0855678
0
LINE
8
BLACK
6
CONTINUOUS
10
0.564432
20
-0.0855678
11
0.562725
21
-0.0830133
0
LINE
8
BLACK
6
CONTINUOUS
10
0.562725
20
-0.0830133
11
0.562126
21
-0.08
0
LINE
8
BLACK
6
CONTINUOUS
10
0.562126
20
-0.08
11
0.562126
21
-0.02
0
LINE
8
BLACK
6
CONTINUOUS
10
0.562126
20
-0.02
11
0.562725
21
-0.0169867
0
LINE
8
BLACK
6
CONTINUOUS
10
0.562725
20
-0.0169867
11
0.564432
21
-0.0144322
0
LINE
8
BLACK
6
CONTINUOUS
10
0.564432
20
-0.0144322
11
0.566987
21
-0.0127254
0
LINE
8
BLACK
6
CONTINUOUS
10
0.566987
20
-0.0127254
11
0.57
21
-0.012126
0
LINE
8
BLACK
6
CONTINUOUS
10
0.57
20
-0.012126
11
0.63
21
-0.012126
0
LINE
8
BLACK
6
CONTINUOUS
10
0.63
20
-0.012126
11
0.633013
21
-0.0127254
0
LINE
8
BLACK
6
CONTINUOUS
10
0.833013
20
-0.0127254
11
0.835568
21
-0.0144322
0
LINE
8
BLACK
6
CONTINUOUS
10
0.835568
20
-0.0144322
11
0.837275
21
-0.0169867
0
LINE
8
BLACK
6
CONTINUOUS
10
0.837275
20
-0.0169867
11
0.837874
21
-0.02
0
LINE
8
BLACK
6
CONTINUOUS
10
0.837874
20
-0.02
11
0.837874
21
-0.08
0
LINE
8
BLACK
6
CONTINUOUS
10
0.837874
20
-0.08
11
0.837275
21
-0.0830133
0
LINE
8
BLACK
6
CONTINUOUS
10
0.837275
20
-0.0830133
11
0.835568
21
-0.0855678
0
LINE
8
BLACK
6
CONTINUOUS
10
0.835568
20
-0.0855678
11
0.833013
21
-0.0872746
0
LINE
8
BLACK
6
CONTINUOUS
10
0.833013
20
-0.0872746
11
0.83
21
-0.087874
0
LINE
8
BLACK
6
CONTINUOUS
10
0.83
20
-0.087874
11
0.77
21
-0.087874
0
LINE
8
BLACK
6
CONTINUOUS
10
0.77
20
-0.087874
11
0.766987
21
-0.0872746
0
LINE
8
BLACK
6
CONTINUOUS
10
0.766987
20
-0.0872746
11
0.764432
21
-0.0855678
0
LINE
8
BLACK
6
CONTINUOUS
10
0.764432
20
-0.0855678
11
0.762725
21
-0.0830133
0
LINE
8
BLACK
6
CONTINUOUS
10
0.762725
20
-0.0830133
11
0.762126
21
-0.08
0
LINE
8
BLACK
6
CONTINUOUS
10
0.762126
20
-0.08
11
0.762126
21
-0.02
0
LINE
8
BLACK
6
CONTINUOUS
10
0.762126
20
-0.02
11
0.762725
21
-0.0169867
0
LINE
8
BLACK
6
CONTINUOUS
10
0.762725
20
-0.0169867
11
0.764432
21
-0.0144322
0
LINE
8
BLACK
6
CONTINUOUS
10
0.764432
20
-0.0144322
11
0.766987
21
-0.0127254
0
LINE
8
BLACK
6
CONTINUOUS
10
0.766987
20
-0.0127254
11
0.77
21
-0.012126
0
LINE
8
BLACK
6
CONTINUOUS
10
0.77
20
-0.012126
11
0.83
21
-0.012126
0
LINE
8
BLACK
6
CONTINUOUS
10
0.83
20
-0.012126
11
0.833013
21
-0.0127254
0
LINE
8
BLACK
6
CONTINUOUS
10
0.733013
20
-0.0127254
11
0.735568
21
-0.0144322
0
LINE
8
BLACK
6
CONTINUOUS
10
0.735568
20
-0.0144322
11
0.737275
21
-0.0169867
0
LINE
8
BLACK
6
CONTINUOUS
10
0.737275
20
-0.0169867
11
0.737874
21
-0.02
0
LINE
8
BLACK
6
CONTINUOUS
10
0.737874
20
-0.02
11
0.737874
21
-0.08
0
LINE
8
BLACK
6
CONTINUOUS
10
0.737874
20
-0.08
11
0.737275
21
-0.0830133
0
LINE
8
BLACK
6
CONTINUOUS
10
0.737275
20
-0.0830133
11
0.735568
21
-0.0855678
0
LINE
8
BLACK
6
CONTINUOUS
10
0.735568
20
-0.0855678
11
0.733013
21
-0.0872746
0
LINE
8
BLACK
6
CONTINUOUS
10
0.733013
20
-0.0872746
11
0.73
21
-0.087874
0
LINE
8
BLACK
6
CONTINUOUS
10
0.73
20
-0.087874
11
0.67
21
-0.087874
0
LINE
8
BLACK
6
CONTINUOUS
10
0.67
20
-0.087874
11
0.666987
21
-0.0872746
0
LINE
8
BLACK
6
CONTINUOUS
10
0.666987
20
-0.0872746
11
0.664432
21
-0.0855678
0
LINE
8
BLACK
6
CONTINUOUS
10
0.664432
20
-0.0855678
11
0.662725
21
-0.0830133
0
LINE
8
BLACK
6
CONTINUOUS
10
0.662725
20
-0.0830133
11
0.662126
21
-0.08
0
LINE
8
BLACK
6
CONTINUOUS
10
0.662126
20
-0.08
11
0.662126
21
-0.02
0
LINE
8
BLACK
6
CONTINUOUS
10
0.662126
20
-0.02
11
0.662725
21
-0.0169867
0
LINE
8
BLACK
6
CONTINUOUS
10
0.662725
20
-0.0169867
11
0.664432
21
-0.0144322
0
LINE
8
BLACK
6
CONTINUOUS
10
0.664432
20
-0.0144322
11
0.666987
21
-0.0127254
0
LINE
8
BLACK
6
CONTINUOUS
10
0.666987
20
-0.0127254
11
0.67
21
-0.012126
0
LINE
8
BLACK
6
CONTINUOUS
10
0.67
20
-0.012126
11
0.73
21
-0.012126
0
LINE
8
BLACK
6
CONTINUOUS
10
0.73
20
-0.012126
11
0.733013
21
-0.0127254
0
LINE
8
BLACK
6
CONTINUOUS
10
0.733013
20
0.0872746
11
0.735568
21
0.0855678
0
LINE
8
BLACK
6
CONTINUOUS
10
0.735568
20
0.0855678
11
0.737275
21
0.0830133
0
LINE
8
BLACK
6
CONTINUOUS
10
0.737275
20
0.0830133
11
0.737874
21
0.08
0
LINE
8
BLACK
6
CONTINUOUS
10
0.737874
20
0.08
11
0.737874
21
0.02
0
LINE
8
BLACK
6
CONTINUOUS
10
0.737874
20
0.02
11
0.737275
21
0.0169867
0
LINE
8
BLACK
6
CONTINUOUS
10
0.737275
20
0.0169867
11
0.735568
21
0.0144322
0
LINE
8
BLACK
6
CONTINUOUS
10
0.735568
20
0.0144322
11
0.733013
21
0.0127254
0
LINE
8
BLACK
6
CONTINUOUS
10
0.733013
20
0.0127254
11
0.73
21
0.012126
0
LINE
8
BLACK
6
CONTINUOUS
10
0.73
20
0.012126
11
0.67
21
0.012126
0
LINE
8
BLACK
6
CONTINUOUS
10
0.67
20
0.012126
11
0.666987
21
0.0127254
0
LINE
8
BLACK
6
CONTINUOUS
10
0.666987
20
0.0127254
11
0.664432
21
0.0144322
0
LINE
8
BLACK
6
CONTINUOUS
10
0.664432
20
0.0144322
11
0.662725
21
0.0169867
0
LINE
8
BLACK
6
CONTINUOUS
10
0.662725
20
0.0169867
11
0.662126
21
0.02
0
LINE
8
BLACK
6
CONTINUOUS
10
0.662126
20
0.02
11
0.662126
21
0.08
0
LINE
8
BLACK
6
CONTINUOUS
10
0.662126
20
0.08
11
0.662725
21
0.0830133
0
LINE
8
BLACK
6
CONTINUOUS
10
0.662725
20
0.0830133
11
0.664432
21
0.0855678
0
LINE
8
BLACK
6
CONTINUOUS
10
0.664432
20
0.0855678
11
0.666987
21
0.0872746
0
LINE
8
BLACK
6
CONTINUOUS
10
0.666987
20
0.0872746
11
0.67
21
0.087874
0
LINE
8
BLACK
6
CONTINUOUS
10
0.67
20
0.087874
11
0.73
21
0.087874
0
LINE
8
BLACK
6
CONTINUOUS
10
0.73
20
0.087874
11
0.733013
21
0.0872746
0
LINE
8
BLACK
6
CONTINUOUS
10
1.55301
20
0.0872746
11
1.55557
21
0.0855678
0
LINE
8
BLACK
6
CONTINUOUS
10
1.55557
20
0.0855678
11
1.55727
21
0.0830133
0
LINE
8
BLACK
6
CONTINUOUS
10
1.55727
20
0.0830133
11
1.55787
21
0.08
0
LINE
8
BLACK
6
CONTINUOUS
10
1.55787
20
0.08
11
1.55787
21
0.02
0
LINE
8
BLACK
6
CONTINUOUS
10
1.55787
20
0.02
11
1.55727
21
0.0169867
0
LINE
8
BLACK
6
CONTINUOUS
10
1.55727
20
0.0169867
11
1.55557
21
0.0144322
0
LINE
8
BLACK
6
CONTINUOUS
10
1.55557
20
0.0144322
11
1.55301
21
0.0127254
0
LINE
8
BLACK
6
CONTINUOUS
10
1.55301
20
0.0127254
11
1.55
21
0.012126
0
LINE
8
BLACK
6
CONTINUOUS
10
1.55
20
0.012126
11
1.49
21
0.012126
0
LINE
8
BLACK
6
CONTINUOUS
10
1.49
20
0.012126
11
1.48699
21
0.0127254
0
LINE
8
BLACK
6
CONTINUOUS
10
1.48699
20
0.0127254
11
1.48443
21
0.0144322
0
LINE
8
BLACK
6
CONTINUOUS
10
1.48443
20
0.0144322
11
1.48273
21
0.0169867
0
LINE
8
BLACK
6
CONTINUOUS
10
1.48273
20
0.0169867
11
1.48213
21
0.02
0
LINE
8
BLACK
6
CONTINUOUS
10
1.48213
20
0.02
11
1.48213
21
0.08
0
LINE
8
BLACK
6
CONTINUOUS
10
1.48213
20
0.08
11
1.48273
21
0.0830133
0
LINE
8
BLACK
6
CONTINUOUS
10
1.48273
20
0.0830133
11
1.48443
21
0.0855678
0
LINE
8
BLACK
6
CONTINUOUS
10
1.48443
20
0.0855678
11
1.48699
21
0.0872746
0
LINE
8
BLACK
6
CONTINUOUS
10
1.48699
20
0.0872746
11
1.49
21
0.087874
0
LINE
8
BLACK
6
CONTINUOUS
10
1.49
20
0.087874
11
1.55
21
0.087874
0
LINE
8
BLACK
6
CONTINUOUS
10
1.55
20
0.087874
11
1.55301
21
0.0872746
0
LINE
8
BLACK
6
CONTINUOUS
10
1.75301
20
0.0872746
11
1.75557
21
0.0855678
0
LINE
8
BLACK
6
CONTINUOUS
10
1.75557
20
0.0855678
11
1.75727
21
0.0830133
0
LINE
8
BLACK
6
CONTINUOUS
10
1.75727
20
0.0830133
11
1.75787
21
0.08
0
LINE
8
BLACK
6
CONTINUOUS
10
1.75787
20
0.08
11
1.75787
21
0.02
0
LINE
8
BLACK
6
CONTINUOUS
10
1.75787
20
0.02
11
1.75727
21
0.0169867
0
LINE
8
BLACK
6
CONTINUOUS
10
1.75727
20
0.0169867
11
1.75557
21
0.0144322
0
LINE
8
BLACK
6
CONTINUOUS
10
1.75557
20
0.0144322
11
1.75301
21
0.0127254
0
LINE
8
BLACK
6
CONTINUOUS
10
1.75301
20
0.0127254
11
1.75
21
0.012126
0
LINE
8
BLACK
6
CONTINUOUS
10
1.75
20
0.012126
11
1.69
21
0.012126
0
LINE
8
BLACK
6
CONTINUOUS
10
1.69
20
0.012126
11
1.68699
21
0.0127254
0
LINE
8
BLACK
6
CONTINUOUS
10
1.68699
20
0.0127254
11
1.68443
21
0.0144322
0
LINE
8
BLACK
6
CONTINUOUS
10
1.68443
20
0.0144322
11
1.68273
21
0.0169867
0
LINE
8
BLACK
6
CONTINUOUS
10
1.68273
20
0.0169867
11
1.68213
21
0.02
0
LINE
8
BLACK
6
CONTINUOUS
10
1.68213
20
0.02
11
1.68213
21
0.08
0
LINE
8
BLACK
6
CONTINUOUS
10
1.68213
20
0.08
11
1.68273
21
0.0830133
0
LINE
8
BLACK
6
CONTINUOUS
10
1.68273
20
0.0830133
11
1.68443
21
0.0855678
0
LINE
8
BLACK
6
CONTINUOUS
10
1.68443
20
0.0855678
11
1.68699
21
0.0872746
0
LINE
8
BLACK
6
CONTINUOUS
10
1.68699
20
0.0872746
11
1.69
21
0.087874
0
LINE
8
BLACK
6
CONTINUOUS
10
1.69
20
0.087874
11
1.75
21
0.087874
0
LINE
8
BLACK
6
CONTINUOUS
10
1.75
20
0.087874
11
1.75301
21
0.0872746
0
LINE
8
BLACK
6
CONTINUOUS
10
1.65301
20
0.0872746
11
1.65557
21
0.0855678
0
LINE
8
BLACK
6
CONTINUOUS
10
1.65557
20
0.0855678
11
1.65727
21
0.0830133
0
LINE
8
BLACK
6
CONTINUOUS
10
1.65727
20
0.0830133
11
1.65787
21
0.08
0
LINE
8
BLACK
6
CONTINUOUS
10
1.65787
20
0.08
11
1.65787
21
0.02
0
LINE
8
BLACK
6
CONTINUOUS
10
1.65787
20
0.02
11
1.65727
21
0.0169867
0
LINE
8
BLACK
6
CONTINUOUS
10
1.65727
20
0.0169867
11
1.65557
21
0.0144322
0
LINE
8
BLACK
6
CONTINUOUS
10
1.65557
20
0.0144322
11
1.65301
21
0.0127254
0
LINE
8
BLACK
6
CONTINUOUS
10
1.65301
20
0.0127254
11
1.65
21
0.012126
0
LINE
8
BLACK
6
CONTINUOUS
10
1.65
20
0.012126
11
1.59
21
0.012126
0
LINE
8
BLACK
6
CONTINUOUS
10
1.59
20
0.012126
11
1.58699
21
0.0127254
0
LINE
8
BLACK
6
CONTINUOUS
10
1.58699
20
0.0127254
11
1.58443
21
0.0144322
0
LINE
8
BLACK
6
CONTINUOUS
10
1.58443
20
0.0144322
11
1.58273
21
0.0169867
0
LINE
8
BLACK
6
CONTINUOUS
10
1.58273
20
0.0169867
11
1.58213
21
0.02
0
LINE
8
BLACK
6
CONTINUOUS
10
1.58213
20
0.02
11
1.58213
21
0.08
0
LINE
8
BLACK
6
CONTINUOUS
10
1.58213
20
0.08
11
1.58273
21
0.0830133
0
LINE
8
BLACK
6
CONTINUOUS
10
1.58273
20
0.0830133
11
1.58443
21
0.0855678
0
LINE
8
BLACK
6
CONTINUOUS
10
1.58443
20
0.0855678
11
1.58699
21
0.0872746
0
LINE
8
BLACK
6
CONTINUOUS
10
1.58699
20
0.0872746
11
1.59
21
0.087874
0
LINE
8
BLACK
6
CONTINUOUS
10
1.59
20
0.087874
11
1.65
21
0.087874
0
LINE
8
BLACK
6
CONTINUOUS
10
1.65
20
0.087874
11
1.65301
21
0.0872746
0
LINE
8
BLACK
6
CONTINUOUS
10
1.25301
20
0.0872746
11
1.25557
21
0.0855678
0
LINE
8
BLACK
6
CONTINUOUS
10
1.25557
20
0.0855678
11
1.25727
21
0.0830133
0
LINE
8
BLACK
6
CONTINUOUS
10
1.25727
20
0.0830133
11
1.25787
21
0.08
0
LINE
8
BLACK
6
CONTINUOUS
10
1.25787
20
0.08
11
1.25787
21
0.02
0
LINE
8
BLACK
6
CONTINUOUS
10
1.25787
20
0.02
11
1.25727
21
0.0169867
0
LINE
8
BLACK
6
CONTINUOUS
10
1.25727
20
0.0169867
11
1.25557
21
0.0144322
0
LINE
8
BLACK
6
CONTINUOUS
10
1.25557
20
0.0144322
11
1.25301
21
0.0127254
0
LINE
8
BLACK
6
CONTINUOUS
10
1.25301
20
0.0127254
11
1.25
21
0.012126
0
LINE
8
BLACK
6
CONTINUOUS
10
1.25
20
0.012126
11
1.19
21
0.012126
0
LINE
8
BLACK
6
CONTINUOUS
10
1.19
20
0.012126
11
1.18699
21
0.0127254
0
LINE
8
BLACK
6
CONTINUOUS
10
1.18699
20
0.0127254
11
1.18443
21
0.0144322
0
LINE
8
BLACK
6
CONTINUOUS
10
1.18443
20
0.0144322
11
1.18273
21
0.0169867
0
LINE
8
BLACK
6
CONTINUOUS
10
1.18273
20
0.0169867
11
1.18213
21
0.02
0
LINE
8
BLACK
6
CONTINUOUS
10
1.18213
20
0.02
11
1.18213
21
0.08
0
LINE
8
BLACK
6
CONTINUOUS
10
1.18213
20
0.08
11
1.18273
21
0.0830133
0
LINE
8
BLACK
6
CONTINUOUS
10
1.18273
20
0.0830133
11
1.18443
21
0.0855678
0
LINE
8
BLACK
6
CONTINUOUS
10
1.18443
20
0.0855678
11
1.18699
21
0.0872746
0
LINE
8
BLACK
6
CONTINUOUS
10
1.18699
20
0.0872746
11
1.19
21
0.087874
0
LINE
8
BLACK
6
CONTINUOUS
10
1.19
20
0.087874
11
1.25
21
0.087874
0
LINE
8
BLACK
6
CONTINUOUS
10
1.25
20
0.087874
11
1.25301
21
0.0872746
0
LINE
8
BLACK
6
CONTINUOUS
10
1.35301
20
0.0872746
11
1.35557
21
0.0855678
0
LINE
8
BLACK
6
CONTINUOUS
10
1.35557
20
0.0855678
11
1.35727
21
0.0830133
0
LINE
8
BLACK
6
CONTINUOUS
10
1.35727
20
0.0830133
11
1.35787
21
0.08
0
LINE
8
BLACK
6
CONTINUOUS
10
1.35787
20
0.08
11
1.35787
21
0.02
0
LINE
8
BLACK
6
CONTINUOUS
10
1.35787
20
0.02
11
1.35727
21
0.0169867
0
LINE
8
BLACK
6
CONTINUOUS
10
1.35727
20
0.0169867
11
1.35557
21
0.0144322
0
LINE
8
BLACK
6
CONTINUOUS
10
1.35557
20
0.0144322
11
1.35301
21
0.0127254
0
LINE
8
BLACK
6
CONTINUOUS
10
1.35301
20
0.0127254
11
1.35
21
0.012126
0
LINE
8
BLACK
6
CONTINUOUS
10
1.35
20
0.012126
11
1.29
21
0.012126
0
LINE
8
BLACK
6
CONTINUOUS
10
1.29
20
0.012126
11
1.28699
21
0.0127254
0
LINE
8
BLACK
6
CONTINUOUS
10
1.28699
20
0.0127254
11
1.28443
21
0.0144322
0
LINE
8
BLACK
6
CONTINUOUS
10
1.28443
20
0.0144322
11
1.28273
21
0.0169867
0
LINE
8
BLACK
6
CONTINUOUS
10
1.28273
20
0.0169867
11
1.28213
21
0.02
0
LINE
8
BLACK
6
CONTINUOUS
10
1.28213
20
0.02
11
1.28213
21
0.08
0
LINE
8
BLACK
6
CONTINUOUS
10
1.28213
20
0.08
11
1.28273
21
0.0830133
0
LINE
8
BLACK
6
CONTINUOUS
10
1.28273
20
0.0830133
11
1.28443
21
0.0855678
0
LINE
8
BLACK
6
CONTINUOUS
10
1.28443
20
0.0855678
11
1.28699
21
0.0872746
0
LINE
8
BLACK
6
CONTINUOUS
10
1.28699
20
0.0872746
11
1.29
21
0.087874
0
LINE
8
BLACK
6
CONTINUOUS
10
1.29
20
0.087874
11
1.35
21
0.087874
0
LINE
8
BLACK
6
CONTINUOUS
10
1.35
20
0.087874
11
1.35301
21
0.0872746
0
LINE
8
BLACK
6
CONTINUOUS
10
1.15301
20
0.0872746
11
1.15557
21
0.0855678
0
LINE
8
BLACK
6
CONTINUOUS
10
1.15557
20
0.0855678
11
1.15727
21
0.0830133
0
LINE
8
BLACK
6
CONTINUOUS
10
1.15727
20
0.0830133
11
1.15787
21
0.08
0
LINE
8
BLACK
6
CONTINUOUS
10
1.15787
20
0.08
11
1.15787
21
0.02
0
LINE
8
BLACK
6
CONTINUOUS
10
1.15787
20
0.02
11
1.15727
21
0.0169867
0
LINE
8
BLACK
6
CONTINUOUS
10
1.15727
20
0.0169867
11
1.15557
21
0.0144322
0
LINE
8
BLACK
6
CONTINUOUS
10
1.15557
20
0.0144322
11
1.15301
21
0.0127254
0
LINE
8
BLACK
6
CONTINUOUS
10
1.15301
20
0.0127254
11
1.15
21
0.012126
0
LINE
8
BLACK
6
CONTINUOUS
10
1.15
20
0.012126
11
1.09
21
0.012126
0
LINE
8
BLACK
6
CONTINUOUS
10
1.09
20
0.012126
11
1.08699
21
0.0127254
0
LINE
8
BLACK
6
CONTINUOUS
10
1.08699
20
0.0127254
11
1.08443
21
0.0144322
0
LINE
8
BLACK
6
CONTINUOUS
10
1.08443
20
0.0144322
11
1.08273
21
0.0169867
0
LINE
8
BLACK
6
CONTINUOUS
10
1.08273
20
0.0169867
11
1.08213
21
0.02
0
LINE
8
BLACK
6
CONTINUOUS
10
1.08213
20
0.02
11
1.08213
21
0.08
0
LINE
8
BLACK
6
CONTINUOUS
10
1.08213
20
0.08
11
1.08273
21
0.0830133
0
LINE
8
BLACK
6
CONTINUOUS
10
1.08273
20
0.0830133
11
1.08443
21
0.0855678
0
LINE
8
BLACK
6
CONTINUOUS
10
1.08443
20
0.0855678
11
1.08699
21
0.0872746
0
LINE
8
BLACK
6
CONTINUOUS
10
1.08699
20
0.0872746
11
1.09
21
0.087874
0
LINE
8
BLACK
6
CONTINUOUS
10
1.09
20
0.087874
11
1.15
21
0.087874
0
LINE
8
BLACK
6
CONTINUOUS
10
1.15
20
0.087874
11
1.15301
21
0.0872746
0
LINE
8
BLACK
6
CONTINUOUS
10
0.633013
20
0.0872746
11
0.635568
21
0.0855678
0
LINE
8
BLACK
6
CONTINUOUS
10
0.635568
20
0.0855678
11
0.637275
21
0.0830133
0
LINE
8
BLACK
6
CONTINUOUS
10
0.637275
20
0.0830133
11
0.637874
21
0.08
0
LINE
8
BLACK
6
CONTINUOUS
10
0.637874
20
0.08
11
0.637874
21
0.02
0
LINE
8
BLACK
6
CONTINUOUS
10
0.637874
20
0.02
11
0.637275
21
0.0169867
0
LINE
8
BLACK
6
CONTINUOUS
10
0.637275
20
0.0169867
11
0.635568
21
0.0144322
0
LINE
8
BLACK
6
CONTINUOUS
10
0.635568
20
0.0144322
11
0.633013
21
0.0127254
0
LINE
8
BLACK
6
CONTINUOUS
10
0.633013
20
0.0127254
11
0.63
21
0.012126
0
LINE
8
BLACK
6
CONTINUOUS
10
0.63
20
0.012126
11
0.57
21
0.012126
0
LINE
8
BLACK
6
CONTINUOUS
10
0.57
20
0.012126
11
0.566987
21
0.0127254
0
LINE
8
BLACK
6
CONTINUOUS
10
0.566987
20
0.0127254
11
0.564432
21
0.0144322
0
LINE
8
BLACK
6
CONTINUOUS
10
0.564432
20
0.0144322
11
0.562725
21
0.0169867
0
LINE
8
BLACK
6
CONTINUOUS
10
0.562725
20
0.0169867
11
0.562126
21
0.02
0
LINE
8
BLACK
6
CONTINUOUS
10
0.562126
20
0.02
11
0.562126
21
0.08
0
LINE
8
BLACK
6
CONTINUOUS
10
0.562126
20
0.08
11
0.562725
21
0.0830133
0
LINE
8
BLACK
6
CONTINUOUS
10
0.562725
20
0.0830133
11
0.564432
21
0.0855678
0
LINE
8
BLACK
6
CONTINUOUS
10
0.564432
20
0.0855678
11
0.566987
21
0.0872746
0
LINE
8
BLACK
6
CONTINUOUS
10
0.566987
20
0.0872746
11
0.57
21
0.087874
0
LINE
8
BLACK
6
CONTINUOUS
10
0.57
20
0.087874
11
0.63
21
0.087874
0
LINE
8
BLACK
6
CONTINUOUS
10
0.63
20
0.087874
11
0.633013
21
0.0872746
0
LINE
8
BLACK
6
CONTINUOUS
10
0.833013
20
0.0872746
11
0.835568
21
0.0855678
0
LINE
8
BLACK
6
CONTINUOUS
10
0.835568
20
0.0855678
11
0.837275
21
0.0830133
0
LINE
8
BLACK
6
CONTINUOUS
10
0.837275
20
0.0830133
11
0.837874
21
0.08
0
LINE
8
BLACK
6
CONTINUOUS
10
0.837874
20
0.08
11
0.837874
21
0.02
0
LINE
8
BLACK
6
CONTINUOUS
10
0.837874
20
0.02
11
0.837275
21
0.0169867
0
LINE
8
BLACK
6
CONTINUOUS
10
0.837275
20
0.0169867
11
0.835568
21
0.0144322
0
LINE
8
BLACK
6
CONTINUOUS
10
0.835568
20
0.0144322
11
0.833013
21
0.0127254
0
LINE
8
BLACK
6
CONTINUOUS
10
0.833013
20
0.0127254
11
0.83
21
0.012126
0
LINE
8
BLACK
6
CONTINUOUS
10
0.83
20
0.012126
11
0.77
21
0.012126
0
LINE
8
BLACK
6
CONTINUOUS
10
0.77
20
0.012126
11
0.766987
21
0.0127254
0
LINE
8
BLACK
6
CONTINUOUS
10
0.766987
20
0.0127254
11
0.764432
21
0.0144322
0
LINE
8
BLACK
6
CONTINUOUS
10
0.764432
20
0.0144322
11
0.762725
21
0.0169867
0
LINE
8
BLACK
6
CONTINUOUS
10
0.762725
20
0.0169867
11
0.762126
21
0.02
0
LINE
8
BLACK
6
CONTINUOUS
10
0.762126
20
0.02
11
0.762126
21
0.08
0
LINE
8
BLACK
6
CONTINUOUS
10
0.762126
20
0.08
11
0.762725
21
0.0830133
0
LINE
8
BLACK
6
CONTINUOUS
10
0.762725
20
0.0830133
11
0.764432
21
0.0855678
0
LINE
8
BLACK
6
CONTINUOUS
10
0.764432
20
0.0855678
11
0.766987
21
0.0872746
0
LINE
8
BLACK
6
CONTINUOUS
10
0.766987
20
0.0872746
11
0.77
21
0.087874
0
LINE
8
BLACK
6
CONTINUOUS
10
0.77
20
0.087874
11
0.83
21
0.087874
0
LINE
8
BLACK
6
CONTINUOUS
10
0.83
20
0.087874
11
0.833013
21
0.0872746
0
LINE
8
BLACK
6
CONTINUOUS
10
0.933013
20
0.0872746
11
0.935568
21
0.0855678
0
LINE
8
BLACK
6
CONTINUOUS
10
0.935568
20
0.0855678
11
0.937275
21
0.0830133
0
LINE
8
BLACK
6
CONTINUOUS
10
0.937275
20
0.0830133
11
0.937874
21
0.08
0
LINE
8
BLACK
6
CONTINUOUS
10
0.937874
20
0.08
11
0.937874
21
0.02
0
LINE
8
BLACK
6
CONTINUOUS
10
0.937874
20
0.02
11
0.937275
21
0.0169867
0
LINE
8
BLACK
6
CONTINUOUS
10
0.937275
20
0.0169867
11
0.935568
21
0.0144322
0
LINE
8
BLACK
6
CONTINUOUS
10
0.935568
20
0.0144322
11
0.933013
21
0.0127254
0
LINE
8
BLACK
6
CONTINUOUS
10
0.933013
20
0.0127254
11
0.93
21
0.012126
0
LINE
8
BLACK
6
CONTINUOUS
10
0.93
20
0.012126
11
0.87
21
0.012126
0
LINE
8
BLACK
6
CONTINUOUS
10
0.87
20
0.012126
11
0.866987
21
0.0127254
0
LINE
8
BLACK
6
CONTINUOUS
10
0.866987
20
0.0127254
11
0.864432
21
0.0144322
0
LINE
8
BLACK
6
CONTINUOUS
10
0.864432
20
0.0144322
11
0.862725
21
0.0169867
0
LINE
8
BLACK
6
CONTINUOUS
10
0.862725
20
0.0169867
11
0.862126
21
0.02
0
LINE
8
BLACK
6
CONTINUOUS
10
0.862126
20
0.02
11
0.862126
21
0.08
0
LINE
8
BLACK
6
CONTINUOUS
10
0.862126
20
0.08
11
0.862725
21
0.0830133
0
LINE
8
BLACK
6
CONTINUOUS
10
0.862725
20
0.0830133
11
0.864432
21
0.0855678
0
LINE
8
BLACK
6
CONTINUOUS
10
0.864432
20
0.0855678
11
0.866987
21
0.0872746
0
LINE
8
BLACK
6
CONTINUOUS
10
0.866987
20
0.0872746
11
0.87
21
0.087874
0
LINE
8
BLACK
6
CONTINUOUS
10
0.87
20
0.087874
11
0.93
21
0.087874
0
LINE
8
BLACK
6
CONTINUOUS
10
0.93
20
0.087874
11
0.933013
21
0.0872746
0
LINE
8
BLACK
6
CONTINUOUS
10
1.45301
20
0.0872746
11
1.45557
21
0.0855678
0
LINE
8
BLACK
6
CONTINUOUS
10
1.45557
20
0.0855678
11
1.45727
21
0.0830133
0
LINE
8
BLACK
6
CONTINUOUS
10
1.45727
20
0.0830133
11
1.45787
21
0.08
0
LINE
8
BLACK
6
CONTINUOUS
10
1.45787
20
0.08
11
1.45787
21
0.02
0
LINE
8
BLACK
6
CONTINUOUS
10
1.45787
20
0.02
11
1.45727
21
0.0169867
0
LINE
8
BLACK
6
CONTINUOUS
10
1.45727
20
0.0169867
11
1.45557
21
0.0144322
0
LINE
8
BLACK
6
CONTINUOUS
10
1.45557
20
0.0144322
11
1.45301
21
0.0127254
0
LINE
8
BLACK
6
CONTINUOUS
10
1.45301
20
0.0127254
11
1.45
21
0.012126
0
LINE
8
BLACK
6
CONTINUOUS
10
1.45
20
0.012126
11
1.39
21
0.012126
0
LINE
8
BLACK
6
CONTINUOUS
10
1.39
20
0.012126
11
1.38699
21
0.0127254
0
LINE
8
BLACK
6
CONTINUOUS
10
1.38699
20
0.0127254
11
1.38443
21
0.0144322
0
LINE
8
BLACK
6
CONTINUOUS
10
1.38443
20
0.0144322
11
1.38273
21
0.0169867
0
LINE
8
BLACK
6
CONTINUOUS
10
1.38273
20
0.0169867
11
1.38213
21
0.02
0
LINE
8
BLACK
6
CONTINUOUS
10
1.38213
20
0.02
11
1.38213
21
0.08
0
LINE
8
BLACK
6
CONTINUOUS
10
1.38213
20
0.08
11
1.38273
21
0.0830133
0
LINE
8
BLACK
6
CONTINUOUS
10
1.38273
20
0.0830133
11
1.38443
21
0.0855678
0
LINE
8
BLACK
6
CONTINUOUS
10
1.38443
20
0.0855678
11
1.38699
21
0.0872746
0
LINE
8
BLACK
6
CONTINUOUS
10
1.38699
20
0.0872746
11
1.39
21
0.087874
0
LINE
8
BLACK
6
CONTINUOUS
10
1.39
20
0.087874
11
1.45
21
0.087874
0
LINE
8
BLACK
6
CONTINUOUS
10
1.45
20
0.087874
11
1.45301
21
0.0872746
0
LINE
8
BLACK
6
CONTINUOUS
10
0.333013
20
0.0872746
11
0.335568
21
0.0855678
0
LINE
8
BLACK
6
CONTINUOUS
10
0.335568
20
0.0855678
11
0.337275
21
0.0830133
0
LINE
8
BLACK
6
CONTINUOUS
10
0.337275
20
0.0830133
11
0.337874
21
0.08
0
LINE
8
BLACK
6
CONTINUOUS
10
0.337874
20
0.08
11
0.337874
21
0.02
0
LINE
8
BLACK
6
CONTINUOUS
10
0.337874
20
0.02
11
0.337275
21
0.0169867
0
LINE
8
BLACK
6
CONTINUOUS
10
0.337275
20
0.0169867
11
0.335568
21
0.0144322
0
LINE
8
BLACK
6
CONTINUOUS
10
0.335568
20
0.0144322
11
0.333013
21
0.0127254
0
LINE
8
BLACK
6
CONTINUOUS
10
0.333013
20
0.0127254
11
0.33
21
0.012126
0
LINE
8
BLACK
6
CONTINUOUS
10
0.33
20
0.012126
11
0.27
21
0.012126
0
LINE
8
BLACK
6
CONTINUOUS
10
0.27
20
0.012126
11
0.266987
21
0.0127254
0
LINE
8
BLACK
6
CONTINUOUS
10
0.266987
20
0.0127254
11
0.264432
21
0.0144322
0
LINE
8
BLACK
6
CONTINUOUS
10
0.264432
20
0.0144322
11
0.262725
21
0.0169867
0
LINE
8
BLACK
6
CONTINUOUS
10
0.262725
20
0.0169867
11
0.262126
21
0.02
0
LINE
8
BLACK
6
CONTINUOUS
10
0.262126
20
0.02
11
0.262126
21
0.08
0
LINE
8
BLACK
6
CONTINUOUS
10
0.262126
20
0.08
11
0.262725
21
0.0830133
0
LINE
8
BLACK
6
CONTINUOUS
10
0.262725
20
0.0830133
11
0.264432
21
0.0855678
0
LINE
8
BLACK
6
CONTINUOUS
10
0.264432
20
0.0855678
11
0.266987
21
0.0872746
0
LINE
8
BLACK
6
CONTINUOUS
10
0.266987
20
0.0872746
11
0.27
21
0.087874
0
LINE
8
BLACK
6
CONTINUOUS
10
0.27
20
0.087874
11
0.33
21
0.087874
0
LINE
8
BLACK
6
CONTINUOUS
10
0.33
20
0.087874
11
0.333013
21
0.0872746
0
LINE
8
BLACK
6
CONTINUOUS
10
0.533013
20
0.0872746
11
0.535568
21
0.0855678
0
LINE
8
BLACK
6
CONTINUOUS
10
0.535568
20
0.0855678
11
0.537275
21
0.0830133
0
LINE
8
BLACK
6
CONTINUOUS
10
0.537275
20
0.0830133
11
0.537874
21
0.08
0
LINE
8
BLACK
6
CONTINUOUS
10
0.537874
20
0.08
11
0.537874
21
0.02
0
LINE
8
BLACK
6
CONTINUOUS
10
0.537874
20
0.02
11
0.537275
21
0.0169867
0
LINE
8
BLACK
6
CONTINUOUS
10
0.537275
20
0.0169867
11
0.535568
21
0.0144322
0
LINE
8
BLACK
6
CONTINUOUS
10
0.535568
20
0.0144322
11
0.533013
21
0.0127254
0
LINE
8
BLACK
6
CONTINUOUS
10
0.533013
20
0.0127254
11
0.53
21
0.012126
0
LINE
8
BLACK
6
CONTINUOUS
10
0.53
20
0.012126
11
0.47
21
0.012126
0
LINE
8
BLACK
6
CONTINUOUS
10
0.47
20
0.012126
11
0.466987
21
0.0127254
0
LINE
8
BLACK
6
CONTINUOUS
10
0.466987
20
0.0127254
11
0.464432
21
0.0144322
0
LINE
8
BLACK
6
CONTINUOUS
10
0.464432
20
0.0144322
11
0.462725
21
0.0169867
0
LINE
8
BLACK
6
CONTINUOUS
10
0.462725
20
0.0169867
11
0.462126
21
0.02
0
LINE
8
BLACK
6
CONTINUOUS
10
0.462126
20
0.02
11
0.462126
21
0.08
0
LINE
8
BLACK
6
CONTINUOUS
10
0.462126
20
0.08
11
0.462725
21
0.0830133
0
LINE
8
BLACK
6
CONTINUOUS
10
0.462725
20
0.0830133
11
0.464432
21
0.0855678
0
LINE
8
BLACK
6
CONTINUOUS
10
0.464432
20
0.0855678
11
0.466987
21
0.0872746
0
LINE
8
BLACK
6
CONTINUOUS
10
0.466987
20
0.0872746
11
0.47
21
0.087874
0
LINE
8
BLACK
6
CONTINUOUS
10
0.47
20
0.087874
11
0.53
21
0.087874
0
LINE
8
BLACK
6
CONTINUOUS
10
0.53
20
0.087874
11
0.533013
21
0.0872746
0
LINE
8
BLACK
6
CONTINUOUS
10
0.433013
20
0.0872746
11
0.435568
21
0.0855678
0
LINE
8
BLACK
6
CONTINUOUS
10
0.435568
20
0.0855678
11
0.437275
21
0.0830133
0
LINE
8
BLACK
6
CONTINUOUS
10
0.437275
20
0.0830133
11
0.437874
21
0.08
0
LINE
8
BLACK
6
CONTINUOUS
10
0.437874
20
0.08
11
0.437874
21
0.02
0
LINE
8
BLACK
6
CONTINUOUS
10
0.437874
20
0.02
11
0.437275
21
0.0169867
0
LINE
8
BLACK
6
CONTINUOUS
10
0.437275
20
0.0169867
11
0.435568
21
0.0144322
0
LINE
8
BLACK
6
CONTINUOUS
10
0.435568
20
0.0144322
11
0.433013
21
0.0127254
0
LINE
8
BLACK
6
CONTINUOUS
10
0.433013
20
0.0127254
11
0.43
21
0.012126
0
LINE
8
BLACK
6
CONTINUOUS
10
0.43
20
0.012126
11
0.37
21
0.012126
0
LINE
8
BLACK
6
CONTINUOUS
10
0.37
20
0.012126
11
0.366987
21
0.0127254
0
LINE
8
BLACK
6
CONTINUOUS
10
0.366987
20
0.0127254
11
0.364432
21
0.0144322
0
LINE
8
BLACK
6
CONTINUOUS
10
0.364432
20
0.0144322
11
0.362725
21
0.0169867
0
LINE
8
BLACK
6
CONTINUOUS
10
0.362725
20
0.0169867
11
0.362126
21
0.02
0
LINE
8
BLACK
6
CONTINUOUS
10
0.362126
20
0.02
11
0.362126
21
0.08
0
LINE
8
BLACK
6
CONTINUOUS
10
0.362126
20
0.08
11
0.362725
21
0.0830133
0
LINE
8
BLACK
6
CONTINUOUS
10
0.362725
20
0.0830133
11
0.364432
21
0.0855678
0
LINE
8
BLACK
6
CONTINUOUS
10
0.364432
20
0.0855678
11
0.366987
21
0.0872746
0
LINE
8
BLACK
6
CONTINUOUS
10
0.366987
20
0.0872746
11
0.37
21
0.087874
0
LINE
8
BLACK
6
CONTINUOUS
10
0.37
20
0.087874
11
0.43
21
0.087874
0
LINE
8
BLACK
6
CONTINUOUS
10
0.43
20
0.087874
11
0.433013
21
0.0872746
0
LINE
8
BLACK
6
CONTINUOUS
10
0.313013
20
0.437275
11
0.315568
21
0.435568
0
LINE
8
BLACK
6
CONTINUOUS
10
0.315568
20
0.435568
11
0.317275
21
0.433013
0
LINE
8
BLACK
6
CONTINUOUS
10
0.317275
20
0.433013
11
0.317874
21
0.43
0
LINE
8
BLACK
6
CONTINUOUS
10
0.317874
20
0.43
11
0.317874
21
0.37
0
LINE
8
BLACK
6
CONTINUOUS
10
0.317874
20
0.37
11
0.317275
21
0.366987
0
LINE
8
BLACK
6
CONTINUOUS
10
0.317275
20
0.366987
11
0.315568
21
0.364432
0
LINE
8
BLACK
6
CONTINUOUS
10
0.315568
20
0.364432
11
0.313013
21
0.362725
0
LINE
8
BLACK
6
CONTINUOUS
10
0.313013
20
0.362725
11
0.31
21
0.362126
0
LINE
8
BLACK
6
CONTINUOUS
10
0.31
20
0.362126
11
0.25
21
0.362126
0
LINE
8
BLACK
6
CONTINUOUS
10
0.25
20
0.362126
11
0.246987
21
0.362725
0
LINE
8
BLACK
6
CONTINUOUS
10
0.246987
20
0.362725
11
0.244432
21
0.364432
0
LINE
8
BLACK
6
CONTINUOUS
10
0.244432
20
0.364432
11
0.242725
21
0.366987
0
LINE
8
BLACK
6
CONTINUOUS
10
0.242725
20
0.366987
11
0.242126
21
0.37
0
LINE
8
BLACK
6
CONTINUOUS
10
0.242126
20
0.37
11
0.242126
21
0.43
0
LINE
8
BLACK
6
CONTINUOUS
10
0.242126
20
0.43
11
0.242725
21
0.433013
0
LINE
8
BLACK
6
CONTINUOUS
10
0.242725
20
0.433013
11
0.244432
21
0.435568
0
LINE
8
BLACK
6
CONTINUOUS
10
0.244432
20
0.435568
11
0.246987
21
0.437275
0
LINE
8
BLACK
6
CONTINUOUS
10
0.246987
20
0.437275
11
0.25
21
0.437874
0
LINE
8
BLACK
6
CONTINUOUS
10
0.25
20
0.437874
11
0.31
21
0.437874
0
LINE
8
BLACK
6
CONTINUOUS
10
0.31
20
0.437874
11
0.313013
21
0.437275
0
LINE
8
BLACK
6
CONTINUOUS
10
0.573013
20
0.437275
11
0.575568
21
0.435568
0
LINE
8
BLACK
6
CONTINUOUS
10
0.575568
20
0.435568
11
0.577275
21
0.433013
0
LINE
8
BLACK
6
CONTINUOUS
10
0.577275
20
0.433013
11
0.577874
21
0.43
0
LINE
8
BLACK
6
CONTINUOUS
10
0.577874
20
0.43
11
0.577874
21
0.37
0
LINE
8
BLACK
6
CONTINUOUS
10
0.577874
20
0.37
11
0.577275
21
0.366987
0
LINE
8
BLACK
6
CONTINUOUS
10
0.577275
20
0.366987
11
0.575568
21
0.364432
0
LINE
8
BLACK
6
CONTINUOUS
10
0.575568
20
0.364432
11
0.573013
21
0.362725
0
LINE
8
BLACK
6
CONTINUOUS
10
0.573013
20
0.362725
11
0.57
21
0.362126
0
LINE
8
BLACK
6
CONTINUOUS
10
0.57
20
0.362126
11
0.51
21
0.362126
0
LINE
8
BLACK
6
CONTINUOUS
10
0.51
20
0.362126
11
0.506987
21
0.362725
0
LINE
8
BLACK
6
CONTINUOUS
10
0.506987
20
0.362725
11
0.504432
21
0.364432
0
LINE
8
BLACK
6
CONTINUOUS
10
0.504432
20
0.364432
11
0.502725
21
0.366987
0
LINE
8
BLACK
6
CONTINUOUS
10
0.502725
20
0.366987
11
0.502126
21
0.37
0
LINE
8
BLACK
6
CONTINUOUS
10
0.502126
20
0.37
11
0.502126
21
0.43
0
LINE
8
BLACK
6
CONTINUOUS
10
0.502126
20
0.43
11
0.502725
21
0.433013
0
LINE
8
BLACK
6
CONTINUOUS
10
0.502725
20
0.433013
11
0.504432
21
0.435568
0
LINE
8
BLACK
6
CONTINUOUS
10
0.504432
20
0.435568
11
0.506987
21
0.437275
0
LINE
8
BLACK
6
CONTINUOUS
10
0.506987
20
0.437275
11
0.51
21
0.437874
0
LINE
8
BLACK
6
CONTINUOUS
10
0.51
20
0.437874
11
0.57
21
0.437874
0
LINE
8
BLACK
6
CONTINUOUS
10
0.57
20
0.437874
11
0.573013
21
0.437275
0
LINE
8
BLACK
6
CONTINUOUS
10
0.673013
20
0.437275
11
0.675568
21
0.435568
0
LINE
8
BLACK
6
CONTINUOUS
10
0.675568
20
0.435568
11
0.677275
21
0.433013
0
LINE
8
BLACK
6
CONTINUOUS
10
0.677275
20
0.433013
11
0.677874
21
0.43
0
LINE
8
BLACK
6
CONTINUOUS
10
0.677874
20
0.43
11
0.677874
21
0.37
0
LINE
8
BLACK
6
CONTINUOUS
10
0.677874
20
0.37
11
0.677275
21
0.366987
0
LINE
8
BLACK
6
CONTINUOUS
10
0.677275
20
0.366987
11
0.675568
21
0.364432
0
LINE
8
BLACK
6
CONTINUOUS
10
0.675568
20
0.364432
11
0.673013
21
0.362725
0
LINE
8
BLACK
6
CONTINUOUS
10
0.673013
20
0.362725
11
0.67
21
0.362126
0
LINE
8
BLACK
6
CONTINUOUS
10
0.67
20
0.362126
11
0.61
21
0.362126
0
LINE
8
BLACK
6
CONTINUOUS
10
0.61
20
0.362126
11
0.606987
21
0.362725
0
LINE
8
BLACK
6
CONTINUOUS
10
0.606987
20
0.362725
11
0.604432
21
0.364432
0
LINE
8
BLACK
6
CONTINUOUS
10
0.604432
20
0.364432
11
0.602725
21
0.366987
0
LINE
8
BLACK
6
CONTINUOUS
10
0.602725
20
0.366987
11
0.602126
21
0.37
0
LINE
8
BLACK
6
CONTINUOUS
10
0.602126
20
0.37
11
0.602126
21
0.43
0
LINE
8
BLACK
6
CONTINUOUS
10
0.602126
20
0.43
11
0.602725
21
0.433013
0
LINE
8
BLACK
6
CONTINUOUS
10
0.602725
20
0.433013
11
0.604432
21
0.435568
0
LINE
8
BLACK
6
CONTINUOUS
10
0.604432
20
0.435568
11
0.606987
21
0.437275
0
LINE
8
BLACK
6
CONTINUOUS
10
0.606987
20
0.437275
11
0.61
21
0.437874
0
LINE
8
BLACK
6
CONTINUOUS
10
0.61
20
0.437874
11
0.67
21
0.437874
0
LINE
8
BLACK
6
CONTINUOUS
10
0.67
20
0.437874
11
0.673013
21
0.437275
0
LINE
8
BLACK
6
CONTINUOUS
10
0.413013
20
0.437275
11
0.415568
21
0.435568
0
LINE
8
BLACK
6
CONTINUOUS
10
0.415568
20
0.435568
11
0.417275
21
0.433013
0
LINE
8
BLACK
6
CONTINUOUS
10
0.417275
20
0.433013
11
0.417874
21
0.43
0
LINE
8
BLACK
6
CONTINUOUS
10
0.417874
20
0.43
11
0.417874
21
0.37
0
LINE
8
BLACK
6
CONTINUOUS
10
0.417874
20
0.37
11
0.417275
21
0.366987
0
LINE
8
BLACK
6
CONTINUOUS
10
0.417275
20
0.366987
11
0.415568
21
0.364432
0
LINE
8
BLACK
6
CONTINUOUS
10
0.415568
20
0.364432
11
0.413013
21
0.362725
0
LINE
8
BLACK
6
CONTINUOUS
10
0.413013
20
0.362725
11
0.41
21
0.362126
0
LINE
8
BLACK
6
CONTINUOUS
10
0.41
20
0.362126
11
0.35
21
0.362126
0
LINE
8
BLACK
6
CONTINUOUS
10
0.35
20
0.362126
11
0.346987
21
0.362725
0
LINE
8
BLACK
6
CONTINUOUS
10
0.346987
20
0.362725
11
0.344432
21
0.364432
0
LINE
8
BLACK
6
CONTINUOUS
10
0.344432
20
0.364432
11
0.342725
21
0.366987
0
LINE
8
BLACK
6
CONTINUOUS
10
0.342725
20
0.366987
11
0.342126
21
0.37
0
LINE
8
BLACK
6
CONTINUOUS
10
0.342126
20
0.37
11
0.342126
21
0.43
0
LINE
8
BLACK
6
CONTINUOUS
10
0.342126
20
0.43
11
0.342725
21
0.433013
0
LINE
8
BLACK
6
CONTINUOUS
10
0.342725
20
0.433013
11
0.344432
21
0.435568
0
LINE
8
BLACK
6
CONTINUOUS
10
0.344432
20
0.435568
11
0.346987
21
0.437275
0
LINE
8
BLACK
6
CONTINUOUS
10
0.346987
20
0.437275
11
0.35
21
0.437874
0
LINE
8
BLACK
6
CONTINUOUS
10
0.35
20
0.437874
11
0.41
21
0.437874
0
LINE
8
BLACK
6
CONTINUOUS
10
0.41
20
0.437874
11
0.413013
21
0.437275
0
LINE
8
BLACK
6
CONTINUOUS
10
1.45301
20
0.447275
11
1.45557
21
0.445568
0
LINE
8
BLACK
6
CONTINUOUS
10
1.45557
20
0.445568
11
1.45727
21
0.443013
0
LINE
8
BLACK
6
CONTINUOUS
10
1.45727
20
0.443013
11
1.45787
21
0.44
0
LINE
8
BLACK
6
CONTINUOUS
10
1.45787
20
0.44
11
1.45787
21
0.38
0
LINE
8
BLACK
6
CONTINUOUS
10
1.45787
20
0.38
11
1.45727
21
0.376987
0
LINE
8
BLACK
6
CONTINUOUS
10
1.45727
20
0.376987
11
1.45557
21
0.374432
0
LINE
8
BLACK
6
CONTINUOUS
10
1.45557
20
0.374432
11
1.45301
21
0.372725
0
LINE
8
BLACK
6
CONTINUOUS
10
1.45301
20
0.372725
11
1.45
21
0.372126
0
LINE
8
BLACK
6
CONTINUOUS
10
1.45
20
0.372126
11
1.39
21
0.372126
0
LINE
8
BLACK
6
CONTINUOUS
10
1.39
20
0.372126
11
1.38699
21
0.372725
0
LINE
8
BLACK
6
CONTINUOUS
10
1.38699
20
0.372725
11
1.38443
21
0.374432
0
LINE
8
BLACK
6
CONTINUOUS
10
1.38443
20
0.374432
11
1.38273
21
0.376987
0
LINE
8
BLACK
6
CONTINUOUS
10
1.38273
20
0.376987
11
1.38213
21
0.38
0
LINE
8
BLACK
6
CONTINUOUS
10
1.38213
20
0.38
11
1.38213
21
0.44
0
LINE
8
BLACK
6
CONTINUOUS
10
1.38213
20
0.44
11
1.38273
21
0.443013
0
LINE
8
BLACK
6
CONTINUOUS
10
1.38273
20
0.443013
11
1.38443
21
0.445568
0
LINE
8
BLACK
6
CONTINUOUS
10
1.38443
20
0.445568
11
1.38699
21
0.447275
0
LINE
8
BLACK
6
CONTINUOUS
10
1.38699
20
0.447275
11
1.39
21
0.447874
0
LINE
8
BLACK
6
CONTINUOUS
10
1.39
20
0.447874
11
1.45
21
0.447874
0
LINE
8
BLACK
6
CONTINUOUS
10
1.45
20
0.447874
11
1.45301
21
0.447275
0
LINE
8
BLACK
6
CONTINUOUS
10
1.55301
20
0.447275
11
1.55557
21
0.445568
0
LINE
8
BLACK
6
CONTINUOUS
10
1.55557
20
0.445568
11
1.55727
21
0.443013
0
LINE
8
BLACK
6
CONTINUOUS
10
1.55727
20
0.443013
11
1.55787
21
0.44
0
LINE
8
BLACK
6
CONTINUOUS
10
1.55787
20
0.44
11
1.55787
21
0.38
0
LINE
8
BLACK
6
CONTINUOUS
10
1.55787
20
0.38
11
1.55727
21
0.376987
0
LINE
8
BLACK
6
CONTINUOUS
10
1.55727
20
0.376987
11
1.55557
21
0.374432
0
LINE
8
BLACK
6
CONTINUOUS
10
1.55557
20
0.374432
11
1.55301
21
0.372725
0
LINE
8
BLACK
6
CONTINUOUS
10
1.55301
20
0.372725
11
1.55
21
0.372126
0
LINE
8
BLACK
6
CONTINUOUS
10
1.55
20
0.372126
11
1.49
21
0.372126
0
LINE
8
BLACK
6
CONTINUOUS
10
1.49
20
0.372126
11
1.48699
21
0.372725
0
LINE
8
BLACK
6
CONTINUOUS
10
1.48699
20
0.372725
11
1.48443
21
0.374432
0
LINE
8
BLACK
6
CONTINUOUS
10
1.48443
20
0.374432
11
1.48273
21
0.376987
0
LINE
8
BLACK
6
CONTINUOUS
10
1.48273
20
0.376987
11
1.48213
21
0.38
0
LINE
8
BLACK
6
CONTINUOUS
10
1.48213
20
0.38
11
1.48213
21
0.44
0
LINE
8
BLACK
6
CONTINUOUS
10
1.48213
20
0.44
11
1.48273
21
0.443013
0
LINE
8
BLACK
6
CONTINUOUS
10
1.48273
20
0.443013
11
1.48443
21
0.445568
0
LINE
8
BLACK
6
CONTINUOUS
10
1.48443
20
0.445568
11
1.48699
21
0.447275
0
LINE
8
BLACK
6
CONTINUOUS
10
1.48699
20
0.447275
11
1.49
21
0.447874
0
LINE
8
BLACK
6
CONTINUOUS
10
1.49
20
0.447874
11
1.55
21
0.447874
0
LINE
8
BLACK
6
CONTINUOUS
10
1.55
20
0.447874
11
1.55301
21
0.447275
0
LINE
8
BLACK
6
CONTINUOUS
10
1.79301
20
0.447275
11
1.79557
21
0.445568
0
LINE
8
BLACK
6
CONTINUOUS
10
1.79557
20
0.445568
11
1.79727
21
0.443013
0
LINE
8
BLACK
6
CONTINUOUS
10
1.79727
20
0.443013
11
1.79787
21
0.44
0
LINE
8
BLACK
6
CONTINUOUS
10
1.79787
20
0.44
11
1.79787
21
0.38
0
LINE
8
BLACK
6
CONTINUOUS
10
1.79787
20
0.38
11
1.79727
21
0.376987
0
LINE
8
BLACK
6
CONTINUOUS
10
1.79727
20
0.376987
11
1.79557
21
0.374432
0
LINE
8
BLACK
6
CONTINUOUS
10
1.79557
20
0.374432
11
1.79301
21
0.372725
0
LINE
8
BLACK
6
CONTINUOUS
10
1.79301
20
0.372725
11
1.79
21
0.372126
0
LINE
8
BLACK
6
CONTINUOUS
10
1.79
20
0.372126
11
1.73
21
0.372126
0
LINE
8
BLACK
6
CONTINUOUS
10
1.73
20
0.372126
11
1.72699
21
0.372725
0
LINE
8
BLACK
6
CONTINUOUS
10
1.72699
20
0.372725
11
1.72443
21
0.374432
0
LINE
8
BLACK
6
CONTINUOUS
10
1.72443
20
0.374432
11
1.72273
21
0.376987
0
LINE
8
BLACK
6
CONTINUOUS
10
1.72273
20
0.376987
11
1.72213
21
0.38
0
LINE
8
BLACK
6
CONTINUOUS
10
1.72213
20
0.38
11
1.72213
21
0.44
0
LINE
8
BLACK
6
CONTINUOUS
10
1.72213
20
0.44
11
1.72273
21
0.443013
0
LINE
8
BLACK
6
CONTINUOUS
10
1.72273
20
0.443013
11
1.72443
21
0.445568
0
LINE
8
BLACK
6
CONTINUOUS
10
1.72443
20
0.445568
11
1.72699
21
0.447275
0
LINE
8
BLACK
6
CONTINUOUS
10
1.72699
20
0.447275
11
1.73
21
0.447874
0
LINE
8
BLACK
6
CONTINUOUS
10
1.73
20
0.447874
11
1.79
21
0.447874
0
LINE
8
BLACK
6
CONTINUOUS
10
1.79
20
0.447874
11
1.79301
21
0.447275
0
LINE
8
BLACK
6
CONTINUOUS
10
1.69301
20
0.447275
11
1.69557
21
0.445568
0
LINE
8
BLACK
6
CONTINUOUS
10
1.69557
20
0.445568
11
1.69727
21
0.443013
0
LINE
8
BLACK
6
CONTINUOUS
10
1.69727
20
0.443013
11
1.69787
21
0.44
0
LINE
8
BLACK
6
CONTINUOUS
10
1.69787
20
0.44
11
1.69787
21
0.38
0
LINE
8
BLACK
6
CONTINUOUS
10
1.69787
20
0.38
11
1.69727
21
0.376987
0
LINE
8
BLACK
6
CONTINUOUS
10
1.69727
20
0.376987
11
1.69557
21
0.374432
0
LINE
8
BLACK
6
CONTINUOUS
10
1.69557
20
0.374432
11
1.69301
21
0.372725
0
LINE
8
BLACK
6
CONTINUOUS
10
1.69301
20
0.372725
11
1.69
21
0.372126
0
LINE
8
BLACK
6
CONTINUOUS
10
1.69
20
0.372126
11
1.63
21
0.372126
0
LINE
8
BLACK
6
CONTINUOUS
10
1.63
20
0.372126
11
1.62699
21
0.372725
0
LINE
8
BLACK
6
CONTINUOUS
10
1.62699
20
0.372725
11
1.62443
21
0.374432
0
LINE
8
BLACK
6
CONTINUOUS
10
1.62443
20
0.374432
11
1.62273
21
0.376987
0
LINE
8
BLACK
6
CONTINUOUS
10
1.62273
20
0.376987
11
1.62213
21
0.38
0
LINE
8
BLACK
6
CONTINUOUS
10
1.62213
20
0.38
11
1.62213
21
0.44
0
LINE
8
BLACK
6
CONTINUOUS
10
1.62213
20
0.44
11
1.62273
21
0.443013
0
LINE
8
BLACK
6
CONTINUOUS
10
1.62273
20
0.443013
11
1.62443
21
0.445568
0
LINE
8
BLACK
6
CONTINUOUS
10
1.62443
20
0.445568
11
1.62699
21
0.447275
0
LINE
8
BLACK
6
CONTINUOUS
10
1.62699
20
0.447275
11
1.63
21
0.447874
0
LINE
8
BLACK
6
CONTINUOUS
10
1.63
20
0.447874
11
1.69
21
0.447874
0
LINE
8
BLACK
6
CONTINUOUS
10
1.69
20
0.447874
11
1.69301
21
0.447275
0
LINE
8
BLACK
6
CONTINUOUS
10
0.014917
20
1.3251
11
0.0287686
21
1.32266
0
LINE
8
BLACK
6
CONTINUOUS
10
0.0287686
20
1.32266
11
0.0422616
21
1.31868
0
LINE
8
BLACK
6
CONTINUOUS
10
0.0422616
20
1.31868
11
0.0552279
21
1.31323
0
LINE
8
BLACK
6
CONTINUOUS
10
0.0552279
20
1.31323
11
0.0675057
21
1.30637
0
LINE
8
BLACK
6
CONTINUOUS
10
0.0675057
20
1.30637
11
0.0789422
21
1.29818
0
LINE
8
BLACK
6
CONTINUOUS
10
0.0789422
20
1.29818
11
0.0893947
21
1.28877
0
LINE
8
BLACK
6
CONTINUOUS
10
0.0893947
20
1.28877
11
0.098733
21
1.27825
0
LINE
8
BLACK
6
CONTINUOUS
10
0.098733
20
1.27825
11
0.106841
21
1.26676
0
LINE
8
BLACK
6
CONTINUOUS
10
0.106841
20
1.26676
11
0.113617
21
1.25444
0
LINE
8
BLACK
6
CONTINUOUS
10
0.113617
20
1.25444
11
0.118977
21
1.24143
0
LINE
8
BLACK
6
CONTINUOUS
10
0.118977
20
1.24143
11
0.122853
21
1.22791
0
LINE
8
BLACK
6
CONTINUOUS
10
0.122853
20
1.22791
11
0.125199
21
1.21404
0
LINE
8
BLACK
6
CONTINUOUS
10
0.125199
20
1.21404
11
0.125984
21
1.2
0
LINE
8
BLACK
6
CONTINUOUS
10
0.125984
20
1.2
11
0.125935
21
1.19648
0
LINE
8
BLACK
6
CONTINUOUS
10
0.125935
20
1.19648
11
0.124758
21
1.18247
0
LINE
8
BLACK
6
CONTINUOUS
10
0.124758
20
1.18247
11
0.122026
21
1.16867
0
LINE
8
BLACK
6
CONTINUOUS
10
0.122026
20
1.16867
11
0.117773
21
1.15526
0
LINE
8
BLACK
6
CONTINUOUS
10
0.117773
20
1.15526
11
0.112052
21
1.14241
0
LINE
8
BLACK
6
CONTINUOUS
10
0.112052
20
1.14241
11
0.104935
21
1.13028
0
LINE
8
BLACK
6
CONTINUOUS
10
0.104935
20
1.13028
11
0.0965095
21
1.11902
0
LINE
8
BLACK
6
CONTINUOUS
10
0.0965095
20
1.11902
11
0.0868812
21
1.10877
0
LINE
8
BLACK
6
CONTINUOUS
10
0.0868812
20
1.10877
11
0.07617
21
1.09965
0
LINE
8
BLACK
6
CONTINUOUS
10
0.07617
20
1.09965
11
0.0645093
21
1.09178
0
LINE
8
BLACK
6
CONTINUOUS
10
0.0645093
20
1.09178
11
0.0520446
21
1.08527
0
LINE
8
BLACK
6
CONTINUOUS
10
0.0520446
20
1.08527
11
0.0389313
21
1.08018
0
LINE
8
BLACK
6
CONTINUOUS
10
0.0389313
20
1.08018
11
0.0253326
21
1.07659
0
LINE
8
BLACK
6
CONTINUOUS
10
0.0253326
20
1.07659
11
0.0114183
21
1.07453
0
LINE
8
BLACK
6
CONTINUOUS
10
0.0114183
20
1.07453
11
-0.00263843
21
1.07404
0
LINE
8
BLACK
6
CONTINUOUS
10
-0.00263843
20
1.07404
11
-0.0166622
21
1.07512
0
LINE
8
BLACK
6
CONTINUOUS
10
-0.0166622
20
1.07512
11
-0.0304783
21
1.07776
0
LINE
8
BLACK
6
CONTINUOUS
10
-0.0304783
20
1.07776
11
-0.0439146
21
1.08192
0
LINE
8
BLACK
6
CONTINUOUS
10
-0.0439146
20
1.08192
11
-0.0568035
21
1.08755
0
LINE
8
BLACK
6
CONTINUOUS
10
-0.0568035
20
1.08755
11
-0.0689843
21
1.09458
0
LINE
8
BLACK
6
CONTINUOUS
10
-0.0689843
20
1.09458
11
-0.0803054
21
1.10293
0
LINE
8
BLACK
6
CONTINUOUS
10
-0.0803054
20
1.10293
11
-0.0906255
21
1.11248
0
LINE
8
BLACK
6
CONTINUOUS
10
-0.0906255
20
1.11248
11
-0.099816
21
1.12313
0
LINE
8
BLACK
6
CONTINUOUS
10
-0.099816
20
1.12313
11
-0.107762
21
1.13474
0
LINE
8
BLACK
6
CONTINUOUS
10
-0.107762
20
1.13474
11
-0.114366
21
1.14716
0
LINE
8
BLACK
6
CONTINUOUS
10
-0.114366
20
1.14716
11
-0.119543
21
1.16023
0
LINE
8
BLACK
6
CONTINUOUS
10
-0.119543
20
1.16023
11
-0.123231
21
1.17381
0
LINE
8
BLACK
6
CONTINUOUS
10
-0.123231
20
1.17381
11
-0.125383
21
1.18771
0
LINE
8
BLACK
6
CONTINUOUS
10
-0.125383
20
1.18771
11
-0.125972
21
1.20176
0
LINE
8
BLACK
6
CONTINUOUS
10
-0.125972
20
1.20176
11
-0.124991
21
1.21579
0
LINE
8
BLACK
6
CONTINUOUS
10
-0.124991
20
1.21579
11
-0.122452
21
1.22962
0
LINE
8
BLACK
6
CONTINUOUS
10
-0.122452
20
1.22962
11
-0.118386
21
1.24309
0
LINE
8
BLACK
6
CONTINUOUS
10
-0.118386
20
1.24309
11
-0.112846
21
1.25602
0
LINE
8
BLACK
6
CONTINUOUS
10
-0.112846
20
1.25602
11
-0.105898
21
1.26825
0
LINE
8
BLACK
6
CONTINUOUS
10
-0.105898
20
1.26825
11
-0.0976308
21
1.27963
0
LINE
8
BLACK
6
CONTINUOUS
10
-0.0976308
20
1.27963
11
-0.0881466
21
1.29001
0
LINE
8
BLACK
6
CONTINUOUS
10
-0.0881466
20
1.29001
11
-0.0775637
21
1.29928
0
LINE
8
BLACK
6
CONTINUOUS
10
-0.0775637
20
1.29928
11
-0.066014
21
1.3073
0
LINE
8
BLACK
6
CONTINUOUS
10
-0.066014
20
1.3073
11
-0.0536415
21
1.31399
0
LINE
8
BLACK
6
CONTINUOUS
10
-0.0536415
20
1.31399
11
-0.0406004
21
1.31926
0
LINE
8
BLACK
6
CONTINUOUS
10
-0.0406004
20
1.31926
11
-0.0270533
21
1.32305
0
LINE
8
BLACK
6
CONTINUOUS
10
-0.0270533
20
1.32305
11
-0.0131689
21
1.32529
0
LINE
8
BLACK
6
CONTINUOUS
10
-0.0131689
20
1.32529
11
0.000879528
21
1.32598
0
LINE
8
BLACK
6
CONTINUOUS
10
0.000879528
20
1.32598
11
0.014917
21
1.3251
0
LINE
8
BLACK
6
CONTINUOUS
10
2.01492
20
1.3251
11
2.02877
21
1.32266
0
LINE
8
BLACK
6
CONTINUOUS
10
2.02877
20
1.32266
11
2.04226
21
1.31868
0
LINE
8
BLACK
6
CONTINUOUS
10
2.04226
20
1.31868
11
2.05523
21
1.31323
0
LINE
8
BLACK
6
CONTINUOUS
10
2.05523
20
1.31323
11
2.06751
21
1.30637
0
LINE
8
BLACK
6
CONTINUOUS
10
2.06751
20
1.30637
11
2.07894
21
1.29818
0
LINE
8
BLACK
6
CONTINUOUS
10
2.07894
20
1.29818
11
2.08939
21
1.28877
0
LINE
8
BLACK
6
CONTINUOUS
10
2.08939
20
1.28877
11
2.09873
21
1.27825
0
LINE
8
BLACK
6
CONTINUOUS
10
2.09873
20
1.27825
11
2.10684
21
1.26676
0
LINE
8
BLACK
6
CONTINUOUS
10
2.10684
20
1.26676
11
2.11362
21
1.25444
0
LINE
8
BLACK
6
CONTINUOUS
10
2.11362
20
1.25444
11
2.11898
21
1.24143
0
LINE
8
BLACK
6
CONTINUOUS
10
2.11898
20
1.24143
11
2.12285
21
1.22791
0
LINE
8
BLACK
6
CONTINUOUS
10
2.12285
20
1.22791
11
2.1252
21
1.21404
0
LINE
8
BLACK
6
CONTINUOUS
10
2.1252
20
1.21404
11
2.12598
21
1.2
0
LINE
8
BLACK
6
CONTINUOUS
10
2.12598
20
1.2
11
2.12594
21
1.19648
0
LINE
8
BLACK
6
CONTINUOUS
10
2.12594
20
1.19648
11
2.12476
21
1.18247
0
LINE
8
BLACK
6
CONTINUOUS
10
2.12476
20
1.18247
11
2.12203
21
1.16867
0
LINE
8
BLACK
6
CONTINUOUS
10
2.12203
20
1.16867
11
2.11777
21
1.15526
0
LINE
8
BLACK
6
CONTINUOUS
10
2.11777
20
1.15526
11
2.11205
21
1.14241
0
LINE
8
BLACK
6
CONTINUOUS
10
2.11205
20
1.14241
11
2.10493
21
1.13028
0
LINE
8
BLACK
6
CONTINUOUS
10
2.10493
20
1.13028
11
2.09651
21
1.11902
0
LINE
8
BLACK
6
CONTINUOUS
10
2.09651
20
1.11902
11
2.08688
21
1.10877
0
LINE
8
BLACK
6
CONTINUOUS
10
2.08688
20
1.10877
11
2.07617
21
1.09965
0
LINE
8
BLACK
6
CONTINUOUS
10
2.07617
20
1.09965
11
2.06451
21
1.09178
0
LINE
8
BLACK
6
CONTINUOUS
10
2.06451
20
1.09178
11
2.05204
21
1.08527
0
LINE
8
BLACK
6
CONTINUOUS
10
2.05204
20
1.08527
11
2.03893
21
1.08018
0
LINE
8
BLACK
6
CONTINUOUS
10
2.03893
20
1.08018
11
2.02533
21
1.07659
0
LINE
8
BLACK
6
CONTINUOUS
10
2.02533
20
1.07659
11
2.01142
21
1.07453
0
LINE
8
BLACK
6
CONTINUOUS
10
2.01142
20
1.07453
11
1.99736
21
1.07404
0
LINE
8
BLACK
6
CONTINUOUS
10
1.99736
20
1.07404
11
1.98334
21
1.07512
0
LINE
8
BLACK
6
CONTINUOUS
10
1.98334
20
1.07512
11
1.96952
21
1.07776
0
LINE
8
BLACK
6
CONTINUOUS
10
1.96952
20
1.07776
11
1.95609
21
1.08192
0
LINE
8
BLACK
6
CONTINUOUS
10
1.95609
20
1.08192
11
1.9432
21
1.08755
0
LINE
8
BLACK
6
CONTINUOUS
10
1.9432
20
1.08755
11
1.93102
21
1.09458
0
LINE
8
BLACK
6
CONTINUOUS
10
1.93102
20
1.09458
11
1.91969
21
1.10293
0
LINE
8
BLACK
6
CONTINUOUS
10
1.91969
20
1.10293
11
1.90937
21
1.11248
0
LINE
8
BLACK
6
CONTINUOUS
10
1.90937
20
1.11248
11
1.90018
21
1.12313
0
LINE
8
BLACK
6
CONTINUOUS
10
1.90018
20
1.12313
11
1.89224
21
1.13474
0
LINE
8
BLACK
6
CONTINUOUS
10
1.89224
20
1.13474
11
1.88563
21
1.14716
0
LINE
8
BLACK
6
CONTINUOUS
10
1.88563
20
1.14716
11
1.88046
21
1.16023
0
LINE
8
BLACK
6
CONTINUOUS
10
1.88046
20
1.16023
11
1.87677
21
1.17381
0
LINE
8
BLACK
6
CONTINUOUS
10
1.87677
20
1.17381
11
1.87462
21
1.18771
0
LINE
8
BLACK
6
CONTINUOUS
10
1.87462
20
1.18771
11
1.87403
21
1.20176
0
LINE
8
BLACK
6
CONTINUOUS
10
1.87403
20
1.20176
11
1.87501
21
1.21579
0
LINE
8
BLACK
6
CONTINUOUS
10
1.87501
20
1.21579
11
1.87755
21
1.22962
0
LINE
8
BLACK
6
CONTINUOUS
10
1.87755
20
1.22962
11
1.88161
21
1.24309
0
LINE
8
BLACK
6
CONTINUOUS
10
1.88161
20
1.24309
11
1.88715
21
1.25602
0
LINE
8
BLACK
6
CONTINUOUS
10
1.88715
20
1.25602
11
1.8941
21
1.26825
0
LINE
8
BLACK
6
CONTINUOUS
10
1.8941
20
1.26825
11
1.90237
21
1.27963
0
LINE
8
BLACK
6
CONTINUOUS
10
1.90237
20
1.27963
11
1.91185
21
1.29001
0
LINE
8
BLACK
6
CONTINUOUS
10
1.91185
20
1.29001
11
1.92244
21
1.29928
0
LINE
8
BLACK
6
CONTINUOUS
10
1.92244
20
1.29928
11
1.93399
21
1.3073
0
LINE
8
BLACK
6
CONTINUOUS
10
1.93399
20
1.3073
11
1.94636
21
1.31399
0
LINE
8
BLACK
6
CONTINUOUS
10
1.94636
20
1.31399
11
1.9594
21
1.31926
0
LINE
8
BLACK
6
CONTINUOUS
10
1.9594
20
1.31926
11
1.97295
21
1.32305
0
LINE
8
BLACK
6
CONTINUOUS
10
1.97295
20
1.32305
11
1.98683
21
1.32529
0
LINE
8
BLACK
6
CONTINUOUS
10
1.98683
20
1.32529
11
2.00088
21
1.32598
0
LINE
8
BLACK
6
CONTINUOUS
10
2.00088
20
1.32598
11
2.01492
21
1.3251
0
LINE
8
BLACK
6
CONTINUOUS
10
1.63301
20
1.19727
11
1.63557
21
1.19557
0
LINE
8
BLACK
6
CONTINUOUS
10
1.63557
20
1.19557
11
1.63727
21
1.19301
0
LINE
8
BLACK
6
CONTINUOUS
10
1.63727
20
1.19301
11
1.63787
21
1.19
0
LINE
8
BLACK
6
CONTINUOUS
10
1.63787
20
1.19
11
1.63787
21
1.13
0
LINE
8
BLACK
6
CONTINUOUS
10
1.63787
20
1.13
11
1.63727
21
1.12699
0
LINE
8
BLACK
6
CONTINUOUS
10
1.63727
20
1.12699
11
1.63557
21
1.12443
0
LINE
8
BLACK
6
CONTINUOUS
10
1.63557
20
1.12443
11
1.63301
21
1.12273
0
LINE
8
BLACK
6
CONTINUOUS
10
1.63301
20
1.12273
11
1.63
21
1.12213
0
LINE
8
BLACK
6
CONTINUOUS
10
1.63
20
1.12213
11
1.57
21
1.12213
0
LINE
8
BLACK
6
CONTINUOUS
10
1.57
20
1.12213
11
1.56699
21
1.12273
0
LINE
8
BLACK
6
CONTINUOUS
10
1.56699
20
1.12273
11
1.56443
21
1.12443
0
LINE
8
BLACK
6
CONTINUOUS
10
1.56443
20
1.12443
11
1.56273
21
1.12699
0
LINE
8
BLACK
6
CONTINUOUS
10
1.56273
20
1.12699
11
1.56213
21
1.13
0
LINE
8
BLACK
6
CONTINUOUS
10
1.56213
20
1.13
11
1.56213
21
1.19
0
LINE
8
BLACK
6
CONTINUOUS
10
1.56213
20
1.19
11
1.56273
21
1.19301
0
LINE
8
BLACK
6
CONTINUOUS
10
1.56273
20
1.19301
11
1.56443
21
1.19557
0
LINE
8
BLACK
6
CONTINUOUS
10
1.56443
20
1.19557
11
1.56699
21
1.19727
0
LINE
8
BLACK
6
CONTINUOUS
10
1.56699
20
1.19727
11
1.57
21
1.19787
0
LINE
8
BLACK
6
CONTINUOUS
10
1.57
20
1.19787
11
1.63
21
1.19787
0
LINE
8
BLACK
6
CONTINUOUS
10
1.63
20
1.19787
11
1.63301
21
1.19727
0
LINE
8
BLACK
6
CONTINUOUS
10
1.53301
20
1.19727
11
1.53557
21
1.19557
0
LINE
8
BLACK
6
CONTINUOUS
10
1.53557
20
1.19557
11
1.53727
21
1.19301
0
LINE
8
BLACK
6
CONTINUOUS
10
1.53727
20
1.19301
11
1.53787
21
1.19
0
LINE
8
BLACK
6
CONTINUOUS
10
1.53787
20
1.19
11
1.53787
21
1.13
0
LINE
8
BLACK
6
CONTINUOUS
10
1.53787
20
1.13
11
1.53727
21
1.12699
0
LINE
8
BLACK
6
CONTINUOUS
10
1.53727
20
1.12699
11
1.53557
21
1.12443
0
LINE
8
BLACK
6
CONTINUOUS
10
1.53557
20
1.12443
11
1.53301
21
1.12273
0
LINE
8
BLACK
6
CONTINUOUS
10
1.53301
20
1.12273
11
1.53
21
1.12213
0
LINE
8
BLACK
6
CONTINUOUS
10
1.53
20
1.12213
11
1.47
21
1.12213
0
LINE
8
BLACK
6
CONTINUOUS
10
1.47
20
1.12213
11
1.46699
21
1.12273
0
LINE
8
BLACK
6
CONTINUOUS
10
1.46699
20
1.12273
11
1.46443
21
1.12443
0
LINE
8
BLACK
6
CONTINUOUS
10
1.46443
20
1.12443
11
1.46273
21
1.12699
0
LINE
8
BLACK
6
CONTINUOUS
10
1.46273
20
1.12699
11
1.46213
21
1.13
0
LINE
8
BLACK
6
CONTINUOUS
10
1.46213
20
1.13
11
1.46213
21
1.19
0
LINE
8
BLACK
6
CONTINUOUS
10
1.46213
20
1.19
11
1.46273
21
1.19301
0
LINE
8
BLACK
6
CONTINUOUS
10
1.46273
20
1.19301
11
1.46443
21
1.19557
0
LINE
8
BLACK
6
CONTINUOUS
10
1.46443
20
1.19557
11
1.46699
21
1.19727
0
LINE
8
BLACK
6
CONTINUOUS
10
1.46699
20
1.19727
11
1.47
21
1.19787
0
LINE
8
BLACK
6
CONTINUOUS
10
1.47
20
1.19787
11
1.53
21
1.19787
0
LINE
8
BLACK
6
CONTINUOUS
10
1.53
20
1.19787
11
1.53301
21
1.19727
0
LINE
8
BLACK
6
CONTINUOUS
10
1.05301
20
1.19727
11
1.05557
21
1.19557
0
LINE
8
BLACK
6
CONTINUOUS
10
1.05557
20
1.19557
11
1.05727
21
1.19301
0
LINE
8
BLACK
6
CONTINUOUS
10
1.05727
20
1.19301
11
1.05787
21
1.19
0
LINE
8
BLACK
6
CONTINUOUS
10
1.05787
20
1.19
11
1.05787
21
1.13
0
LINE
8
BLACK
6
CONTINUOUS
10
1.05787
20
1.13
11
1.05727
21
1.12699
0
LINE
8
BLACK
6
CONTINUOUS
10
1.05727
20
1.12699
11
1.05557
21
1.12443
0
LINE
8
BLACK
6
CONTINUOUS
10
1.05557
20
1.12443
11
1.05301
21
1.12273
0
LINE
8
BLACK
6
CONTINUOUS
10
1.05301
20
1.12273
11
1.05
21
1.12213
0
LINE
8
BLACK
6
CONTINUOUS
10
1.05
20
1.12213
11
0.99
21
1.12213
0
LINE
8
BLACK
6
CONTINUOUS
10
0.99
20
1.12213
11
0.986987
21
1.12273
0
LINE
8
BLACK
6
CONTINUOUS
10
0.986987
20
1.12273
11
0.984432
21
1.12443
0
LINE
8
BLACK
6
CONTINUOUS
10
0.984432
20
1.12443
11
0.982725
21
1.12699
0
LINE
8
BLACK
6
CONTINUOUS
10
0.982725
20
1.12699
11
0.982126
21
1.13
0
LINE
8
BLACK
6
CONTINUOUS
10
0.982126
20
1.13
11
0.982126
21
1.19
0
LINE
8
BLACK
6
CONTINUOUS
10
0.982126
20
1.19
11
0.982725
21
1.19301
0
LINE
8
BLACK
6
CONTINUOUS
10
0.982725
20
1.19301
11
0.984432
21
1.19557
0
LINE
8
BLACK
6
CONTINUOUS
10
0.984432
20
1.19557
11
0.986987
21
1.19727
0
LINE
8
BLACK
6
CONTINUOUS
10
0.986987
20
1.19727
11
0.99
21
1.19787
0
LINE
8
BLACK
6
CONTINUOUS
10
0.99
20
1.19787
11
1.05
21
1.19787
0
LINE
8
BLACK
6
CONTINUOUS
10
1.05
20
1.19787
11
1.05301
21
1.19727
0
LINE
8
BLACK
6
CONTINUOUS
10
0.853013
20
1.19727
11
0.855568
21
1.19557
0
LINE
8
BLACK
6
CONTINUOUS
10
0.855568
20
1.19557
11
0.857275
21
1.19301
0
LINE
8
BLACK
6
CONTINUOUS
10
0.857275
20
1.19301
11
0.857874
21
1.19
0
LINE
8
BLACK
6
CONTINUOUS
10
0.857874
20
1.19
11
0.857874
21
1.13
0
LINE
8
BLACK
6
CONTINUOUS
10
0.857874
20
1.13
11
0.857275
21
1.12699
0
LINE
8
BLACK
6
CONTINUOUS
10
0.857275
20
1.12699
11
0.855568
21
1.12443
0
LINE
8
BLACK
6
CONTINUOUS
10
0.855568
20
1.12443
11
0.853013
21
1.12273
0
LINE
8
BLACK
6
CONTINUOUS
10
0.853013
20
1.12273
11
0.85
21
1.12213
0
LINE
8
BLACK
6
CONTINUOUS
10
0.85
20
1.12213
11
0.79
21
1.12213
0
LINE
8
BLACK
6
CONTINUOUS
10
0.79
20
1.12213
11
0.786987
21
1.12273
0
LINE
8
BLACK
6
CONTINUOUS
10
0.786987
20
1.12273
11
0.784432
21
1.12443
0
LINE
8
BLACK
6
CONTINUOUS
10
0.784432
20
1.12443
11
0.782725
21
1.12699
0
LINE
8
BLACK
6
CONTINUOUS
10
0.782725
20
1.12699
11
0.782126
21
1.13
0
LINE
8
BLACK
6
CONTINUOUS
10
0.782126
20
1.13
11
0.782126
21
1.19
0
LINE
8
BLACK
6
CONTINUOUS
10
0.782126
20
1.19
11
0.782725
21
1.19301
0
LINE
8
BLACK
6
CONTINUOUS
10
0.782725
20
1.19301
11
0.784432
21
1.19557
0
LINE
8
BLACK
6
CONTINUOUS
10
0.784432
20
1.19557
11
0.786987
21
1.19727
0
LINE
8
BLACK
6
CONTINUOUS
10
0.786987
20
1.19727
11
0.79
21
1.19787
0
LINE
8
BLACK
6
CONTINUOUS
10
0.79
20
1.19787
11
0.85
21
1.19787
0
LINE
8
BLACK
6
CONTINUOUS
10
0.85
20
1.19787
11
0.853013
21
1.19727
0
LINE
8
BLACK
6
CONTINUOUS
10
0.953013
20
1.19727
11
0.955568
21
1.19557
0
LINE
8
BLACK
6
CONTINUOUS
10
0.955568
20
1.19557
11
0.957275
21
1.19301
0
LINE
8
BLACK
6
CONTINUOUS
10
0.957275
20
1.19301
11
0.957874
21
1.19
0
LINE
8
BLACK
6
CONTINUOUS
10
0.957874
20
1.19
11
0.957874
21
1.13
0
LINE
8
BLACK
6
CONTINUOUS
10
0.957874
20
1.13
11
0.957275
21
1.12699
0
LINE
8
BLACK
6
CONTINUOUS
10
0.957275
20
1.12699
11
0.955568
21
1.12443
0
LINE
8
BLACK
6
CONTINUOUS
10
0.955568
20
1.12443
11
0.953013
21
1.12273
0
LINE
8
BLACK
6
CONTINUOUS
10
0.953013
20
1.12273
11
0.95
21
1.12213
0
LINE
8
BLACK
6
CONTINUOUS
10
0.95
20
1.12213
11
0.89
21
1.12213
0
LINE
8
BLACK
6
CONTINUOUS
10
0.89
20
1.12213
11
0.886987
21
1.12273
0
LINE
8
BLACK
6
CONTINUOUS
10
0.886987
20
1.12273
11
0.884432
21
1.12443
0
LINE
8
BLACK
6
CONTINUOUS
10
0.884432
20
1.12443
11
0.882725
21
1.12699
0
LINE
8
BLACK
6
CONTINUOUS
10
0.882725
20
1.12699
11
0.882126
21
1.13
0
LINE
8
BLACK
6
CONTINUOUS
10
0.882126
20
1.13
11
0.882126
21
1.19
0
LINE
8
BLACK
6
CONTINUOUS
10
0.882126
20
1.19
11
0.882725
21
1.19301
0
LINE
8
BLACK
6
CONTINUOUS
10
0.882725
20
1.19301
11
0.884432
21
1.19557
0
LINE
8
BLACK
6
CONTINUOUS
10
0.884432
20
1.19557
11
0.886987
21
1.19727
0
LINE
8
BLACK
6
CONTINUOUS
10
0.886987
20
1.19727
11
0.89
21
1.19787
0
LINE
8
BLACK
6
CONTINUOUS
10
0.89
20
1.19787
11
0.95
21
1.19787
0
LINE
8
BLACK
6
CONTINUOUS
10
0.95
20
1.19787
11
0.953013
21
1.19727
0
LINE
8
BLACK
6
CONTINUOUS
10
1.25301
20
1.19727
11
1.25557
21
1.19557
0
LINE
8
BLACK
6
CONTINUOUS
10
1.25557
20
1.19557
11
1.25727
21
1.19301
0
LINE
8
BLACK
6
CONTINUOUS
10
1.25727
20
1.19301
11
1.25787
21
1.19
0
LINE
8
BLACK
6
CONTINUOUS
10
1.25787
20
1.19
11
1.25787
21
1.13
0
LINE
8
BLACK
6
CONTINUOUS
10
1.25787
20
1.13
11
1.25727
21
1.12699
0
LINE
8
BLACK
6
CONTINUOUS
10
1.25727
20
1.12699
11
1.25557
21
1.12443
0
LINE
8
BLACK
6
CONTINUOUS
10
1.25557
20
1.12443
11
1.25301
21
1.12273
0
LINE
8
BLACK
6
CONTINUOUS
10
1.25301
20
1.12273
11
1.25
21
1.12213
0
LINE
8
BLACK
6
CONTINUOUS
10
1.25
20
1.12213
11
1.19
21
1.12213
0
LINE
8
BLACK
6
CONTINUOUS
10
1.19
20
1.12213
11
1.18699
21
1.12273
0
LINE
8
BLACK
6
CONTINUOUS
10
1.18699
20
1.12273
11
1.18443
21
1.12443
0
LINE
8
BLACK
6
CONTINUOUS
10
1.18443
20
1.12443
11
1.18273
21
1.12699
0
LINE
8
BLACK
6
CONTINUOUS
10
1.18273
20
1.12699
11
1.18213
21
1.13
0
LINE
8
BLACK
6
CONTINUOUS
10
1.18213
20
1.13
11
1.18213
21
1.19
0
LINE
8
BLACK
6
CONTINUOUS
10
1.18213
20
1.19
11
1.18273
21
1.19301
0
LINE
8
BLACK
6
CONTINUOUS
10
1.18273
20
1.19301
11
1.18443
21
1.19557
0
LINE
8
BLACK
6
CONTINUOUS
10
1.18443
20
1.19557
11
1.18699
21
1.19727
0
LINE
8
BLACK
6
CONTINUOUS
10
1.18699
20
1.19727
11
1.19
21
1.19787
0
LINE
8
BLACK
6
CONTINUOUS
10
1.19
20
1.19787
11
1.25
21
1.19787
0
LINE
8
BLACK
6
CONTINUOUS
10
1.25
20
1.19787
11
1.25301
21
1.19727
0
LINE
8
BLACK
6
CONTINUOUS
10
1.15301
20
1.19727
11
1.15557
21
1.19557
0
LINE
8
BLACK
6
CONTINUOUS
10
1.15557
20
1.19557
11
1.15727
21
1.19301
0
LINE
8
BLACK
6
CONTINUOUS
10
1.15727
20
1.19301
11
1.15787
21
1.19
0
LINE
8
BLACK
6
CONTINUOUS
10
1.15787
20
1.19
11
1.15787
21
1.13
0
LINE
8
BLACK
6
CONTINUOUS
10
1.15787
20
1.13
11
1.15727
21
1.12699
0
LINE
8
BLACK
6
CONTINUOUS
10
1.15727
20
1.12699
11
1.15557
21
1.12443
0
LINE
8
BLACK
6
CONTINUOUS
10
1.15557
20
1.12443
11
1.15301
21
1.12273
0
LINE
8
BLACK
6
CONTINUOUS
10
1.15301
20
1.12273
11
1.15
21
1.12213
0
LINE
8
BLACK
6
CONTINUOUS
10
1.15
20
1.12213
11
1.09
21
1.12213
0
LINE
8
BLACK
6
CONTINUOUS
10
1.09
20
1.12213
11
1.08699
21
1.12273
0
LINE
8
BLACK
6
CONTINUOUS
10
1.08699
20
1.12273
11
1.08443
21
1.12443
0
LINE
8
BLACK
6
CONTINUOUS
10
1.08443
20
1.12443
11
1.08273
21
1.12699
0
LINE
8
BLACK
6
CONTINUOUS
10
1.08273
20
1.12699
11
1.08213
21
1.13
0
LINE
8
BLACK
6
CONTINUOUS
10
1.08213
20
1.13
11
1.08213
21
1.19
0
LINE
8
BLACK
6
CONTINUOUS
10
1.08213
20
1.19
11
1.08273
21
1.19301
0
LINE
8
BLACK
6
CONTINUOUS
10
1.08273
20
1.19301
11
1.08443
21
1.19557
0
LINE
8
BLACK
6
CONTINUOUS
10
1.08443
20
1.19557
11
1.08699
21
1.19727
0
LINE
8
BLACK
6
CONTINUOUS
10
1.08699
20
1.19727
11
1.09
21
1.19787
0
LINE
8
BLACK
6
CONTINUOUS
10
1.09
20
1.19787
11
1.15
21
1.19787
0
LINE
8
BLACK
6
CONTINUOUS
10
1.15
20
1.19787
11
1.15301
21
1.19727
0
LINE
8
BLACK
6
CONTINUOUS
10
1.53301
20
1.29727
11
1.53557
21
1.29557
0
LINE
8
BLACK
6
CONTINUOUS
10
1.53557
20
1.29557
11
1.53727
21
1.29301
0
LINE
8
BLACK
6
CONTINUOUS
10
1.53727
20
1.29301
11
1.53787
21
1.29
0
LINE
8
BLACK
6
CONTINUOUS
10
1.53787
20
1.29
11
1.53787
21
1.23
0
LINE
8
BLACK
6
CONTINUOUS
10
1.53787
20
1.23
11
1.53727
21
1.22699
0
LINE
8
BLACK
6
CONTINUOUS
10
1.53727
20
1.22699
11
1.53557
21
1.22443
0
LINE
8
BLACK
6
CONTINUOUS
10
1.53557
20
1.22443
11
1.53301
21
1.22273
0
LINE
8
BLACK
6
CONTINUOUS
10
1.53301
20
1.22273
11
1.53
21
1.22213
0
LINE
8
BLACK
6
CONTINUOUS
10
1.53
20
1.22213
11
1.47
21
1.22213
0
LINE
8
BLACK
6
CONTINUOUS
10
1.47
20
1.22213
11
1.46699
21
1.22273
0
LINE
8
BLACK
6
CONTINUOUS
10
1.46699
20
1.22273
11
1.46443
21
1.22443
0
LINE
8
BLACK
6
CONTINUOUS
10
1.46443
20
1.22443
11
1.46273
21
1.22699
0
LINE
8
BLACK
6
CONTINUOUS
10
1.46273
20
1.22699
11
1.46213
21
1.23
0
LINE
8
BLACK
6
CONTINUOUS
10
1.46213
20
1.23
11
1.46213
21
1.29
0
LINE
8
BLACK
6
CONTINUOUS
10
1.46213
20
1.29
11
1.46273
21
1.29301
0
LINE
8
BLACK
6
CONTINUOUS
10
1.46273
20
1.29301
11
1.46443
21
1.29557
0
LINE
8
BLACK
6
CONTINUOUS
10
1.46443
20
1.29557
11
1.46699
21
1.29727
0
LINE
8
BLACK
6
CONTINUOUS
10
1.46699
20
1.29727
11
1.47
21
1.29787
0
LINE
8
BLACK
6
CONTINUOUS
10
1.47
20
1.29787
11
1.53
21
1.29787
0
LINE
8
BLACK
6
CONTINUOUS
10
1.53
20
1.29787
11
1.53301
21
1.29727
0
LINE
8
BLACK
6
CONTINUOUS
10
1.63301
20
1.29727
11
1.63557
21
1.29557
0
LINE
8
BLACK
6
CONTINUOUS
10
1.63557
20
1.29557
11
1.63727
21
1.29301
0
LINE
8
BLACK
6
CONTINUOUS
10
1.63727
20
1.29301
11
1.63787
21
1.29
0
LINE
8
BLACK
6
CONTINUOUS
10
1.63787
20
1.29
11
1.63787
21
1.23
0
LINE
8
BLACK
6
CONTINUOUS
10
1.63787
20
1.23
11
1.63727
21
1.22699
0
LINE
8
BLACK
6
CONTINUOUS
10
1.63727
20
1.22699
11
1.63557
21
1.22443
0
LINE
8
BLACK
6
CONTINUOUS
10
1.63557
20
1.22443
11
1.63301
21
1.22273
0
LINE
8
BLACK
6
CONTINUOUS
10
1.63301
20
1.22273
11
1.63
21
1.22213
0
LINE
8
BLACK
6
CONTINUOUS
10
1.63
20
1.22213
11
1.57
21
1.22213
0
LINE
8
BLACK
6
CONTINUOUS
10
1.57
20
1.22213
11
1.56699
21
1.22273
0
LINE
8
BLACK
6
CONTINUOUS
10
1.56699
20
1.22273
11
1.56443
21
1.22443
0
LINE
8
BLACK
6
CONTINUOUS
10
1.56443
20
1.22443
11
1.56273
21
1.22699
0
LINE
8
BLACK
6
CONTINUOUS
10
1.56273
20
1.22699
11
1.56213
21
1.23
0
LINE
8
BLACK
6
CONTINUOUS
10
1.56213
20
1.23
11
1.56213
21
1.29
0
LINE
8
BLACK
6
CONTINUOUS
10
1.56213
20
1.29
11
1.56273
21
1.29301
0
LINE
8
BLACK
6
CONTINUOUS
10
1.56273
20
1.29301
11
1.56443
21
1.29557
0
LINE
8
BLACK
6
CONTINUOUS
10
1.56443
20
1.29557
11
1.56699
21
1.29727
0
LINE
8
BLACK
6
CONTINUOUS
10
1.56699
20
1.29727
11
1.57
21
1.29787
0
LINE
8
BLACK
6
CONTINUOUS
10
1.57
20
1.29787
11
1.63
21
1.29787
0
LINE
8
BLACK
6
CONTINUOUS
10
1.63
20
1.29787
11
1.63301
21
1.29727
0
LINE
8
BLACK
6
CONTINUOUS
10
0.853013
20
1.29727
11
0.855568
21
1.29557
0
LINE
8
BLACK
6
CONTINUOUS
10
0.855568
20
1.29557
11
0.857275
21
1.29301
0
LINE
8
BLACK
6
CONTINUOUS
10
0.857275
20
1.29301
11
0.857874
21
1.29
0
LINE
8
BLACK
6
CONTINUOUS
10
0.857874
20
1.29
11
0.857874
21
1.23
0
LINE
8
BLACK
6
CONTINUOUS
10
0.857874
20
1.23
11
0.857275
21
1.22699
0
LINE
8
BLACK
6
CONTINUOUS
10
0.857275
20
1.22699
11
0.855568
21
1.22443
0
LINE
8
BLACK
6
CONTINUOUS
10
0.855568
20
1.22443
11
0.853013
21
1.22273
0
LINE
8
BLACK
6
CONTINUOUS
10
0.853013
20
1.22273
11
0.85
21
1.22213
0
LINE
8
BLACK
6
CONTINUOUS
10
0.85
20
1.22213
11
0.79
21
1.22213
0
LINE
8
BLACK
6
CONTINUOUS
10
0.79
20
1.22213
11
0.786987
21
1.22273
0
LINE
8
BLACK
6
CONTINUOUS
10
0.786987
20
1.22273
11
0.784432
21
1.22443
0
LINE
8
BLACK
6
CONTINUOUS
10
0.784432
20
1.22443
11
0.782725
21
1.22699
0
LINE
8
BLACK
6
CONTINUOUS
10
0.782725
20
1.22699
11
0.782126
21
1.23
0
LINE
8
BLACK
6
CONTINUOUS
10
0.782126
20
1.23
11
0.782126
21
1.29
0
LINE
8
BLACK
6
CONTINUOUS
10
0.782126
20
1.29
11
0.782725
21
1.29301
0
LINE
8
BLACK
6
CONTINUOUS
10
0.782725
20
1.29301
11
0.784432
21
1.29557
0
LINE
8
BLACK
6
CONTINUOUS
10
0.784432
20
1.29557
11
0.786987
21
1.29727
0
LINE
8
BLACK
6
CONTINUOUS
10
0.786987
20
1.29727
11
0.79
21
1.29787
0
LINE
8
BLACK
6
CONTINUOUS
10
0.79
20
1.29787
11
0.85
21
1.29787
0
LINE
8
BLACK
6
CONTINUOUS
10
0.85
20
1.29787
11
0.853013
21
1.29727
0
LINE
8
BLACK
6
CONTINUOUS
10
0.953013
20
1.29727
11
0.955568
21
1.29557
0
LINE
8
BLACK
6
CONTINUOUS
10
0.955568
20
1.29557
11
0.957275
21
1.29301
0
LINE
8
BLACK
6
CONTINUOUS
10
0.957275
20
1.29301
11
0.957874
21
1.29
0
LINE
8
BLACK
6
CONTINUOUS
10
0.957874
20
1.29
11
0.957874
21
1.23
0
LINE
8
BLACK
6
CONTINUOUS
10
0.957874
20
1.23
11
0.957275
21
1.22699
0
LINE
8
BLACK
6
CONTINUOUS
10
0.957275
20
1.22699
11
0.955568
21
1.22443
0
LINE
8
BLACK
6
CONTINUOUS
10
0.955568
20
1.22443
11
0.953013
21
1.22273
0
LINE
8
BLACK
6
CONTINUOUS
10
0.953013
20
1.22273
11
0.95
21
1.22213
0
LINE
8
BLACK
6
CONTINUOUS
10
0.95
20
1.22213
11
0.89
21
1.22213
0
LINE
8
BLACK
6
CONTINUOUS
10
0.89
20
1.22213
11
0.886987
21
1.22273
0
LINE
8
BLACK
6
CONTINUOUS
10
0.886987
20
1.22273
11
0.884432
21
1.22443
0
LINE
8
BLACK
6
CONTINUOUS
10
0.884432
20
1.22443
11
0.882725
21
1.22699
0
LINE
8
BLACK
6
CONTINUOUS
10
0.882725
20
1.22699
11
0.882126
21
1.23
0
LINE
8
BLACK
6
CONTINUOUS
10
0.882126
20
1.23
11
0.882126
21
1.29
0
LINE
8
BLACK
6
CONTINUOUS
10
0.882126
20
1.29
11
0.882725
21
1.29301
0
LINE
8
BLACK
6
CONTINUOUS
10
0.882725
20
1.29301
11
0.884432
21
1.29557
0
LINE
8
BLACK
6
CONTINUOUS
10
0.884432
20
1.29557
11
0.886987
21
1.29727
0
LINE
8
BLACK
6
CONTINUOUS
10
0.886987
20
1.29727
11
0.89
21
1.29787
0
LINE
8
BLACK
6
CONTINUOUS
10
0.89
20
1.29787
11
0.95
21
1.29787
0
LINE
8
BLACK
6
CONTINUOUS
10
0.95
20
1.29787
11
0.953013
21
1.29727
0
LINE
8
BLACK
6
CONTINUOUS
10
1.25301
20
1.29727
11
1.25557
21
1.29557
0
LINE
8
BLACK
6
CONTINUOUS
10
1.25557
20
1.29557
11
1.25727
21
1.29301
0
LINE
8
BLACK
6
CONTINUOUS
10
1.25727
20
1.29301
11
1.25787
21
1.29
0
LINE
8
BLACK
6
CONTINUOUS
10
1.25787
20
1.29
11
1.25787
21
1.23
0
LINE
8
BLACK
6
CONTINUOUS
10
1.25787
20
1.23
11
1.25727
21
1.22699
0
LINE
8
BLACK
6
CONTINUOUS
10
1.25727
20
1.22699
11
1.25557
21
1.22443
0
LINE
8
BLACK
6
CONTINUOUS
10
1.25557
20
1.22443
11
1.25301
21
1.22273
0
LINE
8
BLACK
6
CONTINUOUS
10
1.25301
20
1.22273
11
1.25
21
1.22213
0
LINE
8
BLACK
6
CONTINUOUS
10
1.25
20
1.22213
11
1.19
21
1.22213
0
LINE
8
BLACK
6
CONTINUOUS
10
1.19
20
1.22213
11
1.18699
21
1.22273
0
LINE
8
BLACK
6
CONTINUOUS
10
1.18699
20
1.22273
11
1.18443
21
1.22443
0
LINE
8
BLACK
6
CONTINUOUS
10
1.18443
20
1.22443
11
1.18273
21
1.22699
0
LINE
8
BLACK
6
CONTINUOUS
10
1.18273
20
1.22699
11
1.18213
21
1.23
0
LINE
8
BLACK
6
CONTINUOUS
10
1.18213
20
1.23
11
1.18213
21
1.29
0
LINE
8
BLACK
6
CONTINUOUS
10
1.18213
20
1.29
11
1.18273
21
1.29301
0
LINE
8
BLACK
6
CONTINUOUS
10
1.18273
20
1.29301
11
1.18443
21
1.29557
0
LINE
8
BLACK
6
CONTINUOUS
10
1.18443
20
1.29557
11
1.18699
21
1.29727
0
LINE
8
BLACK
6
CONTINUOUS
10
1.18699
20
1.29727
11
1.19
21
1.29787
0
LINE
8
BLACK
6
CONTINUOUS
10
1.19
20
1.29787
11
1.25
21
1.29787
0
LINE
8
BLACK
6
CONTINUOUS
10
1.25
20
1.29787
11
1.25301
21
1.29727
0
LINE
8
BLACK
6
CONTINUOUS
10
1.15301
20
1.29727
11
1.15557
21
1.29557
0
LINE
8
BLACK
6
CONTINUOUS
10
1.15557
20
1.29557
11
1.15727
21
1.29301
0
LINE
8
BLACK
6
CONTINUOUS
10
1.15727
20
1.29301
11
1.15787
21
1.29
0
LINE
8
BLACK
6
CONTINUOUS
10
1.15787
20
1.29
11
1.15787
21
1.23
0
LINE
8
BLACK
6
CONTINUOUS
10
1.15787
20
1.23
11
1.15727
21
1.22699
0
LINE
8
BLACK
6
CONTINUOUS
10
1.15727
20
1.22699
11
1.15557
21
1.22443
0
LINE
8
BLACK
6
CONTINUOUS
10
1.15557
20
1.22443
11
1.15301
21
1.22273
0
LINE
8
BLACK
6
CONTINUOUS
10
1.15301
20
1.22273
11
1.15
21
1.22213
0
LINE
8
BLACK
6
CONTINUOUS
10
1.15
20
1.22213
11
1.09
21
1.22213
0
LINE
8
BLACK
6
CONTINUOUS
10
1.09
20
1.22213
11
1.08699
21
1.22273
0
LINE
8
BLACK
6
CONTINUOUS
10
1.08699
20
1.22273
11
1.08443
21
1.22443
0
LINE
8
BLACK
6
CONTINUOUS
10
1.08443
20
1.22443
11
1.08273
21
1.22699
0
LINE
8
BLACK
6
CONTINUOUS
10
1.08273
20
1.22699
11
1.08213
21
1.23
0
LINE
8
BLACK
6
CONTINUOUS
10
1.08213
20
1.23
11
1.08213
21
1.29
0
LINE
8
BLACK
6
CONTINUOUS
10
1.08213
20
1.29
11
1.08273
21
1.29301
0
LINE
8
BLACK
6
CONTINUOUS
10
1.08273
20
1.29301
11
1.08443
21
1.29557
0
LINE
8
BLACK
6
CONTINUOUS
10
1.08443
20
1.29557
11
1.08699
21
1.29727
0
LINE
8
BLACK
6
CONTINUOUS
10
1.08699
20
1.29727
11
1.09
21
1.29787
0
LINE
8
BLACK
6
CONTINUOUS
10
1.09
20
1.29787
11
1.15
21
1.29787
0
LINE
8
BLACK
6
CONTINUOUS
10
1.15
20
1.29787
11
1.15301
21
1.29727
0
LINE
8
BLACK
6
CONTINUOUS
10
1.05301
20
1.29727
11
1.05557
21
1.29557
0
LINE
8
BLACK
6
CONTINUOUS
10
1.05557
20
1.29557
11
1.05727
21
1.29301
0
LINE
8
BLACK
6
CONTINUOUS
10
1.05727
20
1.29301
11
1.05787
21
1.29
0
LINE
8
BLACK
6
CONTINUOUS
10
1.05787
20
1.29
11
1.05787
21
1.23
0
LINE
8
BLACK
6
CONTINUOUS
10
1.05787
20
1.23
11
1.05727
21
1.22699
0
LINE
8
BLACK
6
CONTINUOUS
10
1.05727
20
1.22699
11
1.05557
21
1.22443
0
LINE
8
BLACK
6
CONTINUOUS
10
1.05557
20
1.22443
11
1.05301
21
1.22273
0
LINE
8
BLACK
6
CONTINUOUS
10
1.05301
20
1.22273
11
1.05
21
1.22213
0
LINE
8
BLACK
6
CONTINUOUS
10
1.05
20
1.22213
11
0.99
21
1.22213
0
LINE
8
BLACK
6
CONTINUOUS
10
0.99
20
1.22213
11
0.986987
21
1.22273
0
LINE
8
BLACK
6
CONTINUOUS
10
0.986987
20
1.22273
11
0.984432
21
1.22443
0
LINE
8
BLACK
6
CONTINUOUS
10
0.984432
20
1.22443
11
0.982725
21
1.22699
0
LINE
8
BLACK
6
CONTINUOUS
10
0.982725
20
1.22699
11
0.982126
21
1.23
0
LINE
8
BLACK
6
CONTINUOUS
10
0.982126
20
1.23
11
0.982126
21
1.29
0
LINE
8
BLACK
6
CONTINUOUS
10
0.982126
20
1.29
11
0.982725
21
1.29301
0
LINE
8
BLACK
6
CONTINUOUS
10
0.982725
20
1.29301
11
0.984432
21
1.29557
0
LINE
8
BLACK
6
CONTINUOUS
10
0.984432
20
1.29557
11
0.986987
21
1.29727
0
LINE
8
BLACK
6
CONTINUOUS
10
0.986987
20
1.29727
11
0.99
21
1.29787
0
LINE
8
BLACK
6
CONTINUOUS
10
0.99
20
1.29787
11
1.05
21
1.29787
0
LINE
8
BLACK
6
CONTINUOUS
10
1.05
20
1.29787
11
1.05301
21
1.29727
  0
ENDSEC
  0
EOF
