  0
SECTION
  2
HEADER
  9
$ANGBASE
  50
0.0
  9
$ANGDIR
  70
1
  9
$MEASUREMENT
  70
0
  0
ENDSEC
  0
SECTION
  2
TABLES
  0
TABLE
  2
LTYPE
  70
4
  0
LTYPE
  5
40F
  2
CONTINUOUS
  70
0
  3
Solid line
  72
65
  73
0
  40
0.0
  0
LTYPE
  5
410
  2
DASHDOT
 70
0
  3
Dash Dot ____ _ ____ _
 72
65
 73
4
 40
2.0
 49
1.25
 49
-0.25
 49
0.25
 49
-0.25
  0
LTYPE
  5
411
  2
DASHED
 70
0
  3
Dashed __ __ __ __ __
 72
65
 73
2
 40
0.75
 49
0.5
 49
-0.25
  0
LTYPE
  5
43B
  2
DOTTED
 70
0
  3
Dotted .  .  .  .
 72
65
 73
2
 40
0.2
 49
0.0
 49
-0.2
  0
ENDTAB
  0
TABLE
  2
STYLE
  70
4
  0
STYLE
  2
KICAD
  70
0
  40
0
  41
1
  42
1
  50
0
  71
0
  3
isocp.shx
  0
STYLE
  2
KICADB
  70
0
  40
0
  41
1
  42
1
  50
0
  71
0
  3
isocp.shx
  0
STYLE
  2
KICADI
  70
0
  40
0
  41
1
  42
1
  50
15
  71
0
  3
isocp.shx
  0
STYLE
  2
KICADBI
  70
0
  40
0
  41
1
  42
1
  50
15
  71
0
  3
isocp.shx
  0
ENDTAB
  0
TABLE
  2
LAYER
  70
1
  0
LAYER
  2
BLACK
  70
0
  62
7
  6
CONTINUOUS
  0
ENDTAB
  0
ENDSEC
  0
SECTION
  2
ENTITIES
0
LINE
8
BLACK
6
CONTINUOUS
10
0.41865
20
0.567793
11
0.432132
21
0.566018
0
LINE
8
BLACK
6
CONTINUOUS
10
0.432132
20
0.566018
11
0.44532
21
0.562706
0
LINE
8
BLACK
6
CONTINUOUS
10
0.44532
20
0.562706
11
0.45804
21
0.557899
0
LINE
8
BLACK
6
CONTINUOUS
10
0.45804
20
0.557899
11
0.470123
21
0.551662
0
LINE
8
BLACK
6
CONTINUOUS
10
0.470123
20
0.551662
11
0.481409
21
0.544078
0
LINE
8
BLACK
6
CONTINUOUS
10
0.481409
20
0.544078
11
0.491749
21
0.535247
0
LINE
8
BLACK
6
CONTINUOUS
10
0.491749
20
0.535247
11
0.501006
21
0.525286
0
LINE
8
BLACK
6
CONTINUOUS
10
0.501006
20
0.525286
11
0.509056
21
0.514327
0
LINE
8
BLACK
6
CONTINUOUS
10
0.509056
20
0.514327
11
0.515793
21
0.502516
0
LINE
8
BLACK
6
CONTINUOUS
10
0.515793
20
0.502516
11
0.521128
21
0.490008
0
LINE
8
BLACK
6
CONTINUOUS
10
0.521128
20
0.490008
11
0.52499
21
0.476971
0
LINE
8
BLACK
6
CONTINUOUS
10
0.52499
20
0.476971
11
0.527327
21
0.463575
0
LINE
8
BLACK
6
CONTINUOUS
10
0.527327
20
0.463575
11
0.52811
21
0.45
0
LINE
8
BLACK
6
CONTINUOUS
10
0.52811
20
0.45
11
0.527877
21
0.442584
0
LINE
8
BLACK
6
CONTINUOUS
10
0.527877
20
0.442584
11
0.526244
21
0.429084
0
LINE
8
BLACK
6
CONTINUOUS
10
0.526244
20
0.429084
11
0.523069
21
0.415862
0
LINE
8
BLACK
6
CONTINUOUS
10
0.523069
20
0.415862
11
0.518396
21
0.403093
0
LINE
8
BLACK
6
CONTINUOUS
10
0.518396
20
0.403093
11
0.512286
21
0.390945
0
LINE
8
BLACK
6
CONTINUOUS
10
0.512286
20
0.390945
11
0.504821
21
0.37958
0
LINE
8
BLACK
6
CONTINUOUS
10
0.504821
20
0.37958
11
0.496099
21
0.369148
0
LINE
8
BLACK
6
CONTINUOUS
10
0.496099
20
0.369148
11
0.486235
21
0.359788
0
LINE
8
BLACK
6
CONTINUOUS
10
0.486235
20
0.359788
11
0.475361
21
0.351623
0
LINE
8
BLACK
6
CONTINUOUS
10
0.475361
20
0.351623
11
0.463621
21
0.344763
0
LINE
8
BLACK
6
CONTINUOUS
10
0.463621
20
0.344763
11
0.45117
21
0.339297
0
LINE
8
BLACK
6
CONTINUOUS
10
0.45117
20
0.339297
11
0.438173
21
0.335299
0
LINE
8
BLACK
6
CONTINUOUS
10
0.438173
20
0.335299
11
0.424803
21
0.332821
0
LINE
8
BLACK
6
CONTINUOUS
10
0.424803
20
0.332821
11
0.411237
21
0.331896
0
LINE
8
BLACK
6
CONTINUOUS
10
0.411237
20
0.331896
11
0.397654
21
0.332537
0
LINE
8
BLACK
6
CONTINUOUS
10
0.397654
20
0.332537
11
0.384235
21
0.334734
0
LINE
8
BLACK
6
CONTINUOUS
10
0.384235
20
0.334734
11
0.371157
21
0.338459
0
LINE
8
BLACK
6
CONTINUOUS
10
0.371157
20
0.338459
11
0.358595
21
0.343663
0
LINE
8
BLACK
6
CONTINUOUS
10
0.358595
20
0.343663
11
0.346713
21
0.350276
0
LINE
8
BLACK
6
CONTINUOUS
10
0.346713
20
0.350276
11
0.335671
21
0.358211
0
LINE
8
BLACK
6
CONTINUOUS
10
0.335671
20
0.358211
11
0.325613
21
0.367363
0
LINE
8
BLACK
6
CONTINUOUS
10
0.325613
20
0.367363
11
0.316675
21
0.377609
0
LINE
8
BLACK
6
CONTINUOUS
10
0.316675
20
0.377609
11
0.308973
21
0.388816
0
LINE
8
BLACK
6
CONTINUOUS
10
0.308973
20
0.388816
11
0.30261
21
0.400833
0
LINE
8
BLACK
6
CONTINUOUS
10
0.30261
20
0.400833
11
0.29767
21
0.413502
0
LINE
8
BLACK
6
CONTINUOUS
10
0.29767
20
0.413502
11
0.29422
21
0.426655
0
LINE
8
BLACK
6
CONTINUOUS
10
0.29422
20
0.426655
11
0.292304
21
0.440117
0
LINE
8
BLACK
6
CONTINUOUS
10
0.292304
20
0.440117
11
0.291948
21
0.45371
0
LINE
8
BLACK
6
CONTINUOUS
10
0.291948
20
0.45371
11
0.293157
21
0.467254
0
LINE
8
BLACK
6
CONTINUOUS
10
0.293157
20
0.467254
11
0.295914
21
0.480569
0
LINE
8
BLACK
6
CONTINUOUS
10
0.295914
20
0.480569
11
0.300184
21
0.493479
0
LINE
8
BLACK
6
CONTINUOUS
10
0.300184
20
0.493479
11
0.305909
21
0.505813
0
LINE
8
BLACK
6
CONTINUOUS
10
0.305909
20
0.505813
11
0.313014
21
0.517407
0
LINE
8
BLACK
6
CONTINUOUS
10
0.313014
20
0.517407
11
0.321404
21
0.528108
0
LINE
8
BLACK
6
CONTINUOUS
10
0.321404
20
0.528108
11
0.330969
21
0.537773
0
LINE
8
BLACK
6
CONTINUOUS
10
0.330969
20
0.537773
11
0.341581
21
0.546275
0
LINE
8
BLACK
6
CONTINUOUS
10
0.341581
20
0.546275
11
0.3531
21
0.553501
0
LINE
8
BLACK
6
CONTINUOUS
10
0.3531
20
0.553501
11
0.365373
21
0.559355
0
LINE
8
BLACK
6
CONTINUOUS
10
0.365373
20
0.559355
11
0.378238
21
0.563759
0
LINE
8
BLACK
6
CONTINUOUS
10
0.378238
20
0.563759
11
0.391524
21
0.566656
0
LINE
8
BLACK
6
CONTINUOUS
10
0.391524
20
0.566656
11
0.405054
21
0.568007
0
LINE
8
BLACK
6
CONTINUOUS
10
0.405054
20
0.568007
11
0.41865
21
0.567793
0
LINE
8
BLACK
6
CONTINUOUS
10
2.41865
20
0.567793
11
2.43213
21
0.566018
0
LINE
8
BLACK
6
CONTINUOUS
10
2.43213
20
0.566018
11
2.44532
21
0.562706
0
LINE
8
BLACK
6
CONTINUOUS
10
2.44532
20
0.562706
11
2.45804
21
0.557899
0
LINE
8
BLACK
6
CONTINUOUS
10
2.45804
20
0.557899
11
2.47012
21
0.551662
0
LINE
8
BLACK
6
CONTINUOUS
10
2.47012
20
0.551662
11
2.48141
21
0.544078
0
LINE
8
BLACK
6
CONTINUOUS
10
2.48141
20
0.544078
11
2.49175
21
0.535247
0
LINE
8
BLACK
6
CONTINUOUS
10
2.49175
20
0.535247
11
2.50101
21
0.525286
0
LINE
8
BLACK
6
CONTINUOUS
10
2.50101
20
0.525286
11
2.50906
21
0.514327
0
LINE
8
BLACK
6
CONTINUOUS
10
2.50906
20
0.514327
11
2.51579
21
0.502516
0
LINE
8
BLACK
6
CONTINUOUS
10
2.51579
20
0.502516
11
2.52113
21
0.490008
0
LINE
8
BLACK
6
CONTINUOUS
10
2.52113
20
0.490008
11
2.52499
21
0.476971
0
LINE
8
BLACK
6
CONTINUOUS
10
2.52499
20
0.476971
11
2.52733
21
0.463575
0
LINE
8
BLACK
6
CONTINUOUS
10
2.52733
20
0.463575
11
2.52811
21
0.45
0
LINE
8
BLACK
6
CONTINUOUS
10
2.52811
20
0.45
11
2.52788
21
0.442584
0
LINE
8
BLACK
6
CONTINUOUS
10
2.52788
20
0.442584
11
2.52624
21
0.429084
0
LINE
8
BLACK
6
CONTINUOUS
10
2.52624
20
0.429084
11
2.52307
21
0.415862
0
LINE
8
BLACK
6
CONTINUOUS
10
2.52307
20
0.415862
11
2.5184
21
0.403093
0
LINE
8
BLACK
6
CONTINUOUS
10
2.5184
20
0.403093
11
2.51229
21
0.390945
0
LINE
8
BLACK
6
CONTINUOUS
10
2.51229
20
0.390945
11
2.50482
21
0.37958
0
LINE
8
BLACK
6
CONTINUOUS
10
2.50482
20
0.37958
11
2.4961
21
0.369148
0
LINE
8
BLACK
6
CONTINUOUS
10
2.4961
20
0.369148
11
2.48624
21
0.359788
0
LINE
8
BLACK
6
CONTINUOUS
10
2.48624
20
0.359788
11
2.47536
21
0.351623
0
LINE
8
BLACK
6
CONTINUOUS
10
2.47536
20
0.351623
11
2.46362
21
0.344763
0
LINE
8
BLACK
6
CONTINUOUS
10
2.46362
20
0.344763
11
2.45117
21
0.339297
0
LINE
8
BLACK
6
CONTINUOUS
10
2.45117
20
0.339297
11
2.43817
21
0.335299
0
LINE
8
BLACK
6
CONTINUOUS
10
2.43817
20
0.335299
11
2.4248
21
0.332821
0
LINE
8
BLACK
6
CONTINUOUS
10
2.4248
20
0.332821
11
2.41124
21
0.331896
0
LINE
8
BLACK
6
CONTINUOUS
10
2.41124
20
0.331896
11
2.39765
21
0.332537
0
LINE
8
BLACK
6
CONTINUOUS
10
2.39765
20
0.332537
11
2.38424
21
0.334734
0
LINE
8
BLACK
6
CONTINUOUS
10
2.38424
20
0.334734
11
2.37116
21
0.338459
0
LINE
8
BLACK
6
CONTINUOUS
10
2.37116
20
0.338459
11
2.35859
21
0.343663
0
LINE
8
BLACK
6
CONTINUOUS
10
2.35859
20
0.343663
11
2.34671
21
0.350276
0
LINE
8
BLACK
6
CONTINUOUS
10
2.34671
20
0.350276
11
2.33567
21
0.358211
0
LINE
8
BLACK
6
CONTINUOUS
10
2.33567
20
0.358211
11
2.32561
21
0.367363
0
LINE
8
BLACK
6
CONTINUOUS
10
2.32561
20
0.367363
11
2.31667
21
0.377609
0
LINE
8
BLACK
6
CONTINUOUS
10
2.31667
20
0.377609
11
2.30897
21
0.388816
0
LINE
8
BLACK
6
CONTINUOUS
10
2.30897
20
0.388816
11
2.30261
21
0.400833
0
LINE
8
BLACK
6
CONTINUOUS
10
2.30261
20
0.400833
11
2.29767
21
0.413502
0
LINE
8
BLACK
6
CONTINUOUS
10
2.29767
20
0.413502
11
2.29422
21
0.426655
0
LINE
8
BLACK
6
CONTINUOUS
10
2.29422
20
0.426655
11
2.2923
21
0.440117
0
LINE
8
BLACK
6
CONTINUOUS
10
2.2923
20
0.440117
11
2.29195
21
0.45371
0
LINE
8
BLACK
6
CONTINUOUS
10
2.29195
20
0.45371
11
2.29316
21
0.467254
0
LINE
8
BLACK
6
CONTINUOUS
10
2.29316
20
0.467254
11
2.29591
21
0.480569
0
LINE
8
BLACK
6
CONTINUOUS
10
2.29591
20
0.480569
11
2.30018
21
0.493479
0
LINE
8
BLACK
6
CONTINUOUS
10
2.30018
20
0.493479
11
2.30591
21
0.505813
0
LINE
8
BLACK
6
CONTINUOUS
10
2.30591
20
0.505813
11
2.31301
21
0.517407
0
LINE
8
BLACK
6
CONTINUOUS
10
2.31301
20
0.517407
11
2.3214
21
0.528108
0
LINE
8
BLACK
6
CONTINUOUS
10
2.3214
20
0.528108
11
2.33097
21
0.537773
0
LINE
8
BLACK
6
CONTINUOUS
10
2.33097
20
0.537773
11
2.34158
21
0.546275
0
LINE
8
BLACK
6
CONTINUOUS
10
2.34158
20
0.546275
11
2.3531
21
0.553501
0
LINE
8
BLACK
6
CONTINUOUS
10
2.3531
20
0.553501
11
2.36537
21
0.559355
0
LINE
8
BLACK
6
CONTINUOUS
10
2.36537
20
0.559355
11
2.37824
21
0.563759
0
LINE
8
BLACK
6
CONTINUOUS
10
2.37824
20
0.563759
11
2.39152
21
0.566656
0
LINE
8
BLACK
6
CONTINUOUS
10
2.39152
20
0.566656
11
2.40505
21
0.568007
0
LINE
8
BLACK
6
CONTINUOUS
10
2.40505
20
0.568007
11
2.41865
21
0.567793
0
LINE
8
BLACK
6
CONTINUOUS
10
2.41865
20
1.76779
11
2.43213
21
1.76602
0
LINE
8
BLACK
6
CONTINUOUS
10
2.43213
20
1.76602
11
2.44532
21
1.76271
0
LINE
8
BLACK
6
CONTINUOUS
10
2.44532
20
1.76271
11
2.45804
21
1.7579
0
LINE
8
BLACK
6
CONTINUOUS
10
2.45804
20
1.7579
11
2.47012
21
1.75166
0
LINE
8
BLACK
6
CONTINUOUS
10
2.47012
20
1.75166
11
2.48141
21
1.74408
0
LINE
8
BLACK
6
CONTINUOUS
10
2.48141
20
1.74408
11
2.49175
21
1.73525
0
LINE
8
BLACK
6
CONTINUOUS
10
2.49175
20
1.73525
11
2.50101
21
1.72529
0
LINE
8
BLACK
6
CONTINUOUS
10
2.50101
20
1.72529
11
2.50906
21
1.71433
0
LINE
8
BLACK
6
CONTINUOUS
10
2.50906
20
1.71433
11
2.51579
21
1.70252
0
LINE
8
BLACK
6
CONTINUOUS
10
2.51579
20
1.70252
11
2.52113
21
1.69001
0
LINE
8
BLACK
6
CONTINUOUS
10
2.52113
20
1.69001
11
2.52499
21
1.67697
0
LINE
8
BLACK
6
CONTINUOUS
10
2.52499
20
1.67697
11
2.52733
21
1.66358
0
LINE
8
BLACK
6
CONTINUOUS
10
2.52733
20
1.66358
11
2.52811
21
1.65
0
LINE
8
BLACK
6
CONTINUOUS
10
2.52811
20
1.65
11
2.52788
21
1.64258
0
LINE
8
BLACK
6
CONTINUOUS
10
2.52788
20
1.64258
11
2.52624
21
1.62908
0
LINE
8
BLACK
6
CONTINUOUS
10
2.52624
20
1.62908
11
2.52307
21
1.61586
0
LINE
8
BLACK
6
CONTINUOUS
10
2.52307
20
1.61586
11
2.5184
21
1.60309
0
LINE
8
BLACK
6
CONTINUOUS
10
2.5184
20
1.60309
11
2.51229
21
1.59094
0
LINE
8
BLACK
6
CONTINUOUS
10
2.51229
20
1.59094
11
2.50482
21
1.57958
0
LINE
8
BLACK
6
CONTINUOUS
10
2.50482
20
1.57958
11
2.4961
21
1.56915
0
LINE
8
BLACK
6
CONTINUOUS
10
2.4961
20
1.56915
11
2.48624
21
1.55979
0
LINE
8
BLACK
6
CONTINUOUS
10
2.48624
20
1.55979
11
2.47536
21
1.55162
0
LINE
8
BLACK
6
CONTINUOUS
10
2.47536
20
1.55162
11
2.46362
21
1.54476
0
LINE
8
BLACK
6
CONTINUOUS
10
2.46362
20
1.54476
11
2.45117
21
1.5393
0
LINE
8
BLACK
6
CONTINUOUS
10
2.45117
20
1.5393
11
2.43817
21
1.5353
0
LINE
8
BLACK
6
CONTINUOUS
10
2.43817
20
1.5353
11
2.4248
21
1.53282
0
LINE
8
BLACK
6
CONTINUOUS
10
2.4248
20
1.53282
11
2.41124
21
1.5319
0
LINE
8
BLACK
6
CONTINUOUS
10
2.41124
20
1.5319
11
2.39765
21
1.53254
0
LINE
8
BLACK
6
CONTINUOUS
10
2.39765
20
1.53254
11
2.38424
21
1.53473
0
LINE
8
BLACK
6
CONTINUOUS
10
2.38424
20
1.53473
11
2.37116
21
1.53846
0
LINE
8
BLACK
6
CONTINUOUS
10
2.37116
20
1.53846
11
2.35859
21
1.54366
0
LINE
8
BLACK
6
CONTINUOUS
10
2.35859
20
1.54366
11
2.34671
21
1.55028
0
LINE
8
BLACK
6
CONTINUOUS
10
2.34671
20
1.55028
11
2.33567
21
1.55821
0
LINE
8
BLACK
6
CONTINUOUS
10
2.33567
20
1.55821
11
2.32561
21
1.56736
0
LINE
8
BLACK
6
CONTINUOUS
10
2.32561
20
1.56736
11
2.31667
21
1.57761
0
LINE
8
BLACK
6
CONTINUOUS
10
2.31667
20
1.57761
11
2.30897
21
1.58882
0
LINE
8
BLACK
6
CONTINUOUS
10
2.30897
20
1.58882
11
2.30261
21
1.60083
0
LINE
8
BLACK
6
CONTINUOUS
10
2.30261
20
1.60083
11
2.29767
21
1.6135
0
LINE
8
BLACK
6
CONTINUOUS
10
2.29767
20
1.6135
11
2.29422
21
1.62665
0
LINE
8
BLACK
6
CONTINUOUS
10
2.29422
20
1.62665
11
2.2923
21
1.64012
0
LINE
8
BLACK
6
CONTINUOUS
10
2.2923
20
1.64012
11
2.29195
21
1.65371
0
LINE
8
BLACK
6
CONTINUOUS
10
2.29195
20
1.65371
11
2.29316
21
1.66725
0
LINE
8
BLACK
6
CONTINUOUS
10
2.29316
20
1.66725
11
2.29591
21
1.68057
0
LINE
8
BLACK
6
CONTINUOUS
10
2.29591
20
1.68057
11
2.30018
21
1.69348
0
LINE
8
BLACK
6
CONTINUOUS
10
2.30018
20
1.69348
11
2.30591
21
1.70581
0
LINE
8
BLACK
6
CONTINUOUS
10
2.30591
20
1.70581
11
2.31301
21
1.71741
0
LINE
8
BLACK
6
CONTINUOUS
10
2.31301
20
1.71741
11
2.3214
21
1.72811
0
LINE
8
BLACK
6
CONTINUOUS
10
2.3214
20
1.72811
11
2.33097
21
1.73777
0
LINE
8
BLACK
6
CONTINUOUS
10
2.33097
20
1.73777
11
2.34158
21
1.74627
0
LINE
8
BLACK
6
CONTINUOUS
10
2.34158
20
1.74627
11
2.3531
21
1.7535
0
LINE
8
BLACK
6
CONTINUOUS
10
2.3531
20
1.7535
11
2.36537
21
1.75935
0
LINE
8
BLACK
6
CONTINUOUS
10
2.36537
20
1.75935
11
2.37824
21
1.76376
0
LINE
8
BLACK
6
CONTINUOUS
10
2.37824
20
1.76376
11
2.39152
21
1.76666
0
LINE
8
BLACK
6
CONTINUOUS
10
2.39152
20
1.76666
11
2.40505
21
1.76801
0
LINE
8
BLACK
6
CONTINUOUS
10
2.40505
20
1.76801
11
2.41865
21
1.76779
0
LINE
8
BLACK
6
CONTINUOUS
10
0.41865
20
1.76779
11
0.432132
21
1.76602
0
LINE
8
BLACK
6
CONTINUOUS
10
0.432132
20
1.76602
11
0.44532
21
1.76271
0
LINE
8
BLACK
6
CONTINUOUS
10
0.44532
20
1.76271
11
0.45804
21
1.7579
0
LINE
8
BLACK
6
CONTINUOUS
10
0.45804
20
1.7579
11
0.470123
21
1.75166
0
LINE
8
BLACK
6
CONTINUOUS
10
0.470123
20
1.75166
11
0.481409
21
1.74408
0
LINE
8
BLACK
6
CONTINUOUS
10
0.481409
20
1.74408
11
0.491749
21
1.73525
0
LINE
8
BLACK
6
CONTINUOUS
10
0.491749
20
1.73525
11
0.501006
21
1.72529
0
LINE
8
BLACK
6
CONTINUOUS
10
0.501006
20
1.72529
11
0.509056
21
1.71433
0
LINE
8
BLACK
6
CONTINUOUS
10
0.509056
20
1.71433
11
0.515793
21
1.70252
0
LINE
8
BLACK
6
CONTINUOUS
10
0.515793
20
1.70252
11
0.521128
21
1.69001
0
LINE
8
BLACK
6
CONTINUOUS
10
0.521128
20
1.69001
11
0.52499
21
1.67697
0
LINE
8
BLACK
6
CONTINUOUS
10
0.52499
20
1.67697
11
0.527327
21
1.66358
0
LINE
8
BLACK
6
CONTINUOUS
10
0.527327
20
1.66358
11
0.52811
21
1.65
0
LINE
8
BLACK
6
CONTINUOUS
10
0.52811
20
1.65
11
0.527877
21
1.64258
0
LINE
8
BLACK
6
CONTINUOUS
10
0.527877
20
1.64258
11
0.526244
21
1.62908
0
LINE
8
BLACK
6
CONTINUOUS
10
0.526244
20
1.62908
11
0.523069
21
1.61586
0
LINE
8
BLACK
6
CONTINUOUS
10
0.523069
20
1.61586
11
0.518396
21
1.60309
0
LINE
8
BLACK
6
CONTINUOUS
10
0.518396
20
1.60309
11
0.512286
21
1.59094
0
LINE
8
BLACK
6
CONTINUOUS
10
0.512286
20
1.59094
11
0.504821
21
1.57958
0
LINE
8
BLACK
6
CONTINUOUS
10
0.504821
20
1.57958
11
0.496099
21
1.56915
0
LINE
8
BLACK
6
CONTINUOUS
10
0.496099
20
1.56915
11
0.486235
21
1.55979
0
LINE
8
BLACK
6
CONTINUOUS
10
0.486235
20
1.55979
11
0.475361
21
1.55162
0
LINE
8
BLACK
6
CONTINUOUS
10
0.475361
20
1.55162
11
0.463621
21
1.54476
0
LINE
8
BLACK
6
CONTINUOUS
10
0.463621
20
1.54476
11
0.45117
21
1.5393
0
LINE
8
BLACK
6
CONTINUOUS
10
0.45117
20
1.5393
11
0.438173
21
1.5353
0
LINE
8
BLACK
6
CONTINUOUS
10
0.438173
20
1.5353
11
0.424803
21
1.53282
0
LINE
8
BLACK
6
CONTINUOUS
10
0.424803
20
1.53282
11
0.411237
21
1.5319
0
LINE
8
BLACK
6
CONTINUOUS
10
0.411237
20
1.5319
11
0.397654
21
1.53254
0
LINE
8
BLACK
6
CONTINUOUS
10
0.397654
20
1.53254
11
0.384235
21
1.53473
0
LINE
8
BLACK
6
CONTINUOUS
10
0.384235
20
1.53473
11
0.371157
21
1.53846
0
LINE
8
BLACK
6
CONTINUOUS
10
0.371157
20
1.53846
11
0.358595
21
1.54366
0
LINE
8
BLACK
6
CONTINUOUS
10
0.358595
20
1.54366
11
0.346713
21
1.55028
0
LINE
8
BLACK
6
CONTINUOUS
10
0.346713
20
1.55028
11
0.335671
21
1.55821
0
LINE
8
BLACK
6
CONTINUOUS
10
0.335671
20
1.55821
11
0.325613
21
1.56736
0
LINE
8
BLACK
6
CONTINUOUS
10
0.325613
20
1.56736
11
0.316675
21
1.57761
0
LINE
8
BLACK
6
CONTINUOUS
10
0.316675
20
1.57761
11
0.308973
21
1.58882
0
LINE
8
BLACK
6
CONTINUOUS
10
0.308973
20
1.58882
11
0.30261
21
1.60083
0
LINE
8
BLACK
6
CONTINUOUS
10
0.30261
20
1.60083
11
0.29767
21
1.6135
0
LINE
8
BLACK
6
CONTINUOUS
10
0.29767
20
1.6135
11
0.29422
21
1.62665
0
LINE
8
BLACK
6
CONTINUOUS
10
0.29422
20
1.62665
11
0.292304
21
1.64012
0
LINE
8
BLACK
6
CONTINUOUS
10
0.292304
20
1.64012
11
0.291948
21
1.65371
0
LINE
8
BLACK
6
CONTINUOUS
10
0.291948
20
1.65371
11
0.293157
21
1.66725
0
LINE
8
BLACK
6
CONTINUOUS
10
0.293157
20
1.66725
11
0.295914
21
1.68057
0
LINE
8
BLACK
6
CONTINUOUS
10
0.295914
20
1.68057
11
0.300184
21
1.69348
0
LINE
8
BLACK
6
CONTINUOUS
10
0.300184
20
1.69348
11
0.305909
21
1.70581
0
LINE
8
BLACK
6
CONTINUOUS
10
0.305909
20
1.70581
11
0.313014
21
1.71741
0
LINE
8
BLACK
6
CONTINUOUS
10
0.313014
20
1.71741
11
0.321404
21
1.72811
0
LINE
8
BLACK
6
CONTINUOUS
10
0.321404
20
1.72811
11
0.330969
21
1.73777
0
LINE
8
BLACK
6
CONTINUOUS
10
0.330969
20
1.73777
11
0.341581
21
1.74627
0
LINE
8
BLACK
6
CONTINUOUS
10
0.341581
20
1.74627
11
0.3531
21
1.7535
0
LINE
8
BLACK
6
CONTINUOUS
10
0.3531
20
1.7535
11
0.365373
21
1.75935
0
LINE
8
BLACK
6
CONTINUOUS
10
0.365373
20
1.75935
11
0.378238
21
1.76376
0
LINE
8
BLACK
6
CONTINUOUS
10
0.378238
20
1.76376
11
0.391524
21
1.76666
0
LINE
8
BLACK
6
CONTINUOUS
10
0.391524
20
1.76666
11
0.405054
21
1.76801
0
LINE
8
BLACK
6
CONTINUOUS
10
0.405054
20
1.76801
11
0.41865
21
1.76779
  0
ENDSEC
  0
EOF
