<?xml version='1.0' encoding='ASCII' standalone='yes'?>
<svg xmlns:svg="http://www.w3.org/2000/svg" xmlns="http://www.w3.org/2000/svg" xmlns:xlink="http://www.w3.org/1999/xlink" version="1.1" width="297.0022mm" height="210.0072mm" viewBox="0.0000 0.0000 297.0022 210.0072">
<title>SVG Image created as VCAI2C01-B_Fab.svg date 2023/07/20 11:10:29 </title>
  <desc>Image generated by PCBNEW </desc>
<g style="fill:#000084; fill-opacity:1.0000;stroke:#000084; stroke-opacity:1.0000; stroke-linecap:round; stroke-linejoin:round;" transform="translate(0 0) scale(1 1)">
</g>
<g style="fill:#000084; fill-opacity:0.0;  stroke:#000084; stroke-width:0.0000; stroke-opacity:1;  stroke-linecap:round; stroke-linejoin:round;">
</g>
<g style="fill:#000084; fill-opacity:0.0;  stroke:#000084; stroke-width:0.7351; stroke-opacity:1;  stroke-linecap:round; stroke-linejoin:round;">
<g transform="rotate(-90.000000 150.9907 78.8626)">
<text x="150.9907" y="81.3130" transform="scale(-1 1) translate(-301.981446 0)" textLength="34.9301" font-size="6.5344" lengthAdjust="spacingAndGlyphs" text-anchor="middle" opacity="0.01" style="font-family:monospace">MCP3424</text>
</g>
<g class="stroked-text"><desc>MCP3424</desc>
<path d="M148.7617 62.9932 L153.6626 62.9932 "/>
<path d="M153.6626 62.9932 L150.1620 64.6268 "/>
<path d="M150.1620 64.6268 L153.6626 66.2604 "/>
<path d="M153.6626 66.2604 L148.7617 66.2604 "/>
<path d="M149.2285 71.3946 L148.9951 71.1613 "/>
<path d="M148.9951 71.1613 L148.7617 70.4612 "/>
<path d="M148.7617 70.4612 L148.7617 69.9944 "/>
<path d="M148.7617 69.9944 L148.9951 69.2943 "/>
<path d="M148.9951 69.2943 L149.4619 68.8276 "/>
<path d="M149.4619 68.8276 L149.9286 68.5942 "/>
<path d="M149.9286 68.5942 L150.8621 68.3608 "/>
<path d="M150.8621 68.3608 L151.5622 68.3608 "/>
<path d="M151.5622 68.3608 L152.4957 68.5942 "/>
<path d="M152.4957 68.5942 L152.9624 68.8276 "/>
<path d="M152.9624 68.8276 L153.4292 69.2943 "/>
<path d="M153.4292 69.2943 L153.6626 69.9944 "/>
<path d="M153.6626 69.9944 L153.6626 70.4612 "/>
<path d="M153.6626 70.4612 L153.4292 71.1613 "/>
<path d="M153.4292 71.1613 L153.1958 71.3946 "/>
<path d="M148.7617 73.4950 L153.6626 73.4950 "/>
<path d="M153.6626 73.4950 L153.6626 75.3620 "/>
<path d="M153.6626 75.3620 L153.4292 75.8287 "/>
<path d="M153.4292 75.8287 L153.1958 76.0621 "/>
<path d="M153.1958 76.0621 L152.7291 76.2955 "/>
<path d="M152.7291 76.2955 L152.0290 76.2955 "/>
<path d="M152.0290 76.2955 L151.5622 76.0621 "/>
<path d="M151.5622 76.0621 L151.3288 75.8287 "/>
<path d="M151.3288 75.8287 L151.0955 75.3620 "/>
<path d="M151.0955 75.3620 L151.0955 73.4950 "/>
<path d="M153.6626 77.9291 L153.6626 80.9629 "/>
<path d="M153.6626 80.9629 L151.7956 79.3293 "/>
<path d="M151.7956 79.3293 L151.7956 80.0294 "/>
<path d="M151.7956 80.0294 L151.5622 80.4962 "/>
<path d="M151.5622 80.4962 L151.3288 80.7296 "/>
<path d="M151.3288 80.7296 L150.8621 80.9629 "/>
<path d="M150.8621 80.9629 L149.6952 80.9629 "/>
<path d="M149.6952 80.9629 L149.2285 80.7296 "/>
<path d="M149.2285 80.7296 L148.9951 80.4962 "/>
<path d="M148.9951 80.4962 L148.7617 80.0294 "/>
<path d="M148.7617 80.0294 L148.7617 78.6292 "/>
<path d="M148.7617 78.6292 L148.9951 78.1625 "/>
<path d="M148.9951 78.1625 L149.2285 77.9291 "/>
<path d="M152.0290 85.1636 L148.7617 85.1636 "/>
<path d="M153.8959 83.9968 L150.3953 82.8299 "/>
<path d="M150.3953 82.8299 L150.3953 85.8638 "/>
<path d="M153.1958 87.4974 L153.4292 87.7307 "/>
<path d="M153.4292 87.7307 L153.6626 88.1975 "/>
<path d="M153.6626 88.1975 L153.6626 89.3644 "/>
<path d="M153.6626 89.3644 L153.4292 89.8311 "/>
<path d="M153.4292 89.8311 L153.1958 90.0645 "/>
<path d="M153.1958 90.0645 L152.7291 90.2978 "/>
<path d="M152.7291 90.2978 L152.2623 90.2978 "/>
<path d="M152.2623 90.2978 L151.5622 90.0645 "/>
<path d="M151.5622 90.0645 L148.7617 87.2640 "/>
<path d="M148.7617 87.2640 L148.7617 90.2978 "/>
<path d="M152.0290 94.4986 L148.7617 94.4986 "/>
<path d="M153.8959 93.3317 L150.3953 92.1648 "/>
<path d="M150.3953 92.1648 L150.3953 95.1987 "/>
</g><g>
</g>
<g>
</g>
<g>
</g>
<g>
</g>
<g>
</g>
<g>
</g>
<g>
</g>
<g>
</g>
<g>
</g>
<g>
</g>
<g>
</g>
<g>
</g>
<g>
</g>
<g>
</g>
<g>
</g>
<g>
</g>
<g>
</g>
<g>
</g>
<g>
</g>
<g>
</g>
<g>
</g>
<g>
</g>
<g>
</g>
<g>
</g>
<g>
</g>
<g>
</g>
<g>
</g>
<g>
</g>
<g>
</g>
<g>
</g>
<g>
</g>
<g>
</g>
<g>
</g>
<g>
</g>
<g>
</g>
<g>
</g>
<g>
</g>
<g>
</g>
<g>
</g>
<g>
</g>
<g>
</g>
<g>
</g>
<g>
</g>
<g>
</g>
<g>
</g>
<g>
</g>
<g>
</g>
<g>
</g>
<g>
</g>
<g>
</g>
<g>
</g>
<g>
</g>
<g>
</g>
<g>
</g>
<g>
</g>
<g>
</g>
<g>
</g>
<g>
</g>
<g>
</g>
<g>
</g>
<g>
</g>
<g>
</g>
<g>
</g>
<g>
</g>
<g>
</g>
<g>
</g>
<g>
</g>
<g>
</g>
<g>
</g>
<g>
</g>
<g>
</g>
<g>
</g>
<g>
</g>
<g>
</g>
<g>
</g>
<g>
</g>
<g>
</g>
</g> 
<svg:g><svg:g><svg:title>SVG Image created as VCAI2C01-Edge_Cuts.svg date 2023/07/20 11:10:29 </svg:title>
  <svg:desc>Image generated by PCBNEW </svg:desc>
<svg:g style="fill:#C2C200; fill-opacity:1.0000;stroke:#C2C200; stroke-opacity:1.0000; stroke-linecap:round; stroke-linejoin:round;" transform="translate(0 0) scale(1 1)">
</svg:g>
<svg:g style="fill:#C2C200; fill-opacity:0.0;  stroke:#C2C200; stroke-width:0.0000; stroke-opacity:1;  stroke-linecap:round; stroke-linejoin:round;">
</svg:g>
<svg:g style="fill:#C2C200; fill-opacity:0.0;  stroke:#C2C200; stroke-width:0.7351; stroke-opacity:1;  stroke-linecap:round; stroke-linejoin:round;">
<svg:path d="M296.6335 203.3436 L0.3687 203.3436 "/>
<svg:path d="M296.6335 6.6636 L0.3687 6.6636 "/>
<svg:path d="M296.6335 203.3436 L296.6335 6.6636 "/>
<svg:path d="M0.3687 203.3436 L0.3687 6.6636 "/>
<svg:g>
</svg:g>
<svg:g>
</svg:g>
<svg:g>
</svg:g>
<svg:g>
</svg:g>
<svg:g>
</svg:g>
<svg:g>
</svg:g>
<svg:g>
</svg:g>
<svg:g>
</svg:g>
<svg:g>
</svg:g>
<svg:g>
</svg:g>
<svg:g>
</svg:g>
<svg:g>
</svg:g>
<svg:g>
</svg:g>
<svg:g>
</svg:g>
<svg:g>
</svg:g>
<svg:g>
</svg:g>
<svg:g>
</svg:g>
<svg:g>
</svg:g>
<svg:g>
</svg:g>
<svg:g>
</svg:g>
<svg:g>
</svg:g>
<svg:g>
</svg:g>
<svg:g>
</svg:g>
<svg:g>
</svg:g>
<svg:g>
</svg:g>
<svg:g>
</svg:g>
<svg:g>
</svg:g>
<svg:g>
</svg:g>
<svg:g>
</svg:g>
<svg:g>
</svg:g>
<svg:g>
</svg:g>
<svg:g>
</svg:g>
<svg:g>
</svg:g>
<svg:g>
</svg:g>
<svg:g>
</svg:g>
<svg:g>
</svg:g>
<svg:g>
</svg:g>
<svg:g>
</svg:g>
<svg:g>
</svg:g>
<svg:g>
</svg:g>
<svg:g>
</svg:g>
<svg:g>
</svg:g>
<svg:g>
</svg:g>
<svg:g>
</svg:g>
<svg:g>
</svg:g>
<svg:g>
</svg:g>
<svg:g>
</svg:g>
<svg:g>
</svg:g>
<svg:g>
</svg:g>
<svg:g>
</svg:g>
<svg:g>
</svg:g>
<svg:g>
</svg:g>
<svg:g>
</svg:g>
<svg:g>
</svg:g>
<svg:g>
</svg:g>
<svg:g>
</svg:g>
<svg:g>
</svg:g>
<svg:g>
</svg:g>
<svg:g>
</svg:g>
<svg:g>
</svg:g>
<svg:g>
</svg:g>
<svg:g>
</svg:g>
<svg:g>
</svg:g>
<svg:g>
</svg:g>
<svg:g>
</svg:g>
<svg:g>
</svg:g>
<svg:g>
</svg:g>
<svg:g>
</svg:g>
<svg:g>
</svg:g>
<svg:g>
</svg:g>
<svg:g>
</svg:g>
<svg:g>
</svg:g>
<svg:g>
</svg:g>
<svg:g>
</svg:g>
<svg:g>
</svg:g>
<svg:g>
</svg:g>
<svg:g>
</svg:g>
</svg:g> 
</svg:g></svg:g></svg>
