<?xml version='1.0' encoding='ASCII' standalone='yes'?>
<svg xmlns:svg="http://www.w3.org/2000/svg" xmlns="http://www.w3.org/2000/svg" xmlns:xlink="http://www.w3.org/1999/xlink" version="1.1" width="297.0022mm" height="210.0072mm" viewBox="0.0000 0.0000 297.0022 210.0072">
<title>SVG Image created as VCAI2C01-B_Fab.svg date 2023/07/05 14:45:15 </title>
  <desc>Image generated by PCBNEW </desc>
<g style="fill:#000084; fill-opacity:1.0000;stroke:#000084; stroke-opacity:1.0000; stroke-linecap:round; stroke-linejoin:round;" transform="translate(0 0) scale(1 1)">
</g>
<g style="fill:#000084; fill-opacity:0.0;  stroke:#000084; stroke-width:0.0000; stroke-opacity:1;  stroke-linecap:round; stroke-linejoin:round;">
</g>
<g style="fill:#000084; fill-opacity:0.0;  stroke:#000084; stroke-width:0.7351; stroke-opacity:1;  stroke-linecap:round; stroke-linejoin:round;">
<g transform="rotate(-90.000000 146.0115 78.8626)">
<text x="146.0115" y="81.3130" transform="scale(-1 1) translate(-292.022954 0)" textLength="34.9301" font-size="6.5344" lengthAdjust="spacingAndGlyphs" text-anchor="middle" opacity="0.01" style="font-family:monospace">MCP3424</text>
</g>
<g class="stroked-text"><desc>MCP3424</desc>
<path d="M148.2405 62.9932 L143.3396 62.9932 "/>
<path d="M143.3396 62.9932 L146.8402 64.6268 "/>
<path d="M146.8402 64.6268 L143.3396 66.2604 "/>
<path d="M143.3396 66.2604 L148.2405 66.2604 "/>
<path d="M147.7737 71.3946 L148.0071 71.1613 "/>
<path d="M148.0071 71.1613 L148.2405 70.4612 "/>
<path d="M148.2405 70.4612 L148.2405 69.9944 "/>
<path d="M148.2405 69.9944 L148.0071 69.2943 "/>
<path d="M148.0071 69.2943 L147.5403 68.8276 "/>
<path d="M147.5403 68.8276 L147.0736 68.5942 "/>
<path d="M147.0736 68.5942 L146.1401 68.3608 "/>
<path d="M146.1401 68.3608 L145.4400 68.3608 "/>
<path d="M145.4400 68.3608 L144.5065 68.5942 "/>
<path d="M144.5065 68.5942 L144.0398 68.8276 "/>
<path d="M144.0398 68.8276 L143.5730 69.2943 "/>
<path d="M143.5730 69.2943 L143.3396 69.9944 "/>
<path d="M143.3396 69.9944 L143.3396 70.4612 "/>
<path d="M143.3396 70.4612 L143.5730 71.1613 "/>
<path d="M143.5730 71.1613 L143.8064 71.3946 "/>
<path d="M148.2405 73.4950 L143.3396 73.4950 "/>
<path d="M143.3396 73.4950 L143.3396 75.3620 "/>
<path d="M143.3396 75.3620 L143.5730 75.8287 "/>
<path d="M143.5730 75.8287 L143.8064 76.0621 "/>
<path d="M143.8064 76.0621 L144.2731 76.2955 "/>
<path d="M144.2731 76.2955 L144.9732 76.2955 "/>
<path d="M144.9732 76.2955 L145.4400 76.0621 "/>
<path d="M145.4400 76.0621 L145.6734 75.8287 "/>
<path d="M145.6734 75.8287 L145.9067 75.3620 "/>
<path d="M145.9067 75.3620 L145.9067 73.4950 "/>
<path d="M143.3396 77.9291 L143.3396 80.9629 "/>
<path d="M143.3396 80.9629 L145.2066 79.3293 "/>
<path d="M145.2066 79.3293 L145.2066 80.0294 "/>
<path d="M145.2066 80.0294 L145.4400 80.4962 "/>
<path d="M145.4400 80.4962 L145.6734 80.7296 "/>
<path d="M145.6734 80.7296 L146.1401 80.9629 "/>
<path d="M146.1401 80.9629 L147.3070 80.9629 "/>
<path d="M147.3070 80.9629 L147.7737 80.7296 "/>
<path d="M147.7737 80.7296 L148.0071 80.4962 "/>
<path d="M148.0071 80.4962 L148.2405 80.0294 "/>
<path d="M148.2405 80.0294 L148.2405 78.6292 "/>
<path d="M148.2405 78.6292 L148.0071 78.1625 "/>
<path d="M148.0071 78.1625 L147.7737 77.9291 "/>
<path d="M144.9732 85.1636 L148.2405 85.1636 "/>
<path d="M143.1063 83.9968 L146.6069 82.8299 "/>
<path d="M146.6069 82.8299 L146.6069 85.8638 "/>
<path d="M143.8064 87.4974 L143.5730 87.7307 "/>
<path d="M143.5730 87.7307 L143.3396 88.1975 "/>
<path d="M143.3396 88.1975 L143.3396 89.3644 "/>
<path d="M143.3396 89.3644 L143.5730 89.8311 "/>
<path d="M143.5730 89.8311 L143.8064 90.0645 "/>
<path d="M143.8064 90.0645 L144.2731 90.2978 "/>
<path d="M144.2731 90.2978 L144.7399 90.2978 "/>
<path d="M144.7399 90.2978 L145.4400 90.0645 "/>
<path d="M145.4400 90.0645 L148.2405 87.2640 "/>
<path d="M148.2405 87.2640 L148.2405 90.2978 "/>
<path d="M144.9732 94.4986 L148.2405 94.4986 "/>
<path d="M143.1063 93.3317 L146.6069 92.1648 "/>
<path d="M146.6069 92.1648 L146.6069 95.1987 "/>
</g><g>
</g>
<g>
</g>
<g>
</g>
<g>
</g>
<g>
</g>
<g>
</g>
<g>
</g>
<g>
</g>
<g>
</g>
<g>
</g>
<g>
</g>
<g>
</g>
<g>
</g>
<g>
</g>
<g>
</g>
<g>
</g>
<g>
</g>
<g>
</g>
<g>
</g>
<g>
</g>
<g>
</g>
<g>
</g>
<g>
</g>
<g>
</g>
<g>
</g>
<g>
</g>
<g>
</g>
<g>
</g>
<g>
</g>
<g>
</g>
<g>
</g>
<g>
</g>
<g>
</g>
<g>
</g>
<g>
</g>
<g>
</g>
<g>
</g>
<g>
</g>
<g>
</g>
<g>
</g>
<g>
</g>
<g>
</g>
<g>
</g>
<g>
</g>
<g>
</g>
<g>
</g>
<g>
</g>
<g>
</g>
<g>
</g>
<g>
</g>
<g>
</g>
<g>
</g>
<g>
</g>
<g>
</g>
<g>
</g>
<g>
</g>
<g>
</g>
<g>
</g>
<g>
</g>
<g>
</g>
<g>
</g>
<g>
</g>
<g>
</g>
<g>
</g>
<g>
</g>
<g>
</g>
<g>
</g>
<g>
</g>
<g>
</g>
<g>
</g>
<g>
</g>
<g>
</g>
<g>
</g>
<g>
</g>
<g>
</g>
<g>
</g>
<g>
</g>
</g> 
<svg:g><svg:g><svg:title>SVG Image created as VCAI2C01-Edge_Cuts.svg date 2023/07/05 14:45:15 </svg:title>
  <svg:desc>Image generated by PCBNEW </svg:desc>
<svg:g style="fill:#C2C200; fill-opacity:1.0000;stroke:#C2C200; stroke-opacity:1.0000; stroke-linecap:round; stroke-linejoin:round;" transform="translate(0 0) scale(1 1)">
</svg:g>
<svg:g style="fill:#C2C200; fill-opacity:0.0;  stroke:#C2C200; stroke-width:0.0000; stroke-opacity:1;  stroke-linecap:round; stroke-linejoin:round;">
</svg:g>
<svg:g style="fill:#C2C200; fill-opacity:0.0;  stroke:#C2C200; stroke-width:0.7351; stroke-opacity:1;  stroke-linecap:round; stroke-linejoin:round;">
<svg:path d="M0.3687 203.3436 L296.6335 203.3436 "/>
<svg:path d="M0.3687 6.6636 L296.6335 6.6636 "/>
<svg:path d="M0.3687 203.3436 L0.3687 6.6636 "/>
<svg:path d="M296.6335 203.3436 L296.6335 6.6636 "/>
<svg:g>
</svg:g>
<svg:g>
</svg:g>
<svg:g>
</svg:g>
<svg:g>
</svg:g>
<svg:g>
</svg:g>
<svg:g>
</svg:g>
<svg:g>
</svg:g>
<svg:g>
</svg:g>
<svg:g>
</svg:g>
<svg:g>
</svg:g>
<svg:g>
</svg:g>
<svg:g>
</svg:g>
<svg:g>
</svg:g>
<svg:g>
</svg:g>
<svg:g>
</svg:g>
<svg:g>
</svg:g>
<svg:g>
</svg:g>
<svg:g>
</svg:g>
<svg:g>
</svg:g>
<svg:g>
</svg:g>
<svg:g>
</svg:g>
<svg:g>
</svg:g>
<svg:g>
</svg:g>
<svg:g>
</svg:g>
<svg:g>
</svg:g>
<svg:g>
</svg:g>
<svg:g>
</svg:g>
<svg:g>
</svg:g>
<svg:g>
</svg:g>
<svg:g>
</svg:g>
<svg:g>
</svg:g>
<svg:g>
</svg:g>
<svg:g>
</svg:g>
<svg:g>
</svg:g>
<svg:g>
</svg:g>
<svg:g>
</svg:g>
<svg:g>
</svg:g>
<svg:g>
</svg:g>
<svg:g>
</svg:g>
<svg:g>
</svg:g>
<svg:g>
</svg:g>
<svg:g>
</svg:g>
<svg:g>
</svg:g>
<svg:g>
</svg:g>
<svg:g>
</svg:g>
<svg:g>
</svg:g>
<svg:g>
</svg:g>
<svg:g>
</svg:g>
<svg:g>
</svg:g>
<svg:g>
</svg:g>
<svg:g>
</svg:g>
<svg:g>
</svg:g>
<svg:g>
</svg:g>
<svg:g>
</svg:g>
<svg:g>
</svg:g>
<svg:g>
</svg:g>
<svg:g>
</svg:g>
<svg:g>
</svg:g>
<svg:g>
</svg:g>
<svg:g>
</svg:g>
<svg:g>
</svg:g>
<svg:g>
</svg:g>
<svg:g>
</svg:g>
<svg:g>
</svg:g>
<svg:g>
</svg:g>
<svg:g>
</svg:g>
<svg:g>
</svg:g>
<svg:g>
</svg:g>
<svg:g>
</svg:g>
<svg:g>
</svg:g>
<svg:g>
</svg:g>
<svg:g>
</svg:g>
<svg:g>
</svg:g>
<svg:g>
</svg:g>
<svg:g>
</svg:g>
<svg:g>
</svg:g>
<svg:g>
</svg:g>
</svg:g> 
</svg:g></svg:g></svg>
