M48
; DRILL file {KiCad 6.0.11+dfsg-1~bpo11+1} date Wed Jul  5 11:56:14 2023
; FORMAT={3:3/ absolute / metric / suppress leading zeros}
; #@! TF.CreationDate,2023-07-05T11:56:14+00:00
; #@! TF.GenerationSoftware,Kicad,Pcbnew,6.0.11+dfsg-1~bpo11+1
; #@! TF.FileFunction,Plated,1,2,PTH
FMAT,2
METRIC,TZ
; #@! TA.AperFunction,Plated,PTH,ViaDrill
T1C0.400
; #@! TA.AperFunction,Plated,PTH,ComponentDrill
T2C0.889
; #@! TA.AperFunction,Plated,PTH,ComponentDrill
T3C3.000
%
G90
G05
T1
X-1778Y17018
X-1778Y15748
X-1778Y14224
X-1016Y21336
X-1016Y20066
X-1016Y18796
X-1016Y17780
X0Y22098
X1524Y12192
X1524Y22098
X2540Y10414
X3302Y6604
X3454Y26010
X3556Y4572
X4064Y27178
X5080Y27432
X5334Y3302
X5588Y1270
X5588Y-254
X5588Y-1778
X6350Y27432
X6604Y14224
X7112Y24638
X7112Y25908
X7366Y27432
X7620Y14224
X8128Y28194
X8128Y17272
X8433Y19264
X8636Y12192
X9398Y28956
X9652Y21539
X9906Y14224
X10668Y28956
X10922Y14224
X11684Y10414
X11938Y28956
X12446Y8890
X12446Y6858
X13462Y28956
X13970Y4064
X14224Y2794
X14478Y29718
X14478Y28194
X14732Y32766
X14732Y31242
X14986Y34290
X15240Y27432
X15748Y17526
X16002Y26670
X16510Y31242
X16510Y17018
X17018Y21082
X17272Y19812
X17272Y18034
X17704Y23140
X17780Y17018
X18288Y29210
X18593Y18186
X18796Y32512
X18796Y30988
X19304Y34036
X19812Y10922
X20828Y34036
X20828Y12192
X21082Y9144
X21336Y21844
X21336Y20828
X21336Y18034
X21844Y25400
X22352Y9144
X23622Y14732
X23876Y17780
X23876Y15748
X23876Y13716
X24384Y9144
X24892Y1270
X24892Y0
X24892Y-1270
X25908Y8636
X25908Y7620
X25908Y6350
X25908Y5080
X25908Y3556
X25908Y2032
X26924Y20066
X26924Y1270
X26924Y0
X26924Y-1270
X27686Y23368
X27686Y21844
X27940Y9144
X29210Y11430
X30226Y9398
X30734Y18034
X30988Y22606
X30988Y34036
X30988Y16764
X31750Y19050
X32004Y10160
X32512Y16256
X32766Y34036
X32766Y32258
X32766Y30480
X33020Y11430
X33049Y22069
X33528Y16256
X34036Y23056
X34036Y22098
X36097Y25117
X36576Y33782
X37084Y3302
X37338Y4318
X39116Y20828
X39116Y17272
X39116Y14478
X39319Y18948
X39878Y14224
X39878Y7620
X39878Y5588
X40386Y9144
X40640Y22606
X41148Y21336
X41148Y12349
X41910Y8890
X42164Y26924
X42164Y14224
X42672Y28194
X43180Y33528
X43180Y14224
X43434Y26924
X44196Y28448
X44450Y33528
X44704Y26924
X45212Y32512
X45720Y25908
X45720Y3810
X45720Y2540
X45720Y1270
X45720Y0
X45720Y-1270
X46736Y24892
X46990Y11176
X46990Y3810
X47244Y17526
X47244Y10160
X47498Y8890
X48006Y23876
X48006Y16256
X48006Y7874
X48006Y6604
X48006Y5080
X48260Y14224
X48768Y11684
X49276Y13970
X49530Y23368
X50292Y14478
X50546Y22606
X50546Y21336
X50546Y19812
X50546Y18288
X51054Y13716
T2
X7112Y10160
X7620Y1270
X7620Y-1270
X9652Y10160
X10160Y1270
X10160Y-1270
X12700Y1270
X12700Y-1270
X13716Y10160
X15240Y1270
X15240Y-1270
X16256Y10160
X17780Y1270
X17780Y-1270
X20320Y1270
X20320Y-1270
X20828Y32004
X20828Y29464
X22860Y1270
X22860Y-1270
X23368Y32004
X23368Y29464
X25908Y32004
X25908Y29464
X28448Y32004
X28448Y29464
X28448Y1270
X28448Y-1270
X30988Y32004
X30988Y29464
X30988Y1270
X30988Y-1270
X33528Y1270
X33528Y-1270
X36068Y10414
X36068Y1270
X36068Y-1270
X38100Y32004
X38100Y29464
X38608Y10414
X38608Y1270
X38608Y-1270
X40640Y32004
X40640Y29464
X41148Y1270
X41148Y-1270
X42164Y10414
X43688Y1270
X43688Y-1270
X44704Y10414
T3
X0Y30480
X0Y0
X50800Y30480
X50800Y0
T0
M30
