%TF.GenerationSoftware,KiCad,Pcbnew,7.0.5.1-1-g8f565ef7f0-dirty-deb11*%
%TF.CreationDate,2023-07-10T01:06:39+00:00*%
%TF.ProjectId,VCAI2C01,56434149-3243-4303-912e-6b696361645f,rev?*%
%TF.SameCoordinates,Original*%
%TF.FileFunction,Copper,L1,Top*%
%TF.FilePolarity,Positive*%
%FSLAX46Y46*%
G04 Gerber Fmt 4.6, Leading zero omitted, Abs format (unit mm)*
G04 Created by KiCad (PCBNEW 7.0.5.1-1-g8f565ef7f0-dirty-deb11) date 2023-07-10 01:06:39*
%MOMM*%
%LPD*%
G01*
G04 APERTURE LIST*
%TA.AperFunction,ComponentPad*%
%ADD10R,1.524000X1.524000*%
%TD*%
%TA.AperFunction,ComponentPad*%
%ADD11C,6.000000*%
%TD*%
%TA.AperFunction,ViaPad*%
%ADD12C,0.800000*%
%TD*%
%TA.AperFunction,Conductor*%
%ADD13C,0.300000*%
%TD*%
%TA.AperFunction,Conductor*%
%ADD14C,0.500000*%
%TD*%
%TA.AperFunction,Conductor*%
%ADD15C,1.300000*%
%TD*%
G04 APERTURE END LIST*
D10*
%TO.P,J2,1*%
%TO.N,/IN1-*%
X7112000Y10160000D03*
%TO.P,J2,2*%
%TO.N,Net-(J2-Pad2)*%
X9652000Y10160000D03*
%TD*%
%TO.P,J4,1*%
%TO.N,/IN2-*%
X16256000Y10160000D03*
%TO.P,J4,2*%
%TO.N,Net-(J4-Pad2)*%
X13716000Y10160000D03*
%TD*%
%TO.P,J6,1*%
%TO.N,/IN3-*%
X36068000Y10414000D03*
%TO.P,J6,2*%
%TO.N,Net-(J6-Pad2)*%
X38608000Y10414000D03*
%TD*%
%TO.P,J8,1*%
%TO.N,/IN4-*%
X44704000Y10414000D03*
%TO.P,J8,2*%
%TO.N,Net-(J8-Pad2)*%
X42164000Y10414000D03*
%TD*%
%TO.P,J10,1*%
%TO.N,/A0*%
X38100000Y29464000D03*
%TO.P,J10,2*%
%TO.N,VCC*%
X38100000Y32004000D03*
%TD*%
%TO.P,J11,1*%
%TO.N,/A1*%
X40640000Y29464000D03*
%TO.P,J11,2*%
%TO.N,VCC*%
X40640000Y32004000D03*
%TD*%
%TO.P,J13,1*%
%TO.N,GND*%
X20828000Y29464000D03*
%TO.P,J13,2*%
X20828000Y32004000D03*
%TO.P,J13,3*%
%TO.N,/SDA*%
X23368000Y29464000D03*
%TO.P,J13,4*%
X23368000Y32004000D03*
%TO.P,J13,5*%
%TO.N,VCC*%
X25908000Y29464000D03*
%TO.P,J13,6*%
X25908000Y32004000D03*
%TO.P,J13,7*%
%TO.N,/SCL*%
X28448000Y29464000D03*
%TO.P,J13,8*%
X28448000Y32004000D03*
%TO.P,J13,9*%
%TO.N,GND*%
X30988000Y29464000D03*
%TO.P,J13,10*%
X30988000Y32004000D03*
%TD*%
D11*
%TO.P,M1,1*%
%TO.N,GND*%
X50800000Y30480000D03*
%TD*%
%TO.P,M2,1*%
%TO.N,GND*%
X0Y0D03*
%TD*%
%TO.P,M3,1*%
%TO.N,GND*%
X50800000Y0D03*
%TD*%
%TO.P,M4,1*%
%TO.N,GND*%
X0Y30480000D03*
%TD*%
D10*
%TO.P,J14,1*%
%TO.N,GND*%
X22860000Y1270000D03*
%TO.P,J14,2*%
X22860000Y-1270000D03*
%TD*%
%TO.P,J15,1*%
%TO.N,/IN2-*%
X17780000Y1270000D03*
%TO.P,J15,2*%
X17780000Y-1270000D03*
%TD*%
%TO.P,J16,1*%
%TO.N,/IN2+*%
X20320000Y1270000D03*
%TO.P,J16,2*%
X20320000Y-1270000D03*
%TD*%
%TO.P,J17,1*%
%TO.N,GND*%
X15240000Y1270000D03*
%TO.P,J17,2*%
X15240000Y-1270000D03*
%TD*%
%TO.P,J18,1*%
%TO.N,/IN3-*%
X33528000Y1270000D03*
%TO.P,J18,2*%
X33528000Y-1270000D03*
%TD*%
%TO.P,J19,1*%
%TO.N,/IN3+*%
X30988000Y1270000D03*
%TO.P,J19,2*%
X30988000Y-1270000D03*
%TD*%
%TO.P,J20,1*%
%TO.N,GND*%
X43688000Y1270000D03*
%TO.P,J20,2*%
X43688000Y-1270000D03*
%TD*%
%TO.P,J21,1*%
%TO.N,/IN4-*%
X38608000Y1270000D03*
%TO.P,J21,2*%
X38608000Y-1270000D03*
%TD*%
%TO.P,J22,1*%
%TO.N,/IN4+*%
X41148000Y1270000D03*
%TO.P,J22,2*%
X41148000Y-1270000D03*
%TD*%
%TO.P,J23,1*%
%TO.N,GND*%
X28448000Y1270000D03*
%TO.P,J23,2*%
X28448000Y-1270000D03*
%TD*%
%TO.P,J3,1*%
%TO.N,GND*%
X36068000Y-1270000D03*
%TO.P,J3,2*%
X36068000Y1270000D03*
%TD*%
%TO.P,J5,1*%
%TO.N,GND*%
X7620000Y1270000D03*
%TO.P,J5,2*%
X7620000Y-1270000D03*
%TD*%
%TO.P,J7,1*%
%TO.N,/IN1-*%
X12700000Y1270000D03*
%TO.P,J7,2*%
X12700000Y-1270000D03*
%TD*%
%TO.P,J9,1*%
%TO.N,/IN1+*%
X10160000Y1270000D03*
%TO.P,J9,2*%
X10160000Y-1270000D03*
%TD*%
D12*
%TO.N,GND*%
X3454400Y26009600D03*
X48006000Y5080000D03*
X14732000Y31242000D03*
X27940000Y9144000D03*
X12446000Y6858000D03*
X-1016000Y18796000D03*
X40386000Y9144000D03*
X46990000Y11176000D03*
X21336000Y18034000D03*
X5588000Y-1778000D03*
X10668000Y28956000D03*
X12446000Y8890000D03*
X8128000Y28194000D03*
X17272000Y18034000D03*
X26924000Y1270000D03*
X39319200Y18948400D03*
X42164000Y14224000D03*
X10922000Y14224000D03*
X8128000Y17272000D03*
X0Y22098000D03*
X13970000Y4064000D03*
X16002000Y26670000D03*
X17780000Y17018000D03*
X33049147Y22068853D03*
X48006000Y7874000D03*
X7112014Y25908000D03*
X25908000Y6350000D03*
X44196000Y28448000D03*
X25908000Y8636000D03*
X45720000Y1270000D03*
X45720000Y3810000D03*
X5588000Y1270000D03*
X39878000Y7620000D03*
X42164000Y26924000D03*
X46736000Y24892000D03*
X48006000Y6604000D03*
X26924000Y0D03*
X34036000Y22098000D03*
X24892000Y-1270000D03*
X23622000Y14732000D03*
X23876000Y15748000D03*
X48006000Y23876000D03*
X33528000Y16256000D03*
X50546000Y19812000D03*
X49530000Y23368000D03*
X21336000Y20828000D03*
X19812000Y10922000D03*
X22352000Y9144000D03*
X30226000Y9398000D03*
X39116000Y17272000D03*
X44704000Y26924000D03*
X9398000Y28956000D03*
X15748000Y17526000D03*
X6604000Y14224000D03*
X3556000Y4572000D03*
X47244000Y10160000D03*
X5588000Y-254000D03*
X24892000Y1270000D03*
X-1778000Y17018000D03*
X23876000Y13716000D03*
X26924000Y20066000D03*
X32766000Y30480000D03*
X40640000Y22606000D03*
X16510000Y17018000D03*
X34036000Y23055706D03*
X14478000Y28194000D03*
X50546000Y22606000D03*
X43180000Y14224000D03*
X-1015998Y17780000D03*
X17272000Y19812000D03*
X26924000Y-1270000D03*
X16510000Y31242000D03*
X30988000Y16764000D03*
X25908000Y3556000D03*
X39116000Y20828000D03*
X30988000Y34036000D03*
X7112000Y24638000D03*
X14224000Y2794000D03*
X25908000Y2032000D03*
X37084000Y3302000D03*
X45212000Y32512000D03*
X6350000Y27432000D03*
X14478000Y29718000D03*
X24892000Y0D03*
X24384000Y9144000D03*
X2540000Y10414000D03*
X47498000Y8890000D03*
X4064000Y27178000D03*
X11938000Y28956000D03*
X50292000Y14478000D03*
X47244000Y17526000D03*
X44450000Y33528000D03*
X32766000Y34036000D03*
X-1778000Y15748000D03*
X45720000Y-1270000D03*
X39878000Y5588000D03*
X-1016000Y20066000D03*
X25908000Y5080000D03*
X50546000Y18288000D03*
X45720000Y0D03*
X39116000Y14478004D03*
X31750000Y19050000D03*
X3302000Y6604000D03*
X5080000Y27432000D03*
X32766000Y32258000D03*
X36576000Y33782000D03*
X33020000Y11430000D03*
X21336000Y21844000D03*
X49276000Y13970000D03*
X37338000Y4318000D03*
X9906000Y14224000D03*
X32004000Y10160000D03*
X7366000Y27432000D03*
X8432800Y19263598D03*
X46990000Y3810000D03*
X42672000Y28194000D03*
X1524002Y22098000D03*
X21844000Y25400000D03*
X43180000Y33528000D03*
X15240000Y27432000D03*
X48006000Y16256000D03*
X18796000Y32512000D03*
X7620000Y14224000D03*
X19304000Y34036000D03*
X36097147Y25116853D03*
X41910000Y8890000D03*
X14986000Y34290000D03*
X51054000Y13716000D03*
X18796000Y30988000D03*
X5334000Y3302000D03*
X14732000Y32766000D03*
X45720000Y25908000D03*
X43434000Y26924000D03*
X11684000Y10414000D03*
X23876000Y17780000D03*
X17018000Y21082000D03*
X-1778000Y14224000D03*
X48260000Y14224000D03*
X45720000Y2540000D03*
X50546000Y21336000D03*
X-1016000Y21336000D03*
X39878000Y14224000D03*
X32512000Y16256000D03*
X25908000Y7620000D03*
X21082000Y9144000D03*
X13462000Y28956000D03*
X20828000Y34036000D03*
%TO.N,VCC*%
X48768000Y11684000D03*
X41148000Y21336002D03*
X18288000Y29210000D03*
X41148000Y12349480D03*
X9652000Y21539200D03*
X29209996Y11430000D03*
X1523990Y12192000D03*
X20828000Y12192000D03*
X8636000Y12192000D03*
%TO.N,/OUT1*%
X18592799Y18186400D03*
X17704348Y23139948D03*
%TO.N,/OUT4*%
X30734000Y18034000D03*
X30987996Y22606000D03*
%TO.N,/A0*%
X27686000Y23368000D03*
%TO.N,/A1*%
X27686000Y21844000D03*
%TD*%
D13*
%TO.N,GND*%
X45720000Y0D02*
X45720000Y1270000D01*
X0Y22098000D02*
X1524002Y22098000D01*
X-1016000Y21336000D02*
X-1016000Y20066000D01*
X16147999Y17925999D02*
X15748000Y17526000D01*
X36068000Y1270000D02*
X36068000Y2286000D01*
D14*
X40386000Y9144000D02*
X41656000Y9144000D01*
D13*
X46990000Y10414000D02*
X47244000Y10160000D01*
X48006000Y8382000D02*
X48006000Y7874000D01*
X19304000Y34036000D02*
X20828000Y34036000D01*
D14*
X41656000Y9144000D02*
X41910000Y8890000D01*
D13*
X12446000Y8890000D02*
X12446000Y6858000D01*
D14*
X14732000Y31242000D02*
X14732000Y32766000D01*
D13*
X16256000Y18034000D02*
X16147999Y17925999D01*
X25908000Y5080000D02*
X25908000Y6350000D01*
D14*
X33049147Y22068853D02*
X34006853Y22068853D01*
X34036000Y22098000D02*
X34036000Y23055706D01*
D13*
X43434000Y26924000D02*
X42164000Y26924000D01*
X13716000Y28956000D02*
X14478000Y28194000D01*
X18796000Y30988000D02*
X18796000Y32512000D01*
X43180000Y33528000D02*
X44450000Y33528000D01*
X3302000Y6604000D02*
X2540000Y7366000D01*
X49530000Y23368000D02*
X49784000Y23368000D01*
X12446000Y9652000D02*
X11684000Y10414000D01*
X22352000Y9144000D02*
X21082000Y9144000D01*
X39116000Y21082000D02*
X40640000Y22606000D01*
X17272000Y18034000D02*
X16256000Y18034000D01*
X2540000Y7366000D02*
X2540000Y10414000D01*
X48006000Y18288000D02*
X47244000Y17526000D01*
X49784000Y23368000D02*
X50546000Y22606000D01*
X8636000Y28194000D02*
X9398000Y28956000D01*
X13462000Y28956000D02*
X13716000Y28956000D01*
X48006000Y23876000D02*
X47752000Y23876000D01*
X5588000Y1270000D02*
X5588000Y-254000D01*
D14*
X39878000Y5588000D02*
X39878000Y7620000D01*
D13*
X4826000Y27178000D02*
X5080000Y27432000D01*
X7112000Y24638000D02*
X7112000Y25907986D01*
X25908000Y8636000D02*
X27432000Y8636000D01*
X37338000Y4318000D02*
X37737999Y3918001D01*
X25908000Y7620000D02*
X25908000Y8636000D01*
X32766000Y32258000D02*
X32766000Y30480000D01*
X3556000Y4572000D02*
X4826000Y3302000D01*
X9906000Y14224000D02*
X10922000Y14224000D01*
X21336000Y18034000D02*
X23622000Y18034000D01*
X27432000Y8636000D02*
X27940000Y9144000D01*
X30988000Y34036000D02*
X32766000Y34036000D01*
D14*
X34006853Y22068853D02*
X34036000Y22098000D01*
D13*
X46990000Y3810000D02*
X45720000Y3810000D01*
X50546000Y21336000D02*
X50546000Y19812000D01*
X48260000Y14224000D02*
X49022000Y14224000D01*
X14224000Y2794000D02*
X14224000Y3810000D01*
X23876000Y14986000D02*
X23622000Y14732000D01*
D14*
X34036000Y23055706D02*
X36097147Y25116853D01*
D13*
X36068000Y2286000D02*
X37084000Y3302000D01*
X-1016000Y17780002D02*
X-1015998Y17780000D01*
X4064000Y27178000D02*
X4826000Y27178000D01*
X24892000Y8636000D02*
X24384000Y9144000D01*
X25908000Y8636000D02*
X24892000Y8636000D01*
X46990000Y11176000D02*
X46990000Y10414000D01*
X39116000Y20828000D02*
X39116000Y21082000D01*
D14*
X16510000Y31242000D02*
X14732000Y31242000D01*
D13*
X26924000Y-1270000D02*
X26924000Y0D01*
X16510000Y17018000D02*
X17780000Y17018000D01*
X17018000Y21082000D02*
X17018000Y20066000D01*
X-1016000Y18796000D02*
X-1016000Y17780002D01*
X14224000Y3810000D02*
X13970000Y4064000D01*
X-1778000Y17018000D02*
X-1778000Y15748000D01*
X7112000Y25907986D02*
X7112014Y25908000D01*
X49022000Y14224000D02*
X49276000Y13970000D01*
X12446000Y8890000D02*
X12446000Y9652000D01*
X21336000Y21844000D02*
X21336000Y20828000D01*
X31242000Y9398000D02*
X32004000Y10160000D01*
X47752000Y23876000D02*
X46736000Y24892000D01*
X43942000Y28194000D02*
X44196000Y28448000D01*
X50292000Y14478000D02*
X51054000Y13716000D01*
X42672000Y28194000D02*
X43942000Y28194000D01*
X15240000Y27432000D02*
X16002000Y26670000D01*
X23622000Y18034000D02*
X23876000Y17780000D01*
X17018000Y20066000D02*
X17272000Y19812000D01*
X45720000Y25908000D02*
X44704000Y26924000D01*
X37737999Y3918001D02*
X38716001Y3918001D01*
X23876000Y15748000D02*
X23876000Y14986000D01*
X7620000Y14224000D02*
X6604000Y14224000D01*
X33528000Y16256000D02*
X32512000Y16256000D01*
X50546000Y18288000D02*
X48006000Y18288000D01*
X30226000Y9398000D02*
X31242000Y9398000D01*
X42164000Y14224000D02*
X43180000Y14224000D01*
X6350000Y27432000D02*
X7366000Y27432000D01*
X4826000Y3302000D02*
X5334000Y3302000D01*
X39116000Y17272000D02*
X39116000Y14478004D01*
X-1016000Y18288000D02*
X-1016000Y17780002D01*
X48006000Y6604000D02*
X48006000Y5080000D01*
X25908000Y3556000D02*
X25908000Y2032000D01*
X10668000Y28956000D02*
X11938000Y28956000D01*
X47498000Y8890000D02*
X48006000Y8382000D01*
X43688000Y-1270000D02*
X45720000Y-1270000D01*
X24892000Y0D02*
X24892000Y1270000D01*
X22860000Y-1270000D02*
X24892000Y-1270000D01*
X8128000Y28194000D02*
X8636000Y28194000D01*
D14*
%TO.N,VCC*%
X25908000Y29464000D02*
X25908000Y23114000D01*
X35952002Y32004000D02*
X31583202Y27635200D01*
X36621720Y12349480D02*
X41148000Y12349480D01*
X9652000Y16916400D02*
X9652000Y20973515D01*
X41148000Y12349480D02*
X41148000Y21336002D01*
X8636000Y15900400D02*
X9652000Y16916400D01*
D15*
X19969998Y27178000D02*
X18288000Y28859998D01*
D14*
X25908000Y12192000D02*
X28447996Y12192000D01*
X41148000Y12349480D02*
X48102520Y12349480D01*
D15*
X18288000Y28859998D02*
X18288000Y29210000D01*
D14*
X38100000Y32004000D02*
X35952002Y32004000D01*
X30225996Y12446000D02*
X36525200Y12446000D01*
X8636000Y12192000D02*
X1523990Y12192000D01*
X31583202Y27635200D02*
X26141200Y27635200D01*
X20828000Y12192000D02*
X8636000Y12192000D01*
D15*
X25684000Y27178000D02*
X19969998Y27178000D01*
D14*
X48102520Y12349480D02*
X48768000Y11684000D01*
X28447996Y12192000D02*
X29209996Y11430000D01*
X26141200Y27635200D02*
X25908000Y27402000D01*
D15*
X25908000Y27402000D02*
X25684000Y27178000D01*
D14*
X40640000Y32004000D02*
X38100000Y32004000D01*
X36525200Y12446000D02*
X36621720Y12349480D01*
X8636000Y12192000D02*
X8636000Y15900400D01*
X29209996Y11430000D02*
X30225996Y12446000D01*
X25908000Y12192000D02*
X20828000Y12192000D01*
D15*
X25908000Y29464000D02*
X25908000Y27402000D01*
D14*
X25908000Y23114000D02*
X25908000Y12192000D01*
X9652000Y20973515D02*
X9652000Y21539200D01*
%TO.N,/OUT1*%
X17704348Y23139948D02*
X18592799Y22251497D01*
X18592799Y22251497D02*
X18592799Y18752085D01*
X18592799Y18752085D02*
X18592799Y18186400D01*
%TO.N,/OUT4*%
X30734000Y22352004D02*
X30987996Y22606000D01*
X30734000Y18034000D02*
X30734000Y22352004D01*
%TO.N,/A0*%
X28690011Y24372011D02*
X27686000Y23368000D01*
X33528000Y24892000D02*
X29210000Y24892000D01*
X38100000Y29464000D02*
X33528000Y24892000D01*
X29210000Y24892000D02*
X28690011Y24372011D01*
%TO.N,/A1*%
X29791992Y24141990D02*
X27686000Y22035998D01*
X40640000Y29464000D02*
X40640000Y28202000D01*
X37636674Y27940000D02*
X33838664Y24141990D01*
X40378000Y27940000D02*
X37636674Y27940000D01*
X27686000Y22035998D02*
X27686000Y21844000D01*
X40640000Y28202000D02*
X40378000Y27940000D01*
X33838664Y24141990D02*
X29791992Y24141990D01*
%TD*%
%TA.AperFunction,Conductor*%
%TO.N,GND*%
G36*
X55509691Y35211593D02*
G01*
X55545655Y35162093D01*
X55550500Y35131500D01*
X55550500Y-4651500D01*
X55531593Y-4709691D01*
X55482093Y-4745655D01*
X55451500Y-4750500D01*
X-4651500Y-4750500D01*
X-4709691Y-4731593D01*
X-4745655Y-4682093D01*
X-4750500Y-4651500D01*
X-4750500Y-2056672D01*
X9147500Y-2056672D01*
X9147501Y-2056684D01*
X9162033Y-2129736D01*
X9162035Y-2129742D01*
X9217397Y-2212599D01*
X9217399Y-2212601D01*
X9300260Y-2267966D01*
X9355808Y-2279015D01*
X9373315Y-2282498D01*
X9373320Y-2282498D01*
X9373326Y-2282500D01*
X9373327Y-2282500D01*
X10946673Y-2282500D01*
X10946674Y-2282500D01*
X11019740Y-2267966D01*
X11102601Y-2212601D01*
X11157966Y-2129740D01*
X11172500Y-2056674D01*
X11172500Y-2056672D01*
X11687500Y-2056672D01*
X11687501Y-2056684D01*
X11702033Y-2129736D01*
X11702035Y-2129742D01*
X11757397Y-2212599D01*
X11757399Y-2212601D01*
X11840260Y-2267966D01*
X11895808Y-2279015D01*
X11913315Y-2282498D01*
X11913320Y-2282498D01*
X11913326Y-2282500D01*
X11913327Y-2282500D01*
X13486673Y-2282500D01*
X13486674Y-2282500D01*
X13559740Y-2267966D01*
X13642601Y-2212601D01*
X13697966Y-2129740D01*
X13712500Y-2056674D01*
X13712500Y-2056672D01*
X16767500Y-2056672D01*
X16767501Y-2056684D01*
X16782033Y-2129736D01*
X16782035Y-2129742D01*
X16837397Y-2212599D01*
X16837399Y-2212601D01*
X16920260Y-2267966D01*
X16975808Y-2279015D01*
X16993315Y-2282498D01*
X16993320Y-2282498D01*
X16993326Y-2282500D01*
X16993327Y-2282500D01*
X18566673Y-2282500D01*
X18566674Y-2282500D01*
X18639740Y-2267966D01*
X18722601Y-2212601D01*
X18777966Y-2129740D01*
X18792500Y-2056674D01*
X18792500Y-2056672D01*
X19307500Y-2056672D01*
X19307501Y-2056684D01*
X19322033Y-2129736D01*
X19322035Y-2129742D01*
X19377397Y-2212599D01*
X19377399Y-2212601D01*
X19460260Y-2267966D01*
X19515808Y-2279015D01*
X19533315Y-2282498D01*
X19533320Y-2282498D01*
X19533326Y-2282500D01*
X19533327Y-2282500D01*
X21106673Y-2282500D01*
X21106674Y-2282500D01*
X21179740Y-2267966D01*
X21262601Y-2212601D01*
X21317966Y-2129740D01*
X21332500Y-2056674D01*
X21332500Y-2056672D01*
X29975500Y-2056672D01*
X29975501Y-2056684D01*
X29990033Y-2129736D01*
X29990035Y-2129742D01*
X30045397Y-2212599D01*
X30045399Y-2212601D01*
X30128260Y-2267966D01*
X30183808Y-2279015D01*
X30201315Y-2282498D01*
X30201320Y-2282498D01*
X30201326Y-2282500D01*
X30201327Y-2282500D01*
X31774673Y-2282500D01*
X31774674Y-2282500D01*
X31847740Y-2267966D01*
X31930601Y-2212601D01*
X31985966Y-2129740D01*
X32000500Y-2056674D01*
X32000500Y-2056672D01*
X32515500Y-2056672D01*
X32515501Y-2056684D01*
X32530033Y-2129736D01*
X32530035Y-2129742D01*
X32585397Y-2212599D01*
X32585399Y-2212601D01*
X32668260Y-2267966D01*
X32723808Y-2279015D01*
X32741315Y-2282498D01*
X32741320Y-2282498D01*
X32741326Y-2282500D01*
X32741327Y-2282500D01*
X34314673Y-2282500D01*
X34314674Y-2282500D01*
X34387740Y-2267966D01*
X34470601Y-2212601D01*
X34525966Y-2129740D01*
X34540500Y-2056674D01*
X34540500Y-2056672D01*
X37595500Y-2056672D01*
X37595501Y-2056684D01*
X37610033Y-2129736D01*
X37610035Y-2129742D01*
X37665397Y-2212599D01*
X37665399Y-2212601D01*
X37748260Y-2267966D01*
X37803808Y-2279015D01*
X37821315Y-2282498D01*
X37821320Y-2282498D01*
X37821326Y-2282500D01*
X37821327Y-2282500D01*
X39394673Y-2282500D01*
X39394674Y-2282500D01*
X39467740Y-2267966D01*
X39550601Y-2212601D01*
X39605966Y-2129740D01*
X39620500Y-2056674D01*
X39620500Y-2056672D01*
X40135500Y-2056672D01*
X40135501Y-2056684D01*
X40150033Y-2129736D01*
X40150035Y-2129742D01*
X40205397Y-2212599D01*
X40205399Y-2212601D01*
X40288260Y-2267966D01*
X40343808Y-2279015D01*
X40361315Y-2282498D01*
X40361320Y-2282498D01*
X40361326Y-2282500D01*
X40361327Y-2282500D01*
X41934673Y-2282500D01*
X41934674Y-2282500D01*
X42007740Y-2267966D01*
X42090601Y-2212601D01*
X42145966Y-2129740D01*
X42160500Y-2056674D01*
X42160500Y-483326D01*
X42145966Y-410260D01*
X42090601Y-327399D01*
X42090599Y-327397D01*
X42007742Y-272035D01*
X42007740Y-272034D01*
X42007737Y-272033D01*
X42007736Y-272033D01*
X41934684Y-257501D01*
X41934674Y-257500D01*
X40361326Y-257500D01*
X40361325Y-257500D01*
X40361315Y-257501D01*
X40288263Y-272033D01*
X40288257Y-272035D01*
X40205400Y-327397D01*
X40205397Y-327400D01*
X40150035Y-410257D01*
X40150033Y-410263D01*
X40135501Y-483315D01*
X40135500Y-483327D01*
X40135500Y-2056672D01*
X39620500Y-2056672D01*
X39620500Y-483326D01*
X39605966Y-410260D01*
X39550601Y-327399D01*
X39550599Y-327397D01*
X39467742Y-272035D01*
X39467740Y-272034D01*
X39467737Y-272033D01*
X39467736Y-272033D01*
X39394684Y-257501D01*
X39394674Y-257500D01*
X37821326Y-257500D01*
X37821325Y-257500D01*
X37821315Y-257501D01*
X37748263Y-272033D01*
X37748257Y-272035D01*
X37665400Y-327397D01*
X37665397Y-327400D01*
X37610035Y-410257D01*
X37610033Y-410263D01*
X37595501Y-483315D01*
X37595500Y-483327D01*
X37595500Y-2056672D01*
X34540500Y-2056672D01*
X34540500Y-483326D01*
X34525966Y-410260D01*
X34470601Y-327399D01*
X34470599Y-327397D01*
X34387742Y-272035D01*
X34387740Y-272034D01*
X34387737Y-272033D01*
X34387736Y-272033D01*
X34314684Y-257501D01*
X34314674Y-257500D01*
X32741326Y-257500D01*
X32741325Y-257500D01*
X32741315Y-257501D01*
X32668263Y-272033D01*
X32668257Y-272035D01*
X32585400Y-327397D01*
X32585397Y-327400D01*
X32530035Y-410257D01*
X32530033Y-410263D01*
X32515501Y-483315D01*
X32515500Y-483327D01*
X32515500Y-2056672D01*
X32000500Y-2056672D01*
X32000500Y-483326D01*
X31985966Y-410260D01*
X31930601Y-327399D01*
X31930599Y-327397D01*
X31847742Y-272035D01*
X31847740Y-272034D01*
X31847737Y-272033D01*
X31847736Y-272033D01*
X31774684Y-257501D01*
X31774674Y-257500D01*
X30201326Y-257500D01*
X30201325Y-257500D01*
X30201315Y-257501D01*
X30128263Y-272033D01*
X30128257Y-272035D01*
X30045400Y-327397D01*
X30045397Y-327400D01*
X29990035Y-410257D01*
X29990033Y-410263D01*
X29975501Y-483315D01*
X29975500Y-483327D01*
X29975500Y-2056672D01*
X21332500Y-2056672D01*
X21332500Y-483326D01*
X21317966Y-410260D01*
X21262601Y-327399D01*
X21262599Y-327397D01*
X21179742Y-272035D01*
X21179740Y-272034D01*
X21179737Y-272033D01*
X21179736Y-272033D01*
X21106684Y-257501D01*
X21106674Y-257500D01*
X19533326Y-257500D01*
X19533325Y-257500D01*
X19533315Y-257501D01*
X19460263Y-272033D01*
X19460257Y-272035D01*
X19377400Y-327397D01*
X19377397Y-327400D01*
X19322035Y-410257D01*
X19322033Y-410263D01*
X19307501Y-483315D01*
X19307500Y-483327D01*
X19307500Y-2056672D01*
X18792500Y-2056672D01*
X18792500Y-483326D01*
X18777966Y-410260D01*
X18722601Y-327399D01*
X18722599Y-327397D01*
X18639742Y-272035D01*
X18639740Y-272034D01*
X18639737Y-272033D01*
X18639736Y-272033D01*
X18566684Y-257501D01*
X18566674Y-257500D01*
X16993326Y-257500D01*
X16993325Y-257500D01*
X16993315Y-257501D01*
X16920263Y-272033D01*
X16920257Y-272035D01*
X16837400Y-327397D01*
X16837397Y-327400D01*
X16782035Y-410257D01*
X16782033Y-410263D01*
X16767501Y-483315D01*
X16767500Y-483327D01*
X16767500Y-2056672D01*
X13712500Y-2056672D01*
X13712500Y-483326D01*
X13697966Y-410260D01*
X13642601Y-327399D01*
X13642599Y-327397D01*
X13559742Y-272035D01*
X13559740Y-272034D01*
X13559737Y-272033D01*
X13559736Y-272033D01*
X13486684Y-257501D01*
X13486674Y-257500D01*
X11913326Y-257500D01*
X11913325Y-257500D01*
X11913315Y-257501D01*
X11840263Y-272033D01*
X11840257Y-272035D01*
X11757400Y-327397D01*
X11757397Y-327400D01*
X11702035Y-410257D01*
X11702033Y-410263D01*
X11687501Y-483315D01*
X11687500Y-483327D01*
X11687500Y-2056672D01*
X11172500Y-2056672D01*
X11172500Y-483326D01*
X11157966Y-410260D01*
X11102601Y-327399D01*
X11102599Y-327397D01*
X11019742Y-272035D01*
X11019740Y-272034D01*
X11019737Y-272033D01*
X11019736Y-272033D01*
X10946684Y-257501D01*
X10946674Y-257500D01*
X9373326Y-257500D01*
X9373325Y-257500D01*
X9373315Y-257501D01*
X9300263Y-272033D01*
X9300257Y-272035D01*
X9217400Y-327397D01*
X9217397Y-327400D01*
X9162035Y-410257D01*
X9162033Y-410263D01*
X9147501Y-483315D01*
X9147500Y-483327D01*
X9147500Y-2056672D01*
X-4750500Y-2056672D01*
X-4750500Y483328D01*
X9147500Y483328D01*
X9147501Y483316D01*
X9162033Y410264D01*
X9162035Y410258D01*
X9217397Y327401D01*
X9217399Y327399D01*
X9300260Y272034D01*
X9355808Y260985D01*
X9373315Y257502D01*
X9373320Y257502D01*
X9373326Y257500D01*
X9373327Y257500D01*
X10946673Y257500D01*
X10946674Y257500D01*
X11019740Y272034D01*
X11102601Y327399D01*
X11157966Y410260D01*
X11172500Y483326D01*
X11172500Y483328D01*
X11687500Y483328D01*
X11687501Y483316D01*
X11702033Y410264D01*
X11702035Y410258D01*
X11757397Y327401D01*
X11757399Y327399D01*
X11840260Y272034D01*
X11895808Y260985D01*
X11913315Y257502D01*
X11913320Y257502D01*
X11913326Y257500D01*
X11913327Y257500D01*
X13486673Y257500D01*
X13486674Y257500D01*
X13559740Y272034D01*
X13642601Y327399D01*
X13697966Y410260D01*
X13712500Y483326D01*
X13712500Y483328D01*
X16767500Y483328D01*
X16767501Y483316D01*
X16782033Y410264D01*
X16782035Y410258D01*
X16837397Y327401D01*
X16837399Y327399D01*
X16920260Y272034D01*
X16975808Y260985D01*
X16993315Y257502D01*
X16993320Y257502D01*
X16993326Y257500D01*
X16993327Y257500D01*
X18566673Y257500D01*
X18566674Y257500D01*
X18639740Y272034D01*
X18722601Y327399D01*
X18777966Y410260D01*
X18792500Y483326D01*
X18792500Y483328D01*
X19307500Y483328D01*
X19307501Y483316D01*
X19322033Y410264D01*
X19322035Y410258D01*
X19377397Y327401D01*
X19377399Y327399D01*
X19460260Y272034D01*
X19515808Y260985D01*
X19533315Y257502D01*
X19533320Y257502D01*
X19533326Y257500D01*
X19533327Y257500D01*
X21106673Y257500D01*
X21106674Y257500D01*
X21179740Y272034D01*
X21262601Y327399D01*
X21317966Y410260D01*
X21332500Y483326D01*
X21332500Y483328D01*
X29975500Y483328D01*
X29975501Y483316D01*
X29990033Y410264D01*
X29990035Y410258D01*
X30045397Y327401D01*
X30045399Y327399D01*
X30128260Y272034D01*
X30183808Y260985D01*
X30201315Y257502D01*
X30201320Y257502D01*
X30201326Y257500D01*
X30201327Y257500D01*
X31774673Y257500D01*
X31774674Y257500D01*
X31847740Y272034D01*
X31930601Y327399D01*
X31985966Y410260D01*
X32000500Y483326D01*
X32000500Y483328D01*
X32515500Y483328D01*
X32515501Y483316D01*
X32530033Y410264D01*
X32530035Y410258D01*
X32585397Y327401D01*
X32585399Y327399D01*
X32668260Y272034D01*
X32723808Y260985D01*
X32741315Y257502D01*
X32741320Y257502D01*
X32741326Y257500D01*
X32741327Y257500D01*
X34314673Y257500D01*
X34314674Y257500D01*
X34387740Y272034D01*
X34470601Y327399D01*
X34525966Y410260D01*
X34540500Y483326D01*
X34540500Y483328D01*
X37595500Y483328D01*
X37595501Y483316D01*
X37610033Y410264D01*
X37610035Y410258D01*
X37665397Y327401D01*
X37665399Y327399D01*
X37748260Y272034D01*
X37803808Y260985D01*
X37821315Y257502D01*
X37821320Y257502D01*
X37821326Y257500D01*
X37821327Y257500D01*
X39394673Y257500D01*
X39394674Y257500D01*
X39467740Y272034D01*
X39550601Y327399D01*
X39605966Y410260D01*
X39620500Y483326D01*
X39620500Y483328D01*
X40135500Y483328D01*
X40135501Y483316D01*
X40150033Y410264D01*
X40150035Y410258D01*
X40205397Y327401D01*
X40205399Y327399D01*
X40288260Y272034D01*
X40343808Y260985D01*
X40361315Y257502D01*
X40361320Y257502D01*
X40361326Y257500D01*
X40361327Y257500D01*
X41934673Y257500D01*
X41934674Y257500D01*
X42007740Y272034D01*
X42090601Y327399D01*
X42145966Y410260D01*
X42160500Y483326D01*
X42160500Y2056674D01*
X42145966Y2129740D01*
X42090601Y2212601D01*
X42090599Y2212603D01*
X42007742Y2267965D01*
X42007740Y2267966D01*
X42007737Y2267967D01*
X42007736Y2267967D01*
X41934684Y2282499D01*
X41934674Y2282500D01*
X40361326Y2282500D01*
X40361325Y2282500D01*
X40361315Y2282499D01*
X40288263Y2267967D01*
X40288257Y2267965D01*
X40205400Y2212603D01*
X40205397Y2212600D01*
X40150035Y2129743D01*
X40150033Y2129737D01*
X40135501Y2056685D01*
X40135500Y2056673D01*
X40135500Y483328D01*
X39620500Y483328D01*
X39620500Y2056674D01*
X39605966Y2129740D01*
X39550601Y2212601D01*
X39550599Y2212603D01*
X39467742Y2267965D01*
X39467740Y2267966D01*
X39467737Y2267967D01*
X39467736Y2267967D01*
X39394684Y2282499D01*
X39394674Y2282500D01*
X37821326Y2282500D01*
X37821325Y2282500D01*
X37821315Y2282499D01*
X37748263Y2267967D01*
X37748257Y2267965D01*
X37665400Y2212603D01*
X37665397Y2212600D01*
X37610035Y2129743D01*
X37610033Y2129737D01*
X37595501Y2056685D01*
X37595500Y2056673D01*
X37595500Y483328D01*
X34540500Y483328D01*
X34540500Y2056674D01*
X34525966Y2129740D01*
X34470601Y2212601D01*
X34470599Y2212603D01*
X34387742Y2267965D01*
X34387740Y2267966D01*
X34387737Y2267967D01*
X34387736Y2267967D01*
X34314684Y2282499D01*
X34314674Y2282500D01*
X32741326Y2282500D01*
X32741325Y2282500D01*
X32741315Y2282499D01*
X32668263Y2267967D01*
X32668257Y2267965D01*
X32585400Y2212603D01*
X32585397Y2212600D01*
X32530035Y2129743D01*
X32530033Y2129737D01*
X32515501Y2056685D01*
X32515500Y2056673D01*
X32515500Y483328D01*
X32000500Y483328D01*
X32000500Y2056674D01*
X31985966Y2129740D01*
X31930601Y2212601D01*
X31930599Y2212603D01*
X31847742Y2267965D01*
X31847740Y2267966D01*
X31847737Y2267967D01*
X31847736Y2267967D01*
X31774684Y2282499D01*
X31774674Y2282500D01*
X30201326Y2282500D01*
X30201325Y2282500D01*
X30201315Y2282499D01*
X30128263Y2267967D01*
X30128257Y2267965D01*
X30045400Y2212603D01*
X30045397Y2212600D01*
X29990035Y2129743D01*
X29990033Y2129737D01*
X29975501Y2056685D01*
X29975500Y2056673D01*
X29975500Y483328D01*
X21332500Y483328D01*
X21332500Y2056674D01*
X21317966Y2129740D01*
X21262601Y2212601D01*
X21262599Y2212603D01*
X21179742Y2267965D01*
X21179740Y2267966D01*
X21179737Y2267967D01*
X21179736Y2267967D01*
X21106684Y2282499D01*
X21106674Y2282500D01*
X19533326Y2282500D01*
X19533325Y2282500D01*
X19533315Y2282499D01*
X19460263Y2267967D01*
X19460257Y2267965D01*
X19377400Y2212603D01*
X19377397Y2212600D01*
X19322035Y2129743D01*
X19322033Y2129737D01*
X19307501Y2056685D01*
X19307500Y2056673D01*
X19307500Y483328D01*
X18792500Y483328D01*
X18792500Y2056674D01*
X18777966Y2129740D01*
X18722601Y2212601D01*
X18722599Y2212603D01*
X18639742Y2267965D01*
X18639740Y2267966D01*
X18639737Y2267967D01*
X18639736Y2267967D01*
X18566684Y2282499D01*
X18566674Y2282500D01*
X16993326Y2282500D01*
X16993325Y2282500D01*
X16993315Y2282499D01*
X16920263Y2267967D01*
X16920257Y2267965D01*
X16837400Y2212603D01*
X16837397Y2212600D01*
X16782035Y2129743D01*
X16782033Y2129737D01*
X16767501Y2056685D01*
X16767500Y2056673D01*
X16767500Y483328D01*
X13712500Y483328D01*
X13712500Y2056674D01*
X13697966Y2129740D01*
X13642601Y2212601D01*
X13642599Y2212603D01*
X13559742Y2267965D01*
X13559740Y2267966D01*
X13559737Y2267967D01*
X13559736Y2267967D01*
X13486684Y2282499D01*
X13486674Y2282500D01*
X11913326Y2282500D01*
X11913325Y2282500D01*
X11913315Y2282499D01*
X11840263Y2267967D01*
X11840257Y2267965D01*
X11757400Y2212603D01*
X11757397Y2212600D01*
X11702035Y2129743D01*
X11702033Y2129737D01*
X11687501Y2056685D01*
X11687500Y2056673D01*
X11687500Y483328D01*
X11172500Y483328D01*
X11172500Y2056674D01*
X11157966Y2129740D01*
X11102601Y2212601D01*
X11102599Y2212603D01*
X11019742Y2267965D01*
X11019740Y2267966D01*
X11019737Y2267967D01*
X11019736Y2267967D01*
X10946684Y2282499D01*
X10946674Y2282500D01*
X9373326Y2282500D01*
X9373325Y2282500D01*
X9373315Y2282499D01*
X9300263Y2267967D01*
X9300257Y2267965D01*
X9217400Y2212603D01*
X9217397Y2212600D01*
X9162035Y2129743D01*
X9162033Y2129737D01*
X9147501Y2056685D01*
X9147500Y2056673D01*
X9147500Y483328D01*
X-4750500Y483328D01*
X-4750500Y9373328D01*
X6099500Y9373328D01*
X6099501Y9373316D01*
X6114033Y9300264D01*
X6114035Y9300258D01*
X6169397Y9217401D01*
X6169399Y9217399D01*
X6252260Y9162034D01*
X6307808Y9150985D01*
X6325315Y9147502D01*
X6325320Y9147502D01*
X6325326Y9147500D01*
X6325327Y9147500D01*
X7898673Y9147500D01*
X7898674Y9147500D01*
X7971740Y9162034D01*
X8054601Y9217399D01*
X8109966Y9300260D01*
X8124500Y9373326D01*
X8124500Y9373328D01*
X8639500Y9373328D01*
X8639501Y9373316D01*
X8654033Y9300264D01*
X8654035Y9300258D01*
X8709397Y9217401D01*
X8709399Y9217399D01*
X8792260Y9162034D01*
X8847808Y9150985D01*
X8865315Y9147502D01*
X8865320Y9147502D01*
X8865326Y9147500D01*
X8865327Y9147500D01*
X10438673Y9147500D01*
X10438674Y9147500D01*
X10511740Y9162034D01*
X10594601Y9217399D01*
X10649966Y9300260D01*
X10664500Y9373326D01*
X10664500Y9373328D01*
X12703500Y9373328D01*
X12703501Y9373316D01*
X12718033Y9300264D01*
X12718035Y9300258D01*
X12773397Y9217401D01*
X12773399Y9217399D01*
X12856260Y9162034D01*
X12911808Y9150985D01*
X12929315Y9147502D01*
X12929320Y9147502D01*
X12929326Y9147500D01*
X12929327Y9147500D01*
X14502673Y9147500D01*
X14502674Y9147500D01*
X14575740Y9162034D01*
X14658601Y9217399D01*
X14713966Y9300260D01*
X14728500Y9373326D01*
X14728500Y9373328D01*
X15243500Y9373328D01*
X15243501Y9373316D01*
X15258033Y9300264D01*
X15258035Y9300258D01*
X15313397Y9217401D01*
X15313399Y9217399D01*
X15396260Y9162034D01*
X15451808Y9150985D01*
X15469315Y9147502D01*
X15469320Y9147502D01*
X15469326Y9147500D01*
X15469327Y9147500D01*
X17042673Y9147500D01*
X17042674Y9147500D01*
X17115740Y9162034D01*
X17198601Y9217399D01*
X17253966Y9300260D01*
X17268500Y9373326D01*
X17268500Y9627328D01*
X35055500Y9627328D01*
X35055501Y9627316D01*
X35070033Y9554264D01*
X35070035Y9554258D01*
X35125397Y9471401D01*
X35125399Y9471399D01*
X35208260Y9416034D01*
X35263808Y9404985D01*
X35281315Y9401502D01*
X35281320Y9401502D01*
X35281326Y9401500D01*
X35281327Y9401500D01*
X36854673Y9401500D01*
X36854674Y9401500D01*
X36927740Y9416034D01*
X37010601Y9471399D01*
X37065966Y9554260D01*
X37080500Y9627326D01*
X37080500Y9627328D01*
X37595500Y9627328D01*
X37595501Y9627316D01*
X37610033Y9554264D01*
X37610035Y9554258D01*
X37665397Y9471401D01*
X37665399Y9471399D01*
X37748260Y9416034D01*
X37803808Y9404985D01*
X37821315Y9401502D01*
X37821320Y9401502D01*
X37821326Y9401500D01*
X37821327Y9401500D01*
X39394673Y9401500D01*
X39394674Y9401500D01*
X39467740Y9416034D01*
X39550601Y9471399D01*
X39605966Y9554260D01*
X39620500Y9627326D01*
X39620500Y9627328D01*
X41151500Y9627328D01*
X41151501Y9627316D01*
X41166033Y9554264D01*
X41166035Y9554258D01*
X41221397Y9471401D01*
X41221399Y9471399D01*
X41304260Y9416034D01*
X41359808Y9404985D01*
X41377315Y9401502D01*
X41377320Y9401502D01*
X41377326Y9401500D01*
X41377327Y9401500D01*
X42950673Y9401500D01*
X42950674Y9401500D01*
X43023740Y9416034D01*
X43106601Y9471399D01*
X43161966Y9554260D01*
X43176500Y9627326D01*
X43176500Y9627328D01*
X43691500Y9627328D01*
X43691501Y9627316D01*
X43706033Y9554264D01*
X43706035Y9554258D01*
X43761397Y9471401D01*
X43761399Y9471399D01*
X43844260Y9416034D01*
X43899808Y9404985D01*
X43917315Y9401502D01*
X43917320Y9401502D01*
X43917326Y9401500D01*
X43917327Y9401500D01*
X45490673Y9401500D01*
X45490674Y9401500D01*
X45563740Y9416034D01*
X45646601Y9471399D01*
X45701966Y9554260D01*
X45716500Y9627326D01*
X45716500Y11200674D01*
X45701966Y11273740D01*
X45646601Y11356601D01*
X45646599Y11356603D01*
X45563742Y11411965D01*
X45563740Y11411966D01*
X45563737Y11411967D01*
X45563736Y11411967D01*
X45490684Y11426499D01*
X45490674Y11426500D01*
X43917326Y11426500D01*
X43917325Y11426500D01*
X43917315Y11426499D01*
X43844263Y11411967D01*
X43844257Y11411965D01*
X43761400Y11356603D01*
X43761397Y11356600D01*
X43706035Y11273743D01*
X43706033Y11273737D01*
X43691501Y11200685D01*
X43691500Y11200673D01*
X43691500Y9627328D01*
X43176500Y9627328D01*
X43176500Y11200674D01*
X43161966Y11273740D01*
X43106601Y11356601D01*
X43106599Y11356603D01*
X43023742Y11411965D01*
X43023740Y11411966D01*
X43023737Y11411967D01*
X43023736Y11411967D01*
X42950684Y11426499D01*
X42950674Y11426500D01*
X41377326Y11426500D01*
X41377325Y11426500D01*
X41377315Y11426499D01*
X41304263Y11411967D01*
X41304257Y11411965D01*
X41221400Y11356603D01*
X41221397Y11356600D01*
X41166035Y11273743D01*
X41166033Y11273737D01*
X41151501Y11200685D01*
X41151500Y11200673D01*
X41151500Y9627328D01*
X39620500Y9627328D01*
X39620500Y11200674D01*
X39605966Y11273740D01*
X39550601Y11356601D01*
X39550599Y11356603D01*
X39467742Y11411965D01*
X39467740Y11411966D01*
X39467737Y11411967D01*
X39467736Y11411967D01*
X39394684Y11426499D01*
X39394674Y11426500D01*
X37821326Y11426500D01*
X37821325Y11426500D01*
X37821315Y11426499D01*
X37748263Y11411967D01*
X37748257Y11411965D01*
X37665400Y11356603D01*
X37665397Y11356600D01*
X37610035Y11273743D01*
X37610033Y11273737D01*
X37595501Y11200685D01*
X37595500Y11200673D01*
X37595500Y9627328D01*
X37080500Y9627328D01*
X37080500Y11200674D01*
X37065966Y11273740D01*
X37010601Y11356601D01*
X37010599Y11356603D01*
X36927742Y11411965D01*
X36927740Y11411966D01*
X36927737Y11411967D01*
X36927736Y11411967D01*
X36854684Y11426499D01*
X36854674Y11426500D01*
X35281326Y11426500D01*
X35281325Y11426500D01*
X35281315Y11426499D01*
X35208263Y11411967D01*
X35208257Y11411965D01*
X35125400Y11356603D01*
X35125397Y11356600D01*
X35070035Y11273743D01*
X35070033Y11273737D01*
X35055501Y11200685D01*
X35055500Y11200673D01*
X35055500Y9627328D01*
X17268500Y9627328D01*
X17268500Y10946674D01*
X17253966Y11019740D01*
X17198601Y11102601D01*
X17198599Y11102603D01*
X17115742Y11157965D01*
X17115740Y11157966D01*
X17115737Y11157967D01*
X17115736Y11157967D01*
X17042684Y11172499D01*
X17042674Y11172500D01*
X15469326Y11172500D01*
X15469325Y11172500D01*
X15469315Y11172499D01*
X15396263Y11157967D01*
X15396257Y11157965D01*
X15313400Y11102603D01*
X15313397Y11102600D01*
X15258035Y11019743D01*
X15258033Y11019737D01*
X15243501Y10946685D01*
X15243500Y10946673D01*
X15243500Y9373328D01*
X14728500Y9373328D01*
X14728500Y10946674D01*
X14713966Y11019740D01*
X14658601Y11102601D01*
X14658599Y11102603D01*
X14575742Y11157965D01*
X14575740Y11157966D01*
X14575737Y11157967D01*
X14575736Y11157967D01*
X14502684Y11172499D01*
X14502674Y11172500D01*
X12929326Y11172500D01*
X12929325Y11172500D01*
X12929315Y11172499D01*
X12856263Y11157967D01*
X12856257Y11157965D01*
X12773400Y11102603D01*
X12773397Y11102600D01*
X12718035Y11019743D01*
X12718033Y11019737D01*
X12703501Y10946685D01*
X12703500Y10946673D01*
X12703500Y9373328D01*
X10664500Y9373328D01*
X10664500Y10946674D01*
X10649966Y11019740D01*
X10594601Y11102601D01*
X10594599Y11102603D01*
X10511742Y11157965D01*
X10511740Y11157966D01*
X10511737Y11157967D01*
X10511736Y11157967D01*
X10438684Y11172499D01*
X10438674Y11172500D01*
X8865326Y11172500D01*
X8865325Y11172500D01*
X8865315Y11172499D01*
X8792263Y11157967D01*
X8792257Y11157965D01*
X8709400Y11102603D01*
X8709397Y11102600D01*
X8654035Y11019743D01*
X8654033Y11019737D01*
X8639501Y10946685D01*
X8639500Y10946673D01*
X8639500Y9373328D01*
X8124500Y9373328D01*
X8124500Y10946674D01*
X8109966Y11019740D01*
X8054601Y11102601D01*
X8054599Y11102603D01*
X7971742Y11157965D01*
X7971740Y11157966D01*
X7971737Y11157967D01*
X7971736Y11157967D01*
X7898684Y11172499D01*
X7898674Y11172500D01*
X6325326Y11172500D01*
X6325325Y11172500D01*
X6325315Y11172499D01*
X6252263Y11157967D01*
X6252257Y11157965D01*
X6169400Y11102603D01*
X6169397Y11102600D01*
X6114035Y11019743D01*
X6114033Y11019737D01*
X6099501Y10946685D01*
X6099500Y10946673D01*
X6099500Y9373328D01*
X-4750500Y9373328D01*
X-4750500Y12191999D01*
X868712Y12191999D01*
X887752Y12035184D01*
X887753Y12035182D01*
X921765Y11945500D01*
X943770Y11887477D01*
X1033505Y11757472D01*
X1033506Y11757471D01*
X1033507Y11757470D01*
X1151750Y11652717D01*
X1291625Y11579304D01*
X1445005Y11541500D01*
X1445008Y11541500D01*
X1602972Y11541500D01*
X1602975Y11541500D01*
X1756355Y11579304D01*
X1896230Y11652717D01*
X1911902Y11666602D01*
X1967997Y11691038D01*
X1977553Y11691500D01*
X8182437Y11691500D01*
X8240628Y11672593D01*
X8248087Y11666602D01*
X8263760Y11652717D01*
X8403635Y11579304D01*
X8557015Y11541500D01*
X8557018Y11541500D01*
X8714982Y11541500D01*
X8714985Y11541500D01*
X8868365Y11579304D01*
X9008240Y11652717D01*
X9023912Y11666602D01*
X9080007Y11691038D01*
X9089563Y11691500D01*
X20374437Y11691500D01*
X20432628Y11672593D01*
X20440087Y11666602D01*
X20455760Y11652717D01*
X20595635Y11579304D01*
X20749015Y11541500D01*
X20749018Y11541500D01*
X20906982Y11541500D01*
X20906985Y11541500D01*
X21060365Y11579304D01*
X21200240Y11652717D01*
X21215912Y11666602D01*
X21272007Y11691038D01*
X21281563Y11691500D01*
X25836039Y11691500D01*
X25872201Y11691500D01*
X28199674Y11691500D01*
X28257865Y11672593D01*
X28269678Y11662504D01*
X28537822Y11394360D01*
X28565599Y11339843D01*
X28566096Y11336290D01*
X28573759Y11273182D01*
X28622479Y11144717D01*
X28629776Y11125477D01*
X28719511Y10995472D01*
X28719512Y10995471D01*
X28719513Y10995470D01*
X28837756Y10890717D01*
X28977631Y10817304D01*
X29131011Y10779500D01*
X29131014Y10779500D01*
X29288978Y10779500D01*
X29288981Y10779500D01*
X29442361Y10817304D01*
X29582236Y10890717D01*
X29700479Y10995470D01*
X29790216Y11125477D01*
X29846233Y11273182D01*
X29853895Y11336291D01*
X29879678Y11391777D01*
X29882170Y11394361D01*
X30404315Y11916504D01*
X30458831Y11944281D01*
X30474318Y11945500D01*
X36286729Y11945500D01*
X36342120Y11927503D01*
X36342395Y11927929D01*
X36344017Y11926887D01*
X36344920Y11926593D01*
X36346814Y11925089D01*
X36348345Y11924105D01*
X36348347Y11924103D01*
X36355174Y11920985D01*
X36373371Y11910189D01*
X36379389Y11905684D01*
X36428417Y11887399D01*
X36431661Y11886055D01*
X36479263Y11864315D01*
X36486698Y11863247D01*
X36507204Y11858012D01*
X36514237Y11855389D01*
X36566449Y11851655D01*
X36569916Y11851282D01*
X36585921Y11848980D01*
X36602068Y11848980D01*
X36605601Y11848854D01*
X36610300Y11848518D01*
X36657793Y11845121D01*
X36664190Y11846513D01*
X36665130Y11846717D01*
X36686176Y11848980D01*
X40694437Y11848980D01*
X40752628Y11830073D01*
X40760087Y11824082D01*
X40775760Y11810197D01*
X40915635Y11736784D01*
X41069015Y11698980D01*
X41069018Y11698980D01*
X41226982Y11698980D01*
X41226985Y11698980D01*
X41380365Y11736784D01*
X41520240Y11810197D01*
X41535912Y11824082D01*
X41592007Y11848518D01*
X41601563Y11848980D01*
X47854198Y11848980D01*
X47912389Y11830073D01*
X47924202Y11819984D01*
X48095826Y11648360D01*
X48123603Y11593843D01*
X48124100Y11590290D01*
X48130024Y11541500D01*
X48131763Y11527184D01*
X48131763Y11527183D01*
X48187780Y11379477D01*
X48277515Y11249472D01*
X48277516Y11249471D01*
X48277517Y11249470D01*
X48395760Y11144717D01*
X48535635Y11071304D01*
X48689015Y11033500D01*
X48689018Y11033500D01*
X48846982Y11033500D01*
X48846985Y11033500D01*
X49000365Y11071304D01*
X49140240Y11144717D01*
X49258483Y11249470D01*
X49348220Y11379477D01*
X49404237Y11527182D01*
X49423278Y11684000D01*
X49422423Y11691038D01*
X49404237Y11840817D01*
X49404237Y11840818D01*
X49348220Y11988523D01*
X49258483Y12118530D01*
X49140240Y12223283D01*
X49070302Y12259990D01*
X49000364Y12296697D01*
X48845023Y12334984D01*
X48798711Y12361103D01*
X48502000Y12657814D01*
X48488719Y12674297D01*
X48484664Y12680607D01*
X48484663Y12680608D01*
X48445123Y12714870D01*
X48442546Y12717269D01*
X48431115Y12728699D01*
X48431113Y12728701D01*
X48418156Y12738400D01*
X48415437Y12740592D01*
X48375893Y12774857D01*
X48369058Y12777979D01*
X48350868Y12788772D01*
X48349813Y12789562D01*
X48344851Y12793276D01*
X48344848Y12793277D01*
X48344847Y12793278D01*
X48295834Y12811559D01*
X48292569Y12812911D01*
X48244978Y12834645D01*
X48244974Y12834646D01*
X48237534Y12835716D01*
X48217040Y12840947D01*
X48210002Y12843572D01*
X48210003Y12843572D01*
X48157821Y12847304D01*
X48154308Y12847682D01*
X48138320Y12849980D01*
X48138319Y12849980D01*
X48122172Y12849980D01*
X48118639Y12850106D01*
X48088760Y12852243D01*
X48066447Y12853839D01*
X48066446Y12853839D01*
X48066445Y12853839D01*
X48059110Y12852243D01*
X48038064Y12849980D01*
X41747500Y12849980D01*
X41689309Y12868887D01*
X41653345Y12918387D01*
X41648500Y12948980D01*
X41648500Y20885136D01*
X41666024Y20941374D01*
X41728220Y21031479D01*
X41784237Y21179184D01*
X41803278Y21336002D01*
X41797646Y21382382D01*
X41784237Y21492819D01*
X41784237Y21492820D01*
X41728220Y21640525D01*
X41638483Y21770532D01*
X41520240Y21875285D01*
X41395265Y21940878D01*
X41380364Y21948699D01*
X41226987Y21986502D01*
X41226985Y21986502D01*
X41069015Y21986502D01*
X41069012Y21986502D01*
X40915635Y21948699D01*
X40775758Y21875284D01*
X40657515Y21770531D01*
X40567780Y21640526D01*
X40511763Y21492820D01*
X40511762Y21492819D01*
X40492722Y21336004D01*
X40492722Y21336001D01*
X40511762Y21179186D01*
X40511763Y21179185D01*
X40567780Y21031478D01*
X40583079Y21009314D01*
X40629975Y20941374D01*
X40647500Y20885136D01*
X40647500Y12948980D01*
X40628593Y12890789D01*
X40579093Y12854825D01*
X40548500Y12849980D01*
X36860191Y12849980D01*
X36804802Y12867977D01*
X36804528Y12867550D01*
X36802905Y12868593D01*
X36802000Y12868887D01*
X36800103Y12870394D01*
X36798576Y12871375D01*
X36798574Y12871376D01*
X36798573Y12871377D01*
X36791738Y12874499D01*
X36773548Y12885292D01*
X36772493Y12886082D01*
X36767531Y12889796D01*
X36767528Y12889797D01*
X36767527Y12889798D01*
X36718514Y12908079D01*
X36715249Y12909431D01*
X36667658Y12931165D01*
X36667654Y12931166D01*
X36660214Y12932236D01*
X36639720Y12937467D01*
X36632682Y12940092D01*
X36632683Y12940092D01*
X36580501Y12943824D01*
X36576988Y12944202D01*
X36561000Y12946500D01*
X36560999Y12946500D01*
X36544852Y12946500D01*
X36541319Y12946626D01*
X36511440Y12948763D01*
X36489127Y12950359D01*
X36489126Y12950359D01*
X36489125Y12950359D01*
X36481790Y12948763D01*
X36460744Y12946500D01*
X30290452Y12946500D01*
X30269406Y12948763D01*
X30262070Y12950359D01*
X30262069Y12950359D01*
X30242789Y12948980D01*
X30209877Y12946626D01*
X30206344Y12946500D01*
X30190196Y12946500D01*
X30174208Y12944202D01*
X30170696Y12943824D01*
X30118513Y12940092D01*
X30111467Y12937464D01*
X30090981Y12932236D01*
X30083543Y12931166D01*
X30083540Y12931166D01*
X30083539Y12931165D01*
X30083538Y12931165D01*
X30083536Y12931164D01*
X30035955Y12909435D01*
X30032691Y12908083D01*
X29983667Y12889798D01*
X29983665Y12889797D01*
X29977642Y12885288D01*
X29959459Y12874500D01*
X29952622Y12871378D01*
X29913093Y12837126D01*
X29910344Y12834911D01*
X29897403Y12825222D01*
X29885982Y12813801D01*
X29883397Y12811394D01*
X29843855Y12777132D01*
X29843852Y12777128D01*
X29839789Y12770806D01*
X29826515Y12754335D01*
X29279999Y12207819D01*
X29225482Y12180042D01*
X29165050Y12189613D01*
X29139991Y12207819D01*
X28847476Y12500334D01*
X28834195Y12516817D01*
X28830140Y12523127D01*
X28830139Y12523128D01*
X28790599Y12557390D01*
X28788022Y12559789D01*
X28776591Y12571219D01*
X28776589Y12571221D01*
X28763632Y12580920D01*
X28760913Y12583112D01*
X28721369Y12617377D01*
X28714534Y12620499D01*
X28696344Y12631292D01*
X28695289Y12632082D01*
X28690327Y12635796D01*
X28690324Y12635797D01*
X28690323Y12635798D01*
X28641310Y12654079D01*
X28638045Y12655431D01*
X28590454Y12677165D01*
X28590450Y12677166D01*
X28583010Y12678236D01*
X28562516Y12683467D01*
X28555478Y12686092D01*
X28555479Y12686092D01*
X28503297Y12689824D01*
X28499784Y12690202D01*
X28483796Y12692500D01*
X28483795Y12692500D01*
X28467648Y12692500D01*
X28464115Y12692626D01*
X28434236Y12694763D01*
X28411923Y12696359D01*
X28411922Y12696359D01*
X28411921Y12696359D01*
X28404586Y12694763D01*
X28383540Y12692500D01*
X26507500Y12692500D01*
X26449309Y12711407D01*
X26413345Y12760907D01*
X26408500Y12791500D01*
X26408500Y18033999D01*
X30078722Y18033999D01*
X30097762Y17877184D01*
X30097763Y17877182D01*
X30153779Y17729477D01*
X30153780Y17729477D01*
X30243515Y17599472D01*
X30243516Y17599471D01*
X30243517Y17599470D01*
X30361760Y17494717D01*
X30501635Y17421304D01*
X30655015Y17383500D01*
X30655018Y17383500D01*
X30812982Y17383500D01*
X30812985Y17383500D01*
X30966365Y17421304D01*
X31106240Y17494717D01*
X31224483Y17599470D01*
X31314220Y17729477D01*
X31370237Y17877182D01*
X31389278Y18034000D01*
X31370237Y18190818D01*
X31314220Y18338523D01*
X31252024Y18428630D01*
X31234500Y18484868D01*
X31234500Y21940878D01*
X31253407Y21999069D01*
X31287490Y22028538D01*
X31360236Y22066717D01*
X31478479Y22171470D01*
X31568216Y22301477D01*
X31624233Y22449182D01*
X31640128Y22580091D01*
X31643274Y22605999D01*
X31643274Y22606002D01*
X31629736Y22717500D01*
X31624233Y22762818D01*
X31568216Y22910523D01*
X31478479Y23040530D01*
X31360236Y23145283D01*
X31234674Y23211184D01*
X31220360Y23218697D01*
X31066983Y23256500D01*
X31066981Y23256500D01*
X30909011Y23256500D01*
X30909008Y23256500D01*
X30755631Y23218697D01*
X30615754Y23145282D01*
X30497511Y23040529D01*
X30407776Y22910524D01*
X30351759Y22762818D01*
X30343026Y22690906D01*
X30319572Y22638015D01*
X30308622Y22625378D01*
X30305500Y22618541D01*
X30294712Y22600358D01*
X30290203Y22594335D01*
X30290202Y22594333D01*
X30271917Y22545309D01*
X30270565Y22542045D01*
X30248836Y22494464D01*
X30248834Y22494457D01*
X30247764Y22487019D01*
X30242536Y22466533D01*
X30239908Y22459487D01*
X30236176Y22407304D01*
X30235798Y22403792D01*
X30233500Y22387804D01*
X30233500Y22371657D01*
X30233374Y22368124D01*
X30229641Y22315931D01*
X30231237Y22308596D01*
X30233500Y22287548D01*
X30233500Y18484868D01*
X30215976Y18428630D01*
X30153780Y18338524D01*
X30097763Y18190818D01*
X30097762Y18190817D01*
X30078722Y18034002D01*
X30078722Y18033999D01*
X26408500Y18033999D01*
X26408500Y21843999D01*
X27030722Y21843999D01*
X27049762Y21687184D01*
X27049763Y21687182D01*
X27067458Y21640525D01*
X27105780Y21539477D01*
X27195515Y21409472D01*
X27195516Y21409471D01*
X27195517Y21409470D01*
X27313760Y21304717D01*
X27453635Y21231304D01*
X27607015Y21193500D01*
X27607018Y21193500D01*
X27764982Y21193500D01*
X27764985Y21193500D01*
X27918365Y21231304D01*
X28058240Y21304717D01*
X28176483Y21409470D01*
X28266220Y21539477D01*
X28322237Y21687182D01*
X28341244Y21843723D01*
X28341278Y21843999D01*
X28341278Y21844000D01*
X28337479Y21875285D01*
X28331987Y21920511D01*
X28343741Y21980554D01*
X28360257Y22002443D01*
X29970309Y23612494D01*
X30024827Y23640271D01*
X30040314Y23641490D01*
X33774208Y23641490D01*
X33795254Y23639227D01*
X33796494Y23638958D01*
X33802591Y23637631D01*
X33850076Y23641028D01*
X33854783Y23641364D01*
X33858316Y23641490D01*
X33874463Y23641490D01*
X33890463Y23643791D01*
X33893936Y23644166D01*
X33946147Y23647899D01*
X33953179Y23650523D01*
X33973686Y23655757D01*
X33981121Y23656825D01*
X34028713Y23678561D01*
X34031959Y23679906D01*
X34080995Y23698194D01*
X34087005Y23702694D01*
X34105213Y23713498D01*
X34112037Y23716613D01*
X34151581Y23750880D01*
X34154306Y23753076D01*
X34167257Y23762769D01*
X34178706Y23774220D01*
X34181243Y23776582D01*
X34220807Y23810862D01*
X34224866Y23817179D01*
X34238141Y23833655D01*
X37814990Y27410505D01*
X37869508Y27438281D01*
X37884995Y27439500D01*
X40313544Y27439500D01*
X40334590Y27437237D01*
X40335830Y27436968D01*
X40341927Y27435641D01*
X40389412Y27439038D01*
X40394119Y27439374D01*
X40397652Y27439500D01*
X40413799Y27439500D01*
X40429799Y27441801D01*
X40433272Y27442176D01*
X40485483Y27445909D01*
X40492515Y27448533D01*
X40513022Y27453767D01*
X40520457Y27454835D01*
X40568049Y27476571D01*
X40571295Y27477916D01*
X40620331Y27496204D01*
X40626341Y27500704D01*
X40644549Y27511508D01*
X40651373Y27514623D01*
X40690917Y27548890D01*
X40693642Y27551086D01*
X40706593Y27560779D01*
X40718042Y27572230D01*
X40720579Y27574592D01*
X40760143Y27608872D01*
X40764202Y27615189D01*
X40777477Y27631665D01*
X40948335Y27802523D01*
X40964811Y27815798D01*
X40971128Y27819857D01*
X41005408Y27859421D01*
X41007770Y27861958D01*
X41019221Y27873407D01*
X41028914Y27886358D01*
X41031110Y27889083D01*
X41065377Y27928627D01*
X41068492Y27935451D01*
X41079296Y27953658D01*
X41079921Y27954494D01*
X41083796Y27959669D01*
X41102084Y28008705D01*
X41103432Y28011957D01*
X41125165Y28059543D01*
X41126233Y28066978D01*
X41131467Y28087485D01*
X41134091Y28094517D01*
X41137824Y28146728D01*
X41138199Y28150201D01*
X41140500Y28166201D01*
X41140500Y28182349D01*
X41140626Y28185882D01*
X41140765Y28187840D01*
X41144359Y28238073D01*
X41142762Y28245412D01*
X41140500Y28266450D01*
X41140500Y28352501D01*
X41159408Y28410692D01*
X41208908Y28446655D01*
X41239500Y28451500D01*
X41426673Y28451500D01*
X41426674Y28451500D01*
X41499740Y28466034D01*
X41582601Y28521399D01*
X41637966Y28604260D01*
X41652500Y28677326D01*
X41652500Y30250674D01*
X41637966Y30323740D01*
X41582601Y30406601D01*
X41582599Y30406603D01*
X41499742Y30461965D01*
X41499740Y30461966D01*
X41499737Y30461967D01*
X41499736Y30461967D01*
X41426684Y30476499D01*
X41426674Y30476500D01*
X39853326Y30476500D01*
X39853325Y30476500D01*
X39853315Y30476499D01*
X39780263Y30461967D01*
X39780257Y30461965D01*
X39697400Y30406603D01*
X39697397Y30406600D01*
X39642035Y30323743D01*
X39642033Y30323737D01*
X39627501Y30250685D01*
X39627500Y30250673D01*
X39627500Y28677328D01*
X39627501Y28677316D01*
X39642033Y28604264D01*
X39642036Y28604255D01*
X39648555Y28594499D01*
X39665162Y28535611D01*
X39643983Y28478208D01*
X39593108Y28444216D01*
X39566238Y28440500D01*
X39173762Y28440500D01*
X39115571Y28459407D01*
X39079607Y28508907D01*
X39079607Y28570093D01*
X39091445Y28594499D01*
X39097963Y28604255D01*
X39097963Y28604257D01*
X39097966Y28604260D01*
X39112500Y28677326D01*
X39112500Y30250674D01*
X39097966Y30323740D01*
X39042601Y30406601D01*
X39042599Y30406603D01*
X38959742Y30461965D01*
X38959740Y30461966D01*
X38959737Y30461967D01*
X38959736Y30461967D01*
X38886684Y30476499D01*
X38886674Y30476500D01*
X37313326Y30476500D01*
X37313325Y30476500D01*
X37313315Y30476499D01*
X37240263Y30461967D01*
X37240257Y30461965D01*
X37157400Y30406603D01*
X37157397Y30406600D01*
X37102035Y30323743D01*
X37102033Y30323737D01*
X37087501Y30250685D01*
X37087500Y30250673D01*
X37087500Y29200323D01*
X37068593Y29142132D01*
X37058504Y29130319D01*
X33349682Y25421496D01*
X33295165Y25393719D01*
X33279678Y25392500D01*
X29274453Y25392500D01*
X29253410Y25394762D01*
X29246073Y25396358D01*
X29246072Y25396358D01*
X29193890Y25392626D01*
X29190358Y25392500D01*
X29174198Y25392500D01*
X29158201Y25390201D01*
X29154690Y25389823D01*
X29102515Y25386092D01*
X29095476Y25383466D01*
X29074986Y25378236D01*
X29067544Y25377166D01*
X29019941Y25355428D01*
X29016678Y25354076D01*
X28967670Y25335797D01*
X28967665Y25335794D01*
X28961647Y25331289D01*
X28943460Y25320499D01*
X28936630Y25317380D01*
X28936626Y25317377D01*
X28897089Y25283119D01*
X28894340Y25280904D01*
X28881403Y25271218D01*
X28869986Y25259801D01*
X28867401Y25257394D01*
X28827859Y25223132D01*
X28827856Y25223128D01*
X28823793Y25216806D01*
X28810519Y25200336D01*
X28511118Y24900934D01*
X28361418Y24751233D01*
X28361418Y24751232D01*
X27655288Y24045103D01*
X27608976Y24018984D01*
X27453636Y23980697D01*
X27313758Y23907282D01*
X27195515Y23802529D01*
X27105780Y23672524D01*
X27049763Y23524818D01*
X27049762Y23524817D01*
X27030722Y23368002D01*
X27030722Y23367999D01*
X27049762Y23211184D01*
X27049763Y23211182D01*
X27076779Y23139947D01*
X27105780Y23063477D01*
X27195515Y22933472D01*
X27195516Y22933471D01*
X27195517Y22933470D01*
X27313760Y22828717D01*
X27453635Y22755304D01*
X27478841Y22749092D01*
X27530814Y22716810D01*
X27553888Y22660142D01*
X27539246Y22600734D01*
X27525152Y22582965D01*
X27377669Y22435482D01*
X27361195Y22422206D01*
X27354874Y22418144D01*
X27354869Y22418140D01*
X27346006Y22407912D01*
X27317215Y22385098D01*
X27313762Y22383286D01*
X27195515Y22278529D01*
X27105780Y22148524D01*
X27049763Y22000818D01*
X27049762Y22000817D01*
X27030722Y21844002D01*
X27030722Y21843999D01*
X26408500Y21843999D01*
X26408500Y26587993D01*
X26427407Y26646184D01*
X26437496Y26657996D01*
X26489130Y26709631D01*
X26500935Y26719715D01*
X26513871Y26729112D01*
X26560586Y26780996D01*
X26562315Y26782817D01*
X26578120Y26798620D01*
X26592184Y26815991D01*
X26593819Y26817905D01*
X26640533Y26869784D01*
X26648525Y26883629D01*
X26657319Y26896424D01*
X26667383Y26908851D01*
X26699069Y26971043D01*
X26700272Y26973259D01*
X26735179Y27033716D01*
X26740116Y27048916D01*
X26746059Y27063264D01*
X26753320Y27077512D01*
X26753320Y27077515D01*
X26754919Y27080651D01*
X26798187Y27123913D01*
X26843126Y27134700D01*
X31518746Y27134700D01*
X31539792Y27132437D01*
X31541032Y27132168D01*
X31547129Y27130841D01*
X31594614Y27134238D01*
X31599321Y27134574D01*
X31602854Y27134700D01*
X31619001Y27134700D01*
X31635001Y27137001D01*
X31638474Y27137376D01*
X31690685Y27141109D01*
X31697717Y27143733D01*
X31718224Y27148967D01*
X31725659Y27150035D01*
X31773251Y27171771D01*
X31776497Y27173116D01*
X31825533Y27191404D01*
X31831543Y27195904D01*
X31849751Y27206708D01*
X31856575Y27209823D01*
X31896119Y27244090D01*
X31898844Y27246286D01*
X31911795Y27255979D01*
X31923244Y27267430D01*
X31925781Y27269792D01*
X31965345Y27304072D01*
X31969404Y27310389D01*
X31982679Y27326865D01*
X36130319Y31474504D01*
X36184837Y31502281D01*
X36200324Y31503500D01*
X36988500Y31503500D01*
X37046691Y31484593D01*
X37082655Y31435093D01*
X37087500Y31404500D01*
X37087500Y31217328D01*
X37087501Y31217316D01*
X37102033Y31144264D01*
X37102035Y31144258D01*
X37157397Y31061401D01*
X37157399Y31061399D01*
X37240260Y31006034D01*
X37295808Y30994985D01*
X37313315Y30991502D01*
X37313320Y30991502D01*
X37313326Y30991500D01*
X37313327Y30991500D01*
X38886673Y30991500D01*
X38886674Y30991500D01*
X38959740Y31006034D01*
X39042601Y31061399D01*
X39097966Y31144260D01*
X39112500Y31217326D01*
X39112500Y31404500D01*
X39131407Y31462691D01*
X39180907Y31498655D01*
X39211500Y31503500D01*
X39528500Y31503500D01*
X39586691Y31484593D01*
X39622655Y31435093D01*
X39627500Y31404500D01*
X39627500Y31217328D01*
X39627501Y31217316D01*
X39642033Y31144264D01*
X39642035Y31144258D01*
X39697397Y31061401D01*
X39697399Y31061399D01*
X39780260Y31006034D01*
X39835808Y30994985D01*
X39853315Y30991502D01*
X39853320Y30991502D01*
X39853326Y30991500D01*
X39853327Y30991500D01*
X41426673Y30991500D01*
X41426674Y30991500D01*
X41499740Y31006034D01*
X41582601Y31061399D01*
X41637966Y31144260D01*
X41652500Y31217326D01*
X41652500Y32790674D01*
X41637966Y32863740D01*
X41582601Y32946601D01*
X41582599Y32946603D01*
X41499742Y33001965D01*
X41499740Y33001966D01*
X41499737Y33001967D01*
X41499736Y33001967D01*
X41426684Y33016499D01*
X41426674Y33016500D01*
X39853326Y33016500D01*
X39853325Y33016500D01*
X39853315Y33016499D01*
X39780263Y33001967D01*
X39780257Y33001965D01*
X39697400Y32946603D01*
X39697397Y32946600D01*
X39642035Y32863743D01*
X39642033Y32863737D01*
X39627501Y32790685D01*
X39627500Y32790673D01*
X39627500Y32603500D01*
X39608593Y32545309D01*
X39559093Y32509345D01*
X39528500Y32504500D01*
X39211500Y32504500D01*
X39153309Y32523407D01*
X39117345Y32572907D01*
X39112500Y32603500D01*
X39112500Y32790673D01*
X39112498Y32790685D01*
X39109015Y32808192D01*
X39097966Y32863740D01*
X39042601Y32946601D01*
X39042599Y32946603D01*
X38959742Y33001965D01*
X38959740Y33001966D01*
X38959737Y33001967D01*
X38959736Y33001967D01*
X38886684Y33016499D01*
X38886674Y33016500D01*
X37313326Y33016500D01*
X37313325Y33016500D01*
X37313315Y33016499D01*
X37240263Y33001967D01*
X37240257Y33001965D01*
X37157400Y32946603D01*
X37157397Y32946600D01*
X37102035Y32863743D01*
X37102033Y32863737D01*
X37087501Y32790685D01*
X37087500Y32790673D01*
X37087500Y32603500D01*
X37068593Y32545309D01*
X37019093Y32509345D01*
X36988500Y32504500D01*
X36016458Y32504500D01*
X35995412Y32506763D01*
X35988076Y32508359D01*
X35988075Y32508359D01*
X35967876Y32506915D01*
X35935883Y32504626D01*
X35932350Y32504500D01*
X35916202Y32504500D01*
X35900214Y32502202D01*
X35896702Y32501824D01*
X35844519Y32498092D01*
X35837473Y32495464D01*
X35816987Y32490236D01*
X35809549Y32489166D01*
X35809546Y32489166D01*
X35809545Y32489165D01*
X35809544Y32489165D01*
X35809542Y32489164D01*
X35761961Y32467435D01*
X35758697Y32466083D01*
X35709673Y32447798D01*
X35709671Y32447797D01*
X35703648Y32443288D01*
X35685465Y32432500D01*
X35678628Y32429378D01*
X35639099Y32395126D01*
X35636350Y32392911D01*
X35623409Y32383222D01*
X35611988Y32371801D01*
X35609403Y32369394D01*
X35569861Y32335132D01*
X35569858Y32335128D01*
X35565795Y32328806D01*
X35552521Y32312335D01*
X31404884Y28164696D01*
X31350367Y28136919D01*
X31334880Y28135700D01*
X26907500Y28135700D01*
X26849309Y28154607D01*
X26813345Y28204107D01*
X26808500Y28234700D01*
X26808500Y28440352D01*
X26827407Y28498543D01*
X26843853Y28514356D01*
X26843705Y28514504D01*
X26850594Y28521395D01*
X26850601Y28521399D01*
X26905966Y28604260D01*
X26920500Y28677326D01*
X26920500Y28677328D01*
X27435500Y28677328D01*
X27435501Y28677316D01*
X27450033Y28604264D01*
X27450035Y28604258D01*
X27505397Y28521401D01*
X27505400Y28521398D01*
X27549832Y28491710D01*
X27588260Y28466034D01*
X27643808Y28454985D01*
X27661315Y28451502D01*
X27661320Y28451502D01*
X27661326Y28451500D01*
X27661327Y28451500D01*
X29234673Y28451500D01*
X29234674Y28451500D01*
X29307740Y28466034D01*
X29390601Y28521399D01*
X29445966Y28604260D01*
X29460500Y28677326D01*
X29460500Y30250674D01*
X29445966Y30323740D01*
X29390601Y30406601D01*
X29390599Y30406603D01*
X29307742Y30461965D01*
X29307740Y30461966D01*
X29307737Y30461967D01*
X29307736Y30461967D01*
X29234684Y30476499D01*
X29234674Y30476500D01*
X27661326Y30476500D01*
X27661325Y30476500D01*
X27661315Y30476499D01*
X27588263Y30461967D01*
X27588257Y30461965D01*
X27505400Y30406603D01*
X27505397Y30406600D01*
X27450035Y30323743D01*
X27450033Y30323737D01*
X27435501Y30250685D01*
X27435500Y30250673D01*
X27435500Y28677328D01*
X26920500Y28677328D01*
X26920500Y30250674D01*
X26905966Y30323740D01*
X26850601Y30406601D01*
X26850599Y30406603D01*
X26767742Y30461965D01*
X26767740Y30461966D01*
X26767737Y30461967D01*
X26767736Y30461967D01*
X26694684Y30476499D01*
X26694674Y30476500D01*
X25121326Y30476500D01*
X25121325Y30476500D01*
X25121315Y30476499D01*
X25048263Y30461967D01*
X25048257Y30461965D01*
X24965400Y30406603D01*
X24965397Y30406600D01*
X24910035Y30323743D01*
X24910033Y30323737D01*
X24895501Y30250685D01*
X24895500Y30250673D01*
X24895500Y28677328D01*
X24895501Y28677316D01*
X24910033Y28604264D01*
X24910035Y28604258D01*
X24916556Y28594499D01*
X24965399Y28521399D01*
X24965402Y28521397D01*
X24972295Y28514504D01*
X24970975Y28513185D01*
X25001378Y28474625D01*
X25007500Y28440352D01*
X25007500Y28177500D01*
X24988593Y28119309D01*
X24939093Y28083345D01*
X24908500Y28078500D01*
X20384005Y28078500D01*
X20325814Y28097407D01*
X20314001Y28107496D01*
X19744169Y28677328D01*
X22355500Y28677328D01*
X22355501Y28677316D01*
X22370033Y28604264D01*
X22370035Y28604258D01*
X22425397Y28521401D01*
X22425400Y28521398D01*
X22469832Y28491710D01*
X22508260Y28466034D01*
X22563808Y28454985D01*
X22581315Y28451502D01*
X22581320Y28451502D01*
X22581326Y28451500D01*
X22581327Y28451500D01*
X24154673Y28451500D01*
X24154674Y28451500D01*
X24227740Y28466034D01*
X24310601Y28521399D01*
X24365966Y28604260D01*
X24380500Y28677326D01*
X24380500Y30250674D01*
X24365966Y30323740D01*
X24310601Y30406601D01*
X24310599Y30406603D01*
X24227742Y30461965D01*
X24227740Y30461966D01*
X24227737Y30461967D01*
X24227736Y30461967D01*
X24154684Y30476499D01*
X24154674Y30476500D01*
X22581326Y30476500D01*
X22581325Y30476500D01*
X22581315Y30476499D01*
X22508263Y30461967D01*
X22508257Y30461965D01*
X22425400Y30406603D01*
X22425397Y30406600D01*
X22370035Y30323743D01*
X22370033Y30323737D01*
X22355501Y30250685D01*
X22355500Y30250673D01*
X22355500Y28677328D01*
X19744169Y28677328D01*
X19216131Y29205366D01*
X19188354Y29259883D01*
X19187677Y29265022D01*
X19173674Y29398256D01*
X19115179Y29578284D01*
X19115176Y29578289D01*
X19115174Y29578294D01*
X19066551Y29662510D01*
X19020533Y29742216D01*
X18893871Y29882888D01*
X18740730Y29994151D01*
X18740725Y29994153D01*
X18740722Y29994155D01*
X18567805Y30071143D01*
X18567803Y30071144D01*
X18567800Y30071145D01*
X18567799Y30071145D01*
X18532580Y30078631D01*
X18382646Y30110500D01*
X18193354Y30110500D01*
X18075289Y30085405D01*
X18008200Y30071145D01*
X18008194Y30071143D01*
X17835277Y29994155D01*
X17835268Y29994150D01*
X17682129Y29882889D01*
X17682124Y29882884D01*
X17555469Y29742219D01*
X17555465Y29742213D01*
X17460825Y29578294D01*
X17460819Y29578280D01*
X17402327Y29398262D01*
X17387500Y29257194D01*
X17387500Y28938659D01*
X17386281Y28923171D01*
X17383780Y28907386D01*
X17387432Y28837719D01*
X17387500Y28835128D01*
X17387500Y28812812D01*
X17387501Y28812791D01*
X17389831Y28790610D01*
X17390035Y28788029D01*
X17393686Y28718358D01*
X17393686Y28718353D01*
X17397825Y28702906D01*
X17400654Y28687642D01*
X17402325Y28671743D01*
X17423886Y28605384D01*
X17424622Y28602900D01*
X17442680Y28535508D01*
X17442681Y28535507D01*
X17449936Y28521268D01*
X17455879Y28506921D01*
X17460819Y28491718D01*
X17460821Y28491714D01*
X17495711Y28431282D01*
X17496935Y28429028D01*
X17528618Y28366847D01*
X17538678Y28354423D01*
X17547474Y28341625D01*
X17555463Y28327788D01*
X17555468Y28327781D01*
X17602150Y28275935D01*
X17603829Y28273969D01*
X17617881Y28256618D01*
X17629091Y28245408D01*
X17633667Y28240832D01*
X17635433Y28238971D01*
X17636242Y28238073D01*
X17682130Y28187109D01*
X17695054Y28177720D01*
X17706870Y28167629D01*
X19277627Y26596872D01*
X19287715Y26585060D01*
X19297111Y26572128D01*
X19297113Y26572125D01*
X19348949Y26525453D01*
X19350828Y26523670D01*
X19366617Y26507881D01*
X19366619Y26507880D01*
X19383969Y26493830D01*
X19385914Y26492168D01*
X19437780Y26445469D01*
X19437782Y26445467D01*
X19451625Y26437475D01*
X19464427Y26428676D01*
X19476849Y26418617D01*
X19539038Y26386931D01*
X19541289Y26385708D01*
X19601714Y26350821D01*
X19616915Y26345882D01*
X19631272Y26339935D01*
X19645510Y26332680D01*
X19712900Y26314624D01*
X19715344Y26313901D01*
X19781742Y26292326D01*
X19797640Y26290656D01*
X19812911Y26287826D01*
X19828352Y26283688D01*
X19898064Y26280035D01*
X19900577Y26279837D01*
X19910052Y26278841D01*
X19922791Y26277501D01*
X19922802Y26277501D01*
X19922806Y26277500D01*
X19945134Y26277500D01*
X19947716Y26277433D01*
X19995938Y26274906D01*
X20017384Y26273781D01*
X20017384Y26273782D01*
X20017386Y26273781D01*
X20033170Y26276282D01*
X20048658Y26277500D01*
X25308500Y26277500D01*
X25366691Y26258593D01*
X25402655Y26209093D01*
X25407500Y26178500D01*
X25407500Y12791500D01*
X25388593Y12733309D01*
X25339093Y12697345D01*
X25308500Y12692500D01*
X21281563Y12692500D01*
X21223372Y12711407D01*
X21215913Y12717398D01*
X21200241Y12731282D01*
X21200240Y12731283D01*
X21102852Y12782397D01*
X21060364Y12804697D01*
X20906987Y12842500D01*
X20906985Y12842500D01*
X20749015Y12842500D01*
X20749012Y12842500D01*
X20595635Y12804697D01*
X20455758Y12731282D01*
X20440087Y12717398D01*
X20383993Y12692962D01*
X20374437Y12692500D01*
X9235500Y12692500D01*
X9177309Y12711407D01*
X9141345Y12760907D01*
X9136500Y12791500D01*
X9136500Y15652079D01*
X9155407Y15710270D01*
X9165496Y15722083D01*
X9537118Y16093705D01*
X9960335Y16516923D01*
X9976811Y16530198D01*
X9983128Y16534257D01*
X10017408Y16573821D01*
X10019770Y16576358D01*
X10031221Y16587807D01*
X10040914Y16600758D01*
X10043110Y16603483D01*
X10077377Y16643027D01*
X10080492Y16649851D01*
X10091296Y16668058D01*
X10091921Y16668894D01*
X10095796Y16674069D01*
X10114084Y16723105D01*
X10115432Y16726357D01*
X10137165Y16773943D01*
X10138233Y16781378D01*
X10143467Y16801885D01*
X10146091Y16808917D01*
X10149824Y16861128D01*
X10150199Y16864601D01*
X10152500Y16880601D01*
X10152500Y16896749D01*
X10152626Y16900282D01*
X10152765Y16902240D01*
X10156359Y16952473D01*
X10154762Y16959815D01*
X10152500Y16980858D01*
X10152500Y21088334D01*
X10170024Y21144572D01*
X10232220Y21234677D01*
X10288237Y21382382D01*
X10301646Y21492819D01*
X10307278Y21539199D01*
X10307278Y21539202D01*
X10288237Y21696017D01*
X10288237Y21696018D01*
X10232220Y21843723D01*
X10159761Y21948699D01*
X10142484Y21973729D01*
X10112012Y22000725D01*
X10024240Y22078483D01*
X9890792Y22148523D01*
X9884364Y22151897D01*
X9730987Y22189700D01*
X9730985Y22189700D01*
X9573015Y22189700D01*
X9573012Y22189700D01*
X9419635Y22151897D01*
X9279758Y22078482D01*
X9161515Y21973729D01*
X9071780Y21843724D01*
X9015763Y21696018D01*
X9015762Y21696017D01*
X8996722Y21539202D01*
X8996722Y21539199D01*
X9015762Y21382384D01*
X9015763Y21382383D01*
X9071780Y21234676D01*
X9107664Y21182690D01*
X9133975Y21144572D01*
X9151500Y21088334D01*
X9151500Y17164723D01*
X9132593Y17106532D01*
X9122504Y17094719D01*
X8327665Y16299881D01*
X8311194Y16286607D01*
X8304872Y16282544D01*
X8304868Y16282541D01*
X8270606Y16242999D01*
X8268199Y16240414D01*
X8256778Y16228993D01*
X8247089Y16216052D01*
X8244874Y16213303D01*
X8210622Y16173774D01*
X8207500Y16166937D01*
X8196712Y16148754D01*
X8192203Y16142731D01*
X8192202Y16142729D01*
X8173917Y16093705D01*
X8172565Y16090441D01*
X8150836Y16042860D01*
X8150834Y16042853D01*
X8149764Y16035415D01*
X8144536Y16014929D01*
X8141908Y16007883D01*
X8138176Y15955700D01*
X8137798Y15952188D01*
X8135500Y15936200D01*
X8135500Y15920053D01*
X8135374Y15916520D01*
X8131641Y15864327D01*
X8133237Y15856992D01*
X8135500Y15835944D01*
X8135500Y12791500D01*
X8116593Y12733309D01*
X8067093Y12697345D01*
X8036500Y12692500D01*
X1977553Y12692500D01*
X1919362Y12711407D01*
X1911903Y12717398D01*
X1896231Y12731282D01*
X1896230Y12731283D01*
X1798842Y12782397D01*
X1756354Y12804697D01*
X1602977Y12842500D01*
X1602975Y12842500D01*
X1445005Y12842500D01*
X1445002Y12842500D01*
X1291625Y12804697D01*
X1151748Y12731282D01*
X1033505Y12626529D01*
X943770Y12496524D01*
X887753Y12348818D01*
X887752Y12348817D01*
X868712Y12192002D01*
X868712Y12191999D01*
X-4750500Y12191999D01*
X-4750500Y23139947D01*
X17049070Y23139947D01*
X17068110Y22983132D01*
X17068111Y22983131D01*
X17124128Y22835425D01*
X17213863Y22705420D01*
X17213864Y22705419D01*
X17213865Y22705418D01*
X17332108Y22600665D01*
X17471983Y22527252D01*
X17625363Y22489448D01*
X17625364Y22489448D01*
X17627324Y22488965D01*
X17673636Y22462846D01*
X18063303Y22073179D01*
X18091080Y22018662D01*
X18092299Y22003175D01*
X18092299Y18637268D01*
X18074775Y18581030D01*
X18012579Y18490924D01*
X17956562Y18343218D01*
X17956561Y18343217D01*
X17937521Y18186402D01*
X17937521Y18186399D01*
X17956561Y18029584D01*
X17956562Y18029583D01*
X18012579Y17881877D01*
X18102314Y17751872D01*
X18102315Y17751871D01*
X18102316Y17751870D01*
X18220559Y17647117D01*
X18360434Y17573704D01*
X18513814Y17535900D01*
X18513817Y17535900D01*
X18671781Y17535900D01*
X18671784Y17535900D01*
X18825164Y17573704D01*
X18965039Y17647117D01*
X19083282Y17751870D01*
X19173019Y17881877D01*
X19229036Y18029582D01*
X19248077Y18186400D01*
X19229036Y18343218D01*
X19173019Y18490923D01*
X19110823Y18581030D01*
X19093299Y18637268D01*
X19093299Y22187046D01*
X19095562Y22208094D01*
X19097157Y22215424D01*
X19093425Y22267608D01*
X19093299Y22271140D01*
X19093299Y22287292D01*
X19093299Y22287296D01*
X19090994Y22303320D01*
X19090622Y22306786D01*
X19086890Y22358980D01*
X19084266Y22366013D01*
X19079032Y22386522D01*
X19077988Y22393784D01*
X19077964Y22393954D01*
X19056225Y22441555D01*
X19054875Y22444814D01*
X19053246Y22449182D01*
X19036594Y22493828D01*
X19032093Y22499840D01*
X19021294Y22518041D01*
X19018176Y22524870D01*
X18983917Y22564407D01*
X18981699Y22567159D01*
X18972028Y22580080D01*
X18972024Y22580085D01*
X18972019Y22580091D01*
X18960595Y22591515D01*
X18958186Y22594103D01*
X18923928Y22633640D01*
X18923926Y22633641D01*
X18917609Y22637701D01*
X18901131Y22650979D01*
X18376521Y23175589D01*
X18348744Y23230106D01*
X18348247Y23233660D01*
X18340585Y23296764D01*
X18340585Y23296766D01*
X18284568Y23444471D01*
X18194831Y23574478D01*
X18076588Y23679231D01*
X18005363Y23716613D01*
X17936712Y23752645D01*
X17783335Y23790448D01*
X17783333Y23790448D01*
X17625363Y23790448D01*
X17625360Y23790448D01*
X17471983Y23752645D01*
X17332106Y23679230D01*
X17213863Y23574477D01*
X17124128Y23444472D01*
X17068111Y23296766D01*
X17068110Y23296765D01*
X17049070Y23139950D01*
X17049070Y23139947D01*
X-4750500Y23139947D01*
X-4750500Y31217328D01*
X22355500Y31217328D01*
X22355501Y31217316D01*
X22370033Y31144264D01*
X22370035Y31144258D01*
X22425397Y31061401D01*
X22425399Y31061399D01*
X22508260Y31006034D01*
X22563808Y30994985D01*
X22581315Y30991502D01*
X22581320Y30991502D01*
X22581326Y30991500D01*
X22581327Y30991500D01*
X24154673Y30991500D01*
X24154674Y30991500D01*
X24227740Y31006034D01*
X24310601Y31061399D01*
X24365966Y31144260D01*
X24380500Y31217326D01*
X24380500Y31217328D01*
X24895500Y31217328D01*
X24895501Y31217316D01*
X24910033Y31144264D01*
X24910035Y31144258D01*
X24965397Y31061401D01*
X24965399Y31061399D01*
X25048260Y31006034D01*
X25103808Y30994985D01*
X25121315Y30991502D01*
X25121320Y30991502D01*
X25121326Y30991500D01*
X25121327Y30991500D01*
X26694673Y30991500D01*
X26694674Y30991500D01*
X26767740Y31006034D01*
X26850601Y31061399D01*
X26905966Y31144260D01*
X26920500Y31217326D01*
X26920500Y31217328D01*
X27435500Y31217328D01*
X27435501Y31217316D01*
X27450033Y31144264D01*
X27450035Y31144258D01*
X27505397Y31061401D01*
X27505399Y31061399D01*
X27588260Y31006034D01*
X27643808Y30994985D01*
X27661315Y30991502D01*
X27661320Y30991502D01*
X27661326Y30991500D01*
X27661327Y30991500D01*
X29234673Y30991500D01*
X29234674Y30991500D01*
X29307740Y31006034D01*
X29390601Y31061399D01*
X29445966Y31144260D01*
X29460500Y31217326D01*
X29460500Y32790674D01*
X29445966Y32863740D01*
X29390601Y32946601D01*
X29390599Y32946603D01*
X29307742Y33001965D01*
X29307740Y33001966D01*
X29307737Y33001967D01*
X29307736Y33001967D01*
X29234684Y33016499D01*
X29234674Y33016500D01*
X27661326Y33016500D01*
X27661325Y33016500D01*
X27661315Y33016499D01*
X27588263Y33001967D01*
X27588257Y33001965D01*
X27505400Y32946603D01*
X27505397Y32946600D01*
X27450035Y32863743D01*
X27450033Y32863737D01*
X27435501Y32790685D01*
X27435500Y32790673D01*
X27435500Y31217328D01*
X26920500Y31217328D01*
X26920500Y32790674D01*
X26905966Y32863740D01*
X26850601Y32946601D01*
X26850599Y32946603D01*
X26767742Y33001965D01*
X26767740Y33001966D01*
X26767737Y33001967D01*
X26767736Y33001967D01*
X26694684Y33016499D01*
X26694674Y33016500D01*
X25121326Y33016500D01*
X25121325Y33016500D01*
X25121315Y33016499D01*
X25048263Y33001967D01*
X25048257Y33001965D01*
X24965400Y32946603D01*
X24965397Y32946600D01*
X24910035Y32863743D01*
X24910033Y32863737D01*
X24895501Y32790685D01*
X24895500Y32790673D01*
X24895500Y31217328D01*
X24380500Y31217328D01*
X24380500Y32790674D01*
X24365966Y32863740D01*
X24310601Y32946601D01*
X24310599Y32946603D01*
X24227742Y33001965D01*
X24227740Y33001966D01*
X24227737Y33001967D01*
X24227736Y33001967D01*
X24154684Y33016499D01*
X24154674Y33016500D01*
X22581326Y33016500D01*
X22581325Y33016500D01*
X22581315Y33016499D01*
X22508263Y33001967D01*
X22508257Y33001965D01*
X22425400Y32946603D01*
X22425397Y32946600D01*
X22370035Y32863743D01*
X22370033Y32863737D01*
X22355501Y32790685D01*
X22355500Y32790673D01*
X22355500Y31217328D01*
X-4750500Y31217328D01*
X-4750500Y35131500D01*
X-4731593Y35189691D01*
X-4682093Y35225655D01*
X-4651500Y35230500D01*
X55451500Y35230500D01*
X55509691Y35211593D01*
G37*
%TD.AperFunction*%
%TD*%
M02*
