%TF.GenerationSoftware,KiCad,Pcbnew,6.0.11+dfsg-1~bpo11+1*%
%TF.CreationDate,2023-07-05T11:56:14+00:00*%
%TF.ProjectId,VCAI2C01,56434149-3243-4303-912e-6b696361645f,rev?*%
%TF.SameCoordinates,Original*%
%TF.FileFunction,Copper,L2,Bot*%
%TF.FilePolarity,Positive*%
%FSLAX46Y46*%
G04 Gerber Fmt 4.6, Leading zero omitted, Abs format (unit mm)*
G04 Created by KiCad (PCBNEW 6.0.11+dfsg-1~bpo11+1) date 2023-07-05 11:56:14*
%MOMM*%
%LPD*%
G01*
G04 APERTURE LIST*
%ADD10C,0.300000*%
%TA.AperFunction,NonConductor*%
%ADD11C,0.300000*%
%TD*%
%TA.AperFunction,ComponentPad*%
%ADD12R,1.524000X1.524000*%
%TD*%
%TA.AperFunction,ComponentPad*%
%ADD13C,6.000000*%
%TD*%
%TA.AperFunction,SMDPad,CuDef*%
%ADD14R,0.889000X1.397000*%
%TD*%
%TA.AperFunction,SMDPad,CuDef*%
%ADD15R,1.397000X0.889000*%
%TD*%
%TA.AperFunction,SMDPad,CuDef*%
%ADD16R,1.699260X1.300480*%
%TD*%
%TA.AperFunction,SMDPad,CuDef*%
%ADD17R,1.550000X0.600000*%
%TD*%
%TA.AperFunction,SMDPad,CuDef*%
%ADD18R,1.143000X0.600000*%
%TD*%
%TA.AperFunction,SMDPad,CuDef*%
%ADD19R,1.524000X2.032000*%
%TD*%
%TA.AperFunction,ViaPad*%
%ADD20C,0.800000*%
%TD*%
%TA.AperFunction,Conductor*%
%ADD21C,0.300000*%
%TD*%
%TA.AperFunction,Conductor*%
%ADD22C,0.500000*%
%TD*%
%TA.AperFunction,Conductor*%
%ADD23C,1.300000*%
%TD*%
%TA.AperFunction,Conductor*%
%ADD24C,0.700000*%
%TD*%
%TA.AperFunction,Conductor*%
%ADD25C,0.600000*%
%TD*%
G04 APERTURE END LIST*
D10*
D11*
X50375428Y10191429D02*
X50304000Y10120000D01*
X50232571Y9977143D01*
X50232571Y9620000D01*
X50304000Y9477143D01*
X50375428Y9405715D01*
X50518285Y9334286D01*
X50661142Y9334286D01*
X50875428Y9405715D01*
X51732571Y10262858D01*
X51732571Y9334286D01*
X50232571Y8405715D02*
X50232571Y8262858D01*
X50304000Y8120000D01*
X50375428Y8048572D01*
X50518285Y7977143D01*
X50804000Y7905715D01*
X51161142Y7905715D01*
X51446857Y7977143D01*
X51589714Y8048572D01*
X51661142Y8120000D01*
X51732571Y8262858D01*
X51732571Y8405715D01*
X51661142Y8548572D01*
X51589714Y8620000D01*
X51446857Y8691429D01*
X51161142Y8762858D01*
X50804000Y8762858D01*
X50518285Y8691429D01*
X50375428Y8620000D01*
X50304000Y8548572D01*
X50232571Y8405715D01*
X51732571Y6477143D02*
X51732571Y7334286D01*
X51732571Y6905715D02*
X50232571Y6905715D01*
X50446857Y7048572D01*
X50589714Y7191429D01*
X50661142Y7334286D01*
X50232571Y5191429D02*
X50232571Y5477143D01*
X50304000Y5620000D01*
X50375428Y5691429D01*
X50589714Y5834286D01*
X50875428Y5905715D01*
X51446857Y5905715D01*
X51589714Y5834286D01*
X51661142Y5762858D01*
X51732571Y5620000D01*
X51732571Y5334286D01*
X51661142Y5191429D01*
X51589714Y5120000D01*
X51446857Y5048572D01*
X51089714Y5048572D01*
X50946857Y5120000D01*
X50875428Y5191429D01*
X50804000Y5334286D01*
X50804000Y5620000D01*
X50875428Y5762858D01*
X50946857Y5834286D01*
X51089714Y5905715D01*
D10*
D11*
X54526571Y11941429D02*
X53026571Y11941429D01*
X54098000Y11441429D01*
X53026571Y10941429D01*
X54526571Y10941429D01*
X54526571Y9512858D02*
X54526571Y10227143D01*
X53026571Y10227143D01*
X54098000Y9084286D02*
X54098000Y8370000D01*
X54526571Y9227143D02*
X53026571Y8727143D01*
X54526571Y8227143D01*
X53740857Y7227143D02*
X53812285Y7012858D01*
X53883714Y6941429D01*
X54026571Y6870000D01*
X54240857Y6870000D01*
X54383714Y6941429D01*
X54455142Y7012858D01*
X54526571Y7155715D01*
X54526571Y7727143D01*
X53026571Y7727143D01*
X53026571Y7227143D01*
X53098000Y7084286D01*
X53169428Y7012858D01*
X53312285Y6941429D01*
X53455142Y6941429D01*
X53598000Y7012858D01*
X53669428Y7084286D01*
X53740857Y7227143D01*
X53740857Y7727143D01*
X54383714Y6227143D02*
X54455142Y6155715D01*
X54526571Y6227143D01*
X54455142Y6298572D01*
X54383714Y6227143D01*
X54526571Y6227143D01*
X54383714Y4655715D02*
X54455142Y4727143D01*
X54526571Y4941429D01*
X54526571Y5084286D01*
X54455142Y5298572D01*
X54312285Y5441429D01*
X54169428Y5512858D01*
X53883714Y5584286D01*
X53669428Y5584286D01*
X53383714Y5512858D01*
X53240857Y5441429D01*
X53098000Y5298572D01*
X53026571Y5084286D01*
X53026571Y4941429D01*
X53098000Y4727143D01*
X53169428Y4655715D01*
X53026571Y4155715D02*
X53026571Y3155715D01*
X54526571Y4155715D01*
X54526571Y3155715D01*
D12*
%TO.P,J2,1*%
%TO.N,/IN1-*%
X7112000Y10160000D03*
%TO.P,J2,2*%
%TO.N,Net-(J2-Pad2)*%
X9652000Y10160000D03*
%TD*%
%TO.P,J4,1*%
%TO.N,/IN2-*%
X16256000Y10160000D03*
%TO.P,J4,2*%
%TO.N,Net-(J4-Pad2)*%
X13716000Y10160000D03*
%TD*%
%TO.P,J6,1*%
%TO.N,/IN3-*%
X36068000Y10414000D03*
%TO.P,J6,2*%
%TO.N,Net-(J6-Pad2)*%
X38608000Y10414000D03*
%TD*%
%TO.P,J8,1*%
%TO.N,/IN4-*%
X44704000Y10414000D03*
%TO.P,J8,2*%
%TO.N,Net-(J8-Pad2)*%
X42164000Y10414000D03*
%TD*%
%TO.P,J10,1*%
%TO.N,/A0*%
X38100000Y29464000D03*
%TO.P,J10,2*%
%TO.N,VCC*%
X38100000Y32004000D03*
%TD*%
%TO.P,J11,1*%
%TO.N,/A1*%
X40640000Y29464000D03*
%TO.P,J11,2*%
%TO.N,VCC*%
X40640000Y32004000D03*
%TD*%
%TO.P,J13,1*%
%TO.N,GND*%
X20828000Y29464000D03*
%TO.P,J13,2*%
X20828000Y32004000D03*
%TO.P,J13,3*%
%TO.N,/SDA*%
X23368000Y29464000D03*
%TO.P,J13,4*%
X23368000Y32004000D03*
%TO.P,J13,5*%
%TO.N,VCC*%
X25908000Y29464000D03*
%TO.P,J13,6*%
X25908000Y32004000D03*
%TO.P,J13,7*%
%TO.N,/SCL*%
X28448000Y29464000D03*
%TO.P,J13,8*%
X28448000Y32004000D03*
%TO.P,J13,9*%
%TO.N,GND*%
X30988000Y29464000D03*
%TO.P,J13,10*%
X30988000Y32004000D03*
%TD*%
D13*
%TO.P,M1,1*%
%TO.N,GND*%
X50800000Y30480000D03*
%TD*%
%TO.P,M2,1*%
%TO.N,GND*%
X0Y0D03*
%TD*%
%TO.P,M3,1*%
%TO.N,GND*%
X50800000Y0D03*
%TD*%
%TO.P,M4,1*%
%TO.N,GND*%
X0Y30480000D03*
%TD*%
D12*
%TO.P,J14,1*%
%TO.N,GND*%
X22860000Y1270000D03*
%TO.P,J14,2*%
X22860000Y-1270000D03*
%TD*%
%TO.P,J15,1*%
%TO.N,/IN2-*%
X17780000Y1270000D03*
%TO.P,J15,2*%
X17780000Y-1270000D03*
%TD*%
%TO.P,J16,1*%
%TO.N,/IN2+*%
X20320000Y1270000D03*
%TO.P,J16,2*%
X20320000Y-1270000D03*
%TD*%
%TO.P,J17,1*%
%TO.N,GND*%
X15240000Y1270000D03*
%TO.P,J17,2*%
X15240000Y-1270000D03*
%TD*%
%TO.P,J18,1*%
%TO.N,/IN3-*%
X33528000Y1270000D03*
%TO.P,J18,2*%
X33528000Y-1270000D03*
%TD*%
%TO.P,J19,1*%
%TO.N,/IN3+*%
X30988000Y1270000D03*
%TO.P,J19,2*%
X30988000Y-1270000D03*
%TD*%
%TO.P,J20,1*%
%TO.N,GND*%
X43688000Y1270000D03*
%TO.P,J20,2*%
X43688000Y-1270000D03*
%TD*%
%TO.P,J21,1*%
%TO.N,/IN4-*%
X38608000Y1270000D03*
%TO.P,J21,2*%
X38608000Y-1270000D03*
%TD*%
%TO.P,J22,1*%
%TO.N,/IN4+*%
X41148000Y1270000D03*
%TO.P,J22,2*%
X41148000Y-1270000D03*
%TD*%
%TO.P,J23,1*%
%TO.N,GND*%
X28448000Y1270000D03*
%TO.P,J23,2*%
X28448000Y-1270000D03*
%TD*%
%TO.P,J3,1*%
%TO.N,GND*%
X36068000Y-1270000D03*
%TO.P,J3,2*%
X36068000Y1270000D03*
%TD*%
%TO.P,J5,1*%
%TO.N,GND*%
X7620000Y1270000D03*
%TO.P,J5,2*%
X7620000Y-1270000D03*
%TD*%
%TO.P,J7,1*%
%TO.N,/IN1-*%
X12700000Y1270000D03*
%TO.P,J7,2*%
X12700000Y-1270000D03*
%TD*%
%TO.P,J9,1*%
%TO.N,/IN1+*%
X10160000Y1270000D03*
%TO.P,J9,2*%
X10160000Y-1270000D03*
%TD*%
D14*
%TO.P,C1,1*%
%TO.N,/IN1_2+*%
X2413000Y20574000D03*
%TO.P,C1,2*%
%TO.N,GND*%
X508000Y20574000D03*
%TD*%
D15*
%TO.P,C2,1*%
%TO.N,Net-(C2-Pad1)*%
X19812000Y23368000D03*
%TO.P,C2,2*%
%TO.N,GND*%
X19812000Y21463000D03*
%TD*%
%TO.P,C3,1*%
%TO.N,Net-(C2-Pad1)*%
X19812000Y25146000D03*
%TO.P,C3,2*%
%TO.N,GND*%
X19812000Y27051000D03*
%TD*%
D14*
%TO.P,C4,1*%
%TO.N,/IN2_2+*%
X14033500Y21590000D03*
%TO.P,C4,2*%
%TO.N,GND*%
X15938500Y21590000D03*
%TD*%
D15*
%TO.P,C5,1*%
%TO.N,VCC*%
X8483600Y20358100D03*
%TO.P,C5,2*%
%TO.N,GND*%
X8483600Y18453100D03*
%TD*%
D14*
%TO.P,C6,1*%
%TO.N,/OUT1*%
X6502400Y17780000D03*
%TO.P,C6,2*%
%TO.N,/IN1_2-*%
X4597400Y17780000D03*
%TD*%
%TO.P,C7,1*%
%TO.N,/OUT2*%
X10477500Y17780000D03*
%TO.P,C7,2*%
%TO.N,/IN2_2-*%
X12382500Y17780000D03*
%TD*%
%TO.P,C8,1*%
%TO.N,/IN3_2+*%
X34226500Y17780000D03*
%TO.P,C8,2*%
%TO.N,GND*%
X32321500Y17780000D03*
%TD*%
%TO.P,C9,1*%
%TO.N,/IN4_2+*%
X47053500Y19304000D03*
%TO.P,C9,2*%
%TO.N,GND*%
X48958500Y19304000D03*
%TD*%
%TO.P,C10,1*%
%TO.N,/OUT3*%
X37782500Y17526000D03*
%TO.P,C10,2*%
%TO.N,/IN3_2-*%
X35877500Y17526000D03*
%TD*%
%TO.P,C11,1*%
%TO.N,/OUT4*%
X42989500Y19710400D03*
%TO.P,C11,2*%
%TO.N,/IN4_2-*%
X44894500Y19710400D03*
%TD*%
D16*
%TO.P,D1,1*%
%TO.N,GND*%
X16510000Y32992060D03*
%TO.P,D1,2*%
%TO.N,VCC*%
X16510000Y29491940D03*
%TD*%
%TO.P,D2,1*%
%TO.N,VCC*%
X7264400Y12400280D03*
%TO.P,D2,2*%
%TO.N,/IN1_2-*%
X7264400Y15900400D03*
%TD*%
%TO.P,D3,1*%
%TO.N,VCC*%
X9906000Y12473940D03*
%TO.P,D3,2*%
%TO.N,/IN2_2-*%
X9906000Y15974060D03*
%TD*%
%TO.P,D4,1*%
%TO.N,VCC*%
X-203200Y12321540D03*
%TO.P,D4,2*%
%TO.N,/IN1_2+*%
X-203200Y15821660D03*
%TD*%
%TO.P,D5,1*%
%TO.N,VCC*%
X19151600Y12451080D03*
%TO.P,D5,2*%
%TO.N,/IN2_2+*%
X19151600Y15951200D03*
%TD*%
%TO.P,D6,1*%
%TO.N,VCC*%
X39979600Y12349480D03*
%TO.P,D6,2*%
%TO.N,/IN3_2-*%
X39979600Y15849600D03*
%TD*%
%TO.P,D7,1*%
%TO.N,VCC*%
X42418000Y12423140D03*
%TO.P,D7,2*%
%TO.N,/IN4_2-*%
X42418000Y15923260D03*
%TD*%
%TO.P,D8,1*%
%TO.N,VCC*%
X30734000Y11457940D03*
%TO.P,D8,2*%
%TO.N,/IN3_2+*%
X30734000Y14958060D03*
%TD*%
%TO.P,D9,1*%
%TO.N,VCC*%
X49784000Y12473940D03*
%TO.P,D9,2*%
%TO.N,/IN4_2+*%
X49784000Y15974060D03*
%TD*%
D15*
%TO.P,R3,1*%
%TO.N,/IN1_2-*%
X5130800Y15938500D03*
%TO.P,R3,2*%
%TO.N,/IN1-*%
X5130800Y14033500D03*
%TD*%
%TO.P,R4,1*%
%TO.N,/IN1_2+*%
X2590800Y15938500D03*
%TO.P,R4,2*%
%TO.N,/IN1+*%
X2590800Y14033500D03*
%TD*%
%TO.P,R5,1*%
%TO.N,/IN2_2-*%
X12446000Y15938500D03*
%TO.P,R5,2*%
%TO.N,/IN2-*%
X12446000Y14033500D03*
%TD*%
%TO.P,R6,1*%
%TO.N,/IN2_2+*%
X14986000Y15938500D03*
%TO.P,R6,2*%
%TO.N,/IN2+*%
X14986000Y14033500D03*
%TD*%
D14*
%TO.P,R7,1*%
%TO.N,GND*%
X508000Y18034000D03*
%TO.P,R7,2*%
%TO.N,/IN1_2+*%
X2413000Y18034000D03*
%TD*%
%TO.P,R8,1*%
%TO.N,GND*%
X15938500Y19050000D03*
%TO.P,R8,2*%
%TO.N,/IN2_2+*%
X14033500Y19050000D03*
%TD*%
%TO.P,R9,1*%
%TO.N,/IN1_2-*%
X4597400Y19812000D03*
%TO.P,R9,2*%
%TO.N,/OUT1*%
X6502400Y19812000D03*
%TD*%
%TO.P,R10,1*%
%TO.N,/IN2_2-*%
X12382500Y20066000D03*
%TO.P,R10,2*%
%TO.N,/OUT2*%
X10477500Y20066000D03*
%TD*%
D15*
%TO.P,R13,1*%
%TO.N,/IN3_2-*%
X37846000Y15430500D03*
%TO.P,R13,2*%
%TO.N,/IN3-*%
X37846000Y13525500D03*
%TD*%
%TO.P,R14,1*%
%TO.N,/IN3_2+*%
X35306000Y15430500D03*
%TO.P,R14,2*%
%TO.N,/IN3+*%
X35306000Y13525500D03*
%TD*%
%TO.P,R15,1*%
%TO.N,/IN4_2-*%
X44704000Y15176500D03*
%TO.P,R15,2*%
%TO.N,/IN4-*%
X44704000Y13271500D03*
%TD*%
%TO.P,R16,1*%
%TO.N,/IN4_2+*%
X46990000Y15176500D03*
%TO.P,R16,2*%
%TO.N,/IN4+*%
X46990000Y13271500D03*
%TD*%
D14*
%TO.P,R17,1*%
%TO.N,GND*%
X32321500Y20320000D03*
%TO.P,R17,2*%
%TO.N,/IN3_2+*%
X34226500Y20320000D03*
%TD*%
%TO.P,R18,1*%
%TO.N,GND*%
X48958500Y21590000D03*
%TO.P,R18,2*%
%TO.N,/IN4_2+*%
X47053500Y21590000D03*
%TD*%
%TO.P,R19,1*%
%TO.N,/IN3_2-*%
X35839400Y19761200D03*
%TO.P,R19,2*%
%TO.N,/OUT3*%
X37744400Y19761200D03*
%TD*%
%TO.P,R20,1*%
%TO.N,/IN4_2-*%
X44894500Y17780000D03*
%TO.P,R20,2*%
%TO.N,/OUT4*%
X42989500Y17780000D03*
%TD*%
D15*
%TO.P,R21,1*%
%TO.N,/A1*%
X43434000Y29781500D03*
%TO.P,R21,2*%
%TO.N,GND*%
X43434000Y31686500D03*
%TD*%
%TO.P,R22,1*%
%TO.N,/A0*%
X35458400Y29895800D03*
%TO.P,R22,2*%
%TO.N,GND*%
X35458400Y31800800D03*
%TD*%
D14*
%TO.P,R23,1*%
%TO.N,VCC*%
X24574500Y26924000D03*
%TO.P,R23,2*%
%TO.N,/SDA*%
X22669500Y26924000D03*
%TD*%
%TO.P,R24,1*%
%TO.N,VCC*%
X26225500Y26924000D03*
%TO.P,R24,2*%
%TO.N,/SCL*%
X28130500Y26924000D03*
%TD*%
D17*
%TO.P,U1,1*%
%TO.N,/OUT1*%
X5428000Y22225000D03*
%TO.P,U1,2*%
%TO.N,/IN1_2-*%
X5428000Y23495000D03*
%TO.P,U1,3*%
%TO.N,/IN1_2+*%
X5428000Y24765000D03*
%TO.P,U1,4*%
%TO.N,GND*%
X5428000Y26035000D03*
%TO.P,U1,5*%
%TO.N,/IN2_2+*%
X10828000Y26035000D03*
%TO.P,U1,6*%
%TO.N,/IN2_2-*%
X10828000Y24765000D03*
%TO.P,U1,7*%
%TO.N,/OUT2*%
X10828000Y23495000D03*
%TO.P,U1,8*%
%TO.N,VCC*%
X10828000Y22225000D03*
%TD*%
%TO.P,U2,1*%
%TO.N,/OUT3*%
X37686000Y21717000D03*
%TO.P,U2,2*%
%TO.N,/IN3_2-*%
X37686000Y22987000D03*
%TO.P,U2,3*%
%TO.N,/IN3_2+*%
X37686000Y24257000D03*
%TO.P,U2,4*%
%TO.N,GND*%
X37686000Y25527000D03*
%TO.P,U2,5*%
%TO.N,/IN4_2+*%
X43086000Y25527000D03*
%TO.P,U2,6*%
%TO.N,/IN4_2-*%
X43086000Y24257000D03*
%TO.P,U2,7*%
%TO.N,/OUT4*%
X43086000Y22987000D03*
%TO.P,U2,8*%
%TO.N,VCC*%
X43086000Y21717000D03*
%TD*%
D18*
%TO.P,U3,1*%
%TO.N,/OUT1*%
X22860000Y16764000D03*
%TO.P,U3,2*%
%TO.N,GND*%
X22860000Y18034000D03*
%TO.P,U3,3*%
%TO.N,/OUT2*%
X22860000Y19304000D03*
%TO.P,U3,4*%
%TO.N,GND*%
X22860000Y20574000D03*
%TO.P,U3,5*%
X22860000Y21844000D03*
%TO.P,U3,6*%
%TO.N,Net-(C2-Pad1)*%
X22860000Y23114000D03*
%TO.P,U3,7*%
%TO.N,/SDA*%
X22860000Y24384000D03*
%TO.P,U3,8*%
%TO.N,/SCL*%
X29210000Y24384000D03*
%TO.P,U3,9*%
%TO.N,/A0*%
X29210000Y23114000D03*
%TO.P,U3,10*%
%TO.N,/A1*%
X29210000Y21844000D03*
%TO.P,U3,11*%
%TO.N,/OUT3*%
X29210000Y20574000D03*
%TO.P,U3,12*%
%TO.N,GND*%
X29210000Y19304000D03*
%TO.P,U3,13*%
%TO.N,/OUT4*%
X29210000Y18034000D03*
%TO.P,U3,14*%
%TO.N,GND*%
X29210000Y16764000D03*
%TD*%
D15*
%TO.P,C12,1*%
%TO.N,VCC*%
X40386000Y20002500D03*
%TO.P,C12,2*%
%TO.N,GND*%
X40386000Y18097500D03*
%TD*%
%TO.P,L1,1*%
%TO.N,VCC*%
X17526000Y27813000D03*
%TO.P,L1,2*%
%TO.N,Net-(C2-Pad1)*%
X17526000Y25908000D03*
%TD*%
D19*
%TO.P,R1,1*%
%TO.N,/IN1+*%
X5207000Y6604000D03*
%TO.P,R1,2*%
%TO.N,Net-(J2-Pad2)*%
X8509000Y6604000D03*
%TD*%
%TO.P,R2,1*%
%TO.N,/IN2+*%
X19939000Y6604000D03*
%TO.P,R2,2*%
%TO.N,Net-(J4-Pad2)*%
X16637000Y6604000D03*
%TD*%
%TO.P,R11,1*%
%TO.N,/IN3+*%
X31115000Y6858000D03*
%TO.P,R11,2*%
%TO.N,Net-(J6-Pad2)*%
X34417000Y6858000D03*
%TD*%
%TO.P,R12,1*%
%TO.N,/IN4+*%
X46355000Y6604000D03*
%TO.P,R12,2*%
%TO.N,Net-(J8-Pad2)*%
X43053000Y6604000D03*
%TD*%
D20*
%TO.N,GND*%
X3454400Y26009600D03*
X48006000Y5080000D03*
X14732000Y31242000D03*
X27940000Y9144000D03*
X12446000Y6858000D03*
X-1016000Y18796000D03*
X40386000Y9144000D03*
X46990000Y11176000D03*
X21336000Y18034000D03*
X5588000Y-1778000D03*
X10668000Y28956000D03*
X12446000Y8890000D03*
X8128000Y28194000D03*
X17272000Y18034000D03*
X26924000Y1270000D03*
X39319200Y18948400D03*
X42164000Y14224000D03*
X10922000Y14224000D03*
X8128000Y17272000D03*
X0Y22098000D03*
X13970000Y4064000D03*
X16002000Y26670000D03*
X17780000Y17018000D03*
X33049147Y22068853D03*
X48006000Y7874000D03*
X7112014Y25908000D03*
X25908000Y6350000D03*
X44196000Y28448000D03*
X25908000Y8636000D03*
X45720000Y1270000D03*
X45720000Y3810000D03*
X5588000Y1270000D03*
X39878000Y7620000D03*
X42164000Y26924000D03*
X46736000Y24892000D03*
X48006000Y6604000D03*
X26924000Y0D03*
X34036000Y22098000D03*
X24892000Y-1270000D03*
X23622000Y14732000D03*
X23876000Y15748000D03*
X48006000Y23876000D03*
X33528000Y16256000D03*
X50546000Y19812000D03*
X49530000Y23368000D03*
X21336000Y20828000D03*
X19812000Y10922000D03*
X22352000Y9144000D03*
X30226000Y9398000D03*
X39116000Y17272000D03*
X44704000Y26924000D03*
X9398000Y28956000D03*
X15748000Y17526000D03*
X6604000Y14224000D03*
X3556000Y4572000D03*
X47244000Y10160000D03*
X5588000Y-254000D03*
X24892000Y1270000D03*
X-1778000Y17018000D03*
X23876000Y13716000D03*
X26924000Y20066000D03*
X32766000Y30480000D03*
X40640000Y22606000D03*
X16510000Y17018000D03*
X34036000Y23055706D03*
X14478000Y28194000D03*
X50546000Y22606000D03*
X43180000Y14224000D03*
X-1015998Y17780000D03*
X17272000Y19812000D03*
X26924000Y-1270000D03*
X16510000Y31242000D03*
X30988000Y16764000D03*
X25908000Y3556000D03*
X39116000Y20828000D03*
X30988000Y34036000D03*
X7112000Y24638000D03*
X14224000Y2794000D03*
X25908000Y2032000D03*
X37084000Y3302000D03*
X45212000Y32512000D03*
X6350000Y27432000D03*
X14478000Y29718000D03*
X24892000Y0D03*
X24384000Y9144000D03*
X2540000Y10414000D03*
X47498000Y8890000D03*
X4064000Y27178000D03*
X11938000Y28956000D03*
X50292000Y14478000D03*
X47244000Y17526000D03*
X44450000Y33528000D03*
X32766000Y34036000D03*
X-1778000Y15748000D03*
X45720000Y-1270000D03*
X39878000Y5588000D03*
X-1016000Y20066000D03*
X25908000Y5080000D03*
X50546000Y18288000D03*
X45720000Y0D03*
X39116000Y14478004D03*
X31750000Y19050000D03*
X3302000Y6604000D03*
X5080000Y27432000D03*
X32766000Y32258000D03*
X36576000Y33782000D03*
X33020000Y11430000D03*
X21336000Y21844000D03*
X49276000Y13970000D03*
X37338000Y4318000D03*
X9906000Y14224000D03*
X32004000Y10160000D03*
X7366000Y27432000D03*
X8432800Y19263598D03*
X46990000Y3810000D03*
X42672000Y28194000D03*
X1524002Y22098000D03*
X21844000Y25400000D03*
X43180000Y33528000D03*
X15240000Y27432000D03*
X48006000Y16256000D03*
X18796000Y32512000D03*
X7620000Y14224000D03*
X19304000Y34036000D03*
X36097147Y25116853D03*
X41910000Y8890000D03*
X14986000Y34290000D03*
X51054000Y13716000D03*
X18796000Y30988000D03*
X5334000Y3302000D03*
X14732000Y32766000D03*
X45720000Y25908000D03*
X43434000Y26924000D03*
X11684000Y10414000D03*
X23876000Y17780000D03*
X17018000Y21082000D03*
X-1778000Y14224000D03*
X48260000Y14224000D03*
X45720000Y2540000D03*
X50546000Y21336000D03*
X-1016000Y21336000D03*
X39878000Y14224000D03*
X32512000Y16256000D03*
X25908000Y7620000D03*
X21082000Y9144000D03*
X13462000Y28956000D03*
X20828000Y34036000D03*
%TO.N,VCC*%
X48768000Y11684000D03*
X41148000Y21336002D03*
X18288000Y29210000D03*
X41148000Y12349480D03*
X9652000Y21539200D03*
X29209996Y11430000D03*
X1523990Y12192000D03*
X20828000Y12192000D03*
X8636000Y12192000D03*
%TO.N,/OUT1*%
X18592799Y18186400D03*
X17704348Y23139948D03*
%TO.N,/OUT4*%
X30734000Y18034000D03*
X30987996Y22606000D03*
%TO.N,/A0*%
X27686000Y23368000D03*
%TO.N,/A1*%
X27686000Y21844000D03*
%TD*%
D21*
%TO.N,GND*%
X1524002Y22663685D02*
X1524002Y22098000D01*
X30988000Y16764000D02*
X31496000Y16256000D01*
X37084000Y3302000D02*
X37084000Y4064000D01*
X32575500Y17208500D02*
X33128001Y16655999D01*
X24892000Y-1270000D02*
X24892000Y0D01*
X8527999Y15132189D02*
X9436188Y14224000D01*
X27323999Y19666001D02*
X26924000Y20066000D01*
X31946315Y16256000D02*
X32512000Y16256000D01*
X45720000Y-1270000D02*
X45720000Y0D01*
X44704000Y26924000D02*
X43434000Y26924000D01*
X-1016000Y20066000D02*
X-1016000Y18796000D01*
X48260000Y12446000D02*
X46990000Y11176000D01*
X12446000Y4747998D02*
X12446000Y6858000D01*
X8483600Y17627600D02*
X8128000Y17272000D01*
X3454400Y26009600D02*
X3454400Y26568400D01*
X-1377999Y17417999D02*
X-1015998Y17780000D01*
X3556000Y6350000D02*
X3302000Y6604000D01*
X26924000Y1270000D02*
X26924000Y4064000D01*
X43434000Y31686500D02*
X43434000Y33274000D01*
X47244000Y9144000D02*
X47498000Y8890000D01*
X30988000Y32004000D02*
X30988000Y34036000D01*
X21082000Y9652000D02*
X19812000Y10922000D01*
X26924000Y4064000D02*
X25908000Y5080000D01*
X18796000Y32512000D02*
X18796000Y33528000D01*
X13970000Y4064000D02*
X13129998Y4064000D01*
X16510000Y17018000D02*
X16002000Y17526000D01*
X-254000Y22098000D02*
X0Y22098000D01*
X6558000Y1270000D02*
X5334000Y2494000D01*
X8128000Y17272000D02*
X8527999Y16872001D01*
X20066000Y27051000D02*
X21717000Y25400000D01*
X48006000Y23876000D02*
X49022000Y23876000D01*
X27940000Y9144000D02*
X29972000Y9144000D01*
X5428000Y26035000D02*
X3937000Y26035000D01*
X3556000Y4572000D02*
X3556000Y6350000D01*
X43434000Y33274000D02*
X43180000Y33528000D01*
X32004000Y10414000D02*
X33020000Y11430000D01*
D22*
X37338000Y4318000D02*
X38608000Y4318000D01*
D21*
X50546000Y22606000D02*
X50546000Y21336000D01*
X39116000Y19151600D02*
X39116000Y20828000D01*
X42164000Y26924000D02*
X42164000Y27686000D01*
X15748000Y18034000D02*
X15748000Y17526000D01*
X32258000Y20320000D02*
X32004000Y20066000D01*
X22860000Y18034000D02*
X21336000Y18034000D01*
D22*
X32575500Y20320000D02*
X32575500Y21595206D01*
X39878000Y7620000D02*
X39878000Y8636000D01*
D21*
X48006000Y7874000D02*
X48006000Y6604000D01*
X7620000Y1270000D02*
X6558000Y1270000D01*
X48006000Y4826000D02*
X48006000Y5080000D01*
X39878000Y14281689D02*
X39878000Y14224000D01*
X22860000Y21844000D02*
X21336000Y21844000D01*
X26924000Y0D02*
X26924000Y1270000D01*
X-1016000Y21336000D02*
X-254000Y22098000D01*
X5334000Y2736315D02*
X5334000Y3302000D01*
D22*
X16764000Y30988000D02*
X16510000Y31242000D01*
X3479800Y26035000D02*
X3454400Y26009600D01*
D21*
X3454400Y26009600D02*
X1524002Y24079202D01*
X49784000Y13970000D02*
X50292000Y14478000D01*
X29972000Y9144000D02*
X30226000Y9398000D01*
X-616001Y21735999D02*
X-1016000Y21336000D01*
X5080000Y27432000D02*
X6350000Y27432000D01*
X5428000Y26035000D02*
X6985014Y26035000D01*
X10922000Y14224000D02*
X7620000Y14224000D01*
X25908000Y6350000D02*
X25908000Y7620000D01*
X-1778000Y17018000D02*
X-1377999Y17417999D01*
X7620000Y1270000D02*
X5588000Y1270000D01*
D22*
X8483600Y18453100D02*
X8483600Y19212798D01*
D21*
X48958500Y22923500D02*
X48006000Y23876000D01*
X5334000Y2494000D02*
X5334000Y2736315D01*
X30988000Y16764000D02*
X31242000Y16510000D01*
X11938000Y28956000D02*
X13462000Y28956000D01*
D22*
X39878000Y8636000D02*
X40386000Y9144000D01*
D21*
X18796000Y33528000D02*
X19304000Y34036000D01*
X15240000Y1778000D02*
X14224000Y2794000D01*
X37686000Y25527000D02*
X38227000Y25527000D01*
X23622000Y13970000D02*
X23876000Y13716000D01*
X29210000Y19304000D02*
X31496000Y19304000D01*
X-1778000Y17018000D02*
X-2032000Y17018000D01*
X29210000Y16764000D02*
X30988000Y16764000D01*
X45720000Y3810000D02*
X45720000Y2540000D01*
X16002000Y17526000D02*
X15748000Y17526000D01*
X-1778000Y15748000D02*
X-1778000Y14224000D01*
X49276000Y13970000D02*
X49784000Y13970000D01*
X31496000Y16256000D02*
X31946315Y16256000D01*
X15938500Y20002500D02*
X17018000Y21082000D01*
X20193000Y27051000D02*
X21444001Y25799999D01*
D22*
X14732000Y29972000D02*
X14478000Y29718000D01*
D21*
X23876000Y17780000D02*
X23876000Y15748000D01*
D22*
X8483600Y19212798D02*
X8432800Y19263598D01*
D21*
X19939000Y27051000D02*
X20193000Y27051000D01*
X19812000Y32004000D02*
X18796000Y30988000D01*
X21082000Y9144000D02*
X21082000Y9652000D01*
X19812000Y27051000D02*
X20066000Y27051000D01*
X29210000Y19304000D02*
X27686000Y19304000D01*
X5588000Y-254000D02*
X5588000Y-1778000D01*
X42164000Y27686000D02*
X42672000Y28194000D01*
X28448000Y-1270000D02*
X26924000Y-1270000D01*
X17272000Y19812000D02*
X17272000Y18034000D01*
X27686000Y19304000D02*
X27323999Y19666001D01*
X37084000Y4064000D02*
X37338000Y4318000D01*
D22*
X18796000Y30988000D02*
X16764000Y30988000D01*
X40386000Y18097500D02*
X40170100Y18097500D01*
X14732000Y32766000D02*
X14732000Y34036000D01*
D21*
X35458400Y31800800D02*
X35458400Y32664400D01*
D22*
X14732000Y31242000D02*
X14732000Y29972000D01*
D21*
X39941500Y18097500D02*
X39116000Y17272000D01*
X7366000Y27432000D02*
X8128000Y28194000D01*
X9436188Y14224000D02*
X9906000Y14224000D01*
X42164000Y14224000D02*
X39878000Y14224000D01*
X39319200Y18948400D02*
X39116000Y19151600D01*
D22*
X40170100Y18097500D02*
X39319200Y18948400D01*
D21*
X15938500Y19558000D02*
X15938500Y20002500D01*
X21717000Y25400000D02*
X21844000Y25400000D01*
X35458400Y32664400D02*
X36176001Y33382001D01*
X50546000Y19812000D02*
X50546000Y18288000D01*
X23622000Y14732000D02*
X23622000Y13970000D01*
X47244000Y17018000D02*
X48006000Y16256000D01*
X25908000Y5080000D02*
X25908000Y3556000D01*
X12446000Y6858000D02*
X12446000Y8890000D01*
X31496000Y19304000D02*
X31750000Y19050000D01*
X3937000Y26035000D02*
X3048000Y26924000D01*
X20828000Y32004000D02*
X19812000Y32004000D01*
D22*
X38608000Y4318000D02*
X39878000Y5588000D01*
D21*
X21444001Y25799999D02*
X21844000Y25400000D01*
X15240000Y1270000D02*
X15240000Y1778000D01*
X13129998Y4064000D02*
X12446000Y4747998D01*
X36176001Y33382001D02*
X36576000Y33782000D01*
X47244000Y17526000D02*
X47244000Y17018000D01*
X8483600Y18453100D02*
X8483600Y17627600D01*
X33337500Y20320000D02*
X32258000Y20320000D01*
D22*
X32575500Y21595206D02*
X33049147Y22068853D01*
D21*
X46990000Y3810000D02*
X48006000Y4826000D01*
X14478000Y28194000D02*
X15240000Y27432000D01*
X48260000Y14224000D02*
X48260000Y12446000D01*
X32575500Y18288000D02*
X32575500Y17208500D01*
X49022000Y23876000D02*
X49530000Y23368000D01*
X39116000Y14478004D02*
X39681685Y14478004D01*
D22*
X14732000Y34036000D02*
X14986000Y34290000D01*
D21*
X47244000Y10160000D02*
X47244000Y9144000D01*
X8527999Y16872001D02*
X8527999Y15132189D01*
X3454400Y26568400D02*
X4064000Y27178000D01*
X32004000Y10160000D02*
X32004000Y10414000D01*
X46736000Y24892000D02*
X45720000Y25908000D01*
X43180000Y14224000D02*
X48260000Y14224000D01*
X6985014Y26035000D02*
X7112014Y25908000D01*
X44450000Y33528000D02*
X44450000Y33274000D01*
D22*
X36097147Y25116853D02*
X34036000Y23055706D01*
D21*
X9398000Y28956000D02*
X10668000Y28956000D01*
X32766000Y34036000D02*
X32766000Y32258000D01*
X24384000Y9144000D02*
X22352000Y9144000D01*
D22*
X5428000Y26035000D02*
X3479800Y26035000D01*
D21*
X254000Y22098000D02*
X-254000Y22098000D01*
X48958500Y21590000D02*
X48958500Y22923500D01*
X1524002Y24079202D02*
X1524002Y22663685D01*
X39681685Y14478004D02*
X39878000Y14281689D01*
X33128001Y16655999D02*
X33528000Y16256000D01*
X44450000Y33274000D02*
X45212000Y32512000D01*
X40386000Y18097500D02*
X39941500Y18097500D01*
X-254000Y22098000D02*
X-616001Y21735999D01*
D22*
%TO.N,VCC*%
X41148000Y21336002D02*
X41148000Y20764500D01*
X41148000Y20764500D02*
X40386000Y20002500D01*
X-73660Y12192000D02*
X-203200Y12321540D01*
D23*
X18288000Y29210000D02*
X17526000Y29210000D01*
D22*
X9652000Y21539200D02*
X9652000Y21526500D01*
D23*
X42418000Y12423140D02*
X41221660Y12423140D01*
D22*
X48768000Y11684000D02*
X48994060Y11684000D01*
X7472680Y12192000D02*
X7264400Y12400280D01*
X20828000Y12192000D02*
X19410680Y12192000D01*
D24*
X16510000Y29491940D02*
X16510000Y28829000D01*
D22*
X8917940Y12473940D02*
X8636000Y12192000D01*
D24*
X24574500Y26924000D02*
X26225500Y26924000D01*
X17526000Y29210000D02*
X17526000Y27813000D01*
D25*
X43086000Y21717000D02*
X41528998Y21717000D01*
D22*
X1523990Y12192000D02*
X-73660Y12192000D01*
X9906000Y12473940D02*
X8917940Y12473940D01*
D24*
X25908000Y29464000D02*
X25908000Y27241500D01*
D22*
X19410680Y12192000D02*
X19151600Y12451080D01*
X9652000Y21526500D02*
X8483600Y20358100D01*
X48994060Y11684000D02*
X49784000Y12473940D01*
X30706060Y11430000D02*
X30734000Y11457940D01*
X29209996Y11430000D02*
X30706060Y11430000D01*
X10350500Y22225000D02*
X10828000Y22225000D01*
D23*
X41221660Y12423140D02*
X41148000Y12349480D01*
D24*
X25908000Y32004000D02*
X25908000Y29464000D01*
D22*
X9652000Y21539200D02*
X10142200Y21539200D01*
D24*
X16510000Y28829000D02*
X17526000Y27813000D01*
X25908000Y27241500D02*
X26225500Y26924000D01*
D23*
X17526000Y29210000D02*
X16791940Y29210000D01*
D24*
X18288000Y29210000D02*
X18288000Y28575000D01*
D23*
X39979600Y12349480D02*
X41148000Y12349480D01*
D22*
X8636000Y12192000D02*
X7472680Y12192000D01*
D24*
X18288000Y28575000D02*
X17526000Y27813000D01*
D23*
X16791940Y29210000D02*
X16510000Y29491940D01*
D25*
X41528998Y21717000D02*
X41148000Y21336002D01*
D22*
X10142200Y21539200D02*
X10828000Y22225000D01*
%TO.N,/OUT1*%
X6793004Y22225000D02*
X8382000Y23813996D01*
X22860000Y16764000D02*
X20738672Y16764000D01*
X9431334Y27674010D02*
X13170286Y27674010D01*
X13170286Y27674010D02*
X17304349Y23539947D01*
D25*
X5080000Y21901685D02*
X5080000Y21336000D01*
D22*
X6502400Y19812000D02*
X6502400Y19913600D01*
X19316272Y18186400D02*
X19158484Y18186400D01*
X6502400Y17780000D02*
X6502400Y19812000D01*
D25*
X5403315Y22225000D02*
X5080000Y21901685D01*
D22*
X17304349Y23539947D02*
X17704348Y23139948D01*
X8382000Y23813996D02*
X8382000Y26624676D01*
X6502400Y19913600D02*
X5080000Y21336000D01*
X5428000Y22225000D02*
X6793004Y22225000D01*
X20738672Y16764000D02*
X19316272Y18186400D01*
X8382000Y26624676D02*
X9431334Y27674010D01*
D25*
X5428000Y22225000D02*
X5403315Y22225000D01*
D22*
X19158484Y18186400D02*
X18592799Y18186400D01*
%TO.N,/OUT2*%
X9144000Y26326002D02*
X9741998Y26924000D01*
X10477500Y20320000D02*
X11582499Y21424999D01*
X18613499Y20618499D02*
X19927998Y19304000D01*
X21336000Y19304000D02*
X22860000Y19304000D01*
X12103000Y23495000D02*
X10828000Y23495000D01*
X19927998Y19304000D02*
X21336000Y19304000D01*
X9525000Y23495000D02*
X9144000Y23876000D01*
X10828000Y23495000D02*
X9525000Y23495000D01*
X9144000Y23876000D02*
X9144000Y26326002D01*
X12103003Y23494997D02*
X12103000Y23495000D01*
X12647502Y26924000D02*
X18613499Y20958003D01*
X12103003Y21525002D02*
X12103003Y23494997D01*
X12003001Y21424999D02*
X12103003Y21525002D01*
X10477500Y18288000D02*
X10477500Y20066000D01*
X9741998Y26924000D02*
X12647502Y26924000D01*
X10477500Y20066000D02*
X10477500Y20320000D01*
X18613499Y20958003D02*
X18613499Y20618499D01*
X11582499Y21424999D02*
X12003001Y21424999D01*
%TO.N,/OUT3*%
X38862000Y27066008D02*
X36773508Y27066008D01*
X37686000Y21717000D02*
X38961000Y21717000D01*
X37686000Y21717000D02*
X37375490Y21717000D01*
X36773508Y27066008D02*
X30281500Y20574000D01*
X37795200Y19710400D02*
X37744400Y19761200D01*
X38961000Y21717000D02*
X39624000Y22380000D01*
X39624000Y22380000D02*
X39624000Y26304008D01*
X37744400Y21658600D02*
X37686000Y21717000D01*
X37744400Y19761200D02*
X37744400Y21658600D01*
X37795200Y17729200D02*
X37795200Y19710400D01*
X30281500Y20574000D02*
X29210000Y20574000D01*
X39624000Y26304008D02*
X38862000Y27066008D01*
%TO.N,/OUT4*%
X31387995Y23005999D02*
X30987996Y22606000D01*
X42989500Y17780000D02*
X42989500Y19710400D01*
X30734000Y18034000D02*
X29210000Y18034000D01*
X40374009Y26614673D02*
X39172664Y27816018D01*
X42989500Y19710400D02*
X42989500Y19964400D01*
X42989500Y19964400D02*
X43934000Y20908900D01*
X44704000Y22644000D02*
X44361000Y22987000D01*
X39172664Y27816018D02*
X36198014Y27816018D01*
X43934000Y20908900D02*
X44252902Y20908900D01*
X44252902Y20908900D02*
X44704000Y21359998D01*
X44361000Y22987000D02*
X43086000Y22987000D01*
X43086000Y22987000D02*
X41811000Y22987000D01*
X41811000Y22987000D02*
X40374010Y24423990D01*
X40374010Y24423990D02*
X40374009Y26614673D01*
X36198014Y27816018D02*
X31387995Y23005999D01*
X44704000Y21359998D02*
X44704000Y22644000D01*
%TO.N,Net-(J2-Pad2)*%
X9652000Y10160000D02*
X9652000Y7747000D01*
X9652000Y7747000D02*
X8509000Y6604000D01*
%TO.N,Net-(J4-Pad2)*%
X16637000Y7239000D02*
X13716000Y10160000D01*
X16637000Y6604000D02*
X16637000Y7239000D01*
X13664000Y10108000D02*
X13716000Y10160000D01*
%TO.N,Net-(J6-Pad2)*%
X38608000Y9152000D02*
X36314000Y6858000D01*
X38608000Y10414000D02*
X38608000Y9152000D01*
X36314000Y6858000D02*
X35679000Y6858000D01*
X35679000Y6858000D02*
X34417000Y6858000D01*
%TO.N,Net-(J8-Pad2)*%
X43053000Y9525000D02*
X42164000Y10414000D01*
X43053000Y6604000D02*
X43053000Y9525000D01*
%TO.N,/SDA*%
X23368000Y29464000D02*
X23368000Y27622500D01*
X23368000Y32004000D02*
X23368000Y29464000D01*
X22860000Y26733500D02*
X22669500Y26924000D01*
X23368000Y27622500D02*
X22669500Y26924000D01*
X22860000Y24384000D02*
X22860000Y26733500D01*
%TO.N,/SCL*%
X28448000Y27241500D02*
X28130500Y26924000D01*
X28130500Y26924000D02*
X28130500Y25463500D01*
X28448000Y29464000D02*
X28448000Y27241500D01*
X28130500Y25463500D02*
X29210000Y24384000D01*
X28448000Y32004000D02*
X28448000Y29464000D01*
%TO.N,/A0*%
X27940000Y23114000D02*
X27686000Y23368000D01*
X37668200Y29895800D02*
X38100000Y29464000D01*
X35458400Y29895800D02*
X37668200Y29895800D01*
X29210000Y23114000D02*
X27940000Y23114000D01*
D25*
%TO.N,/A1*%
X43434000Y29781500D02*
X40957500Y29781500D01*
D22*
X29210000Y21844000D02*
X27686000Y21844000D01*
D25*
X40957500Y29781500D02*
X40640000Y29464000D01*
D22*
%TO.N,/IN1-*%
X5130800Y10879200D02*
X5130800Y13089000D01*
X6604000Y4822356D02*
X6604000Y9398000D01*
X10229366Y3593990D02*
X7832366Y3593990D01*
D25*
X12700000Y1270000D02*
X12700000Y1697998D01*
D22*
X10414000Y3556000D02*
X10267356Y3556000D01*
X7832366Y3593990D02*
X6604000Y4822356D01*
X7112000Y10160000D02*
X5850000Y10160000D01*
X10267356Y3556000D02*
X10229366Y3593990D01*
X6604000Y9398000D02*
X7112000Y9906000D01*
D21*
X7112000Y10414000D02*
X6471000Y10414000D01*
D22*
X7112000Y9906000D02*
X7112000Y10160000D01*
X5850000Y10160000D02*
X5130800Y10879200D01*
X5130800Y13089000D02*
X5130800Y14033500D01*
D25*
X12700000Y-1270000D02*
X12700000Y1270000D01*
D22*
X12700000Y1270000D02*
X10414000Y3556000D01*
%TO.N,/IN1+*%
X2844800Y14033500D02*
X2590800Y14033500D01*
X10160000Y1270000D02*
X10160000Y2532000D01*
X7501000Y2794000D02*
X5207000Y5088000D01*
X5028000Y6350000D02*
X5028000Y7003340D01*
D25*
X10160000Y-1270000D02*
X10160000Y1270000D01*
D22*
X9898000Y2794000D02*
X7501000Y2794000D01*
X5207000Y6604000D02*
X5207000Y5088000D01*
X4318000Y10560644D02*
X4318000Y12560300D01*
X4318000Y12560300D02*
X2844800Y14033500D01*
X10160000Y2532000D02*
X9898000Y2794000D01*
X5207000Y6985000D02*
X5804010Y7582010D01*
X5804010Y9074634D02*
X4318000Y10560644D01*
X5207000Y6604000D02*
X5207000Y6985000D01*
X5804010Y7582010D02*
X5804010Y9074634D01*
%TO.N,/IN2+*%
X17822706Y9144000D02*
X17822706Y11450794D01*
X15240000Y14033500D02*
X14986000Y14033500D01*
X19939000Y6604000D02*
X19939000Y7027706D01*
D25*
X20320000Y-1270000D02*
X20320000Y1270000D01*
D21*
X19864000Y6350000D02*
X19425000Y6350000D01*
D22*
X19864000Y1726000D02*
X20320000Y1270000D01*
X19939000Y7027706D02*
X17822706Y9144000D01*
X19939000Y1651000D02*
X20320000Y1270000D01*
X19939000Y6604000D02*
X19939000Y1651000D01*
X17822706Y11450794D02*
X15240000Y14033500D01*
%TO.N,/IN3+*%
X35306000Y13525500D02*
X35306000Y12383998D01*
X31750001Y8056501D02*
X31750001Y7493001D01*
D25*
X35052000Y13525500D02*
X35306000Y13525500D01*
X30988000Y-1270000D02*
X30988000Y1270000D01*
D22*
X34107500Y11185498D02*
X34107500Y10414000D01*
X30988000Y1524000D02*
X30988000Y1270000D01*
X34107500Y10414000D02*
X31750001Y8056501D01*
X31750000Y5842000D02*
X31750000Y2286000D01*
X31444000Y1726000D02*
X30988000Y1270000D01*
X31750001Y7493001D02*
X31115000Y6858000D01*
X31115000Y6477000D02*
X31750000Y5842000D01*
X35306000Y12383998D02*
X34107500Y11185498D01*
X31750000Y2286000D02*
X30988000Y1524000D01*
X31115000Y6858000D02*
X31115000Y6477000D01*
%TO.N,/IN4+*%
X46089999Y8385001D02*
X46089999Y12371499D01*
X46355000Y8120000D02*
X46089999Y8385001D01*
X46736000Y13271500D02*
X46545500Y13271500D01*
X46355000Y6604000D02*
X46355000Y8120000D01*
X41148000Y1270000D02*
X41444708Y1270000D01*
X41444708Y1270000D02*
X46355000Y6180292D01*
X46355000Y6180292D02*
X46355000Y6604000D01*
X46089999Y12371499D02*
X46990000Y13271500D01*
X41148000Y1270000D02*
X41148000Y-1270000D01*
%TO.N,/IN2-*%
X18776999Y5087999D02*
X18676999Y5187999D01*
X18878010Y5087999D02*
X18776999Y5087999D01*
X16844650Y8309350D02*
X16256000Y8898000D01*
X18676999Y5187999D02*
X18676999Y7158351D01*
X16256000Y11684000D02*
X14986000Y12954000D01*
X16256000Y10160000D02*
X16256000Y11684000D01*
X12700000Y14033500D02*
X12446000Y14033500D01*
X17780000Y1270000D02*
X18878010Y2368010D01*
X14986000Y12954000D02*
X13779500Y12954000D01*
X13779500Y12954000D02*
X12700000Y14033500D01*
D25*
X17780000Y-1270000D02*
X17780000Y1270000D01*
D22*
X17526000Y8309350D02*
X16844650Y8309350D01*
X18676999Y7158351D02*
X17526000Y8309350D01*
X16256000Y8898000D02*
X16256000Y10160000D01*
X18878010Y2368010D02*
X18878010Y5087999D01*
%TO.N,/IN3-*%
X35238856Y10414000D02*
X32549990Y7725134D01*
X36068000Y10414000D02*
X36068000Y11747500D01*
X32549990Y3510010D02*
X33528000Y2532000D01*
X33528000Y2532000D02*
X33528000Y1270000D01*
D25*
X33528000Y-1270000D02*
X33528000Y1270000D01*
D22*
X36068000Y11747500D02*
X37846000Y13525500D01*
X36068000Y10414000D02*
X35238856Y10414000D01*
X32549990Y7725134D02*
X32549990Y3510010D01*
%TO.N,/IN4-*%
X45092999Y8020001D02*
X45092999Y6049649D01*
X42091350Y3048000D02*
X39124000Y3048000D01*
X44704000Y13271500D02*
X44704000Y10414000D01*
X39124000Y3048000D02*
X38608000Y2532000D01*
X45092999Y6049649D02*
X42091350Y3048000D01*
X38608014Y1270000D02*
X38608000Y1270000D01*
X38608000Y2532000D02*
X38608000Y1270000D01*
X45212000Y9652000D02*
X45212000Y8120001D01*
X44704000Y10160000D02*
X45212000Y9652000D01*
X44704000Y10414000D02*
X45091000Y10414000D01*
X38608000Y1270000D02*
X38608000Y-1270000D01*
X45192999Y8120001D02*
X45092999Y8020001D01*
X44704000Y10414000D02*
X44704000Y10160000D01*
X45212000Y8120001D02*
X45192999Y8120001D01*
%TO.N,/IN1_2+*%
X3937000Y24765000D02*
X2876010Y23704010D01*
X-203200Y15821660D02*
X2473960Y15821660D01*
X2473960Y15821660D02*
X2590800Y15938500D01*
X2876010Y21037010D02*
X2413000Y20574000D01*
X2590800Y15938500D02*
X2590800Y17856200D01*
D25*
X2682301Y16030001D02*
X2590800Y15938500D01*
D22*
X2590800Y17856200D02*
X2413000Y18034000D01*
X2413000Y18034000D02*
X2413000Y20574000D01*
X5428000Y24765000D02*
X3937000Y24765000D01*
X2794000Y16141700D02*
X2590800Y15938500D01*
X2876010Y23704010D02*
X2876010Y21037010D01*
%TO.N,/IN2_2+*%
X14033500Y17835500D02*
X14986000Y16883000D01*
X14986000Y16883000D02*
X14986000Y15938500D01*
X12103000Y26035000D02*
X10828000Y26035000D01*
X19138900Y15938500D02*
X19151600Y15951200D01*
X14033500Y19558000D02*
X14033500Y17835500D01*
X14033500Y19558000D02*
X14033500Y21590000D01*
X14033500Y24124954D02*
X12123454Y26035000D01*
X14033500Y21590000D02*
X14033500Y24124954D01*
X10828000Y26035000D02*
X11303000Y26035000D01*
X14986000Y15938500D02*
X19138900Y15938500D01*
X12123454Y26035000D02*
X12103000Y26035000D01*
%TO.N,/IN1_2-*%
X4597400Y17780000D02*
X4597400Y16471900D01*
X4153000Y23495000D02*
X3676000Y23018000D01*
X4597400Y16471900D02*
X5130800Y15938500D01*
X4876800Y15938500D02*
X5130800Y15938500D01*
X3676000Y23018000D02*
X3676000Y20987400D01*
X4572000Y19812000D02*
X4597400Y19812000D01*
X4597400Y20066000D02*
X4597400Y19812000D01*
X5130800Y15938500D02*
X7226300Y15938500D01*
X3676000Y20987400D02*
X4597400Y20066000D01*
X4597400Y19812000D02*
X4597400Y17780000D01*
X5428000Y23495000D02*
X4153000Y23495000D01*
D25*
X5321300Y15748000D02*
X5130800Y15938500D01*
D22*
X7226300Y15938500D02*
X7264400Y15900400D01*
%TO.N,/IN2_2-*%
X13208000Y23672800D02*
X13208000Y22747198D01*
X12446000Y15938500D02*
X12446000Y18224500D01*
X12954000Y20828000D02*
X12954000Y21590000D01*
X10828000Y24765000D02*
X12115800Y24765000D01*
X12954000Y22493198D02*
X12954000Y21590000D01*
X12954000Y21590000D02*
X12954000Y21336000D01*
X12382500Y20066000D02*
X12382500Y20256500D01*
X12700000Y15938500D02*
X12446000Y15938500D01*
X13208000Y22747198D02*
X12954000Y22493198D01*
X10828000Y24765000D02*
X11505826Y24765000D01*
X12410440Y15974060D02*
X12446000Y15938500D01*
X12446000Y18224500D02*
X12382500Y18288000D01*
X10828000Y24765000D02*
X11303000Y24765000D01*
X12382500Y18288000D02*
X12382500Y20066000D01*
X12382500Y20256500D02*
X12954000Y20828000D01*
X12115800Y24765000D02*
X13208000Y23672800D01*
X9906000Y15974060D02*
X12410440Y15974060D01*
%TO.N,/IN3_2+*%
X34833560Y14958060D02*
X35306000Y15430500D01*
X30734000Y14958060D02*
X34833560Y14958060D01*
X34226500Y20510500D02*
X34226500Y20320000D01*
D25*
X35052000Y15430500D02*
X35306000Y15430500D01*
D22*
X34682001Y17324499D02*
X34682001Y16054499D01*
X35306000Y15430500D02*
X34932999Y15803501D01*
X34226500Y17780000D02*
X34682001Y17324499D01*
X34682001Y16054499D02*
X35306000Y15430500D01*
X36411000Y24257000D02*
X34936001Y22782001D01*
X34226500Y20320000D02*
X34226500Y17780000D01*
X34936001Y22782001D02*
X34936001Y21220001D01*
D21*
X34480500Y18288000D02*
X34480500Y17735340D01*
D25*
X35306000Y15430500D02*
X35198502Y15430500D01*
D22*
X34936001Y21220001D02*
X34226500Y20510500D01*
X37686000Y24257000D02*
X36411000Y24257000D01*
%TO.N,/IN4_2+*%
X46990000Y15240000D02*
X46990000Y15176500D01*
X47053500Y19050000D02*
X45839001Y17835501D01*
X47053500Y22834500D02*
X44361000Y25527000D01*
X47053500Y19304000D02*
X47053500Y19050000D01*
X45839001Y16390999D02*
X46990000Y15240000D01*
X46545500Y15176500D02*
X46736000Y15176500D01*
X47053500Y21590000D02*
X47053500Y22834500D01*
X47053500Y19304000D02*
X47053500Y21590000D01*
X48783240Y15176500D02*
X49580800Y15974060D01*
X44361000Y25527000D02*
X43086000Y25527000D01*
X46736000Y15176500D02*
X48783240Y15176500D01*
X45839001Y17835501D02*
X45839001Y16390999D01*
X46545500Y15378002D02*
X46545500Y15176500D01*
%TO.N,/IN3_2-*%
X35877500Y17399000D02*
X37846000Y15430500D01*
X35839400Y22415400D02*
X36411000Y22987000D01*
X35890200Y17729200D02*
X35890200Y17386300D01*
X36411000Y22987000D02*
X37686000Y22987000D01*
X35890200Y17386300D02*
X37846000Y15430500D01*
X35839400Y19761200D02*
X35839400Y22415400D01*
X37846000Y15430500D02*
X39560500Y15430500D01*
X37592000Y15430500D02*
X37846000Y15430500D01*
X35877500Y17526000D02*
X35877500Y17399000D01*
X35890200Y19710400D02*
X35839400Y19761200D01*
X35890200Y17729200D02*
X35890200Y19710400D01*
X39560500Y15430500D02*
X39979600Y15849600D01*
D25*
X36915811Y22987000D02*
X37686000Y22987000D01*
D22*
%TO.N,/IN4_2-*%
X42418000Y15923260D02*
X41898010Y16443250D01*
X44894500Y19710400D02*
X44894500Y19964400D01*
X44704000Y15176500D02*
X44704000Y17589500D01*
X44894500Y19710400D02*
X44894500Y17780000D01*
X43164760Y15176500D02*
X42418000Y15923260D01*
X45454009Y20523909D02*
X45454009Y23163991D01*
X44704000Y15176500D02*
X43164760Y15176500D01*
D25*
X44640500Y15240000D02*
X44704000Y15176500D01*
D22*
X44361000Y24257000D02*
X43086000Y24257000D01*
X45454009Y23163991D02*
X44361000Y24257000D01*
X44704000Y17589500D02*
X44894500Y17780000D01*
X44894500Y19964400D02*
X45454009Y20523909D01*
%TO.N,Net-(C2-Pad1)*%
X22860000Y23114000D02*
X20066000Y23114000D01*
X20066000Y23114000D02*
X19812000Y23368000D01*
D24*
X19812000Y23368000D02*
X19812000Y25146000D01*
X18288000Y25146000D02*
X17526000Y25908000D01*
X19812000Y25146000D02*
X18288000Y25146000D01*
%TD*%
%TA.AperFunction,Conductor*%
%TO.N,GND*%
G36*
X55334691Y35036593D02*
G01*
X55370655Y34987093D01*
X55375500Y34956500D01*
X55375500Y12798072D01*
X55356593Y12739881D01*
X55307093Y12703917D01*
X55276500Y12699072D01*
X52165000Y12699072D01*
X52165000Y10976643D01*
X52146093Y10918452D01*
X52096593Y10882488D01*
X52066000Y10877643D01*
X49371000Y10877643D01*
X49371000Y4362357D01*
X52066000Y4362357D01*
X52124191Y4343450D01*
X52160155Y4293950D01*
X52165000Y4263357D01*
X52165000Y2540929D01*
X55276500Y2540929D01*
X55334691Y2522022D01*
X55370655Y2472522D01*
X55375500Y2441929D01*
X55375500Y-4476500D01*
X55356593Y-4534691D01*
X55307093Y-4570655D01*
X55276500Y-4575500D01*
X-4476500Y-4575500D01*
X-4534691Y-4556593D01*
X-4570655Y-4507093D01*
X-4575500Y-4476500D01*
X-4575500Y11646626D01*
X-1303330Y11646626D01*
X-1288796Y11573560D01*
X-1273281Y11550340D01*
X-1240882Y11501851D01*
X-1233431Y11490699D01*
X-1225321Y11485280D01*
X-1193785Y11464209D01*
X-1150570Y11435334D01*
X-1077504Y11420800D01*
X671104Y11420800D01*
X744170Y11435334D01*
X787385Y11464209D01*
X818921Y11485280D01*
X827031Y11490699D01*
X834483Y11501851D01*
X866881Y11550340D01*
X882396Y11573560D01*
X890005Y11611813D01*
X919901Y11665198D01*
X975466Y11690814D01*
X987103Y11691500D01*
X1069135Y11691500D01*
X1127326Y11672593D01*
X1135763Y11665724D01*
X1137291Y11664334D01*
X1144400Y11657865D01*
X1149644Y11655018D01*
X1149645Y11655017D01*
X1277520Y11585586D01*
X1277522Y11585585D01*
X1282766Y11582738D01*
X1358110Y11562972D01*
X1429290Y11544298D01*
X1429294Y11544298D01*
X1435059Y11542785D01*
X1441020Y11542691D01*
X1441023Y11542691D01*
X1513772Y11541549D01*
X1592485Y11540312D01*
X1606051Y11543419D01*
X1740139Y11574129D01*
X1740141Y11574130D01*
X1745958Y11575462D01*
X1752798Y11578902D01*
X1881289Y11643526D01*
X1881291Y11643527D01*
X1886615Y11646205D01*
X1904947Y11661862D01*
X2001800Y11744582D01*
X2001801Y11744583D01*
X2006338Y11748458D01*
X2083672Y11856080D01*
X2094730Y11871468D01*
X2094731Y11871470D01*
X2098214Y11876317D01*
X2124630Y11942027D01*
X2154716Y12016869D01*
X2154717Y12016871D01*
X2156940Y12022402D01*
X2159695Y12041755D01*
X2178668Y12175071D01*
X2178668Y12175075D01*
X2179124Y12178277D01*
X2179268Y12192000D01*
X2163962Y12318481D01*
X2161070Y12342384D01*
X2161069Y12342387D01*
X2160353Y12348306D01*
X2120382Y12454088D01*
X2106810Y12490004D01*
X2104700Y12495588D01*
X2015521Y12625343D01*
X2011068Y12629310D01*
X2011065Y12629314D01*
X1937396Y12694950D01*
X1897966Y12730081D01*
X1885454Y12736706D01*
X1764095Y12800963D01*
X1764092Y12800964D01*
X1758821Y12803755D01*
X1682469Y12822933D01*
X1611908Y12840657D01*
X1611905Y12840657D01*
X1606118Y12842111D01*
X1526554Y12842527D01*
X1454640Y12842904D01*
X1454638Y12842904D01*
X1448674Y12842935D01*
X1295578Y12806180D01*
X1225624Y12770074D01*
X1160973Y12736706D01*
X1160970Y12736704D01*
X1155669Y12733968D01*
X1151172Y12730045D01*
X1136102Y12716898D01*
X1079823Y12692892D01*
X1071021Y12692500D01*
X995930Y12692500D01*
X937739Y12711407D01*
X901775Y12760907D01*
X896930Y12791500D01*
X896930Y12996454D01*
X882396Y13069520D01*
X844662Y13125994D01*
X832450Y13144271D01*
X827031Y13152381D01*
X813297Y13161558D01*
X780204Y13183669D01*
X744170Y13207746D01*
X671104Y13222280D01*
X-1077504Y13222280D01*
X-1150570Y13207746D01*
X-1186604Y13183669D01*
X-1219696Y13161558D01*
X-1233431Y13152381D01*
X-1238850Y13144271D01*
X-1251062Y13125994D01*
X-1288796Y13069520D01*
X-1303330Y12996454D01*
X-1303330Y11646626D01*
X-4575500Y11646626D01*
X-4575500Y13564326D01*
X1641800Y13564326D01*
X1656334Y13491260D01*
X1711699Y13408399D01*
X1794560Y13353034D01*
X1867626Y13338500D01*
X2790978Y13338500D01*
X2849169Y13319593D01*
X2860982Y13309504D01*
X3788504Y12381982D01*
X3816281Y12327465D01*
X3817500Y12311978D01*
X3817500Y10627810D01*
X3816081Y10615109D01*
X3816103Y10615107D01*
X3815537Y10608075D01*
X3813981Y10601197D01*
X3814418Y10594159D01*
X3817310Y10547542D01*
X3817500Y10541411D01*
X3817500Y10524704D01*
X3817999Y10521217D01*
X3818000Y10521209D01*
X3819101Y10513523D01*
X3819911Y10505620D01*
X3822859Y10458106D01*
X3825252Y10451477D01*
X3825253Y10451473D01*
X3826342Y10448457D01*
X3831223Y10428881D01*
X3832677Y10418726D01*
X3835596Y10412307D01*
X3835597Y10412302D01*
X3852381Y10375387D01*
X3855377Y10368029D01*
X3871540Y10323257D01*
X3877592Y10314972D01*
X3887768Y10297558D01*
X3892016Y10288216D01*
X3896621Y10282872D01*
X3923093Y10252149D01*
X3928033Y10245928D01*
X3936522Y10234308D01*
X3947986Y10222844D01*
X3952981Y10217463D01*
X3985600Y10179607D01*
X3991520Y10175770D01*
X3992811Y10174933D01*
X4008968Y10161862D01*
X5274514Y8896316D01*
X5302291Y8841799D01*
X5303510Y8826312D01*
X5303510Y7969500D01*
X5284603Y7911309D01*
X5235103Y7875345D01*
X5204510Y7870500D01*
X4420326Y7870500D01*
X4347260Y7855966D01*
X4264399Y7800601D01*
X4258980Y7792491D01*
X4246864Y7774358D01*
X4209034Y7717740D01*
X4194500Y7644674D01*
X4194500Y5563326D01*
X4209034Y5490260D01*
X4264399Y5407399D01*
X4347260Y5352034D01*
X4420326Y5337500D01*
X4607500Y5337500D01*
X4665691Y5318593D01*
X4701655Y5269093D01*
X4706500Y5238500D01*
X4706500Y5155166D01*
X4705081Y5142465D01*
X4705103Y5142463D01*
X4704537Y5135431D01*
X4702981Y5128553D01*
X4703418Y5121515D01*
X4706310Y5074898D01*
X4706500Y5068767D01*
X4706500Y5052060D01*
X4706999Y5048573D01*
X4707000Y5048565D01*
X4708101Y5040879D01*
X4708911Y5032976D01*
X4711859Y4985462D01*
X4714252Y4978833D01*
X4714253Y4978829D01*
X4715342Y4975813D01*
X4720223Y4956237D01*
X4721677Y4946082D01*
X4724596Y4939663D01*
X4724597Y4939658D01*
X4741381Y4902743D01*
X4744377Y4895385D01*
X4760540Y4850613D01*
X4766592Y4842328D01*
X4776768Y4824914D01*
X4781016Y4815572D01*
X4785621Y4810228D01*
X4812093Y4779505D01*
X4817033Y4773284D01*
X4825522Y4761664D01*
X4836986Y4750200D01*
X4841981Y4744819D01*
X4874600Y4706963D01*
X4880520Y4703126D01*
X4881811Y4702289D01*
X4897968Y4689218D01*
X7099601Y2487586D01*
X7107577Y2477603D01*
X7107594Y2477617D01*
X7112168Y2472243D01*
X7115930Y2466280D01*
X7121214Y2461613D01*
X7121216Y2461611D01*
X7156217Y2430700D01*
X7160687Y2426500D01*
X7172507Y2414680D01*
X7175322Y2412571D01*
X7175327Y2412566D01*
X7181540Y2407910D01*
X7187703Y2402893D01*
X7223388Y2371377D01*
X7232671Y2367019D01*
X7249967Y2356627D01*
X7258176Y2350474D01*
X7293362Y2337283D01*
X7302746Y2333765D01*
X7310066Y2330680D01*
X7346774Y2313446D01*
X7346778Y2313445D01*
X7353163Y2310447D01*
X7360131Y2309362D01*
X7360135Y2309361D01*
X7363292Y2308870D01*
X7382820Y2303747D01*
X7385820Y2302622D01*
X7385822Y2302622D01*
X7392420Y2300148D01*
X7439908Y2296619D01*
X7447793Y2295713D01*
X7458228Y2294088D01*
X7458236Y2294087D01*
X7462009Y2293500D01*
X7478209Y2293500D01*
X7485546Y2293228D01*
X7535392Y2289524D01*
X7542287Y2290996D01*
X7542289Y2290996D01*
X7543801Y2291319D01*
X7564468Y2293500D01*
X9086239Y2293500D01*
X9144430Y2274593D01*
X9180394Y2225093D01*
X9180394Y2163907D01*
X9168556Y2139501D01*
X9162034Y2129740D01*
X9147500Y2056674D01*
X9147500Y483326D01*
X9162034Y410260D01*
X9217399Y327399D01*
X9300260Y272034D01*
X9373326Y257500D01*
X9510500Y257500D01*
X9568691Y238593D01*
X9604655Y189093D01*
X9609500Y158500D01*
X9609500Y-158500D01*
X9590593Y-216691D01*
X9541093Y-252655D01*
X9510500Y-257500D01*
X9373326Y-257500D01*
X9300260Y-272034D01*
X9217399Y-327399D01*
X9162034Y-410260D01*
X9147500Y-483326D01*
X9147500Y-2056674D01*
X9162034Y-2129740D01*
X9217399Y-2212601D01*
X9300260Y-2267966D01*
X9373326Y-2282500D01*
X10946674Y-2282500D01*
X11019740Y-2267966D01*
X11102601Y-2212601D01*
X11157966Y-2129740D01*
X11172500Y-2056674D01*
X11172500Y-483326D01*
X11157966Y-410260D01*
X11102601Y-327399D01*
X11019740Y-272034D01*
X10946674Y-257500D01*
X10809500Y-257500D01*
X10751309Y-238593D01*
X10715345Y-189093D01*
X10710500Y-158500D01*
X10710500Y158500D01*
X10729407Y216691D01*
X10778907Y252655D01*
X10809500Y257500D01*
X10946674Y257500D01*
X11019740Y272034D01*
X11102601Y327399D01*
X11157966Y410260D01*
X11172500Y483326D01*
X11172500Y1850678D01*
X11191407Y1908869D01*
X11240907Y1944833D01*
X11302093Y1944833D01*
X11341504Y1920682D01*
X11658504Y1603682D01*
X11686281Y1549165D01*
X11687500Y1533678D01*
X11687500Y483326D01*
X11702034Y410260D01*
X11757399Y327399D01*
X11840260Y272034D01*
X11913326Y257500D01*
X12050500Y257500D01*
X12108691Y238593D01*
X12144655Y189093D01*
X12149500Y158500D01*
X12149500Y-158500D01*
X12130593Y-216691D01*
X12081093Y-252655D01*
X12050500Y-257500D01*
X11913326Y-257500D01*
X11840260Y-272034D01*
X11757399Y-327399D01*
X11702034Y-410260D01*
X11687500Y-483326D01*
X11687500Y-2056674D01*
X11702034Y-2129740D01*
X11757399Y-2212601D01*
X11840260Y-2267966D01*
X11913326Y-2282500D01*
X13486674Y-2282500D01*
X13559740Y-2267966D01*
X13642601Y-2212601D01*
X13697966Y-2129740D01*
X13712500Y-2056674D01*
X13712500Y-483326D01*
X13697966Y-410260D01*
X13642601Y-327399D01*
X13559740Y-272034D01*
X13486674Y-257500D01*
X13349500Y-257500D01*
X13291309Y-238593D01*
X13255345Y-189093D01*
X13250500Y-158500D01*
X13250500Y158500D01*
X13269407Y216691D01*
X13318907Y252655D01*
X13349500Y257500D01*
X13486674Y257500D01*
X13559740Y272034D01*
X13642601Y327399D01*
X13697966Y410260D01*
X13712500Y483326D01*
X13712500Y2056674D01*
X13697966Y2129740D01*
X13642601Y2212601D01*
X13559740Y2267966D01*
X13486674Y2282500D01*
X12436322Y2282500D01*
X12378131Y2301407D01*
X12366318Y2311496D01*
X10815395Y3862419D01*
X10807421Y3872399D01*
X10807404Y3872384D01*
X10802834Y3877754D01*
X10799070Y3883720D01*
X10793785Y3888388D01*
X10793782Y3888391D01*
X10758792Y3919292D01*
X10754322Y3923492D01*
X10742494Y3935320D01*
X10733447Y3942100D01*
X10727301Y3947104D01*
X10691612Y3978623D01*
X10682329Y3982982D01*
X10665034Y3993373D01*
X10656824Y3999526D01*
X10635047Y4007690D01*
X10612254Y4016235D01*
X10604934Y4019320D01*
X10568226Y4036554D01*
X10568222Y4036555D01*
X10561837Y4039553D01*
X10554869Y4040638D01*
X10554865Y4040639D01*
X10551708Y4041130D01*
X10532180Y4046253D01*
X10529180Y4047378D01*
X10529178Y4047378D01*
X10522580Y4049852D01*
X10475092Y4053381D01*
X10467207Y4054287D01*
X10456772Y4055912D01*
X10456764Y4055913D01*
X10452991Y4056500D01*
X10444106Y4056500D01*
X10402031Y4065886D01*
X10377203Y4077543D01*
X10367075Y4079120D01*
X10347546Y4084243D01*
X10344546Y4085368D01*
X10344544Y4085368D01*
X10337946Y4087842D01*
X10290458Y4091371D01*
X10282573Y4092277D01*
X10272138Y4093902D01*
X10272130Y4093903D01*
X10268357Y4094490D01*
X10252157Y4094490D01*
X10244821Y4094762D01*
X10241531Y4095006D01*
X10194974Y4098466D01*
X10188079Y4096994D01*
X10188077Y4096994D01*
X10186565Y4096671D01*
X10165898Y4094490D01*
X8080688Y4094490D01*
X8022497Y4113397D01*
X8010684Y4123486D01*
X7133496Y5000674D01*
X7105719Y5055191D01*
X7104500Y5070678D01*
X7104500Y5563326D01*
X7496500Y5563326D01*
X7511034Y5490260D01*
X7566399Y5407399D01*
X7649260Y5352034D01*
X7722326Y5337500D01*
X9295674Y5337500D01*
X9368740Y5352034D01*
X9451601Y5407399D01*
X9506966Y5490260D01*
X9521500Y5563326D01*
X9521500Y6867678D01*
X9540407Y6925869D01*
X9550496Y6937682D01*
X9958419Y7345605D01*
X9968399Y7353579D01*
X9968384Y7353596D01*
X9973754Y7358166D01*
X9979720Y7361930D01*
X9984388Y7367215D01*
X9984391Y7367218D01*
X10015292Y7402208D01*
X10019492Y7406678D01*
X10031320Y7418506D01*
X10038100Y7427553D01*
X10043104Y7433699D01*
X10074623Y7469388D01*
X10078982Y7478671D01*
X10089373Y7495966D01*
X10095526Y7504176D01*
X10100771Y7518166D01*
X10112237Y7548752D01*
X10115323Y7556074D01*
X10132554Y7592775D01*
X10132554Y7592776D01*
X10135553Y7599163D01*
X10137131Y7609300D01*
X10142252Y7628816D01*
X10143377Y7631816D01*
X10143377Y7631818D01*
X10145852Y7638419D01*
X10149381Y7685904D01*
X10150287Y7693792D01*
X10151912Y7704228D01*
X10151913Y7704236D01*
X10152500Y7708009D01*
X10152500Y7724208D01*
X10152772Y7731544D01*
X10155953Y7774358D01*
X10156476Y7781391D01*
X10154681Y7789800D01*
X10152500Y7810467D01*
X10152500Y9048500D01*
X10171407Y9106691D01*
X10220907Y9142655D01*
X10251500Y9147500D01*
X10438674Y9147500D01*
X10511740Y9162034D01*
X10594601Y9217399D01*
X10649966Y9300260D01*
X10664500Y9373326D01*
X10664500Y10946674D01*
X10649966Y11019740D01*
X10594601Y11102601D01*
X10579053Y11112990D01*
X10532329Y11144209D01*
X10511740Y11157966D01*
X10438674Y11172500D01*
X8865326Y11172500D01*
X8792260Y11157966D01*
X8771671Y11144209D01*
X8724948Y11112990D01*
X8709399Y11102601D01*
X8654034Y11019740D01*
X8639500Y10946674D01*
X8639500Y9373326D01*
X8654034Y9300260D01*
X8709399Y9217399D01*
X8792260Y9162034D01*
X8865326Y9147500D01*
X9052500Y9147500D01*
X9110691Y9128593D01*
X9146655Y9079093D01*
X9151500Y9048500D01*
X9151500Y7995322D01*
X9132593Y7937131D01*
X9122504Y7925318D01*
X9096682Y7899496D01*
X9042165Y7871719D01*
X9026678Y7870500D01*
X7722326Y7870500D01*
X7649260Y7855966D01*
X7566399Y7800601D01*
X7560980Y7792491D01*
X7548864Y7774358D01*
X7511034Y7717740D01*
X7496500Y7644674D01*
X7496500Y5563326D01*
X7104500Y5563326D01*
X7104500Y9048500D01*
X7123407Y9106691D01*
X7172907Y9142655D01*
X7203500Y9147500D01*
X7898674Y9147500D01*
X7971740Y9162034D01*
X8054601Y9217399D01*
X8109966Y9300260D01*
X8124500Y9373326D01*
X8124500Y10946674D01*
X8109966Y11019740D01*
X8054601Y11102601D01*
X8039053Y11112990D01*
X7992329Y11144209D01*
X7971740Y11157966D01*
X7898674Y11172500D01*
X6325326Y11172500D01*
X6252260Y11157966D01*
X6231671Y11144209D01*
X6184948Y11112990D01*
X6169399Y11102601D01*
X6114034Y11019740D01*
X6099500Y10946674D01*
X6099500Y10857320D01*
X6080593Y10799129D01*
X6031093Y10763165D01*
X5969907Y10763165D01*
X5930496Y10787317D01*
X5844293Y10873521D01*
X5660296Y11057518D01*
X5632519Y11112034D01*
X5631300Y11127521D01*
X5631300Y11725366D01*
X6164270Y11725366D01*
X6178804Y11652300D01*
X6184719Y11643448D01*
X6227731Y11579075D01*
X6234169Y11569439D01*
X6242279Y11564020D01*
X6254143Y11556093D01*
X6317030Y11514074D01*
X6390096Y11499540D01*
X8138704Y11499540D01*
X8211770Y11514074D01*
X8294631Y11569439D01*
X8295595Y11567997D01*
X8339720Y11590479D01*
X8390931Y11584825D01*
X8394776Y11582738D01*
X8400541Y11581226D01*
X8400545Y11581224D01*
X8541300Y11544298D01*
X8541304Y11544298D01*
X8547069Y11542785D01*
X8553030Y11542691D01*
X8553033Y11542691D01*
X8625782Y11541549D01*
X8704495Y11540312D01*
X8718061Y11543419D01*
X8852145Y11574128D01*
X8852148Y11574129D01*
X8857968Y11575462D01*
X8878563Y11585820D01*
X8939045Y11595075D01*
X8954035Y11590804D01*
X8958630Y11587734D01*
X8968190Y11585832D01*
X8968191Y11585832D01*
X8973651Y11584746D01*
X9031696Y11573200D01*
X10780304Y11573200D01*
X10853370Y11587734D01*
X10936231Y11643099D01*
X10991596Y11725960D01*
X11006130Y11799026D01*
X11006130Y13148854D01*
X10991596Y13221920D01*
X10962074Y13266103D01*
X10941650Y13296671D01*
X10936231Y13304781D01*
X10926553Y13311248D01*
X10867250Y13350872D01*
X10853370Y13360146D01*
X10780304Y13374680D01*
X9031696Y13374680D01*
X8958630Y13360146D01*
X8944750Y13350872D01*
X8885448Y13311248D01*
X8875769Y13304781D01*
X8870350Y13296671D01*
X8849926Y13266103D01*
X8820404Y13221920D01*
X8805870Y13148854D01*
X8805870Y13036574D01*
X8786963Y12978383D01*
X8747846Y12946452D01*
X8732677Y12939555D01*
X8725322Y12936561D01*
X8680553Y12920400D01*
X8672268Y12914348D01*
X8654854Y12904172D01*
X8645512Y12899924D01*
X8609429Y12868833D01*
X8603230Y12863910D01*
X8597022Y12859375D01*
X8560199Y12844956D01*
X8560684Y12842935D01*
X8486641Y12825159D01*
X8425644Y12829960D01*
X8379119Y12869697D01*
X8364530Y12921424D01*
X8364530Y13075194D01*
X8349996Y13148260D01*
X8294631Y13231121D01*
X8284953Y13237588D01*
X8219877Y13281069D01*
X8219878Y13281069D01*
X8211770Y13286486D01*
X8138704Y13301020D01*
X6390096Y13301020D01*
X6317030Y13286486D01*
X6308922Y13281069D01*
X6308923Y13281069D01*
X6243848Y13237588D01*
X6234169Y13231121D01*
X6178804Y13148260D01*
X6164270Y13075194D01*
X6164270Y11725366D01*
X5631300Y11725366D01*
X5631300Y13239500D01*
X5650207Y13297691D01*
X5699707Y13333655D01*
X5730300Y13338500D01*
X5853974Y13338500D01*
X5927040Y13353034D01*
X6009901Y13408399D01*
X6065266Y13491260D01*
X6079800Y13564326D01*
X11497000Y13564326D01*
X11511534Y13491260D01*
X11566899Y13408399D01*
X11649760Y13353034D01*
X11722826Y13338500D01*
X12646178Y13338500D01*
X12704369Y13319593D01*
X12716182Y13309504D01*
X13378105Y12647581D01*
X13386079Y12637601D01*
X13386096Y12637616D01*
X13390666Y12632246D01*
X13394430Y12626280D01*
X13399715Y12621612D01*
X13399718Y12621609D01*
X13434708Y12590708D01*
X13439178Y12586508D01*
X13451007Y12574679D01*
X13460060Y12567894D01*
X13466196Y12562899D01*
X13501888Y12531377D01*
X13508271Y12528380D01*
X13508274Y12528378D01*
X13511172Y12527017D01*
X13528462Y12516628D01*
X13531030Y12514703D01*
X13531036Y12514699D01*
X13536676Y12510473D01*
X13543278Y12507998D01*
X13543280Y12507997D01*
X13581253Y12493762D01*
X13588576Y12490676D01*
X13625270Y12473448D01*
X13625273Y12473447D01*
X13631663Y12470447D01*
X13641802Y12468868D01*
X13661317Y12463748D01*
X13664317Y12462623D01*
X13664319Y12462623D01*
X13670920Y12460148D01*
X13718408Y12456619D01*
X13726293Y12455713D01*
X13736728Y12454088D01*
X13736736Y12454087D01*
X13740509Y12453500D01*
X13756709Y12453500D01*
X13764046Y12453228D01*
X13813892Y12449524D01*
X13820787Y12450996D01*
X13820789Y12450996D01*
X13822301Y12451319D01*
X13842968Y12453500D01*
X14737678Y12453500D01*
X14795869Y12434593D01*
X14807682Y12424504D01*
X15726504Y11505682D01*
X15754281Y11451165D01*
X15755500Y11435678D01*
X15755500Y11271500D01*
X15736593Y11213309D01*
X15687093Y11177345D01*
X15656500Y11172500D01*
X15469326Y11172500D01*
X15396260Y11157966D01*
X15375671Y11144209D01*
X15328948Y11112990D01*
X15313399Y11102601D01*
X15258034Y11019740D01*
X15243500Y10946674D01*
X15243500Y9579322D01*
X15224593Y9521131D01*
X15175093Y9485167D01*
X15113907Y9485167D01*
X15074496Y9509318D01*
X14757496Y9826318D01*
X14729719Y9880835D01*
X14728500Y9896322D01*
X14728500Y10946674D01*
X14713966Y11019740D01*
X14658601Y11102601D01*
X14643053Y11112990D01*
X14596329Y11144209D01*
X14575740Y11157966D01*
X14502674Y11172500D01*
X12929326Y11172500D01*
X12856260Y11157966D01*
X12835671Y11144209D01*
X12788948Y11112990D01*
X12773399Y11102601D01*
X12718034Y11019740D01*
X12703500Y10946674D01*
X12703500Y9373326D01*
X12718034Y9300260D01*
X12773399Y9217399D01*
X12856260Y9162034D01*
X12929326Y9147500D01*
X13979678Y9147500D01*
X14037869Y9128593D01*
X14049682Y9118504D01*
X15595504Y7572683D01*
X15623281Y7518166D01*
X15624500Y7502679D01*
X15624500Y5563326D01*
X15639034Y5490260D01*
X15694399Y5407399D01*
X15777260Y5352034D01*
X15850326Y5337500D01*
X17423674Y5337500D01*
X17496740Y5352034D01*
X17579601Y5407399D01*
X17634966Y5490260D01*
X17649500Y5563326D01*
X17649500Y7239028D01*
X17668407Y7297219D01*
X17717907Y7333183D01*
X17779093Y7333183D01*
X17818504Y7309032D01*
X18147503Y6980033D01*
X18175280Y6925516D01*
X18176499Y6910029D01*
X18176499Y5255165D01*
X18175080Y5242464D01*
X18175102Y5242462D01*
X18174536Y5235430D01*
X18172980Y5228552D01*
X18173417Y5221514D01*
X18176309Y5174897D01*
X18176499Y5168766D01*
X18176499Y5152059D01*
X18176998Y5148572D01*
X18176999Y5148564D01*
X18178100Y5140878D01*
X18178910Y5132975D01*
X18181858Y5085461D01*
X18184251Y5078832D01*
X18184252Y5078828D01*
X18185341Y5075812D01*
X18190222Y5056236D01*
X18191676Y5046081D01*
X18194595Y5039662D01*
X18194596Y5039657D01*
X18211380Y5002742D01*
X18214376Y4995384D01*
X18230539Y4950612D01*
X18236591Y4942327D01*
X18246767Y4924913D01*
X18251015Y4915571D01*
X18255620Y4910227D01*
X18282092Y4879504D01*
X18287032Y4873283D01*
X18295521Y4861663D01*
X18306985Y4850199D01*
X18311980Y4844818D01*
X18344599Y4806962D01*
X18345110Y4806631D01*
X18375012Y4756666D01*
X18377510Y4734566D01*
X18377510Y2616332D01*
X18358603Y2558141D01*
X18348514Y2546328D01*
X18113682Y2311496D01*
X18059165Y2283719D01*
X18043678Y2282500D01*
X16993326Y2282500D01*
X16920260Y2267966D01*
X16837399Y2212601D01*
X16782034Y2129740D01*
X16767500Y2056674D01*
X16767500Y483326D01*
X16782034Y410260D01*
X16837399Y327399D01*
X16920260Y272034D01*
X16993326Y257500D01*
X17130500Y257500D01*
X17188691Y238593D01*
X17224655Y189093D01*
X17229500Y158500D01*
X17229500Y-158500D01*
X17210593Y-216691D01*
X17161093Y-252655D01*
X17130500Y-257500D01*
X16993326Y-257500D01*
X16920260Y-272034D01*
X16837399Y-327399D01*
X16782034Y-410260D01*
X16767500Y-483326D01*
X16767500Y-2056674D01*
X16782034Y-2129740D01*
X16837399Y-2212601D01*
X16920260Y-2267966D01*
X16993326Y-2282500D01*
X18566674Y-2282500D01*
X18639740Y-2267966D01*
X18722601Y-2212601D01*
X18777966Y-2129740D01*
X18792500Y-2056674D01*
X18792500Y-483326D01*
X18777966Y-410260D01*
X18722601Y-327399D01*
X18639740Y-272034D01*
X18566674Y-257500D01*
X18429500Y-257500D01*
X18371309Y-238593D01*
X18335345Y-189093D01*
X18330500Y-158500D01*
X18330500Y158500D01*
X18349407Y216691D01*
X18398907Y252655D01*
X18429500Y257500D01*
X18566674Y257500D01*
X18639740Y272034D01*
X18722601Y327399D01*
X18777966Y410260D01*
X18792500Y483326D01*
X18792500Y1533678D01*
X18811407Y1591869D01*
X18821496Y1603682D01*
X19138496Y1920682D01*
X19193013Y1948459D01*
X19253445Y1938888D01*
X19296710Y1895623D01*
X19307500Y1850678D01*
X19307500Y483326D01*
X19322034Y410260D01*
X19377399Y327399D01*
X19460260Y272034D01*
X19533326Y257500D01*
X19670500Y257500D01*
X19728691Y238593D01*
X19764655Y189093D01*
X19769500Y158500D01*
X19769500Y-158500D01*
X19750593Y-216691D01*
X19701093Y-252655D01*
X19670500Y-257500D01*
X19533326Y-257500D01*
X19460260Y-272034D01*
X19377399Y-327399D01*
X19322034Y-410260D01*
X19307500Y-483326D01*
X19307500Y-2056674D01*
X19322034Y-2129740D01*
X19377399Y-2212601D01*
X19460260Y-2267966D01*
X19533326Y-2282500D01*
X21106674Y-2282500D01*
X21179740Y-2267966D01*
X21262601Y-2212601D01*
X21317966Y-2129740D01*
X21332500Y-2056674D01*
X29975500Y-2056674D01*
X29990034Y-2129740D01*
X30045399Y-2212601D01*
X30128260Y-2267966D01*
X30201326Y-2282500D01*
X31774674Y-2282500D01*
X31847740Y-2267966D01*
X31930601Y-2212601D01*
X31985966Y-2129740D01*
X32000500Y-2056674D01*
X32000500Y-483326D01*
X31985966Y-410260D01*
X31930601Y-327399D01*
X31847740Y-272034D01*
X31774674Y-257500D01*
X31637500Y-257500D01*
X31579309Y-238593D01*
X31543345Y-189093D01*
X31538500Y-158500D01*
X31538500Y158500D01*
X31557407Y216691D01*
X31606907Y252655D01*
X31637500Y257500D01*
X31774674Y257500D01*
X31847740Y272034D01*
X31930601Y327399D01*
X31985966Y410260D01*
X32000500Y483326D01*
X32000500Y1787678D01*
X32019407Y1845869D01*
X32029496Y1857682D01*
X32056419Y1884605D01*
X32066399Y1892579D01*
X32066384Y1892596D01*
X32071754Y1897166D01*
X32077720Y1900930D01*
X32082388Y1906215D01*
X32082391Y1906218D01*
X32113292Y1941208D01*
X32117492Y1945678D01*
X32129321Y1957507D01*
X32136106Y1966560D01*
X32141101Y1972696D01*
X32172623Y2008388D01*
X32175620Y2014771D01*
X32175622Y2014774D01*
X32176983Y2017672D01*
X32187372Y2034962D01*
X32189297Y2037530D01*
X32189301Y2037536D01*
X32193527Y2043176D01*
X32196738Y2051740D01*
X32210238Y2087753D01*
X32213324Y2095076D01*
X32230552Y2131770D01*
X32230553Y2131773D01*
X32233553Y2138163D01*
X32235132Y2148302D01*
X32240252Y2167817D01*
X32241377Y2170817D01*
X32241377Y2170819D01*
X32243852Y2177420D01*
X32247381Y2224908D01*
X32248287Y2232793D01*
X32249912Y2243228D01*
X32249913Y2243236D01*
X32250500Y2247009D01*
X32250500Y2263209D01*
X32250772Y2270545D01*
X32252221Y2290047D01*
X32254476Y2320392D01*
X32252681Y2328801D01*
X32250500Y2349468D01*
X32250500Y2862678D01*
X32269407Y2920869D01*
X32318907Y2956833D01*
X32380093Y2956833D01*
X32419504Y2932682D01*
X32900682Y2451504D01*
X32928459Y2396987D01*
X32918888Y2336555D01*
X32875623Y2293290D01*
X32830678Y2282500D01*
X32741326Y2282500D01*
X32668260Y2267966D01*
X32585399Y2212601D01*
X32530034Y2129740D01*
X32515500Y2056674D01*
X32515500Y483326D01*
X32530034Y410260D01*
X32585399Y327399D01*
X32668260Y272034D01*
X32741326Y257500D01*
X32878500Y257500D01*
X32936691Y238593D01*
X32972655Y189093D01*
X32977500Y158500D01*
X32977500Y-158500D01*
X32958593Y-216691D01*
X32909093Y-252655D01*
X32878500Y-257500D01*
X32741326Y-257500D01*
X32668260Y-272034D01*
X32585399Y-327399D01*
X32530034Y-410260D01*
X32515500Y-483326D01*
X32515500Y-2056674D01*
X32530034Y-2129740D01*
X32585399Y-2212601D01*
X32668260Y-2267966D01*
X32741326Y-2282500D01*
X34314674Y-2282500D01*
X34387740Y-2267966D01*
X34470601Y-2212601D01*
X34525966Y-2129740D01*
X34540500Y-2056674D01*
X34540500Y-483326D01*
X34525966Y-410260D01*
X34470601Y-327399D01*
X34387740Y-272034D01*
X34314674Y-257500D01*
X34177500Y-257500D01*
X34119309Y-238593D01*
X34083345Y-189093D01*
X34078500Y-158500D01*
X34078500Y158500D01*
X34097407Y216691D01*
X34146907Y252655D01*
X34177500Y257500D01*
X34314674Y257500D01*
X34387740Y272034D01*
X34470601Y327399D01*
X34525966Y410260D01*
X34540500Y483326D01*
X34540500Y2056674D01*
X34525966Y2129740D01*
X34470601Y2212601D01*
X34387740Y2267966D01*
X34314674Y2282500D01*
X34127500Y2282500D01*
X34069309Y2301407D01*
X34033345Y2350907D01*
X34028500Y2381500D01*
X34028500Y2464834D01*
X34029919Y2477535D01*
X34029897Y2477537D01*
X34030463Y2484569D01*
X34032019Y2491447D01*
X34028690Y2545102D01*
X34028500Y2551233D01*
X34028500Y2567940D01*
X34028001Y2571427D01*
X34028000Y2571435D01*
X34026899Y2579121D01*
X34026089Y2587024D01*
X34023578Y2627501D01*
X34023577Y2627504D01*
X34023141Y2634538D01*
X34020748Y2641167D01*
X34020747Y2641171D01*
X34019658Y2644187D01*
X34014777Y2663764D01*
X34014323Y2666936D01*
X34014323Y2666937D01*
X34013323Y2673918D01*
X34010404Y2680337D01*
X34010403Y2680342D01*
X33993619Y2717257D01*
X33990623Y2724615D01*
X33976855Y2762752D01*
X33974460Y2769387D01*
X33968408Y2777672D01*
X33958232Y2795086D01*
X33953984Y2804428D01*
X33940272Y2820341D01*
X33922907Y2840495D01*
X33917967Y2846716D01*
X33916830Y2848272D01*
X33909478Y2858336D01*
X33898014Y2869800D01*
X33893019Y2875181D01*
X33865005Y2907693D01*
X33865004Y2907694D01*
X33860400Y2913037D01*
X33853189Y2917711D01*
X33837032Y2930782D01*
X33079486Y3688328D01*
X33051709Y3742845D01*
X33050490Y3758332D01*
X33050490Y7476812D01*
X33069397Y7535003D01*
X33079486Y7546816D01*
X33235496Y7702826D01*
X33290013Y7730603D01*
X33350445Y7721032D01*
X33393710Y7677767D01*
X33404500Y7632822D01*
X33404500Y5817326D01*
X33419034Y5744260D01*
X33474399Y5661399D01*
X33557260Y5606034D01*
X33630326Y5591500D01*
X35203674Y5591500D01*
X35276740Y5606034D01*
X35359601Y5661399D01*
X35414966Y5744260D01*
X35429500Y5817326D01*
X35429500Y6258500D01*
X35448407Y6316691D01*
X35497907Y6352655D01*
X35528500Y6357500D01*
X36246834Y6357500D01*
X36259535Y6356081D01*
X36259537Y6356103D01*
X36266569Y6355537D01*
X36273447Y6353981D01*
X36327101Y6357310D01*
X36333233Y6357500D01*
X36349940Y6357500D01*
X36353427Y6357999D01*
X36353435Y6358000D01*
X36361121Y6359101D01*
X36369024Y6359911D01*
X36409501Y6362422D01*
X36409504Y6362423D01*
X36416538Y6362859D01*
X36423167Y6365252D01*
X36423171Y6365253D01*
X36426187Y6366342D01*
X36445763Y6371223D01*
X36446955Y6371394D01*
X36448936Y6371677D01*
X36448937Y6371677D01*
X36455918Y6372677D01*
X36462337Y6375596D01*
X36462342Y6375597D01*
X36499257Y6392381D01*
X36506615Y6395377D01*
X36520810Y6400502D01*
X36551387Y6411540D01*
X36559672Y6417592D01*
X36577086Y6427768D01*
X36586428Y6432016D01*
X36602341Y6445728D01*
X36622495Y6463093D01*
X36628716Y6468033D01*
X36629146Y6468347D01*
X36640336Y6476522D01*
X36651800Y6487986D01*
X36657181Y6492981D01*
X36689693Y6520995D01*
X36689694Y6520996D01*
X36695037Y6525600D01*
X36699711Y6532811D01*
X36712782Y6548968D01*
X38914414Y8750601D01*
X38924397Y8758577D01*
X38924383Y8758594D01*
X38929757Y8763168D01*
X38935720Y8766930D01*
X38940387Y8772214D01*
X38940389Y8772216D01*
X38971300Y8807217D01*
X38975500Y8811687D01*
X38987320Y8823507D01*
X38989429Y8826322D01*
X38989434Y8826327D01*
X38994090Y8832540D01*
X38999107Y8838703D01*
X39019735Y8862060D01*
X39030623Y8874388D01*
X39034981Y8883671D01*
X39045373Y8900967D01*
X39051526Y8909176D01*
X39068235Y8953746D01*
X39071320Y8961066D01*
X39088554Y8997774D01*
X39088555Y8997778D01*
X39091553Y9004163D01*
X39092638Y9011131D01*
X39092639Y9011135D01*
X39093130Y9014292D01*
X39098253Y9033820D01*
X39099378Y9036820D01*
X39099378Y9036822D01*
X39101852Y9043420D01*
X39105381Y9090908D01*
X39106287Y9098793D01*
X39107912Y9109228D01*
X39107913Y9109236D01*
X39108500Y9113009D01*
X39108500Y9129209D01*
X39108772Y9136545D01*
X39110195Y9155697D01*
X39112476Y9186392D01*
X39110681Y9194801D01*
X39108500Y9215468D01*
X39108500Y9302500D01*
X39127407Y9360691D01*
X39176907Y9396655D01*
X39207500Y9401500D01*
X39394674Y9401500D01*
X39467740Y9416034D01*
X39527828Y9456183D01*
X39542491Y9465980D01*
X39550601Y9471399D01*
X39605966Y9554260D01*
X39620500Y9627326D01*
X39620500Y11200674D01*
X39605966Y11273740D01*
X39591935Y11294739D01*
X39575327Y11353627D01*
X39596505Y11411031D01*
X39647379Y11445023D01*
X39674251Y11448740D01*
X40853904Y11448740D01*
X40854707Y11448900D01*
X40856341Y11448980D01*
X41069341Y11448980D01*
X41084828Y11447761D01*
X41095489Y11446072D01*
X41095493Y11446072D01*
X41100612Y11445261D01*
X41102187Y11445344D01*
X41158167Y11423853D01*
X41191490Y11372538D01*
X41188287Y11311436D01*
X41178178Y11291915D01*
X41166034Y11273740D01*
X41151500Y11200674D01*
X41151500Y9627326D01*
X41166034Y9554260D01*
X41221399Y9471399D01*
X41229509Y9465980D01*
X41244172Y9456183D01*
X41304260Y9416034D01*
X41377326Y9401500D01*
X42427679Y9401500D01*
X42485870Y9382593D01*
X42497683Y9372504D01*
X42523504Y9346683D01*
X42551281Y9292166D01*
X42552500Y9276679D01*
X42552500Y7969500D01*
X42533593Y7911309D01*
X42484093Y7875345D01*
X42453500Y7870500D01*
X42266326Y7870500D01*
X42193260Y7855966D01*
X42110399Y7800601D01*
X42104980Y7792491D01*
X42092864Y7774358D01*
X42055034Y7717740D01*
X42040500Y7644674D01*
X42040500Y5563326D01*
X42055034Y5490260D01*
X42110399Y5407399D01*
X42193260Y5352034D01*
X42266326Y5337500D01*
X43434028Y5337500D01*
X43492219Y5318593D01*
X43528183Y5269093D01*
X43528183Y5207907D01*
X43504032Y5168496D01*
X41913032Y3577496D01*
X41858515Y3549719D01*
X41843028Y3548500D01*
X39191165Y3548500D01*
X39178464Y3549919D01*
X39178462Y3549897D01*
X39171430Y3550463D01*
X39164552Y3552019D01*
X39113392Y3548845D01*
X39110897Y3548690D01*
X39104766Y3548500D01*
X39088060Y3548500D01*
X39084573Y3548001D01*
X39084565Y3548000D01*
X39076879Y3546899D01*
X39068976Y3546089D01*
X39028499Y3543578D01*
X39028496Y3543577D01*
X39021462Y3543141D01*
X39014833Y3540748D01*
X39014829Y3540747D01*
X39011813Y3539658D01*
X38992237Y3534777D01*
X38991045Y3534606D01*
X38989064Y3534323D01*
X38989063Y3534323D01*
X38982082Y3533323D01*
X38975663Y3530404D01*
X38975658Y3530403D01*
X38938743Y3513619D01*
X38931385Y3510623D01*
X38886613Y3494460D01*
X38878328Y3488408D01*
X38860914Y3478232D01*
X38851572Y3473984D01*
X38846228Y3469379D01*
X38815505Y3442907D01*
X38809284Y3437967D01*
X38797664Y3429478D01*
X38786200Y3418014D01*
X38780819Y3413019D01*
X38742963Y3380400D01*
X38739126Y3374480D01*
X38738289Y3373189D01*
X38725218Y3357032D01*
X38301581Y2933395D01*
X38291601Y2925421D01*
X38291616Y2925404D01*
X38286246Y2920834D01*
X38280280Y2917070D01*
X38275612Y2911785D01*
X38275609Y2911782D01*
X38244708Y2876792D01*
X38240508Y2872322D01*
X38228680Y2860494D01*
X38221902Y2851450D01*
X38216896Y2845301D01*
X38185377Y2809612D01*
X38181018Y2800329D01*
X38170627Y2783034D01*
X38164474Y2774824D01*
X38161998Y2768219D01*
X38147765Y2730254D01*
X38144680Y2722934D01*
X38127446Y2686226D01*
X38127445Y2686222D01*
X38124447Y2679837D01*
X38123362Y2672869D01*
X38123361Y2672865D01*
X38122870Y2669708D01*
X38117747Y2650180D01*
X38114148Y2640580D01*
X38113626Y2633551D01*
X38110620Y2593102D01*
X38109713Y2585207D01*
X38108088Y2574772D01*
X38108087Y2574764D01*
X38107500Y2570991D01*
X38107500Y2554791D01*
X38107228Y2547455D01*
X38103524Y2497608D01*
X38104996Y2490713D01*
X38104996Y2490711D01*
X38105319Y2489199D01*
X38107500Y2468532D01*
X38107500Y2381500D01*
X38088593Y2323309D01*
X38039093Y2287345D01*
X38008500Y2282500D01*
X37821326Y2282500D01*
X37748260Y2267966D01*
X37665399Y2212601D01*
X37610034Y2129740D01*
X37595500Y2056674D01*
X37595500Y483326D01*
X37610034Y410260D01*
X37665399Y327399D01*
X37748260Y272034D01*
X37821326Y257500D01*
X38008500Y257500D01*
X38066691Y238593D01*
X38102655Y189093D01*
X38107500Y158500D01*
X38107500Y-158500D01*
X38088593Y-216691D01*
X38039093Y-252655D01*
X38008500Y-257500D01*
X37821326Y-257500D01*
X37748260Y-272034D01*
X37665399Y-327399D01*
X37610034Y-410260D01*
X37595500Y-483326D01*
X37595500Y-2056674D01*
X37610034Y-2129740D01*
X37665399Y-2212601D01*
X37748260Y-2267966D01*
X37821326Y-2282500D01*
X39394674Y-2282500D01*
X39467740Y-2267966D01*
X39550601Y-2212601D01*
X39605966Y-2129740D01*
X39620500Y-2056674D01*
X39620500Y-483326D01*
X39605966Y-410260D01*
X39550601Y-327399D01*
X39467740Y-272034D01*
X39394674Y-257500D01*
X39207500Y-257500D01*
X39149309Y-238593D01*
X39113345Y-189093D01*
X39108500Y-158500D01*
X39108500Y158500D01*
X39127407Y216691D01*
X39176907Y252655D01*
X39207500Y257500D01*
X39394674Y257500D01*
X39467740Y272034D01*
X39550601Y327399D01*
X39605966Y410260D01*
X39620500Y483326D01*
X39620500Y2056674D01*
X39605966Y2129740D01*
X39550601Y2212601D01*
X39467740Y2267966D01*
X39394674Y2282500D01*
X39305322Y2282500D01*
X39247131Y2301407D01*
X39211167Y2350907D01*
X39211167Y2412093D01*
X39235318Y2451504D01*
X39302318Y2518504D01*
X39356835Y2546281D01*
X39372322Y2547500D01*
X41775386Y2547500D01*
X41833577Y2528593D01*
X41869541Y2479093D01*
X41869541Y2417907D01*
X41845390Y2378496D01*
X41778390Y2311496D01*
X41723873Y2283719D01*
X41708386Y2282500D01*
X40361326Y2282500D01*
X40288260Y2267966D01*
X40205399Y2212601D01*
X40150034Y2129740D01*
X40135500Y2056674D01*
X40135500Y483326D01*
X40150034Y410260D01*
X40205399Y327399D01*
X40288260Y272034D01*
X40361326Y257500D01*
X40548500Y257500D01*
X40606691Y238593D01*
X40642655Y189093D01*
X40647500Y158500D01*
X40647500Y-158500D01*
X40628593Y-216691D01*
X40579093Y-252655D01*
X40548500Y-257500D01*
X40361326Y-257500D01*
X40288260Y-272034D01*
X40205399Y-327399D01*
X40150034Y-410260D01*
X40135500Y-483326D01*
X40135500Y-2056674D01*
X40150034Y-2129740D01*
X40205399Y-2212601D01*
X40288260Y-2267966D01*
X40361326Y-2282500D01*
X41934674Y-2282500D01*
X42007740Y-2267966D01*
X42090601Y-2212601D01*
X42145966Y-2129740D01*
X42160500Y-2056674D01*
X42160500Y-483326D01*
X42145966Y-410260D01*
X42090601Y-327399D01*
X42007740Y-272034D01*
X41934674Y-257500D01*
X41747500Y-257500D01*
X41689309Y-238593D01*
X41653345Y-189093D01*
X41648500Y-158500D01*
X41648500Y158500D01*
X41667407Y216691D01*
X41716907Y252655D01*
X41747500Y257500D01*
X41934674Y257500D01*
X42007740Y272034D01*
X42090601Y327399D01*
X42145966Y410260D01*
X42160500Y483326D01*
X42160500Y1236970D01*
X42179407Y1295161D01*
X42189496Y1306974D01*
X46191026Y5308504D01*
X46245543Y5336281D01*
X46261030Y5337500D01*
X47141674Y5337500D01*
X47214740Y5352034D01*
X47297601Y5407399D01*
X47352966Y5490260D01*
X47367500Y5563326D01*
X47367500Y7644674D01*
X47352966Y7717740D01*
X47315136Y7774358D01*
X47303020Y7792491D01*
X47297601Y7800601D01*
X47214740Y7855966D01*
X47141674Y7870500D01*
X46954500Y7870500D01*
X46896309Y7889407D01*
X46860345Y7938907D01*
X46855500Y7969500D01*
X46855500Y8052834D01*
X46856919Y8065535D01*
X46856897Y8065537D01*
X46857463Y8072569D01*
X46859019Y8079447D01*
X46855690Y8133102D01*
X46855500Y8139233D01*
X46855500Y8155940D01*
X46855001Y8159427D01*
X46855000Y8159435D01*
X46853899Y8167121D01*
X46853089Y8175024D01*
X46850578Y8215501D01*
X46850577Y8215504D01*
X46850141Y8222538D01*
X46847748Y8229167D01*
X46847747Y8229171D01*
X46846658Y8232187D01*
X46841777Y8251764D01*
X46841323Y8254936D01*
X46841323Y8254937D01*
X46840323Y8261918D01*
X46837404Y8268337D01*
X46837403Y8268342D01*
X46820619Y8305257D01*
X46817623Y8312615D01*
X46809082Y8336273D01*
X46801460Y8357387D01*
X46795408Y8365672D01*
X46785232Y8383086D01*
X46780984Y8392428D01*
X46767272Y8408341D01*
X46749907Y8428495D01*
X46744967Y8434716D01*
X46743822Y8436283D01*
X46736478Y8446336D01*
X46725014Y8457800D01*
X46720019Y8463181D01*
X46692005Y8495693D01*
X46692004Y8495694D01*
X46687400Y8501037D01*
X46680189Y8505711D01*
X46664032Y8518782D01*
X46619495Y8563319D01*
X46591718Y8617836D01*
X46590499Y8633323D01*
X46590499Y11690862D01*
X48112758Y11690862D01*
X48113413Y11684929D01*
X48113413Y11684925D01*
X48124380Y11585586D01*
X48130035Y11534367D01*
X48134414Y11522400D01*
X48181150Y11394689D01*
X48184143Y11386510D01*
X48187472Y11381556D01*
X48268629Y11260781D01*
X48268632Y11260777D01*
X48271958Y11255828D01*
X48276369Y11251814D01*
X48276371Y11251812D01*
X48379317Y11158139D01*
X48388410Y11149865D01*
X48456325Y11112990D01*
X48521530Y11077586D01*
X48521532Y11077585D01*
X48526776Y11074738D01*
X48606534Y11053814D01*
X48673300Y11036298D01*
X48673304Y11036298D01*
X48679069Y11034785D01*
X48685030Y11034691D01*
X48685033Y11034691D01*
X48757782Y11033548D01*
X48836495Y11032312D01*
X48853899Y11036298D01*
X48984149Y11066129D01*
X48984151Y11066130D01*
X48989968Y11067462D01*
X48995299Y11070143D01*
X49125299Y11135526D01*
X49125301Y11135527D01*
X49130625Y11138205D01*
X49135161Y11142079D01*
X49245810Y11236582D01*
X49245811Y11236583D01*
X49250348Y11240458D01*
X49253829Y11245302D01*
X49257873Y11249700D01*
X49258998Y11248666D01*
X49267557Y11256776D01*
X49266488Y11258016D01*
X49302555Y11289093D01*
X49308776Y11294033D01*
X49309742Y11294739D01*
X49320396Y11302522D01*
X49331860Y11313986D01*
X49337241Y11318981D01*
X49369753Y11346995D01*
X49369754Y11346996D01*
X49375097Y11351600D01*
X49379771Y11358811D01*
X49392842Y11374968D01*
X49562078Y11544204D01*
X49616595Y11571981D01*
X49632082Y11573200D01*
X50658304Y11573200D01*
X50731370Y11587734D01*
X50814231Y11643099D01*
X50869596Y11725960D01*
X50884130Y11799026D01*
X50884130Y13148854D01*
X50869596Y13221920D01*
X50840074Y13266103D01*
X50819650Y13296671D01*
X50814231Y13304781D01*
X50804553Y13311248D01*
X50745250Y13350872D01*
X50731370Y13360146D01*
X50658304Y13374680D01*
X48909696Y13374680D01*
X48836630Y13360146D01*
X48822750Y13350872D01*
X48763448Y13311248D01*
X48753769Y13304781D01*
X48748350Y13296671D01*
X48727926Y13266103D01*
X48698404Y13221920D01*
X48683870Y13148854D01*
X48683870Y12410865D01*
X48664963Y12352674D01*
X48615463Y12316710D01*
X48607981Y12314600D01*
X48580620Y12308031D01*
X48539588Y12298180D01*
X48467035Y12260733D01*
X48404985Y12228707D01*
X48404983Y12228705D01*
X48399679Y12225968D01*
X48281034Y12122467D01*
X48190501Y11993652D01*
X48133309Y11846961D01*
X48132531Y11841050D01*
X48132530Y11841047D01*
X48127880Y11805723D01*
X48112758Y11690862D01*
X46590499Y11690862D01*
X46590499Y12123177D01*
X46609406Y12181368D01*
X46619495Y12193181D01*
X46973818Y12547504D01*
X47028335Y12575281D01*
X47043822Y12576500D01*
X47713174Y12576500D01*
X47786240Y12591034D01*
X47855956Y12637616D01*
X47860991Y12640980D01*
X47869101Y12646399D01*
X47924466Y12729260D01*
X47939000Y12802326D01*
X47939000Y13740674D01*
X47924466Y13813740D01*
X47869101Y13896601D01*
X47786240Y13951966D01*
X47713174Y13966500D01*
X46266826Y13966500D01*
X46193760Y13951966D01*
X46110899Y13896601D01*
X46055534Y13813740D01*
X46041000Y13740674D01*
X46041000Y13071322D01*
X46022093Y13013131D01*
X46012004Y13001318D01*
X45822004Y12811318D01*
X45767487Y12783541D01*
X45707055Y12793112D01*
X45663790Y12836377D01*
X45653000Y12881322D01*
X45653000Y13740674D01*
X45638466Y13813740D01*
X45583101Y13896601D01*
X45500240Y13951966D01*
X45427174Y13966500D01*
X43980826Y13966500D01*
X43907760Y13951966D01*
X43824899Y13896601D01*
X43769534Y13813740D01*
X43755000Y13740674D01*
X43755000Y12802326D01*
X43769534Y12729260D01*
X43824899Y12646399D01*
X43833009Y12640980D01*
X43838044Y12637616D01*
X43907760Y12591034D01*
X43980826Y12576500D01*
X44104500Y12576500D01*
X44162691Y12557593D01*
X44198655Y12508093D01*
X44203500Y12477500D01*
X44203500Y11525500D01*
X44184593Y11467309D01*
X44135093Y11431345D01*
X44104500Y11426500D01*
X43917326Y11426500D01*
X43844260Y11411966D01*
X43818403Y11394689D01*
X43777834Y11367582D01*
X43761399Y11356601D01*
X43755980Y11348491D01*
X43750122Y11339724D01*
X43706034Y11273740D01*
X43691500Y11200674D01*
X43691500Y9796150D01*
X43672593Y9737959D01*
X43623093Y9701995D01*
X43561907Y9701995D01*
X43512407Y9737959D01*
X43505089Y9749672D01*
X43501854Y9755757D01*
X43499460Y9762387D01*
X43493408Y9770672D01*
X43483232Y9788086D01*
X43478984Y9797428D01*
X43454091Y9826318D01*
X43447907Y9833495D01*
X43442967Y9839716D01*
X43442653Y9840146D01*
X43434478Y9851336D01*
X43423014Y9862800D01*
X43418019Y9868181D01*
X43390005Y9900693D01*
X43390004Y9900694D01*
X43385400Y9906037D01*
X43378189Y9910711D01*
X43362032Y9923782D01*
X43205496Y10080318D01*
X43177719Y10134835D01*
X43176500Y10150322D01*
X43176500Y11200674D01*
X43161966Y11273740D01*
X43117878Y11339724D01*
X43112020Y11348491D01*
X43106601Y11356601D01*
X43104904Y11357735D01*
X43079338Y11407913D01*
X43088909Y11468345D01*
X43132174Y11511610D01*
X43177119Y11522400D01*
X43292304Y11522400D01*
X43365370Y11536934D01*
X43415708Y11570568D01*
X43440121Y11586880D01*
X43448231Y11592299D01*
X43503596Y11675160D01*
X43518130Y11748226D01*
X43518130Y13098054D01*
X43503596Y13171120D01*
X43448231Y13253981D01*
X43365370Y13309346D01*
X43292304Y13323880D01*
X41543696Y13323880D01*
X41542893Y13323720D01*
X41541259Y13323640D01*
X41300319Y13323640D01*
X41284832Y13324859D01*
X41274170Y13326548D01*
X41274168Y13326548D01*
X41269048Y13327359D01*
X41263872Y13327088D01*
X41263868Y13327088D01*
X41200675Y13323776D01*
X41195494Y13323640D01*
X41174468Y13323640D01*
X41169763Y13323145D01*
X41153551Y13321442D01*
X41148385Y13321036D01*
X41085202Y13317725D01*
X41085200Y13317725D01*
X41080015Y13317453D01*
X41075005Y13316111D01*
X41074995Y13316109D01*
X41064572Y13313316D01*
X41049302Y13310486D01*
X41038570Y13309358D01*
X41038560Y13309356D01*
X41033404Y13308814D01*
X40968285Y13287655D01*
X40963320Y13286184D01*
X40897172Y13268460D01*
X40892546Y13266103D01*
X40882926Y13261202D01*
X40868625Y13255274D01*
X40868027Y13255079D01*
X40837391Y13250220D01*
X39105296Y13250220D01*
X39032230Y13235686D01*
X38949369Y13180321D01*
X38947132Y13183669D01*
X38909487Y13164488D01*
X38849055Y13174059D01*
X38805790Y13217324D01*
X38795000Y13262269D01*
X38795000Y13994674D01*
X38780466Y14067740D01*
X38725101Y14150601D01*
X38642240Y14205966D01*
X38569174Y14220500D01*
X37122826Y14220500D01*
X37049760Y14205966D01*
X36966899Y14150601D01*
X36911534Y14067740D01*
X36897000Y13994674D01*
X36897000Y13325322D01*
X36878093Y13267131D01*
X36868004Y13255318D01*
X35977582Y12364896D01*
X35923065Y12337119D01*
X35862633Y12346690D01*
X35819368Y12389955D01*
X35811453Y12418599D01*
X35810476Y12418390D01*
X35808681Y12426799D01*
X35806500Y12447466D01*
X35806500Y12731500D01*
X35825407Y12789691D01*
X35874907Y12825655D01*
X35905500Y12830500D01*
X36029174Y12830500D01*
X36102240Y12845034D01*
X36185101Y12900399D01*
X36240466Y12983260D01*
X36255000Y13056326D01*
X36255000Y13994674D01*
X36240466Y14067740D01*
X36185101Y14150601D01*
X36102240Y14205966D01*
X36029174Y14220500D01*
X34582826Y14220500D01*
X34509760Y14205966D01*
X34426899Y14150601D01*
X34371534Y14067740D01*
X34357000Y13994674D01*
X34357000Y13056326D01*
X34371534Y12983260D01*
X34426899Y12900399D01*
X34509760Y12845034D01*
X34582826Y12830500D01*
X34706500Y12830500D01*
X34764691Y12811593D01*
X34800655Y12762093D01*
X34805500Y12731500D01*
X34805500Y12632320D01*
X34786593Y12574129D01*
X34776504Y12562316D01*
X33801081Y11586893D01*
X33791101Y11578919D01*
X33791116Y11578902D01*
X33785746Y11574332D01*
X33779780Y11570568D01*
X33775112Y11565283D01*
X33775109Y11565280D01*
X33744208Y11530290D01*
X33740008Y11525820D01*
X33728180Y11513992D01*
X33721952Y11505682D01*
X33721402Y11504948D01*
X33716396Y11498799D01*
X33684877Y11463110D01*
X33680518Y11453827D01*
X33670127Y11436532D01*
X33663974Y11428322D01*
X33661498Y11421717D01*
X33647265Y11383752D01*
X33644180Y11376432D01*
X33626946Y11339724D01*
X33626945Y11339720D01*
X33623947Y11333335D01*
X33622862Y11326367D01*
X33622861Y11326363D01*
X33622370Y11323206D01*
X33617247Y11303678D01*
X33613648Y11294078D01*
X33610274Y11248666D01*
X33610120Y11246600D01*
X33609213Y11238705D01*
X33607588Y11228270D01*
X33607587Y11228262D01*
X33607000Y11224489D01*
X33607000Y11208289D01*
X33606728Y11200953D01*
X33603024Y11151106D01*
X33604496Y11144211D01*
X33604496Y11144209D01*
X33604819Y11142697D01*
X33607000Y11122030D01*
X33607000Y10662322D01*
X33588093Y10604131D01*
X33578004Y10592318D01*
X31443582Y8457896D01*
X31433602Y8449922D01*
X31433617Y8449905D01*
X31428247Y8445335D01*
X31422281Y8441571D01*
X31417613Y8436286D01*
X31417610Y8436283D01*
X31386709Y8401293D01*
X31382509Y8396823D01*
X31370681Y8384995D01*
X31363903Y8375951D01*
X31358897Y8369802D01*
X31327378Y8334113D01*
X31323019Y8324830D01*
X31312628Y8307535D01*
X31306475Y8299325D01*
X31302355Y8288334D01*
X31289766Y8254755D01*
X31286681Y8247435D01*
X31269445Y8210723D01*
X31269444Y8210718D01*
X31266448Y8204338D01*
X31265364Y8197374D01*
X31264502Y8194555D01*
X31229407Y8144435D01*
X31169828Y8124500D01*
X30328326Y8124500D01*
X30255260Y8109966D01*
X30247152Y8104549D01*
X30247153Y8104549D01*
X30186309Y8063895D01*
X30172399Y8054601D01*
X30166980Y8046491D01*
X30162052Y8039116D01*
X30117034Y7971740D01*
X30102500Y7898674D01*
X30102500Y5817326D01*
X30117034Y5744260D01*
X30172399Y5661399D01*
X30255260Y5606034D01*
X30328326Y5591500D01*
X31150500Y5591500D01*
X31208691Y5572593D01*
X31244655Y5523093D01*
X31249500Y5492500D01*
X31249500Y2534322D01*
X31230593Y2476131D01*
X31220504Y2464318D01*
X31067682Y2311496D01*
X31013165Y2283719D01*
X30997678Y2282500D01*
X30201326Y2282500D01*
X30128260Y2267966D01*
X30045399Y2212601D01*
X29990034Y2129740D01*
X29975500Y2056674D01*
X29975500Y483326D01*
X29990034Y410260D01*
X30045399Y327399D01*
X30128260Y272034D01*
X30201326Y257500D01*
X30338500Y257500D01*
X30396691Y238593D01*
X30432655Y189093D01*
X30437500Y158500D01*
X30437500Y-158500D01*
X30418593Y-216691D01*
X30369093Y-252655D01*
X30338500Y-257500D01*
X30201326Y-257500D01*
X30128260Y-272034D01*
X30045399Y-327399D01*
X29990034Y-410260D01*
X29975500Y-483326D01*
X29975500Y-2056674D01*
X21332500Y-2056674D01*
X21332500Y-483326D01*
X21317966Y-410260D01*
X21262601Y-327399D01*
X21179740Y-272034D01*
X21106674Y-257500D01*
X20969500Y-257500D01*
X20911309Y-238593D01*
X20875345Y-189093D01*
X20870500Y-158500D01*
X20870500Y158500D01*
X20889407Y216691D01*
X20938907Y252655D01*
X20969500Y257500D01*
X21106674Y257500D01*
X21179740Y272034D01*
X21262601Y327399D01*
X21317966Y410260D01*
X21332500Y483326D01*
X21332500Y2056674D01*
X21317966Y2129740D01*
X21262601Y2212601D01*
X21179740Y2267966D01*
X21106674Y2282500D01*
X20538500Y2282500D01*
X20480309Y2301407D01*
X20444345Y2350907D01*
X20439500Y2381500D01*
X20439500Y5238500D01*
X20458407Y5296691D01*
X20507907Y5332655D01*
X20538500Y5337500D01*
X20725674Y5337500D01*
X20798740Y5352034D01*
X20881601Y5407399D01*
X20936966Y5490260D01*
X20951500Y5563326D01*
X20951500Y7644674D01*
X20936966Y7717740D01*
X20899136Y7774358D01*
X20887020Y7792491D01*
X20881601Y7800601D01*
X20798740Y7855966D01*
X20725674Y7870500D01*
X19845028Y7870500D01*
X19786837Y7889407D01*
X19775024Y7899496D01*
X18352202Y9322318D01*
X18324425Y9376835D01*
X18323206Y9392322D01*
X18323206Y11383628D01*
X18324625Y11396329D01*
X18324603Y11396331D01*
X18325169Y11403363D01*
X18326725Y11410241D01*
X18325073Y11436862D01*
X28554754Y11436862D01*
X28555409Y11430929D01*
X28555409Y11430925D01*
X28568601Y11311436D01*
X28572031Y11280367D01*
X28580210Y11258016D01*
X28624055Y11138205D01*
X28626139Y11132510D01*
X28632824Y11122561D01*
X28710625Y11006781D01*
X28710628Y11006777D01*
X28713954Y11001828D01*
X28718365Y10997814D01*
X28718367Y10997812D01*
X28805583Y10918452D01*
X28830406Y10895865D01*
X28879148Y10869400D01*
X28963526Y10823586D01*
X28963528Y10823585D01*
X28968772Y10820738D01*
X29032700Y10803967D01*
X29115296Y10782298D01*
X29115300Y10782298D01*
X29121065Y10780785D01*
X29127026Y10780691D01*
X29127029Y10780691D01*
X29199778Y10779548D01*
X29278491Y10778312D01*
X29289289Y10780785D01*
X29426145Y10812129D01*
X29426147Y10812130D01*
X29431964Y10813462D01*
X29437290Y10816141D01*
X29437299Y10816144D01*
X29493801Y10844562D01*
X29554282Y10853817D01*
X29608652Y10825754D01*
X29635380Y10775433D01*
X29648404Y10709960D01*
X29703769Y10627099D01*
X29711879Y10621680D01*
X29738144Y10604131D01*
X29786630Y10571734D01*
X29859696Y10557200D01*
X31608304Y10557200D01*
X31681370Y10571734D01*
X31729856Y10604131D01*
X31756121Y10621680D01*
X31764231Y10627099D01*
X31819596Y10709960D01*
X31834130Y10783026D01*
X31834130Y12132854D01*
X31819596Y12205920D01*
X31764231Y12288781D01*
X31748080Y12299573D01*
X31689477Y12338729D01*
X31689478Y12338729D01*
X31681370Y12344146D01*
X31608304Y12358680D01*
X29859696Y12358680D01*
X29786630Y12344146D01*
X29778522Y12338729D01*
X29778523Y12338729D01*
X29719921Y12299573D01*
X29703769Y12288781D01*
X29648404Y12205920D01*
X29633870Y12132854D01*
X29633870Y12106100D01*
X29614963Y12047909D01*
X29565463Y12011945D01*
X29504277Y12011945D01*
X29488544Y12018608D01*
X29450104Y12038961D01*
X29444827Y12041755D01*
X29368475Y12060933D01*
X29297914Y12078657D01*
X29297911Y12078657D01*
X29292124Y12080111D01*
X29212560Y12080527D01*
X29140646Y12080904D01*
X29140644Y12080904D01*
X29134680Y12080935D01*
X28981584Y12044180D01*
X28909031Y12006733D01*
X28846981Y11974707D01*
X28846979Y11974705D01*
X28841675Y11971968D01*
X28723030Y11868467D01*
X28632497Y11739652D01*
X28575305Y11592961D01*
X28574527Y11587050D01*
X28574526Y11587047D01*
X28566140Y11523348D01*
X28554754Y11436862D01*
X18325073Y11436862D01*
X18324555Y11445209D01*
X18339822Y11504458D01*
X18386999Y11543419D01*
X18423365Y11550340D01*
X20025904Y11550340D01*
X20098970Y11564874D01*
X20165934Y11609617D01*
X20173721Y11614820D01*
X20181831Y11620239D01*
X20200047Y11647501D01*
X20248094Y11685380D01*
X20282362Y11691500D01*
X20373145Y11691500D01*
X20431336Y11672593D01*
X20439773Y11665724D01*
X20441301Y11664334D01*
X20448410Y11657865D01*
X20453654Y11655018D01*
X20453655Y11655017D01*
X20581530Y11585586D01*
X20581532Y11585585D01*
X20586776Y11582738D01*
X20662120Y11562972D01*
X20733300Y11544298D01*
X20733304Y11544298D01*
X20739069Y11542785D01*
X20745030Y11542691D01*
X20745033Y11542691D01*
X20817782Y11541549D01*
X20896495Y11540312D01*
X20910061Y11543419D01*
X21044149Y11574129D01*
X21044151Y11574130D01*
X21049968Y11575462D01*
X21056808Y11578902D01*
X21185299Y11643526D01*
X21185301Y11643527D01*
X21190625Y11646205D01*
X21208957Y11661862D01*
X21305810Y11744582D01*
X21305811Y11744583D01*
X21310348Y11748458D01*
X21387682Y11856080D01*
X21398740Y11871468D01*
X21398741Y11871470D01*
X21402224Y11876317D01*
X21428640Y11942027D01*
X21458726Y12016869D01*
X21458727Y12016871D01*
X21460950Y12022402D01*
X21463705Y12041755D01*
X21482678Y12175071D01*
X21482678Y12175075D01*
X21483134Y12178277D01*
X21483278Y12192000D01*
X21467972Y12318481D01*
X21465080Y12342384D01*
X21465079Y12342387D01*
X21464363Y12348306D01*
X21424392Y12454088D01*
X21410820Y12490004D01*
X21408710Y12495588D01*
X21319531Y12625343D01*
X21315078Y12629310D01*
X21315075Y12629314D01*
X21241406Y12694950D01*
X21201976Y12730081D01*
X21189464Y12736706D01*
X21068105Y12800963D01*
X21068102Y12800964D01*
X21062831Y12803755D01*
X20986479Y12822933D01*
X20915918Y12840657D01*
X20915915Y12840657D01*
X20910128Y12842111D01*
X20830564Y12842527D01*
X20758650Y12842904D01*
X20758648Y12842904D01*
X20752684Y12842935D01*
X20599588Y12806180D01*
X20529634Y12770074D01*
X20464983Y12736706D01*
X20464980Y12736704D01*
X20459679Y12733968D01*
X20455182Y12730045D01*
X20440112Y12716898D01*
X20383833Y12692892D01*
X20375031Y12692500D01*
X20350730Y12692500D01*
X20292539Y12711407D01*
X20256575Y12760907D01*
X20251730Y12791500D01*
X20251730Y13125994D01*
X20237196Y13199060D01*
X20181831Y13281921D01*
X20173247Y13287657D01*
X20123087Y13321172D01*
X20098970Y13337286D01*
X20025904Y13351820D01*
X18277296Y13351820D01*
X18204230Y13337286D01*
X18180113Y13321172D01*
X18129954Y13287657D01*
X18121369Y13281921D01*
X18066004Y13199060D01*
X18051470Y13125994D01*
X18051470Y12168852D01*
X18032563Y12110661D01*
X17983063Y12074697D01*
X17921877Y12074697D01*
X17882466Y12098848D01*
X15963996Y14017318D01*
X15936219Y14071835D01*
X15935000Y14087322D01*
X15935000Y14502674D01*
X15920466Y14575740D01*
X15881365Y14634260D01*
X15870520Y14650491D01*
X15865101Y14658601D01*
X15839346Y14675810D01*
X15813698Y14692947D01*
X15782240Y14713966D01*
X15709174Y14728500D01*
X14262826Y14728500D01*
X14189760Y14713966D01*
X14158302Y14692947D01*
X14132655Y14675810D01*
X14106899Y14658601D01*
X14101480Y14650491D01*
X14090635Y14634260D01*
X14051534Y14575740D01*
X14037000Y14502674D01*
X14037000Y13643322D01*
X14018093Y13585131D01*
X13968593Y13549167D01*
X13907407Y13549167D01*
X13867996Y13573318D01*
X13423996Y14017318D01*
X13396219Y14071835D01*
X13395000Y14087322D01*
X13395000Y14502674D01*
X13380466Y14575740D01*
X13341365Y14634260D01*
X13330520Y14650491D01*
X13325101Y14658601D01*
X13299346Y14675810D01*
X13273698Y14692947D01*
X13242240Y14713966D01*
X13169174Y14728500D01*
X11722826Y14728500D01*
X11649760Y14713966D01*
X11618302Y14692947D01*
X11592655Y14675810D01*
X11566899Y14658601D01*
X11561480Y14650491D01*
X11550635Y14634260D01*
X11511534Y14575740D01*
X11497000Y14502674D01*
X11497000Y13564326D01*
X6079800Y13564326D01*
X6079800Y14502674D01*
X6065266Y14575740D01*
X6026165Y14634260D01*
X6015320Y14650491D01*
X6009901Y14658601D01*
X5984146Y14675810D01*
X5958498Y14692947D01*
X5927040Y14713966D01*
X5853974Y14728500D01*
X4407626Y14728500D01*
X4334560Y14713966D01*
X4303102Y14692947D01*
X4277455Y14675810D01*
X4251699Y14658601D01*
X4246280Y14650491D01*
X4235435Y14634260D01*
X4196334Y14575740D01*
X4181800Y14502674D01*
X4181800Y13643322D01*
X4162893Y13585131D01*
X4113393Y13549167D01*
X4052207Y13549167D01*
X4012796Y13573318D01*
X3568796Y14017318D01*
X3541019Y14071835D01*
X3539800Y14087322D01*
X3539800Y14502674D01*
X3525266Y14575740D01*
X3486165Y14634260D01*
X3475320Y14650491D01*
X3469901Y14658601D01*
X3444146Y14675810D01*
X3418498Y14692947D01*
X3387040Y14713966D01*
X3313974Y14728500D01*
X1867626Y14728500D01*
X1794560Y14713966D01*
X1763102Y14692947D01*
X1737455Y14675810D01*
X1711699Y14658601D01*
X1706280Y14650491D01*
X1695435Y14634260D01*
X1656334Y14575740D01*
X1641800Y14502674D01*
X1641800Y13564326D01*
X-4575500Y13564326D01*
X-4575500Y15146746D01*
X-1303330Y15146746D01*
X-1288796Y15073680D01*
X-1233431Y14990819D01*
X-1225321Y14985400D01*
X-1192449Y14963436D01*
X-1150570Y14935454D01*
X-1077504Y14920920D01*
X671104Y14920920D01*
X744170Y14935454D01*
X786049Y14963436D01*
X818921Y14985400D01*
X827031Y14990819D01*
X882396Y15073680D01*
X896930Y15146746D01*
X896930Y15222160D01*
X915837Y15280351D01*
X965337Y15316315D01*
X995930Y15321160D01*
X1670052Y15321160D01*
X1725053Y15304476D01*
X1733030Y15299146D01*
X1794560Y15258034D01*
X1867626Y15243500D01*
X3313974Y15243500D01*
X3387040Y15258034D01*
X3469901Y15313399D01*
X3525266Y15396260D01*
X3539800Y15469326D01*
X3539800Y16407674D01*
X3525266Y16480740D01*
X3487007Y16538000D01*
X3475320Y16555491D01*
X3469901Y16563601D01*
X3387040Y16618966D01*
X3313974Y16633500D01*
X3190300Y16633500D01*
X3132109Y16652407D01*
X3096145Y16701907D01*
X3091300Y16732500D01*
X3091300Y17217809D01*
X3095202Y17237415D01*
X3093466Y17237760D01*
X3100754Y17274398D01*
X3108000Y17310826D01*
X3108000Y18757174D01*
X3093466Y18830240D01*
X3038101Y18913101D01*
X3023931Y18922569D01*
X2957499Y18966957D01*
X2919619Y19015007D01*
X2913500Y19049273D01*
X2913500Y19558727D01*
X2932407Y19616918D01*
X2957499Y19641043D01*
X3029991Y19689480D01*
X3038101Y19694899D01*
X3093466Y19777760D01*
X3108000Y19850826D01*
X3108000Y20520178D01*
X3126907Y20578369D01*
X3136996Y20590182D01*
X3180065Y20633251D01*
X3234582Y20661028D01*
X3295014Y20651457D01*
X3325067Y20627871D01*
X3334892Y20616469D01*
X3343600Y20606363D01*
X3350394Y20601959D01*
X3350811Y20601689D01*
X3366968Y20588618D01*
X3873404Y20082182D01*
X3901181Y20027665D01*
X3902400Y20012178D01*
X3902400Y19088826D01*
X3916934Y19015760D01*
X3972299Y18932899D01*
X3980409Y18927480D01*
X4052901Y18879043D01*
X4090781Y18830993D01*
X4096900Y18796727D01*
X4096900Y18795273D01*
X4077993Y18737082D01*
X4052901Y18712957D01*
X3988540Y18669953D01*
X3972299Y18659101D01*
X3966880Y18650991D01*
X3961516Y18642963D01*
X3916934Y18576240D01*
X3902400Y18503174D01*
X3902400Y17056826D01*
X3916934Y16983760D01*
X3922351Y16975653D01*
X3960245Y16918940D01*
X3972299Y16900899D01*
X3980409Y16895480D01*
X4052901Y16847043D01*
X4090781Y16798993D01*
X4096900Y16764727D01*
X4096900Y16539066D01*
X4095481Y16526365D01*
X4095503Y16526363D01*
X4094937Y16519331D01*
X4093381Y16512453D01*
X4095732Y16474560D01*
X4096710Y16458798D01*
X4096900Y16452667D01*
X4096900Y16435960D01*
X4097399Y16432473D01*
X4097400Y16432465D01*
X4098501Y16424779D01*
X4099311Y16416876D01*
X4101309Y16384679D01*
X4102259Y16369362D01*
X4104652Y16362733D01*
X4104653Y16362729D01*
X4105742Y16359713D01*
X4110623Y16340137D01*
X4112077Y16329982D01*
X4114996Y16323563D01*
X4114997Y16323558D01*
X4131781Y16286643D01*
X4134777Y16279285D01*
X4135248Y16277980D01*
X4150940Y16234513D01*
X4156992Y16226228D01*
X4167168Y16208814D01*
X4171416Y16199472D01*
X4171417Y16199470D01*
X4171418Y16199469D01*
X4169398Y16198551D01*
X4181800Y16156142D01*
X4181800Y15469326D01*
X4196334Y15396260D01*
X4251699Y15313399D01*
X4334560Y15258034D01*
X4407626Y15243500D01*
X5081124Y15243500D01*
X5117569Y15236548D01*
X5182481Y15210847D01*
X5182483Y15210847D01*
X5188753Y15208364D01*
X5195461Y15207659D01*
X5332045Y15193304D01*
X5332046Y15193304D01*
X5338754Y15192599D01*
X5368355Y15197605D01*
X5480821Y15216627D01*
X5480824Y15216628D01*
X5487470Y15217752D01*
X5522165Y15234078D01*
X5564317Y15243500D01*
X5853974Y15243500D01*
X5927040Y15258034D01*
X6009901Y15313399D01*
X6012138Y15310051D01*
X6049783Y15329232D01*
X6110215Y15319661D01*
X6153480Y15276396D01*
X6163383Y15235148D01*
X6163793Y15235188D01*
X6164085Y15232221D01*
X6164270Y15231451D01*
X6164270Y15225486D01*
X6178804Y15152420D01*
X6234169Y15069559D01*
X6242279Y15064140D01*
X6261334Y15051408D01*
X6317030Y15014194D01*
X6390096Y14999660D01*
X8138704Y14999660D01*
X8211770Y15014194D01*
X8267466Y15051408D01*
X8286521Y15064140D01*
X8294631Y15069559D01*
X8349996Y15152420D01*
X8364530Y15225486D01*
X8364530Y16575314D01*
X8349996Y16648380D01*
X8301172Y16721452D01*
X8300050Y16723131D01*
X8294631Y16731241D01*
X8284953Y16737708D01*
X8219877Y16781189D01*
X8219878Y16781189D01*
X8211770Y16786606D01*
X8138704Y16801140D01*
X7246060Y16801140D01*
X7187869Y16820047D01*
X7151905Y16869547D01*
X7151905Y16930733D01*
X7163744Y16955140D01*
X7177448Y16975650D01*
X7177449Y16975653D01*
X7182866Y16983760D01*
X7197400Y17056826D01*
X7197400Y18503174D01*
X7182866Y18576240D01*
X7138284Y18642963D01*
X7132920Y18650991D01*
X7127501Y18659101D01*
X7111260Y18669953D01*
X7046899Y18712957D01*
X7009019Y18761007D01*
X7002900Y18795273D01*
X7002900Y18796727D01*
X7021807Y18854918D01*
X7046899Y18879043D01*
X7119391Y18927480D01*
X7127501Y18932899D01*
X7182866Y19015760D01*
X7197400Y19088826D01*
X7197400Y20535174D01*
X7182866Y20608240D01*
X7136556Y20677549D01*
X7132920Y20682991D01*
X7127501Y20691101D01*
X7108243Y20703969D01*
X7052747Y20741049D01*
X7052748Y20741049D01*
X7044640Y20746466D01*
X6971574Y20761000D01*
X6403821Y20761000D01*
X6345630Y20779907D01*
X6333817Y20789996D01*
X5659496Y21464318D01*
X5631719Y21518835D01*
X5630500Y21534322D01*
X5630500Y21575500D01*
X5649407Y21633691D01*
X5698907Y21669655D01*
X5729500Y21674500D01*
X6227674Y21674500D01*
X6300740Y21689034D01*
X6328850Y21707816D01*
X6383850Y21724500D01*
X6725838Y21724500D01*
X6738539Y21723081D01*
X6738541Y21723103D01*
X6745573Y21722537D01*
X6752451Y21720981D01*
X6806105Y21724310D01*
X6812237Y21724500D01*
X6828944Y21724500D01*
X6832431Y21724999D01*
X6832439Y21725000D01*
X6840125Y21726101D01*
X6848028Y21726911D01*
X6888505Y21729422D01*
X6888508Y21729423D01*
X6895542Y21729859D01*
X6902171Y21732252D01*
X6902175Y21732253D01*
X6905191Y21733342D01*
X6924767Y21738223D01*
X6925959Y21738394D01*
X6927940Y21738677D01*
X6927941Y21738677D01*
X6934922Y21739677D01*
X6941341Y21742596D01*
X6941346Y21742597D01*
X6978261Y21759381D01*
X6985619Y21762377D01*
X7019114Y21774469D01*
X7030391Y21778540D01*
X7038676Y21784592D01*
X7056090Y21794768D01*
X7065432Y21799016D01*
X7088802Y21819153D01*
X7101499Y21830093D01*
X7107720Y21835033D01*
X7108150Y21835347D01*
X7119340Y21843522D01*
X7130804Y21854986D01*
X7136185Y21859981D01*
X7168697Y21887995D01*
X7168698Y21887996D01*
X7174041Y21892600D01*
X7178715Y21899811D01*
X7191786Y21915968D01*
X8688419Y23412601D01*
X8698399Y23420575D01*
X8698384Y23420592D01*
X8703751Y23425160D01*
X8709720Y23428926D01*
X8721382Y23442130D01*
X8774074Y23473229D01*
X8834982Y23467417D01*
X8865588Y23446598D01*
X9123605Y23188581D01*
X9131579Y23178601D01*
X9131596Y23178616D01*
X9136166Y23173246D01*
X9139930Y23167280D01*
X9145215Y23162612D01*
X9145218Y23162609D01*
X9180208Y23131708D01*
X9184678Y23127508D01*
X9196506Y23115680D01*
X9205550Y23108902D01*
X9211699Y23103896D01*
X9247388Y23072377D01*
X9256671Y23068018D01*
X9273966Y23057627D01*
X9282176Y23051474D01*
X9288782Y23048998D01*
X9288783Y23048997D01*
X9326752Y23034763D01*
X9334074Y23031677D01*
X9370775Y23014446D01*
X9370776Y23014446D01*
X9377163Y23011447D01*
X9387300Y23009869D01*
X9406816Y23004748D01*
X9409816Y23003623D01*
X9409818Y23003623D01*
X9416419Y23001148D01*
X9463904Y22997619D01*
X9471792Y22996713D01*
X9482228Y22995088D01*
X9482236Y22995087D01*
X9486009Y22994500D01*
X9502208Y22994500D01*
X9509545Y22994228D01*
X9559391Y22990524D01*
X9566286Y22991996D01*
X9566288Y22991996D01*
X9567800Y22992319D01*
X9588467Y22994500D01*
X9872150Y22994500D01*
X9927150Y22977816D01*
X9955260Y22959034D01*
X9964993Y22957098D01*
X9965245Y22956957D01*
X9973832Y22953400D01*
X9973411Y22952384D01*
X10018377Y22927201D01*
X10043993Y22871636D01*
X10032056Y22811627D01*
X9987126Y22770094D01*
X9964993Y22762902D01*
X9955260Y22760966D01*
X9928220Y22742899D01*
X9888352Y22716260D01*
X9872399Y22705601D01*
X9866980Y22697491D01*
X9850639Y22673035D01*
X9817034Y22622740D01*
X9802500Y22549674D01*
X9802500Y22288473D01*
X9783593Y22230282D01*
X9734093Y22194318D01*
X9702982Y22189474D01*
X9699735Y22189491D01*
X9582650Y22190104D01*
X9582648Y22190104D01*
X9576684Y22190135D01*
X9423588Y22153380D01*
X9379367Y22130556D01*
X9288985Y22083907D01*
X9288983Y22083905D01*
X9283679Y22081168D01*
X9165034Y21977667D01*
X9074501Y21848852D01*
X9017309Y21702161D01*
X9016531Y21696250D01*
X9016530Y21696247D01*
X9006150Y21617397D01*
X8978001Y21560315D01*
X8499782Y21082096D01*
X8445265Y21054319D01*
X8429778Y21053100D01*
X7760426Y21053100D01*
X7687360Y21038566D01*
X7668341Y21025858D01*
X7625807Y20997438D01*
X7604499Y20983201D01*
X7549134Y20900340D01*
X7534600Y20827274D01*
X7534600Y19888926D01*
X7549134Y19815860D01*
X7604499Y19732999D01*
X7687360Y19677634D01*
X7760426Y19663100D01*
X9206774Y19663100D01*
X9279840Y19677634D01*
X9362701Y19732999D01*
X9418066Y19815860D01*
X9432600Y19888926D01*
X9432600Y20558278D01*
X9451507Y20616469D01*
X9461596Y20628282D01*
X9613496Y20780182D01*
X9668013Y20807959D01*
X9728445Y20798388D01*
X9771710Y20755123D01*
X9782500Y20710178D01*
X9782500Y19342826D01*
X9797034Y19269760D01*
X9852399Y19186899D01*
X9860509Y19181480D01*
X9933001Y19133043D01*
X9970881Y19084993D01*
X9977000Y19050727D01*
X9977000Y18795273D01*
X9958093Y18737082D01*
X9933001Y18712957D01*
X9868640Y18669953D01*
X9852399Y18659101D01*
X9846980Y18650991D01*
X9841616Y18642963D01*
X9797034Y18576240D01*
X9782500Y18503174D01*
X9782500Y17056826D01*
X9786500Y17036717D01*
X9795173Y16993114D01*
X9787981Y16932353D01*
X9746448Y16887423D01*
X9698075Y16874800D01*
X9031696Y16874800D01*
X8958630Y16860266D01*
X8938840Y16847043D01*
X8885448Y16811368D01*
X8875769Y16804901D01*
X8820404Y16722040D01*
X8805870Y16648974D01*
X8805870Y15299146D01*
X8820404Y15226080D01*
X8875769Y15143219D01*
X8958630Y15087854D01*
X9031696Y15073320D01*
X10780304Y15073320D01*
X10853370Y15087854D01*
X10936231Y15143219D01*
X10991596Y15226080D01*
X11006130Y15299146D01*
X11006130Y15374560D01*
X11025037Y15432751D01*
X11074537Y15468715D01*
X11105130Y15473560D01*
X11415424Y15473560D01*
X11473615Y15454653D01*
X11506888Y15412446D01*
X11509632Y15405822D01*
X11511534Y15396260D01*
X11566899Y15313399D01*
X11649760Y15258034D01*
X11722826Y15243500D01*
X13169174Y15243500D01*
X13242240Y15258034D01*
X13325101Y15313399D01*
X13380466Y15396260D01*
X13395000Y15469326D01*
X13395000Y16407674D01*
X13380466Y16480740D01*
X13342207Y16538000D01*
X13330520Y16555491D01*
X13325101Y16563601D01*
X13242240Y16618966D01*
X13169174Y16633500D01*
X13045500Y16633500D01*
X12987309Y16652407D01*
X12951345Y16701907D01*
X12946500Y16732500D01*
X12946500Y16807156D01*
X12965407Y16865347D01*
X12990499Y16889472D01*
X12999491Y16895480D01*
X13007601Y16900899D01*
X13019656Y16918940D01*
X13057549Y16975653D01*
X13062966Y16983760D01*
X13077500Y17056826D01*
X13077500Y18503174D01*
X13062966Y18576240D01*
X13018384Y18642963D01*
X13013020Y18650991D01*
X13007601Y18659101D01*
X12991360Y18669953D01*
X12926999Y18712957D01*
X12889119Y18761007D01*
X12883000Y18795273D01*
X12883000Y19050727D01*
X12901907Y19108918D01*
X12926999Y19133043D01*
X12999491Y19181480D01*
X13007601Y19186899D01*
X13062966Y19269760D01*
X13077500Y19342826D01*
X13077500Y20202678D01*
X13096407Y20260869D01*
X13106496Y20272682D01*
X13260419Y20426605D01*
X13270399Y20434579D01*
X13270384Y20434596D01*
X13275754Y20439166D01*
X13281720Y20442930D01*
X13286388Y20448215D01*
X13286391Y20448218D01*
X13317292Y20483208D01*
X13321492Y20487678D01*
X13333320Y20499506D01*
X13340100Y20508553D01*
X13345112Y20514708D01*
X13359795Y20531334D01*
X13412486Y20562435D01*
X13473395Y20556625D01*
X13519256Y20516123D01*
X13533000Y20465801D01*
X13533000Y20065273D01*
X13514093Y20007082D01*
X13489001Y19982957D01*
X13416509Y19934520D01*
X13408399Y19929101D01*
X13402980Y19920991D01*
X13389480Y19900786D01*
X13353034Y19846240D01*
X13338500Y19773174D01*
X13338500Y18326826D01*
X13353034Y18253760D01*
X13358451Y18245653D01*
X13389501Y18199183D01*
X13408399Y18170899D01*
X13416509Y18165480D01*
X13489001Y18117043D01*
X13526881Y18068993D01*
X13533000Y18034727D01*
X13533000Y17902666D01*
X13531581Y17889965D01*
X13531603Y17889963D01*
X13531037Y17882931D01*
X13529481Y17876053D01*
X13529918Y17869015D01*
X13532810Y17822398D01*
X13533000Y17816267D01*
X13533000Y17799560D01*
X13533499Y17796073D01*
X13533500Y17796065D01*
X13534601Y17788379D01*
X13535411Y17780476D01*
X13537041Y17754212D01*
X13538359Y17732962D01*
X13540752Y17726333D01*
X13540753Y17726329D01*
X13541842Y17723313D01*
X13546723Y17703737D01*
X13548177Y17693582D01*
X13551096Y17687163D01*
X13551097Y17687158D01*
X13567881Y17650243D01*
X13570877Y17642885D01*
X13587040Y17598113D01*
X13593092Y17589828D01*
X13603268Y17572414D01*
X13607516Y17563072D01*
X13612121Y17557728D01*
X13638593Y17527005D01*
X13643533Y17520784D01*
X13652022Y17509164D01*
X13663486Y17497700D01*
X13668481Y17492319D01*
X13690800Y17466417D01*
X13701100Y17454463D01*
X13707020Y17450626D01*
X13708311Y17449789D01*
X13724468Y17436718D01*
X14358682Y16802504D01*
X14386459Y16747987D01*
X14376888Y16687555D01*
X14333623Y16644290D01*
X14288678Y16633500D01*
X14262826Y16633500D01*
X14189760Y16618966D01*
X14106899Y16563601D01*
X14101480Y16555491D01*
X14089793Y16538000D01*
X14051534Y16480740D01*
X14037000Y16407674D01*
X14037000Y15469326D01*
X14051534Y15396260D01*
X14106899Y15313399D01*
X14189760Y15258034D01*
X14262826Y15243500D01*
X15709174Y15243500D01*
X15782240Y15258034D01*
X15865101Y15313399D01*
X15905967Y15374560D01*
X15918957Y15394001D01*
X15967007Y15431881D01*
X16001273Y15438000D01*
X17952470Y15438000D01*
X18010661Y15419093D01*
X18046625Y15369593D01*
X18051470Y15339000D01*
X18051470Y15276286D01*
X18066004Y15203220D01*
X18088252Y15169923D01*
X18106921Y15141983D01*
X18121369Y15120359D01*
X18129479Y15114940D01*
X18149414Y15101620D01*
X18204230Y15064994D01*
X18277296Y15050460D01*
X20025904Y15050460D01*
X20098970Y15064994D01*
X20153786Y15101620D01*
X20173721Y15114940D01*
X20181831Y15120359D01*
X20196280Y15141983D01*
X20214948Y15169923D01*
X20237196Y15203220D01*
X20251730Y15276286D01*
X20251730Y16305525D01*
X20270637Y16363716D01*
X20320137Y16399680D01*
X20381323Y16399680D01*
X20409497Y16383767D01*
X20410180Y16384679D01*
X20419222Y16377902D01*
X20425371Y16372896D01*
X20461060Y16341377D01*
X20470343Y16337018D01*
X20487638Y16326627D01*
X20495848Y16320474D01*
X20502454Y16317998D01*
X20502455Y16317997D01*
X20540424Y16303763D01*
X20547746Y16300677D01*
X20584447Y16283446D01*
X20584448Y16283446D01*
X20590835Y16280447D01*
X20600972Y16278869D01*
X20620488Y16273748D01*
X20623488Y16272623D01*
X20623490Y16272623D01*
X20630091Y16270148D01*
X20677576Y16266619D01*
X20685464Y16265713D01*
X20695900Y16264088D01*
X20695908Y16264087D01*
X20699681Y16263500D01*
X20715880Y16263500D01*
X20723217Y16263228D01*
X20773063Y16259524D01*
X20779958Y16260996D01*
X20779960Y16260996D01*
X20781472Y16261319D01*
X20802139Y16263500D01*
X22107650Y16263500D01*
X22162650Y16246816D01*
X22190760Y16228034D01*
X22263826Y16213500D01*
X23456174Y16213500D01*
X23529240Y16228034D01*
X23579795Y16261813D01*
X23603991Y16277980D01*
X23612101Y16283399D01*
X23624776Y16302368D01*
X23662049Y16358153D01*
X23667466Y16366260D01*
X23682000Y16439326D01*
X23682000Y17088674D01*
X23667466Y17161740D01*
X23612101Y17244601D01*
X23591011Y17258693D01*
X23538923Y17293496D01*
X23529240Y17299966D01*
X23456174Y17314500D01*
X22263826Y17314500D01*
X22190760Y17299966D01*
X22181077Y17293496D01*
X22162650Y17281184D01*
X22107650Y17264500D01*
X20986993Y17264500D01*
X20928802Y17283407D01*
X20916989Y17293496D01*
X20501160Y17709326D01*
X28388000Y17709326D01*
X28402534Y17636260D01*
X28407951Y17628153D01*
X28445108Y17572543D01*
X28457899Y17553399D01*
X28466009Y17547980D01*
X28487680Y17533500D01*
X28540760Y17498034D01*
X28613826Y17483500D01*
X29806174Y17483500D01*
X29879240Y17498034D01*
X29907350Y17516816D01*
X29962350Y17533500D01*
X30279145Y17533500D01*
X30337336Y17514593D01*
X30345773Y17507724D01*
X30354410Y17499865D01*
X30359654Y17497018D01*
X30359655Y17497017D01*
X30487530Y17427586D01*
X30487532Y17427585D01*
X30492776Y17424738D01*
X30572534Y17403814D01*
X30639300Y17386298D01*
X30639304Y17386298D01*
X30645069Y17384785D01*
X30651030Y17384691D01*
X30651033Y17384691D01*
X30723782Y17383548D01*
X30802495Y17382312D01*
X30819899Y17386298D01*
X30950149Y17416129D01*
X30950151Y17416130D01*
X30955968Y17417462D01*
X30961299Y17420143D01*
X31091299Y17485526D01*
X31091301Y17485527D01*
X31096625Y17488205D01*
X31114477Y17503452D01*
X31211810Y17586582D01*
X31211811Y17586583D01*
X31216348Y17590458D01*
X31295567Y17700703D01*
X31304740Y17713468D01*
X31304741Y17713470D01*
X31308224Y17718317D01*
X31314112Y17732962D01*
X31364726Y17858869D01*
X31364727Y17858871D01*
X31366950Y17864402D01*
X31384027Y17984388D01*
X31388678Y18017071D01*
X31388678Y18017075D01*
X31389134Y18020277D01*
X31389278Y18034000D01*
X31376849Y18136708D01*
X31371080Y18184384D01*
X31371079Y18184387D01*
X31370363Y18190306D01*
X31314710Y18337588D01*
X31253546Y18426581D01*
X31228912Y18462424D01*
X31228911Y18462425D01*
X31225531Y18467343D01*
X31221078Y18471310D01*
X31221075Y18471314D01*
X31136006Y18547107D01*
X31107976Y18572081D01*
X31100635Y18575968D01*
X30974105Y18642963D01*
X30974102Y18642964D01*
X30968831Y18645755D01*
X30892042Y18665043D01*
X30821918Y18682657D01*
X30821915Y18682657D01*
X30816128Y18684111D01*
X30736564Y18684527D01*
X30664650Y18684904D01*
X30664648Y18684904D01*
X30658684Y18684935D01*
X30536670Y18655642D01*
X30512003Y18649720D01*
X30505588Y18648180D01*
X30462026Y18625696D01*
X30370983Y18578706D01*
X30370980Y18578704D01*
X30365679Y18575968D01*
X30352590Y18564549D01*
X30346112Y18558898D01*
X30289833Y18534892D01*
X30281031Y18534500D01*
X29962350Y18534500D01*
X29907350Y18551184D01*
X29906527Y18551734D01*
X29879240Y18569966D01*
X29806174Y18584500D01*
X28613826Y18584500D01*
X28540760Y18569966D01*
X28457899Y18514601D01*
X28402534Y18431740D01*
X28388000Y18358674D01*
X28388000Y17709326D01*
X20501160Y17709326D01*
X20326530Y17883956D01*
X19717667Y18492819D01*
X19709693Y18502799D01*
X19709676Y18502784D01*
X19705107Y18508152D01*
X19701342Y18514120D01*
X19661063Y18549693D01*
X19656593Y18553893D01*
X19644766Y18565720D01*
X19635719Y18572500D01*
X19629573Y18577504D01*
X19593884Y18609023D01*
X19584601Y18613382D01*
X19567306Y18623773D01*
X19559096Y18629926D01*
X19537319Y18638090D01*
X19514526Y18646635D01*
X19507206Y18649720D01*
X19470498Y18666954D01*
X19470494Y18666955D01*
X19464109Y18669953D01*
X19457141Y18671038D01*
X19457137Y18671039D01*
X19453980Y18671530D01*
X19434452Y18676653D01*
X19431452Y18677778D01*
X19431450Y18677778D01*
X19424852Y18680252D01*
X19377364Y18683781D01*
X19369479Y18684687D01*
X19359044Y18686312D01*
X19359036Y18686313D01*
X19355263Y18686900D01*
X19339063Y18686900D01*
X19331727Y18687172D01*
X19328437Y18687416D01*
X19281880Y18690876D01*
X19274985Y18689404D01*
X19274983Y18689404D01*
X19273471Y18689081D01*
X19252804Y18686900D01*
X19046660Y18686900D01*
X18988469Y18705807D01*
X18980801Y18711984D01*
X18979709Y18712957D01*
X18966775Y18724481D01*
X18939894Y18738714D01*
X18832904Y18795363D01*
X18832901Y18795364D01*
X18827630Y18798155D01*
X18745661Y18818744D01*
X18680717Y18835057D01*
X18680714Y18835057D01*
X18674927Y18836511D01*
X18595363Y18836927D01*
X18523449Y18837304D01*
X18523447Y18837304D01*
X18517483Y18837335D01*
X18419236Y18813748D01*
X18376550Y18803500D01*
X18364387Y18800580D01*
X18337720Y18786816D01*
X18229784Y18731107D01*
X18229782Y18731105D01*
X18224478Y18728368D01*
X18105833Y18624867D01*
X18015300Y18496052D01*
X17958108Y18349361D01*
X17957330Y18343450D01*
X17957329Y18343447D01*
X17950795Y18293814D01*
X17937557Y18193262D01*
X17938212Y18187329D01*
X17938212Y18187325D01*
X17946138Y18115534D01*
X17954834Y18036767D01*
X18008942Y17888910D01*
X18012271Y17883956D01*
X18093428Y17763181D01*
X18093431Y17763177D01*
X18096757Y17758228D01*
X18101168Y17754214D01*
X18101170Y17754212D01*
X18208794Y17656282D01*
X18213209Y17652265D01*
X18243156Y17636005D01*
X18346329Y17579986D01*
X18346331Y17579985D01*
X18351575Y17577138D01*
X18409713Y17561886D01*
X18498099Y17538698D01*
X18498103Y17538698D01*
X18503868Y17537185D01*
X18509829Y17537091D01*
X18509832Y17537091D01*
X18582581Y17535948D01*
X18661294Y17534712D01*
X18678698Y17538698D01*
X18808948Y17568529D01*
X18808950Y17568530D01*
X18814767Y17569862D01*
X18820098Y17572543D01*
X18950098Y17637926D01*
X18950100Y17637927D01*
X18955424Y17640605D01*
X18980685Y17662180D01*
X19037212Y17685595D01*
X19044980Y17685900D01*
X19067950Y17685900D01*
X19126141Y17666993D01*
X19137954Y17656904D01*
X19773914Y17020944D01*
X19801691Y16966427D01*
X19792120Y16905995D01*
X19748855Y16862730D01*
X19703910Y16851940D01*
X18277296Y16851940D01*
X18204230Y16837406D01*
X18182547Y16822918D01*
X18131048Y16788508D01*
X18121369Y16782041D01*
X18066004Y16699180D01*
X18051470Y16626114D01*
X18051470Y16538000D01*
X18032563Y16479809D01*
X17983063Y16443845D01*
X17952470Y16439000D01*
X16001273Y16439000D01*
X15943082Y16457907D01*
X15918957Y16482999D01*
X15870520Y16555491D01*
X15865101Y16563601D01*
X15782240Y16618966D01*
X15709174Y16633500D01*
X15585500Y16633500D01*
X15527309Y16652407D01*
X15491345Y16701907D01*
X15486500Y16732500D01*
X15486500Y16815839D01*
X15487919Y16828536D01*
X15487896Y16828538D01*
X15488462Y16835570D01*
X15490018Y16842448D01*
X15486690Y16896094D01*
X15486500Y16902223D01*
X15486500Y16918940D01*
X15486002Y16922420D01*
X15486001Y16922430D01*
X15484898Y16930136D01*
X15484089Y16938032D01*
X15481578Y16978499D01*
X15481578Y16978500D01*
X15481141Y16985539D01*
X15477657Y16995191D01*
X15472777Y17014766D01*
X15472323Y17017935D01*
X15471323Y17024918D01*
X15468405Y17031337D01*
X15468403Y17031342D01*
X15451616Y17068262D01*
X15448619Y17075624D01*
X15447895Y17077631D01*
X15432460Y17120387D01*
X15426408Y17128672D01*
X15416232Y17146086D01*
X15411984Y17155428D01*
X15380893Y17191511D01*
X15375957Y17197728D01*
X15369734Y17206247D01*
X15369732Y17206249D01*
X15367477Y17209336D01*
X15356020Y17220793D01*
X15351025Y17226174D01*
X15323005Y17258693D01*
X15323004Y17258694D01*
X15318400Y17264037D01*
X15311182Y17268716D01*
X15295029Y17281784D01*
X14592426Y17984388D01*
X14564649Y18038905D01*
X14574220Y18099337D01*
X14607430Y18136708D01*
X14650490Y18165479D01*
X14650491Y18165480D01*
X14658601Y18170899D01*
X14677500Y18199183D01*
X14708549Y18245653D01*
X14713966Y18253760D01*
X14728500Y18326826D01*
X14728500Y19773174D01*
X14713966Y19846240D01*
X14677520Y19900786D01*
X14664020Y19920991D01*
X14658601Y19929101D01*
X14650491Y19934520D01*
X14577999Y19982957D01*
X14540119Y20031007D01*
X14534000Y20065273D01*
X14534000Y20574727D01*
X14552907Y20632918D01*
X14577999Y20657043D01*
X14650491Y20705480D01*
X14658601Y20710899D01*
X14669023Y20726496D01*
X14704710Y20779907D01*
X14713966Y20793760D01*
X14728500Y20866826D01*
X14728500Y22313174D01*
X14713966Y22386240D01*
X14684308Y22430627D01*
X14664020Y22460991D01*
X14658601Y22469101D01*
X14650491Y22474520D01*
X14577999Y22522957D01*
X14540119Y22571007D01*
X14534000Y22605273D01*
X14534000Y24057788D01*
X14535419Y24070488D01*
X14535397Y24070490D01*
X14535963Y24077523D01*
X14537519Y24084401D01*
X14537082Y24091440D01*
X14537411Y24095526D01*
X14560923Y24152014D01*
X14613148Y24183892D01*
X14674136Y24178986D01*
X14706096Y24157592D01*
X18084003Y20779686D01*
X18111780Y20725169D01*
X18112999Y20709682D01*
X18112999Y20685665D01*
X18111580Y20672964D01*
X18111602Y20672962D01*
X18111036Y20665930D01*
X18109480Y20659052D01*
X18111482Y20626792D01*
X18112809Y20605397D01*
X18112999Y20599266D01*
X18112999Y20582559D01*
X18113498Y20579072D01*
X18113499Y20579064D01*
X18114600Y20571378D01*
X18115410Y20563475D01*
X18117703Y20526524D01*
X18118358Y20515961D01*
X18120751Y20509332D01*
X18120752Y20509328D01*
X18121841Y20506312D01*
X18126722Y20486736D01*
X18128176Y20476581D01*
X18131095Y20470162D01*
X18131096Y20470157D01*
X18147880Y20433242D01*
X18150876Y20425884D01*
X18167039Y20381112D01*
X18173091Y20372827D01*
X18183267Y20355413D01*
X18187515Y20346071D01*
X18192120Y20340727D01*
X18218592Y20310004D01*
X18223532Y20303783D01*
X18232021Y20292163D01*
X18243485Y20280699D01*
X18248480Y20275318D01*
X18273080Y20246769D01*
X18281099Y20237462D01*
X18287019Y20233625D01*
X18288310Y20232788D01*
X18304467Y20219717D01*
X19526603Y18997581D01*
X19534577Y18987601D01*
X19534594Y18987616D01*
X19539164Y18982246D01*
X19542928Y18976280D01*
X19548213Y18971612D01*
X19548216Y18971609D01*
X19583206Y18940708D01*
X19587676Y18936508D01*
X19599504Y18924680D01*
X19608548Y18917902D01*
X19614697Y18912896D01*
X19650386Y18881377D01*
X19659669Y18877018D01*
X19676964Y18866627D01*
X19685174Y18860474D01*
X19691780Y18857998D01*
X19691781Y18857997D01*
X19729750Y18843763D01*
X19737072Y18840677D01*
X19773773Y18823446D01*
X19773774Y18823446D01*
X19780161Y18820447D01*
X19790298Y18818869D01*
X19809814Y18813748D01*
X19812814Y18812623D01*
X19812816Y18812623D01*
X19819417Y18810148D01*
X19866902Y18806619D01*
X19874790Y18805713D01*
X19885226Y18804088D01*
X19885234Y18804087D01*
X19889007Y18803500D01*
X19905206Y18803500D01*
X19912543Y18803228D01*
X19962389Y18799524D01*
X19969284Y18800996D01*
X19969286Y18800996D01*
X19970798Y18801319D01*
X19991465Y18803500D01*
X22107650Y18803500D01*
X22162650Y18786816D01*
X22190760Y18768034D01*
X22263826Y18753500D01*
X23456174Y18753500D01*
X23529240Y18768034D01*
X23580034Y18801973D01*
X23603991Y18817980D01*
X23612101Y18823399D01*
X23618375Y18832788D01*
X23662049Y18898153D01*
X23667466Y18906260D01*
X23682000Y18979326D01*
X23682000Y19628674D01*
X23667466Y19701740D01*
X23612101Y19784601D01*
X23529240Y19839966D01*
X23456174Y19854500D01*
X22263826Y19854500D01*
X22190760Y19839966D01*
X22181077Y19833496D01*
X22162650Y19821184D01*
X22107650Y19804500D01*
X20176320Y19804500D01*
X20118129Y19823407D01*
X20106316Y19833496D01*
X19142995Y20796817D01*
X19115218Y20851334D01*
X19113999Y20866821D01*
X19113999Y20890837D01*
X19115418Y20903538D01*
X19115396Y20903540D01*
X19115962Y20910572D01*
X19117518Y20917450D01*
X19114189Y20971105D01*
X19113999Y20977236D01*
X19113999Y20993943D01*
X19113500Y20997430D01*
X19113499Y20997438D01*
X19112398Y21005124D01*
X19111588Y21013027D01*
X19109077Y21053504D01*
X19109076Y21053507D01*
X19108640Y21060541D01*
X19106247Y21067170D01*
X19106246Y21067174D01*
X19105157Y21070190D01*
X19100276Y21089767D01*
X19099822Y21092939D01*
X19099822Y21092940D01*
X19098822Y21099921D01*
X19095903Y21106340D01*
X19095902Y21106345D01*
X19079118Y21143260D01*
X19076122Y21150618D01*
X19065240Y21180762D01*
X19059959Y21195390D01*
X19053907Y21203675D01*
X19043731Y21221089D01*
X19039483Y21230431D01*
X19016268Y21257373D01*
X19008406Y21266498D01*
X19003466Y21272719D01*
X19000922Y21276201D01*
X18994977Y21284339D01*
X18983513Y21295803D01*
X18978518Y21301184D01*
X18950504Y21333696D01*
X18950503Y21333697D01*
X18945899Y21339040D01*
X18938688Y21343714D01*
X18922531Y21356785D01*
X18428454Y21850862D01*
X27030758Y21850862D01*
X27031413Y21844929D01*
X27031413Y21844925D01*
X27044865Y21723081D01*
X27048035Y21694367D01*
X27050683Y21687132D01*
X27094531Y21567312D01*
X27102143Y21546510D01*
X27105472Y21541556D01*
X27186629Y21420781D01*
X27186632Y21420777D01*
X27189958Y21415828D01*
X27194369Y21411814D01*
X27194371Y21411812D01*
X27296085Y21319260D01*
X27306410Y21309865D01*
X27368411Y21276201D01*
X27439530Y21237586D01*
X27439532Y21237585D01*
X27444776Y21234738D01*
X27508193Y21218101D01*
X27591300Y21196298D01*
X27591304Y21196298D01*
X27597069Y21194785D01*
X27603030Y21194691D01*
X27603033Y21194691D01*
X27675782Y21193549D01*
X27754495Y21192312D01*
X27776553Y21197364D01*
X27902149Y21226129D01*
X27902151Y21226130D01*
X27907968Y21227462D01*
X27913458Y21230223D01*
X28043299Y21295526D01*
X28043301Y21295527D01*
X28048625Y21298205D01*
X28057702Y21305957D01*
X28066477Y21313452D01*
X28073886Y21319780D01*
X28130413Y21343195D01*
X28138181Y21343500D01*
X28457650Y21343500D01*
X28512650Y21326816D01*
X28540760Y21308034D01*
X28550493Y21306098D01*
X28550745Y21305957D01*
X28559332Y21302400D01*
X28558911Y21301384D01*
X28603877Y21276201D01*
X28629493Y21220636D01*
X28617556Y21160627D01*
X28572626Y21119094D01*
X28550493Y21111902D01*
X28540760Y21109966D01*
X28515277Y21092939D01*
X28488769Y21075227D01*
X28457899Y21054601D01*
X28452480Y21046491D01*
X28450855Y21044059D01*
X28402534Y20971740D01*
X28388000Y20898674D01*
X28388000Y20249326D01*
X28402534Y20176260D01*
X28430516Y20134381D01*
X28447889Y20108381D01*
X28457899Y20093399D01*
X28466009Y20087980D01*
X28467142Y20087223D01*
X28540760Y20038034D01*
X28613826Y20023500D01*
X29806174Y20023500D01*
X29879240Y20038034D01*
X29907350Y20056816D01*
X29962350Y20073500D01*
X30214334Y20073500D01*
X30227035Y20072081D01*
X30227037Y20072103D01*
X30234069Y20071537D01*
X30240947Y20069981D01*
X30294601Y20073310D01*
X30300733Y20073500D01*
X30317440Y20073500D01*
X30320927Y20073999D01*
X30320935Y20074000D01*
X30328621Y20075101D01*
X30336524Y20075911D01*
X30377001Y20078422D01*
X30377004Y20078423D01*
X30384038Y20078859D01*
X30390667Y20081252D01*
X30390671Y20081253D01*
X30393687Y20082342D01*
X30413263Y20087223D01*
X30414455Y20087394D01*
X30416436Y20087677D01*
X30416437Y20087677D01*
X30423418Y20088677D01*
X30429837Y20091596D01*
X30429842Y20091597D01*
X30466757Y20108381D01*
X30474115Y20111377D01*
X30488310Y20116502D01*
X30518887Y20127540D01*
X30527172Y20133592D01*
X30544586Y20143768D01*
X30553928Y20148016D01*
X30587308Y20176778D01*
X30589995Y20179093D01*
X30596216Y20184033D01*
X30596646Y20184347D01*
X30607836Y20192522D01*
X30619300Y20203986D01*
X30624681Y20208981D01*
X30657193Y20236995D01*
X30657194Y20236996D01*
X30662537Y20241600D01*
X30667211Y20248811D01*
X30680282Y20264968D01*
X36951826Y26536512D01*
X37006343Y26564289D01*
X37021830Y26565508D01*
X38613678Y26565508D01*
X38671869Y26546601D01*
X38683682Y26536512D01*
X39094504Y26125690D01*
X39122281Y26071173D01*
X39123500Y26055686D01*
X39123500Y22628322D01*
X39104593Y22570131D01*
X39094504Y22558318D01*
X38782682Y22246496D01*
X38728165Y22218719D01*
X38712678Y22217500D01*
X38641850Y22217500D01*
X38586850Y22234184D01*
X38575541Y22241740D01*
X38558740Y22252966D01*
X38549007Y22254902D01*
X38548755Y22255043D01*
X38540168Y22258600D01*
X38540589Y22259616D01*
X38495623Y22284799D01*
X38470007Y22340364D01*
X38481944Y22400373D01*
X38526874Y22441906D01*
X38549007Y22449098D01*
X38549178Y22449132D01*
X38558740Y22451034D01*
X38608555Y22484319D01*
X38633491Y22500980D01*
X38641601Y22506399D01*
X38654274Y22525365D01*
X38678336Y22561378D01*
X38696966Y22589260D01*
X38711500Y22662326D01*
X38711500Y23311674D01*
X38696966Y23384740D01*
X38663910Y23434213D01*
X38647020Y23459491D01*
X38641601Y23467601D01*
X38558740Y23522966D01*
X38549007Y23524902D01*
X38548755Y23525043D01*
X38540168Y23528600D01*
X38540589Y23529616D01*
X38495623Y23554799D01*
X38470007Y23610364D01*
X38481944Y23670373D01*
X38526874Y23711906D01*
X38549007Y23719098D01*
X38549178Y23719132D01*
X38558740Y23721034D01*
X38641601Y23776399D01*
X38647261Y23784869D01*
X38688077Y23845957D01*
X38696966Y23859260D01*
X38711500Y23932326D01*
X38711500Y24581674D01*
X38696966Y24654740D01*
X38652711Y24720973D01*
X38647020Y24729491D01*
X38641601Y24737601D01*
X38633038Y24743323D01*
X38575541Y24781740D01*
X38558740Y24792966D01*
X38485674Y24807500D01*
X36886326Y24807500D01*
X36813260Y24792966D01*
X36796459Y24781740D01*
X36785150Y24774184D01*
X36730150Y24757500D01*
X36478166Y24757500D01*
X36465465Y24758919D01*
X36465463Y24758897D01*
X36458431Y24759463D01*
X36451553Y24761019D01*
X36400393Y24757845D01*
X36397898Y24757690D01*
X36391767Y24757500D01*
X36375060Y24757500D01*
X36371573Y24757001D01*
X36371565Y24757000D01*
X36363879Y24755899D01*
X36355976Y24755089D01*
X36315499Y24752578D01*
X36315496Y24752577D01*
X36308462Y24752141D01*
X36301833Y24749748D01*
X36301829Y24749747D01*
X36298813Y24748658D01*
X36279237Y24743777D01*
X36278045Y24743606D01*
X36276064Y24743323D01*
X36276063Y24743323D01*
X36269082Y24742323D01*
X36262663Y24739404D01*
X36262658Y24739403D01*
X36225743Y24722619D01*
X36218385Y24719623D01*
X36173613Y24703460D01*
X36165328Y24697408D01*
X36147914Y24687232D01*
X36138572Y24682984D01*
X36126187Y24672312D01*
X36102505Y24651907D01*
X36096284Y24646967D01*
X36084664Y24638478D01*
X36073200Y24627014D01*
X36067819Y24622019D01*
X36046629Y24603760D01*
X36029963Y24589400D01*
X36026126Y24583480D01*
X36025289Y24582189D01*
X36012218Y24566032D01*
X34629582Y23183396D01*
X34619602Y23175422D01*
X34619617Y23175405D01*
X34614247Y23170835D01*
X34608281Y23167071D01*
X34603613Y23161786D01*
X34603610Y23161783D01*
X34572709Y23126793D01*
X34568509Y23122323D01*
X34556681Y23110495D01*
X34549903Y23101451D01*
X34544897Y23095302D01*
X34513378Y23059613D01*
X34509019Y23050330D01*
X34498628Y23033035D01*
X34492475Y23024825D01*
X34487460Y23011447D01*
X34475766Y22980255D01*
X34472681Y22972935D01*
X34455447Y22936227D01*
X34455446Y22936223D01*
X34452448Y22929838D01*
X34451363Y22922870D01*
X34451362Y22922866D01*
X34450871Y22919709D01*
X34445748Y22900181D01*
X34442149Y22890581D01*
X34439318Y22852478D01*
X34438621Y22843103D01*
X34437714Y22835208D01*
X34436089Y22824773D01*
X34436088Y22824765D01*
X34435501Y22820992D01*
X34435501Y22804792D01*
X34435229Y22797456D01*
X34431525Y22747609D01*
X34432997Y22740714D01*
X34432997Y22740712D01*
X34433320Y22739200D01*
X34435501Y22718533D01*
X34435501Y21468323D01*
X34416594Y21410132D01*
X34406505Y21398319D01*
X34306182Y21297996D01*
X34251665Y21270219D01*
X34236178Y21269000D01*
X33757326Y21269000D01*
X33684260Y21254466D01*
X33647977Y21230223D01*
X33612922Y21206800D01*
X33601399Y21199101D01*
X33595980Y21190991D01*
X33579616Y21166500D01*
X33546034Y21116240D01*
X33531500Y21043174D01*
X33531500Y19596826D01*
X33546034Y19523760D01*
X33601399Y19440899D01*
X33609509Y19435480D01*
X33682001Y19387043D01*
X33719881Y19338993D01*
X33726000Y19304727D01*
X33726000Y18795273D01*
X33707093Y18737082D01*
X33682001Y18712957D01*
X33617640Y18669953D01*
X33601399Y18659101D01*
X33595980Y18650991D01*
X33590616Y18642963D01*
X33546034Y18576240D01*
X33531500Y18503174D01*
X33531500Y17056826D01*
X33546034Y16983760D01*
X33551451Y16975653D01*
X33589345Y16918940D01*
X33601399Y16900899D01*
X33609509Y16895480D01*
X33622536Y16886776D01*
X33684260Y16845534D01*
X33757326Y16831000D01*
X34082501Y16831000D01*
X34140692Y16812093D01*
X34176656Y16762593D01*
X34181501Y16732000D01*
X34181501Y16121665D01*
X34180082Y16108964D01*
X34180104Y16108962D01*
X34179538Y16101930D01*
X34177982Y16095052D01*
X34180035Y16061964D01*
X34181311Y16041397D01*
X34181501Y16035266D01*
X34181501Y16018559D01*
X34182000Y16015072D01*
X34182001Y16015064D01*
X34183102Y16007378D01*
X34183912Y15999475D01*
X34185710Y15970500D01*
X34186860Y15951961D01*
X34189253Y15945332D01*
X34189254Y15945328D01*
X34190343Y15942312D01*
X34195224Y15922736D01*
X34196678Y15912581D01*
X34199597Y15906162D01*
X34199598Y15906157D01*
X34216382Y15869242D01*
X34219378Y15861884D01*
X34223109Y15851549D01*
X34235541Y15817112D01*
X34241593Y15808827D01*
X34251769Y15791413D01*
X34256017Y15782071D01*
X34260622Y15776727D01*
X34287094Y15746004D01*
X34292034Y15739783D01*
X34300523Y15728163D01*
X34311987Y15716699D01*
X34316970Y15711333D01*
X34333001Y15692728D01*
X34356660Y15636303D01*
X34357000Y15628106D01*
X34357000Y15557560D01*
X34338093Y15499369D01*
X34288593Y15463405D01*
X34258000Y15458560D01*
X31933130Y15458560D01*
X31874939Y15477467D01*
X31838975Y15526967D01*
X31834130Y15557560D01*
X31834130Y15632974D01*
X31819596Y15706040D01*
X31764231Y15788901D01*
X31681370Y15844266D01*
X31608304Y15858800D01*
X29859696Y15858800D01*
X29786630Y15844266D01*
X29703769Y15788901D01*
X29648404Y15706040D01*
X29633870Y15632974D01*
X29633870Y14283146D01*
X29648404Y14210080D01*
X29703769Y14127219D01*
X29786630Y14071854D01*
X29859696Y14057320D01*
X31608304Y14057320D01*
X31681370Y14071854D01*
X31764231Y14127219D01*
X31819596Y14210080D01*
X31834130Y14283146D01*
X31834130Y14358560D01*
X31853037Y14416751D01*
X31902537Y14452715D01*
X31933130Y14457560D01*
X34766394Y14457560D01*
X34779095Y14456141D01*
X34779097Y14456163D01*
X34786129Y14455597D01*
X34793007Y14454041D01*
X34846661Y14457370D01*
X34852793Y14457560D01*
X34869500Y14457560D01*
X34872987Y14458059D01*
X34872995Y14458060D01*
X34880681Y14459161D01*
X34888584Y14459971D01*
X34929061Y14462482D01*
X34929064Y14462483D01*
X34936098Y14462919D01*
X34942727Y14465312D01*
X34942731Y14465313D01*
X34945747Y14466402D01*
X34965323Y14471283D01*
X34966515Y14471454D01*
X34968496Y14471737D01*
X34968497Y14471737D01*
X34975478Y14472737D01*
X34981897Y14475656D01*
X34981902Y14475657D01*
X35018817Y14492441D01*
X35026175Y14495437D01*
X35059415Y14507437D01*
X35070947Y14511600D01*
X35079232Y14517652D01*
X35096646Y14527828D01*
X35105988Y14532076D01*
X35128413Y14551399D01*
X35142055Y14563153D01*
X35148276Y14568093D01*
X35148706Y14568407D01*
X35159896Y14576582D01*
X35171360Y14588046D01*
X35176741Y14593041D01*
X35209253Y14621055D01*
X35209254Y14621056D01*
X35214597Y14625660D01*
X35219271Y14632871D01*
X35232342Y14649028D01*
X35289818Y14706504D01*
X35344335Y14734281D01*
X35359822Y14735500D01*
X36029174Y14735500D01*
X36102240Y14750034D01*
X36166200Y14792770D01*
X36176991Y14799980D01*
X36185101Y14805399D01*
X36240466Y14888260D01*
X36255000Y14961326D01*
X36255000Y15899674D01*
X36240466Y15972740D01*
X36185101Y16055601D01*
X36149344Y16079493D01*
X36110347Y16105549D01*
X36110348Y16105549D01*
X36102240Y16110966D01*
X36029174Y16125500D01*
X35359822Y16125500D01*
X35301631Y16144407D01*
X35289818Y16154496D01*
X35211497Y16232817D01*
X35183720Y16287334D01*
X35182501Y16302821D01*
X35182501Y16508704D01*
X35201408Y16566895D01*
X35250908Y16602859D01*
X35312094Y16602859D01*
X35319388Y16600168D01*
X35327151Y16596952D01*
X35335260Y16591534D01*
X35344823Y16589632D01*
X35344825Y16589631D01*
X35368046Y16585012D01*
X35408326Y16577000D01*
X35950678Y16577000D01*
X36008869Y16558093D01*
X36020682Y16548004D01*
X36868004Y15700682D01*
X36895781Y15646165D01*
X36897000Y15630678D01*
X36897000Y14961326D01*
X36911534Y14888260D01*
X36966899Y14805399D01*
X36975009Y14799980D01*
X36985800Y14792770D01*
X37049760Y14750034D01*
X37122826Y14735500D01*
X38569174Y14735500D01*
X38642240Y14750034D01*
X38706200Y14792770D01*
X38716991Y14799980D01*
X38725101Y14805399D01*
X38754087Y14848780D01*
X38778957Y14886001D01*
X38827007Y14923881D01*
X38861273Y14930000D01*
X39493334Y14930000D01*
X39506035Y14928581D01*
X39506037Y14928603D01*
X39513069Y14928037D01*
X39519947Y14926481D01*
X39573601Y14929810D01*
X39579733Y14930000D01*
X39596440Y14930000D01*
X39599927Y14930499D01*
X39599935Y14930500D01*
X39607621Y14931601D01*
X39615524Y14932411D01*
X39656001Y14934922D01*
X39656004Y14934923D01*
X39663038Y14935359D01*
X39669667Y14937752D01*
X39669671Y14937753D01*
X39672687Y14938842D01*
X39692263Y14943723D01*
X39702418Y14945177D01*
X39703572Y14945702D01*
X39725627Y14948860D01*
X40853904Y14948860D01*
X40926970Y14963394D01*
X40987163Y15003613D01*
X41001721Y15013340D01*
X41009831Y15018759D01*
X41065196Y15101620D01*
X41079730Y15174686D01*
X41079730Y16524514D01*
X41065196Y16597580D01*
X41009831Y16680441D01*
X40996097Y16689618D01*
X40961883Y16712478D01*
X40926970Y16735806D01*
X40853904Y16750340D01*
X39105296Y16750340D01*
X39032230Y16735806D01*
X38997317Y16712478D01*
X38963104Y16689618D01*
X38949369Y16680441D01*
X38894004Y16597580D01*
X38879470Y16524514D01*
X38879470Y16137549D01*
X38860563Y16079358D01*
X38811063Y16043394D01*
X38749877Y16043394D01*
X38726512Y16057712D01*
X38725101Y16055601D01*
X38715578Y16061964D01*
X38642240Y16110966D01*
X38569174Y16125500D01*
X37899822Y16125500D01*
X37841631Y16144407D01*
X37829818Y16154496D01*
X37576318Y16407996D01*
X37548541Y16462513D01*
X37558112Y16522945D01*
X37601377Y16566210D01*
X37646322Y16577000D01*
X38251674Y16577000D01*
X38324740Y16591534D01*
X38407601Y16646899D01*
X38414008Y16656487D01*
X38444021Y16701407D01*
X38462966Y16729760D01*
X38477500Y16802826D01*
X38477500Y18249174D01*
X38462966Y18322240D01*
X38407601Y18405101D01*
X38339699Y18450471D01*
X38301819Y18498521D01*
X38295700Y18532787D01*
X38295700Y18779871D01*
X38314607Y18838062D01*
X38339697Y18862185D01*
X38369501Y18882099D01*
X38424866Y18964960D01*
X38439400Y19038026D01*
X38439400Y20484374D01*
X38424866Y20557440D01*
X38369501Y20640301D01*
X38361391Y20645720D01*
X38288899Y20694157D01*
X38251019Y20742207D01*
X38244900Y20776473D01*
X38244900Y21067500D01*
X38263807Y21125691D01*
X38313307Y21161655D01*
X38343900Y21166500D01*
X38485674Y21166500D01*
X38558740Y21181034D01*
X38586850Y21199816D01*
X38641850Y21216500D01*
X38893834Y21216500D01*
X38906535Y21215081D01*
X38906537Y21215103D01*
X38913569Y21214537D01*
X38920447Y21212981D01*
X38974101Y21216310D01*
X38980233Y21216500D01*
X38996940Y21216500D01*
X39000427Y21216999D01*
X39000435Y21217000D01*
X39008121Y21218101D01*
X39016024Y21218911D01*
X39056501Y21221422D01*
X39056504Y21221423D01*
X39063538Y21221859D01*
X39070167Y21224252D01*
X39070171Y21224253D01*
X39073187Y21225342D01*
X39092763Y21230223D01*
X39094217Y21230431D01*
X39095936Y21230677D01*
X39095937Y21230677D01*
X39102918Y21231677D01*
X39109337Y21234596D01*
X39109342Y21234597D01*
X39146257Y21251381D01*
X39153615Y21254377D01*
X39187190Y21266498D01*
X39198387Y21270540D01*
X39206672Y21276592D01*
X39224086Y21286768D01*
X39233428Y21291016D01*
X39266207Y21319260D01*
X39269495Y21322093D01*
X39275716Y21327033D01*
X39276146Y21327347D01*
X39287336Y21335522D01*
X39298800Y21346986D01*
X39304181Y21351981D01*
X39336693Y21379995D01*
X39336694Y21379996D01*
X39342037Y21384600D01*
X39346711Y21391811D01*
X39359782Y21407968D01*
X39930419Y21978605D01*
X39940399Y21986579D01*
X39940384Y21986596D01*
X39945754Y21991166D01*
X39951720Y21994930D01*
X39956388Y22000215D01*
X39956391Y22000218D01*
X39987292Y22035208D01*
X39991492Y22039678D01*
X40003321Y22051507D01*
X40010106Y22060560D01*
X40015101Y22066696D01*
X40046623Y22102388D01*
X40049620Y22108771D01*
X40049622Y22108774D01*
X40050983Y22111672D01*
X40061372Y22128962D01*
X40063297Y22131530D01*
X40063301Y22131536D01*
X40067527Y22137176D01*
X40073602Y22153380D01*
X40084238Y22181753D01*
X40087324Y22189076D01*
X40104552Y22225770D01*
X40104553Y22225773D01*
X40107553Y22232163D01*
X40109132Y22242302D01*
X40114252Y22261817D01*
X40115377Y22264817D01*
X40115377Y22264819D01*
X40117852Y22271420D01*
X40121381Y22318908D01*
X40122287Y22326793D01*
X40123912Y22337228D01*
X40123913Y22337236D01*
X40124500Y22341009D01*
X40124500Y22357209D01*
X40124772Y22364545D01*
X40125515Y22374549D01*
X40128476Y22414392D01*
X40126681Y22422801D01*
X40124500Y22443468D01*
X40124500Y23726678D01*
X40143407Y23784869D01*
X40192907Y23820833D01*
X40254093Y23820833D01*
X40293504Y23796682D01*
X41409605Y22680581D01*
X41417579Y22670601D01*
X41417596Y22670616D01*
X41422166Y22665246D01*
X41425930Y22659280D01*
X41431215Y22654612D01*
X41431218Y22654609D01*
X41466208Y22623708D01*
X41470678Y22619508D01*
X41482507Y22607679D01*
X41491560Y22600894D01*
X41497696Y22595899D01*
X41533388Y22564377D01*
X41539771Y22561380D01*
X41539774Y22561378D01*
X41542672Y22560017D01*
X41559962Y22549628D01*
X41562530Y22547703D01*
X41562536Y22547699D01*
X41568176Y22543473D01*
X41574778Y22540998D01*
X41574780Y22540997D01*
X41612753Y22526762D01*
X41620076Y22523676D01*
X41656770Y22506448D01*
X41656773Y22506447D01*
X41663163Y22503447D01*
X41673302Y22501868D01*
X41692817Y22496748D01*
X41695817Y22495623D01*
X41695819Y22495623D01*
X41702420Y22493148D01*
X41749908Y22489619D01*
X41757793Y22488713D01*
X41768228Y22487088D01*
X41768236Y22487087D01*
X41772009Y22486500D01*
X41788209Y22486500D01*
X41795546Y22486228D01*
X41845392Y22482524D01*
X41852287Y22483996D01*
X41852289Y22483996D01*
X41853801Y22484319D01*
X41874468Y22486500D01*
X42130150Y22486500D01*
X42185150Y22469816D01*
X42213260Y22451034D01*
X42211935Y22449052D01*
X42248025Y22418229D01*
X42262310Y22358734D01*
X42238896Y22302206D01*
X42186728Y22270236D01*
X42163615Y22267500D01*
X41543433Y22267500D01*
X41539287Y22267587D01*
X41476704Y22270210D01*
X41440919Y22261817D01*
X41433095Y22259982D01*
X41423926Y22258283D01*
X41379566Y22252206D01*
X41373375Y22249527D01*
X41373368Y22249525D01*
X41363557Y22245279D01*
X41346851Y22239754D01*
X41329862Y22235769D01*
X41290602Y22214185D01*
X41282239Y22210089D01*
X41263582Y22202015D01*
X41253382Y22197601D01*
X41241143Y22192305D01*
X41235899Y22188058D01*
X41235898Y22188058D01*
X41231648Y22184617D01*
X41229382Y22182781D01*
X41227586Y22181327D01*
X41212987Y22171517D01*
X41197691Y22163107D01*
X41193768Y22159721D01*
X41193765Y22159719D01*
X41190947Y22157287D01*
X41190936Y22157277D01*
X41189576Y22156103D01*
X41164029Y22130556D01*
X41156329Y22123624D01*
X41123928Y22097386D01*
X41120019Y22091885D01*
X41120017Y22091883D01*
X41111721Y22080209D01*
X41101027Y22067553D01*
X41023639Y21990165D01*
X40976746Y21963904D01*
X40919588Y21950182D01*
X40853299Y21915968D01*
X40784985Y21880709D01*
X40784983Y21880707D01*
X40779679Y21877970D01*
X40661034Y21774469D01*
X40570501Y21645654D01*
X40513309Y21498963D01*
X40512531Y21493052D01*
X40512530Y21493049D01*
X40507629Y21455822D01*
X40492758Y21342864D01*
X40493413Y21336931D01*
X40493413Y21336927D01*
X40506863Y21215103D01*
X40510035Y21186369D01*
X40512683Y21179132D01*
X40560694Y21047937D01*
X40564143Y21038512D01*
X40567472Y21033558D01*
X40579014Y21016382D01*
X40595777Y20957538D01*
X40574750Y20900079D01*
X40566847Y20891161D01*
X40402182Y20726496D01*
X40347665Y20698719D01*
X40332178Y20697500D01*
X39662826Y20697500D01*
X39589760Y20682966D01*
X39581652Y20677549D01*
X39581653Y20677549D01*
X39515689Y20633474D01*
X39506899Y20627601D01*
X39501480Y20619491D01*
X39499461Y20616469D01*
X39451534Y20544740D01*
X39437000Y20471674D01*
X39437000Y19533326D01*
X39451534Y19460260D01*
X39506899Y19377399D01*
X39589760Y19322034D01*
X39662826Y19307500D01*
X41109174Y19307500D01*
X41182240Y19322034D01*
X41265101Y19377399D01*
X41320466Y19460260D01*
X41335000Y19533326D01*
X41335000Y20202678D01*
X41353907Y20260869D01*
X41363996Y20272682D01*
X41454419Y20363105D01*
X41464399Y20371079D01*
X41464384Y20371096D01*
X41469754Y20375666D01*
X41475720Y20379430D01*
X41480388Y20384715D01*
X41480391Y20384718D01*
X41511292Y20419708D01*
X41515492Y20424178D01*
X41527321Y20436007D01*
X41534106Y20445060D01*
X41539101Y20451196D01*
X41570623Y20486888D01*
X41573620Y20493271D01*
X41573622Y20493274D01*
X41574983Y20496172D01*
X41585372Y20513462D01*
X41587297Y20516030D01*
X41587301Y20516036D01*
X41591527Y20521676D01*
X41601350Y20547878D01*
X41608238Y20566253D01*
X41611324Y20573576D01*
X41628552Y20610270D01*
X41628553Y20610273D01*
X41631553Y20616663D01*
X41633132Y20626802D01*
X41638252Y20646317D01*
X41639377Y20649317D01*
X41639377Y20649319D01*
X41641852Y20655920D01*
X41645381Y20703408D01*
X41646287Y20711293D01*
X41647912Y20721728D01*
X41647913Y20721736D01*
X41648500Y20725509D01*
X41648500Y20741709D01*
X41648772Y20749045D01*
X41651065Y20779907D01*
X41652476Y20798892D01*
X41650681Y20807301D01*
X41648500Y20827968D01*
X41648500Y20885840D01*
X41667104Y20943610D01*
X41718737Y21015466D01*
X41718738Y21015467D01*
X41722224Y21020319D01*
X41728893Y21036907D01*
X41756035Y21104426D01*
X41795283Y21151365D01*
X41847891Y21166500D01*
X43244778Y21166500D01*
X43302969Y21147593D01*
X43338933Y21098093D01*
X43338933Y21036907D01*
X43314782Y20997496D01*
X43005682Y20688396D01*
X42951165Y20660619D01*
X42935678Y20659400D01*
X42520326Y20659400D01*
X42447260Y20644866D01*
X42429877Y20633251D01*
X42374132Y20596004D01*
X42364399Y20589501D01*
X42358980Y20581391D01*
X42343537Y20558278D01*
X42309034Y20506640D01*
X42294500Y20433574D01*
X42294500Y18987226D01*
X42309034Y18914160D01*
X42319729Y18898153D01*
X42348618Y18854918D01*
X42364399Y18831299D01*
X42372509Y18825880D01*
X42379402Y18818987D01*
X42377938Y18817523D01*
X42407940Y18779468D01*
X42410344Y18718330D01*
X42379159Y18671656D01*
X42379402Y18671413D01*
X42378180Y18670191D01*
X42376352Y18667455D01*
X42373032Y18665043D01*
X42372509Y18664520D01*
X42364399Y18659101D01*
X42358980Y18650991D01*
X42353616Y18642963D01*
X42309034Y18576240D01*
X42294500Y18503174D01*
X42294500Y17056826D01*
X42307960Y16989160D01*
X42307960Y16989158D01*
X42309034Y16983760D01*
X42308395Y16983633D01*
X42312549Y16930833D01*
X42280579Y16878665D01*
X42224051Y16855251D01*
X42164556Y16869536D01*
X42156925Y16874717D01*
X42140834Y16886776D01*
X42133643Y16889472D01*
X42099629Y16902223D01*
X42006590Y16937102D01*
X41863618Y16947726D01*
X41856723Y16946254D01*
X41856722Y16946254D01*
X41730310Y16919269D01*
X41730308Y16919268D01*
X41723411Y16917796D01*
X41597239Y16849718D01*
X41592224Y16844764D01*
X41588533Y16842033D01*
X41543555Y16824711D01*
X41543696Y16824000D01*
X41539587Y16823183D01*
X41539585Y16823182D01*
X41538930Y16823052D01*
X41523823Y16820047D01*
X41470630Y16809466D01*
X41387769Y16754101D01*
X41382350Y16745991D01*
X41377894Y16739322D01*
X41332404Y16671240D01*
X41317870Y16598174D01*
X41317870Y15248346D01*
X41332404Y15175280D01*
X41387769Y15092419D01*
X41395879Y15087000D01*
X41420707Y15070411D01*
X41470630Y15037054D01*
X41543696Y15022520D01*
X42569918Y15022520D01*
X42628109Y15003613D01*
X42639922Y14993524D01*
X42763365Y14870081D01*
X42771339Y14860101D01*
X42771356Y14860116D01*
X42775926Y14854746D01*
X42779690Y14848780D01*
X42784975Y14844112D01*
X42784978Y14844109D01*
X42819968Y14813208D01*
X42824438Y14809008D01*
X42836266Y14797180D01*
X42845310Y14790402D01*
X42851459Y14785396D01*
X42887148Y14753877D01*
X42896431Y14749518D01*
X42913726Y14739127D01*
X42921936Y14732974D01*
X42928542Y14730498D01*
X42928543Y14730497D01*
X42966512Y14716263D01*
X42973834Y14713177D01*
X43010535Y14695946D01*
X43010536Y14695946D01*
X43016923Y14692947D01*
X43027060Y14691369D01*
X43046576Y14686248D01*
X43049576Y14685123D01*
X43049578Y14685123D01*
X43056179Y14682648D01*
X43103664Y14679119D01*
X43111552Y14678213D01*
X43121988Y14676588D01*
X43121996Y14676587D01*
X43125769Y14676000D01*
X43141968Y14676000D01*
X43149305Y14675728D01*
X43199151Y14672024D01*
X43206046Y14673496D01*
X43206048Y14673496D01*
X43207560Y14673819D01*
X43228227Y14676000D01*
X43688727Y14676000D01*
X43746918Y14657093D01*
X43771043Y14632001D01*
X43815024Y14566178D01*
X43824899Y14551399D01*
X43907760Y14496034D01*
X43980826Y14481500D01*
X45427174Y14481500D01*
X45500240Y14496034D01*
X45583101Y14551399D01*
X45594256Y14568093D01*
X45633049Y14626153D01*
X45638466Y14634260D01*
X45653000Y14707326D01*
X45653000Y15630178D01*
X45671907Y15688369D01*
X45721407Y15724333D01*
X45782593Y15724333D01*
X45822004Y15700182D01*
X46012004Y15510182D01*
X46039781Y15455665D01*
X46041000Y15440178D01*
X46041000Y14707326D01*
X46055534Y14634260D01*
X46060951Y14626153D01*
X46099745Y14568093D01*
X46110899Y14551399D01*
X46193760Y14496034D01*
X46266826Y14481500D01*
X47713174Y14481500D01*
X47786240Y14496034D01*
X47869101Y14551399D01*
X47878976Y14566178D01*
X47922957Y14632001D01*
X47971007Y14669881D01*
X48005273Y14676000D01*
X48716074Y14676000D01*
X48728775Y14674581D01*
X48728777Y14674603D01*
X48735809Y14674037D01*
X48742687Y14672481D01*
X48796341Y14675810D01*
X48802473Y14676000D01*
X48819180Y14676000D01*
X48822667Y14676499D01*
X48822675Y14676500D01*
X48830361Y14677601D01*
X48838264Y14678411D01*
X48878741Y14680922D01*
X48878744Y14680923D01*
X48885778Y14681359D01*
X48892407Y14683752D01*
X48892411Y14683753D01*
X48895427Y14684842D01*
X48915003Y14689723D01*
X48916195Y14689894D01*
X48918176Y14690177D01*
X48918177Y14690177D01*
X48925158Y14691177D01*
X48931577Y14694096D01*
X48931582Y14694097D01*
X48968497Y14710881D01*
X48975855Y14713877D01*
X48990050Y14719002D01*
X49020627Y14730040D01*
X49028912Y14736092D01*
X49046326Y14746268D01*
X49055668Y14750516D01*
X49071581Y14764228D01*
X49091735Y14781593D01*
X49097956Y14786533D01*
X49099991Y14788020D01*
X49109576Y14795022D01*
X49121040Y14806486D01*
X49126421Y14811481D01*
X49158933Y14839495D01*
X49158934Y14839496D01*
X49164277Y14844100D01*
X49168951Y14851311D01*
X49182022Y14867468D01*
X49358878Y15044324D01*
X49413395Y15072101D01*
X49428882Y15073320D01*
X50658304Y15073320D01*
X50731370Y15087854D01*
X50814231Y15143219D01*
X50869596Y15226080D01*
X50884130Y15299146D01*
X50884130Y16648974D01*
X50869596Y16722040D01*
X50814231Y16804901D01*
X50804553Y16811368D01*
X50751160Y16847043D01*
X50731370Y16860266D01*
X50658304Y16874800D01*
X48909696Y16874800D01*
X48836630Y16860266D01*
X48816840Y16847043D01*
X48763448Y16811368D01*
X48753769Y16804901D01*
X48698404Y16722040D01*
X48683870Y16648974D01*
X48683870Y15825952D01*
X48664963Y15767761D01*
X48654874Y15755948D01*
X48604922Y15705996D01*
X48550405Y15678219D01*
X48534918Y15677000D01*
X48005273Y15677000D01*
X47947082Y15695907D01*
X47922957Y15720999D01*
X47874520Y15793491D01*
X47869101Y15801601D01*
X47858278Y15808833D01*
X47805247Y15844266D01*
X47786240Y15856966D01*
X47713174Y15871500D01*
X47107321Y15871500D01*
X47049130Y15890407D01*
X47037317Y15900496D01*
X46368497Y16569317D01*
X46340720Y16623834D01*
X46339501Y16639321D01*
X46339501Y17587179D01*
X46358408Y17645370D01*
X46368497Y17657183D01*
X47037317Y18326004D01*
X47091834Y18353781D01*
X47107321Y18355000D01*
X47522674Y18355000D01*
X47595740Y18369534D01*
X47678601Y18424899D01*
X47733966Y18507760D01*
X47748500Y18580826D01*
X47748500Y20027174D01*
X47733966Y20100240D01*
X47678601Y20183101D01*
X47667872Y20190270D01*
X47597999Y20236957D01*
X47560119Y20285007D01*
X47554000Y20319273D01*
X47554000Y20574727D01*
X47572907Y20632918D01*
X47597999Y20657043D01*
X47670491Y20705480D01*
X47678601Y20710899D01*
X47689023Y20726496D01*
X47724710Y20779907D01*
X47733966Y20793760D01*
X47748500Y20866826D01*
X47748500Y22313174D01*
X47733966Y22386240D01*
X47704308Y22430627D01*
X47684020Y22460991D01*
X47678601Y22469101D01*
X47670491Y22474520D01*
X47597999Y22522957D01*
X47560119Y22571007D01*
X47554000Y22605273D01*
X47554000Y22767334D01*
X47555419Y22780035D01*
X47555397Y22780037D01*
X47555963Y22787069D01*
X47557519Y22793947D01*
X47554190Y22847602D01*
X47554000Y22853733D01*
X47554000Y22870440D01*
X47553501Y22873927D01*
X47553500Y22873935D01*
X47552399Y22881621D01*
X47551589Y22889524D01*
X47549078Y22930001D01*
X47549077Y22930004D01*
X47548641Y22937038D01*
X47546248Y22943667D01*
X47546247Y22943671D01*
X47545158Y22946687D01*
X47540277Y22966264D01*
X47539823Y22969436D01*
X47539823Y22969437D01*
X47538823Y22976418D01*
X47535904Y22982837D01*
X47535903Y22982842D01*
X47519119Y23019757D01*
X47516123Y23027115D01*
X47504391Y23059613D01*
X47499960Y23071887D01*
X47493908Y23080172D01*
X47483732Y23097586D01*
X47479484Y23106928D01*
X47451032Y23139948D01*
X47448407Y23142995D01*
X47443467Y23149216D01*
X47442378Y23150707D01*
X47434978Y23160836D01*
X47423514Y23172300D01*
X47418519Y23177681D01*
X47390505Y23210193D01*
X47390504Y23210194D01*
X47385900Y23215537D01*
X47378689Y23220211D01*
X47362532Y23233282D01*
X44762395Y25833419D01*
X44754421Y25843399D01*
X44754404Y25843384D01*
X44749834Y25848754D01*
X44746070Y25854720D01*
X44740785Y25859388D01*
X44740782Y25859391D01*
X44705792Y25890292D01*
X44701322Y25894492D01*
X44689494Y25906320D01*
X44680447Y25913100D01*
X44674301Y25918104D01*
X44638612Y25949623D01*
X44629329Y25953982D01*
X44612034Y25964373D01*
X44603824Y25970526D01*
X44575269Y25981231D01*
X44559254Y25987235D01*
X44551934Y25990320D01*
X44515226Y26007554D01*
X44515222Y26007555D01*
X44508837Y26010553D01*
X44501869Y26011638D01*
X44501865Y26011639D01*
X44498708Y26012130D01*
X44479180Y26017253D01*
X44476180Y26018378D01*
X44476178Y26018378D01*
X44469580Y26020852D01*
X44422092Y26024381D01*
X44414207Y26025287D01*
X44403772Y26026912D01*
X44403764Y26026913D01*
X44399991Y26027500D01*
X44383791Y26027500D01*
X44376455Y26027772D01*
X44373165Y26028016D01*
X44326608Y26031476D01*
X44319713Y26030004D01*
X44319711Y26030004D01*
X44318199Y26029681D01*
X44297532Y26027500D01*
X44041850Y26027500D01*
X43986850Y26044184D01*
X43973642Y26053009D01*
X43958740Y26062966D01*
X43885674Y26077500D01*
X42286326Y26077500D01*
X42213260Y26062966D01*
X42202365Y26055686D01*
X42160588Y26027772D01*
X42130399Y26007601D01*
X42124980Y25999491D01*
X42108616Y25975000D01*
X42075034Y25924740D01*
X42060500Y25851674D01*
X42060500Y25202326D01*
X42075034Y25129260D01*
X42080451Y25121153D01*
X42111938Y25074029D01*
X42130399Y25046399D01*
X42213260Y24991034D01*
X42222822Y24989132D01*
X42222993Y24989098D01*
X42223245Y24988957D01*
X42231832Y24985400D01*
X42231411Y24984384D01*
X42276377Y24959201D01*
X42301993Y24903636D01*
X42290056Y24843627D01*
X42245126Y24802094D01*
X42222993Y24794902D01*
X42213260Y24792966D01*
X42196459Y24781740D01*
X42138963Y24743323D01*
X42130399Y24737601D01*
X42124980Y24729491D01*
X42119289Y24720973D01*
X42075034Y24654740D01*
X42060500Y24581674D01*
X42060500Y23932326D01*
X42075034Y23859260D01*
X42083923Y23845957D01*
X42124740Y23784869D01*
X42130399Y23776399D01*
X42213260Y23721034D01*
X42222822Y23719132D01*
X42222993Y23719098D01*
X42223245Y23718957D01*
X42231832Y23715400D01*
X42231411Y23714384D01*
X42276377Y23689201D01*
X42301993Y23633636D01*
X42290056Y23573627D01*
X42245126Y23532094D01*
X42222993Y23524902D01*
X42213260Y23522966D01*
X42188477Y23506407D01*
X42185150Y23504184D01*
X42130150Y23487500D01*
X42059322Y23487500D01*
X42001131Y23506407D01*
X41989318Y23516496D01*
X40903506Y24602308D01*
X40875729Y24656825D01*
X40874510Y24672312D01*
X40874509Y26547512D01*
X40875928Y26560209D01*
X40875905Y26560211D01*
X40876471Y26567243D01*
X40878027Y26574121D01*
X40874699Y26627767D01*
X40874509Y26633896D01*
X40874509Y26650613D01*
X40874011Y26654093D01*
X40874010Y26654103D01*
X40872907Y26661809D01*
X40872098Y26669705D01*
X40869587Y26710172D01*
X40869587Y26710173D01*
X40869150Y26717212D01*
X40865666Y26726864D01*
X40860786Y26746439D01*
X40860332Y26749608D01*
X40859332Y26756591D01*
X40856414Y26763010D01*
X40856412Y26763015D01*
X40839625Y26799935D01*
X40836628Y26807297D01*
X40822864Y26845425D01*
X40820469Y26852060D01*
X40814417Y26860345D01*
X40804241Y26877759D01*
X40799993Y26887101D01*
X40768902Y26923184D01*
X40763966Y26929401D01*
X40757743Y26937920D01*
X40757741Y26937922D01*
X40755486Y26941009D01*
X40744029Y26952466D01*
X40739034Y26957847D01*
X40711014Y26990366D01*
X40711013Y26990367D01*
X40706409Y26995710D01*
X40699191Y27000389D01*
X40683038Y27013457D01*
X39574059Y28122437D01*
X39566085Y28132417D01*
X39566068Y28132402D01*
X39561499Y28137770D01*
X39557734Y28143738D01*
X39517455Y28179311D01*
X39512985Y28183511D01*
X39501158Y28195338D01*
X39492111Y28202118D01*
X39485965Y28207122D01*
X39450276Y28238641D01*
X39440993Y28243000D01*
X39423698Y28253391D01*
X39415488Y28259544D01*
X39381838Y28272159D01*
X39370918Y28276253D01*
X39363598Y28279338D01*
X39326890Y28296572D01*
X39326886Y28296573D01*
X39320501Y28299571D01*
X39313533Y28300656D01*
X39313529Y28300657D01*
X39310372Y28301148D01*
X39290844Y28306271D01*
X39287844Y28307396D01*
X39287842Y28307396D01*
X39281244Y28309870D01*
X39233756Y28313399D01*
X39225871Y28314305D01*
X39215436Y28315930D01*
X39215428Y28315931D01*
X39211655Y28316518D01*
X39195455Y28316518D01*
X39188119Y28316790D01*
X39184829Y28317034D01*
X39138272Y28320494D01*
X39131377Y28319022D01*
X39131375Y28319022D01*
X39129863Y28318699D01*
X39109196Y28316518D01*
X39062334Y28316518D01*
X39004143Y28335425D01*
X38968179Y28384925D01*
X38968179Y28446111D01*
X39007333Y28497834D01*
X39034491Y28515980D01*
X39042601Y28521399D01*
X39097966Y28604260D01*
X39112500Y28677326D01*
X39627500Y28677326D01*
X39642034Y28604260D01*
X39697399Y28521399D01*
X39780260Y28466034D01*
X39853326Y28451500D01*
X41426674Y28451500D01*
X41499740Y28466034D01*
X41582601Y28521399D01*
X41637966Y28604260D01*
X41652500Y28677326D01*
X41652500Y29132000D01*
X41671407Y29190191D01*
X41720907Y29226155D01*
X41751500Y29231000D01*
X42452136Y29231000D01*
X42510327Y29212093D01*
X42534452Y29187000D01*
X42554899Y29156399D01*
X42637760Y29101034D01*
X42710826Y29086500D01*
X44157174Y29086500D01*
X44230240Y29101034D01*
X44313101Y29156399D01*
X44368466Y29239260D01*
X44383000Y29312326D01*
X44383000Y30250674D01*
X44368466Y30323740D01*
X44313101Y30406601D01*
X44230240Y30461966D01*
X44157174Y30476500D01*
X42710826Y30476500D01*
X42637760Y30461966D01*
X42554899Y30406601D01*
X42549480Y30398491D01*
X42549479Y30398490D01*
X42534452Y30376000D01*
X42486403Y30338120D01*
X42452136Y30332000D01*
X41685364Y30332000D01*
X41627173Y30350907D01*
X41603048Y30376000D01*
X41588021Y30398490D01*
X41588020Y30398491D01*
X41582601Y30406601D01*
X41499740Y30461966D01*
X41426674Y30476500D01*
X39853326Y30476500D01*
X39780260Y30461966D01*
X39697399Y30406601D01*
X39642034Y30323740D01*
X39627500Y30250674D01*
X39627500Y28677326D01*
X39112500Y28677326D01*
X39112500Y30250674D01*
X39097966Y30323740D01*
X39042601Y30406601D01*
X38959740Y30461966D01*
X38886674Y30476500D01*
X37313326Y30476500D01*
X37240260Y30461966D01*
X37204452Y30438040D01*
X37166952Y30412984D01*
X37111951Y30396300D01*
X36473673Y30396300D01*
X36415482Y30415207D01*
X36391357Y30440299D01*
X36342920Y30512791D01*
X36337501Y30520901D01*
X36254640Y30576266D01*
X36181574Y30590800D01*
X34735226Y30590800D01*
X34662160Y30576266D01*
X34579299Y30520901D01*
X34523934Y30438040D01*
X34509400Y30364974D01*
X34509400Y29426626D01*
X34523934Y29353560D01*
X34579299Y29270699D01*
X34662160Y29215334D01*
X34735226Y29200800D01*
X36181574Y29200800D01*
X36254640Y29215334D01*
X36337501Y29270699D01*
X36356716Y29299457D01*
X36391357Y29351301D01*
X36439407Y29389181D01*
X36473673Y29395300D01*
X36988500Y29395300D01*
X37046691Y29376393D01*
X37082655Y29326893D01*
X37087500Y29296300D01*
X37087500Y28677326D01*
X37102034Y28604260D01*
X37157399Y28521399D01*
X37165509Y28515980D01*
X37192667Y28497834D01*
X37230547Y28449784D01*
X37232949Y28388646D01*
X37198957Y28337772D01*
X37137666Y28316518D01*
X36265179Y28316518D01*
X36252478Y28317937D01*
X36252476Y28317915D01*
X36245444Y28318481D01*
X36238566Y28320037D01*
X36187406Y28316863D01*
X36184911Y28316708D01*
X36178780Y28316518D01*
X36162074Y28316518D01*
X36158587Y28316019D01*
X36158579Y28316018D01*
X36150893Y28314917D01*
X36142990Y28314107D01*
X36102513Y28311596D01*
X36102510Y28311595D01*
X36095476Y28311159D01*
X36088847Y28308766D01*
X36088843Y28308765D01*
X36085827Y28307676D01*
X36066251Y28302795D01*
X36065649Y28302709D01*
X36063078Y28302341D01*
X36063077Y28302341D01*
X36056096Y28301341D01*
X36049677Y28298422D01*
X36049672Y28298421D01*
X36012757Y28281637D01*
X36005399Y28278641D01*
X35991204Y28273516D01*
X35960627Y28262478D01*
X35952342Y28256426D01*
X35934928Y28246250D01*
X35925586Y28242002D01*
X35909673Y28228290D01*
X35889519Y28210925D01*
X35883298Y28205985D01*
X35871678Y28197496D01*
X35860214Y28186032D01*
X35854833Y28181037D01*
X35824110Y28154564D01*
X35816977Y28148418D01*
X35813140Y28142498D01*
X35812303Y28141207D01*
X35799232Y28125050D01*
X30956685Y23282503D01*
X30909792Y23256242D01*
X30776745Y23224300D01*
X30759584Y23220180D01*
X30720352Y23199931D01*
X30624981Y23150707D01*
X30624979Y23150705D01*
X30619675Y23147968D01*
X30501030Y23044467D01*
X30410497Y22915652D01*
X30408330Y22910094D01*
X30402080Y22894063D01*
X30353305Y22768961D01*
X30352527Y22763050D01*
X30352526Y22763047D01*
X30347583Y22725500D01*
X30332754Y22612862D01*
X30333409Y22606929D01*
X30333409Y22606925D01*
X30347143Y22482524D01*
X30350031Y22456367D01*
X30352083Y22450760D01*
X30400338Y22318898D01*
X30404139Y22308510D01*
X30407468Y22303556D01*
X30488625Y22182781D01*
X30488628Y22182777D01*
X30491954Y22177828D01*
X30496365Y22173814D01*
X30496367Y22173812D01*
X30603991Y22075882D01*
X30608406Y22071865D01*
X30664011Y22041674D01*
X30741526Y21999586D01*
X30741528Y21999585D01*
X30746772Y21996738D01*
X30752544Y21995224D01*
X30752546Y21995223D01*
X30768382Y21991069D01*
X30777671Y21988632D01*
X30829159Y21955578D01*
X30851386Y21898572D01*
X30835860Y21839389D01*
X30822554Y21822868D01*
X30103182Y21103496D01*
X30048665Y21075719D01*
X30033178Y21074500D01*
X29962350Y21074500D01*
X29907350Y21091184D01*
X29904723Y21092939D01*
X29879240Y21109966D01*
X29869507Y21111902D01*
X29869255Y21112043D01*
X29860668Y21115600D01*
X29861089Y21116616D01*
X29816123Y21141799D01*
X29790507Y21197364D01*
X29802444Y21257373D01*
X29847374Y21298906D01*
X29869507Y21306098D01*
X29869678Y21306132D01*
X29879240Y21308034D01*
X29941415Y21349577D01*
X29953991Y21357980D01*
X29962101Y21363399D01*
X30017466Y21446260D01*
X30032000Y21519326D01*
X30032000Y22168674D01*
X30017466Y22241740D01*
X29972982Y22308316D01*
X29967520Y22316491D01*
X29962101Y22324601D01*
X29879240Y22379966D01*
X29869507Y22381902D01*
X29869255Y22382043D01*
X29860668Y22385600D01*
X29861089Y22386616D01*
X29816123Y22411799D01*
X29790507Y22467364D01*
X29802444Y22527373D01*
X29847374Y22568906D01*
X29869507Y22576098D01*
X29869678Y22576132D01*
X29879240Y22578034D01*
X29931838Y22613178D01*
X29953991Y22627980D01*
X29962101Y22633399D01*
X29974776Y22652368D01*
X29998272Y22687534D01*
X30017466Y22716260D01*
X30032000Y22789326D01*
X30032000Y23438674D01*
X30017466Y23511740D01*
X29979626Y23568372D01*
X29967520Y23586491D01*
X29962101Y23594601D01*
X29879240Y23649966D01*
X29869507Y23651902D01*
X29869255Y23652043D01*
X29860668Y23655600D01*
X29861089Y23656616D01*
X29816123Y23681799D01*
X29790507Y23737364D01*
X29802444Y23797373D01*
X29847374Y23838906D01*
X29869507Y23846098D01*
X29869678Y23846132D01*
X29879240Y23848034D01*
X29938025Y23887312D01*
X29953991Y23897980D01*
X29962101Y23903399D01*
X30017466Y23986260D01*
X30032000Y24059326D01*
X30032000Y24708674D01*
X30017466Y24781740D01*
X29962101Y24864601D01*
X29879240Y24919966D01*
X29806174Y24934500D01*
X29408322Y24934500D01*
X29350131Y24953407D01*
X29338318Y24963496D01*
X28659996Y25641818D01*
X28632219Y25696335D01*
X28631000Y25711822D01*
X28631000Y25908727D01*
X28649907Y25966918D01*
X28674999Y25991043D01*
X28747491Y26039480D01*
X28755601Y26044899D01*
X28776751Y26076552D01*
X28805549Y26119653D01*
X28810966Y26127760D01*
X28825500Y26200826D01*
X28825500Y26875337D01*
X28844407Y26933528D01*
X28850296Y26940872D01*
X28861157Y26953170D01*
X28870623Y26963888D01*
X28874979Y26973167D01*
X28885370Y26990460D01*
X28887295Y26993028D01*
X28887298Y26993033D01*
X28891527Y26998676D01*
X28908238Y27043253D01*
X28911324Y27050576D01*
X28928552Y27087270D01*
X28928553Y27087273D01*
X28931553Y27093663D01*
X28933132Y27103802D01*
X28938252Y27123317D01*
X28939377Y27126317D01*
X28939377Y27126319D01*
X28941852Y27132920D01*
X28945381Y27180408D01*
X28946287Y27188293D01*
X28947912Y27198728D01*
X28947913Y27198736D01*
X28948500Y27202509D01*
X28948500Y27218709D01*
X28948772Y27226045D01*
X28951953Y27268859D01*
X28952476Y27275892D01*
X28950681Y27284301D01*
X28948500Y27304968D01*
X28948500Y28352500D01*
X28967407Y28410691D01*
X29016907Y28446655D01*
X29047500Y28451500D01*
X29234674Y28451500D01*
X29307740Y28466034D01*
X29390601Y28521399D01*
X29445966Y28604260D01*
X29460500Y28677326D01*
X29460500Y30250674D01*
X29445966Y30323740D01*
X29390601Y30406601D01*
X29307740Y30461966D01*
X29234674Y30476500D01*
X29047500Y30476500D01*
X28989309Y30495407D01*
X28953345Y30544907D01*
X28948500Y30575500D01*
X28948500Y30892500D01*
X28967407Y30950691D01*
X29016907Y30986655D01*
X29047500Y30991500D01*
X29234674Y30991500D01*
X29307740Y31006034D01*
X29390601Y31061399D01*
X29445966Y31144260D01*
X29460500Y31217326D01*
X37087500Y31217326D01*
X37102034Y31144260D01*
X37157399Y31061399D01*
X37240260Y31006034D01*
X37313326Y30991500D01*
X38886674Y30991500D01*
X38959740Y31006034D01*
X39042601Y31061399D01*
X39097966Y31144260D01*
X39112500Y31217326D01*
X39627500Y31217326D01*
X39642034Y31144260D01*
X39697399Y31061399D01*
X39780260Y31006034D01*
X39853326Y30991500D01*
X41426674Y30991500D01*
X41499740Y31006034D01*
X41582601Y31061399D01*
X41637966Y31144260D01*
X41652500Y31217326D01*
X41652500Y32790674D01*
X41637966Y32863740D01*
X41582601Y32946601D01*
X41499740Y33001966D01*
X41426674Y33016500D01*
X39853326Y33016500D01*
X39780260Y33001966D01*
X39697399Y32946601D01*
X39642034Y32863740D01*
X39627500Y32790674D01*
X39627500Y31217326D01*
X39112500Y31217326D01*
X39112500Y32790674D01*
X39097966Y32863740D01*
X39042601Y32946601D01*
X38959740Y33001966D01*
X38886674Y33016500D01*
X37313326Y33016500D01*
X37240260Y33001966D01*
X37157399Y32946601D01*
X37102034Y32863740D01*
X37087500Y32790674D01*
X37087500Y31217326D01*
X29460500Y31217326D01*
X29460500Y32790674D01*
X29445966Y32863740D01*
X29390601Y32946601D01*
X29307740Y33001966D01*
X29234674Y33016500D01*
X27661326Y33016500D01*
X27588260Y33001966D01*
X27505399Y32946601D01*
X27450034Y32863740D01*
X27435500Y32790674D01*
X27435500Y31217326D01*
X27450034Y31144260D01*
X27505399Y31061399D01*
X27588260Y31006034D01*
X27661326Y30991500D01*
X27848500Y30991500D01*
X27906691Y30972593D01*
X27942655Y30923093D01*
X27947500Y30892500D01*
X27947500Y30575500D01*
X27928593Y30517309D01*
X27879093Y30481345D01*
X27848500Y30476500D01*
X27661326Y30476500D01*
X27588260Y30461966D01*
X27505399Y30406601D01*
X27450034Y30323740D01*
X27435500Y30250674D01*
X27435500Y28677326D01*
X27450034Y28604260D01*
X27505399Y28521399D01*
X27588260Y28466034D01*
X27661326Y28451500D01*
X27848500Y28451500D01*
X27906691Y28432593D01*
X27942655Y28383093D01*
X27947500Y28352500D01*
X27947500Y27972000D01*
X27928593Y27913809D01*
X27879093Y27877845D01*
X27848500Y27873000D01*
X27661326Y27873000D01*
X27588260Y27858466D01*
X27505399Y27803101D01*
X27450034Y27720240D01*
X27435500Y27647174D01*
X27435500Y26200826D01*
X27450034Y26127760D01*
X27455451Y26119653D01*
X27484250Y26076552D01*
X27505399Y26044899D01*
X27513509Y26039480D01*
X27586001Y25991043D01*
X27623881Y25942993D01*
X27630000Y25908727D01*
X27630000Y25530666D01*
X27628581Y25517965D01*
X27628603Y25517963D01*
X27628037Y25510931D01*
X27626481Y25504053D01*
X27629655Y25452893D01*
X27629810Y25450398D01*
X27630000Y25444267D01*
X27630000Y25427560D01*
X27630499Y25424073D01*
X27630500Y25424065D01*
X27631601Y25416379D01*
X27632411Y25408476D01*
X27634179Y25379987D01*
X27635359Y25360962D01*
X27637752Y25354333D01*
X27637753Y25354329D01*
X27638842Y25351313D01*
X27643723Y25331737D01*
X27645177Y25321582D01*
X27648096Y25315163D01*
X27648097Y25315158D01*
X27664881Y25278243D01*
X27667877Y25270885D01*
X27670841Y25262675D01*
X27684040Y25226113D01*
X27690092Y25217828D01*
X27700268Y25200414D01*
X27704516Y25191072D01*
X27709121Y25185728D01*
X27735593Y25155005D01*
X27740533Y25148784D01*
X27749022Y25137164D01*
X27760486Y25125700D01*
X27765481Y25120319D01*
X27791887Y25089674D01*
X27798100Y25082463D01*
X27804020Y25078626D01*
X27805311Y25077789D01*
X27821468Y25064718D01*
X28359004Y24527182D01*
X28386781Y24472665D01*
X28388000Y24457178D01*
X28388000Y24059326D01*
X28402534Y23986260D01*
X28457899Y23903399D01*
X28466009Y23897980D01*
X28481975Y23887312D01*
X28540760Y23848034D01*
X28550322Y23846132D01*
X28550493Y23846098D01*
X28550745Y23845957D01*
X28559332Y23842400D01*
X28558911Y23841384D01*
X28603877Y23816201D01*
X28629493Y23760636D01*
X28617556Y23700627D01*
X28572626Y23659094D01*
X28550493Y23651902D01*
X28540760Y23649966D01*
X28526656Y23640542D01*
X28512650Y23631184D01*
X28457650Y23614500D01*
X28355702Y23614500D01*
X28297511Y23633407D01*
X28268388Y23667147D01*
X28266710Y23671588D01*
X28263230Y23676651D01*
X28180912Y23796424D01*
X28180911Y23796425D01*
X28177531Y23801343D01*
X28173078Y23805310D01*
X28173075Y23805314D01*
X28101794Y23868822D01*
X28059976Y23906081D01*
X28052121Y23910240D01*
X27926105Y23976963D01*
X27926102Y23976964D01*
X27920831Y23979755D01*
X27842318Y23999476D01*
X27773918Y24016657D01*
X27773915Y24016657D01*
X27768128Y24018111D01*
X27688564Y24018527D01*
X27616650Y24018904D01*
X27616648Y24018904D01*
X27610684Y24018935D01*
X27499799Y23992314D01*
X27469297Y23984991D01*
X27457588Y23982180D01*
X27412625Y23958973D01*
X27322985Y23912707D01*
X27322983Y23912705D01*
X27317679Y23909968D01*
X27199034Y23806467D01*
X27108501Y23677652D01*
X27051309Y23530961D01*
X27050531Y23525050D01*
X27050530Y23525047D01*
X27046050Y23491018D01*
X27030758Y23374862D01*
X27048035Y23218367D01*
X27050087Y23212760D01*
X27099753Y23077042D01*
X27102143Y23070510D01*
X27105472Y23065556D01*
X27186629Y22944781D01*
X27186632Y22944777D01*
X27189958Y22939828D01*
X27194369Y22935814D01*
X27194371Y22935812D01*
X27300017Y22839682D01*
X27306410Y22833865D01*
X27324091Y22824265D01*
X27439530Y22761586D01*
X27439532Y22761585D01*
X27444776Y22758738D01*
X27597069Y22718785D01*
X27603033Y22718691D01*
X27607015Y22718146D01*
X27650182Y22698360D01*
X27651205Y22699918D01*
X27657106Y22696042D01*
X27662388Y22691377D01*
X27671671Y22687018D01*
X27688962Y22676630D01*
X27693761Y22673033D01*
X27728986Y22623007D01*
X27728080Y22561829D01*
X27691387Y22512867D01*
X27633872Y22494814D01*
X27616651Y22494904D01*
X27616649Y22494904D01*
X27610684Y22494935D01*
X27496796Y22467593D01*
X27469297Y22460991D01*
X27457588Y22458180D01*
X27404205Y22430627D01*
X27322985Y22388707D01*
X27322983Y22388705D01*
X27317679Y22385968D01*
X27199034Y22282467D01*
X27108501Y22153652D01*
X27051309Y22006961D01*
X27050531Y22001050D01*
X27050530Y22001047D01*
X27045640Y21963904D01*
X27030758Y21850862D01*
X18428454Y21850862D01*
X17909817Y22369499D01*
X17882040Y22424016D01*
X17891611Y22484448D01*
X17935338Y22527947D01*
X18061647Y22591474D01*
X18061649Y22591475D01*
X18066973Y22594153D01*
X18088469Y22612512D01*
X18182158Y22692530D01*
X18182159Y22692531D01*
X18186696Y22696406D01*
X18253466Y22789326D01*
X18275088Y22819416D01*
X18275089Y22819418D01*
X18278572Y22824265D01*
X18281287Y22831017D01*
X18335074Y22964817D01*
X18335075Y22964819D01*
X18337298Y22970350D01*
X18338178Y22976528D01*
X18359026Y23123019D01*
X18359026Y23123023D01*
X18359482Y23126225D01*
X18359626Y23139948D01*
X18348887Y23228688D01*
X18341428Y23290332D01*
X18341427Y23290335D01*
X18340711Y23296254D01*
X18285058Y23443536D01*
X18195879Y23573291D01*
X18191426Y23577258D01*
X18191423Y23577262D01*
X18109821Y23649966D01*
X18078324Y23678029D01*
X18071204Y23681799D01*
X17944453Y23748911D01*
X17944450Y23748912D01*
X17939179Y23751703D01*
X17786476Y23790059D01*
X17786843Y23791520D01*
X17735380Y23816730D01*
X16113284Y25438826D01*
X16577000Y25438826D01*
X16591534Y25365760D01*
X16614268Y25331736D01*
X16625750Y25314552D01*
X16646899Y25282899D01*
X16655009Y25277480D01*
X16672939Y25265500D01*
X16729760Y25227534D01*
X16802826Y25213000D01*
X17330757Y25213000D01*
X17388948Y25194093D01*
X17400761Y25184004D01*
X17830964Y24753801D01*
X17839502Y24744064D01*
X17859718Y24717718D01*
X17935247Y24659763D01*
X17985159Y24621464D01*
X18131238Y24560956D01*
X18288000Y24540318D01*
X18320928Y24544653D01*
X18333849Y24545500D01*
X18869981Y24545500D01*
X18928172Y24526593D01*
X18930320Y24524758D01*
X18932899Y24520899D01*
X19015760Y24465534D01*
X19088826Y24451000D01*
X19112500Y24451000D01*
X19170691Y24432093D01*
X19206655Y24382593D01*
X19211500Y24352000D01*
X19211500Y24162000D01*
X19192593Y24103809D01*
X19143093Y24067845D01*
X19112500Y24063000D01*
X19088826Y24063000D01*
X19015760Y24048466D01*
X18932899Y23993101D01*
X18927480Y23984991D01*
X18922911Y23978153D01*
X18877534Y23910240D01*
X18863000Y23837174D01*
X18863000Y22898826D01*
X18877534Y22825760D01*
X18901878Y22789326D01*
X18923328Y22757224D01*
X18932899Y22742899D01*
X19015760Y22687534D01*
X19088826Y22673000D01*
X19798491Y22673000D01*
X19833243Y22666700D01*
X19867752Y22653763D01*
X19875074Y22650677D01*
X19911775Y22633446D01*
X19911776Y22633446D01*
X19918163Y22630447D01*
X19928300Y22628869D01*
X19947816Y22623748D01*
X19950816Y22622623D01*
X19950818Y22622623D01*
X19957419Y22620148D01*
X20004904Y22616619D01*
X20012792Y22615713D01*
X20023228Y22614088D01*
X20023236Y22614087D01*
X20027009Y22613500D01*
X20043208Y22613500D01*
X20050545Y22613228D01*
X20100391Y22609524D01*
X20107286Y22610996D01*
X20107288Y22610996D01*
X20108800Y22611319D01*
X20129467Y22613500D01*
X22107650Y22613500D01*
X22162650Y22596816D01*
X22190760Y22578034D01*
X22263826Y22563500D01*
X23456174Y22563500D01*
X23529240Y22578034D01*
X23581838Y22613178D01*
X23603991Y22627980D01*
X23612101Y22633399D01*
X23624776Y22652368D01*
X23648272Y22687534D01*
X23667466Y22716260D01*
X23682000Y22789326D01*
X23682000Y23438674D01*
X23667466Y23511740D01*
X23629626Y23568372D01*
X23617520Y23586491D01*
X23612101Y23594601D01*
X23529240Y23649966D01*
X23519507Y23651902D01*
X23519255Y23652043D01*
X23510668Y23655600D01*
X23511089Y23656616D01*
X23466123Y23681799D01*
X23440507Y23737364D01*
X23452444Y23797373D01*
X23497374Y23838906D01*
X23519507Y23846098D01*
X23519678Y23846132D01*
X23529240Y23848034D01*
X23588025Y23887312D01*
X23603991Y23897980D01*
X23612101Y23903399D01*
X23667466Y23986260D01*
X23682000Y24059326D01*
X23682000Y24708674D01*
X23667466Y24781740D01*
X23612101Y24864601D01*
X23529240Y24919966D01*
X23515192Y24922760D01*
X23460947Y24933551D01*
X23460943Y24933551D01*
X23456174Y24934500D01*
X23451304Y24934500D01*
X23449800Y24934648D01*
X23393742Y24959166D01*
X23362801Y25011951D01*
X23360500Y25033172D01*
X23360500Y26170965D01*
X23362402Y26190280D01*
X23363553Y26196065D01*
X23364500Y26200826D01*
X23364500Y26870178D01*
X23383407Y26928369D01*
X23393496Y26940182D01*
X23674419Y27221105D01*
X23684399Y27229079D01*
X23684384Y27229096D01*
X23689751Y27233664D01*
X23695720Y27237430D01*
X23706298Y27249407D01*
X23758988Y27280506D01*
X23819897Y27274694D01*
X23865757Y27234192D01*
X23879500Y27183871D01*
X23879500Y26200826D01*
X23894034Y26127760D01*
X23899451Y26119653D01*
X23928250Y26076552D01*
X23949399Y26044899D01*
X24032260Y25989534D01*
X24105326Y25975000D01*
X25043674Y25975000D01*
X25116740Y25989534D01*
X25199601Y26044899D01*
X25220751Y26076552D01*
X25249549Y26119653D01*
X25254966Y26127760D01*
X25269500Y26200826D01*
X25269500Y26224500D01*
X25288407Y26282691D01*
X25337907Y26318655D01*
X25368500Y26323500D01*
X25431500Y26323500D01*
X25489691Y26304593D01*
X25525655Y26255093D01*
X25530500Y26224500D01*
X25530500Y26200826D01*
X25545034Y26127760D01*
X25550451Y26119653D01*
X25579250Y26076552D01*
X25600399Y26044899D01*
X25683260Y25989534D01*
X25756326Y25975000D01*
X26694674Y25975000D01*
X26767740Y25989534D01*
X26850601Y26044899D01*
X26871751Y26076552D01*
X26900549Y26119653D01*
X26905966Y26127760D01*
X26920500Y26200826D01*
X26920500Y27647174D01*
X26905966Y27720240D01*
X26850601Y27803101D01*
X26767740Y27858466D01*
X26694674Y27873000D01*
X26607500Y27873000D01*
X26549309Y27891907D01*
X26513345Y27941407D01*
X26508500Y27972000D01*
X26508500Y28352500D01*
X26527407Y28410691D01*
X26576907Y28446655D01*
X26607500Y28451500D01*
X26694674Y28451500D01*
X26767740Y28466034D01*
X26850601Y28521399D01*
X26905966Y28604260D01*
X26920500Y28677326D01*
X26920500Y30250674D01*
X26905966Y30323740D01*
X26850601Y30406601D01*
X26767740Y30461966D01*
X26694674Y30476500D01*
X26607500Y30476500D01*
X26549309Y30495407D01*
X26513345Y30544907D01*
X26508500Y30575500D01*
X26508500Y30892500D01*
X26527407Y30950691D01*
X26576907Y30986655D01*
X26607500Y30991500D01*
X26694674Y30991500D01*
X26767740Y31006034D01*
X26850601Y31061399D01*
X26905966Y31144260D01*
X26920500Y31217326D01*
X26920500Y32790674D01*
X26905966Y32863740D01*
X26850601Y32946601D01*
X26767740Y33001966D01*
X26694674Y33016500D01*
X25121326Y33016500D01*
X25048260Y33001966D01*
X24965399Y32946601D01*
X24910034Y32863740D01*
X24895500Y32790674D01*
X24895500Y31217326D01*
X24910034Y31144260D01*
X24965399Y31061399D01*
X25048260Y31006034D01*
X25121326Y30991500D01*
X25208500Y30991500D01*
X25266691Y30972593D01*
X25302655Y30923093D01*
X25307500Y30892500D01*
X25307500Y30575500D01*
X25288593Y30517309D01*
X25239093Y30481345D01*
X25208500Y30476500D01*
X25121326Y30476500D01*
X25048260Y30461966D01*
X24965399Y30406601D01*
X24910034Y30323740D01*
X24895500Y30250674D01*
X24895500Y28677326D01*
X24910034Y28604260D01*
X24965399Y28521399D01*
X25048260Y28466034D01*
X25121326Y28451500D01*
X25208500Y28451500D01*
X25266691Y28432593D01*
X25302655Y28383093D01*
X25307500Y28352500D01*
X25307500Y27916221D01*
X25288593Y27858030D01*
X25239093Y27822066D01*
X25177907Y27822066D01*
X25153499Y27833905D01*
X25124847Y27853049D01*
X25124848Y27853049D01*
X25116740Y27858466D01*
X25043674Y27873000D01*
X24105326Y27873000D01*
X24032260Y27858466D01*
X24022501Y27851945D01*
X24019327Y27851050D01*
X24015145Y27849318D01*
X24014940Y27849813D01*
X23963615Y27835337D01*
X23906211Y27856514D01*
X23872217Y27907387D01*
X23868500Y27934261D01*
X23868500Y28352500D01*
X23887407Y28410691D01*
X23936907Y28446655D01*
X23967500Y28451500D01*
X24154674Y28451500D01*
X24227740Y28466034D01*
X24310601Y28521399D01*
X24365966Y28604260D01*
X24380500Y28677326D01*
X24380500Y30250674D01*
X24365966Y30323740D01*
X24310601Y30406601D01*
X24227740Y30461966D01*
X24154674Y30476500D01*
X23967500Y30476500D01*
X23909309Y30495407D01*
X23873345Y30544907D01*
X23868500Y30575500D01*
X23868500Y30892500D01*
X23887407Y30950691D01*
X23936907Y30986655D01*
X23967500Y30991500D01*
X24154674Y30991500D01*
X24227740Y31006034D01*
X24310601Y31061399D01*
X24365966Y31144260D01*
X24380500Y31217326D01*
X24380500Y32790674D01*
X24365966Y32863740D01*
X24310601Y32946601D01*
X24227740Y33001966D01*
X24154674Y33016500D01*
X22581326Y33016500D01*
X22508260Y33001966D01*
X22425399Y32946601D01*
X22370034Y32863740D01*
X22355500Y32790674D01*
X22355500Y31217326D01*
X22370034Y31144260D01*
X22425399Y31061399D01*
X22508260Y31006034D01*
X22581326Y30991500D01*
X22768500Y30991500D01*
X22826691Y30972593D01*
X22862655Y30923093D01*
X22867500Y30892500D01*
X22867500Y30575500D01*
X22848593Y30517309D01*
X22799093Y30481345D01*
X22768500Y30476500D01*
X22581326Y30476500D01*
X22508260Y30461966D01*
X22425399Y30406601D01*
X22370034Y30323740D01*
X22355500Y30250674D01*
X22355500Y28677326D01*
X22370034Y28604260D01*
X22425399Y28521399D01*
X22508260Y28466034D01*
X22581326Y28451500D01*
X22768500Y28451500D01*
X22826691Y28432593D01*
X22862655Y28383093D01*
X22867500Y28352500D01*
X22867500Y27972000D01*
X22848593Y27913809D01*
X22799093Y27877845D01*
X22768500Y27873000D01*
X22200326Y27873000D01*
X22127260Y27858466D01*
X22044399Y27803101D01*
X21989034Y27720240D01*
X21974500Y27647174D01*
X21974500Y26200826D01*
X21989034Y26127760D01*
X21994451Y26119653D01*
X22023250Y26076552D01*
X22044399Y26044899D01*
X22127260Y25989534D01*
X22200326Y25975000D01*
X22260500Y25975000D01*
X22318691Y25956093D01*
X22354655Y25906593D01*
X22359500Y25876000D01*
X22359500Y25033172D01*
X22340593Y24974981D01*
X22291093Y24939017D01*
X22270200Y24934648D01*
X22268696Y24934500D01*
X22263826Y24934500D01*
X22259057Y24933551D01*
X22259053Y24933551D01*
X22204808Y24922760D01*
X22190760Y24919966D01*
X22107899Y24864601D01*
X22052534Y24781740D01*
X22038000Y24708674D01*
X22038000Y24059326D01*
X22052534Y23986260D01*
X22107899Y23903399D01*
X22116009Y23897980D01*
X22131975Y23887312D01*
X22190760Y23848034D01*
X22200322Y23846132D01*
X22200493Y23846098D01*
X22200745Y23845957D01*
X22209332Y23842400D01*
X22208911Y23841384D01*
X22253877Y23816201D01*
X22279493Y23760636D01*
X22267556Y23700627D01*
X22222626Y23659094D01*
X22200493Y23651902D01*
X22190760Y23649966D01*
X22176656Y23640542D01*
X22162650Y23631184D01*
X22107650Y23614500D01*
X20860000Y23614500D01*
X20801809Y23633407D01*
X20765845Y23682907D01*
X20761000Y23713500D01*
X20761000Y23837174D01*
X20746466Y23910240D01*
X20701089Y23978153D01*
X20696520Y23984991D01*
X20691101Y23993101D01*
X20608240Y24048466D01*
X20535174Y24063000D01*
X20511500Y24063000D01*
X20453309Y24081907D01*
X20417345Y24131407D01*
X20412500Y24162000D01*
X20412500Y24352000D01*
X20431407Y24410191D01*
X20480907Y24446155D01*
X20511500Y24451000D01*
X20535174Y24451000D01*
X20608240Y24465534D01*
X20691101Y24520899D01*
X20746466Y24603760D01*
X20761000Y24676826D01*
X20761000Y25615174D01*
X20746466Y25688240D01*
X20691101Y25771101D01*
X20678922Y25779239D01*
X20616347Y25821049D01*
X20616348Y25821049D01*
X20608240Y25826466D01*
X20535174Y25841000D01*
X19088826Y25841000D01*
X19015760Y25826466D01*
X19007652Y25821049D01*
X19007653Y25821049D01*
X18945079Y25779239D01*
X18932899Y25771101D01*
X18932508Y25771686D01*
X18885468Y25747719D01*
X18869981Y25746500D01*
X18577743Y25746500D01*
X18519552Y25765407D01*
X18507739Y25775496D01*
X18503996Y25779239D01*
X18476219Y25833756D01*
X18475000Y25849243D01*
X18475000Y26377174D01*
X18460466Y26450240D01*
X18405101Y26533101D01*
X18384897Y26546601D01*
X18330347Y26583049D01*
X18330348Y26583049D01*
X18322240Y26588466D01*
X18249174Y26603000D01*
X16802826Y26603000D01*
X16729760Y26588466D01*
X16721652Y26583049D01*
X16721653Y26583049D01*
X16667104Y26546601D01*
X16646899Y26533101D01*
X16591534Y26450240D01*
X16577000Y26377174D01*
X16577000Y25438826D01*
X16113284Y25438826D01*
X13571681Y27980429D01*
X13563707Y27990409D01*
X13563690Y27990394D01*
X13559120Y27995764D01*
X13555356Y28001730D01*
X13550071Y28006398D01*
X13550068Y28006401D01*
X13515078Y28037302D01*
X13510608Y28041502D01*
X13498780Y28053330D01*
X13489733Y28060110D01*
X13483587Y28065114D01*
X13447898Y28096633D01*
X13438615Y28100992D01*
X13421320Y28111383D01*
X13413110Y28117536D01*
X13373365Y28132436D01*
X13368540Y28134245D01*
X13361220Y28137330D01*
X13324512Y28154564D01*
X13324508Y28154565D01*
X13318123Y28157563D01*
X13311155Y28158648D01*
X13311151Y28158649D01*
X13307994Y28159140D01*
X13288466Y28164263D01*
X13285466Y28165388D01*
X13285464Y28165388D01*
X13278866Y28167862D01*
X13231378Y28171391D01*
X13223493Y28172297D01*
X13213058Y28173922D01*
X13213050Y28173923D01*
X13209277Y28174510D01*
X13193077Y28174510D01*
X13185741Y28174782D01*
X13182451Y28175026D01*
X13135894Y28178486D01*
X13128999Y28177014D01*
X13128997Y28177014D01*
X13127485Y28176691D01*
X13106818Y28174510D01*
X9498495Y28174510D01*
X9485798Y28175929D01*
X9485796Y28175906D01*
X9478764Y28176472D01*
X9471886Y28178028D01*
X9418241Y28174700D01*
X9412111Y28174510D01*
X9395394Y28174510D01*
X9391914Y28174012D01*
X9391904Y28174011D01*
X9384198Y28172908D01*
X9376302Y28172099D01*
X9335835Y28169588D01*
X9335834Y28169588D01*
X9328795Y28169151D01*
X9319143Y28165667D01*
X9299568Y28160787D01*
X9289416Y28159333D01*
X9282997Y28156415D01*
X9282992Y28156413D01*
X9246072Y28139626D01*
X9238716Y28136631D01*
X9193947Y28120470D01*
X9185662Y28114418D01*
X9168248Y28104242D01*
X9158906Y28099994D01*
X9122823Y28068903D01*
X9116614Y28063973D01*
X9104998Y28055487D01*
X9093541Y28044030D01*
X9088160Y28039035D01*
X9050297Y28006410D01*
X9045618Y27999192D01*
X9032550Y27983039D01*
X8075581Y27026071D01*
X8065601Y27018097D01*
X8065616Y27018080D01*
X8060248Y27013511D01*
X8054280Y27009746D01*
X8049609Y27004457D01*
X8018707Y26969467D01*
X8014507Y26964997D01*
X8002680Y26953170D01*
X7995902Y26944126D01*
X7990896Y26937977D01*
X7959377Y26902288D01*
X7955018Y26893005D01*
X7944627Y26875710D01*
X7938474Y26867500D01*
X7934820Y26857752D01*
X7921765Y26822930D01*
X7918680Y26815610D01*
X7901446Y26778902D01*
X7901445Y26778898D01*
X7898447Y26772513D01*
X7897362Y26765545D01*
X7897361Y26765541D01*
X7896870Y26762384D01*
X7891747Y26742856D01*
X7888148Y26733256D01*
X7886433Y26710172D01*
X7884620Y26685778D01*
X7883713Y26677883D01*
X7882088Y26667448D01*
X7882087Y26667440D01*
X7881500Y26663667D01*
X7881500Y26647467D01*
X7881228Y26640131D01*
X7877524Y26590284D01*
X7878996Y26583389D01*
X7878996Y26583387D01*
X7879319Y26581875D01*
X7881500Y26561208D01*
X7881500Y24062318D01*
X7862593Y24004127D01*
X7852504Y23992314D01*
X6614686Y22754496D01*
X6560169Y22726719D01*
X6544682Y22725500D01*
X6383850Y22725500D01*
X6328850Y22742184D01*
X6327780Y22742899D01*
X6300740Y22760966D01*
X6291007Y22762902D01*
X6290755Y22763043D01*
X6282168Y22766600D01*
X6282589Y22767616D01*
X6237623Y22792799D01*
X6212007Y22848364D01*
X6223944Y22908373D01*
X6268874Y22949906D01*
X6291007Y22957098D01*
X6291178Y22957132D01*
X6300740Y22959034D01*
X6351995Y22993281D01*
X6375491Y23008980D01*
X6383601Y23014399D01*
X6389599Y23023375D01*
X6412483Y23057624D01*
X6438966Y23097260D01*
X6453500Y23170326D01*
X6453500Y23819674D01*
X6438966Y23892740D01*
X6383601Y23975601D01*
X6367649Y23986260D01*
X6315191Y24021310D01*
X6300740Y24030966D01*
X6291007Y24032902D01*
X6290755Y24033043D01*
X6282168Y24036600D01*
X6282589Y24037616D01*
X6237623Y24062799D01*
X6212007Y24118364D01*
X6223944Y24178373D01*
X6268874Y24219906D01*
X6291007Y24227098D01*
X6291178Y24227132D01*
X6300740Y24229034D01*
X6383601Y24284399D01*
X6393435Y24299116D01*
X6433549Y24359153D01*
X6438966Y24367260D01*
X6453500Y24440326D01*
X6453500Y25089674D01*
X6438966Y25162740D01*
X6404813Y25213855D01*
X6389020Y25237491D01*
X6389019Y25237492D01*
X6383601Y25245601D01*
X6375038Y25251323D01*
X6315642Y25291009D01*
X6300740Y25300966D01*
X6227674Y25315500D01*
X4628326Y25315500D01*
X4555260Y25300966D01*
X4540358Y25291009D01*
X4527150Y25282184D01*
X4472150Y25265500D01*
X4004161Y25265500D01*
X3991464Y25266919D01*
X3991462Y25266896D01*
X3984430Y25267462D01*
X3977552Y25269018D01*
X3923907Y25265690D01*
X3917777Y25265500D01*
X3901060Y25265500D01*
X3897580Y25265002D01*
X3897570Y25265001D01*
X3889864Y25263898D01*
X3881968Y25263089D01*
X3841501Y25260578D01*
X3841500Y25260578D01*
X3834461Y25260141D01*
X3824809Y25256657D01*
X3805234Y25251777D01*
X3795082Y25250323D01*
X3788663Y25247405D01*
X3788658Y25247403D01*
X3751738Y25230616D01*
X3744382Y25227621D01*
X3699613Y25211460D01*
X3691328Y25205408D01*
X3673914Y25195232D01*
X3664572Y25190984D01*
X3628489Y25159893D01*
X3622280Y25154963D01*
X3618216Y25151994D01*
X3613822Y25148784D01*
X3610664Y25146477D01*
X3599207Y25135020D01*
X3593826Y25130025D01*
X3583530Y25121153D01*
X3555963Y25097400D01*
X3551284Y25090182D01*
X3538216Y25074029D01*
X2569591Y24105405D01*
X2559611Y24097431D01*
X2559626Y24097414D01*
X2554258Y24092845D01*
X2548290Y24089080D01*
X2543619Y24083791D01*
X2512717Y24048801D01*
X2508517Y24044331D01*
X2496690Y24032504D01*
X2491477Y24025548D01*
X2489912Y24023460D01*
X2484906Y24017311D01*
X2453387Y23981622D01*
X2449028Y23972339D01*
X2438637Y23955044D01*
X2432484Y23946834D01*
X2430008Y23940229D01*
X2415775Y23902264D01*
X2412690Y23894944D01*
X2395456Y23858236D01*
X2395455Y23858232D01*
X2392457Y23851847D01*
X2391372Y23844879D01*
X2391371Y23844875D01*
X2390880Y23841718D01*
X2385757Y23822190D01*
X2382158Y23812590D01*
X2379469Y23776399D01*
X2378630Y23765112D01*
X2377723Y23757217D01*
X2376098Y23746782D01*
X2376097Y23746774D01*
X2375510Y23743001D01*
X2375510Y23726801D01*
X2375238Y23719465D01*
X2371534Y23669618D01*
X2373006Y23662723D01*
X2373006Y23662721D01*
X2373329Y23661209D01*
X2375510Y23640542D01*
X2375510Y21622000D01*
X2356603Y21563809D01*
X2307103Y21527845D01*
X2276510Y21523000D01*
X1943826Y21523000D01*
X1870760Y21508466D01*
X1787899Y21453101D01*
X1732534Y21370240D01*
X1718000Y21297174D01*
X1718000Y19850826D01*
X1732534Y19777760D01*
X1787899Y19694899D01*
X1796009Y19689480D01*
X1868501Y19641043D01*
X1906381Y19592993D01*
X1912500Y19558727D01*
X1912500Y19049273D01*
X1893593Y18991082D01*
X1868501Y18966957D01*
X1802069Y18922569D01*
X1787899Y18913101D01*
X1732534Y18830240D01*
X1718000Y18757174D01*
X1718000Y17310826D01*
X1732534Y17237760D01*
X1787899Y17154899D01*
X1870760Y17099534D01*
X1943826Y17085000D01*
X1991300Y17085000D01*
X2049491Y17066093D01*
X2085455Y17016593D01*
X2090300Y16986000D01*
X2090300Y16732500D01*
X2071393Y16674309D01*
X2021893Y16638345D01*
X1991300Y16633500D01*
X1867626Y16633500D01*
X1794560Y16618966D01*
X1711699Y16563601D01*
X1706280Y16555491D01*
X1694593Y16538000D01*
X1656334Y16480740D01*
X1641800Y16407674D01*
X1641061Y16407821D01*
X1618131Y16355399D01*
X1565345Y16324460D01*
X1544128Y16322160D01*
X995930Y16322160D01*
X937739Y16341067D01*
X901775Y16390567D01*
X896930Y16421160D01*
X896930Y16496574D01*
X882396Y16569640D01*
X844662Y16626114D01*
X832450Y16644391D01*
X827031Y16652501D01*
X813297Y16661678D01*
X774568Y16687555D01*
X744170Y16707866D01*
X671104Y16722400D01*
X-1077504Y16722400D01*
X-1150570Y16707866D01*
X-1180968Y16687555D01*
X-1219696Y16661678D01*
X-1233431Y16652501D01*
X-1238850Y16644391D01*
X-1251062Y16626114D01*
X-1288796Y16569640D01*
X-1303330Y16496574D01*
X-1303330Y15146746D01*
X-4575500Y15146746D01*
X-4575500Y28817026D01*
X15409870Y28817026D01*
X15424404Y28743960D01*
X15479769Y28661099D01*
X15562630Y28605734D01*
X15635696Y28591200D01*
X15892373Y28591200D01*
X15950564Y28572293D01*
X15978391Y28536997D01*
X15979736Y28537774D01*
X15982981Y28532154D01*
X15985464Y28526159D01*
X16081718Y28400718D01*
X16086871Y28396764D01*
X16108064Y28380502D01*
X16117801Y28371964D01*
X16548004Y27941761D01*
X16575781Y27887244D01*
X16577000Y27871757D01*
X16577000Y27343826D01*
X16591534Y27270760D01*
X16646899Y27187899D01*
X16729760Y27132534D01*
X16802826Y27118000D01*
X18249174Y27118000D01*
X18322240Y27132534D01*
X18405101Y27187899D01*
X18460466Y27270760D01*
X18475000Y27343826D01*
X18475000Y27871757D01*
X18493907Y27929948D01*
X18503996Y27941761D01*
X18680199Y28117964D01*
X18689936Y28126502D01*
X18704898Y28137983D01*
X18716282Y28146718D01*
X18812536Y28272159D01*
X18873044Y28418238D01*
X18884228Y28503186D01*
X18910568Y28558410D01*
X18916136Y28563834D01*
X18957035Y28600659D01*
X18957038Y28600663D01*
X18960888Y28604129D01*
X19072151Y28757270D01*
X19098757Y28817026D01*
X19147035Y28925460D01*
X19147035Y28925461D01*
X19149144Y28930197D01*
X19188500Y29115354D01*
X19188500Y29304646D01*
X19149144Y29489803D01*
X19072151Y29662730D01*
X18960888Y29815871D01*
X18957038Y29819337D01*
X18957035Y29819341D01*
X18824072Y29939061D01*
X18820216Y29942533D01*
X18815725Y29945126D01*
X18660774Y30034587D01*
X18660772Y30034588D01*
X18656284Y30037179D01*
X18651354Y30038781D01*
X18481188Y30094072D01*
X18481183Y30094073D01*
X18476256Y30095674D01*
X18335192Y30110500D01*
X17702587Y30110500D01*
X17644396Y30129407D01*
X17608432Y30178907D01*
X17605489Y30190186D01*
X17597498Y30230357D01*
X17597498Y30230358D01*
X17595596Y30239920D01*
X17540231Y30322781D01*
X17457370Y30378146D01*
X17384304Y30392680D01*
X16531587Y30392680D01*
X16526406Y30392816D01*
X16467792Y30395888D01*
X16467788Y30395888D01*
X16462612Y30396159D01*
X16457493Y30395348D01*
X16457489Y30395348D01*
X16448343Y30393899D01*
X16432856Y30392680D01*
X15635696Y30392680D01*
X15562630Y30378146D01*
X15479769Y30322781D01*
X15424404Y30239920D01*
X15409870Y30166854D01*
X15409870Y28817026D01*
X-4575500Y28817026D01*
X-4575500Y34956500D01*
X-4556593Y35014691D01*
X-4507093Y35050655D01*
X-4476500Y35055500D01*
X55276500Y35055500D01*
X55334691Y35036593D01*
G37*
%TD.AperFunction*%
%TD*%
M02*
