%TF.GenerationSoftware,KiCad,Pcbnew,7.0.5.1-1-g8f565ef7f0-dirty-deb11*%
%TF.CreationDate,2023-07-21T03:26:07+00:00*%
%TF.ProjectId,VCAI2C01,56434149-3243-4303-912e-6b696361645f,rev?*%
%TF.SameCoordinates,Original*%
%TF.FileFunction,Legend,Bot*%
%TF.FilePolarity,Positive*%
%FSLAX46Y46*%
G04 Gerber Fmt 4.6, Leading zero omitted, Abs format (unit mm)*
G04 Created by KiCad (PCBNEW 7.0.5.1-1-g8f565ef7f0-dirty-deb11) date 2023-07-21 03:26:07*
%MOMM*%
%LPD*%
G01*
G04 APERTURE LIST*
%ADD10C,0.109220*%
%ADD11C,0.304800*%
%ADD12C,0.099060*%
%ADD13C,0.150000*%
%ADD14C,0.127000*%
G04 APERTURE END LIST*
D10*
%TO.C,C1*%
X1543896Y20713350D02*
X1567724Y20689522D01*
X1567724Y20689522D02*
X1639206Y20665695D01*
X1639206Y20665695D02*
X1686862Y20665695D01*
X1686862Y20665695D02*
X1758345Y20689522D01*
X1758345Y20689522D02*
X1806000Y20737178D01*
X1806000Y20737178D02*
X1829827Y20784833D01*
X1829827Y20784833D02*
X1853655Y20880143D01*
X1853655Y20880143D02*
X1853655Y20951626D01*
X1853655Y20951626D02*
X1829827Y21046937D01*
X1829827Y21046937D02*
X1806000Y21094592D01*
X1806000Y21094592D02*
X1758345Y21142247D01*
X1758345Y21142247D02*
X1686862Y21166075D01*
X1686862Y21166075D02*
X1639206Y21166075D01*
X1639206Y21166075D02*
X1567724Y21142247D01*
X1567724Y21142247D02*
X1543896Y21118420D01*
X1067344Y20665695D02*
X1353275Y20665695D01*
X1210309Y20665695D02*
X1210309Y21166075D01*
X1210309Y21166075D02*
X1257965Y21094592D01*
X1257965Y21094592D02*
X1305620Y21046937D01*
X1305620Y21046937D02*
X1353275Y21023109D01*
X1869621Y19967195D02*
X2155552Y19967195D01*
X2012586Y19967195D02*
X2012586Y20467575D01*
X2012586Y20467575D02*
X2060242Y20396092D01*
X2060242Y20396092D02*
X2107897Y20348437D01*
X2107897Y20348437D02*
X2155552Y20324609D01*
X1559862Y20467575D02*
X1512207Y20467575D01*
X1512207Y20467575D02*
X1464551Y20443747D01*
X1464551Y20443747D02*
X1440724Y20419920D01*
X1440724Y20419920D02*
X1416896Y20372264D01*
X1416896Y20372264D02*
X1393069Y20276954D01*
X1393069Y20276954D02*
X1393069Y20157816D01*
X1393069Y20157816D02*
X1416896Y20062505D01*
X1416896Y20062505D02*
X1440724Y20014850D01*
X1440724Y20014850D02*
X1464551Y19991022D01*
X1464551Y19991022D02*
X1512207Y19967195D01*
X1512207Y19967195D02*
X1559862Y19967195D01*
X1559862Y19967195D02*
X1607517Y19991022D01*
X1607517Y19991022D02*
X1631345Y20014850D01*
X1631345Y20014850D02*
X1655172Y20062505D01*
X1655172Y20062505D02*
X1679000Y20157816D01*
X1679000Y20157816D02*
X1679000Y20276954D01*
X1679000Y20276954D02*
X1655172Y20372264D01*
X1655172Y20372264D02*
X1631345Y20419920D01*
X1631345Y20419920D02*
X1607517Y20443747D01*
X1607517Y20443747D02*
X1559862Y20467575D01*
X1178620Y20300782D02*
X1178620Y19967195D01*
X1178620Y20253126D02*
X1154793Y20276954D01*
X1154793Y20276954D02*
X1107138Y20300782D01*
X1107138Y20300782D02*
X1035655Y20300782D01*
X1035655Y20300782D02*
X987999Y20276954D01*
X987999Y20276954D02*
X964172Y20229299D01*
X964172Y20229299D02*
X964172Y19967195D01*
X559102Y20229299D02*
X725895Y20229299D01*
X725895Y19967195D02*
X725895Y20467575D01*
X725895Y20467575D02*
X487619Y20467575D01*
%TO.C,C2*%
X19672650Y22498897D02*
X19696478Y22522725D01*
X19696478Y22522725D02*
X19720305Y22594207D01*
X19720305Y22594207D02*
X19720305Y22641863D01*
X19720305Y22641863D02*
X19696478Y22713346D01*
X19696478Y22713346D02*
X19648822Y22761001D01*
X19648822Y22761001D02*
X19601167Y22784828D01*
X19601167Y22784828D02*
X19505857Y22808656D01*
X19505857Y22808656D02*
X19434374Y22808656D01*
X19434374Y22808656D02*
X19339063Y22784828D01*
X19339063Y22784828D02*
X19291408Y22761001D01*
X19291408Y22761001D02*
X19243753Y22713346D01*
X19243753Y22713346D02*
X19219925Y22641863D01*
X19219925Y22641863D02*
X19219925Y22594207D01*
X19219925Y22594207D02*
X19243753Y22522725D01*
X19243753Y22522725D02*
X19267580Y22498897D01*
X19267580Y22308276D02*
X19243753Y22284448D01*
X19243753Y22284448D02*
X19219925Y22236793D01*
X19219925Y22236793D02*
X19219925Y22117655D01*
X19219925Y22117655D02*
X19243753Y22070000D01*
X19243753Y22070000D02*
X19267580Y22046172D01*
X19267580Y22046172D02*
X19315236Y22022345D01*
X19315236Y22022345D02*
X19362891Y22022345D01*
X19362891Y22022345D02*
X19434374Y22046172D01*
X19434374Y22046172D02*
X19720305Y22332104D01*
X19720305Y22332104D02*
X19720305Y22022345D01*
X20418805Y23062898D02*
X20418805Y23348829D01*
X20418805Y23205863D02*
X19918425Y23205863D01*
X19918425Y23205863D02*
X19989908Y23253519D01*
X19989908Y23253519D02*
X20037563Y23301174D01*
X20037563Y23301174D02*
X20061391Y23348829D01*
X19918425Y22753139D02*
X19918425Y22705484D01*
X19918425Y22705484D02*
X19942253Y22657828D01*
X19942253Y22657828D02*
X19966080Y22634001D01*
X19966080Y22634001D02*
X20013736Y22610173D01*
X20013736Y22610173D02*
X20109046Y22586346D01*
X20109046Y22586346D02*
X20228184Y22586346D01*
X20228184Y22586346D02*
X20323495Y22610173D01*
X20323495Y22610173D02*
X20371150Y22634001D01*
X20371150Y22634001D02*
X20394978Y22657828D01*
X20394978Y22657828D02*
X20418805Y22705484D01*
X20418805Y22705484D02*
X20418805Y22753139D01*
X20418805Y22753139D02*
X20394978Y22800794D01*
X20394978Y22800794D02*
X20371150Y22824622D01*
X20371150Y22824622D02*
X20323495Y22848449D01*
X20323495Y22848449D02*
X20228184Y22872277D01*
X20228184Y22872277D02*
X20109046Y22872277D01*
X20109046Y22872277D02*
X20013736Y22848449D01*
X20013736Y22848449D02*
X19966080Y22824622D01*
X19966080Y22824622D02*
X19942253Y22800794D01*
X19942253Y22800794D02*
X19918425Y22753139D01*
X19918425Y22276587D02*
X19918425Y22228932D01*
X19918425Y22228932D02*
X19942253Y22181276D01*
X19942253Y22181276D02*
X19966080Y22157449D01*
X19966080Y22157449D02*
X20013736Y22133621D01*
X20013736Y22133621D02*
X20109046Y22109794D01*
X20109046Y22109794D02*
X20228184Y22109794D01*
X20228184Y22109794D02*
X20323495Y22133621D01*
X20323495Y22133621D02*
X20371150Y22157449D01*
X20371150Y22157449D02*
X20394978Y22181276D01*
X20394978Y22181276D02*
X20418805Y22228932D01*
X20418805Y22228932D02*
X20418805Y22276587D01*
X20418805Y22276587D02*
X20394978Y22324242D01*
X20394978Y22324242D02*
X20371150Y22348070D01*
X20371150Y22348070D02*
X20323495Y22371897D01*
X20323495Y22371897D02*
X20228184Y22395725D01*
X20228184Y22395725D02*
X20109046Y22395725D01*
X20109046Y22395725D02*
X20013736Y22371897D01*
X20013736Y22371897D02*
X19966080Y22348070D01*
X19966080Y22348070D02*
X19942253Y22324242D01*
X19942253Y22324242D02*
X19918425Y22276587D01*
X20085218Y21895345D02*
X20418805Y21895345D01*
X20132874Y21895345D02*
X20109046Y21871518D01*
X20109046Y21871518D02*
X20085218Y21823863D01*
X20085218Y21823863D02*
X20085218Y21752380D01*
X20085218Y21752380D02*
X20109046Y21704724D01*
X20109046Y21704724D02*
X20156701Y21680897D01*
X20156701Y21680897D02*
X20418805Y21680897D01*
X20156701Y21275827D02*
X20156701Y21442620D01*
X20418805Y21442620D02*
X19918425Y21442620D01*
X19918425Y21442620D02*
X19918425Y21204344D01*
%TO.C,C3*%
X20307650Y26181897D02*
X20331478Y26205725D01*
X20331478Y26205725D02*
X20355305Y26277207D01*
X20355305Y26277207D02*
X20355305Y26324863D01*
X20355305Y26324863D02*
X20331478Y26396346D01*
X20331478Y26396346D02*
X20283822Y26444001D01*
X20283822Y26444001D02*
X20236167Y26467828D01*
X20236167Y26467828D02*
X20140857Y26491656D01*
X20140857Y26491656D02*
X20069374Y26491656D01*
X20069374Y26491656D02*
X19974063Y26467828D01*
X19974063Y26467828D02*
X19926408Y26444001D01*
X19926408Y26444001D02*
X19878753Y26396346D01*
X19878753Y26396346D02*
X19854925Y26324863D01*
X19854925Y26324863D02*
X19854925Y26277207D01*
X19854925Y26277207D02*
X19878753Y26205725D01*
X19878753Y26205725D02*
X19902580Y26181897D01*
X19854925Y26015104D02*
X19854925Y25705345D01*
X19854925Y25705345D02*
X20045546Y25872138D01*
X20045546Y25872138D02*
X20045546Y25800655D01*
X20045546Y25800655D02*
X20069374Y25753000D01*
X20069374Y25753000D02*
X20093201Y25729172D01*
X20093201Y25729172D02*
X20140857Y25705345D01*
X20140857Y25705345D02*
X20259995Y25705345D01*
X20259995Y25705345D02*
X20307650Y25729172D01*
X20307650Y25729172D02*
X20331478Y25753000D01*
X20331478Y25753000D02*
X20355305Y25800655D01*
X20355305Y25800655D02*
X20355305Y25943621D01*
X20355305Y25943621D02*
X20331478Y25991276D01*
X20331478Y25991276D02*
X20307650Y26015104D01*
X19656805Y26761622D02*
X19656805Y27047553D01*
X19656805Y26904587D02*
X19156425Y26904587D01*
X19156425Y26904587D02*
X19227908Y26952243D01*
X19227908Y26952243D02*
X19275563Y26999898D01*
X19275563Y26999898D02*
X19299391Y27047553D01*
X19156425Y26451863D02*
X19156425Y26404208D01*
X19156425Y26404208D02*
X19180253Y26356552D01*
X19180253Y26356552D02*
X19204080Y26332725D01*
X19204080Y26332725D02*
X19251736Y26308897D01*
X19251736Y26308897D02*
X19347046Y26285070D01*
X19347046Y26285070D02*
X19466184Y26285070D01*
X19466184Y26285070D02*
X19561495Y26308897D01*
X19561495Y26308897D02*
X19609150Y26332725D01*
X19609150Y26332725D02*
X19632978Y26356552D01*
X19632978Y26356552D02*
X19656805Y26404208D01*
X19656805Y26404208D02*
X19656805Y26451863D01*
X19656805Y26451863D02*
X19632978Y26499518D01*
X19632978Y26499518D02*
X19609150Y26523346D01*
X19609150Y26523346D02*
X19561495Y26547173D01*
X19561495Y26547173D02*
X19466184Y26571001D01*
X19466184Y26571001D02*
X19347046Y26571001D01*
X19347046Y26571001D02*
X19251736Y26547173D01*
X19251736Y26547173D02*
X19204080Y26523346D01*
X19204080Y26523346D02*
X19180253Y26499518D01*
X19180253Y26499518D02*
X19156425Y26451863D01*
X19323218Y25856173D02*
X19656805Y25856173D01*
X19323218Y26070621D02*
X19585322Y26070621D01*
X19585322Y26070621D02*
X19632978Y26046794D01*
X19632978Y26046794D02*
X19656805Y25999139D01*
X19656805Y25999139D02*
X19656805Y25927656D01*
X19656805Y25927656D02*
X19632978Y25880000D01*
X19632978Y25880000D02*
X19609150Y25856173D01*
X19394701Y25451103D02*
X19394701Y25617896D01*
X19656805Y25617896D02*
X19156425Y25617896D01*
X19156425Y25617896D02*
X19156425Y25379620D01*
%TO.C,C4*%
X15069396Y21094350D02*
X15093224Y21070522D01*
X15093224Y21070522D02*
X15164706Y21046695D01*
X15164706Y21046695D02*
X15212362Y21046695D01*
X15212362Y21046695D02*
X15283845Y21070522D01*
X15283845Y21070522D02*
X15331500Y21118178D01*
X15331500Y21118178D02*
X15355327Y21165833D01*
X15355327Y21165833D02*
X15379155Y21261143D01*
X15379155Y21261143D02*
X15379155Y21332626D01*
X15379155Y21332626D02*
X15355327Y21427937D01*
X15355327Y21427937D02*
X15331500Y21475592D01*
X15331500Y21475592D02*
X15283845Y21523247D01*
X15283845Y21523247D02*
X15212362Y21547075D01*
X15212362Y21547075D02*
X15164706Y21547075D01*
X15164706Y21547075D02*
X15093224Y21523247D01*
X15093224Y21523247D02*
X15069396Y21499420D01*
X14640499Y21380282D02*
X14640499Y21046695D01*
X14759637Y21570902D02*
X14878775Y21213488D01*
X14878775Y21213488D02*
X14569016Y21213488D01*
X15649121Y21745195D02*
X15935052Y21745195D01*
X15792086Y21745195D02*
X15792086Y22245575D01*
X15792086Y22245575D02*
X15839742Y22174092D01*
X15839742Y22174092D02*
X15887397Y22126437D01*
X15887397Y22126437D02*
X15935052Y22102609D01*
X15339362Y22245575D02*
X15291707Y22245575D01*
X15291707Y22245575D02*
X15244051Y22221747D01*
X15244051Y22221747D02*
X15220224Y22197920D01*
X15220224Y22197920D02*
X15196396Y22150264D01*
X15196396Y22150264D02*
X15172569Y22054954D01*
X15172569Y22054954D02*
X15172569Y21935816D01*
X15172569Y21935816D02*
X15196396Y21840505D01*
X15196396Y21840505D02*
X15220224Y21792850D01*
X15220224Y21792850D02*
X15244051Y21769022D01*
X15244051Y21769022D02*
X15291707Y21745195D01*
X15291707Y21745195D02*
X15339362Y21745195D01*
X15339362Y21745195D02*
X15387017Y21769022D01*
X15387017Y21769022D02*
X15410845Y21792850D01*
X15410845Y21792850D02*
X15434672Y21840505D01*
X15434672Y21840505D02*
X15458500Y21935816D01*
X15458500Y21935816D02*
X15458500Y22054954D01*
X15458500Y22054954D02*
X15434672Y22150264D01*
X15434672Y22150264D02*
X15410845Y22197920D01*
X15410845Y22197920D02*
X15387017Y22221747D01*
X15387017Y22221747D02*
X15339362Y22245575D01*
X14958120Y22078782D02*
X14958120Y21745195D01*
X14958120Y22031126D02*
X14934293Y22054954D01*
X14934293Y22054954D02*
X14886638Y22078782D01*
X14886638Y22078782D02*
X14815155Y22078782D01*
X14815155Y22078782D02*
X14767499Y22054954D01*
X14767499Y22054954D02*
X14743672Y22007299D01*
X14743672Y22007299D02*
X14743672Y21745195D01*
X14338602Y22007299D02*
X14505395Y22007299D01*
X14505395Y21745195D02*
X14505395Y22245575D01*
X14505395Y22245575D02*
X14267119Y22245575D01*
%TO.C,C5*%
X8344250Y19488997D02*
X8368078Y19512825D01*
X8368078Y19512825D02*
X8391905Y19584307D01*
X8391905Y19584307D02*
X8391905Y19631963D01*
X8391905Y19631963D02*
X8368078Y19703446D01*
X8368078Y19703446D02*
X8320422Y19751101D01*
X8320422Y19751101D02*
X8272767Y19774928D01*
X8272767Y19774928D02*
X8177457Y19798756D01*
X8177457Y19798756D02*
X8105974Y19798756D01*
X8105974Y19798756D02*
X8010663Y19774928D01*
X8010663Y19774928D02*
X7963008Y19751101D01*
X7963008Y19751101D02*
X7915353Y19703446D01*
X7915353Y19703446D02*
X7891525Y19631963D01*
X7891525Y19631963D02*
X7891525Y19584307D01*
X7891525Y19584307D02*
X7915353Y19512825D01*
X7915353Y19512825D02*
X7939180Y19488997D01*
X7891525Y19036272D02*
X7891525Y19274548D01*
X7891525Y19274548D02*
X8129801Y19298376D01*
X8129801Y19298376D02*
X8105974Y19274548D01*
X8105974Y19274548D02*
X8082146Y19226893D01*
X8082146Y19226893D02*
X8082146Y19107755D01*
X8082146Y19107755D02*
X8105974Y19060100D01*
X8105974Y19060100D02*
X8129801Y19036272D01*
X8129801Y19036272D02*
X8177457Y19012445D01*
X8177457Y19012445D02*
X8296595Y19012445D01*
X8296595Y19012445D02*
X8344250Y19036272D01*
X8344250Y19036272D02*
X8368078Y19060100D01*
X8368078Y19060100D02*
X8391905Y19107755D01*
X8391905Y19107755D02*
X8391905Y19226893D01*
X8391905Y19226893D02*
X8368078Y19274548D01*
X8368078Y19274548D02*
X8344250Y19298376D01*
X9090405Y20052998D02*
X9090405Y20338929D01*
X9090405Y20195963D02*
X8590025Y20195963D01*
X8590025Y20195963D02*
X8661508Y20243619D01*
X8661508Y20243619D02*
X8709163Y20291274D01*
X8709163Y20291274D02*
X8732991Y20338929D01*
X8590025Y19743239D02*
X8590025Y19695584D01*
X8590025Y19695584D02*
X8613853Y19647928D01*
X8613853Y19647928D02*
X8637680Y19624101D01*
X8637680Y19624101D02*
X8685336Y19600273D01*
X8685336Y19600273D02*
X8780646Y19576446D01*
X8780646Y19576446D02*
X8899784Y19576446D01*
X8899784Y19576446D02*
X8995095Y19600273D01*
X8995095Y19600273D02*
X9042750Y19624101D01*
X9042750Y19624101D02*
X9066578Y19647928D01*
X9066578Y19647928D02*
X9090405Y19695584D01*
X9090405Y19695584D02*
X9090405Y19743239D01*
X9090405Y19743239D02*
X9066578Y19790894D01*
X9066578Y19790894D02*
X9042750Y19814722D01*
X9042750Y19814722D02*
X8995095Y19838549D01*
X8995095Y19838549D02*
X8899784Y19862377D01*
X8899784Y19862377D02*
X8780646Y19862377D01*
X8780646Y19862377D02*
X8685336Y19838549D01*
X8685336Y19838549D02*
X8637680Y19814722D01*
X8637680Y19814722D02*
X8613853Y19790894D01*
X8613853Y19790894D02*
X8590025Y19743239D01*
X8590025Y19266687D02*
X8590025Y19219032D01*
X8590025Y19219032D02*
X8613853Y19171376D01*
X8613853Y19171376D02*
X8637680Y19147549D01*
X8637680Y19147549D02*
X8685336Y19123721D01*
X8685336Y19123721D02*
X8780646Y19099894D01*
X8780646Y19099894D02*
X8899784Y19099894D01*
X8899784Y19099894D02*
X8995095Y19123721D01*
X8995095Y19123721D02*
X9042750Y19147549D01*
X9042750Y19147549D02*
X9066578Y19171376D01*
X9066578Y19171376D02*
X9090405Y19219032D01*
X9090405Y19219032D02*
X9090405Y19266687D01*
X9090405Y19266687D02*
X9066578Y19314342D01*
X9066578Y19314342D02*
X9042750Y19338170D01*
X9042750Y19338170D02*
X8995095Y19361997D01*
X8995095Y19361997D02*
X8899784Y19385825D01*
X8899784Y19385825D02*
X8780646Y19385825D01*
X8780646Y19385825D02*
X8685336Y19361997D01*
X8685336Y19361997D02*
X8637680Y19338170D01*
X8637680Y19338170D02*
X8613853Y19314342D01*
X8613853Y19314342D02*
X8590025Y19266687D01*
X8756818Y18885445D02*
X9090405Y18885445D01*
X8804474Y18885445D02*
X8780646Y18861618D01*
X8780646Y18861618D02*
X8756818Y18813963D01*
X8756818Y18813963D02*
X8756818Y18742480D01*
X8756818Y18742480D02*
X8780646Y18694824D01*
X8780646Y18694824D02*
X8828301Y18670997D01*
X8828301Y18670997D02*
X9090405Y18670997D01*
X8828301Y18265927D02*
X8828301Y18432720D01*
X9090405Y18432720D02*
X8590025Y18432720D01*
X8590025Y18432720D02*
X8590025Y18194444D01*
%TO.C,C6*%
X5633296Y17919350D02*
X5657124Y17895522D01*
X5657124Y17895522D02*
X5728606Y17871695D01*
X5728606Y17871695D02*
X5776262Y17871695D01*
X5776262Y17871695D02*
X5847745Y17895522D01*
X5847745Y17895522D02*
X5895400Y17943178D01*
X5895400Y17943178D02*
X5919227Y17990833D01*
X5919227Y17990833D02*
X5943055Y18086143D01*
X5943055Y18086143D02*
X5943055Y18157626D01*
X5943055Y18157626D02*
X5919227Y18252937D01*
X5919227Y18252937D02*
X5895400Y18300592D01*
X5895400Y18300592D02*
X5847745Y18348247D01*
X5847745Y18348247D02*
X5776262Y18372075D01*
X5776262Y18372075D02*
X5728606Y18372075D01*
X5728606Y18372075D02*
X5657124Y18348247D01*
X5657124Y18348247D02*
X5633296Y18324420D01*
X5204399Y18372075D02*
X5299709Y18372075D01*
X5299709Y18372075D02*
X5347365Y18348247D01*
X5347365Y18348247D02*
X5371192Y18324420D01*
X5371192Y18324420D02*
X5418847Y18252937D01*
X5418847Y18252937D02*
X5442675Y18157626D01*
X5442675Y18157626D02*
X5442675Y17967005D01*
X5442675Y17967005D02*
X5418847Y17919350D01*
X5418847Y17919350D02*
X5395020Y17895522D01*
X5395020Y17895522D02*
X5347365Y17871695D01*
X5347365Y17871695D02*
X5252054Y17871695D01*
X5252054Y17871695D02*
X5204399Y17895522D01*
X5204399Y17895522D02*
X5180571Y17919350D01*
X5180571Y17919350D02*
X5156744Y17967005D01*
X5156744Y17967005D02*
X5156744Y18086143D01*
X5156744Y18086143D02*
X5180571Y18133799D01*
X5180571Y18133799D02*
X5204399Y18157626D01*
X5204399Y18157626D02*
X5252054Y18181454D01*
X5252054Y18181454D02*
X5347365Y18181454D01*
X5347365Y18181454D02*
X5395020Y18157626D01*
X5395020Y18157626D02*
X5418847Y18133799D01*
X5418847Y18133799D02*
X5442675Y18086143D01*
X5959021Y17173195D02*
X6244952Y17173195D01*
X6101986Y17173195D02*
X6101986Y17673575D01*
X6101986Y17673575D02*
X6149642Y17602092D01*
X6149642Y17602092D02*
X6197297Y17554437D01*
X6197297Y17554437D02*
X6244952Y17530609D01*
X5649262Y17673575D02*
X5601607Y17673575D01*
X5601607Y17673575D02*
X5553951Y17649747D01*
X5553951Y17649747D02*
X5530124Y17625920D01*
X5530124Y17625920D02*
X5506296Y17578264D01*
X5506296Y17578264D02*
X5482469Y17482954D01*
X5482469Y17482954D02*
X5482469Y17363816D01*
X5482469Y17363816D02*
X5506296Y17268505D01*
X5506296Y17268505D02*
X5530124Y17220850D01*
X5530124Y17220850D02*
X5553951Y17197022D01*
X5553951Y17197022D02*
X5601607Y17173195D01*
X5601607Y17173195D02*
X5649262Y17173195D01*
X5649262Y17173195D02*
X5696917Y17197022D01*
X5696917Y17197022D02*
X5720745Y17220850D01*
X5720745Y17220850D02*
X5744572Y17268505D01*
X5744572Y17268505D02*
X5768400Y17363816D01*
X5768400Y17363816D02*
X5768400Y17482954D01*
X5768400Y17482954D02*
X5744572Y17578264D01*
X5744572Y17578264D02*
X5720745Y17625920D01*
X5720745Y17625920D02*
X5696917Y17649747D01*
X5696917Y17649747D02*
X5649262Y17673575D01*
X5268020Y17506782D02*
X5268020Y17173195D01*
X5268020Y17459126D02*
X5244193Y17482954D01*
X5244193Y17482954D02*
X5196538Y17506782D01*
X5196538Y17506782D02*
X5125055Y17506782D01*
X5125055Y17506782D02*
X5077399Y17482954D01*
X5077399Y17482954D02*
X5053572Y17435299D01*
X5053572Y17435299D02*
X5053572Y17173195D01*
X4648502Y17435299D02*
X4815295Y17435299D01*
X4815295Y17173195D02*
X4815295Y17673575D01*
X4815295Y17673575D02*
X4577019Y17673575D01*
%TO.C,C7*%
X11513396Y17284350D02*
X11537224Y17260522D01*
X11537224Y17260522D02*
X11608706Y17236695D01*
X11608706Y17236695D02*
X11656362Y17236695D01*
X11656362Y17236695D02*
X11727845Y17260522D01*
X11727845Y17260522D02*
X11775500Y17308178D01*
X11775500Y17308178D02*
X11799327Y17355833D01*
X11799327Y17355833D02*
X11823155Y17451143D01*
X11823155Y17451143D02*
X11823155Y17522626D01*
X11823155Y17522626D02*
X11799327Y17617937D01*
X11799327Y17617937D02*
X11775500Y17665592D01*
X11775500Y17665592D02*
X11727845Y17713247D01*
X11727845Y17713247D02*
X11656362Y17737075D01*
X11656362Y17737075D02*
X11608706Y17737075D01*
X11608706Y17737075D02*
X11537224Y17713247D01*
X11537224Y17713247D02*
X11513396Y17689420D01*
X11346603Y17737075D02*
X11013016Y17737075D01*
X11013016Y17737075D02*
X11227465Y17236695D01*
X12093121Y17935195D02*
X12379052Y17935195D01*
X12236086Y17935195D02*
X12236086Y18435575D01*
X12236086Y18435575D02*
X12283742Y18364092D01*
X12283742Y18364092D02*
X12331397Y18316437D01*
X12331397Y18316437D02*
X12379052Y18292609D01*
X11783362Y18435575D02*
X11735707Y18435575D01*
X11735707Y18435575D02*
X11688051Y18411747D01*
X11688051Y18411747D02*
X11664224Y18387920D01*
X11664224Y18387920D02*
X11640396Y18340264D01*
X11640396Y18340264D02*
X11616569Y18244954D01*
X11616569Y18244954D02*
X11616569Y18125816D01*
X11616569Y18125816D02*
X11640396Y18030505D01*
X11640396Y18030505D02*
X11664224Y17982850D01*
X11664224Y17982850D02*
X11688051Y17959022D01*
X11688051Y17959022D02*
X11735707Y17935195D01*
X11735707Y17935195D02*
X11783362Y17935195D01*
X11783362Y17935195D02*
X11831017Y17959022D01*
X11831017Y17959022D02*
X11854845Y17982850D01*
X11854845Y17982850D02*
X11878672Y18030505D01*
X11878672Y18030505D02*
X11902500Y18125816D01*
X11902500Y18125816D02*
X11902500Y18244954D01*
X11902500Y18244954D02*
X11878672Y18340264D01*
X11878672Y18340264D02*
X11854845Y18387920D01*
X11854845Y18387920D02*
X11831017Y18411747D01*
X11831017Y18411747D02*
X11783362Y18435575D01*
X11402120Y18268782D02*
X11402120Y17935195D01*
X11402120Y18221126D02*
X11378293Y18244954D01*
X11378293Y18244954D02*
X11330638Y18268782D01*
X11330638Y18268782D02*
X11259155Y18268782D01*
X11259155Y18268782D02*
X11211499Y18244954D01*
X11211499Y18244954D02*
X11187672Y18197299D01*
X11187672Y18197299D02*
X11187672Y17935195D01*
X10782602Y18197299D02*
X10949395Y18197299D01*
X10949395Y17935195D02*
X10949395Y18435575D01*
X10949395Y18435575D02*
X10711119Y18435575D01*
%TO.C,C8*%
X33357396Y17919350D02*
X33381224Y17895522D01*
X33381224Y17895522D02*
X33452706Y17871695D01*
X33452706Y17871695D02*
X33500362Y17871695D01*
X33500362Y17871695D02*
X33571845Y17895522D01*
X33571845Y17895522D02*
X33619500Y17943178D01*
X33619500Y17943178D02*
X33643327Y17990833D01*
X33643327Y17990833D02*
X33667155Y18086143D01*
X33667155Y18086143D02*
X33667155Y18157626D01*
X33667155Y18157626D02*
X33643327Y18252937D01*
X33643327Y18252937D02*
X33619500Y18300592D01*
X33619500Y18300592D02*
X33571845Y18348247D01*
X33571845Y18348247D02*
X33500362Y18372075D01*
X33500362Y18372075D02*
X33452706Y18372075D01*
X33452706Y18372075D02*
X33381224Y18348247D01*
X33381224Y18348247D02*
X33357396Y18324420D01*
X33071465Y18157626D02*
X33119120Y18181454D01*
X33119120Y18181454D02*
X33142947Y18205282D01*
X33142947Y18205282D02*
X33166775Y18252937D01*
X33166775Y18252937D02*
X33166775Y18276764D01*
X33166775Y18276764D02*
X33142947Y18324420D01*
X33142947Y18324420D02*
X33119120Y18348247D01*
X33119120Y18348247D02*
X33071465Y18372075D01*
X33071465Y18372075D02*
X32976154Y18372075D01*
X32976154Y18372075D02*
X32928499Y18348247D01*
X32928499Y18348247D02*
X32904671Y18324420D01*
X32904671Y18324420D02*
X32880844Y18276764D01*
X32880844Y18276764D02*
X32880844Y18252937D01*
X32880844Y18252937D02*
X32904671Y18205282D01*
X32904671Y18205282D02*
X32928499Y18181454D01*
X32928499Y18181454D02*
X32976154Y18157626D01*
X32976154Y18157626D02*
X33071465Y18157626D01*
X33071465Y18157626D02*
X33119120Y18133799D01*
X33119120Y18133799D02*
X33142947Y18109971D01*
X33142947Y18109971D02*
X33166775Y18062316D01*
X33166775Y18062316D02*
X33166775Y17967005D01*
X33166775Y17967005D02*
X33142947Y17919350D01*
X33142947Y17919350D02*
X33119120Y17895522D01*
X33119120Y17895522D02*
X33071465Y17871695D01*
X33071465Y17871695D02*
X32976154Y17871695D01*
X32976154Y17871695D02*
X32928499Y17895522D01*
X32928499Y17895522D02*
X32904671Y17919350D01*
X32904671Y17919350D02*
X32880844Y17967005D01*
X32880844Y17967005D02*
X32880844Y18062316D01*
X32880844Y18062316D02*
X32904671Y18109971D01*
X32904671Y18109971D02*
X32928499Y18133799D01*
X32928499Y18133799D02*
X32976154Y18157626D01*
X33683121Y17173195D02*
X33969052Y17173195D01*
X33826086Y17173195D02*
X33826086Y17673575D01*
X33826086Y17673575D02*
X33873742Y17602092D01*
X33873742Y17602092D02*
X33921397Y17554437D01*
X33921397Y17554437D02*
X33969052Y17530609D01*
X33373362Y17673575D02*
X33325707Y17673575D01*
X33325707Y17673575D02*
X33278051Y17649747D01*
X33278051Y17649747D02*
X33254224Y17625920D01*
X33254224Y17625920D02*
X33230396Y17578264D01*
X33230396Y17578264D02*
X33206569Y17482954D01*
X33206569Y17482954D02*
X33206569Y17363816D01*
X33206569Y17363816D02*
X33230396Y17268505D01*
X33230396Y17268505D02*
X33254224Y17220850D01*
X33254224Y17220850D02*
X33278051Y17197022D01*
X33278051Y17197022D02*
X33325707Y17173195D01*
X33325707Y17173195D02*
X33373362Y17173195D01*
X33373362Y17173195D02*
X33421017Y17197022D01*
X33421017Y17197022D02*
X33444845Y17220850D01*
X33444845Y17220850D02*
X33468672Y17268505D01*
X33468672Y17268505D02*
X33492500Y17363816D01*
X33492500Y17363816D02*
X33492500Y17482954D01*
X33492500Y17482954D02*
X33468672Y17578264D01*
X33468672Y17578264D02*
X33444845Y17625920D01*
X33444845Y17625920D02*
X33421017Y17649747D01*
X33421017Y17649747D02*
X33373362Y17673575D01*
X32992120Y17506782D02*
X32992120Y17173195D01*
X32992120Y17459126D02*
X32968293Y17482954D01*
X32968293Y17482954D02*
X32920638Y17506782D01*
X32920638Y17506782D02*
X32849155Y17506782D01*
X32849155Y17506782D02*
X32801499Y17482954D01*
X32801499Y17482954D02*
X32777672Y17435299D01*
X32777672Y17435299D02*
X32777672Y17173195D01*
X32372602Y17435299D02*
X32539395Y17435299D01*
X32539395Y17173195D02*
X32539395Y17673575D01*
X32539395Y17673575D02*
X32301119Y17673575D01*
%TO.C,C9*%
X48089396Y18808350D02*
X48113224Y18784522D01*
X48113224Y18784522D02*
X48184706Y18760695D01*
X48184706Y18760695D02*
X48232362Y18760695D01*
X48232362Y18760695D02*
X48303845Y18784522D01*
X48303845Y18784522D02*
X48351500Y18832178D01*
X48351500Y18832178D02*
X48375327Y18879833D01*
X48375327Y18879833D02*
X48399155Y18975143D01*
X48399155Y18975143D02*
X48399155Y19046626D01*
X48399155Y19046626D02*
X48375327Y19141937D01*
X48375327Y19141937D02*
X48351500Y19189592D01*
X48351500Y19189592D02*
X48303845Y19237247D01*
X48303845Y19237247D02*
X48232362Y19261075D01*
X48232362Y19261075D02*
X48184706Y19261075D01*
X48184706Y19261075D02*
X48113224Y19237247D01*
X48113224Y19237247D02*
X48089396Y19213420D01*
X47851120Y18760695D02*
X47755809Y18760695D01*
X47755809Y18760695D02*
X47708154Y18784522D01*
X47708154Y18784522D02*
X47684326Y18808350D01*
X47684326Y18808350D02*
X47636671Y18879833D01*
X47636671Y18879833D02*
X47612844Y18975143D01*
X47612844Y18975143D02*
X47612844Y19165764D01*
X47612844Y19165764D02*
X47636671Y19213420D01*
X47636671Y19213420D02*
X47660499Y19237247D01*
X47660499Y19237247D02*
X47708154Y19261075D01*
X47708154Y19261075D02*
X47803465Y19261075D01*
X47803465Y19261075D02*
X47851120Y19237247D01*
X47851120Y19237247D02*
X47874947Y19213420D01*
X47874947Y19213420D02*
X47898775Y19165764D01*
X47898775Y19165764D02*
X47898775Y19046626D01*
X47898775Y19046626D02*
X47874947Y18998971D01*
X47874947Y18998971D02*
X47851120Y18975143D01*
X47851120Y18975143D02*
X47803465Y18951316D01*
X47803465Y18951316D02*
X47708154Y18951316D01*
X47708154Y18951316D02*
X47660499Y18975143D01*
X47660499Y18975143D02*
X47636671Y18998971D01*
X47636671Y18998971D02*
X47612844Y19046626D01*
X48669121Y19459195D02*
X48955052Y19459195D01*
X48812086Y19459195D02*
X48812086Y19959575D01*
X48812086Y19959575D02*
X48859742Y19888092D01*
X48859742Y19888092D02*
X48907397Y19840437D01*
X48907397Y19840437D02*
X48955052Y19816609D01*
X48359362Y19959575D02*
X48311707Y19959575D01*
X48311707Y19959575D02*
X48264051Y19935747D01*
X48264051Y19935747D02*
X48240224Y19911920D01*
X48240224Y19911920D02*
X48216396Y19864264D01*
X48216396Y19864264D02*
X48192569Y19768954D01*
X48192569Y19768954D02*
X48192569Y19649816D01*
X48192569Y19649816D02*
X48216396Y19554505D01*
X48216396Y19554505D02*
X48240224Y19506850D01*
X48240224Y19506850D02*
X48264051Y19483022D01*
X48264051Y19483022D02*
X48311707Y19459195D01*
X48311707Y19459195D02*
X48359362Y19459195D01*
X48359362Y19459195D02*
X48407017Y19483022D01*
X48407017Y19483022D02*
X48430845Y19506850D01*
X48430845Y19506850D02*
X48454672Y19554505D01*
X48454672Y19554505D02*
X48478500Y19649816D01*
X48478500Y19649816D02*
X48478500Y19768954D01*
X48478500Y19768954D02*
X48454672Y19864264D01*
X48454672Y19864264D02*
X48430845Y19911920D01*
X48430845Y19911920D02*
X48407017Y19935747D01*
X48407017Y19935747D02*
X48359362Y19959575D01*
X47978120Y19792782D02*
X47978120Y19459195D01*
X47978120Y19745126D02*
X47954293Y19768954D01*
X47954293Y19768954D02*
X47906638Y19792782D01*
X47906638Y19792782D02*
X47835155Y19792782D01*
X47835155Y19792782D02*
X47787499Y19768954D01*
X47787499Y19768954D02*
X47763672Y19721299D01*
X47763672Y19721299D02*
X47763672Y19459195D01*
X47358602Y19721299D02*
X47525395Y19721299D01*
X47525395Y19459195D02*
X47525395Y19959575D01*
X47525395Y19959575D02*
X47287119Y19959575D01*
%TO.C,C10*%
X37151672Y17665350D02*
X37175500Y17641522D01*
X37175500Y17641522D02*
X37246982Y17617695D01*
X37246982Y17617695D02*
X37294638Y17617695D01*
X37294638Y17617695D02*
X37366121Y17641522D01*
X37366121Y17641522D02*
X37413776Y17689178D01*
X37413776Y17689178D02*
X37437603Y17736833D01*
X37437603Y17736833D02*
X37461431Y17832143D01*
X37461431Y17832143D02*
X37461431Y17903626D01*
X37461431Y17903626D02*
X37437603Y17998937D01*
X37437603Y17998937D02*
X37413776Y18046592D01*
X37413776Y18046592D02*
X37366121Y18094247D01*
X37366121Y18094247D02*
X37294638Y18118075D01*
X37294638Y18118075D02*
X37246982Y18118075D01*
X37246982Y18118075D02*
X37175500Y18094247D01*
X37175500Y18094247D02*
X37151672Y18070420D01*
X36675120Y17617695D02*
X36961051Y17617695D01*
X36818085Y17617695D02*
X36818085Y18118075D01*
X36818085Y18118075D02*
X36865741Y18046592D01*
X36865741Y18046592D02*
X36913396Y17998937D01*
X36913396Y17998937D02*
X36961051Y17975109D01*
X36365361Y18118075D02*
X36317706Y18118075D01*
X36317706Y18118075D02*
X36270050Y18094247D01*
X36270050Y18094247D02*
X36246223Y18070420D01*
X36246223Y18070420D02*
X36222395Y18022764D01*
X36222395Y18022764D02*
X36198568Y17927454D01*
X36198568Y17927454D02*
X36198568Y17808316D01*
X36198568Y17808316D02*
X36222395Y17713005D01*
X36222395Y17713005D02*
X36246223Y17665350D01*
X36246223Y17665350D02*
X36270050Y17641522D01*
X36270050Y17641522D02*
X36317706Y17617695D01*
X36317706Y17617695D02*
X36365361Y17617695D01*
X36365361Y17617695D02*
X36413016Y17641522D01*
X36413016Y17641522D02*
X36436844Y17665350D01*
X36436844Y17665350D02*
X36460671Y17713005D01*
X36460671Y17713005D02*
X36484499Y17808316D01*
X36484499Y17808316D02*
X36484499Y17927454D01*
X36484499Y17927454D02*
X36460671Y18022764D01*
X36460671Y18022764D02*
X36436844Y18070420D01*
X36436844Y18070420D02*
X36413016Y18094247D01*
X36413016Y18094247D02*
X36365361Y18118075D01*
X37239121Y16919195D02*
X37525052Y16919195D01*
X37382086Y16919195D02*
X37382086Y17419575D01*
X37382086Y17419575D02*
X37429742Y17348092D01*
X37429742Y17348092D02*
X37477397Y17300437D01*
X37477397Y17300437D02*
X37525052Y17276609D01*
X36929362Y17419575D02*
X36881707Y17419575D01*
X36881707Y17419575D02*
X36834051Y17395747D01*
X36834051Y17395747D02*
X36810224Y17371920D01*
X36810224Y17371920D02*
X36786396Y17324264D01*
X36786396Y17324264D02*
X36762569Y17228954D01*
X36762569Y17228954D02*
X36762569Y17109816D01*
X36762569Y17109816D02*
X36786396Y17014505D01*
X36786396Y17014505D02*
X36810224Y16966850D01*
X36810224Y16966850D02*
X36834051Y16943022D01*
X36834051Y16943022D02*
X36881707Y16919195D01*
X36881707Y16919195D02*
X36929362Y16919195D01*
X36929362Y16919195D02*
X36977017Y16943022D01*
X36977017Y16943022D02*
X37000845Y16966850D01*
X37000845Y16966850D02*
X37024672Y17014505D01*
X37024672Y17014505D02*
X37048500Y17109816D01*
X37048500Y17109816D02*
X37048500Y17228954D01*
X37048500Y17228954D02*
X37024672Y17324264D01*
X37024672Y17324264D02*
X37000845Y17371920D01*
X37000845Y17371920D02*
X36977017Y17395747D01*
X36977017Y17395747D02*
X36929362Y17419575D01*
X36548120Y17252782D02*
X36548120Y16919195D01*
X36548120Y17205126D02*
X36524293Y17228954D01*
X36524293Y17228954D02*
X36476638Y17252782D01*
X36476638Y17252782D02*
X36405155Y17252782D01*
X36405155Y17252782D02*
X36357499Y17228954D01*
X36357499Y17228954D02*
X36333672Y17181299D01*
X36333672Y17181299D02*
X36333672Y16919195D01*
X35928602Y17181299D02*
X36095395Y17181299D01*
X36095395Y16919195D02*
X36095395Y17419575D01*
X36095395Y17419575D02*
X35857119Y17419575D01*
%TO.C,C11*%
X44263672Y19214750D02*
X44287500Y19190922D01*
X44287500Y19190922D02*
X44358982Y19167095D01*
X44358982Y19167095D02*
X44406638Y19167095D01*
X44406638Y19167095D02*
X44478121Y19190922D01*
X44478121Y19190922D02*
X44525776Y19238578D01*
X44525776Y19238578D02*
X44549603Y19286233D01*
X44549603Y19286233D02*
X44573431Y19381543D01*
X44573431Y19381543D02*
X44573431Y19453026D01*
X44573431Y19453026D02*
X44549603Y19548337D01*
X44549603Y19548337D02*
X44525776Y19595992D01*
X44525776Y19595992D02*
X44478121Y19643647D01*
X44478121Y19643647D02*
X44406638Y19667475D01*
X44406638Y19667475D02*
X44358982Y19667475D01*
X44358982Y19667475D02*
X44287500Y19643647D01*
X44287500Y19643647D02*
X44263672Y19619820D01*
X43787120Y19167095D02*
X44073051Y19167095D01*
X43930085Y19167095D02*
X43930085Y19667475D01*
X43930085Y19667475D02*
X43977741Y19595992D01*
X43977741Y19595992D02*
X44025396Y19548337D01*
X44025396Y19548337D02*
X44073051Y19524509D01*
X43310568Y19167095D02*
X43596499Y19167095D01*
X43453533Y19167095D02*
X43453533Y19667475D01*
X43453533Y19667475D02*
X43501189Y19595992D01*
X43501189Y19595992D02*
X43548844Y19548337D01*
X43548844Y19548337D02*
X43596499Y19524509D01*
X44605121Y19865595D02*
X44891052Y19865595D01*
X44748086Y19865595D02*
X44748086Y20365975D01*
X44748086Y20365975D02*
X44795742Y20294492D01*
X44795742Y20294492D02*
X44843397Y20246837D01*
X44843397Y20246837D02*
X44891052Y20223009D01*
X44295362Y20365975D02*
X44247707Y20365975D01*
X44247707Y20365975D02*
X44200051Y20342147D01*
X44200051Y20342147D02*
X44176224Y20318320D01*
X44176224Y20318320D02*
X44152396Y20270664D01*
X44152396Y20270664D02*
X44128569Y20175354D01*
X44128569Y20175354D02*
X44128569Y20056216D01*
X44128569Y20056216D02*
X44152396Y19960905D01*
X44152396Y19960905D02*
X44176224Y19913250D01*
X44176224Y19913250D02*
X44200051Y19889422D01*
X44200051Y19889422D02*
X44247707Y19865595D01*
X44247707Y19865595D02*
X44295362Y19865595D01*
X44295362Y19865595D02*
X44343017Y19889422D01*
X44343017Y19889422D02*
X44366845Y19913250D01*
X44366845Y19913250D02*
X44390672Y19960905D01*
X44390672Y19960905D02*
X44414500Y20056216D01*
X44414500Y20056216D02*
X44414500Y20175354D01*
X44414500Y20175354D02*
X44390672Y20270664D01*
X44390672Y20270664D02*
X44366845Y20318320D01*
X44366845Y20318320D02*
X44343017Y20342147D01*
X44343017Y20342147D02*
X44295362Y20365975D01*
X43914120Y20199182D02*
X43914120Y19865595D01*
X43914120Y20151526D02*
X43890293Y20175354D01*
X43890293Y20175354D02*
X43842638Y20199182D01*
X43842638Y20199182D02*
X43771155Y20199182D01*
X43771155Y20199182D02*
X43723499Y20175354D01*
X43723499Y20175354D02*
X43699672Y20127699D01*
X43699672Y20127699D02*
X43699672Y19865595D01*
X43294602Y20127699D02*
X43461395Y20127699D01*
X43461395Y19865595D02*
X43461395Y20365975D01*
X43461395Y20365975D02*
X43223119Y20365975D01*
D11*
%TO.C,D1*%
X19739181Y32366857D02*
X18215181Y32366857D01*
X18215181Y32366857D02*
X18215181Y32004000D01*
X18215181Y32004000D02*
X18287752Y31786286D01*
X18287752Y31786286D02*
X18432895Y31641143D01*
X18432895Y31641143D02*
X18578038Y31568572D01*
X18578038Y31568572D02*
X18868324Y31496000D01*
X18868324Y31496000D02*
X19086038Y31496000D01*
X19086038Y31496000D02*
X19376324Y31568572D01*
X19376324Y31568572D02*
X19521467Y31641143D01*
X19521467Y31641143D02*
X19666610Y31786286D01*
X19666610Y31786286D02*
X19739181Y32004000D01*
X19739181Y32004000D02*
X19739181Y32366857D01*
X19739181Y30044572D02*
X19739181Y30915429D01*
X19739181Y30480000D02*
X18215181Y30480000D01*
X18215181Y30480000D02*
X18432895Y30625143D01*
X18432895Y30625143D02*
X18578038Y30770286D01*
X18578038Y30770286D02*
X18650610Y30915429D01*
D12*
X15043967Y29560278D02*
X15043967Y29322002D01*
X15186933Y29607933D02*
X14686553Y29441140D01*
X14686553Y29441140D02*
X15186933Y29274347D01*
X15186933Y33173912D02*
X14686553Y33173912D01*
X15186933Y32887981D02*
X14901002Y33102430D01*
X14686553Y32887981D02*
X14972485Y33173912D01*
D11*
%TO.C,D2*%
X8055181Y11284857D02*
X6531181Y11284857D01*
X6531181Y11284857D02*
X6531181Y10922000D01*
X6531181Y10922000D02*
X6603752Y10704286D01*
X6603752Y10704286D02*
X6748895Y10559143D01*
X6748895Y10559143D02*
X6894038Y10486572D01*
X6894038Y10486572D02*
X7184324Y10414000D01*
X7184324Y10414000D02*
X7402038Y10414000D01*
X7402038Y10414000D02*
X7692324Y10486572D01*
X7692324Y10486572D02*
X7837467Y10559143D01*
X7837467Y10559143D02*
X7982610Y10704286D01*
X7982610Y10704286D02*
X8055181Y10922000D01*
X8055181Y10922000D02*
X8055181Y11284857D01*
X6676324Y9833429D02*
X6603752Y9760857D01*
X6603752Y9760857D02*
X6531181Y9615714D01*
X6531181Y9615714D02*
X6531181Y9252857D01*
X6531181Y9252857D02*
X6603752Y9107714D01*
X6603752Y9107714D02*
X6676324Y9035143D01*
X6676324Y9035143D02*
X6821467Y8962572D01*
X6821467Y8962572D02*
X6966610Y8962572D01*
X6966610Y8962572D02*
X7184324Y9035143D01*
X7184324Y9035143D02*
X8055181Y9906000D01*
X8055181Y9906000D02*
X8055181Y8962572D01*
D12*
X9040133Y12480532D02*
X8539753Y12480532D01*
X9040133Y12194601D02*
X8754202Y12409050D01*
X8539753Y12194601D02*
X8825685Y12480532D01*
X8897167Y16070338D02*
X8897167Y15832062D01*
X9040133Y16117993D02*
X8539753Y15951200D01*
X8539753Y15951200D02*
X9040133Y15784407D01*
D11*
%TO.C,D3*%
X10849181Y11284857D02*
X9325181Y11284857D01*
X9325181Y11284857D02*
X9325181Y10922000D01*
X9325181Y10922000D02*
X9397752Y10704286D01*
X9397752Y10704286D02*
X9542895Y10559143D01*
X9542895Y10559143D02*
X9688038Y10486572D01*
X9688038Y10486572D02*
X9978324Y10414000D01*
X9978324Y10414000D02*
X10196038Y10414000D01*
X10196038Y10414000D02*
X10486324Y10486572D01*
X10486324Y10486572D02*
X10631467Y10559143D01*
X10631467Y10559143D02*
X10776610Y10704286D01*
X10776610Y10704286D02*
X10849181Y10922000D01*
X10849181Y10922000D02*
X10849181Y11284857D01*
X9325181Y9906000D02*
X9325181Y8962572D01*
X9325181Y8962572D02*
X9905752Y9470572D01*
X9905752Y9470572D02*
X9905752Y9252857D01*
X9905752Y9252857D02*
X9978324Y9107714D01*
X9978324Y9107714D02*
X10050895Y9035143D01*
X10050895Y9035143D02*
X10196038Y8962572D01*
X10196038Y8962572D02*
X10558895Y8962572D01*
X10558895Y8962572D02*
X10704038Y9035143D01*
X10704038Y9035143D02*
X10776610Y9107714D01*
X10776610Y9107714D02*
X10849181Y9252857D01*
X10849181Y9252857D02*
X10849181Y9688286D01*
X10849181Y9688286D02*
X10776610Y9833429D01*
X10776610Y9833429D02*
X10704038Y9906000D01*
D12*
X11538767Y16143998D02*
X11538767Y15905722D01*
X11681733Y16191653D02*
X11181353Y16024860D01*
X11181353Y16024860D02*
X11681733Y15858067D01*
X11681733Y12554192D02*
X11181353Y12554192D01*
X11681733Y12268261D02*
X11395802Y12482710D01*
X11181353Y12268261D02*
X11467285Y12554192D01*
D11*
%TO.C,D4*%
X435181Y11030857D02*
X-1088819Y11030857D01*
X-1088819Y11030857D02*
X-1088819Y10668000D01*
X-1088819Y10668000D02*
X-1016248Y10450286D01*
X-1016248Y10450286D02*
X-871105Y10305143D01*
X-871105Y10305143D02*
X-725962Y10232572D01*
X-725962Y10232572D02*
X-435676Y10160000D01*
X-435676Y10160000D02*
X-217962Y10160000D01*
X-217962Y10160000D02*
X72324Y10232572D01*
X72324Y10232572D02*
X217467Y10305143D01*
X217467Y10305143D02*
X362610Y10450286D01*
X362610Y10450286D02*
X435181Y10668000D01*
X435181Y10668000D02*
X435181Y11030857D01*
X-580819Y8853714D02*
X435181Y8853714D01*
X-1161390Y9216572D02*
X-72819Y9579429D01*
X-72819Y9579429D02*
X-72819Y8636000D01*
D12*
X1572533Y12401792D02*
X1072153Y12401792D01*
X1572533Y12115861D02*
X1286602Y12330310D01*
X1072153Y12115861D02*
X1358085Y12401792D01*
X1429567Y15991598D02*
X1429567Y15753322D01*
X1572533Y16039253D02*
X1072153Y15872460D01*
X1072153Y15872460D02*
X1572533Y15705667D01*
D11*
%TO.C,D5*%
X19993181Y11284857D02*
X18469181Y11284857D01*
X18469181Y11284857D02*
X18469181Y10922000D01*
X18469181Y10922000D02*
X18541752Y10704286D01*
X18541752Y10704286D02*
X18686895Y10559143D01*
X18686895Y10559143D02*
X18832038Y10486572D01*
X18832038Y10486572D02*
X19122324Y10414000D01*
X19122324Y10414000D02*
X19340038Y10414000D01*
X19340038Y10414000D02*
X19630324Y10486572D01*
X19630324Y10486572D02*
X19775467Y10559143D01*
X19775467Y10559143D02*
X19920610Y10704286D01*
X19920610Y10704286D02*
X19993181Y10922000D01*
X19993181Y10922000D02*
X19993181Y11284857D01*
X18469181Y9035143D02*
X18469181Y9760857D01*
X18469181Y9760857D02*
X19194895Y9833429D01*
X19194895Y9833429D02*
X19122324Y9760857D01*
X19122324Y9760857D02*
X19049752Y9615714D01*
X19049752Y9615714D02*
X19049752Y9252857D01*
X19049752Y9252857D02*
X19122324Y9107714D01*
X19122324Y9107714D02*
X19194895Y9035143D01*
X19194895Y9035143D02*
X19340038Y8962572D01*
X19340038Y8962572D02*
X19702895Y8962572D01*
X19702895Y8962572D02*
X19848038Y9035143D01*
X19848038Y9035143D02*
X19920610Y9107714D01*
X19920610Y9107714D02*
X19993181Y9252857D01*
X19993181Y9252857D02*
X19993181Y9615714D01*
X19993181Y9615714D02*
X19920610Y9760857D01*
X19920610Y9760857D02*
X19848038Y9833429D01*
D12*
X20784367Y16121138D02*
X20784367Y15882862D01*
X20927333Y16168793D02*
X20426953Y16002000D01*
X20426953Y16002000D02*
X20927333Y15835207D01*
X20927333Y12531332D02*
X20426953Y12531332D01*
X20927333Y12245401D02*
X20641402Y12459850D01*
X20426953Y12245401D02*
X20712885Y12531332D01*
D11*
%TO.C,D6*%
X40821181Y11030857D02*
X39297181Y11030857D01*
X39297181Y11030857D02*
X39297181Y10668000D01*
X39297181Y10668000D02*
X39369752Y10450286D01*
X39369752Y10450286D02*
X39514895Y10305143D01*
X39514895Y10305143D02*
X39660038Y10232572D01*
X39660038Y10232572D02*
X39950324Y10160000D01*
X39950324Y10160000D02*
X40168038Y10160000D01*
X40168038Y10160000D02*
X40458324Y10232572D01*
X40458324Y10232572D02*
X40603467Y10305143D01*
X40603467Y10305143D02*
X40748610Y10450286D01*
X40748610Y10450286D02*
X40821181Y10668000D01*
X40821181Y10668000D02*
X40821181Y11030857D01*
X39297181Y8853714D02*
X39297181Y9144000D01*
X39297181Y9144000D02*
X39369752Y9289143D01*
X39369752Y9289143D02*
X39442324Y9361714D01*
X39442324Y9361714D02*
X39660038Y9506857D01*
X39660038Y9506857D02*
X39950324Y9579429D01*
X39950324Y9579429D02*
X40530895Y9579429D01*
X40530895Y9579429D02*
X40676038Y9506857D01*
X40676038Y9506857D02*
X40748610Y9434286D01*
X40748610Y9434286D02*
X40821181Y9289143D01*
X40821181Y9289143D02*
X40821181Y8998857D01*
X40821181Y8998857D02*
X40748610Y8853714D01*
X40748610Y8853714D02*
X40676038Y8781143D01*
X40676038Y8781143D02*
X40530895Y8708572D01*
X40530895Y8708572D02*
X40168038Y8708572D01*
X40168038Y8708572D02*
X40022895Y8781143D01*
X40022895Y8781143D02*
X39950324Y8853714D01*
X39950324Y8853714D02*
X39877752Y8998857D01*
X39877752Y8998857D02*
X39877752Y9289143D01*
X39877752Y9289143D02*
X39950324Y9434286D01*
X39950324Y9434286D02*
X40022895Y9506857D01*
X40022895Y9506857D02*
X40168038Y9579429D01*
D12*
X41612367Y16019538D02*
X41612367Y15781262D01*
X41755333Y16067193D02*
X41254953Y15900400D01*
X41254953Y15900400D02*
X41755333Y15733607D01*
X41755333Y12429732D02*
X41254953Y12429732D01*
X41755333Y12143801D02*
X41469402Y12358250D01*
X41254953Y12143801D02*
X41540885Y12429732D01*
D11*
%TO.C,D7*%
X43361181Y11030857D02*
X41837181Y11030857D01*
X41837181Y11030857D02*
X41837181Y10668000D01*
X41837181Y10668000D02*
X41909752Y10450286D01*
X41909752Y10450286D02*
X42054895Y10305143D01*
X42054895Y10305143D02*
X42200038Y10232572D01*
X42200038Y10232572D02*
X42490324Y10160000D01*
X42490324Y10160000D02*
X42708038Y10160000D01*
X42708038Y10160000D02*
X42998324Y10232572D01*
X42998324Y10232572D02*
X43143467Y10305143D01*
X43143467Y10305143D02*
X43288610Y10450286D01*
X43288610Y10450286D02*
X43361181Y10668000D01*
X43361181Y10668000D02*
X43361181Y11030857D01*
X41837181Y9652000D02*
X41837181Y8636000D01*
X41837181Y8636000D02*
X43361181Y9289143D01*
D12*
X44193733Y12503392D02*
X43693353Y12503392D01*
X44193733Y12217461D02*
X43907802Y12431910D01*
X43693353Y12217461D02*
X43979285Y12503392D01*
X44050767Y16093198D02*
X44050767Y15854922D01*
X44193733Y16140853D02*
X43693353Y15974060D01*
X43693353Y15974060D02*
X44193733Y15807267D01*
D11*
%TO.C,D8*%
X29137181Y14332857D02*
X27613181Y14332857D01*
X27613181Y14332857D02*
X27613181Y13970000D01*
X27613181Y13970000D02*
X27685752Y13752286D01*
X27685752Y13752286D02*
X27830895Y13607143D01*
X27830895Y13607143D02*
X27976038Y13534572D01*
X27976038Y13534572D02*
X28266324Y13462000D01*
X28266324Y13462000D02*
X28484038Y13462000D01*
X28484038Y13462000D02*
X28774324Y13534572D01*
X28774324Y13534572D02*
X28919467Y13607143D01*
X28919467Y13607143D02*
X29064610Y13752286D01*
X29064610Y13752286D02*
X29137181Y13970000D01*
X29137181Y13970000D02*
X29137181Y14332857D01*
X28266324Y12591143D02*
X28193752Y12736286D01*
X28193752Y12736286D02*
X28121181Y12808857D01*
X28121181Y12808857D02*
X27976038Y12881429D01*
X27976038Y12881429D02*
X27903467Y12881429D01*
X27903467Y12881429D02*
X27758324Y12808857D01*
X27758324Y12808857D02*
X27685752Y12736286D01*
X27685752Y12736286D02*
X27613181Y12591143D01*
X27613181Y12591143D02*
X27613181Y12300857D01*
X27613181Y12300857D02*
X27685752Y12155714D01*
X27685752Y12155714D02*
X27758324Y12083143D01*
X27758324Y12083143D02*
X27903467Y12010572D01*
X27903467Y12010572D02*
X27976038Y12010572D01*
X27976038Y12010572D02*
X28121181Y12083143D01*
X28121181Y12083143D02*
X28193752Y12155714D01*
X28193752Y12155714D02*
X28266324Y12300857D01*
X28266324Y12300857D02*
X28266324Y12591143D01*
X28266324Y12591143D02*
X28338895Y12736286D01*
X28338895Y12736286D02*
X28411467Y12808857D01*
X28411467Y12808857D02*
X28556610Y12881429D01*
X28556610Y12881429D02*
X28846895Y12881429D01*
X28846895Y12881429D02*
X28992038Y12808857D01*
X28992038Y12808857D02*
X29064610Y12736286D01*
X29064610Y12736286D02*
X29137181Y12591143D01*
X29137181Y12591143D02*
X29137181Y12300857D01*
X29137181Y12300857D02*
X29064610Y12155714D01*
X29064610Y12155714D02*
X28992038Y12083143D01*
X28992038Y12083143D02*
X28846895Y12010572D01*
X28846895Y12010572D02*
X28556610Y12010572D01*
X28556610Y12010572D02*
X28411467Y12083143D01*
X28411467Y12083143D02*
X28338895Y12155714D01*
X28338895Y12155714D02*
X28266324Y12300857D01*
D12*
X32366767Y15127998D02*
X32366767Y14889722D01*
X32509733Y15175653D02*
X32009353Y15008860D01*
X32009353Y15008860D02*
X32509733Y14842067D01*
X32509733Y11538192D02*
X32009353Y11538192D01*
X32509733Y11252261D02*
X32223802Y11466710D01*
X32009353Y11252261D02*
X32295285Y11538192D01*
D11*
%TO.C,D9*%
X50473181Y11030857D02*
X48949181Y11030857D01*
X48949181Y11030857D02*
X48949181Y10668000D01*
X48949181Y10668000D02*
X49021752Y10450286D01*
X49021752Y10450286D02*
X49166895Y10305143D01*
X49166895Y10305143D02*
X49312038Y10232572D01*
X49312038Y10232572D02*
X49602324Y10160000D01*
X49602324Y10160000D02*
X49820038Y10160000D01*
X49820038Y10160000D02*
X50110324Y10232572D01*
X50110324Y10232572D02*
X50255467Y10305143D01*
X50255467Y10305143D02*
X50400610Y10450286D01*
X50400610Y10450286D02*
X50473181Y10668000D01*
X50473181Y10668000D02*
X50473181Y11030857D01*
X50473181Y9434286D02*
X50473181Y9144000D01*
X50473181Y9144000D02*
X50400610Y8998857D01*
X50400610Y8998857D02*
X50328038Y8926286D01*
X50328038Y8926286D02*
X50110324Y8781143D01*
X50110324Y8781143D02*
X49820038Y8708572D01*
X49820038Y8708572D02*
X49239467Y8708572D01*
X49239467Y8708572D02*
X49094324Y8781143D01*
X49094324Y8781143D02*
X49021752Y8853714D01*
X49021752Y8853714D02*
X48949181Y8998857D01*
X48949181Y8998857D02*
X48949181Y9289143D01*
X48949181Y9289143D02*
X49021752Y9434286D01*
X49021752Y9434286D02*
X49094324Y9506857D01*
X49094324Y9506857D02*
X49239467Y9579429D01*
X49239467Y9579429D02*
X49602324Y9579429D01*
X49602324Y9579429D02*
X49747467Y9506857D01*
X49747467Y9506857D02*
X49820038Y9434286D01*
X49820038Y9434286D02*
X49892610Y9289143D01*
X49892610Y9289143D02*
X49892610Y8998857D01*
X49892610Y8998857D02*
X49820038Y8853714D01*
X49820038Y8853714D02*
X49747467Y8781143D01*
X49747467Y8781143D02*
X49602324Y8708572D01*
D12*
X51559733Y12554192D02*
X51059353Y12554192D01*
X51559733Y12268261D02*
X51273802Y12482710D01*
X51059353Y12268261D02*
X51345285Y12554192D01*
X51416767Y16143998D02*
X51416767Y15905722D01*
X51559733Y16191653D02*
X51059353Y16024860D01*
X51059353Y16024860D02*
X51559733Y15858067D01*
D10*
%TO.C,R3*%
X5039105Y15069397D02*
X4800829Y15236190D01*
X5039105Y15355328D02*
X4538725Y15355328D01*
X4538725Y15355328D02*
X4538725Y15164707D01*
X4538725Y15164707D02*
X4562553Y15117052D01*
X4562553Y15117052D02*
X4586380Y15093225D01*
X4586380Y15093225D02*
X4634036Y15069397D01*
X4634036Y15069397D02*
X4705518Y15069397D01*
X4705518Y15069397D02*
X4753174Y15093225D01*
X4753174Y15093225D02*
X4777001Y15117052D01*
X4777001Y15117052D02*
X4800829Y15164707D01*
X4800829Y15164707D02*
X4800829Y15355328D01*
X4538725Y14902604D02*
X4538725Y14592845D01*
X4538725Y14592845D02*
X4729346Y14759638D01*
X4729346Y14759638D02*
X4729346Y14688155D01*
X4729346Y14688155D02*
X4753174Y14640500D01*
X4753174Y14640500D02*
X4777001Y14616672D01*
X4777001Y14616672D02*
X4824657Y14592845D01*
X4824657Y14592845D02*
X4943795Y14592845D01*
X4943795Y14592845D02*
X4991450Y14616672D01*
X4991450Y14616672D02*
X5015278Y14640500D01*
X5015278Y14640500D02*
X5039105Y14688155D01*
X5039105Y14688155D02*
X5039105Y14831121D01*
X5039105Y14831121D02*
X5015278Y14878776D01*
X5015278Y14878776D02*
X4991450Y14902604D01*
X5737605Y15442777D02*
X5737605Y15728708D01*
X5737605Y15585742D02*
X5237225Y15585742D01*
X5237225Y15585742D02*
X5308708Y15633398D01*
X5308708Y15633398D02*
X5356363Y15681053D01*
X5356363Y15681053D02*
X5380191Y15728708D01*
X5451674Y15156846D02*
X5427846Y15204501D01*
X5427846Y15204501D02*
X5404018Y15228328D01*
X5404018Y15228328D02*
X5356363Y15252156D01*
X5356363Y15252156D02*
X5332536Y15252156D01*
X5332536Y15252156D02*
X5284880Y15228328D01*
X5284880Y15228328D02*
X5261053Y15204501D01*
X5261053Y15204501D02*
X5237225Y15156846D01*
X5237225Y15156846D02*
X5237225Y15061535D01*
X5237225Y15061535D02*
X5261053Y15013880D01*
X5261053Y15013880D02*
X5284880Y14990052D01*
X5284880Y14990052D02*
X5332536Y14966225D01*
X5332536Y14966225D02*
X5356363Y14966225D01*
X5356363Y14966225D02*
X5404018Y14990052D01*
X5404018Y14990052D02*
X5427846Y15013880D01*
X5427846Y15013880D02*
X5451674Y15061535D01*
X5451674Y15061535D02*
X5451674Y15156846D01*
X5451674Y15156846D02*
X5475501Y15204501D01*
X5475501Y15204501D02*
X5499329Y15228328D01*
X5499329Y15228328D02*
X5546984Y15252156D01*
X5546984Y15252156D02*
X5642295Y15252156D01*
X5642295Y15252156D02*
X5689950Y15228328D01*
X5689950Y15228328D02*
X5713778Y15204501D01*
X5713778Y15204501D02*
X5737605Y15156846D01*
X5737605Y15156846D02*
X5737605Y15061535D01*
X5737605Y15061535D02*
X5713778Y15013880D01*
X5713778Y15013880D02*
X5689950Y14990052D01*
X5689950Y14990052D02*
X5642295Y14966225D01*
X5642295Y14966225D02*
X5546984Y14966225D01*
X5546984Y14966225D02*
X5499329Y14990052D01*
X5499329Y14990052D02*
X5475501Y15013880D01*
X5475501Y15013880D02*
X5451674Y15061535D01*
X5237225Y14656466D02*
X5237225Y14608811D01*
X5237225Y14608811D02*
X5261053Y14561155D01*
X5261053Y14561155D02*
X5284880Y14537328D01*
X5284880Y14537328D02*
X5332536Y14513500D01*
X5332536Y14513500D02*
X5427846Y14489673D01*
X5427846Y14489673D02*
X5546984Y14489673D01*
X5546984Y14489673D02*
X5642295Y14513500D01*
X5642295Y14513500D02*
X5689950Y14537328D01*
X5689950Y14537328D02*
X5713778Y14561155D01*
X5713778Y14561155D02*
X5737605Y14608811D01*
X5737605Y14608811D02*
X5737605Y14656466D01*
X5737605Y14656466D02*
X5713778Y14704121D01*
X5713778Y14704121D02*
X5689950Y14727949D01*
X5689950Y14727949D02*
X5642295Y14751776D01*
X5642295Y14751776D02*
X5546984Y14775604D01*
X5546984Y14775604D02*
X5427846Y14775604D01*
X5427846Y14775604D02*
X5332536Y14751776D01*
X5332536Y14751776D02*
X5284880Y14727949D01*
X5284880Y14727949D02*
X5261053Y14704121D01*
X5261053Y14704121D02*
X5237225Y14656466D01*
X5737605Y14275224D02*
X5237225Y14275224D01*
X5737605Y13989293D02*
X5451674Y14203742D01*
X5237225Y13989293D02*
X5523157Y14275224D01*
%TO.C,R4*%
X2499105Y15069397D02*
X2260829Y15236190D01*
X2499105Y15355328D02*
X1998725Y15355328D01*
X1998725Y15355328D02*
X1998725Y15164707D01*
X1998725Y15164707D02*
X2022553Y15117052D01*
X2022553Y15117052D02*
X2046380Y15093225D01*
X2046380Y15093225D02*
X2094036Y15069397D01*
X2094036Y15069397D02*
X2165518Y15069397D01*
X2165518Y15069397D02*
X2213174Y15093225D01*
X2213174Y15093225D02*
X2237001Y15117052D01*
X2237001Y15117052D02*
X2260829Y15164707D01*
X2260829Y15164707D02*
X2260829Y15355328D01*
X2165518Y14640500D02*
X2499105Y14640500D01*
X1974898Y14759638D02*
X2332312Y14878776D01*
X2332312Y14878776D02*
X2332312Y14569017D01*
X3197605Y15442777D02*
X3197605Y15728708D01*
X3197605Y15585742D02*
X2697225Y15585742D01*
X2697225Y15585742D02*
X2768708Y15633398D01*
X2768708Y15633398D02*
X2816363Y15681053D01*
X2816363Y15681053D02*
X2840191Y15728708D01*
X2911674Y15156846D02*
X2887846Y15204501D01*
X2887846Y15204501D02*
X2864018Y15228328D01*
X2864018Y15228328D02*
X2816363Y15252156D01*
X2816363Y15252156D02*
X2792536Y15252156D01*
X2792536Y15252156D02*
X2744880Y15228328D01*
X2744880Y15228328D02*
X2721053Y15204501D01*
X2721053Y15204501D02*
X2697225Y15156846D01*
X2697225Y15156846D02*
X2697225Y15061535D01*
X2697225Y15061535D02*
X2721053Y15013880D01*
X2721053Y15013880D02*
X2744880Y14990052D01*
X2744880Y14990052D02*
X2792536Y14966225D01*
X2792536Y14966225D02*
X2816363Y14966225D01*
X2816363Y14966225D02*
X2864018Y14990052D01*
X2864018Y14990052D02*
X2887846Y15013880D01*
X2887846Y15013880D02*
X2911674Y15061535D01*
X2911674Y15061535D02*
X2911674Y15156846D01*
X2911674Y15156846D02*
X2935501Y15204501D01*
X2935501Y15204501D02*
X2959329Y15228328D01*
X2959329Y15228328D02*
X3006984Y15252156D01*
X3006984Y15252156D02*
X3102295Y15252156D01*
X3102295Y15252156D02*
X3149950Y15228328D01*
X3149950Y15228328D02*
X3173778Y15204501D01*
X3173778Y15204501D02*
X3197605Y15156846D01*
X3197605Y15156846D02*
X3197605Y15061535D01*
X3197605Y15061535D02*
X3173778Y15013880D01*
X3173778Y15013880D02*
X3149950Y14990052D01*
X3149950Y14990052D02*
X3102295Y14966225D01*
X3102295Y14966225D02*
X3006984Y14966225D01*
X3006984Y14966225D02*
X2959329Y14990052D01*
X2959329Y14990052D02*
X2935501Y15013880D01*
X2935501Y15013880D02*
X2911674Y15061535D01*
X2697225Y14656466D02*
X2697225Y14608811D01*
X2697225Y14608811D02*
X2721053Y14561155D01*
X2721053Y14561155D02*
X2744880Y14537328D01*
X2744880Y14537328D02*
X2792536Y14513500D01*
X2792536Y14513500D02*
X2887846Y14489673D01*
X2887846Y14489673D02*
X3006984Y14489673D01*
X3006984Y14489673D02*
X3102295Y14513500D01*
X3102295Y14513500D02*
X3149950Y14537328D01*
X3149950Y14537328D02*
X3173778Y14561155D01*
X3173778Y14561155D02*
X3197605Y14608811D01*
X3197605Y14608811D02*
X3197605Y14656466D01*
X3197605Y14656466D02*
X3173778Y14704121D01*
X3173778Y14704121D02*
X3149950Y14727949D01*
X3149950Y14727949D02*
X3102295Y14751776D01*
X3102295Y14751776D02*
X3006984Y14775604D01*
X3006984Y14775604D02*
X2887846Y14775604D01*
X2887846Y14775604D02*
X2792536Y14751776D01*
X2792536Y14751776D02*
X2744880Y14727949D01*
X2744880Y14727949D02*
X2721053Y14704121D01*
X2721053Y14704121D02*
X2697225Y14656466D01*
X3197605Y14275224D02*
X2697225Y14275224D01*
X3197605Y13989293D02*
X2911674Y14203742D01*
X2697225Y13989293D02*
X2983157Y14275224D01*
%TO.C,R5*%
X12354305Y15069397D02*
X12116029Y15236190D01*
X12354305Y15355328D02*
X11853925Y15355328D01*
X11853925Y15355328D02*
X11853925Y15164707D01*
X11853925Y15164707D02*
X11877753Y15117052D01*
X11877753Y15117052D02*
X11901580Y15093225D01*
X11901580Y15093225D02*
X11949236Y15069397D01*
X11949236Y15069397D02*
X12020718Y15069397D01*
X12020718Y15069397D02*
X12068374Y15093225D01*
X12068374Y15093225D02*
X12092201Y15117052D01*
X12092201Y15117052D02*
X12116029Y15164707D01*
X12116029Y15164707D02*
X12116029Y15355328D01*
X11853925Y14616672D02*
X11853925Y14854948D01*
X11853925Y14854948D02*
X12092201Y14878776D01*
X12092201Y14878776D02*
X12068374Y14854948D01*
X12068374Y14854948D02*
X12044546Y14807293D01*
X12044546Y14807293D02*
X12044546Y14688155D01*
X12044546Y14688155D02*
X12068374Y14640500D01*
X12068374Y14640500D02*
X12092201Y14616672D01*
X12092201Y14616672D02*
X12139857Y14592845D01*
X12139857Y14592845D02*
X12258995Y14592845D01*
X12258995Y14592845D02*
X12306650Y14616672D01*
X12306650Y14616672D02*
X12330478Y14640500D01*
X12330478Y14640500D02*
X12354305Y14688155D01*
X12354305Y14688155D02*
X12354305Y14807293D01*
X12354305Y14807293D02*
X12330478Y14854948D01*
X12330478Y14854948D02*
X12306650Y14878776D01*
X13052805Y15442777D02*
X13052805Y15728708D01*
X13052805Y15585742D02*
X12552425Y15585742D01*
X12552425Y15585742D02*
X12623908Y15633398D01*
X12623908Y15633398D02*
X12671563Y15681053D01*
X12671563Y15681053D02*
X12695391Y15728708D01*
X12766874Y15156846D02*
X12743046Y15204501D01*
X12743046Y15204501D02*
X12719218Y15228328D01*
X12719218Y15228328D02*
X12671563Y15252156D01*
X12671563Y15252156D02*
X12647736Y15252156D01*
X12647736Y15252156D02*
X12600080Y15228328D01*
X12600080Y15228328D02*
X12576253Y15204501D01*
X12576253Y15204501D02*
X12552425Y15156846D01*
X12552425Y15156846D02*
X12552425Y15061535D01*
X12552425Y15061535D02*
X12576253Y15013880D01*
X12576253Y15013880D02*
X12600080Y14990052D01*
X12600080Y14990052D02*
X12647736Y14966225D01*
X12647736Y14966225D02*
X12671563Y14966225D01*
X12671563Y14966225D02*
X12719218Y14990052D01*
X12719218Y14990052D02*
X12743046Y15013880D01*
X12743046Y15013880D02*
X12766874Y15061535D01*
X12766874Y15061535D02*
X12766874Y15156846D01*
X12766874Y15156846D02*
X12790701Y15204501D01*
X12790701Y15204501D02*
X12814529Y15228328D01*
X12814529Y15228328D02*
X12862184Y15252156D01*
X12862184Y15252156D02*
X12957495Y15252156D01*
X12957495Y15252156D02*
X13005150Y15228328D01*
X13005150Y15228328D02*
X13028978Y15204501D01*
X13028978Y15204501D02*
X13052805Y15156846D01*
X13052805Y15156846D02*
X13052805Y15061535D01*
X13052805Y15061535D02*
X13028978Y15013880D01*
X13028978Y15013880D02*
X13005150Y14990052D01*
X13005150Y14990052D02*
X12957495Y14966225D01*
X12957495Y14966225D02*
X12862184Y14966225D01*
X12862184Y14966225D02*
X12814529Y14990052D01*
X12814529Y14990052D02*
X12790701Y15013880D01*
X12790701Y15013880D02*
X12766874Y15061535D01*
X12552425Y14656466D02*
X12552425Y14608811D01*
X12552425Y14608811D02*
X12576253Y14561155D01*
X12576253Y14561155D02*
X12600080Y14537328D01*
X12600080Y14537328D02*
X12647736Y14513500D01*
X12647736Y14513500D02*
X12743046Y14489673D01*
X12743046Y14489673D02*
X12862184Y14489673D01*
X12862184Y14489673D02*
X12957495Y14513500D01*
X12957495Y14513500D02*
X13005150Y14537328D01*
X13005150Y14537328D02*
X13028978Y14561155D01*
X13028978Y14561155D02*
X13052805Y14608811D01*
X13052805Y14608811D02*
X13052805Y14656466D01*
X13052805Y14656466D02*
X13028978Y14704121D01*
X13028978Y14704121D02*
X13005150Y14727949D01*
X13005150Y14727949D02*
X12957495Y14751776D01*
X12957495Y14751776D02*
X12862184Y14775604D01*
X12862184Y14775604D02*
X12743046Y14775604D01*
X12743046Y14775604D02*
X12647736Y14751776D01*
X12647736Y14751776D02*
X12600080Y14727949D01*
X12600080Y14727949D02*
X12576253Y14704121D01*
X12576253Y14704121D02*
X12552425Y14656466D01*
X13052805Y14275224D02*
X12552425Y14275224D01*
X13052805Y13989293D02*
X12766874Y14203742D01*
X12552425Y13989293D02*
X12838357Y14275224D01*
%TO.C,R6*%
X14894305Y15069397D02*
X14656029Y15236190D01*
X14894305Y15355328D02*
X14393925Y15355328D01*
X14393925Y15355328D02*
X14393925Y15164707D01*
X14393925Y15164707D02*
X14417753Y15117052D01*
X14417753Y15117052D02*
X14441580Y15093225D01*
X14441580Y15093225D02*
X14489236Y15069397D01*
X14489236Y15069397D02*
X14560718Y15069397D01*
X14560718Y15069397D02*
X14608374Y15093225D01*
X14608374Y15093225D02*
X14632201Y15117052D01*
X14632201Y15117052D02*
X14656029Y15164707D01*
X14656029Y15164707D02*
X14656029Y15355328D01*
X14393925Y14640500D02*
X14393925Y14735810D01*
X14393925Y14735810D02*
X14417753Y14783466D01*
X14417753Y14783466D02*
X14441580Y14807293D01*
X14441580Y14807293D02*
X14513063Y14854948D01*
X14513063Y14854948D02*
X14608374Y14878776D01*
X14608374Y14878776D02*
X14798995Y14878776D01*
X14798995Y14878776D02*
X14846650Y14854948D01*
X14846650Y14854948D02*
X14870478Y14831121D01*
X14870478Y14831121D02*
X14894305Y14783466D01*
X14894305Y14783466D02*
X14894305Y14688155D01*
X14894305Y14688155D02*
X14870478Y14640500D01*
X14870478Y14640500D02*
X14846650Y14616672D01*
X14846650Y14616672D02*
X14798995Y14592845D01*
X14798995Y14592845D02*
X14679857Y14592845D01*
X14679857Y14592845D02*
X14632201Y14616672D01*
X14632201Y14616672D02*
X14608374Y14640500D01*
X14608374Y14640500D02*
X14584546Y14688155D01*
X14584546Y14688155D02*
X14584546Y14783466D01*
X14584546Y14783466D02*
X14608374Y14831121D01*
X14608374Y14831121D02*
X14632201Y14854948D01*
X14632201Y14854948D02*
X14679857Y14878776D01*
X15592805Y15442777D02*
X15592805Y15728708D01*
X15592805Y15585742D02*
X15092425Y15585742D01*
X15092425Y15585742D02*
X15163908Y15633398D01*
X15163908Y15633398D02*
X15211563Y15681053D01*
X15211563Y15681053D02*
X15235391Y15728708D01*
X15306874Y15156846D02*
X15283046Y15204501D01*
X15283046Y15204501D02*
X15259218Y15228328D01*
X15259218Y15228328D02*
X15211563Y15252156D01*
X15211563Y15252156D02*
X15187736Y15252156D01*
X15187736Y15252156D02*
X15140080Y15228328D01*
X15140080Y15228328D02*
X15116253Y15204501D01*
X15116253Y15204501D02*
X15092425Y15156846D01*
X15092425Y15156846D02*
X15092425Y15061535D01*
X15092425Y15061535D02*
X15116253Y15013880D01*
X15116253Y15013880D02*
X15140080Y14990052D01*
X15140080Y14990052D02*
X15187736Y14966225D01*
X15187736Y14966225D02*
X15211563Y14966225D01*
X15211563Y14966225D02*
X15259218Y14990052D01*
X15259218Y14990052D02*
X15283046Y15013880D01*
X15283046Y15013880D02*
X15306874Y15061535D01*
X15306874Y15061535D02*
X15306874Y15156846D01*
X15306874Y15156846D02*
X15330701Y15204501D01*
X15330701Y15204501D02*
X15354529Y15228328D01*
X15354529Y15228328D02*
X15402184Y15252156D01*
X15402184Y15252156D02*
X15497495Y15252156D01*
X15497495Y15252156D02*
X15545150Y15228328D01*
X15545150Y15228328D02*
X15568978Y15204501D01*
X15568978Y15204501D02*
X15592805Y15156846D01*
X15592805Y15156846D02*
X15592805Y15061535D01*
X15592805Y15061535D02*
X15568978Y15013880D01*
X15568978Y15013880D02*
X15545150Y14990052D01*
X15545150Y14990052D02*
X15497495Y14966225D01*
X15497495Y14966225D02*
X15402184Y14966225D01*
X15402184Y14966225D02*
X15354529Y14990052D01*
X15354529Y14990052D02*
X15330701Y15013880D01*
X15330701Y15013880D02*
X15306874Y15061535D01*
X15092425Y14656466D02*
X15092425Y14608811D01*
X15092425Y14608811D02*
X15116253Y14561155D01*
X15116253Y14561155D02*
X15140080Y14537328D01*
X15140080Y14537328D02*
X15187736Y14513500D01*
X15187736Y14513500D02*
X15283046Y14489673D01*
X15283046Y14489673D02*
X15402184Y14489673D01*
X15402184Y14489673D02*
X15497495Y14513500D01*
X15497495Y14513500D02*
X15545150Y14537328D01*
X15545150Y14537328D02*
X15568978Y14561155D01*
X15568978Y14561155D02*
X15592805Y14608811D01*
X15592805Y14608811D02*
X15592805Y14656466D01*
X15592805Y14656466D02*
X15568978Y14704121D01*
X15568978Y14704121D02*
X15545150Y14727949D01*
X15545150Y14727949D02*
X15497495Y14751776D01*
X15497495Y14751776D02*
X15402184Y14775604D01*
X15402184Y14775604D02*
X15283046Y14775604D01*
X15283046Y14775604D02*
X15187736Y14751776D01*
X15187736Y14751776D02*
X15140080Y14727949D01*
X15140080Y14727949D02*
X15116253Y14704121D01*
X15116253Y14704121D02*
X15092425Y14656466D01*
X15592805Y14275224D02*
X15092425Y14275224D01*
X15592805Y13989293D02*
X15306874Y14203742D01*
X15092425Y13989293D02*
X15378357Y14275224D01*
%TO.C,R7*%
X1543896Y17490695D02*
X1710689Y17728971D01*
X1829827Y17490695D02*
X1829827Y17991075D01*
X1829827Y17991075D02*
X1639206Y17991075D01*
X1639206Y17991075D02*
X1591551Y17967247D01*
X1591551Y17967247D02*
X1567724Y17943420D01*
X1567724Y17943420D02*
X1543896Y17895764D01*
X1543896Y17895764D02*
X1543896Y17824282D01*
X1543896Y17824282D02*
X1567724Y17776626D01*
X1567724Y17776626D02*
X1591551Y17752799D01*
X1591551Y17752799D02*
X1639206Y17728971D01*
X1639206Y17728971D02*
X1829827Y17728971D01*
X1377103Y17991075D02*
X1043516Y17991075D01*
X1043516Y17991075D02*
X1257965Y17490695D01*
X2242759Y18689575D02*
X1933000Y18689575D01*
X1933000Y18689575D02*
X2099793Y18498954D01*
X2099793Y18498954D02*
X2028310Y18498954D01*
X2028310Y18498954D02*
X1980655Y18475126D01*
X1980655Y18475126D02*
X1956827Y18451299D01*
X1956827Y18451299D02*
X1933000Y18403643D01*
X1933000Y18403643D02*
X1933000Y18284505D01*
X1933000Y18284505D02*
X1956827Y18236850D01*
X1956827Y18236850D02*
X1980655Y18213022D01*
X1980655Y18213022D02*
X2028310Y18189195D01*
X2028310Y18189195D02*
X2171276Y18189195D01*
X2171276Y18189195D02*
X2218931Y18213022D01*
X2218931Y18213022D02*
X2242759Y18236850D01*
X1766207Y18689575D02*
X1456448Y18689575D01*
X1456448Y18689575D02*
X1623241Y18498954D01*
X1623241Y18498954D02*
X1551758Y18498954D01*
X1551758Y18498954D02*
X1504103Y18475126D01*
X1504103Y18475126D02*
X1480275Y18451299D01*
X1480275Y18451299D02*
X1456448Y18403643D01*
X1456448Y18403643D02*
X1456448Y18284505D01*
X1456448Y18284505D02*
X1480275Y18236850D01*
X1480275Y18236850D02*
X1504103Y18213022D01*
X1504103Y18213022D02*
X1551758Y18189195D01*
X1551758Y18189195D02*
X1694724Y18189195D01*
X1694724Y18189195D02*
X1742379Y18213022D01*
X1742379Y18213022D02*
X1766207Y18236850D01*
X1241999Y18189195D02*
X1241999Y18689575D01*
X956068Y18189195D02*
X1170517Y18475126D01*
X956068Y18689575D02*
X1241999Y18403643D01*
%TO.C,R8*%
X15069396Y19141695D02*
X15236189Y19379971D01*
X15355327Y19141695D02*
X15355327Y19642075D01*
X15355327Y19642075D02*
X15164706Y19642075D01*
X15164706Y19642075D02*
X15117051Y19618247D01*
X15117051Y19618247D02*
X15093224Y19594420D01*
X15093224Y19594420D02*
X15069396Y19546764D01*
X15069396Y19546764D02*
X15069396Y19475282D01*
X15069396Y19475282D02*
X15093224Y19427626D01*
X15093224Y19427626D02*
X15117051Y19403799D01*
X15117051Y19403799D02*
X15164706Y19379971D01*
X15164706Y19379971D02*
X15355327Y19379971D01*
X14783465Y19427626D02*
X14831120Y19451454D01*
X14831120Y19451454D02*
X14854947Y19475282D01*
X14854947Y19475282D02*
X14878775Y19522937D01*
X14878775Y19522937D02*
X14878775Y19546764D01*
X14878775Y19546764D02*
X14854947Y19594420D01*
X14854947Y19594420D02*
X14831120Y19618247D01*
X14831120Y19618247D02*
X14783465Y19642075D01*
X14783465Y19642075D02*
X14688154Y19642075D01*
X14688154Y19642075D02*
X14640499Y19618247D01*
X14640499Y19618247D02*
X14616671Y19594420D01*
X14616671Y19594420D02*
X14592844Y19546764D01*
X14592844Y19546764D02*
X14592844Y19522937D01*
X14592844Y19522937D02*
X14616671Y19475282D01*
X14616671Y19475282D02*
X14640499Y19451454D01*
X14640499Y19451454D02*
X14688154Y19427626D01*
X14688154Y19427626D02*
X14783465Y19427626D01*
X14783465Y19427626D02*
X14831120Y19403799D01*
X14831120Y19403799D02*
X14854947Y19379971D01*
X14854947Y19379971D02*
X14878775Y19332316D01*
X14878775Y19332316D02*
X14878775Y19237005D01*
X14878775Y19237005D02*
X14854947Y19189350D01*
X14854947Y19189350D02*
X14831120Y19165522D01*
X14831120Y19165522D02*
X14783465Y19141695D01*
X14783465Y19141695D02*
X14688154Y19141695D01*
X14688154Y19141695D02*
X14640499Y19165522D01*
X14640499Y19165522D02*
X14616671Y19189350D01*
X14616671Y19189350D02*
X14592844Y19237005D01*
X14592844Y19237005D02*
X14592844Y19332316D01*
X14592844Y19332316D02*
X14616671Y19379971D01*
X14616671Y19379971D02*
X14640499Y19403799D01*
X14640499Y19403799D02*
X14688154Y19427626D01*
X15514259Y18943575D02*
X15204500Y18943575D01*
X15204500Y18943575D02*
X15371293Y18752954D01*
X15371293Y18752954D02*
X15299810Y18752954D01*
X15299810Y18752954D02*
X15252155Y18729126D01*
X15252155Y18729126D02*
X15228327Y18705299D01*
X15228327Y18705299D02*
X15204500Y18657643D01*
X15204500Y18657643D02*
X15204500Y18538505D01*
X15204500Y18538505D02*
X15228327Y18490850D01*
X15228327Y18490850D02*
X15252155Y18467022D01*
X15252155Y18467022D02*
X15299810Y18443195D01*
X15299810Y18443195D02*
X15442776Y18443195D01*
X15442776Y18443195D02*
X15490431Y18467022D01*
X15490431Y18467022D02*
X15514259Y18490850D01*
X15037707Y18943575D02*
X14727948Y18943575D01*
X14727948Y18943575D02*
X14894741Y18752954D01*
X14894741Y18752954D02*
X14823258Y18752954D01*
X14823258Y18752954D02*
X14775603Y18729126D01*
X14775603Y18729126D02*
X14751775Y18705299D01*
X14751775Y18705299D02*
X14727948Y18657643D01*
X14727948Y18657643D02*
X14727948Y18538505D01*
X14727948Y18538505D02*
X14751775Y18490850D01*
X14751775Y18490850D02*
X14775603Y18467022D01*
X14775603Y18467022D02*
X14823258Y18443195D01*
X14823258Y18443195D02*
X14966224Y18443195D01*
X14966224Y18443195D02*
X15013879Y18467022D01*
X15013879Y18467022D02*
X15037707Y18490850D01*
X14513499Y18443195D02*
X14513499Y18943575D01*
X14227568Y18443195D02*
X14442017Y18729126D01*
X14227568Y18943575D02*
X14513499Y18657643D01*
%TO.C,R9*%
X5633296Y19268695D02*
X5800089Y19506971D01*
X5919227Y19268695D02*
X5919227Y19769075D01*
X5919227Y19769075D02*
X5728606Y19769075D01*
X5728606Y19769075D02*
X5680951Y19745247D01*
X5680951Y19745247D02*
X5657124Y19721420D01*
X5657124Y19721420D02*
X5633296Y19673764D01*
X5633296Y19673764D02*
X5633296Y19602282D01*
X5633296Y19602282D02*
X5657124Y19554626D01*
X5657124Y19554626D02*
X5680951Y19530799D01*
X5680951Y19530799D02*
X5728606Y19506971D01*
X5728606Y19506971D02*
X5919227Y19506971D01*
X5395020Y19268695D02*
X5299709Y19268695D01*
X5299709Y19268695D02*
X5252054Y19292522D01*
X5252054Y19292522D02*
X5228226Y19316350D01*
X5228226Y19316350D02*
X5180571Y19387833D01*
X5180571Y19387833D02*
X5156744Y19483143D01*
X5156744Y19483143D02*
X5156744Y19673764D01*
X5156744Y19673764D02*
X5180571Y19721420D01*
X5180571Y19721420D02*
X5204399Y19745247D01*
X5204399Y19745247D02*
X5252054Y19769075D01*
X5252054Y19769075D02*
X5347365Y19769075D01*
X5347365Y19769075D02*
X5395020Y19745247D01*
X5395020Y19745247D02*
X5418847Y19721420D01*
X5418847Y19721420D02*
X5442675Y19673764D01*
X5442675Y19673764D02*
X5442675Y19554626D01*
X5442675Y19554626D02*
X5418847Y19506971D01*
X5418847Y19506971D02*
X5395020Y19483143D01*
X5395020Y19483143D02*
X5347365Y19459316D01*
X5347365Y19459316D02*
X5252054Y19459316D01*
X5252054Y19459316D02*
X5204399Y19483143D01*
X5204399Y19483143D02*
X5180571Y19506971D01*
X5180571Y19506971D02*
X5156744Y19554626D01*
X6332159Y20467575D02*
X6022400Y20467575D01*
X6022400Y20467575D02*
X6189193Y20276954D01*
X6189193Y20276954D02*
X6117710Y20276954D01*
X6117710Y20276954D02*
X6070055Y20253126D01*
X6070055Y20253126D02*
X6046227Y20229299D01*
X6046227Y20229299D02*
X6022400Y20181643D01*
X6022400Y20181643D02*
X6022400Y20062505D01*
X6022400Y20062505D02*
X6046227Y20014850D01*
X6046227Y20014850D02*
X6070055Y19991022D01*
X6070055Y19991022D02*
X6117710Y19967195D01*
X6117710Y19967195D02*
X6260676Y19967195D01*
X6260676Y19967195D02*
X6308331Y19991022D01*
X6308331Y19991022D02*
X6332159Y20014850D01*
X5855607Y20467575D02*
X5545848Y20467575D01*
X5545848Y20467575D02*
X5712641Y20276954D01*
X5712641Y20276954D02*
X5641158Y20276954D01*
X5641158Y20276954D02*
X5593503Y20253126D01*
X5593503Y20253126D02*
X5569675Y20229299D01*
X5569675Y20229299D02*
X5545848Y20181643D01*
X5545848Y20181643D02*
X5545848Y20062505D01*
X5545848Y20062505D02*
X5569675Y20014850D01*
X5569675Y20014850D02*
X5593503Y19991022D01*
X5593503Y19991022D02*
X5641158Y19967195D01*
X5641158Y19967195D02*
X5784124Y19967195D01*
X5784124Y19967195D02*
X5831779Y19991022D01*
X5831779Y19991022D02*
X5855607Y20014850D01*
X5331399Y19967195D02*
X5331399Y20467575D01*
X5045468Y19967195D02*
X5259917Y20253126D01*
X5045468Y20467575D02*
X5331399Y20181643D01*
%TO.C,R10*%
X11751672Y20157695D02*
X11918465Y20395971D01*
X12037603Y20157695D02*
X12037603Y20658075D01*
X12037603Y20658075D02*
X11846982Y20658075D01*
X11846982Y20658075D02*
X11799327Y20634247D01*
X11799327Y20634247D02*
X11775500Y20610420D01*
X11775500Y20610420D02*
X11751672Y20562764D01*
X11751672Y20562764D02*
X11751672Y20491282D01*
X11751672Y20491282D02*
X11775500Y20443626D01*
X11775500Y20443626D02*
X11799327Y20419799D01*
X11799327Y20419799D02*
X11846982Y20395971D01*
X11846982Y20395971D02*
X12037603Y20395971D01*
X11275120Y20157695D02*
X11561051Y20157695D01*
X11418085Y20157695D02*
X11418085Y20658075D01*
X11418085Y20658075D02*
X11465741Y20586592D01*
X11465741Y20586592D02*
X11513396Y20538937D01*
X11513396Y20538937D02*
X11561051Y20515109D01*
X10965361Y20658075D02*
X10917706Y20658075D01*
X10917706Y20658075D02*
X10870050Y20634247D01*
X10870050Y20634247D02*
X10846223Y20610420D01*
X10846223Y20610420D02*
X10822395Y20562764D01*
X10822395Y20562764D02*
X10798568Y20467454D01*
X10798568Y20467454D02*
X10798568Y20348316D01*
X10798568Y20348316D02*
X10822395Y20253005D01*
X10822395Y20253005D02*
X10846223Y20205350D01*
X10846223Y20205350D02*
X10870050Y20181522D01*
X10870050Y20181522D02*
X10917706Y20157695D01*
X10917706Y20157695D02*
X10965361Y20157695D01*
X10965361Y20157695D02*
X11013016Y20181522D01*
X11013016Y20181522D02*
X11036844Y20205350D01*
X11036844Y20205350D02*
X11060671Y20253005D01*
X11060671Y20253005D02*
X11084499Y20348316D01*
X11084499Y20348316D02*
X11084499Y20467454D01*
X11084499Y20467454D02*
X11060671Y20562764D01*
X11060671Y20562764D02*
X11036844Y20610420D01*
X11036844Y20610420D02*
X11013016Y20634247D01*
X11013016Y20634247D02*
X10965361Y20658075D01*
X11958259Y19959575D02*
X11648500Y19959575D01*
X11648500Y19959575D02*
X11815293Y19768954D01*
X11815293Y19768954D02*
X11743810Y19768954D01*
X11743810Y19768954D02*
X11696155Y19745126D01*
X11696155Y19745126D02*
X11672327Y19721299D01*
X11672327Y19721299D02*
X11648500Y19673643D01*
X11648500Y19673643D02*
X11648500Y19554505D01*
X11648500Y19554505D02*
X11672327Y19506850D01*
X11672327Y19506850D02*
X11696155Y19483022D01*
X11696155Y19483022D02*
X11743810Y19459195D01*
X11743810Y19459195D02*
X11886776Y19459195D01*
X11886776Y19459195D02*
X11934431Y19483022D01*
X11934431Y19483022D02*
X11958259Y19506850D01*
X11481707Y19959575D02*
X11171948Y19959575D01*
X11171948Y19959575D02*
X11338741Y19768954D01*
X11338741Y19768954D02*
X11267258Y19768954D01*
X11267258Y19768954D02*
X11219603Y19745126D01*
X11219603Y19745126D02*
X11195775Y19721299D01*
X11195775Y19721299D02*
X11171948Y19673643D01*
X11171948Y19673643D02*
X11171948Y19554505D01*
X11171948Y19554505D02*
X11195775Y19506850D01*
X11195775Y19506850D02*
X11219603Y19483022D01*
X11219603Y19483022D02*
X11267258Y19459195D01*
X11267258Y19459195D02*
X11410224Y19459195D01*
X11410224Y19459195D02*
X11457879Y19483022D01*
X11457879Y19483022D02*
X11481707Y19506850D01*
X10957499Y19459195D02*
X10957499Y19959575D01*
X10671568Y19459195D02*
X10886017Y19745126D01*
X10671568Y19959575D02*
X10957499Y19673643D01*
%TO.C,R13*%
X37754305Y14799673D02*
X37516029Y14966466D01*
X37754305Y15085604D02*
X37253925Y15085604D01*
X37253925Y15085604D02*
X37253925Y14894983D01*
X37253925Y14894983D02*
X37277753Y14847328D01*
X37277753Y14847328D02*
X37301580Y14823501D01*
X37301580Y14823501D02*
X37349236Y14799673D01*
X37349236Y14799673D02*
X37420718Y14799673D01*
X37420718Y14799673D02*
X37468374Y14823501D01*
X37468374Y14823501D02*
X37492201Y14847328D01*
X37492201Y14847328D02*
X37516029Y14894983D01*
X37516029Y14894983D02*
X37516029Y15085604D01*
X37754305Y14323121D02*
X37754305Y14609052D01*
X37754305Y14466086D02*
X37253925Y14466086D01*
X37253925Y14466086D02*
X37325408Y14513742D01*
X37325408Y14513742D02*
X37373063Y14561397D01*
X37373063Y14561397D02*
X37396891Y14609052D01*
X37253925Y14156328D02*
X37253925Y13846569D01*
X37253925Y13846569D02*
X37444546Y14013362D01*
X37444546Y14013362D02*
X37444546Y13941879D01*
X37444546Y13941879D02*
X37468374Y13894224D01*
X37468374Y13894224D02*
X37492201Y13870396D01*
X37492201Y13870396D02*
X37539857Y13846569D01*
X37539857Y13846569D02*
X37658995Y13846569D01*
X37658995Y13846569D02*
X37706650Y13870396D01*
X37706650Y13870396D02*
X37730478Y13894224D01*
X37730478Y13894224D02*
X37754305Y13941879D01*
X37754305Y13941879D02*
X37754305Y14084845D01*
X37754305Y14084845D02*
X37730478Y14132500D01*
X37730478Y14132500D02*
X37706650Y14156328D01*
X38452805Y14934777D02*
X38452805Y15220708D01*
X38452805Y15077742D02*
X37952425Y15077742D01*
X37952425Y15077742D02*
X38023908Y15125398D01*
X38023908Y15125398D02*
X38071563Y15173053D01*
X38071563Y15173053D02*
X38095391Y15220708D01*
X38166874Y14648846D02*
X38143046Y14696501D01*
X38143046Y14696501D02*
X38119218Y14720328D01*
X38119218Y14720328D02*
X38071563Y14744156D01*
X38071563Y14744156D02*
X38047736Y14744156D01*
X38047736Y14744156D02*
X38000080Y14720328D01*
X38000080Y14720328D02*
X37976253Y14696501D01*
X37976253Y14696501D02*
X37952425Y14648846D01*
X37952425Y14648846D02*
X37952425Y14553535D01*
X37952425Y14553535D02*
X37976253Y14505880D01*
X37976253Y14505880D02*
X38000080Y14482052D01*
X38000080Y14482052D02*
X38047736Y14458225D01*
X38047736Y14458225D02*
X38071563Y14458225D01*
X38071563Y14458225D02*
X38119218Y14482052D01*
X38119218Y14482052D02*
X38143046Y14505880D01*
X38143046Y14505880D02*
X38166874Y14553535D01*
X38166874Y14553535D02*
X38166874Y14648846D01*
X38166874Y14648846D02*
X38190701Y14696501D01*
X38190701Y14696501D02*
X38214529Y14720328D01*
X38214529Y14720328D02*
X38262184Y14744156D01*
X38262184Y14744156D02*
X38357495Y14744156D01*
X38357495Y14744156D02*
X38405150Y14720328D01*
X38405150Y14720328D02*
X38428978Y14696501D01*
X38428978Y14696501D02*
X38452805Y14648846D01*
X38452805Y14648846D02*
X38452805Y14553535D01*
X38452805Y14553535D02*
X38428978Y14505880D01*
X38428978Y14505880D02*
X38405150Y14482052D01*
X38405150Y14482052D02*
X38357495Y14458225D01*
X38357495Y14458225D02*
X38262184Y14458225D01*
X38262184Y14458225D02*
X38214529Y14482052D01*
X38214529Y14482052D02*
X38190701Y14505880D01*
X38190701Y14505880D02*
X38166874Y14553535D01*
X37952425Y14148466D02*
X37952425Y14100811D01*
X37952425Y14100811D02*
X37976253Y14053155D01*
X37976253Y14053155D02*
X38000080Y14029328D01*
X38000080Y14029328D02*
X38047736Y14005500D01*
X38047736Y14005500D02*
X38143046Y13981673D01*
X38143046Y13981673D02*
X38262184Y13981673D01*
X38262184Y13981673D02*
X38357495Y14005500D01*
X38357495Y14005500D02*
X38405150Y14029328D01*
X38405150Y14029328D02*
X38428978Y14053155D01*
X38428978Y14053155D02*
X38452805Y14100811D01*
X38452805Y14100811D02*
X38452805Y14148466D01*
X38452805Y14148466D02*
X38428978Y14196121D01*
X38428978Y14196121D02*
X38405150Y14219949D01*
X38405150Y14219949D02*
X38357495Y14243776D01*
X38357495Y14243776D02*
X38262184Y14267604D01*
X38262184Y14267604D02*
X38143046Y14267604D01*
X38143046Y14267604D02*
X38047736Y14243776D01*
X38047736Y14243776D02*
X38000080Y14219949D01*
X38000080Y14219949D02*
X37976253Y14196121D01*
X37976253Y14196121D02*
X37952425Y14148466D01*
X38452805Y13767224D02*
X37952425Y13767224D01*
X38452805Y13481293D02*
X38166874Y13695742D01*
X37952425Y13481293D02*
X38238357Y13767224D01*
%TO.C,R14*%
X35214305Y14799673D02*
X34976029Y14966466D01*
X35214305Y15085604D02*
X34713925Y15085604D01*
X34713925Y15085604D02*
X34713925Y14894983D01*
X34713925Y14894983D02*
X34737753Y14847328D01*
X34737753Y14847328D02*
X34761580Y14823501D01*
X34761580Y14823501D02*
X34809236Y14799673D01*
X34809236Y14799673D02*
X34880718Y14799673D01*
X34880718Y14799673D02*
X34928374Y14823501D01*
X34928374Y14823501D02*
X34952201Y14847328D01*
X34952201Y14847328D02*
X34976029Y14894983D01*
X34976029Y14894983D02*
X34976029Y15085604D01*
X35214305Y14323121D02*
X35214305Y14609052D01*
X35214305Y14466086D02*
X34713925Y14466086D01*
X34713925Y14466086D02*
X34785408Y14513742D01*
X34785408Y14513742D02*
X34833063Y14561397D01*
X34833063Y14561397D02*
X34856891Y14609052D01*
X34880718Y13894224D02*
X35214305Y13894224D01*
X34690098Y14013362D02*
X35047512Y14132500D01*
X35047512Y14132500D02*
X35047512Y13822741D01*
X35912805Y14934777D02*
X35912805Y15220708D01*
X35912805Y15077742D02*
X35412425Y15077742D01*
X35412425Y15077742D02*
X35483908Y15125398D01*
X35483908Y15125398D02*
X35531563Y15173053D01*
X35531563Y15173053D02*
X35555391Y15220708D01*
X35626874Y14648846D02*
X35603046Y14696501D01*
X35603046Y14696501D02*
X35579218Y14720328D01*
X35579218Y14720328D02*
X35531563Y14744156D01*
X35531563Y14744156D02*
X35507736Y14744156D01*
X35507736Y14744156D02*
X35460080Y14720328D01*
X35460080Y14720328D02*
X35436253Y14696501D01*
X35436253Y14696501D02*
X35412425Y14648846D01*
X35412425Y14648846D02*
X35412425Y14553535D01*
X35412425Y14553535D02*
X35436253Y14505880D01*
X35436253Y14505880D02*
X35460080Y14482052D01*
X35460080Y14482052D02*
X35507736Y14458225D01*
X35507736Y14458225D02*
X35531563Y14458225D01*
X35531563Y14458225D02*
X35579218Y14482052D01*
X35579218Y14482052D02*
X35603046Y14505880D01*
X35603046Y14505880D02*
X35626874Y14553535D01*
X35626874Y14553535D02*
X35626874Y14648846D01*
X35626874Y14648846D02*
X35650701Y14696501D01*
X35650701Y14696501D02*
X35674529Y14720328D01*
X35674529Y14720328D02*
X35722184Y14744156D01*
X35722184Y14744156D02*
X35817495Y14744156D01*
X35817495Y14744156D02*
X35865150Y14720328D01*
X35865150Y14720328D02*
X35888978Y14696501D01*
X35888978Y14696501D02*
X35912805Y14648846D01*
X35912805Y14648846D02*
X35912805Y14553535D01*
X35912805Y14553535D02*
X35888978Y14505880D01*
X35888978Y14505880D02*
X35865150Y14482052D01*
X35865150Y14482052D02*
X35817495Y14458225D01*
X35817495Y14458225D02*
X35722184Y14458225D01*
X35722184Y14458225D02*
X35674529Y14482052D01*
X35674529Y14482052D02*
X35650701Y14505880D01*
X35650701Y14505880D02*
X35626874Y14553535D01*
X35412425Y14148466D02*
X35412425Y14100811D01*
X35412425Y14100811D02*
X35436253Y14053155D01*
X35436253Y14053155D02*
X35460080Y14029328D01*
X35460080Y14029328D02*
X35507736Y14005500D01*
X35507736Y14005500D02*
X35603046Y13981673D01*
X35603046Y13981673D02*
X35722184Y13981673D01*
X35722184Y13981673D02*
X35817495Y14005500D01*
X35817495Y14005500D02*
X35865150Y14029328D01*
X35865150Y14029328D02*
X35888978Y14053155D01*
X35888978Y14053155D02*
X35912805Y14100811D01*
X35912805Y14100811D02*
X35912805Y14148466D01*
X35912805Y14148466D02*
X35888978Y14196121D01*
X35888978Y14196121D02*
X35865150Y14219949D01*
X35865150Y14219949D02*
X35817495Y14243776D01*
X35817495Y14243776D02*
X35722184Y14267604D01*
X35722184Y14267604D02*
X35603046Y14267604D01*
X35603046Y14267604D02*
X35507736Y14243776D01*
X35507736Y14243776D02*
X35460080Y14219949D01*
X35460080Y14219949D02*
X35436253Y14196121D01*
X35436253Y14196121D02*
X35412425Y14148466D01*
X35912805Y13767224D02*
X35412425Y13767224D01*
X35912805Y13481293D02*
X35626874Y13695742D01*
X35412425Y13481293D02*
X35698357Y13767224D01*
%TO.C,R15*%
X44612305Y14545673D02*
X44374029Y14712466D01*
X44612305Y14831604D02*
X44111925Y14831604D01*
X44111925Y14831604D02*
X44111925Y14640983D01*
X44111925Y14640983D02*
X44135753Y14593328D01*
X44135753Y14593328D02*
X44159580Y14569501D01*
X44159580Y14569501D02*
X44207236Y14545673D01*
X44207236Y14545673D02*
X44278718Y14545673D01*
X44278718Y14545673D02*
X44326374Y14569501D01*
X44326374Y14569501D02*
X44350201Y14593328D01*
X44350201Y14593328D02*
X44374029Y14640983D01*
X44374029Y14640983D02*
X44374029Y14831604D01*
X44612305Y14069121D02*
X44612305Y14355052D01*
X44612305Y14212086D02*
X44111925Y14212086D01*
X44111925Y14212086D02*
X44183408Y14259742D01*
X44183408Y14259742D02*
X44231063Y14307397D01*
X44231063Y14307397D02*
X44254891Y14355052D01*
X44111925Y13616396D02*
X44111925Y13854672D01*
X44111925Y13854672D02*
X44350201Y13878500D01*
X44350201Y13878500D02*
X44326374Y13854672D01*
X44326374Y13854672D02*
X44302546Y13807017D01*
X44302546Y13807017D02*
X44302546Y13687879D01*
X44302546Y13687879D02*
X44326374Y13640224D01*
X44326374Y13640224D02*
X44350201Y13616396D01*
X44350201Y13616396D02*
X44397857Y13592569D01*
X44397857Y13592569D02*
X44516995Y13592569D01*
X44516995Y13592569D02*
X44564650Y13616396D01*
X44564650Y13616396D02*
X44588478Y13640224D01*
X44588478Y13640224D02*
X44612305Y13687879D01*
X44612305Y13687879D02*
X44612305Y13807017D01*
X44612305Y13807017D02*
X44588478Y13854672D01*
X44588478Y13854672D02*
X44564650Y13878500D01*
X45310805Y14680777D02*
X45310805Y14966708D01*
X45310805Y14823742D02*
X44810425Y14823742D01*
X44810425Y14823742D02*
X44881908Y14871398D01*
X44881908Y14871398D02*
X44929563Y14919053D01*
X44929563Y14919053D02*
X44953391Y14966708D01*
X45024874Y14394846D02*
X45001046Y14442501D01*
X45001046Y14442501D02*
X44977218Y14466328D01*
X44977218Y14466328D02*
X44929563Y14490156D01*
X44929563Y14490156D02*
X44905736Y14490156D01*
X44905736Y14490156D02*
X44858080Y14466328D01*
X44858080Y14466328D02*
X44834253Y14442501D01*
X44834253Y14442501D02*
X44810425Y14394846D01*
X44810425Y14394846D02*
X44810425Y14299535D01*
X44810425Y14299535D02*
X44834253Y14251880D01*
X44834253Y14251880D02*
X44858080Y14228052D01*
X44858080Y14228052D02*
X44905736Y14204225D01*
X44905736Y14204225D02*
X44929563Y14204225D01*
X44929563Y14204225D02*
X44977218Y14228052D01*
X44977218Y14228052D02*
X45001046Y14251880D01*
X45001046Y14251880D02*
X45024874Y14299535D01*
X45024874Y14299535D02*
X45024874Y14394846D01*
X45024874Y14394846D02*
X45048701Y14442501D01*
X45048701Y14442501D02*
X45072529Y14466328D01*
X45072529Y14466328D02*
X45120184Y14490156D01*
X45120184Y14490156D02*
X45215495Y14490156D01*
X45215495Y14490156D02*
X45263150Y14466328D01*
X45263150Y14466328D02*
X45286978Y14442501D01*
X45286978Y14442501D02*
X45310805Y14394846D01*
X45310805Y14394846D02*
X45310805Y14299535D01*
X45310805Y14299535D02*
X45286978Y14251880D01*
X45286978Y14251880D02*
X45263150Y14228052D01*
X45263150Y14228052D02*
X45215495Y14204225D01*
X45215495Y14204225D02*
X45120184Y14204225D01*
X45120184Y14204225D02*
X45072529Y14228052D01*
X45072529Y14228052D02*
X45048701Y14251880D01*
X45048701Y14251880D02*
X45024874Y14299535D01*
X44810425Y13894466D02*
X44810425Y13846811D01*
X44810425Y13846811D02*
X44834253Y13799155D01*
X44834253Y13799155D02*
X44858080Y13775328D01*
X44858080Y13775328D02*
X44905736Y13751500D01*
X44905736Y13751500D02*
X45001046Y13727673D01*
X45001046Y13727673D02*
X45120184Y13727673D01*
X45120184Y13727673D02*
X45215495Y13751500D01*
X45215495Y13751500D02*
X45263150Y13775328D01*
X45263150Y13775328D02*
X45286978Y13799155D01*
X45286978Y13799155D02*
X45310805Y13846811D01*
X45310805Y13846811D02*
X45310805Y13894466D01*
X45310805Y13894466D02*
X45286978Y13942121D01*
X45286978Y13942121D02*
X45263150Y13965949D01*
X45263150Y13965949D02*
X45215495Y13989776D01*
X45215495Y13989776D02*
X45120184Y14013604D01*
X45120184Y14013604D02*
X45001046Y14013604D01*
X45001046Y14013604D02*
X44905736Y13989776D01*
X44905736Y13989776D02*
X44858080Y13965949D01*
X44858080Y13965949D02*
X44834253Y13942121D01*
X44834253Y13942121D02*
X44810425Y13894466D01*
X45310805Y13513224D02*
X44810425Y13513224D01*
X45310805Y13227293D02*
X45024874Y13441742D01*
X44810425Y13227293D02*
X45096357Y13513224D01*
%TO.C,R16*%
X46898305Y14545673D02*
X46660029Y14712466D01*
X46898305Y14831604D02*
X46397925Y14831604D01*
X46397925Y14831604D02*
X46397925Y14640983D01*
X46397925Y14640983D02*
X46421753Y14593328D01*
X46421753Y14593328D02*
X46445580Y14569501D01*
X46445580Y14569501D02*
X46493236Y14545673D01*
X46493236Y14545673D02*
X46564718Y14545673D01*
X46564718Y14545673D02*
X46612374Y14569501D01*
X46612374Y14569501D02*
X46636201Y14593328D01*
X46636201Y14593328D02*
X46660029Y14640983D01*
X46660029Y14640983D02*
X46660029Y14831604D01*
X46898305Y14069121D02*
X46898305Y14355052D01*
X46898305Y14212086D02*
X46397925Y14212086D01*
X46397925Y14212086D02*
X46469408Y14259742D01*
X46469408Y14259742D02*
X46517063Y14307397D01*
X46517063Y14307397D02*
X46540891Y14355052D01*
X46397925Y13640224D02*
X46397925Y13735534D01*
X46397925Y13735534D02*
X46421753Y13783190D01*
X46421753Y13783190D02*
X46445580Y13807017D01*
X46445580Y13807017D02*
X46517063Y13854672D01*
X46517063Y13854672D02*
X46612374Y13878500D01*
X46612374Y13878500D02*
X46802995Y13878500D01*
X46802995Y13878500D02*
X46850650Y13854672D01*
X46850650Y13854672D02*
X46874478Y13830845D01*
X46874478Y13830845D02*
X46898305Y13783190D01*
X46898305Y13783190D02*
X46898305Y13687879D01*
X46898305Y13687879D02*
X46874478Y13640224D01*
X46874478Y13640224D02*
X46850650Y13616396D01*
X46850650Y13616396D02*
X46802995Y13592569D01*
X46802995Y13592569D02*
X46683857Y13592569D01*
X46683857Y13592569D02*
X46636201Y13616396D01*
X46636201Y13616396D02*
X46612374Y13640224D01*
X46612374Y13640224D02*
X46588546Y13687879D01*
X46588546Y13687879D02*
X46588546Y13783190D01*
X46588546Y13783190D02*
X46612374Y13830845D01*
X46612374Y13830845D02*
X46636201Y13854672D01*
X46636201Y13854672D02*
X46683857Y13878500D01*
X47596805Y14680777D02*
X47596805Y14966708D01*
X47596805Y14823742D02*
X47096425Y14823742D01*
X47096425Y14823742D02*
X47167908Y14871398D01*
X47167908Y14871398D02*
X47215563Y14919053D01*
X47215563Y14919053D02*
X47239391Y14966708D01*
X47310874Y14394846D02*
X47287046Y14442501D01*
X47287046Y14442501D02*
X47263218Y14466328D01*
X47263218Y14466328D02*
X47215563Y14490156D01*
X47215563Y14490156D02*
X47191736Y14490156D01*
X47191736Y14490156D02*
X47144080Y14466328D01*
X47144080Y14466328D02*
X47120253Y14442501D01*
X47120253Y14442501D02*
X47096425Y14394846D01*
X47096425Y14394846D02*
X47096425Y14299535D01*
X47096425Y14299535D02*
X47120253Y14251880D01*
X47120253Y14251880D02*
X47144080Y14228052D01*
X47144080Y14228052D02*
X47191736Y14204225D01*
X47191736Y14204225D02*
X47215563Y14204225D01*
X47215563Y14204225D02*
X47263218Y14228052D01*
X47263218Y14228052D02*
X47287046Y14251880D01*
X47287046Y14251880D02*
X47310874Y14299535D01*
X47310874Y14299535D02*
X47310874Y14394846D01*
X47310874Y14394846D02*
X47334701Y14442501D01*
X47334701Y14442501D02*
X47358529Y14466328D01*
X47358529Y14466328D02*
X47406184Y14490156D01*
X47406184Y14490156D02*
X47501495Y14490156D01*
X47501495Y14490156D02*
X47549150Y14466328D01*
X47549150Y14466328D02*
X47572978Y14442501D01*
X47572978Y14442501D02*
X47596805Y14394846D01*
X47596805Y14394846D02*
X47596805Y14299535D01*
X47596805Y14299535D02*
X47572978Y14251880D01*
X47572978Y14251880D02*
X47549150Y14228052D01*
X47549150Y14228052D02*
X47501495Y14204225D01*
X47501495Y14204225D02*
X47406184Y14204225D01*
X47406184Y14204225D02*
X47358529Y14228052D01*
X47358529Y14228052D02*
X47334701Y14251880D01*
X47334701Y14251880D02*
X47310874Y14299535D01*
X47096425Y13894466D02*
X47096425Y13846811D01*
X47096425Y13846811D02*
X47120253Y13799155D01*
X47120253Y13799155D02*
X47144080Y13775328D01*
X47144080Y13775328D02*
X47191736Y13751500D01*
X47191736Y13751500D02*
X47287046Y13727673D01*
X47287046Y13727673D02*
X47406184Y13727673D01*
X47406184Y13727673D02*
X47501495Y13751500D01*
X47501495Y13751500D02*
X47549150Y13775328D01*
X47549150Y13775328D02*
X47572978Y13799155D01*
X47572978Y13799155D02*
X47596805Y13846811D01*
X47596805Y13846811D02*
X47596805Y13894466D01*
X47596805Y13894466D02*
X47572978Y13942121D01*
X47572978Y13942121D02*
X47549150Y13965949D01*
X47549150Y13965949D02*
X47501495Y13989776D01*
X47501495Y13989776D02*
X47406184Y14013604D01*
X47406184Y14013604D02*
X47287046Y14013604D01*
X47287046Y14013604D02*
X47191736Y13989776D01*
X47191736Y13989776D02*
X47144080Y13965949D01*
X47144080Y13965949D02*
X47120253Y13942121D01*
X47120253Y13942121D02*
X47096425Y13894466D01*
X47596805Y13513224D02*
X47096425Y13513224D01*
X47596805Y13227293D02*
X47310874Y13441742D01*
X47096425Y13227293D02*
X47382357Y13513224D01*
%TO.C,R17*%
X33595672Y19776695D02*
X33762465Y20014971D01*
X33881603Y19776695D02*
X33881603Y20277075D01*
X33881603Y20277075D02*
X33690982Y20277075D01*
X33690982Y20277075D02*
X33643327Y20253247D01*
X33643327Y20253247D02*
X33619500Y20229420D01*
X33619500Y20229420D02*
X33595672Y20181764D01*
X33595672Y20181764D02*
X33595672Y20110282D01*
X33595672Y20110282D02*
X33619500Y20062626D01*
X33619500Y20062626D02*
X33643327Y20038799D01*
X33643327Y20038799D02*
X33690982Y20014971D01*
X33690982Y20014971D02*
X33881603Y20014971D01*
X33119120Y19776695D02*
X33405051Y19776695D01*
X33262085Y19776695D02*
X33262085Y20277075D01*
X33262085Y20277075D02*
X33309741Y20205592D01*
X33309741Y20205592D02*
X33357396Y20157937D01*
X33357396Y20157937D02*
X33405051Y20134109D01*
X32952327Y20277075D02*
X32618740Y20277075D01*
X32618740Y20277075D02*
X32833189Y19776695D01*
X34056259Y20975575D02*
X33746500Y20975575D01*
X33746500Y20975575D02*
X33913293Y20784954D01*
X33913293Y20784954D02*
X33841810Y20784954D01*
X33841810Y20784954D02*
X33794155Y20761126D01*
X33794155Y20761126D02*
X33770327Y20737299D01*
X33770327Y20737299D02*
X33746500Y20689643D01*
X33746500Y20689643D02*
X33746500Y20570505D01*
X33746500Y20570505D02*
X33770327Y20522850D01*
X33770327Y20522850D02*
X33794155Y20499022D01*
X33794155Y20499022D02*
X33841810Y20475195D01*
X33841810Y20475195D02*
X33984776Y20475195D01*
X33984776Y20475195D02*
X34032431Y20499022D01*
X34032431Y20499022D02*
X34056259Y20522850D01*
X33579707Y20975575D02*
X33269948Y20975575D01*
X33269948Y20975575D02*
X33436741Y20784954D01*
X33436741Y20784954D02*
X33365258Y20784954D01*
X33365258Y20784954D02*
X33317603Y20761126D01*
X33317603Y20761126D02*
X33293775Y20737299D01*
X33293775Y20737299D02*
X33269948Y20689643D01*
X33269948Y20689643D02*
X33269948Y20570505D01*
X33269948Y20570505D02*
X33293775Y20522850D01*
X33293775Y20522850D02*
X33317603Y20499022D01*
X33317603Y20499022D02*
X33365258Y20475195D01*
X33365258Y20475195D02*
X33508224Y20475195D01*
X33508224Y20475195D02*
X33555879Y20499022D01*
X33555879Y20499022D02*
X33579707Y20522850D01*
X33055499Y20475195D02*
X33055499Y20975575D01*
X32769568Y20475195D02*
X32984017Y20761126D01*
X32769568Y20975575D02*
X33055499Y20689643D01*
%TO.C,R18*%
X48327672Y21681695D02*
X48494465Y21919971D01*
X48613603Y21681695D02*
X48613603Y22182075D01*
X48613603Y22182075D02*
X48422982Y22182075D01*
X48422982Y22182075D02*
X48375327Y22158247D01*
X48375327Y22158247D02*
X48351500Y22134420D01*
X48351500Y22134420D02*
X48327672Y22086764D01*
X48327672Y22086764D02*
X48327672Y22015282D01*
X48327672Y22015282D02*
X48351500Y21967626D01*
X48351500Y21967626D02*
X48375327Y21943799D01*
X48375327Y21943799D02*
X48422982Y21919971D01*
X48422982Y21919971D02*
X48613603Y21919971D01*
X47851120Y21681695D02*
X48137051Y21681695D01*
X47994085Y21681695D02*
X47994085Y22182075D01*
X47994085Y22182075D02*
X48041741Y22110592D01*
X48041741Y22110592D02*
X48089396Y22062937D01*
X48089396Y22062937D02*
X48137051Y22039109D01*
X47565189Y21967626D02*
X47612844Y21991454D01*
X47612844Y21991454D02*
X47636671Y22015282D01*
X47636671Y22015282D02*
X47660499Y22062937D01*
X47660499Y22062937D02*
X47660499Y22086764D01*
X47660499Y22086764D02*
X47636671Y22134420D01*
X47636671Y22134420D02*
X47612844Y22158247D01*
X47612844Y22158247D02*
X47565189Y22182075D01*
X47565189Y22182075D02*
X47469878Y22182075D01*
X47469878Y22182075D02*
X47422223Y22158247D01*
X47422223Y22158247D02*
X47398395Y22134420D01*
X47398395Y22134420D02*
X47374568Y22086764D01*
X47374568Y22086764D02*
X47374568Y22062937D01*
X47374568Y22062937D02*
X47398395Y22015282D01*
X47398395Y22015282D02*
X47422223Y21991454D01*
X47422223Y21991454D02*
X47469878Y21967626D01*
X47469878Y21967626D02*
X47565189Y21967626D01*
X47565189Y21967626D02*
X47612844Y21943799D01*
X47612844Y21943799D02*
X47636671Y21919971D01*
X47636671Y21919971D02*
X47660499Y21872316D01*
X47660499Y21872316D02*
X47660499Y21777005D01*
X47660499Y21777005D02*
X47636671Y21729350D01*
X47636671Y21729350D02*
X47612844Y21705522D01*
X47612844Y21705522D02*
X47565189Y21681695D01*
X47565189Y21681695D02*
X47469878Y21681695D01*
X47469878Y21681695D02*
X47422223Y21705522D01*
X47422223Y21705522D02*
X47398395Y21729350D01*
X47398395Y21729350D02*
X47374568Y21777005D01*
X47374568Y21777005D02*
X47374568Y21872316D01*
X47374568Y21872316D02*
X47398395Y21919971D01*
X47398395Y21919971D02*
X47422223Y21943799D01*
X47422223Y21943799D02*
X47469878Y21967626D01*
X48534259Y21483575D02*
X48224500Y21483575D01*
X48224500Y21483575D02*
X48391293Y21292954D01*
X48391293Y21292954D02*
X48319810Y21292954D01*
X48319810Y21292954D02*
X48272155Y21269126D01*
X48272155Y21269126D02*
X48248327Y21245299D01*
X48248327Y21245299D02*
X48224500Y21197643D01*
X48224500Y21197643D02*
X48224500Y21078505D01*
X48224500Y21078505D02*
X48248327Y21030850D01*
X48248327Y21030850D02*
X48272155Y21007022D01*
X48272155Y21007022D02*
X48319810Y20983195D01*
X48319810Y20983195D02*
X48462776Y20983195D01*
X48462776Y20983195D02*
X48510431Y21007022D01*
X48510431Y21007022D02*
X48534259Y21030850D01*
X48057707Y21483575D02*
X47747948Y21483575D01*
X47747948Y21483575D02*
X47914741Y21292954D01*
X47914741Y21292954D02*
X47843258Y21292954D01*
X47843258Y21292954D02*
X47795603Y21269126D01*
X47795603Y21269126D02*
X47771775Y21245299D01*
X47771775Y21245299D02*
X47747948Y21197643D01*
X47747948Y21197643D02*
X47747948Y21078505D01*
X47747948Y21078505D02*
X47771775Y21030850D01*
X47771775Y21030850D02*
X47795603Y21007022D01*
X47795603Y21007022D02*
X47843258Y20983195D01*
X47843258Y20983195D02*
X47986224Y20983195D01*
X47986224Y20983195D02*
X48033879Y21007022D01*
X48033879Y21007022D02*
X48057707Y21030850D01*
X47533499Y20983195D02*
X47533499Y21483575D01*
X47247568Y20983195D02*
X47462017Y21269126D01*
X47247568Y21483575D02*
X47533499Y21197643D01*
%TO.C,R19*%
X37113572Y19217895D02*
X37280365Y19456171D01*
X37399503Y19217895D02*
X37399503Y19718275D01*
X37399503Y19718275D02*
X37208882Y19718275D01*
X37208882Y19718275D02*
X37161227Y19694447D01*
X37161227Y19694447D02*
X37137400Y19670620D01*
X37137400Y19670620D02*
X37113572Y19622964D01*
X37113572Y19622964D02*
X37113572Y19551482D01*
X37113572Y19551482D02*
X37137400Y19503826D01*
X37137400Y19503826D02*
X37161227Y19479999D01*
X37161227Y19479999D02*
X37208882Y19456171D01*
X37208882Y19456171D02*
X37399503Y19456171D01*
X36637020Y19217895D02*
X36922951Y19217895D01*
X36779985Y19217895D02*
X36779985Y19718275D01*
X36779985Y19718275D02*
X36827641Y19646792D01*
X36827641Y19646792D02*
X36875296Y19599137D01*
X36875296Y19599137D02*
X36922951Y19575309D01*
X36398744Y19217895D02*
X36303433Y19217895D01*
X36303433Y19217895D02*
X36255778Y19241722D01*
X36255778Y19241722D02*
X36231950Y19265550D01*
X36231950Y19265550D02*
X36184295Y19337033D01*
X36184295Y19337033D02*
X36160468Y19432343D01*
X36160468Y19432343D02*
X36160468Y19622964D01*
X36160468Y19622964D02*
X36184295Y19670620D01*
X36184295Y19670620D02*
X36208123Y19694447D01*
X36208123Y19694447D02*
X36255778Y19718275D01*
X36255778Y19718275D02*
X36351089Y19718275D01*
X36351089Y19718275D02*
X36398744Y19694447D01*
X36398744Y19694447D02*
X36422571Y19670620D01*
X36422571Y19670620D02*
X36446399Y19622964D01*
X36446399Y19622964D02*
X36446399Y19503826D01*
X36446399Y19503826D02*
X36422571Y19456171D01*
X36422571Y19456171D02*
X36398744Y19432343D01*
X36398744Y19432343D02*
X36351089Y19408516D01*
X36351089Y19408516D02*
X36255778Y19408516D01*
X36255778Y19408516D02*
X36208123Y19432343D01*
X36208123Y19432343D02*
X36184295Y19456171D01*
X36184295Y19456171D02*
X36160468Y19503826D01*
X37574159Y20416775D02*
X37264400Y20416775D01*
X37264400Y20416775D02*
X37431193Y20226154D01*
X37431193Y20226154D02*
X37359710Y20226154D01*
X37359710Y20226154D02*
X37312055Y20202326D01*
X37312055Y20202326D02*
X37288227Y20178499D01*
X37288227Y20178499D02*
X37264400Y20130843D01*
X37264400Y20130843D02*
X37264400Y20011705D01*
X37264400Y20011705D02*
X37288227Y19964050D01*
X37288227Y19964050D02*
X37312055Y19940222D01*
X37312055Y19940222D02*
X37359710Y19916395D01*
X37359710Y19916395D02*
X37502676Y19916395D01*
X37502676Y19916395D02*
X37550331Y19940222D01*
X37550331Y19940222D02*
X37574159Y19964050D01*
X37097607Y20416775D02*
X36787848Y20416775D01*
X36787848Y20416775D02*
X36954641Y20226154D01*
X36954641Y20226154D02*
X36883158Y20226154D01*
X36883158Y20226154D02*
X36835503Y20202326D01*
X36835503Y20202326D02*
X36811675Y20178499D01*
X36811675Y20178499D02*
X36787848Y20130843D01*
X36787848Y20130843D02*
X36787848Y20011705D01*
X36787848Y20011705D02*
X36811675Y19964050D01*
X36811675Y19964050D02*
X36835503Y19940222D01*
X36835503Y19940222D02*
X36883158Y19916395D01*
X36883158Y19916395D02*
X37026124Y19916395D01*
X37026124Y19916395D02*
X37073779Y19940222D01*
X37073779Y19940222D02*
X37097607Y19964050D01*
X36573399Y19916395D02*
X36573399Y20416775D01*
X36287468Y19916395D02*
X36501917Y20202326D01*
X36287468Y20416775D02*
X36573399Y20130843D01*
%TO.C,R20*%
X44263672Y17871695D02*
X44430465Y18109971D01*
X44549603Y17871695D02*
X44549603Y18372075D01*
X44549603Y18372075D02*
X44358982Y18372075D01*
X44358982Y18372075D02*
X44311327Y18348247D01*
X44311327Y18348247D02*
X44287500Y18324420D01*
X44287500Y18324420D02*
X44263672Y18276764D01*
X44263672Y18276764D02*
X44263672Y18205282D01*
X44263672Y18205282D02*
X44287500Y18157626D01*
X44287500Y18157626D02*
X44311327Y18133799D01*
X44311327Y18133799D02*
X44358982Y18109971D01*
X44358982Y18109971D02*
X44549603Y18109971D01*
X44073051Y18324420D02*
X44049223Y18348247D01*
X44049223Y18348247D02*
X44001568Y18372075D01*
X44001568Y18372075D02*
X43882430Y18372075D01*
X43882430Y18372075D02*
X43834775Y18348247D01*
X43834775Y18348247D02*
X43810947Y18324420D01*
X43810947Y18324420D02*
X43787120Y18276764D01*
X43787120Y18276764D02*
X43787120Y18229109D01*
X43787120Y18229109D02*
X43810947Y18157626D01*
X43810947Y18157626D02*
X44096879Y17871695D01*
X44096879Y17871695D02*
X43787120Y17871695D01*
X43477361Y18372075D02*
X43429706Y18372075D01*
X43429706Y18372075D02*
X43382050Y18348247D01*
X43382050Y18348247D02*
X43358223Y18324420D01*
X43358223Y18324420D02*
X43334395Y18276764D01*
X43334395Y18276764D02*
X43310568Y18181454D01*
X43310568Y18181454D02*
X43310568Y18062316D01*
X43310568Y18062316D02*
X43334395Y17967005D01*
X43334395Y17967005D02*
X43358223Y17919350D01*
X43358223Y17919350D02*
X43382050Y17895522D01*
X43382050Y17895522D02*
X43429706Y17871695D01*
X43429706Y17871695D02*
X43477361Y17871695D01*
X43477361Y17871695D02*
X43525016Y17895522D01*
X43525016Y17895522D02*
X43548844Y17919350D01*
X43548844Y17919350D02*
X43572671Y17967005D01*
X43572671Y17967005D02*
X43596499Y18062316D01*
X43596499Y18062316D02*
X43596499Y18181454D01*
X43596499Y18181454D02*
X43572671Y18276764D01*
X43572671Y18276764D02*
X43548844Y18324420D01*
X43548844Y18324420D02*
X43525016Y18348247D01*
X43525016Y18348247D02*
X43477361Y18372075D01*
X44470259Y17673575D02*
X44160500Y17673575D01*
X44160500Y17673575D02*
X44327293Y17482954D01*
X44327293Y17482954D02*
X44255810Y17482954D01*
X44255810Y17482954D02*
X44208155Y17459126D01*
X44208155Y17459126D02*
X44184327Y17435299D01*
X44184327Y17435299D02*
X44160500Y17387643D01*
X44160500Y17387643D02*
X44160500Y17268505D01*
X44160500Y17268505D02*
X44184327Y17220850D01*
X44184327Y17220850D02*
X44208155Y17197022D01*
X44208155Y17197022D02*
X44255810Y17173195D01*
X44255810Y17173195D02*
X44398776Y17173195D01*
X44398776Y17173195D02*
X44446431Y17197022D01*
X44446431Y17197022D02*
X44470259Y17220850D01*
X43993707Y17673575D02*
X43683948Y17673575D01*
X43683948Y17673575D02*
X43850741Y17482954D01*
X43850741Y17482954D02*
X43779258Y17482954D01*
X43779258Y17482954D02*
X43731603Y17459126D01*
X43731603Y17459126D02*
X43707775Y17435299D01*
X43707775Y17435299D02*
X43683948Y17387643D01*
X43683948Y17387643D02*
X43683948Y17268505D01*
X43683948Y17268505D02*
X43707775Y17220850D01*
X43707775Y17220850D02*
X43731603Y17197022D01*
X43731603Y17197022D02*
X43779258Y17173195D01*
X43779258Y17173195D02*
X43922224Y17173195D01*
X43922224Y17173195D02*
X43969879Y17197022D01*
X43969879Y17197022D02*
X43993707Y17220850D01*
X43469499Y17173195D02*
X43469499Y17673575D01*
X43183568Y17173195D02*
X43398017Y17459126D01*
X43183568Y17673575D02*
X43469499Y17387643D01*
%TO.C,R21*%
X43977305Y31055673D02*
X43739029Y31222466D01*
X43977305Y31341604D02*
X43476925Y31341604D01*
X43476925Y31341604D02*
X43476925Y31150983D01*
X43476925Y31150983D02*
X43500753Y31103328D01*
X43500753Y31103328D02*
X43524580Y31079501D01*
X43524580Y31079501D02*
X43572236Y31055673D01*
X43572236Y31055673D02*
X43643718Y31055673D01*
X43643718Y31055673D02*
X43691374Y31079501D01*
X43691374Y31079501D02*
X43715201Y31103328D01*
X43715201Y31103328D02*
X43739029Y31150983D01*
X43739029Y31150983D02*
X43739029Y31341604D01*
X43524580Y30865052D02*
X43500753Y30841224D01*
X43500753Y30841224D02*
X43476925Y30793569D01*
X43476925Y30793569D02*
X43476925Y30674431D01*
X43476925Y30674431D02*
X43500753Y30626776D01*
X43500753Y30626776D02*
X43524580Y30602948D01*
X43524580Y30602948D02*
X43572236Y30579121D01*
X43572236Y30579121D02*
X43619891Y30579121D01*
X43619891Y30579121D02*
X43691374Y30602948D01*
X43691374Y30602948D02*
X43977305Y30888880D01*
X43977305Y30888880D02*
X43977305Y30579121D01*
X43977305Y30102569D02*
X43977305Y30388500D01*
X43977305Y30245534D02*
X43476925Y30245534D01*
X43476925Y30245534D02*
X43548408Y30293190D01*
X43548408Y30293190D02*
X43596063Y30340845D01*
X43596063Y30340845D02*
X43619891Y30388500D01*
X43278805Y31206501D02*
X43278805Y31492432D01*
X43278805Y31349466D02*
X42778425Y31349466D01*
X42778425Y31349466D02*
X42849908Y31397122D01*
X42849908Y31397122D02*
X42897563Y31444777D01*
X42897563Y31444777D02*
X42921391Y31492432D01*
X42778425Y30896742D02*
X42778425Y30849087D01*
X42778425Y30849087D02*
X42802253Y30801431D01*
X42802253Y30801431D02*
X42826080Y30777604D01*
X42826080Y30777604D02*
X42873736Y30753776D01*
X42873736Y30753776D02*
X42969046Y30729949D01*
X42969046Y30729949D02*
X43088184Y30729949D01*
X43088184Y30729949D02*
X43183495Y30753776D01*
X43183495Y30753776D02*
X43231150Y30777604D01*
X43231150Y30777604D02*
X43254978Y30801431D01*
X43254978Y30801431D02*
X43278805Y30849087D01*
X43278805Y30849087D02*
X43278805Y30896742D01*
X43278805Y30896742D02*
X43254978Y30944397D01*
X43254978Y30944397D02*
X43231150Y30968225D01*
X43231150Y30968225D02*
X43183495Y30992052D01*
X43183495Y30992052D02*
X43088184Y31015880D01*
X43088184Y31015880D02*
X42969046Y31015880D01*
X42969046Y31015880D02*
X42873736Y30992052D01*
X42873736Y30992052D02*
X42826080Y30968225D01*
X42826080Y30968225D02*
X42802253Y30944397D01*
X42802253Y30944397D02*
X42778425Y30896742D01*
X43278805Y30515500D02*
X42778425Y30515500D01*
X43278805Y30229569D02*
X42992874Y30444018D01*
X42778425Y30229569D02*
X43064357Y30515500D01*
%TO.C,R22*%
X36001705Y31169973D02*
X35763429Y31336766D01*
X36001705Y31455904D02*
X35501325Y31455904D01*
X35501325Y31455904D02*
X35501325Y31265283D01*
X35501325Y31265283D02*
X35525153Y31217628D01*
X35525153Y31217628D02*
X35548980Y31193801D01*
X35548980Y31193801D02*
X35596636Y31169973D01*
X35596636Y31169973D02*
X35668118Y31169973D01*
X35668118Y31169973D02*
X35715774Y31193801D01*
X35715774Y31193801D02*
X35739601Y31217628D01*
X35739601Y31217628D02*
X35763429Y31265283D01*
X35763429Y31265283D02*
X35763429Y31455904D01*
X35548980Y30979352D02*
X35525153Y30955524D01*
X35525153Y30955524D02*
X35501325Y30907869D01*
X35501325Y30907869D02*
X35501325Y30788731D01*
X35501325Y30788731D02*
X35525153Y30741076D01*
X35525153Y30741076D02*
X35548980Y30717248D01*
X35548980Y30717248D02*
X35596636Y30693421D01*
X35596636Y30693421D02*
X35644291Y30693421D01*
X35644291Y30693421D02*
X35715774Y30717248D01*
X35715774Y30717248D02*
X36001705Y31003180D01*
X36001705Y31003180D02*
X36001705Y30693421D01*
X35548980Y30502800D02*
X35525153Y30478972D01*
X35525153Y30478972D02*
X35501325Y30431317D01*
X35501325Y30431317D02*
X35501325Y30312179D01*
X35501325Y30312179D02*
X35525153Y30264524D01*
X35525153Y30264524D02*
X35548980Y30240696D01*
X35548980Y30240696D02*
X35596636Y30216869D01*
X35596636Y30216869D02*
X35644291Y30216869D01*
X35644291Y30216869D02*
X35715774Y30240696D01*
X35715774Y30240696D02*
X36001705Y30526628D01*
X36001705Y30526628D02*
X36001705Y30216869D01*
X35303205Y31320801D02*
X35303205Y31606732D01*
X35303205Y31463766D02*
X34802825Y31463766D01*
X34802825Y31463766D02*
X34874308Y31511422D01*
X34874308Y31511422D02*
X34921963Y31559077D01*
X34921963Y31559077D02*
X34945791Y31606732D01*
X34802825Y31011042D02*
X34802825Y30963387D01*
X34802825Y30963387D02*
X34826653Y30915731D01*
X34826653Y30915731D02*
X34850480Y30891904D01*
X34850480Y30891904D02*
X34898136Y30868076D01*
X34898136Y30868076D02*
X34993446Y30844249D01*
X34993446Y30844249D02*
X35112584Y30844249D01*
X35112584Y30844249D02*
X35207895Y30868076D01*
X35207895Y30868076D02*
X35255550Y30891904D01*
X35255550Y30891904D02*
X35279378Y30915731D01*
X35279378Y30915731D02*
X35303205Y30963387D01*
X35303205Y30963387D02*
X35303205Y31011042D01*
X35303205Y31011042D02*
X35279378Y31058697D01*
X35279378Y31058697D02*
X35255550Y31082525D01*
X35255550Y31082525D02*
X35207895Y31106352D01*
X35207895Y31106352D02*
X35112584Y31130180D01*
X35112584Y31130180D02*
X34993446Y31130180D01*
X34993446Y31130180D02*
X34898136Y31106352D01*
X34898136Y31106352D02*
X34850480Y31082525D01*
X34850480Y31082525D02*
X34826653Y31058697D01*
X34826653Y31058697D02*
X34802825Y31011042D01*
X35303205Y30629800D02*
X34802825Y30629800D01*
X35303205Y30343869D02*
X35017274Y30558318D01*
X34802825Y30343869D02*
X35088757Y30629800D01*
%TO.C,R23*%
X23943672Y27015695D02*
X24110465Y27253971D01*
X24229603Y27015695D02*
X24229603Y27516075D01*
X24229603Y27516075D02*
X24038982Y27516075D01*
X24038982Y27516075D02*
X23991327Y27492247D01*
X23991327Y27492247D02*
X23967500Y27468420D01*
X23967500Y27468420D02*
X23943672Y27420764D01*
X23943672Y27420764D02*
X23943672Y27349282D01*
X23943672Y27349282D02*
X23967500Y27301626D01*
X23967500Y27301626D02*
X23991327Y27277799D01*
X23991327Y27277799D02*
X24038982Y27253971D01*
X24038982Y27253971D02*
X24229603Y27253971D01*
X23753051Y27468420D02*
X23729223Y27492247D01*
X23729223Y27492247D02*
X23681568Y27516075D01*
X23681568Y27516075D02*
X23562430Y27516075D01*
X23562430Y27516075D02*
X23514775Y27492247D01*
X23514775Y27492247D02*
X23490947Y27468420D01*
X23490947Y27468420D02*
X23467120Y27420764D01*
X23467120Y27420764D02*
X23467120Y27373109D01*
X23467120Y27373109D02*
X23490947Y27301626D01*
X23490947Y27301626D02*
X23776879Y27015695D01*
X23776879Y27015695D02*
X23467120Y27015695D01*
X23300327Y27516075D02*
X22990568Y27516075D01*
X22990568Y27516075D02*
X23157361Y27325454D01*
X23157361Y27325454D02*
X23085878Y27325454D01*
X23085878Y27325454D02*
X23038223Y27301626D01*
X23038223Y27301626D02*
X23014395Y27277799D01*
X23014395Y27277799D02*
X22990568Y27230143D01*
X22990568Y27230143D02*
X22990568Y27111005D01*
X22990568Y27111005D02*
X23014395Y27063350D01*
X23014395Y27063350D02*
X23038223Y27039522D01*
X23038223Y27039522D02*
X23085878Y27015695D01*
X23085878Y27015695D02*
X23228844Y27015695D01*
X23228844Y27015695D02*
X23276499Y27039522D01*
X23276499Y27039522D02*
X23300327Y27063350D01*
X23840500Y26317195D02*
X24126431Y26317195D01*
X23983465Y26317195D02*
X23983465Y26817575D01*
X23983465Y26817575D02*
X24031121Y26746092D01*
X24031121Y26746092D02*
X24078776Y26698437D01*
X24078776Y26698437D02*
X24126431Y26674609D01*
X23530741Y26817575D02*
X23483086Y26817575D01*
X23483086Y26817575D02*
X23435430Y26793747D01*
X23435430Y26793747D02*
X23411603Y26769920D01*
X23411603Y26769920D02*
X23387775Y26722264D01*
X23387775Y26722264D02*
X23363948Y26626954D01*
X23363948Y26626954D02*
X23363948Y26507816D01*
X23363948Y26507816D02*
X23387775Y26412505D01*
X23387775Y26412505D02*
X23411603Y26364850D01*
X23411603Y26364850D02*
X23435430Y26341022D01*
X23435430Y26341022D02*
X23483086Y26317195D01*
X23483086Y26317195D02*
X23530741Y26317195D01*
X23530741Y26317195D02*
X23578396Y26341022D01*
X23578396Y26341022D02*
X23602224Y26364850D01*
X23602224Y26364850D02*
X23626051Y26412505D01*
X23626051Y26412505D02*
X23649879Y26507816D01*
X23649879Y26507816D02*
X23649879Y26626954D01*
X23649879Y26626954D02*
X23626051Y26722264D01*
X23626051Y26722264D02*
X23602224Y26769920D01*
X23602224Y26769920D02*
X23578396Y26793747D01*
X23578396Y26793747D02*
X23530741Y26817575D01*
X23149499Y26317195D02*
X23149499Y26817575D01*
X22863568Y26317195D02*
X23078017Y26603126D01*
X22863568Y26817575D02*
X23149499Y26531643D01*
%TO.C,R24*%
X27499672Y26380695D02*
X27666465Y26618971D01*
X27785603Y26380695D02*
X27785603Y26881075D01*
X27785603Y26881075D02*
X27594982Y26881075D01*
X27594982Y26881075D02*
X27547327Y26857247D01*
X27547327Y26857247D02*
X27523500Y26833420D01*
X27523500Y26833420D02*
X27499672Y26785764D01*
X27499672Y26785764D02*
X27499672Y26714282D01*
X27499672Y26714282D02*
X27523500Y26666626D01*
X27523500Y26666626D02*
X27547327Y26642799D01*
X27547327Y26642799D02*
X27594982Y26618971D01*
X27594982Y26618971D02*
X27785603Y26618971D01*
X27309051Y26833420D02*
X27285223Y26857247D01*
X27285223Y26857247D02*
X27237568Y26881075D01*
X27237568Y26881075D02*
X27118430Y26881075D01*
X27118430Y26881075D02*
X27070775Y26857247D01*
X27070775Y26857247D02*
X27046947Y26833420D01*
X27046947Y26833420D02*
X27023120Y26785764D01*
X27023120Y26785764D02*
X27023120Y26738109D01*
X27023120Y26738109D02*
X27046947Y26666626D01*
X27046947Y26666626D02*
X27332879Y26380695D01*
X27332879Y26380695D02*
X27023120Y26380695D01*
X26594223Y26714282D02*
X26594223Y26380695D01*
X26713361Y26904902D02*
X26832499Y26547488D01*
X26832499Y26547488D02*
X26522740Y26547488D01*
X27650500Y27079195D02*
X27936431Y27079195D01*
X27793465Y27079195D02*
X27793465Y27579575D01*
X27793465Y27579575D02*
X27841121Y27508092D01*
X27841121Y27508092D02*
X27888776Y27460437D01*
X27888776Y27460437D02*
X27936431Y27436609D01*
X27340741Y27579575D02*
X27293086Y27579575D01*
X27293086Y27579575D02*
X27245430Y27555747D01*
X27245430Y27555747D02*
X27221603Y27531920D01*
X27221603Y27531920D02*
X27197775Y27484264D01*
X27197775Y27484264D02*
X27173948Y27388954D01*
X27173948Y27388954D02*
X27173948Y27269816D01*
X27173948Y27269816D02*
X27197775Y27174505D01*
X27197775Y27174505D02*
X27221603Y27126850D01*
X27221603Y27126850D02*
X27245430Y27103022D01*
X27245430Y27103022D02*
X27293086Y27079195D01*
X27293086Y27079195D02*
X27340741Y27079195D01*
X27340741Y27079195D02*
X27388396Y27103022D01*
X27388396Y27103022D02*
X27412224Y27126850D01*
X27412224Y27126850D02*
X27436051Y27174505D01*
X27436051Y27174505D02*
X27459879Y27269816D01*
X27459879Y27269816D02*
X27459879Y27388954D01*
X27459879Y27388954D02*
X27436051Y27484264D01*
X27436051Y27484264D02*
X27412224Y27531920D01*
X27412224Y27531920D02*
X27388396Y27555747D01*
X27388396Y27555747D02*
X27340741Y27579575D01*
X26959499Y27079195D02*
X26959499Y27579575D01*
X26673568Y27079195D02*
X26888017Y27365126D01*
X26673568Y27579575D02*
X26959499Y27293643D01*
D13*
%TO.C,U1*%
X8889904Y24929181D02*
X8889904Y24119658D01*
X8889904Y24119658D02*
X8842285Y24024420D01*
X8842285Y24024420D02*
X8794666Y23976800D01*
X8794666Y23976800D02*
X8699428Y23929181D01*
X8699428Y23929181D02*
X8508952Y23929181D01*
X8508952Y23929181D02*
X8413714Y23976800D01*
X8413714Y23976800D02*
X8366095Y24024420D01*
X8366095Y24024420D02*
X8318476Y24119658D01*
X8318476Y24119658D02*
X8318476Y24929181D01*
X7318476Y23929181D02*
X7889904Y23929181D01*
X7604190Y23929181D02*
X7604190Y24929181D01*
X7604190Y24929181D02*
X7699428Y24786324D01*
X7699428Y24786324D02*
X7794666Y24691086D01*
X7794666Y24691086D02*
X7889904Y24643467D01*
X11889904Y28175181D02*
X11318476Y28175181D01*
X11604190Y27175181D02*
X11604190Y28175181D01*
X10508952Y27175181D02*
X10985142Y27175181D01*
X10985142Y27175181D02*
X10985142Y28175181D01*
X9604190Y27270420D02*
X9651809Y27222800D01*
X9651809Y27222800D02*
X9794666Y27175181D01*
X9794666Y27175181D02*
X9889904Y27175181D01*
X9889904Y27175181D02*
X10032761Y27222800D01*
X10032761Y27222800D02*
X10127999Y27318039D01*
X10127999Y27318039D02*
X10175618Y27413277D01*
X10175618Y27413277D02*
X10223237Y27603753D01*
X10223237Y27603753D02*
X10223237Y27746610D01*
X10223237Y27746610D02*
X10175618Y27937086D01*
X10175618Y27937086D02*
X10127999Y28032324D01*
X10127999Y28032324D02*
X10032761Y28127562D01*
X10032761Y28127562D02*
X9889904Y28175181D01*
X9889904Y28175181D02*
X9794666Y28175181D01*
X9794666Y28175181D02*
X9651809Y28127562D01*
X9651809Y28127562D02*
X9604190Y28079943D01*
X9223237Y28079943D02*
X9175618Y28127562D01*
X9175618Y28127562D02*
X9080380Y28175181D01*
X9080380Y28175181D02*
X8842285Y28175181D01*
X8842285Y28175181D02*
X8747047Y28127562D01*
X8747047Y28127562D02*
X8699428Y28079943D01*
X8699428Y28079943D02*
X8651809Y27984705D01*
X8651809Y27984705D02*
X8651809Y27889467D01*
X8651809Y27889467D02*
X8699428Y27746610D01*
X8699428Y27746610D02*
X9270856Y27175181D01*
X9270856Y27175181D02*
X8651809Y27175181D01*
X8318475Y28175181D02*
X7651809Y28175181D01*
X7651809Y28175181D02*
X8080380Y27175181D01*
X6794666Y27175181D02*
X7270856Y27175181D01*
X7270856Y27175181D02*
X7270856Y28175181D01*
X6508951Y28079943D02*
X6461332Y28127562D01*
X6461332Y28127562D02*
X6366094Y28175181D01*
X6366094Y28175181D02*
X6127999Y28175181D01*
X6127999Y28175181D02*
X6032761Y28127562D01*
X6032761Y28127562D02*
X5985142Y28079943D01*
X5985142Y28079943D02*
X5937523Y27984705D01*
X5937523Y27984705D02*
X5937523Y27889467D01*
X5937523Y27889467D02*
X5985142Y27746610D01*
X5985142Y27746610D02*
X6556570Y27175181D01*
X6556570Y27175181D02*
X5937523Y27175181D01*
X5508951Y27175181D02*
X5508951Y28175181D01*
X5032761Y27175181D02*
X5032761Y28175181D01*
X5032761Y28175181D02*
X4794666Y28175181D01*
X4794666Y28175181D02*
X4651809Y28127562D01*
X4651809Y28127562D02*
X4556571Y28032324D01*
X4556571Y28032324D02*
X4508952Y27937086D01*
X4508952Y27937086D02*
X4461333Y27746610D01*
X4461333Y27746610D02*
X4461333Y27603753D01*
X4461333Y27603753D02*
X4508952Y27413277D01*
X4508952Y27413277D02*
X4556571Y27318039D01*
X4556571Y27318039D02*
X4651809Y27222800D01*
X4651809Y27222800D02*
X4794666Y27175181D01*
X4794666Y27175181D02*
X5032761Y27175181D01*
%TO.C,U2*%
X41147904Y24167181D02*
X41147904Y23357658D01*
X41147904Y23357658D02*
X41100285Y23262420D01*
X41100285Y23262420D02*
X41052666Y23214800D01*
X41052666Y23214800D02*
X40957428Y23167181D01*
X40957428Y23167181D02*
X40766952Y23167181D01*
X40766952Y23167181D02*
X40671714Y23214800D01*
X40671714Y23214800D02*
X40624095Y23262420D01*
X40624095Y23262420D02*
X40576476Y23357658D01*
X40576476Y23357658D02*
X40576476Y24167181D01*
X40147904Y24071943D02*
X40100285Y24119562D01*
X40100285Y24119562D02*
X40005047Y24167181D01*
X40005047Y24167181D02*
X39766952Y24167181D01*
X39766952Y24167181D02*
X39671714Y24119562D01*
X39671714Y24119562D02*
X39624095Y24071943D01*
X39624095Y24071943D02*
X39576476Y23976705D01*
X39576476Y23976705D02*
X39576476Y23881467D01*
X39576476Y23881467D02*
X39624095Y23738610D01*
X39624095Y23738610D02*
X40195523Y23167181D01*
X40195523Y23167181D02*
X39576476Y23167181D01*
X44147904Y27667181D02*
X43576476Y27667181D01*
X43862190Y26667181D02*
X43862190Y27667181D01*
X42766952Y26667181D02*
X43243142Y26667181D01*
X43243142Y26667181D02*
X43243142Y27667181D01*
X41862190Y26762420D02*
X41909809Y26714800D01*
X41909809Y26714800D02*
X42052666Y26667181D01*
X42052666Y26667181D02*
X42147904Y26667181D01*
X42147904Y26667181D02*
X42290761Y26714800D01*
X42290761Y26714800D02*
X42385999Y26810039D01*
X42385999Y26810039D02*
X42433618Y26905277D01*
X42433618Y26905277D02*
X42481237Y27095753D01*
X42481237Y27095753D02*
X42481237Y27238610D01*
X42481237Y27238610D02*
X42433618Y27429086D01*
X42433618Y27429086D02*
X42385999Y27524324D01*
X42385999Y27524324D02*
X42290761Y27619562D01*
X42290761Y27619562D02*
X42147904Y27667181D01*
X42147904Y27667181D02*
X42052666Y27667181D01*
X42052666Y27667181D02*
X41909809Y27619562D01*
X41909809Y27619562D02*
X41862190Y27571943D01*
X41481237Y27571943D02*
X41433618Y27619562D01*
X41433618Y27619562D02*
X41338380Y27667181D01*
X41338380Y27667181D02*
X41100285Y27667181D01*
X41100285Y27667181D02*
X41005047Y27619562D01*
X41005047Y27619562D02*
X40957428Y27571943D01*
X40957428Y27571943D02*
X40909809Y27476705D01*
X40909809Y27476705D02*
X40909809Y27381467D01*
X40909809Y27381467D02*
X40957428Y27238610D01*
X40957428Y27238610D02*
X41528856Y26667181D01*
X41528856Y26667181D02*
X40909809Y26667181D01*
X40576475Y27667181D02*
X39909809Y27667181D01*
X39909809Y27667181D02*
X40338380Y26667181D01*
X39052666Y26667181D02*
X39528856Y26667181D01*
X39528856Y26667181D02*
X39528856Y27667181D01*
X38766951Y27571943D02*
X38719332Y27619562D01*
X38719332Y27619562D02*
X38624094Y27667181D01*
X38624094Y27667181D02*
X38385999Y27667181D01*
X38385999Y27667181D02*
X38290761Y27619562D01*
X38290761Y27619562D02*
X38243142Y27571943D01*
X38243142Y27571943D02*
X38195523Y27476705D01*
X38195523Y27476705D02*
X38195523Y27381467D01*
X38195523Y27381467D02*
X38243142Y27238610D01*
X38243142Y27238610D02*
X38814570Y26667181D01*
X38814570Y26667181D02*
X38195523Y26667181D01*
X37766951Y26667181D02*
X37766951Y27667181D01*
X37290761Y26667181D02*
X37290761Y27667181D01*
X37290761Y27667181D02*
X37052666Y27667181D01*
X37052666Y27667181D02*
X36909809Y27619562D01*
X36909809Y27619562D02*
X36814571Y27524324D01*
X36814571Y27524324D02*
X36766952Y27429086D01*
X36766952Y27429086D02*
X36719333Y27238610D01*
X36719333Y27238610D02*
X36719333Y27095753D01*
X36719333Y27095753D02*
X36766952Y26905277D01*
X36766952Y26905277D02*
X36814571Y26810039D01*
X36814571Y26810039D02*
X36909809Y26714800D01*
X36909809Y26714800D02*
X37052666Y26667181D01*
X37052666Y26667181D02*
X37290761Y26667181D01*
%TO.C,U3*%
X26886819Y21335905D02*
X27696342Y21335905D01*
X27696342Y21335905D02*
X27791580Y21288286D01*
X27791580Y21288286D02*
X27839200Y21240667D01*
X27839200Y21240667D02*
X27886819Y21145429D01*
X27886819Y21145429D02*
X27886819Y20954953D01*
X27886819Y20954953D02*
X27839200Y20859715D01*
X27839200Y20859715D02*
X27791580Y20812096D01*
X27791580Y20812096D02*
X27696342Y20764477D01*
X27696342Y20764477D02*
X26886819Y20764477D01*
X26886819Y20383524D02*
X26886819Y19764477D01*
X26886819Y19764477D02*
X27267771Y20097810D01*
X27267771Y20097810D02*
X27267771Y19954953D01*
X27267771Y19954953D02*
X27315390Y19859715D01*
X27315390Y19859715D02*
X27363009Y19812096D01*
X27363009Y19812096D02*
X27458247Y19764477D01*
X27458247Y19764477D02*
X27696342Y19764477D01*
X27696342Y19764477D02*
X27791580Y19812096D01*
X27791580Y19812096D02*
X27839200Y19859715D01*
X27839200Y19859715D02*
X27886819Y19954953D01*
X27886819Y19954953D02*
X27886819Y20240667D01*
X27886819Y20240667D02*
X27839200Y20335905D01*
X27839200Y20335905D02*
X27791580Y20383524D01*
D10*
%TO.C,C12*%
X40246650Y19371673D02*
X40270478Y19395501D01*
X40270478Y19395501D02*
X40294305Y19466983D01*
X40294305Y19466983D02*
X40294305Y19514639D01*
X40294305Y19514639D02*
X40270478Y19586122D01*
X40270478Y19586122D02*
X40222822Y19633777D01*
X40222822Y19633777D02*
X40175167Y19657604D01*
X40175167Y19657604D02*
X40079857Y19681432D01*
X40079857Y19681432D02*
X40008374Y19681432D01*
X40008374Y19681432D02*
X39913063Y19657604D01*
X39913063Y19657604D02*
X39865408Y19633777D01*
X39865408Y19633777D02*
X39817753Y19586122D01*
X39817753Y19586122D02*
X39793925Y19514639D01*
X39793925Y19514639D02*
X39793925Y19466983D01*
X39793925Y19466983D02*
X39817753Y19395501D01*
X39817753Y19395501D02*
X39841580Y19371673D01*
X40294305Y18895121D02*
X40294305Y19181052D01*
X40294305Y19038086D02*
X39793925Y19038086D01*
X39793925Y19038086D02*
X39865408Y19085742D01*
X39865408Y19085742D02*
X39913063Y19133397D01*
X39913063Y19133397D02*
X39936891Y19181052D01*
X39841580Y18704500D02*
X39817753Y18680672D01*
X39817753Y18680672D02*
X39793925Y18633017D01*
X39793925Y18633017D02*
X39793925Y18513879D01*
X39793925Y18513879D02*
X39817753Y18466224D01*
X39817753Y18466224D02*
X39841580Y18442396D01*
X39841580Y18442396D02*
X39889236Y18418569D01*
X39889236Y18418569D02*
X39936891Y18418569D01*
X39936891Y18418569D02*
X40008374Y18442396D01*
X40008374Y18442396D02*
X40294305Y18728328D01*
X40294305Y18728328D02*
X40294305Y18418569D01*
X40992805Y19697398D02*
X40992805Y19983329D01*
X40992805Y19840363D02*
X40492425Y19840363D01*
X40492425Y19840363D02*
X40563908Y19888019D01*
X40563908Y19888019D02*
X40611563Y19935674D01*
X40611563Y19935674D02*
X40635391Y19983329D01*
X40492425Y19387639D02*
X40492425Y19339984D01*
X40492425Y19339984D02*
X40516253Y19292328D01*
X40516253Y19292328D02*
X40540080Y19268501D01*
X40540080Y19268501D02*
X40587736Y19244673D01*
X40587736Y19244673D02*
X40683046Y19220846D01*
X40683046Y19220846D02*
X40802184Y19220846D01*
X40802184Y19220846D02*
X40897495Y19244673D01*
X40897495Y19244673D02*
X40945150Y19268501D01*
X40945150Y19268501D02*
X40968978Y19292328D01*
X40968978Y19292328D02*
X40992805Y19339984D01*
X40992805Y19339984D02*
X40992805Y19387639D01*
X40992805Y19387639D02*
X40968978Y19435294D01*
X40968978Y19435294D02*
X40945150Y19459122D01*
X40945150Y19459122D02*
X40897495Y19482949D01*
X40897495Y19482949D02*
X40802184Y19506777D01*
X40802184Y19506777D02*
X40683046Y19506777D01*
X40683046Y19506777D02*
X40587736Y19482949D01*
X40587736Y19482949D02*
X40540080Y19459122D01*
X40540080Y19459122D02*
X40516253Y19435294D01*
X40516253Y19435294D02*
X40492425Y19387639D01*
X40492425Y18911087D02*
X40492425Y18863432D01*
X40492425Y18863432D02*
X40516253Y18815776D01*
X40516253Y18815776D02*
X40540080Y18791949D01*
X40540080Y18791949D02*
X40587736Y18768121D01*
X40587736Y18768121D02*
X40683046Y18744294D01*
X40683046Y18744294D02*
X40802184Y18744294D01*
X40802184Y18744294D02*
X40897495Y18768121D01*
X40897495Y18768121D02*
X40945150Y18791949D01*
X40945150Y18791949D02*
X40968978Y18815776D01*
X40968978Y18815776D02*
X40992805Y18863432D01*
X40992805Y18863432D02*
X40992805Y18911087D01*
X40992805Y18911087D02*
X40968978Y18958742D01*
X40968978Y18958742D02*
X40945150Y18982570D01*
X40945150Y18982570D02*
X40897495Y19006397D01*
X40897495Y19006397D02*
X40802184Y19030225D01*
X40802184Y19030225D02*
X40683046Y19030225D01*
X40683046Y19030225D02*
X40587736Y19006397D01*
X40587736Y19006397D02*
X40540080Y18982570D01*
X40540080Y18982570D02*
X40516253Y18958742D01*
X40516253Y18958742D02*
X40492425Y18911087D01*
X40659218Y18529845D02*
X40992805Y18529845D01*
X40706874Y18529845D02*
X40683046Y18506018D01*
X40683046Y18506018D02*
X40659218Y18458363D01*
X40659218Y18458363D02*
X40659218Y18386880D01*
X40659218Y18386880D02*
X40683046Y18339224D01*
X40683046Y18339224D02*
X40730701Y18315397D01*
X40730701Y18315397D02*
X40992805Y18315397D01*
X40730701Y17910327D02*
X40730701Y18077120D01*
X40992805Y18077120D02*
X40492425Y18077120D01*
X40492425Y18077120D02*
X40492425Y17838844D01*
%TO.C,L1*%
X17434305Y26943897D02*
X17434305Y27182173D01*
X17434305Y27182173D02*
X16933925Y27182173D01*
X17434305Y26515000D02*
X17434305Y26800931D01*
X17434305Y26657965D02*
X16933925Y26657965D01*
X16933925Y26657965D02*
X17005408Y26705621D01*
X17005408Y26705621D02*
X17053063Y26753276D01*
X17053063Y26753276D02*
X17076891Y26800931D01*
X17870701Y29866831D02*
X17894529Y29795348D01*
X17894529Y29795348D02*
X17918357Y29771521D01*
X17918357Y29771521D02*
X17966012Y29747693D01*
X17966012Y29747693D02*
X18037495Y29747693D01*
X18037495Y29747693D02*
X18085150Y29771521D01*
X18085150Y29771521D02*
X18108978Y29795348D01*
X18108978Y29795348D02*
X18132805Y29843003D01*
X18132805Y29843003D02*
X18132805Y30033624D01*
X18132805Y30033624D02*
X17632425Y30033624D01*
X17632425Y30033624D02*
X17632425Y29866831D01*
X17632425Y29866831D02*
X17656253Y29819176D01*
X17656253Y29819176D02*
X17680080Y29795348D01*
X17680080Y29795348D02*
X17727736Y29771521D01*
X17727736Y29771521D02*
X17775391Y29771521D01*
X17775391Y29771521D02*
X17823046Y29795348D01*
X17823046Y29795348D02*
X17846874Y29819176D01*
X17846874Y29819176D02*
X17870701Y29866831D01*
X17870701Y29866831D02*
X17870701Y30033624D01*
X18132805Y29294968D02*
X18132805Y29533244D01*
X18132805Y29533244D02*
X17632425Y29533244D01*
X18132805Y29128174D02*
X17632425Y29128174D01*
X17632425Y29128174D02*
X17989839Y28961381D01*
X17989839Y28961381D02*
X17632425Y28794588D01*
X17632425Y28794588D02*
X18132805Y28794588D01*
X17680080Y28580139D02*
X17656253Y28556311D01*
X17656253Y28556311D02*
X17632425Y28508656D01*
X17632425Y28508656D02*
X17632425Y28389518D01*
X17632425Y28389518D02*
X17656253Y28341863D01*
X17656253Y28341863D02*
X17680080Y28318035D01*
X17680080Y28318035D02*
X17727736Y28294208D01*
X17727736Y28294208D02*
X17775391Y28294208D01*
X17775391Y28294208D02*
X17846874Y28318035D01*
X17846874Y28318035D02*
X18132805Y28603967D01*
X18132805Y28603967D02*
X18132805Y28294208D01*
X18132805Y27817656D02*
X18132805Y28103587D01*
X18132805Y27960621D02*
X17632425Y27960621D01*
X17632425Y27960621D02*
X17703908Y28008277D01*
X17703908Y28008277D02*
X17751563Y28055932D01*
X17751563Y28055932D02*
X17775391Y28103587D01*
X18132805Y27603207D02*
X17632425Y27603207D01*
X17632425Y27603207D02*
X17632425Y27412586D01*
X17632425Y27412586D02*
X17656253Y27364931D01*
X17656253Y27364931D02*
X17680080Y27341104D01*
X17680080Y27341104D02*
X17727736Y27317276D01*
X17727736Y27317276D02*
X17799218Y27317276D01*
X17799218Y27317276D02*
X17846874Y27341104D01*
X17846874Y27341104D02*
X17870701Y27364931D01*
X17870701Y27364931D02*
X17894529Y27412586D01*
X17894529Y27412586D02*
X17894529Y27603207D01*
X17656253Y26840724D02*
X17632425Y26888379D01*
X17632425Y26888379D02*
X17632425Y26959862D01*
X17632425Y26959862D02*
X17656253Y27031345D01*
X17656253Y27031345D02*
X17703908Y27079000D01*
X17703908Y27079000D02*
X17751563Y27102827D01*
X17751563Y27102827D02*
X17846874Y27126655D01*
X17846874Y27126655D02*
X17918357Y27126655D01*
X17918357Y27126655D02*
X18013667Y27102827D01*
X18013667Y27102827D02*
X18061322Y27079000D01*
X18061322Y27079000D02*
X18108978Y27031345D01*
X18108978Y27031345D02*
X18132805Y26959862D01*
X18132805Y26959862D02*
X18132805Y26912206D01*
X18132805Y26912206D02*
X18108978Y26840724D01*
X18108978Y26840724D02*
X18085150Y26816896D01*
X18085150Y26816896D02*
X17918357Y26816896D01*
X17918357Y26816896D02*
X17918357Y26912206D01*
X17632425Y26650103D02*
X17632425Y26340344D01*
X17632425Y26340344D02*
X17823046Y26507137D01*
X17823046Y26507137D02*
X17823046Y26435654D01*
X17823046Y26435654D02*
X17846874Y26387999D01*
X17846874Y26387999D02*
X17870701Y26364171D01*
X17870701Y26364171D02*
X17918357Y26340344D01*
X17918357Y26340344D02*
X18037495Y26340344D01*
X18037495Y26340344D02*
X18085150Y26364171D01*
X18085150Y26364171D02*
X18108978Y26387999D01*
X18108978Y26387999D02*
X18132805Y26435654D01*
X18132805Y26435654D02*
X18132805Y26578620D01*
X18132805Y26578620D02*
X18108978Y26626275D01*
X18108978Y26626275D02*
X18085150Y26650103D01*
X17632425Y26030585D02*
X17632425Y25982930D01*
X17632425Y25982930D02*
X17656253Y25935274D01*
X17656253Y25935274D02*
X17680080Y25911447D01*
X17680080Y25911447D02*
X17727736Y25887619D01*
X17727736Y25887619D02*
X17823046Y25863792D01*
X17823046Y25863792D02*
X17942184Y25863792D01*
X17942184Y25863792D02*
X18037495Y25887619D01*
X18037495Y25887619D02*
X18085150Y25911447D01*
X18085150Y25911447D02*
X18108978Y25935274D01*
X18108978Y25935274D02*
X18132805Y25982930D01*
X18132805Y25982930D02*
X18132805Y26030585D01*
X18132805Y26030585D02*
X18108978Y26078240D01*
X18108978Y26078240D02*
X18085150Y26102068D01*
X18085150Y26102068D02*
X18037495Y26125895D01*
X18037495Y26125895D02*
X17942184Y26149723D01*
X17942184Y26149723D02*
X17823046Y26149723D01*
X17823046Y26149723D02*
X17727736Y26125895D01*
X17727736Y26125895D02*
X17680080Y26102068D01*
X17680080Y26102068D02*
X17656253Y26078240D01*
X17656253Y26078240D02*
X17632425Y26030585D01*
X17632425Y25554033D02*
X17632425Y25506378D01*
X17632425Y25506378D02*
X17656253Y25458722D01*
X17656253Y25458722D02*
X17680080Y25434895D01*
X17680080Y25434895D02*
X17727736Y25411067D01*
X17727736Y25411067D02*
X17823046Y25387240D01*
X17823046Y25387240D02*
X17942184Y25387240D01*
X17942184Y25387240D02*
X18037495Y25411067D01*
X18037495Y25411067D02*
X18085150Y25434895D01*
X18085150Y25434895D02*
X18108978Y25458722D01*
X18108978Y25458722D02*
X18132805Y25506378D01*
X18132805Y25506378D02*
X18132805Y25554033D01*
X18132805Y25554033D02*
X18108978Y25601688D01*
X18108978Y25601688D02*
X18085150Y25625516D01*
X18085150Y25625516D02*
X18037495Y25649343D01*
X18037495Y25649343D02*
X17942184Y25673171D01*
X17942184Y25673171D02*
X17823046Y25673171D01*
X17823046Y25673171D02*
X17727736Y25649343D01*
X17727736Y25649343D02*
X17680080Y25625516D01*
X17680080Y25625516D02*
X17656253Y25601688D01*
X17656253Y25601688D02*
X17632425Y25554033D01*
X18108978Y25196619D02*
X18132805Y25125136D01*
X18132805Y25125136D02*
X18132805Y25005998D01*
X18132805Y25005998D02*
X18108978Y24958343D01*
X18108978Y24958343D02*
X18085150Y24934515D01*
X18085150Y24934515D02*
X18037495Y24910688D01*
X18037495Y24910688D02*
X17989839Y24910688D01*
X17989839Y24910688D02*
X17942184Y24934515D01*
X17942184Y24934515D02*
X17918357Y24958343D01*
X17918357Y24958343D02*
X17894529Y25005998D01*
X17894529Y25005998D02*
X17870701Y25101309D01*
X17870701Y25101309D02*
X17846874Y25148964D01*
X17846874Y25148964D02*
X17823046Y25172791D01*
X17823046Y25172791D02*
X17775391Y25196619D01*
X17775391Y25196619D02*
X17727736Y25196619D01*
X17727736Y25196619D02*
X17680080Y25172791D01*
X17680080Y25172791D02*
X17656253Y25148964D01*
X17656253Y25148964D02*
X17632425Y25101309D01*
X17632425Y25101309D02*
X17632425Y24982170D01*
X17632425Y24982170D02*
X17656253Y24910688D01*
X18132805Y24696239D02*
X17632425Y24696239D01*
X17632425Y24696239D02*
X18132805Y24410308D01*
X18132805Y24410308D02*
X17632425Y24410308D01*
X18132805Y23909928D02*
X18132805Y24195859D01*
X18132805Y24052893D02*
X17632425Y24052893D01*
X17632425Y24052893D02*
X17703908Y24100549D01*
X17703908Y24100549D02*
X17751563Y24148204D01*
X17751563Y24148204D02*
X17775391Y24195859D01*
X18132805Y23695479D02*
X17632425Y23695479D01*
X17632425Y23695479D02*
X17632425Y23576341D01*
X17632425Y23576341D02*
X17656253Y23504858D01*
X17656253Y23504858D02*
X17703908Y23457203D01*
X17703908Y23457203D02*
X17751563Y23433376D01*
X17751563Y23433376D02*
X17846874Y23409548D01*
X17846874Y23409548D02*
X17918357Y23409548D01*
X17918357Y23409548D02*
X18013667Y23433376D01*
X18013667Y23433376D02*
X18061322Y23457203D01*
X18061322Y23457203D02*
X18108978Y23504858D01*
X18108978Y23504858D02*
X18132805Y23576341D01*
X18132805Y23576341D02*
X18132805Y23695479D01*
D14*
%TO.C,R1*%
X6984999Y6258089D02*
X7238999Y6620946D01*
X7420428Y6258089D02*
X7420428Y7020089D01*
X7420428Y7020089D02*
X7130142Y7020089D01*
X7130142Y7020089D02*
X7057571Y6983803D01*
X7057571Y6983803D02*
X7021285Y6947517D01*
X7021285Y6947517D02*
X6984999Y6874946D01*
X6984999Y6874946D02*
X6984999Y6766089D01*
X6984999Y6766089D02*
X7021285Y6693517D01*
X7021285Y6693517D02*
X7057571Y6657232D01*
X7057571Y6657232D02*
X7130142Y6620946D01*
X7130142Y6620946D02*
X7420428Y6620946D01*
X6259285Y6258089D02*
X6694714Y6258089D01*
X6476999Y6258089D02*
X6476999Y7020089D01*
X6476999Y7020089D02*
X6549571Y6911232D01*
X6549571Y6911232D02*
X6622142Y6838660D01*
X6622142Y6838660D02*
X6694714Y6802374D01*
%TO.C,R2*%
X18414999Y6258089D02*
X18668999Y6620946D01*
X18850428Y6258089D02*
X18850428Y7020089D01*
X18850428Y7020089D02*
X18560142Y7020089D01*
X18560142Y7020089D02*
X18487571Y6983803D01*
X18487571Y6983803D02*
X18451285Y6947517D01*
X18451285Y6947517D02*
X18414999Y6874946D01*
X18414999Y6874946D02*
X18414999Y6766089D01*
X18414999Y6766089D02*
X18451285Y6693517D01*
X18451285Y6693517D02*
X18487571Y6657232D01*
X18487571Y6657232D02*
X18560142Y6620946D01*
X18560142Y6620946D02*
X18850428Y6620946D01*
X18124714Y6947517D02*
X18088428Y6983803D01*
X18088428Y6983803D02*
X18015857Y7020089D01*
X18015857Y7020089D02*
X17834428Y7020089D01*
X17834428Y7020089D02*
X17761857Y6983803D01*
X17761857Y6983803D02*
X17725571Y6947517D01*
X17725571Y6947517D02*
X17689285Y6874946D01*
X17689285Y6874946D02*
X17689285Y6802374D01*
X17689285Y6802374D02*
X17725571Y6693517D01*
X17725571Y6693517D02*
X18160999Y6258089D01*
X18160999Y6258089D02*
X17689285Y6258089D01*
%TO.C,R11*%
X33255856Y6512089D02*
X33509856Y6874946D01*
X33691285Y6512089D02*
X33691285Y7274089D01*
X33691285Y7274089D02*
X33400999Y7274089D01*
X33400999Y7274089D02*
X33328428Y7237803D01*
X33328428Y7237803D02*
X33292142Y7201517D01*
X33292142Y7201517D02*
X33255856Y7128946D01*
X33255856Y7128946D02*
X33255856Y7020089D01*
X33255856Y7020089D02*
X33292142Y6947517D01*
X33292142Y6947517D02*
X33328428Y6911232D01*
X33328428Y6911232D02*
X33400999Y6874946D01*
X33400999Y6874946D02*
X33691285Y6874946D01*
X32530142Y6512089D02*
X32965571Y6512089D01*
X32747856Y6512089D02*
X32747856Y7274089D01*
X32747856Y7274089D02*
X32820428Y7165232D01*
X32820428Y7165232D02*
X32892999Y7092660D01*
X32892999Y7092660D02*
X32965571Y7056374D01*
X31804428Y6512089D02*
X32239857Y6512089D01*
X32022142Y6512089D02*
X32022142Y7274089D01*
X32022142Y7274089D02*
X32094714Y7165232D01*
X32094714Y7165232D02*
X32167285Y7092660D01*
X32167285Y7092660D02*
X32239857Y7056374D01*
%TO.C,R12*%
X45193856Y6258089D02*
X45447856Y6620946D01*
X45629285Y6258089D02*
X45629285Y7020089D01*
X45629285Y7020089D02*
X45338999Y7020089D01*
X45338999Y7020089D02*
X45266428Y6983803D01*
X45266428Y6983803D02*
X45230142Y6947517D01*
X45230142Y6947517D02*
X45193856Y6874946D01*
X45193856Y6874946D02*
X45193856Y6766089D01*
X45193856Y6766089D02*
X45230142Y6693517D01*
X45230142Y6693517D02*
X45266428Y6657232D01*
X45266428Y6657232D02*
X45338999Y6620946D01*
X45338999Y6620946D02*
X45629285Y6620946D01*
X44468142Y6258089D02*
X44903571Y6258089D01*
X44685856Y6258089D02*
X44685856Y7020089D01*
X44685856Y7020089D02*
X44758428Y6911232D01*
X44758428Y6911232D02*
X44830999Y6838660D01*
X44830999Y6838660D02*
X44903571Y6802374D01*
X44177857Y6947517D02*
X44141571Y6983803D01*
X44141571Y6983803D02*
X44069000Y7020089D01*
X44069000Y7020089D02*
X43887571Y7020089D01*
X43887571Y7020089D02*
X43815000Y6983803D01*
X43815000Y6983803D02*
X43778714Y6947517D01*
X43778714Y6947517D02*
X43742428Y6874946D01*
X43742428Y6874946D02*
X43742428Y6802374D01*
X43742428Y6802374D02*
X43778714Y6693517D01*
X43778714Y6693517D02*
X44214142Y6258089D01*
X44214142Y6258089D02*
X43742428Y6258089D01*
D13*
%TO.C,C1*%
X2984500Y19812000D02*
X2984500Y21336000D01*
X1968500Y19812000D02*
X2984500Y19812000D01*
X952500Y21336000D02*
X-63500Y21336000D01*
X-63500Y21336000D02*
X-63500Y19812000D01*
X2984500Y21336000D02*
X1968500Y21336000D01*
X-63500Y19812000D02*
X952500Y19812000D01*
X3238500Y19812000D02*
G75*
G03*
X3238500Y19812000I-127000J0D01*
G01*
%TO.C,C2*%
X19050000Y21907500D02*
X19050000Y20891500D01*
X20574000Y20891500D02*
X20574000Y21907500D01*
X20574000Y23939500D02*
X19050000Y23939500D01*
X19050000Y23939500D02*
X19050000Y22923500D01*
X20574000Y22923500D02*
X20574000Y23939500D01*
X19050000Y20891500D02*
X20574000Y20891500D01*
X20701000Y24066500D02*
G75*
G03*
X20701000Y24066500I-127000J0D01*
G01*
%TO.C,C3*%
X20574000Y26606500D02*
X20574000Y27622500D01*
X20574000Y24574500D02*
X20574000Y25590500D01*
X19050000Y25590500D02*
X19050000Y24574500D01*
X19050000Y27622500D02*
X19050000Y26606500D01*
X19050000Y24574500D02*
X20574000Y24574500D01*
X20574000Y27622500D02*
X19050000Y27622500D01*
X19177000Y24447500D02*
G75*
G03*
X19177000Y24447500I-127000J0D01*
G01*
%TO.C,C4*%
X16510000Y20828000D02*
X16510000Y22352000D01*
X13462000Y20828000D02*
X14478000Y20828000D01*
X16510000Y22352000D02*
X15494000Y22352000D01*
X13462000Y22352000D02*
X13462000Y20828000D01*
X15494000Y20828000D02*
X16510000Y20828000D01*
X14478000Y22352000D02*
X13462000Y22352000D01*
X13462000Y22352000D02*
G75*
G03*
X13462000Y22352000I-127000J0D01*
G01*
%TO.C,C5*%
X7721600Y18897600D02*
X7721600Y17881600D01*
X9245600Y20929600D02*
X7721600Y20929600D01*
X7721600Y17881600D02*
X9245600Y17881600D01*
X7721600Y20929600D02*
X7721600Y19913600D01*
X9245600Y17881600D02*
X9245600Y18897600D01*
X9245600Y19913600D02*
X9245600Y20929600D01*
X9372600Y21056600D02*
G75*
G03*
X9372600Y21056600I-127000J0D01*
G01*
%TO.C,C6*%
X4025900Y18542000D02*
X4025900Y17018000D01*
X7073900Y18542000D02*
X6057900Y18542000D01*
X6057900Y17018000D02*
X7073900Y17018000D01*
X4025900Y17018000D02*
X5041900Y17018000D01*
X7073900Y17018000D02*
X7073900Y18542000D01*
X5041900Y18542000D02*
X4025900Y18542000D01*
X7327900Y17018000D02*
G75*
G03*
X7327900Y17018000I-127000J0D01*
G01*
%TO.C,C7*%
X10922000Y18542000D02*
X9906000Y18542000D01*
X11938000Y17018000D02*
X12954000Y17018000D01*
X9906000Y17018000D02*
X10922000Y17018000D01*
X12954000Y18542000D02*
X11938000Y18542000D01*
X9906000Y18542000D02*
X9906000Y17018000D01*
X12954000Y17018000D02*
X12954000Y18542000D01*
X9906000Y18542000D02*
G75*
G03*
X9906000Y18542000I-127000J0D01*
G01*
%TO.C,C8*%
X32766000Y18542000D02*
X31750000Y18542000D01*
X34798000Y17018000D02*
X34798000Y18542000D01*
X31750000Y18542000D02*
X31750000Y17018000D01*
X31750000Y17018000D02*
X32766000Y17018000D01*
X34798000Y18542000D02*
X33782000Y18542000D01*
X33782000Y17018000D02*
X34798000Y17018000D01*
X35052000Y17018000D02*
G75*
G03*
X35052000Y17018000I-127000J0D01*
G01*
%TO.C,C9*%
X48514000Y18542000D02*
X49530000Y18542000D01*
X46482000Y18542000D02*
X47498000Y18542000D01*
X47498000Y20066000D02*
X46482000Y20066000D01*
X49530000Y20066000D02*
X48514000Y20066000D01*
X49530000Y18542000D02*
X49530000Y20066000D01*
X46482000Y20066000D02*
X46482000Y18542000D01*
X46482000Y20066000D02*
G75*
G03*
X46482000Y20066000I-127000J0D01*
G01*
%TO.C,C10*%
X35306000Y16764000D02*
X36322000Y16764000D01*
X38354000Y18288000D02*
X37338000Y18288000D01*
X35306000Y18288000D02*
X35306000Y16764000D01*
X38354000Y16764000D02*
X38354000Y18288000D01*
X37338000Y16764000D02*
X38354000Y16764000D01*
X36322000Y18288000D02*
X35306000Y18288000D01*
X38608000Y16764000D02*
G75*
G03*
X38608000Y16764000I-127000J0D01*
G01*
%TO.C,C11*%
X45466000Y20472400D02*
X44450000Y20472400D01*
X43434000Y20472400D02*
X42418000Y20472400D01*
X45466000Y18948400D02*
X45466000Y20472400D01*
X44450000Y18948400D02*
X45466000Y18948400D01*
X42418000Y18948400D02*
X43434000Y18948400D01*
X42418000Y20472400D02*
X42418000Y18948400D01*
X42418000Y20472400D02*
G75*
G03*
X42418000Y20472400I-127000J0D01*
G01*
%TO.C,D1*%
X16459200Y31892240D02*
X17510760Y30891480D01*
X17510760Y30891480D02*
X15509240Y30891480D01*
X15509240Y30891480D02*
X16510000Y31892240D01*
X17559020Y31892240D02*
X15460980Y31892240D01*
%TO.C,D2*%
X6215380Y13500100D02*
X8313420Y13500100D01*
X7315200Y13500100D02*
X6263640Y14500860D01*
X8265160Y14500860D02*
X7264400Y13500100D01*
X6263640Y14500860D02*
X8265160Y14500860D01*
%TO.C,D3*%
X10906760Y14574520D02*
X9906000Y13573760D01*
X9956800Y13573760D02*
X8905240Y14574520D01*
X8856980Y13573760D02*
X10955020Y13573760D01*
X8905240Y14574520D02*
X10906760Y14574520D01*
%TO.C,D4*%
X797560Y14422120D02*
X-203200Y13421360D01*
X-152400Y13421360D02*
X-1203960Y14422120D01*
X-1252220Y13421360D02*
X845820Y13421360D01*
X-1203960Y14422120D02*
X797560Y14422120D01*
%TO.C,D5*%
X19202400Y13550900D02*
X18150840Y14551660D01*
X18102580Y13550900D02*
X20200620Y13550900D01*
X20152360Y14551660D02*
X19151600Y13550900D01*
X18150840Y14551660D02*
X20152360Y14551660D01*
%TO.C,D6*%
X38930580Y13449300D02*
X41028620Y13449300D01*
X40980360Y14450060D02*
X39979600Y13449300D01*
X38978840Y14450060D02*
X40980360Y14450060D01*
X40030400Y13449300D02*
X38978840Y14450060D01*
%TO.C,D7*%
X42468800Y13522960D02*
X41417240Y14523720D01*
X41368980Y13522960D02*
X43467020Y13522960D01*
X41417240Y14523720D02*
X43418760Y14523720D01*
X43418760Y14523720D02*
X42418000Y13522960D01*
%TO.C,D8*%
X29733240Y13558520D02*
X31734760Y13558520D01*
X29684980Y12557760D02*
X31783020Y12557760D01*
X31734760Y13558520D02*
X30734000Y12557760D01*
X30784800Y12557760D02*
X29733240Y13558520D01*
%TO.C,D9*%
X50784760Y14574520D02*
X49784000Y13573760D01*
X48734980Y13573760D02*
X50833020Y13573760D01*
X48783240Y14574520D02*
X50784760Y14574520D01*
X49834800Y13573760D02*
X48783240Y14574520D01*
%TO.C,R3*%
X4368800Y14478000D02*
X4368800Y13462000D01*
X5892800Y15494000D02*
X5892800Y16510000D01*
X5892800Y16510000D02*
X4368800Y16510000D01*
X4368800Y16510000D02*
X4368800Y15494000D01*
X4368800Y13462000D02*
X5892800Y13462000D01*
X5892800Y13462000D02*
X5892800Y14478000D01*
X6019800Y16637000D02*
G75*
G03*
X6019800Y16637000I-127000J0D01*
G01*
%TO.C,R4*%
X1828800Y16510000D02*
X1828800Y15494000D01*
X1828800Y14478000D02*
X1828800Y13462000D01*
X1828800Y13462000D02*
X3352800Y13462000D01*
X3352800Y13462000D02*
X3352800Y14478000D01*
X3352800Y16510000D02*
X1828800Y16510000D01*
X3352800Y15494000D02*
X3352800Y16510000D01*
X3479800Y16637000D02*
G75*
G03*
X3479800Y16637000I-127000J0D01*
G01*
%TO.C,R5*%
X11684000Y14478000D02*
X11684000Y13462000D01*
X11684000Y13462000D02*
X13208000Y13462000D01*
X13208000Y16510000D02*
X11684000Y16510000D01*
X11684000Y16510000D02*
X11684000Y15494000D01*
X13208000Y13462000D02*
X13208000Y14478000D01*
X13208000Y15494000D02*
X13208000Y16510000D01*
X13335000Y16637000D02*
G75*
G03*
X13335000Y16637000I-127000J0D01*
G01*
%TO.C,R6*%
X14224000Y13462000D02*
X15748000Y13462000D01*
X15748000Y13462000D02*
X15748000Y14478000D01*
X14224000Y14478000D02*
X14224000Y13462000D01*
X15748000Y15494000D02*
X15748000Y16510000D01*
X14224000Y16510000D02*
X14224000Y15494000D01*
X15748000Y16510000D02*
X14224000Y16510000D01*
X15875000Y16637000D02*
G75*
G03*
X15875000Y16637000I-127000J0D01*
G01*
%TO.C,R7*%
X2984500Y18796000D02*
X1968500Y18796000D01*
X-63500Y18796000D02*
X-63500Y17272000D01*
X1968500Y17272000D02*
X2984500Y17272000D01*
X2984500Y17272000D02*
X2984500Y18796000D01*
X-63500Y17272000D02*
X952500Y17272000D01*
X952500Y18796000D02*
X-63500Y18796000D01*
X-63500Y18796000D02*
G75*
G03*
X-63500Y18796000I-127000J0D01*
G01*
%TO.C,R8*%
X15494000Y18288000D02*
X16510000Y18288000D01*
X16510000Y18288000D02*
X16510000Y19812000D01*
X16510000Y19812000D02*
X15494000Y19812000D01*
X13462000Y18288000D02*
X14478000Y18288000D01*
X14478000Y19812000D02*
X13462000Y19812000D01*
X13462000Y19812000D02*
X13462000Y18288000D01*
X16764000Y18288000D02*
G75*
G03*
X16764000Y18288000I-127000J0D01*
G01*
%TO.C,R9*%
X6057900Y19050000D02*
X7073900Y19050000D01*
X5041900Y20574000D02*
X4025900Y20574000D01*
X4025900Y19050000D02*
X5041900Y19050000D01*
X7073900Y19050000D02*
X7073900Y20574000D01*
X7073900Y20574000D02*
X6057900Y20574000D01*
X4025900Y20574000D02*
X4025900Y19050000D01*
X4025900Y20574000D02*
G75*
G03*
X4025900Y20574000I-127000J0D01*
G01*
%TO.C,R10*%
X10922000Y20828000D02*
X9906000Y20828000D01*
X12954000Y20828000D02*
X11938000Y20828000D01*
X12954000Y19304000D02*
X12954000Y20828000D01*
X11938000Y19304000D02*
X12954000Y19304000D01*
X9906000Y19304000D02*
X10922000Y19304000D01*
X9906000Y20828000D02*
X9906000Y19304000D01*
X13208000Y19304000D02*
G75*
G03*
X13208000Y19304000I-127000J0D01*
G01*
%TO.C,R13*%
X37084000Y12954000D02*
X38608000Y12954000D01*
X37084000Y13970000D02*
X37084000Y12954000D01*
X38608000Y12954000D02*
X38608000Y13970000D01*
X37084000Y16002000D02*
X37084000Y14986000D01*
X38608000Y14986000D02*
X38608000Y16002000D01*
X38608000Y16002000D02*
X37084000Y16002000D01*
X38735000Y16129000D02*
G75*
G03*
X38735000Y16129000I-127000J0D01*
G01*
%TO.C,R14*%
X36068000Y14986000D02*
X36068000Y16002000D01*
X36068000Y12954000D02*
X36068000Y13970000D01*
X34544000Y13970000D02*
X34544000Y12954000D01*
X36068000Y16002000D02*
X34544000Y16002000D01*
X34544000Y16002000D02*
X34544000Y14986000D01*
X34544000Y12954000D02*
X36068000Y12954000D01*
X36195000Y16129000D02*
G75*
G03*
X36195000Y16129000I-127000J0D01*
G01*
%TO.C,R15*%
X45466000Y14732000D02*
X45466000Y15748000D01*
X43942000Y15748000D02*
X43942000Y14732000D01*
X45466000Y12700000D02*
X45466000Y13716000D01*
X43942000Y12700000D02*
X45466000Y12700000D01*
X45466000Y15748000D02*
X43942000Y15748000D01*
X43942000Y13716000D02*
X43942000Y12700000D01*
X45593000Y15875000D02*
G75*
G03*
X45593000Y15875000I-127000J0D01*
G01*
%TO.C,R16*%
X46228000Y13716000D02*
X46228000Y12700000D01*
X46228000Y12700000D02*
X47752000Y12700000D01*
X47752000Y15748000D02*
X46228000Y15748000D01*
X47752000Y14732000D02*
X47752000Y15748000D01*
X47752000Y12700000D02*
X47752000Y13716000D01*
X46228000Y15748000D02*
X46228000Y14732000D01*
X47879000Y15875000D02*
G75*
G03*
X47879000Y15875000I-127000J0D01*
G01*
%TO.C,R17*%
X34798000Y19558000D02*
X34798000Y21082000D01*
X33782000Y19558000D02*
X34798000Y19558000D01*
X34798000Y21082000D02*
X33782000Y21082000D01*
X32766000Y21082000D02*
X31750000Y21082000D01*
X31750000Y19558000D02*
X32766000Y19558000D01*
X31750000Y21082000D02*
X31750000Y19558000D01*
X31750000Y21082000D02*
G75*
G03*
X31750000Y21082000I-127000J0D01*
G01*
%TO.C,R18*%
X48514000Y20828000D02*
X49530000Y20828000D01*
X49530000Y22352000D02*
X48514000Y22352000D01*
X47498000Y22352000D02*
X46482000Y22352000D01*
X49530000Y20828000D02*
X49530000Y22352000D01*
X46482000Y22352000D02*
X46482000Y20828000D01*
X46482000Y20828000D02*
X47498000Y20828000D01*
X49784000Y20828000D02*
G75*
G03*
X49784000Y20828000I-127000J0D01*
G01*
%TO.C,R19*%
X38315900Y20523200D02*
X37299900Y20523200D01*
X35267900Y18999200D02*
X36283900Y18999200D01*
X35267900Y20523200D02*
X35267900Y18999200D01*
X38315900Y18999200D02*
X38315900Y20523200D01*
X37299900Y18999200D02*
X38315900Y18999200D01*
X36283900Y20523200D02*
X35267900Y20523200D01*
X35267900Y20523200D02*
G75*
G03*
X35267900Y20523200I-127000J0D01*
G01*
%TO.C,R20*%
X43434000Y18542000D02*
X42418000Y18542000D01*
X44450000Y17018000D02*
X45466000Y17018000D01*
X42418000Y17018000D02*
X43434000Y17018000D01*
X42418000Y18542000D02*
X42418000Y17018000D01*
X45466000Y17018000D02*
X45466000Y18542000D01*
X45466000Y18542000D02*
X44450000Y18542000D01*
X45720000Y17018000D02*
G75*
G03*
X45720000Y17018000I-127000J0D01*
G01*
%TO.C,R21*%
X44196000Y29210000D02*
X44196000Y30226000D01*
X44196000Y31242000D02*
X44196000Y32258000D01*
X42672000Y30226000D02*
X42672000Y29210000D01*
X42672000Y32258000D02*
X42672000Y31242000D01*
X44196000Y32258000D02*
X42672000Y32258000D01*
X42672000Y29210000D02*
X44196000Y29210000D01*
X42799000Y29083000D02*
G75*
G03*
X42799000Y29083000I-127000J0D01*
G01*
%TO.C,R22*%
X36220400Y31356300D02*
X36220400Y32372300D01*
X36220400Y32372300D02*
X34696400Y32372300D01*
X34696400Y30340300D02*
X34696400Y29324300D01*
X34696400Y29324300D02*
X36220400Y29324300D01*
X36220400Y29324300D02*
X36220400Y30340300D01*
X34696400Y32372300D02*
X34696400Y31356300D01*
X34823400Y29197300D02*
G75*
G03*
X34823400Y29197300I-127000J0D01*
G01*
%TO.C,R23*%
X23114000Y27686000D02*
X22098000Y27686000D01*
X25146000Y26162000D02*
X25146000Y27686000D01*
X22098000Y26162000D02*
X23114000Y26162000D01*
X22098000Y27686000D02*
X22098000Y26162000D01*
X25146000Y27686000D02*
X24130000Y27686000D01*
X24130000Y26162000D02*
X25146000Y26162000D01*
X25400000Y26162000D02*
G75*
G03*
X25400000Y26162000I-127000J0D01*
G01*
%TO.C,R24*%
X25654000Y27686000D02*
X25654000Y26162000D01*
X27686000Y26162000D02*
X28702000Y26162000D01*
X26670000Y27686000D02*
X25654000Y27686000D01*
X25654000Y26162000D02*
X26670000Y26162000D01*
X28702000Y26162000D02*
X28702000Y27686000D01*
X28702000Y27686000D02*
X27686000Y27686000D01*
X25654000Y27686000D02*
G75*
G03*
X25654000Y27686000I-127000J0D01*
G01*
%TO.C,U1*%
X6053000Y26705000D02*
X10203000Y26705000D01*
X10203000Y26705000D02*
X10203000Y26560000D01*
X6053000Y21700000D02*
X4653000Y21700000D01*
X6053000Y26705000D02*
X6053000Y26560000D01*
X10203000Y21555000D02*
X10203000Y21700000D01*
X6053000Y21555000D02*
X10203000Y21555000D01*
X6053000Y21555000D02*
X6053000Y21700000D01*
%TO.C,U2*%
X38311000Y26197000D02*
X38311000Y26052000D01*
X42461000Y21047000D02*
X42461000Y21192000D01*
X38311000Y26197000D02*
X42461000Y26197000D01*
X38311000Y21047000D02*
X42461000Y21047000D01*
X38311000Y21047000D02*
X38311000Y21192000D01*
X42461000Y26197000D02*
X42461000Y26052000D01*
X38311000Y21192000D02*
X36911000Y21192000D01*
%TO.C,U3*%
X23622000Y25654000D02*
X23622000Y15494000D01*
X26670000Y16129000D02*
X25400000Y16129000D01*
X28448000Y25654000D02*
X23622000Y25654000D01*
X23622000Y15494000D02*
X28448000Y15494000D01*
X26670000Y15494000D02*
X26670000Y16129000D01*
X28448000Y15494000D02*
X28448000Y25654000D01*
X25400000Y16129000D02*
X25400000Y15494000D01*
%TO.C,C12*%
X41148000Y17526000D02*
X41148000Y18542000D01*
X41148000Y20574000D02*
X39624000Y20574000D01*
X39624000Y18542000D02*
X39624000Y17526000D01*
X39624000Y20574000D02*
X39624000Y19558000D01*
X41148000Y19558000D02*
X41148000Y20574000D01*
X39624000Y17526000D02*
X41148000Y17526000D01*
X41275000Y20701000D02*
G75*
G03*
X41275000Y20701000I-127000J0D01*
G01*
%TO.C,L1*%
X18288000Y28384500D02*
X16764000Y28384500D01*
X16764000Y25336500D02*
X18288000Y25336500D01*
X16764000Y26352500D02*
X16764000Y25336500D01*
X18288000Y25336500D02*
X18288000Y26352500D01*
X18288000Y27368500D02*
X18288000Y28384500D01*
X16764000Y28384500D02*
X16764000Y27368500D01*
X18415000Y28511500D02*
G75*
G03*
X18415000Y28511500I-127000J0D01*
G01*
%TO.C,R1*%
X4318000Y7747000D02*
X5969000Y7747000D01*
X9398000Y7747000D02*
X7747000Y7747000D01*
X7747000Y5461000D02*
X9398000Y5461000D01*
X9398000Y5461000D02*
X9398000Y7747000D01*
X4318000Y5461000D02*
X4318000Y7747000D01*
X5969000Y5461000D02*
X4318000Y5461000D01*
%TO.C,R2*%
X15748000Y5461000D02*
X17399000Y5461000D01*
X17399000Y7747000D02*
X15748000Y7747000D01*
X20828000Y5461000D02*
X19177000Y5461000D01*
X19177000Y7747000D02*
X20828000Y7747000D01*
X20828000Y7747000D02*
X20828000Y5461000D01*
X15748000Y7747000D02*
X15748000Y5461000D01*
%TO.C,R11*%
X30226000Y5715000D02*
X30226000Y8001000D01*
X30226000Y8001000D02*
X31877000Y8001000D01*
X31877000Y5715000D02*
X30226000Y5715000D01*
X35306000Y5715000D02*
X35306000Y8001000D01*
X33655000Y5715000D02*
X35306000Y5715000D01*
X35306000Y8001000D02*
X33655000Y8001000D01*
%TO.C,R12*%
X42164000Y7747000D02*
X42164000Y5461000D01*
X43815000Y7747000D02*
X42164000Y7747000D01*
X47244000Y5461000D02*
X45593000Y5461000D01*
X45593000Y7747000D02*
X47244000Y7747000D01*
X42164000Y5461000D02*
X43815000Y5461000D01*
X47244000Y7747000D02*
X47244000Y5461000D01*
%TD*%
M02*
